<svg width="32" height="32" viewBox="0 0 32 32" fill="none" xmlns="http://www.w3.org/2000/svg">
<rect width="32" height="32" rx="8" fill="#2F3C4D"/>
<path d="M19.0358 14.9126L21.0145 11.6729L26.3481 19.6886L26.3506 21.2265L26.3331 10.641C26.3269 10.5134 26.2889 10.389 26.2224 10.2785C26.1559 10.1679 26.0628 10.0744 25.951 10.0059L16.3486 4.67657C16.2339 4.62398 16.1084 4.59697 15.9814 4.59754C15.8544 4.59812 15.7291 4.62627 15.6149 4.67991C15.5853 4.69425 15.5566 4.71027 15.5289 4.7279L15.4955 4.74828L6.17465 9.95994L6.13836 9.97569C6.09005 9.99728 6.04395 10.0232 6.00068 10.0531C5.82587 10.1736 5.70674 10.3552 5.66868 10.5592C5.66285 10.5901 5.65887 10.6213 5.65677 10.6527L5.67136 19.2788L10.6393 11.8489C11.2647 10.8638 12.6275 10.5464 13.8925 10.5636L15.3772 10.6007L6.62878 24.1382L7.66011 24.7111L16.5134 10.6142L20.4266 10.6005L11.5961 25.0526L15.2764 27.0963L15.7161 27.3403C15.9058 27.413 16.1164 27.4171 16.3089 27.3516L26.0462 21.9067L24.1836 22.9476L19.0358 14.9126ZM19.7908 25.4047L16.074 19.7759L18.3428 16.0612L23.2239 23.4847L19.7908 25.4047Z" fill="#2D374B"/>
<path d="M16.0748 19.7758L19.7915 25.4043L23.2249 23.4844L18.3439 16.061L16.0748 19.7758Z" fill="#28A0F0"/>
<path d="M26.3515 21.2271L26.349 19.6892L21.0155 11.6735L19.0356 14.9128L24.1844 22.9478L26.047 21.9069C26.1372 21.8363 26.2109 21.7482 26.2634 21.6483C26.3159 21.5485 26.346 21.439 26.3517 21.3271L26.3515 21.2271Z" fill="#28A0F0"/>
<path d="M4.00098 22.677L6.62992 24.1387L15.3784 10.6011L13.8937 10.564C12.6286 10.5468 11.2659 10.864 10.6404 11.8494L5.67251 19.2792L4.00194 21.757V22.6777L4.00098 22.677Z" fill="white"/>
<path d="M20.4269 10.6008L16.5139 10.6145L7.66064 24.7115L10.755 26.4307L11.5965 25.0535L20.4269 10.6008Z" fill="white"/>
<path d="M28 10.5818C27.9821 10.1921 27.8662 9.81253 27.6624 9.4757C27.4586 9.13887 27.1729 8.85493 26.83 8.64836L17.1019 3.2503C16.7546 3.08563 16.3728 3 15.9859 3C15.5989 3 15.2171 3.08563 14.8699 3.2503C14.7886 3.28976 5.40943 8.53867 5.40943 8.53867C5.27911 8.59905 5.15447 8.67021 5.03691 8.75138C4.73236 8.96035 4.48084 9.2332 4.30125 9.54942C4.12166 9.86564 4.01867 10.217 4 10.5772V21.7568L5.67057 19.279L5.65771 10.6533C5.66552 10.5351 5.70042 10.4199 5.75989 10.3163C5.81936 10.2126 5.90192 10.1229 6.00162 10.0537C6.04578 10.0232 15.5851 4.69514 15.6155 4.68051C15.7297 4.62687 15.8549 4.59872 15.9819 4.59814C16.109 4.59756 16.2345 4.62457 16.3492 4.67717L25.9515 10.0069C26.0634 10.0754 26.1565 10.1689 26.223 10.2794C26.2895 10.39 26.3274 10.5143 26.3336 10.642V21.3277C26.3313 21.4385 26.3045 21.5475 26.255 21.6475C26.2055 21.7475 26.1344 21.8361 26.0466 21.9075L24.184 22.9484L23.2239 23.4857L19.7906 25.4056L16.3087 27.3528C16.1162 27.4183 15.9056 27.4143 15.7159 27.3415L11.5965 25.0552L10.7551 26.4323L14.4572 28.4889C14.5797 28.556 14.6888 28.6157 14.7783 28.6642C14.9169 28.7383 15.0114 28.7893 15.0446 28.8048C15.3543 28.9358 15.6892 29.0023 16.0274 28.9999C16.3375 29.0004 16.6449 28.9446 16.9337 28.8354L27.0468 23.1842C27.3321 22.9701 27.5653 22.6982 27.7299 22.3877C27.8946 22.0771 27.9866 21.7356 27.9996 21.387L28 10.5818Z" fill="#96BEDC"/>
</svg>
