<svg width="32" height="32" viewBox="0 0 32 32" fill="none" xmlns="http://www.w3.org/2000/svg">
<rect width="32" height="32" rx="8" fill="#E84142"/>
<path fill-rule="evenodd" clip-rule="evenodd" d="M16.9291 6.6445C16.3912 5.78517 15.5355 5.78517 14.9975 6.6445L5.22958 22.5534C4.69167 23.424 5.13177 24.1137 6.2076 24.1137H11.1099C12.1002 24.0572 12.9926 23.571 13.5305 22.8021L19.4353 13.3382C19.8632 12.5241 19.8632 11.563 19.4353 10.7489L17.6749 7.88826L16.9291 6.6445ZM23.4206 17.1146C22.8827 16.2553 22.0147 16.2553 21.4768 17.1146L18.066 22.5532C17.5403 23.4125 17.9804 24.1136 19.044 24.1136H25.7923C26.8681 24.1136 27.3082 23.4125 26.7703 22.5532L23.4206 17.1146Z" fill="white"/>
</svg>
