<svg width="32" height="32" viewBox="0 0 32 32" fill="none" xmlns="http://www.w3.org/2000/svg">
<rect width="32" height="32" rx="8" fill="#0AC18E"/>
<path d="M21.1128 14.0936C22.1147 13.1923 22.5619 11.9579 21.9281 10.2709C21.0654 7.96458 18.8067 7.71891 16.1634 8.18488L15.283 4.90108L13.2818 5.43728L14.138 8.63501C13.6115 8.77608 13.0776 8.93024 12.5461 9.08411L11.6834 5.86605L9.684 6.40158L10.5633 9.6848C10.1324 9.80975 9.70913 9.93217 9.29364 10.0435L9.29103 10.0338L6.53051 10.7723L7.10285 12.9067C7.10285 12.9067 8.57321 12.483 8.55609 12.5165C9.3665 12.2999 9.75703 12.6992 9.94184 13.0845L10.9449 16.8255L12.353 22.0805C12.3855 22.3447 12.3444 22.7918 11.7781 22.9444C11.8099 22.9601 10.3223 23.3342 10.3223 23.3342L10.5649 25.8275L13.1687 25.1298C13.654 25.0004 14.1327 24.8802 14.6014 24.7586L15.493 28.0792L17.492 27.5442L16.6109 24.2581C17.1638 24.1219 17.696 23.9845 18.2143 23.8449L19.0901 27.116L21.0912 26.5798L20.2039 23.2639C23.5159 22.1696 25.6439 20.692 25.091 17.4575C24.6462 14.8532 23.1453 14.0398 21.1128 14.0936ZM13.2236 11.4211C14.3522 11.1187 17.8055 9.80855 18.4372 12.164C19.0418 14.4224 15.4227 15.1094 14.293 15.4121L13.2236 11.4211ZM16.011 21.8275L14.8328 17.4269C16.1887 17.0631 20.3375 15.5341 21.0318 18.123C21.6977 20.6057 17.3677 21.4629 16.011 21.8275Z" fill="white"/>
</svg>
