<svg width="32" height="32" viewBox="0 0 32 32" fill="none" xmlns="http://www.w3.org/2000/svg">
<rect width="32" height="32" rx="8" fill="#F7931A"/>
<path d="M21.5027 15.3881C22.7037 14.7769 23.4552 13.7003 23.2796 11.9068C23.0432 9.45573 20.9251 8.63384 18.2512 8.39978L18.2507 5H16.179L16.1784 8.31037C15.6333 8.31037 15.0776 8.32107 14.5245 8.33216L14.524 5.00045L12.4542 5.00026L12.4538 8.3992C12.0052 8.40835 11.5647 8.41705 11.1345 8.41705V8.407L8.27692 8.40584L8.2773 10.6157C8.2773 10.6157 9.80724 10.587 9.78203 10.6149C10.6209 10.6155 10.8948 11.1021 10.9735 11.5222L10.9742 15.3953V20.8357C10.9373 21.0993 10.7818 21.5206 10.1953 21.5214C10.222 21.5448 8.68825 21.5211 8.68825 21.5211L8.2773 23.9922H10.9729C11.4752 23.9928 11.9687 24.0006 12.4529 24.0045L12.4547 27.4428L14.524 27.4433L14.5235 24.0411C15.0928 24.0527 15.6423 24.0577 16.1791 24.057L16.1785 27.4433H18.2502L18.2513 24.0108C21.7337 23.811 24.1716 22.9345 24.4747 19.6671C24.7191 17.0364 23.4798 15.8622 21.5027 15.3881ZM14.574 10.7649C15.7424 10.7649 19.4171 10.3931 19.4177 12.8318C19.4171 15.1698 15.7436 14.8966 14.574 14.8966V10.7649ZM14.5731 21.5381L14.574 16.9825C15.9778 16.9821 20.381 16.5789 20.3816 19.2593C20.3822 21.8297 15.9778 21.5371 14.5731 21.5381Z" fill="white"/>
</svg>
