<svg width="32" height="32" viewBox="0 0 32 32" fill="none" xmlns="http://www.w3.org/2000/svg">
<rect width="32" height="32" rx="8" fill="black"/>
<g clip-path="url(#clip0_1820_6903)">
<path d="M11.1793 21.0961C10.6389 21.0961 10.1825 20.7139 10.0916 20.1855L7.01554 2.27587C6.96578 1.98706 7.03269 1.69825 7.20425 1.46041C7.37581 1.22256 7.62972 1.06456 7.91965 1.0153C8.52011 0.915062 9.0914 1.316 9.19434 1.91061L12.2704 19.8203C12.3201 20.1091 12.2532 20.3979 12.0817 20.6357C11.9101 20.8736 11.6562 21.0316 11.3663 21.0808C11.3062 21.091 11.2428 21.0961 11.1793 21.0961Z" fill="#CCFF00"/>
<path d="M11.1793 21.0961C10.6389 21.0961 10.1825 20.7139 10.0916 20.1855L7.01554 2.27587C6.96578 1.98706 7.03269 1.69825 7.20425 1.46041C7.37581 1.22256 7.62972 1.06456 7.91965 1.0153C8.52011 0.915062 9.0914 1.316 9.19434 1.91061L12.2704 19.8203C12.3201 20.1091 12.2532 20.3979 12.0817 20.6357C11.9101 20.8736 11.6562 21.0316 11.3663 21.0808C11.3062 21.091 11.2428 21.0961 11.1793 21.0961Z" fill="#CCFF00"/>
<path d="M16.3345 12.8362C14.5761 12.8362 12.9411 13.3577 11.5738 14.253L11.9461 16.4208C13.1212 15.4066 14.6567 14.7899 16.3345 14.7899C20.0248 14.7899 23.0271 17.7629 23.0271 21.4172C23.0271 25.0715 20.0248 28.0446 16.3345 28.0446C12.6443 28.0446 9.64201 25.0715 9.64201 21.4172C9.64201 20.9296 9.69691 20.4557 9.79813 19.9987L9.20454 16.5482C8.23694 17.9328 7.66908 19.6113 7.66908 21.4189C7.66908 26.1503 11.5566 30 16.3345 30C21.1125 30 25 26.1503 25 21.4189C25 16.6875 21.1142 12.8362 16.3345 12.8362Z" fill="#CCFF00"/>
<path d="M15.861 26.4255C16.5129 26.4255 17.0414 25.9022 17.0414 25.2567C17.0414 24.6112 16.5129 24.0879 15.861 24.0879C15.2092 24.0879 14.6807 24.6112 14.6807 25.2567C14.6807 25.9022 15.2092 26.4255 15.861 26.4255Z" fill="#1CD8D2"/>
<path d="M19.5478 25.0647C20.1997 25.0647 20.7282 24.5414 20.7282 23.8959C20.7282 23.2504 20.1997 22.7271 19.5478 22.7271C18.896 22.7271 18.3675 23.2504 18.3675 23.8959C18.3675 24.5414 18.896 25.0647 19.5478 25.0647Z" fill="#1CD8D2"/>
<path d="M16.6502 22.5589C17.3021 22.5589 17.8305 22.0356 17.8305 21.39C17.8305 20.7445 17.3021 20.2212 16.6502 20.2212C15.9983 20.2212 15.4699 20.7445 15.4699 21.39C15.4699 22.0356 15.9983 22.5589 16.6502 22.5589Z" fill="#1CD8D2"/>
<path d="M12.9857 23.7532C13.6376 23.7532 14.166 23.2299 14.166 22.5844C14.166 21.9388 13.6376 21.4155 12.9857 21.4155C12.3338 21.4155 11.8054 21.9388 11.8054 22.5844C11.8054 23.2299 12.3338 23.7532 12.9857 23.7532Z" fill="#1CD8D2"/>
<path d="M20.3027 21.3612C20.9546 21.3612 21.483 20.8378 21.483 20.1923C21.483 19.5468 20.9546 19.0235 20.3027 19.0235C19.6508 19.0235 19.1224 19.5468 19.1224 20.1923C19.1224 20.8378 19.6508 21.3612 20.3027 21.3612Z" fill="#1CD8D2"/>
<path d="M17.4377 18.6922C18.0895 18.6922 18.618 18.1689 18.618 17.5234C18.618 16.8778 18.0895 16.3545 17.4377 16.3545C16.7858 16.3545 16.2573 16.8778 16.2573 17.5234C16.2573 18.1689 16.7858 18.6922 17.4377 18.6922Z" fill="#1CD8D2"/>
<path d="M13.7388 20.0513C14.3907 20.0513 14.9192 19.528 14.9192 18.8825C14.9192 18.237 14.3907 17.7137 13.7388 17.7137C13.087 17.7137 12.5585 18.237 12.5585 18.8825C12.5585 19.528 13.087 20.0513 13.7388 20.0513Z" fill="#1CD8D2"/>
</g>
<defs>
<clipPath id="clip0_1820_6903">
<rect width="18" height="29" fill="white" transform="translate(7 1)"/>
</clipPath>
</defs>
</svg>
