<svg width="32" height="32" viewBox="0 0 32 32" fill="none" xmlns="http://www.w3.org/2000/svg">
<rect width="32" height="32" rx="8" fill="#F0B90B"/>
<g clip-path="url(#clip0_1779_7462)">
<path fill-rule="evenodd" clip-rule="evenodd" d="M16.0002 3L8.63229 7.0845L11.3413 8.59335L16.0002 6.01807L20.6591 8.59335L23.3681 7.0845L16.0002 3ZM20.6591 10.727L23.3681 12.2347V15.2554L18.7088 17.8292V22.9794L16.0002 24.4882L13.2904 22.9794V17.8292L8.63229 15.2554V12.2347L11.3413 10.727L16.0006 13.3023L20.6591 10.727ZM23.3681 17.3868V20.4048L20.6591 21.9137V18.896L23.3681 17.3868ZM20.6321 24.0469L25.2914 21.4717V16.3203L28.0004 14.8115V22.9794L20.6321 27.065V24.0469ZM25.2914 11.169L22.5825 9.66017L25.2914 8.15132L28.0004 9.66017V12.6782L25.2914 14.1871V11.169ZM13.2904 28.1578V25.1398L16.0002 26.6501L18.7088 25.1413V28.1594L16.0002 29.6682L13.2904 28.1578ZM11.3413 21.9137L8.63229 20.4048V17.3868L11.3413 18.896V21.9137ZM16.0006 11.169L13.2904 9.66017L15.9994 8.15132L18.708 9.66017L16.0006 11.169ZM9.41793 9.66017L6.70897 11.169V14.1871L4 12.6782V9.66017L6.70897 8.15132L9.41793 9.66017ZM4 14.8115L6.70897 16.3203V21.4717L11.3683 24.0469V27.065L4 22.9794V14.8115Z" fill="white"/>
</g>
<defs>
<clipPath id="clip0_1779_7462">
<rect width="24" height="26.6667" fill="white" transform="translate(4 3)"/>
</clipPath>
</defs>
</svg>
