<svg width="32" height="32" viewBox="0 0 32 32" fill="none" xmlns="http://www.w3.org/2000/svg">
<rect width="32" height="32" rx="8" fill="white"/>
<path fill-rule="evenodd" clip-rule="evenodd" d="M18.5422 20.3362C22.4176 20.3362 25.5592 17.221 25.5592 13.3782C25.5592 9.53539 22.4176 6.42018 18.5422 6.42018C14.6669 6.42018 11.5253 9.53539 11.5253 13.3782C11.5253 17.221 14.6669 20.3362 18.5422 20.3362ZM18.5422 22.7564C23.7655 22.7564 27.9999 18.5576 27.9999 13.3782C27.9999 8.19876 23.7655 4 18.5422 4C13.3189 4 9.08458 8.19876 9.08458 13.3782C9.08458 18.5576 13.3189 22.7564 18.5422 22.7564Z" fill="#34D07F"/>
<path fill-rule="evenodd" clip-rule="evenodd" d="M13.4576 25.5799C17.333 25.5799 20.4746 22.4647 20.4746 18.6219C20.4746 14.7791 17.333 11.6639 13.4576 11.6639C9.58228 11.6639 6.44068 14.7791 6.44068 18.6219C6.44068 22.4647 9.58228 25.5799 13.4576 25.5799ZM13.4576 28.0001C18.681 28.0001 22.9153 23.8013 22.9153 18.6219C22.9153 13.4424 18.681 9.24368 13.4576 9.24368C8.23433 9.24368 4 13.4424 4 18.6219C4 23.8013 8.23433 28.0001 13.4576 28.0001Z" fill="#EFD17F"/>
<path d="M20.313 20.1129C20.1004 21.0787 19.6855 21.9696 19.1145 22.7396C20.2353 22.6733 21.3036 22.4134 22.2857 21.9932C22.6694 21.0058 22.8895 19.9379 22.9131 18.822C22.1578 19.419 21.2756 19.8647 20.313 20.1129Z" fill="#36A52D"/>
<path d="M9.71418 10.0071C9.33047 10.9945 9.11038 12.0625 9.08684 13.1784C9.84205 12.5813 10.7243 12.1356 11.6869 11.8875C11.8995 10.9216 12.3144 10.0307 12.8854 9.26071C11.7646 9.32704 10.6963 9.58692 9.71418 10.0071Z" fill="#36A52D"/>
</svg>
