<svg width="32" height="32" viewBox="0 0 32 32" fill="none" xmlns="http://www.w3.org/2000/svg">
<rect width="32" height="32" rx="8" fill="white"/>
<path fill-rule="evenodd" clip-rule="evenodd" d="M19.1689 10.6605L10.7704 19.0593C10.6621 18.8492 10.5644 18.6303 10.4769 18.4031C10.1836 17.64 10.0369 16.8303 10.0369 15.9752C10.0369 15.1194 10.1836 14.3101 10.4769 13.547C10.7704 12.7835 11.1772 12.1212 11.6972 11.5591C12.2173 10.9972 12.8423 10.5529 13.5717 10.2256C14.3017 9.89871 15.1025 9.73509 15.9746 9.73509C16.847 9.73509 17.6522 9.90279 18.3898 10.2385C18.6642 10.3631 18.9239 10.5036 19.1689 10.6605ZM18.4279 21.7747C17.698 22.1019 16.8973 22.2653 16.0251 22.2653C15.1527 22.2653 14.3475 22.0975 13.6094 21.7622C13.3355 21.6372 13.0758 21.4967 12.8311 21.3395L21.2292 12.9414C21.3376 13.1512 21.4353 13.3698 21.5229 13.5972C21.8161 14.3604 21.9628 15.17 21.9628 16.0254C21.9628 16.8809 21.8161 17.6901 21.5229 18.4537C21.2292 19.2168 20.8225 19.8791 20.3024 20.4409C19.7824 21.0028 19.1577 21.4475 18.4279 21.7747ZM19.6986 24.3788C20.8225 23.8924 21.7954 23.2341 22.6173 22.4034C23.4391 21.5734 24.0763 20.6046 24.5292 19.4975C24.9823 18.3906 25.2088 17.2163 25.2088 15.9752C25.2088 14.7338 24.9823 13.5596 24.5292 12.4522C24.2607 11.7957 23.93 11.1894 23.5376 10.633L29 5.17057L26.8295 3L21.3505 8.47904C20.8586 8.14365 20.3245 7.85375 19.7488 7.60899C18.6248 7.13102 17.3836 6.89169 16.0251 6.89169C14.6662 6.89169 13.4251 7.13508 12.3012 7.62155C11.1772 8.10801 10.2042 8.76623 9.38238 9.59658C8.56046 10.4269 7.92299 11.3958 7.47011 12.5028C7.01722 13.6098 6.79078 14.784 6.79078 16.0255C6.79078 17.2666 7.01722 18.4404 7.47011 19.5478C7.73897 20.2046 8.06956 20.811 8.462 21.3677L3 26.8295L5.1705 29L10.6492 23.5212C11.1411 23.8567 11.6752 24.1467 12.2509 24.3913C13.3749 24.8693 14.6159 25.1084 15.9746 25.1084C17.3334 25.1084 18.5746 24.8649 19.6986 24.3788Z" fill="black"/>
</svg>
