<svg width="32" height="32" viewBox="0 0 32 32" fill="none" xmlns="http://www.w3.org/2000/svg">
<rect width="32" height="32" rx="8" fill="#050505"/>
<g clip-path="url(#clip0_1898_6821)">
<path d="M15.7081 5.00294C17.0314 5.00294 18.3545 5.00254 19.6778 5.00401C19.7437 5.00401 19.8129 5.0095 19.8747 5.03012C19.9791 5.06479 20.0238 5.14432 19.9892 5.25008C19.9521 5.36334 19.9024 5.47459 19.8435 5.57834C19.5513 6.0939 19.2554 6.60744 18.9587 7.12046C18.7333 7.51003 18.5049 7.89774 18.2777 8.28625C18.2687 8.30164 18.2572 8.31557 18.2483 8.33096C18.1143 8.56511 17.9069 8.64664 17.6439 8.64584C16.2983 8.64169 14.9527 8.64557 13.6071 8.64209C13.4162 8.64155 13.2255 8.61558 13.0346 8.60233C12.9901 8.59925 12.9453 8.59938 12.9006 8.59938C11.8993 8.59925 10.8979 8.59965 9.89659 8.59845C9.82564 8.59845 9.75266 8.5959 9.68425 8.57957C9.54649 8.54677 9.47969 8.4481 9.50813 8.31021C9.5257 8.22453 9.55414 8.1351 9.60082 8.06214C10.0234 7.40066 10.4032 6.71441 10.7926 6.03365C10.9299 5.79388 11.0771 5.55973 11.2093 5.31728C11.3344 5.08728 11.519 4.99879 11.7787 5C13.0884 5.00629 14.3983 5.00281 15.7081 5.00281V5.00294Z" fill="#1FDADA"/>
<path d="M25.8526 14.418C25.8247 14.4895 25.805 14.5685 25.7658 14.6361C25.4169 15.2371 25.0622 15.8348 24.7139 16.4362C24.4683 16.8603 24.2337 17.2907 23.987 17.7142C23.7178 18.1761 23.4372 18.6315 23.167 19.0928C22.8901 19.5657 22.6195 20.0422 22.3472 20.5175C22.1588 20.8462 21.973 21.1762 21.7842 21.5043C21.7488 21.5659 21.708 21.6256 21.6617 21.6795C21.5473 21.8123 21.4264 21.8168 21.3119 21.6853C21.2482 21.6123 21.1993 21.5254 21.1497 21.4413C20.9732 21.1419 20.7987 20.8415 20.6246 20.541C20.466 20.2672 20.3105 19.9917 20.151 19.7184C20.0095 19.476 19.8625 19.2368 19.7217 18.9939C19.6503 18.8706 19.5853 18.7436 19.5213 18.6161C19.4538 18.482 19.4661 18.3501 19.541 18.2209C19.7331 17.8893 19.9211 17.5553 20.1156 17.2251C20.3417 16.8412 20.5761 16.4622 20.8008 16.0774C21.0974 15.5696 21.3882 15.0585 21.6809 14.5484C21.9692 14.046 22.2547 13.5421 22.545 13.0407C22.737 12.7091 22.9378 12.3826 23.1296 12.051C23.2523 11.8389 23.3645 11.621 23.4845 11.4074C23.5301 11.3263 23.5769 11.2433 23.6373 11.1734C23.7451 11.0488 23.8694 11.0454 23.9842 11.1602C24.0402 11.2163 24.0901 11.2812 24.1304 11.3496C24.2818 11.6068 24.4274 11.8674 24.5767 12.1261C24.7481 12.4231 24.9194 12.7205 25.094 13.0157C25.2777 13.3264 25.4665 13.6341 25.6502 13.9448C25.7045 14.0368 25.7527 14.1327 25.7965 14.2302C25.8216 14.2859 25.8322 14.3481 25.8525 14.418H25.8526Z" fill="#1FDADA"/>
<path d="M8.21839 14.6408C8.75481 14.6408 9.29123 14.6448 9.82751 14.6388C10.0353 14.6364 10.1949 14.7147 10.3041 14.8831C10.4275 15.0736 10.5378 15.2726 10.6525 15.4687C10.8212 15.7571 10.99 16.0456 11.1568 16.335C11.2724 16.5357 11.3832 16.7392 11.4993 16.9397C11.7022 17.2906 11.9076 17.6401 12.1118 17.9905C12.3159 18.3409 12.5218 18.6901 12.7237 19.0418C13.0564 19.6215 13.3854 20.2032 13.7178 20.7829C13.915 21.1269 14.1159 21.4689 14.3151 21.8117C14.3195 21.8195 14.3253 21.8264 14.3296 21.8342C14.45 22.0542 14.3724 22.1965 14.1206 22.2166C14.0895 22.2191 14.0581 22.2172 14.0267 22.2172C12.9494 22.2172 11.8723 22.2154 10.7951 22.2188C10.5786 22.2195 10.4153 22.1429 10.3057 21.9547C10.1107 21.6197 9.9143 21.2856 9.71832 20.9513C9.5359 20.64 9.35146 20.3298 9.17104 20.0174C8.91712 19.5776 8.66668 19.1358 8.41329 18.6956C8.24884 18.4099 8.08184 18.1256 7.91604 17.8406C7.54649 17.2051 7.17627 16.5699 6.80806 15.9336C6.63851 15.6406 6.47285 15.3453 6.30665 15.0502C6.28492 15.0116 6.26695 14.9701 6.25273 14.9282C6.21249 14.8099 6.2534 14.7151 6.37332 14.674C6.43918 14.6515 6.51269 14.6427 6.58271 14.6423C7.12798 14.6399 7.67339 14.6409 8.21866 14.6409L8.21839 14.6408Z" fill="#1FDADA"/>
<path d="M14.4298 12.6328C13.527 12.6328 12.6241 12.6304 11.7214 12.6344C11.4695 12.6355 11.2861 12.5414 11.1614 12.3194C10.9147 11.8805 10.6629 11.4446 10.4099 11.0094C10.119 10.5086 9.82428 10.01 9.53213 9.50987C9.50745 9.4677 9.48625 9.42285 9.46948 9.37707C9.41489 9.22847 9.46962 9.11159 9.62589 9.08656C9.77894 9.06192 9.93629 9.06192 10.0919 9.05724C10.167 9.05496 10.2425 9.06795 10.3179 9.07196C10.3624 9.07424 10.4072 9.0725 10.4519 9.07237C12.8334 9.06648 15.2149 9.06018 17.5964 9.0555C17.6939 9.05536 17.7921 9.06527 17.8889 9.07826C18.027 9.097 18.1273 9.18 18.1973 9.29353C18.3702 9.57413 18.5348 9.85969 18.7072 10.1406C18.8072 10.3036 18.7965 10.4577 18.7025 10.6188C18.4912 10.9804 18.2858 11.3453 18.0757 11.7076C17.9549 11.9156 17.8282 12.12 17.7068 12.3277C17.5791 12.5462 17.3865 12.6347 17.138 12.634C16.2353 12.6315 15.3324 12.6329 14.4296 12.6329L14.4298 12.6328Z" fill="#1FDADA"/>
<path d="M12.684 13.1415C13.0237 13.1415 13.3634 13.1435 13.7032 13.1407C13.8888 13.1391 14.0334 13.2085 14.1288 13.3683C14.2704 13.6055 14.4094 13.8442 14.5488 14.0827C14.8141 14.5366 15.0787 14.9909 15.3438 15.445C15.5461 15.7913 15.7502 16.1365 15.9506 16.4839C16.2778 17.0512 16.6008 17.6211 16.9297 18.1874C17.0208 18.3441 17.0368 18.497 16.9481 18.6555C16.835 18.8576 16.7193 19.0583 16.6034 19.259C16.2936 19.7953 15.9834 20.3315 15.6731 20.8674C15.5548 21.0717 15.4382 21.277 15.3156 21.4788C15.2628 21.5658 15.2038 21.6512 15.1351 21.726C15.0495 21.8194 14.9669 21.8211 14.8846 21.7219C14.7799 21.5955 14.6816 21.4611 14.5991 21.3195C14.2715 20.7575 13.9521 20.1906 13.6279 19.6266C13.3281 19.1052 13.0275 18.5841 12.7245 18.0645C12.4753 17.6373 12.2193 17.214 11.9713 16.7862C11.8417 16.5626 11.727 16.3306 11.5983 16.1066C11.4472 15.8439 11.2857 15.5873 11.1332 15.3256C11.0031 15.1023 10.88 14.8751 10.7524 14.6503C10.6468 14.4645 10.6593 14.2945 10.7815 14.1135C10.9309 13.8923 11.0589 13.6565 11.1928 13.4251C11.2714 13.2892 11.363 13.1727 11.5312 13.149C11.5752 13.1429 11.6201 13.1417 11.6647 13.1415C12.0044 13.141 12.3441 13.1413 12.6838 13.1413L12.684 13.1415Z" fill="#1FDADA"/>
<path d="M18.244 18.1478C18.1188 18.1478 17.9937 18.1442 17.8687 18.1486C17.6225 18.1572 17.435 18.0534 17.3082 17.8493C17.1674 17.6224 17.0381 17.3882 16.9035 17.1573C16.7533 16.8994 16.6024 16.642 16.453 16.3836C16.4174 16.322 16.3862 16.2579 16.3533 16.1948C16.2469 15.9913 16.2608 15.7968 16.3797 15.5998C16.6028 15.2299 16.8202 14.8563 17.0361 14.4822C17.2742 14.0694 17.5062 13.6532 17.7442 13.2403C17.8598 13.0397 17.986 12.8451 18.1021 12.6446C18.3854 12.155 18.6652 11.6634 18.9471 11.173C19.0204 11.0456 19.0964 10.9197 19.1711 10.7931C19.2606 10.6414 19.3929 10.5698 19.5699 10.5702C19.6988 10.5704 19.8279 10.5538 19.9568 10.5544C20.9436 10.5587 21.9305 10.565 22.9174 10.5725C22.9787 10.573 23.0433 10.5801 23.1003 10.6007C23.1965 10.6352 23.2412 10.7144 23.2086 10.8122C23.1697 10.9295 23.1191 11.0449 23.0581 11.1525C22.7705 11.6602 22.4781 12.1652 22.1867 12.6707C21.9443 13.0913 21.7037 13.5132 21.4574 13.9317C21.2428 14.2963 21.0173 14.6546 20.8043 15.0202C20.5644 15.432 20.3339 15.8492 20.0979 16.2632C19.8245 16.7431 19.552 17.2235 19.2736 17.7005C19.2137 17.8034 19.1372 17.8985 19.0569 17.9869C18.9563 18.0975 18.821 18.1442 18.6727 18.1471C18.5297 18.15 18.3867 18.1478 18.2437 18.1478H18.244Z" fill="#1FDADA"/>
<path d="M13.7769 24.2787C14.3132 24.2787 14.8496 24.2848 15.3858 24.2758C15.6239 24.272 15.7863 24.3728 15.9027 24.5677C15.9941 24.7207 16.0856 24.8737 16.1728 25.0292C16.4977 25.608 16.8193 26.1887 17.1453 26.7669C17.2917 27.0269 17.4467 27.2822 17.5952 27.5411C17.6236 27.5906 17.6452 27.6456 17.6604 27.7007C17.6958 27.8294 17.6518 27.9213 17.529 27.9675C17.4761 27.9874 17.4165 27.9985 17.36 27.9987C16.2561 28.0004 15.1522 27.9997 14.0483 28.0001C13.8432 28.0001 13.6888 27.9158 13.5867 27.736C13.3866 27.3835 13.1826 27.0331 12.984 26.6797C12.707 26.1864 12.4343 25.6906 12.1584 25.1968C12.0715 25.0412 11.9792 24.8886 11.8909 24.7338C11.8622 24.6836 11.8319 24.6329 11.8137 24.5785C11.7645 24.4321 11.8295 24.3203 11.981 24.2894C12.0329 24.2788 12.0876 24.2792 12.141 24.2791C12.6862 24.2784 13.2315 24.2787 13.7767 24.2787H13.7769Z" fill="#1FDADA"/>
<path d="M6.91093 12.7131C6.45057 12.7131 5.99034 12.7146 5.52998 12.7122C5.39651 12.7115 5.26278 12.7047 5.12984 12.6922C5.01516 12.6815 4.91214 12.6331 4.84037 12.5415C4.76351 12.4435 4.68933 12.3417 4.6279 12.2337C4.40563 11.8425 4.19195 11.4465 3.96995 11.0552C3.68196 10.5475 3.38913 10.0428 3.09872 9.53651C3.07216 9.49019 3.04426 9.44387 3.02414 9.3946C2.95694 9.23007 3.03326 9.09914 3.21073 9.07625C3.30328 9.06433 3.39691 9.05523 3.49001 9.05509C4.49108 9.05362 5.49215 9.05335 6.49322 9.0555C6.59047 9.05576 6.69041 9.06433 6.7843 9.08816C6.9662 9.13435 7.07391 9.27358 7.16244 9.42687C7.44078 9.90922 7.71697 10.3928 7.99369 10.8759C8.25271 11.3283 8.512 11.7804 8.76968 12.2334C8.79584 12.2795 8.8173 12.3294 8.83286 12.38C8.88048 12.5353 8.80845 12.6592 8.6511 12.6882C8.57277 12.7027 8.49215 12.7114 8.41247 12.7118C7.91187 12.7138 7.4114 12.7129 6.9108 12.7129L6.91093 12.7131Z" fill="#1FDADA"/>
<path d="M16.2382 24.0215C16.2625 23.9515 16.2773 23.8761 16.3128 23.8124C16.4953 23.4857 16.68 23.1601 16.8698 22.8377C17.1049 22.4385 17.3478 22.044 17.5836 21.645C17.7083 21.4342 17.8234 21.2177 17.946 21.0057C17.9858 20.9367 18.0294 20.8675 18.0832 20.8094C18.1836 20.7008 18.2927 20.6943 18.4 20.7951C18.4639 20.855 18.5162 20.9304 18.5615 21.0061C18.6578 21.1663 18.7446 21.3323 18.8382 21.4943C19.2486 22.2037 19.6601 22.9124 20.0707 23.6219C20.1154 23.699 20.1571 23.7777 20.1993 23.8561C20.2703 23.988 20.2696 24.1199 20.1972 24.2512C20.1865 24.2708 20.1761 24.2904 20.1651 24.3097C19.7845 24.9844 19.4035 25.6592 19.0231 26.334C18.8569 26.629 18.694 26.9256 18.5245 27.2186C18.4828 27.2907 18.4279 27.3587 18.3665 27.4152C18.2865 27.4887 18.1936 27.4846 18.114 27.4095C18.0664 27.3644 18.025 27.3095 17.9924 27.2523C17.6812 26.7068 17.3717 26.1601 17.0631 25.6131C16.8353 25.2098 16.6077 24.8063 16.3838 24.4007C16.3198 24.2848 16.2447 24.1698 16.238 24.0215H16.2382Z" fill="#1FDADA"/>
<path d="M6.93884 5.00299C7.4707 5.00299 8.00255 5.00272 8.53441 5.00299C8.86828 5.00325 8.97304 5.17997 8.80792 5.4674C8.37492 6.22059 7.94152 6.97364 7.50597 7.72535C7.38994 7.92563 7.26265 8.11961 7.14554 8.31936C7.00966 8.55123 6.80336 8.64481 6.54259 8.64414C6.07324 8.64294 5.60403 8.64387 5.13468 8.64387C4.61624 8.64387 4.09779 8.64494 3.57935 8.64293C3.48169 8.64253 3.38351 8.63504 3.28666 8.62245C3.12878 8.60197 3.04601 8.4954 3.08558 8.34252C3.11523 8.22805 3.16365 8.1152 3.22227 8.01225C3.50436 7.51664 3.79383 7.02518 4.07834 6.53104C4.28505 6.17199 4.4876 5.81066 4.69377 5.45134C4.72918 5.38975 4.77479 5.33406 4.81248 5.27355C4.93535 5.07648 5.11349 4.99602 5.34326 5.00138C5.62026 5.0078 5.89739 5.00285 6.17452 5.00285C6.42925 5.00285 6.68398 5.00285 6.93884 5.00285V5.00299Z" fill="#1FDADA"/>
<path d="M24.4802 5.00302C25.0299 5.00302 25.5796 5.00222 26.1294 5.00409C26.1909 5.00436 26.2554 5.01025 26.3129 5.02993C26.4169 5.06554 26.4617 5.1444 26.4271 5.25016C26.3901 5.36342 26.3403 5.47453 26.2814 5.57842C25.9893 6.09398 25.6934 6.60726 25.3968 7.12027C25.1738 7.50596 24.9481 7.89005 24.7235 8.27481C24.7168 8.28633 24.7087 8.29704 24.7021 8.30868C24.5626 8.55475 24.3504 8.64873 24.0691 8.64672C23.0636 8.63963 22.058 8.64458 21.0523 8.64297C20.9637 8.64284 20.8744 8.6336 20.7867 8.62021C20.6657 8.60174 20.5936 8.51633 20.606 8.39597C20.6137 8.32247 20.6361 8.2463 20.67 8.18057C20.7596 8.00639 20.8559 7.8353 20.9552 7.66635C21.3188 7.04811 21.6852 6.43148 22.0496 5.81364C22.1606 5.62568 22.2718 5.43772 22.3772 5.24668C22.4711 5.07652 22.6118 5.00142 22.8042 5.00222C23.3628 5.00449 23.9215 5.00302 24.4801 5.00302H24.4802Z" fill="#1FDADA"/>
<path d="M29 8.81586C28.9995 9.01895 28.928 9.1476 28.8519 9.27412C28.5995 9.69409 28.3416 10.111 28.0947 10.534C27.8365 10.9763 27.5889 11.4247 27.3357 11.87C27.2917 11.9473 27.2473 12.0251 27.1965 12.0981C27.0935 12.2458 26.9856 12.2539 26.8751 12.1109C26.7856 11.9951 26.7115 11.8668 26.6373 11.7401C26.376 11.2944 26.1178 10.8469 25.8582 10.4003C25.6276 10.0036 25.4052 9.60198 25.1628 9.21267C25.0114 8.96942 25.0042 8.75843 25.162 8.50942C25.4025 8.12988 25.6086 7.72852 25.8323 7.33841C25.9985 7.04857 26.1721 6.76301 26.3383 6.47317C26.4602 6.26071 26.5744 6.04383 26.6946 5.83056C26.7316 5.76483 26.7725 5.6999 26.8204 5.6418C26.9316 5.50672 27.1179 5.48677 27.2211 5.66094C27.3414 5.86403 27.4606 6.06793 27.5783 6.27249C27.7003 6.48481 27.8192 6.69902 27.941 6.91148C28.2156 7.39075 28.4907 7.86963 28.7663 8.34823C28.8153 8.43311 28.8739 8.51303 28.9171 8.60059C28.9577 8.68306 28.9838 8.77262 29 8.81599V8.81586Z" fill="#1FDADA"/>
<path d="M9.99947 6.33086C9.97908 6.39324 9.96862 6.46125 9.93683 6.51721C9.754 6.83865 9.56419 7.1562 9.38056 7.4771C9.17479 7.83669 8.97076 8.19735 8.7705 8.56002C8.69739 8.69243 8.67217 8.83782 8.71617 8.98628C8.7438 9.07933 8.77117 9.17585 8.81892 9.25912C9.04065 9.64562 9.27043 10.0274 9.49524 10.4122C9.63461 10.6506 9.77063 10.8911 9.90745 11.1311C10.0133 11.3169 10.0189 11.5015 9.9045 11.6878C9.82992 11.8092 9.76661 11.9377 9.68934 12.0574C9.53253 12.3006 9.3705 12.2957 9.22777 12.0474C8.7768 11.2631 8.3261 10.4787 7.87539 9.69422C7.78659 9.53973 7.69471 9.38684 7.61074 9.22967C7.52382 9.06688 7.45098 8.89846 7.51872 8.70755C7.532 8.67007 7.54769 8.63258 7.56768 8.59818C7.89605 8.03135 8.22683 7.46586 8.55386 6.89836C8.77184 6.52002 8.98458 6.13848 9.20081 5.75921C9.22938 5.70914 9.26332 5.66201 9.29766 5.61569C9.38109 5.50324 9.51188 5.52533 9.59625 5.58316C9.72462 5.67112 9.98646 6.17262 9.99947 6.33099V6.33086Z" fill="#1FDADA"/>
<path d="M13.8031 23.7699C13.2758 23.7699 12.7485 23.7707 12.2212 23.7689C12.1551 23.7686 12.0873 23.7608 12.0233 23.7446C11.9103 23.7158 11.8488 23.6362 11.8579 23.5184C11.8636 23.4451 11.8852 23.3695 11.9167 23.303C11.9642 23.2027 12.0283 23.1105 12.0825 23.0131C12.1744 22.8483 12.3152 22.7782 12.5017 22.7787C13.2078 22.7806 13.9137 22.7805 14.6198 22.7784C14.7219 22.7782 14.8245 22.7692 14.9257 22.7552C15.0718 22.7349 15.1764 22.6432 15.2641 22.5331C15.3195 22.4634 15.372 22.3903 15.4164 22.3134C15.7394 21.754 16.0597 21.1932 16.3815 20.6332C16.4504 20.5134 16.5206 20.3943 16.6377 20.3119C16.7276 20.2487 16.8239 20.2082 16.936 20.2091C17.1001 20.2104 17.2647 20.2008 17.4279 20.2126C17.605 20.2253 17.6777 20.3435 17.6188 20.5099C17.5878 20.5976 17.5461 20.6828 17.4995 20.7635C17.2661 21.1689 17.0279 21.5714 16.7944 21.9767C16.5386 22.4205 16.2876 22.8671 16.0307 23.3102C15.9752 23.4061 15.9109 23.499 15.8378 23.5818C15.727 23.7075 15.5836 23.7709 15.4118 23.7703C14.8755 23.7686 14.3394 23.7697 13.8031 23.7697V23.7699Z" fill="#1FDADA"/>
<path d="M22.5316 9.05429C23.0188 9.05429 23.506 9.05309 23.9932 9.05523C24.0998 9.05563 24.2068 9.06326 24.3127 9.07571C24.4726 9.09446 24.5781 9.195 24.6573 9.32579C24.7612 9.49729 24.8626 9.67026 24.9631 9.84376C25.1572 10.1793 25.35 10.5155 25.5431 10.8514C25.8008 11.2995 26.0583 11.7475 26.3159 12.1956C26.3269 12.2148 26.338 12.2341 26.3476 12.2541C26.457 12.4843 26.3451 12.6045 26.1355 12.6276C25.9901 12.6435 25.8413 12.6373 25.6946 12.6307C25.5894 12.6258 25.4922 12.5825 25.4245 12.4999C25.3345 12.3898 25.2425 12.2788 25.1709 12.1569C24.846 11.6037 24.5284 11.0462 24.2066 10.4912C24.171 10.4299 24.1288 10.3718 24.0848 10.3159C23.9557 10.1517 23.7855 10.0637 23.5759 10.0639C23.1871 10.0641 22.7985 10.0665 22.4098 10.0726C22.062 10.078 21.714 10.0871 21.3663 10.0993C21.1363 10.1074 20.9553 10.0207 20.8335 9.8281C20.741 9.6819 20.6522 9.53143 20.5807 9.37439C20.5066 9.2116 20.584 9.09459 20.7636 9.07384C20.8606 9.06259 20.9588 9.05563 21.0565 9.05523C21.5481 9.05336 22.0397 9.05443 22.5315 9.05443L22.5316 9.05429Z" fill="#1FDADA"/>
<path d="M18.2367 18.7101C18.3797 18.7101 18.5226 18.7113 18.6656 18.7098C18.8393 18.7079 18.9738 18.7852 19.0832 18.9128C19.1179 18.9532 19.1514 18.9958 19.1784 19.0416C19.4004 19.4172 19.6221 19.793 19.841 20.1704C20.0711 20.5671 20.2976 20.9659 20.5264 21.3635C20.6173 21.5216 20.7143 21.6766 20.7999 21.8376C20.8299 21.8941 20.8404 21.9637 20.8479 22.0286C20.8558 22.0969 20.8219 22.1519 20.7545 22.1741C20.6963 22.1934 20.6353 22.2117 20.5746 22.2152C20.4589 22.2216 20.3423 22.2131 20.2263 22.218C19.9906 22.2279 19.8129 22.1279 19.6821 21.939C19.629 21.8623 19.5851 21.7793 19.5374 21.699C19.3575 21.3966 19.1767 21.0948 18.9981 20.7916C18.8671 20.5691 18.7422 20.3428 18.6084 20.1219C18.5536 20.0312 18.4895 19.9438 18.4169 19.8665C18.3414 19.7862 18.2405 19.7482 18.1262 19.754C17.9349 19.7638 17.7438 19.7755 17.5524 19.7795C17.4685 19.7812 17.3832 19.7719 17.3003 19.7575C17.1241 19.7271 17.0401 19.5838 17.1158 19.4203C17.1922 19.2554 17.2821 19.0952 17.3805 18.9422C17.4837 18.782 17.6376 18.7021 17.8342 18.7093C17.9681 18.7142 18.1022 18.7102 18.2362 18.7102L18.2367 18.7101Z" fill="#1FDADA"/>
<path d="M19.7642 10.0984C19.7373 10.0984 19.7105 10.097 19.6838 10.0987C19.4339 10.1126 19.2447 10.0051 19.1011 9.80788C19.0566 9.7467 19.0145 9.68351 18.9748 9.61925C18.8836 9.47158 18.7944 9.32258 18.7046 9.17397C18.684 9.1397 18.6637 9.10503 18.6443 9.07009C18.5661 8.93019 18.5663 8.79096 18.6461 8.65119C18.8251 8.33805 19.0028 8.02438 19.1819 7.71125C19.4604 7.22434 19.7396 6.73797 20.018 6.25093C20.1019 6.10407 20.183 5.9556 20.2673 5.80901C20.2984 5.75505 20.3314 5.70124 20.3706 5.65317C20.5011 5.49293 20.6798 5.49467 20.7925 5.66616C20.8925 5.81851 20.9773 5.9809 21.0664 6.14021C21.1423 6.27583 21.1113 6.4077 21.0401 6.53327C20.9082 6.76555 20.7724 6.99568 20.6398 7.22755C20.3879 7.66814 20.1369 8.10913 19.886 8.55025C19.8661 8.58506 19.851 8.62241 19.8316 8.65748C19.7569 8.7939 19.7603 8.93126 19.8318 9.06607C19.9194 9.23127 20.0122 9.39366 20.1009 9.55833C20.1388 9.62875 20.1784 9.6993 20.2062 9.77401C20.2602 9.91966 20.2054 10.0349 20.0555 10.0738C19.9622 10.098 19.8622 10.0973 19.7652 10.1078C19.765 10.1047 19.7646 10.1017 19.7643 10.0987L19.7642 10.0984Z" fill="#1FDADA"/>
<path d="M8.2275 14.1321C7.70946 14.1321 7.19129 14.1321 6.67325 14.1321C6.63314 14.1321 6.59196 14.136 6.55292 14.1289C6.33803 14.0895 6.23408 13.9896 6.33213 13.7346C6.39464 13.5719 6.5104 13.4275 6.6149 13.284C6.67311 13.204 6.76795 13.1615 6.86922 13.1501C6.97519 13.1382 7.08183 13.1256 7.1882 13.1248C7.58123 13.1218 7.97425 13.1217 8.36728 13.1244C8.57211 13.1259 8.77693 13.1392 8.98176 13.14C9.12851 13.1406 9.27526 13.1299 9.42187 13.1232C9.54702 13.1174 9.64373 13.0601 9.71027 12.9553C9.8271 12.7711 9.94166 12.5854 10.058 12.4008C10.0958 12.3407 10.1303 12.277 10.1767 12.2241C10.2519 12.1384 10.3575 12.1168 10.4394 12.1901C10.6594 12.3867 10.8323 12.6169 10.844 12.9277C10.8464 12.9912 10.8292 13.0639 10.7975 13.1186C10.6612 13.3532 10.5178 13.5837 10.3726 13.813C10.3374 13.8687 10.2867 13.9148 10.2417 13.9642C10.1328 14.0839 9.99491 14.1326 9.83515 14.1323C9.29927 14.1314 8.76325 14.1319 8.22737 14.1319L8.2275 14.1321Z" fill="#1FDADA"/>
</g>
<defs>
<clipPath id="clip0_1898_6821">
<rect width="26" height="23" fill="white" transform="translate(3 5)"/>
</clipPath>
</defs>
</svg>
