<svg width="32" height="32" viewBox="0 0 32 32" fill="none" xmlns="http://www.w3.org/2000/svg">
<rect width="32" height="32" rx="8" fill="#0719FF"/>
<g clip-path="url(#clip0_1779_7465)">
<path d="M14.9517 5.21138C15.2779 5.07217 15.6343 4.99997 15.9952 4.99997C16.3561 4.99997 16.7125 5.07217 17.0387 5.21138L23.0825 8.07825C23.2357 8.14017 23.3695 8.23538 23.472 8.35535C23.5744 8.47533 23.6423 8.61633 23.6695 8.76575V23.1792C23.6552 23.3408 23.5925 23.4958 23.4881 23.6278C23.3837 23.7598 23.2415 23.8637 23.0768 23.9286L17.0311 26.7886C16.7049 26.9278 16.3485 27 15.9876 27C15.6267 27 15.2703 26.9278 14.9441 26.7886L8.89275 23.9217C8.72951 23.8562 8.58914 23.7518 8.48672 23.6198C8.3843 23.4878 8.3237 23.3331 8.31144 23.1723C8.31144 23.1448 8.31144 23.1207 8.31144 23.1018V8.75888C8.33362 8.60976 8.39783 8.46827 8.49794 8.34791C8.59804 8.22755 8.73069 8.13234 8.88322 8.07138L14.9517 5.21138ZM22.7242 16.8009L17.0311 19.4976C16.7049 19.6368 16.3485 19.709 15.9876 19.709C15.6267 19.709 15.2703 19.6368 14.9441 19.4976L9.26441 16.8061V23.1431L14.9517 25.8209C15.2479 25.9854 15.5779 26.0942 15.9219 26.1406H15.9867C16.3259 26.1406 16.6556 25.9876 16.9892 25.8398L22.7242 23.1156V16.8009ZM7.32797 22.8595C7.32797 23.4112 7.39849 23.7739 7.54144 24.03C7.68656 24.2645 7.89927 24.4593 8.15705 24.5937L8.17611 24.604C8.24663 24.647 8.32478 24.6917 8.42007 24.745L8.53252 24.8068L8.87559 24.9925L8.38196 25.7229L8.00077 25.515L7.93787 25.4806C7.82542 25.4187 7.73394 25.3654 7.64817 25.3087C6.72379 24.7656 6.375 24.1572 6.375 22.8973V22.8595H7.32797ZM15.5102 12.9372C15.4684 12.9502 15.4277 12.9657 15.3882 12.9836L9.33683 15.8522H9.31968H9.32921H9.34255L15.3882 18.75C15.4273 18.7691 15.4681 18.7852 15.5102 18.7981V12.9372ZM16.4631 12.9372V18.7895C16.5059 18.7766 16.5473 18.7605 16.587 18.7414L22.6365 15.8745L22.6555 15.8659H22.6422L16.587 12.9836C16.5469 12.9657 16.5055 12.9502 16.4631 12.9372ZM22.7242 9.78153L17.296 12.3597L22.7242 14.9378V9.78153ZM9.26441 9.78153V14.9206L14.6792 12.3545L9.26441 9.78153ZM16.587 5.96591C16.3978 5.89198 16.1938 5.85383 15.9876 5.85383C15.7814 5.85383 15.5774 5.89198 15.3882 5.96591L9.33683 8.83278L9.31968 8.8431H9.32921H9.34255L15.3882 11.7237C15.5774 11.7977 15.7814 11.8358 15.9876 11.8358C16.1938 11.8358 16.3978 11.7977 16.587 11.7237L22.6365 8.85685L22.6555 8.84825H22.6422L16.587 5.96591ZM23.618 6.28044L23.9992 6.48841L24.0621 6.5245C24.1746 6.58638 24.2661 6.63966 24.3518 6.69638C25.2724 7.25325 25.6136 7.85825 25.6212 9.11982V9.15763H24.672C24.672 8.60591 24.6015 8.24325 24.4586 7.98716C24.3168 7.74596 24.1037 7.54489 23.8429 7.40622L23.8239 7.39419C23.7534 7.35122 23.6752 7.30654 23.5799 7.25497L23.4675 7.1931L23.1244 7.00747L23.618 6.28044Z" fill="white"/>
</g>
<defs>
<clipPath id="clip0_1779_7465">
<rect width="19.25" height="22" fill="white" transform="translate(6.375 5)"/>
</clipPath>
</defs>
</svg>
