<svg width="32" height="32" viewBox="0 0 32 32" fill="none" xmlns="http://www.w3.org/2000/svg">
<rect width="32" height="32" rx="8" fill="#001428"/>
<path d="M10.4962 18.1832C11.2938 18.1832 12.0273 17.9145 12.6159 17.4625L7.75382 12.6004C7.29746 13.1847 7.03304 13.9225 7.03304 14.7201C7.03304 16.6265 8.58549 18.1832 10.4962 18.1832Z" fill="white"/>
<path d="M24.9615 14.7201C24.9615 13.9225 24.6928 13.1889 24.2407 12.6004L19.3786 17.4582C19.9629 17.9145 20.7008 18.179 21.4983 18.179C23.409 18.1875 24.9615 16.6308 24.9615 14.7201Z" fill="white"/>
<path d="M27.4032 9.42282L25.2533 11.5727C25.9657 12.4258 26.3922 13.5178 26.3922 14.7122C26.3922 17.4166 24.1912 19.6176 21.4868 19.6176C20.2967 19.6176 19.2004 19.1868 18.3473 18.4787L15.9927 20.8333L13.638 18.4787C12.7849 19.1911 11.6929 19.6176 10.4985 19.6176C7.79414 19.6176 5.59308 17.4166 5.59308 14.7122C5.59308 13.5221 6.0239 12.4258 6.732 11.5727L5.63147 10.4722L4.58639 9.42709C3.36642 11.4447 2.6626 13.8079 2.6626 16.3374C2.6626 23.6998 8.6302 29.6717 15.9969 29.6717C23.3636 29.6717 29.3312 23.7041 29.3312 16.3374C29.327 13.8036 28.6231 11.4447 27.4032 9.42282Z" fill="white"/>
<path d="M25.6415 7.12912C23.2186 4.58681 19.7891 3 15.9969 3C12.2048 3 8.77525 4.58681 6.35238 7.12912C6.02393 7.4789 5.71254 7.84148 5.41821 8.22112L15.9969 18.8084L26.5757 8.22112C26.2899 7.83721 25.9742 7.4789 25.6415 7.12912ZM15.9969 4.74464C19.1194 4.74464 22.0157 5.94754 24.1955 8.14007L15.9969 16.3386L7.79843 8.14007C9.97816 5.94328 12.8788 4.74464 15.9969 4.74464Z" fill="white"/>
</svg>
