<svg width="32" height="32" viewBox="0 0 32 32" fill="none" xmlns="http://www.w3.org/2000/svg">
<rect width="32" height="32" rx="8" fill="#071072"/>
<path d="M21.6889 6C19.3111 6 17.3777 7.93757 17.3777 10.3205V15.1088C16.9334 15.1311 16.4889 15.1533 16 15.1533C15.5333 15.1533 15.0667 15.1756 14.6222 15.1979V10.2983C14.5778 7.9153 12.6222 6 10.2444 6.04454C7.9111 6.08908 6.04444 7.95983 6 10.2983V21.7232C6.04444 24.1063 7.99999 26.0215 10.3778 25.9769C12.7111 25.9324 14.5778 24.0616 14.6222 21.7232V16.9573C15.0667 16.935 15.5111 16.9127 16 16.9127C16.4666 16.9127 16.9334 16.8904 17.3777 16.8682V21.7455C17.4222 24.1285 19.3778 26.0438 21.7556 25.9992C24.0889 25.9547 25.9556 24.084 26 21.7455V10.2983C26 7.9153 24.0666 6 21.6889 6ZM10.3111 7.7594C11.7111 7.7594 12.8444 8.89521 12.8667 10.2983V15.376C11.6 15.5542 10.3778 15.9105 9.2 16.4228C8.68889 16.6455 8.22223 16.935 7.77778 17.2691V10.2983C7.77778 8.89521 8.91111 7.7594 10.3111 7.7594ZM12.8667 21.7232C12.8667 23.1263 11.7333 24.2844 10.3111 24.2844C8.91111 24.2844 7.75556 23.1486 7.75556 21.7232V20.5874C7.75556 19.5853 8.55556 18.6053 9.88889 18.0263C10.8444 17.6254 11.8222 17.3359 12.8444 17.1577V21.7232H12.8667ZM21.6889 24.2844C20.2888 24.2844 19.1556 23.1486 19.1333 21.7455V16.6678C20.3999 16.4896 21.6222 16.1332 22.8 15.621C23.3111 15.3983 23.7778 15.1088 24.2222 14.7747V21.7232C24.2222 23.1263 23.0889 24.2844 21.6889 24.2844ZM22.0889 14.0175C21.1334 14.4184 20.1555 14.7079 19.1333 14.8861V10.2983C19.1333 8.89521 20.2667 7.73712 21.6889 7.73712C23.0889 7.73712 24.2444 8.87294 24.2444 10.2983V11.4341C24.2444 12.4586 23.4444 13.4162 22.0889 14.0175Z" fill="white"/>
</svg>
