<svg width="32" height="32" viewBox="0 0 32 32" fill="none" xmlns="http://www.w3.org/2000/svg">
<rect width="32" height="32" rx="8" fill="#000B12"/>
<g clip-path="url(#clip0_1779_7705)">
<path d="M28.1043 15.7727H3.71727C3.32113 15.7727 3 16.1053 3 16.5156C3 16.926 3.32113 17.2586 3.71727 17.2586H28.1043C28.5005 17.2586 28.8216 16.926 28.8216 16.5156C28.8216 16.1053 28.5005 15.7727 28.1043 15.7727Z" fill="#E77629"/>
<path d="M25.594 21.7163H6.58641C6.19027 21.7163 5.86914 22.0489 5.86914 22.4592C5.86914 22.8696 6.19027 23.2022 6.58641 23.2022H25.594C25.9901 23.2022 26.3112 22.8696 26.3112 22.4592C26.3112 22.0489 25.9901 21.7163 25.594 21.7163Z" fill="#E77629"/>
<path d="M10.1722 18.7449H5.15138C4.75524 18.7449 4.43411 19.0775 4.43411 19.4878C4.43411 19.8981 4.75524 20.2308 5.15138 20.2308H10.1722C10.5684 20.2308 10.8895 19.8981 10.8895 19.4878C10.8895 19.0775 10.5684 18.7449 10.1722 18.7449Z" fill="#E77629"/>
<path d="M27.3866 18.7449H13.0413C12.6451 18.7449 12.324 19.0775 12.324 19.4878C12.324 19.8981 12.6451 20.2308 13.0413 20.2308H27.3866C27.7827 20.2308 28.1039 19.8981 28.1039 19.4878C28.1039 19.0775 27.7827 18.7449 27.3866 18.7449Z" fill="#E77629"/>
<path d="M20.2144 24.6877H11.6072C11.211 24.6877 10.8899 25.0204 10.8899 25.4307C10.8899 25.841 11.211 26.1736 11.6072 26.1736H20.2144C20.6105 26.1736 20.9316 25.841 20.9316 25.4307C20.9316 25.0204 20.6105 24.6877 20.2144 24.6877Z" fill="#E77629"/>
<path d="M8.38016 18.0017C8.38016 17.8047 8.45574 17.6157 8.59024 17.4764C8.72476 17.3371 8.9072 17.2588 9.09742 17.2588H6.22836C6.4186 17.2588 6.60103 17.3371 6.73555 17.4764C6.87006 17.6157 6.94563 17.8047 6.94563 18.0017C6.94563 18.1988 6.87006 18.3877 6.73555 18.5271C6.60103 18.6664 6.4186 18.7447 6.22836 18.7447H9.09742C8.9072 18.7447 8.72476 18.6664 8.59024 18.5271C8.45574 18.3877 8.38016 18.1988 8.38016 18.0017Z" fill="#E77629"/>
<path d="M22.725 20.9732C22.725 20.7761 22.8005 20.5872 22.935 20.4478C23.0695 20.3085 23.252 20.2302 23.4422 20.2302H20.5731C20.7634 20.2302 20.9458 20.3085 21.0803 20.4478C21.2148 20.5872 21.2904 20.7761 21.2904 20.9732C21.2904 21.1702 21.2148 21.3592 21.0803 21.4985C20.9458 21.6378 20.7634 21.7161 20.5731 21.7161H23.4422C23.252 21.7161 23.0695 21.6378 22.935 21.4985C22.8005 21.3592 22.725 21.1702 22.725 20.9732Z" fill="#E77629"/>
<path d="M16.6283 23.9453C16.6283 23.7483 16.7039 23.5593 16.8385 23.42C16.973 23.2807 17.1554 23.2024 17.3456 23.2024H14.4766C14.6668 23.2024 14.8493 23.2807 14.9838 23.42C15.1182 23.5593 15.1938 23.7483 15.1938 23.9453C15.1938 24.1424 15.1182 24.3313 14.9838 24.4707C14.8493 24.61 14.6668 24.6883 14.4766 24.6883H17.3456C17.1554 24.6883 16.973 24.61 16.8385 24.4707C16.7039 24.3313 16.6283 24.1424 16.6283 23.9453Z" fill="#E77629"/>
<path d="M24.8766 14.2867C24.8766 11.8237 23.932 9.46162 22.2506 7.72002C20.5692 5.97842 18.2887 5 15.9107 5C13.5329 5 11.2524 5.97842 9.57098 7.72002C7.88955 9.46162 6.94495 11.8237 6.94495 14.2867H24.8766Z" fill="#E77629"/>
</g>
<defs>
<clipPath id="clip0_1779_7705">
<rect width="26" height="22" fill="white" transform="translate(3 5)"/>
</clipPath>
</defs>
</svg>
