<svg width="32" height="32" viewBox="0 0 32 32" fill="none" xmlns="http://www.w3.org/2000/svg">
<rect width="32" height="32" rx="8" fill="#E4F2FF"/>
<g clip-path="url(#clip0_1779_7470)">
<path d="M19.2012 10.9973C19.2012 7.26685 17.2086 4.0541 15.691 3.01133C15.691 3.01133 15.5742 2.95259 15.5863 3.10313C15.4615 10.3107 11.4239 12.264 9.2059 14.893C4.08548 20.966 8.84361 27.6228 13.6984 28.8528C16.4035 29.5431 13.0704 27.6338 12.6396 23.606C12.1123 18.7446 19.2012 15.0288 19.2012 10.9973Z" fill="#1B2143"/>
<path d="M21.528 13.4537C21.4958 13.4353 21.4515 13.4206 21.4233 13.4684C21.3388 14.3753 20.3244 16.3139 19.0362 18.0984C14.6685 24.1419 17.1563 27.0572 18.5572 28.625C19.3703 29.5319 18.5572 28.625 20.586 27.6961C21.8222 27.0116 22.8632 26.0699 23.6237 24.948C24.3843 23.8261 24.8428 22.5559 24.9618 21.2413C25.3603 16.9454 22.5344 14.2394 21.528 13.4537Z" fill="#2CA6E0"/>
</g>
<defs>
<clipPath id="clip0_1779_7470">
<rect width="18" height="26" fill="white" transform="translate(7 3)"/>
</clipPath>
</defs>
</svg>
