<svg width="32" height="32" viewBox="0 0 32 32" fill="none" xmlns="http://www.w3.org/2000/svg">
<rect width="32" height="32" rx="8" fill="#312526"/>
<path fill-rule="evenodd" clip-rule="evenodd" d="M16 3.07896C8.8639 3.07896 3.07896 8.8639 3.07896 16C3.07896 23.1362 8.8639 28.921 16 28.921C23.1361 28.921 28.921 23.1362 28.921 16C28.921 8.8639 23.1361 3.07896 16 3.07896ZM2 16C2 8.26801 8.26801 2 16 2C23.732 2 30 8.26801 30 16C30 23.7321 23.732 30 16 30C8.26801 30 2 23.7321 2 16Z" fill="white"/>
<path fill-rule="evenodd" clip-rule="evenodd" d="M22 12.8932L18.1656 12.7456L20.7697 10.1237L19.7219 9.14969L16.8985 11.5657L16.7455 8H15.2635L15.1048 11.5645L12.2847 9.14365L11.2367 10.1178L13.8357 12.7426L10 12.8848V14.2624L13.8344 14.41L11.2303 17.0319L12.2782 18.0061L15.0582 15.627L15.1792 21.4016L12.9615 21.5524V22.8354L15.2126 22.9943L15.2546 25H16.7365L16.78 22.9972L19.0547 22.8368V21.5538L16.8148 21.4015L16.9403 15.6297L19.7154 18.0119L20.7635 17.0378L18.1644 14.413L22 14.2708V12.8932Z" fill="white"/>
</svg>
