<svg width="32" height="32" viewBox="0 0 32 32" fill="none" xmlns="http://www.w3.org/2000/svg">
<rect width="32" height="32" rx="8" fill="#12192C"/>
<g clip-path="url(#clip0_1898_6820)">
<path d="M10.4146 30C10.4267 29.9648 10.4351 29.9276 10.4519 29.8952C10.9141 29.015 11.3791 28.1348 11.8385 27.2528C11.8796 27.1727 11.9244 27.148 12.0103 27.1489C13.817 27.1565 15.6247 27.1613 17.4314 27.167C17.4762 27.167 17.521 27.167 17.5873 27.167C17.5621 27.1213 17.5434 27.087 17.5247 27.0537C16.3539 25.0047 15.183 22.9557 14.0121 20.9066C13.9113 20.7295 13.8049 20.5551 13.7096 20.3742C13.6685 20.2951 13.6181 20.2732 13.5331 20.2732C12.3119 20.276 11.0906 20.2751 9.86928 20.2751C8.58077 20.2751 7.29225 20.2751 6.00374 20.2751H5.85341C5.88422 20.3313 5.90477 20.3694 5.92717 20.4075C6.84314 22.005 7.75817 23.6034 8.67787 25.1999C8.72363 25.279 8.71522 25.3295 8.67227 25.4009C8.16527 26.243 7.662 27.088 7.15687 27.931C7.13819 27.9624 7.11578 27.9929 7.08871 28.0358C6.9085 27.7128 6.7339 27.4014 6.56023 27.0889C5.09151 24.456 3.62652 21.8221 2.1494 19.1939C2.01401 18.9529 1.9832 18.7738 2.14753 18.5347C2.36228 18.2213 2.53502 17.8774 2.72083 17.5431C2.75911 17.4745 2.79926 17.4488 2.87675 17.4497C6.96546 17.4516 11.0551 17.4516 15.1438 17.4497C15.2344 17.4497 15.2745 17.4878 15.3147 17.5583C16.4501 19.5445 17.5873 21.5306 18.7246 23.5158C19.6489 25.1304 20.5742 26.745 21.5014 28.3577C21.5397 28.4254 21.5406 28.474 21.5014 28.5406C21.2297 29.0122 20.9608 29.4866 20.6919 29.96C20.6844 29.9724 20.6807 29.9876 20.6751 30.001H16.7311C16.6994 29.9943 16.6685 29.9819 16.6368 29.9819C14.9477 29.98 13.2596 29.9781 11.5705 29.9781C11.408 29.9781 11.2465 29.9924 11.084 30H10.4118H10.4146Z" fill="#41E6AF"/>
<path d="M20.6778 3.00022C20.9532 3.47841 21.2277 3.95756 21.505 4.43481C21.5405 4.49673 21.5461 4.54245 21.5078 4.60818C19.4397 8.2137 17.3734 11.8202 15.309 15.4276C15.2669 15.5019 15.2203 15.5219 15.1409 15.5219C11.055 15.52 6.97003 15.52 2.88413 15.5219C2.80196 15.5219 2.75901 15.4952 2.71886 15.4228C2.49571 15.0237 2.26882 14.6255 2.03819 14.2302C1.99057 14.1483 1.9887 14.0864 2.03539 14.0035C2.76088 12.7061 3.48263 11.4068 4.20626 10.1084C5.14743 8.42041 6.08954 6.73244 7.03072 5.04446C7.04846 5.01207 7.06807 4.98064 7.09421 4.93491C7.2324 5.16449 7.36499 5.38358 7.49664 5.60267C7.89253 6.26472 8.28749 6.92772 8.68712 7.58786C8.72633 7.65263 8.72166 7.69645 8.68618 7.75932C7.76461 9.36252 6.84491 10.9676 5.92521 12.5718C5.90467 12.607 5.88693 12.6432 5.85892 12.6947H5.99244C8.50598 12.6947 11.0195 12.6947 13.5321 12.6966C13.6208 12.6966 13.6694 12.6699 13.7142 12.5908C14.9784 10.3818 16.2445 8.17369 17.5106 5.96561C17.5349 5.92369 17.5573 5.87988 17.5928 5.8151C17.4537 5.8151 17.3295 5.81415 17.2063 5.8151C17.1129 5.81605 17.0204 5.82463 16.9271 5.82463C15.4705 5.82844 14.0139 5.83034 12.5583 5.8332C12.3641 5.8332 12.1698 5.83891 11.9756 5.8332C11.9364 5.83225 11.8804 5.80462 11.8627 5.77128C11.3799 4.86252 10.9019 3.95185 10.4229 3.04023C10.4163 3.02784 10.4163 3.01165 10.4135 2.99736C13.8346 2.99736 17.2557 2.99736 20.6768 2.99736L20.6778 3.00022Z" fill="#41E6AF"/>
<path d="M30 18.4318C29.8347 18.7147 29.6667 18.9958 29.5042 19.2806C27.9533 21.9926 26.4034 24.7046 24.8553 27.4185C24.8086 27.4995 24.76 27.5347 24.6648 27.5338C24.2054 27.528 23.746 27.529 23.2867 27.5338C23.2054 27.5338 23.1625 27.5099 23.1214 27.4375C21.5098 24.595 19.8954 21.7535 18.2811 18.9119C17.8459 18.1461 17.4118 17.3783 16.9739 16.6143C16.9319 16.541 16.9356 16.4895 16.9748 16.4181C18.9879 12.7983 20.9991 9.17749 23.0084 5.55577C23.0542 5.4729 23.1027 5.43956 23.1989 5.44051C23.662 5.44623 24.1251 5.44146 24.5882 5.44527C24.6284 5.44527 24.6882 5.46623 24.7068 5.49767C25.0943 6.13971 25.4809 6.7827 25.8609 7.43046C26.9589 9.30323 28.0542 11.1779 29.1485 13.0526C29.4136 13.506 29.6713 13.9642 29.9328 14.4196C29.944 14.4386 29.9515 14.4586 29.9673 14.491C29.9262 14.4939 29.8954 14.4977 29.8637 14.4977C28.8628 14.4977 27.8618 14.4977 26.8609 14.4996C26.7843 14.4996 26.7432 14.4758 26.705 14.4072C25.8161 12.8287 24.9244 11.2513 24.0336 9.67379C24.0187 9.64711 24.0028 9.62235 23.9804 9.58424C23.9029 9.72142 23.8301 9.85097 23.7572 9.98147C22.5612 12.1248 21.3651 14.269 20.1671 16.4114C20.1345 16.4705 20.1289 16.5143 20.1643 16.5762C21.4426 18.8214 22.719 21.0667 23.9963 23.3129C24.0075 23.3319 24.0206 23.35 24.042 23.3815C24.0663 23.3414 24.0868 23.3091 24.1065 23.2748C24.9804 21.6963 25.8553 20.1189 26.7264 18.5385C26.7787 18.4442 26.8319 18.409 26.9412 18.409C27.9608 18.4137 28.9804 18.4109 30 18.409V18.4318Z" fill="#41E6AF"/>
<path d="M23.9692 18.5442C23.2876 18.5442 22.6228 18.5452 21.9589 18.5414C21.9244 18.5414 21.8758 18.5099 21.8571 18.4785C21.4781 17.8422 21.1008 17.204 20.7283 16.5638C20.7078 16.5286 20.7096 16.459 20.7292 16.4219C21.1018 15.7379 21.4781 15.0549 21.8562 14.3748C21.874 14.3424 21.9216 14.3062 21.9552 14.3062C22.6125 14.3024 23.2698 14.3033 23.9262 14.3043C23.9365 14.3043 23.9468 14.31 23.9692 14.3167C23.9234 14.3976 23.887 14.4786 23.8366 14.5491C23.5556 14.9378 23.3968 15.3769 23.3324 15.8494C23.2698 16.3104 23.254 16.7743 23.3455 17.2344C23.4146 17.5802 23.5079 17.9203 23.7068 18.2156C23.7815 18.3271 23.8739 18.4252 23.9692 18.5433V18.5442Z" fill="#41E6AF"/>
<path d="M9.97571 22.5984C10.2428 22.1507 10.4967 21.7259 10.7498 21.301C10.8366 21.1553 10.9206 21.0067 11.014 20.8647C11.0383 20.8285 11.0924 20.7923 11.1326 20.7923C11.8637 20.7952 12.5957 20.8028 13.3268 20.8123C13.3585 20.8123 13.4043 20.84 13.4202 20.8685C13.8039 21.5592 14.1849 22.2517 14.5639 22.9452C14.5798 22.9747 14.5817 23.028 14.5658 23.0557C14.2259 23.632 13.8823 24.2064 13.5387 24.7808C13.5331 24.7903 13.5229 24.796 13.5154 24.8018C13.4724 24.6894 13.4267 24.5798 13.3865 24.4674C13.1839 23.9035 12.7824 23.511 12.3212 23.1652C11.9981 22.9223 11.6265 22.7937 11.254 22.6623C10.9701 22.5622 10.6779 22.5117 10.3781 22.5289C10.2502 22.5365 10.1242 22.5708 9.97385 22.5975L9.97571 22.5984Z" fill="#41E6AF"/>
<path d="M9.98227 10.3473C10.7806 10.5626 11.4865 10.3073 12.1475 9.9148C12.8217 9.51567 13.3203 8.94888 13.5126 8.12395C13.6359 8.32875 13.746 8.5126 13.8562 8.69645C14.0887 9.08606 14.3203 9.47661 14.5556 9.86432C14.592 9.92433 14.592 9.96815 14.5593 10.0282C14.183 10.7064 13.8095 11.3856 13.437 12.0657C13.4062 12.1229 13.3707 12.1448 13.3063 12.1438C12.9851 12.1419 12.6639 12.1438 12.3427 12.1477C11.9468 12.1524 11.5518 12.161 11.1559 12.1619C11.1102 12.1619 11.0448 12.1334 11.0224 12.0962C10.6825 11.5371 10.3483 10.975 10.0131 10.413C10.0028 10.3949 9.99534 10.3749 9.9832 10.3463L9.98227 10.3473Z" fill="#41E6AF"/>
<path d="M13.0812 7.74577C13.1298 7.9782 12.9897 8.17634 12.8991 8.39258C12.7852 8.66406 12.5854 8.86125 12.3828 9.05748C11.7936 9.62998 11.0906 9.92242 10.2764 9.92338C10.0551 9.92338 9.83752 9.87384 9.65545 9.73096C9.32305 9.469 9.23248 9.18227 9.35106 8.75456C9.47711 8.29827 9.75349 7.94391 10.0999 7.64289C10.5705 7.23328 11.112 6.97704 11.7273 6.89702C12.0523 6.85416 12.3791 6.85987 12.6741 7.03038C12.9337 7.18089 13.1195 7.38856 13.0812 7.74673V7.74577Z" fill="#41E6AF"/>
<path d="M23.7722 16.439C23.7983 16.0056 23.8553 15.5874 24.0206 15.1826C24.1326 14.9073 24.2923 14.6729 24.5145 14.4948C24.8049 14.2614 25.2278 14.2871 25.5332 14.5234C25.7096 14.6596 25.8385 14.8377 25.9309 15.0387C26.3763 16.0075 26.3782 16.9744 25.8964 17.9317C25.7946 18.1337 25.648 18.3023 25.4613 18.4299C25.1485 18.6443 24.7881 18.6224 24.5033 18.3709C24.1401 18.0508 23.9571 17.6269 23.8628 17.1601C23.8151 16.9239 23.8011 16.68 23.7722 16.439Z" fill="#41E6AF"/>
<path d="M11.9944 26.1068C10.9104 26.0077 10.0196 25.5372 9.46311 24.5122C9.32959 24.2664 9.25676 23.9911 9.32865 23.7091C9.42389 23.331 9.70027 23.1414 10.0579 23.0757C10.5639 22.9833 11.0457 23.0938 11.4977 23.3262C11.7516 23.4567 12.0093 23.5986 12.2269 23.7825C12.4622 23.9806 12.6993 24.1921 12.8347 24.4865C12.9085 24.6474 13.0159 24.7999 13.0551 24.9685C13.1914 25.5676 12.9673 25.9096 12.3716 26.0649C12.2614 26.0935 12.1428 26.0916 11.9953 26.1068H11.9944Z" fill="#41E6AF"/>
</g>
<defs>
<clipPath id="clip0_1898_6820">
<rect width="28" height="27" fill="white" transform="translate(2 3)"/>
</clipPath>
</defs>
</svg>
