<svg width="32" height="32" viewBox="0 0 32 32" fill="none" xmlns="http://www.w3.org/2000/svg">
<rect width="32" height="32" rx="8" fill="#0F1330"/>
<g clip-path="url(#clip0_1779_7477)">
<path d="M18.6156 4.24001C16.3398 4.2409 14.1575 5.14571 12.5487 6.75545C10.94 8.36518 10.0365 10.548 10.037 12.8238C10.037 12.8298 10.037 12.8356 10.037 12.8417V12.8557C10.0431 12.9636 10.0903 13.0649 10.1688 13.139C10.2474 13.2131 10.3514 13.2543 10.4593 13.254H26.7717C26.8797 13.2543 26.9836 13.2131 27.0622 13.139C27.1407 13.0649 27.1879 12.9635 27.194 12.8557L27.1947 12.8417C27.1947 12.8356 27.1947 12.8298 27.1947 12.8238C27.1951 10.5479 26.2916 8.36504 24.6827 6.7553C23.0739 5.14555 20.8915 4.24079 18.6156 4.24001Z" fill="#53CBC8"/>
<path d="M4.35717 22.4078C4.35709 22.511 4.3264 22.6119 4.26899 22.6977C4.21158 22.7835 4.13003 22.8504 4.03464 22.8898C3.93924 22.9293 3.8343 22.9396 3.73306 22.9194C3.63182 22.8992 3.53883 22.8495 3.46586 22.7764C3.39288 22.7034 3.34319 22.6104 3.32307 22.5092C3.30294 22.4079 3.31329 22.303 3.35279 22.2076C3.3923 22.1122 3.45919 22.0307 3.54501 21.9734C3.63084 21.916 3.73174 21.8854 3.83497 21.8853C3.90357 21.8853 3.9715 21.8988 4.03487 21.9251C4.09825 21.9514 4.15583 21.9899 4.20432 22.0384C4.25281 22.0869 4.29127 22.1445 4.3175 22.2079C4.34372 22.2713 4.35721 22.3392 4.35717 22.4078Z" fill="#E1147B"/>
<path d="M26.2043 19.5176H8.7011C8.61205 19.5178 8.52456 19.541 8.44717 19.585C8.36978 19.6291 8.30513 19.6924 8.25955 19.7689C8.21398 19.8454 8.18902 19.9324 8.18713 20.0215C8.18523 20.1105 8.20647 20.1985 8.24875 20.2769C8.25155 20.2823 8.2545 20.2878 8.25744 20.2931C8.30152 20.3747 8.36685 20.4428 8.44652 20.4902C8.52618 20.5376 8.6172 20.5626 8.70991 20.5625H26.1959C26.2886 20.5626 26.3796 20.5376 26.4593 20.4902C26.539 20.4427 26.6043 20.3747 26.6484 20.2931L26.6571 20.2769C26.6993 20.1985 26.7205 20.1104 26.7186 20.0214C26.7167 19.9323 26.6917 19.8453 26.646 19.7688C26.6004 19.6923 26.5357 19.629 26.4583 19.5849C26.3809 19.5409 26.2934 19.5177 26.2043 19.5176Z" fill="#E1147B"/>
<path d="M28.53 14.782H8.70067C8.63067 14.7822 8.56144 14.7966 8.49721 14.8244C8.43298 14.8522 8.37508 14.8928 8.32706 14.9438C8.27903 14.9947 8.24187 15.0549 8.21787 15.1206C8.19386 15.1864 8.18351 15.2563 8.18742 15.3262C8.18742 15.3316 8.18742 15.3371 8.18826 15.3426C8.19564 15.4736 8.25298 15.5969 8.34848 15.687C8.44397 15.7771 8.57036 15.8271 8.70164 15.8268H28.53C28.6613 15.8271 28.7876 15.777 28.8831 15.6869C28.9786 15.5969 29.036 15.4736 29.0434 15.3426C29.0434 15.3371 29.0434 15.3316 29.0442 15.3262C29.0481 15.2562 29.0377 15.1862 29.0137 15.1204C28.9896 15.0546 28.9524 14.9943 28.9042 14.9434C28.8561 14.8925 28.7981 14.8519 28.7337 14.8241C28.6694 14.7964 28.6001 14.7821 28.53 14.782Z" fill="#E1147B"/>
<path d="M21.0639 26.621H12.1273C12.0114 26.621 11.8989 26.6602 11.808 26.7322C11.7171 26.8042 11.6532 26.9048 11.6267 27.0177C11.6002 27.1305 11.6125 27.249 11.6618 27.354C11.711 27.459 11.7942 27.5442 11.898 27.5959L11.9308 27.6123C12.002 27.6477 12.0804 27.666 12.1599 27.6658H21.0309C21.1105 27.666 21.189 27.6477 21.2602 27.6123L21.2928 27.5959C21.3966 27.5442 21.4798 27.459 21.529 27.3541C21.5783 27.2492 21.5907 27.1307 21.5642 27.0179C21.5377 26.905 21.4739 26.8045 21.3831 26.7324C21.2923 26.6604 21.1798 26.6211 21.0639 26.621Z" fill="#E1147B"/>
<path d="M26.5236 24.2531H17.5873C17.4714 24.2534 17.3591 24.2927 17.2683 24.3647C17.1776 24.4367 17.1138 24.5372 17.0873 24.65C17.0608 24.7628 17.0731 24.8812 17.1222 24.9861C17.1714 25.091 17.2545 25.1763 17.3581 25.2281L17.3907 25.2445C17.462 25.2798 17.5405 25.298 17.6201 25.2978H26.4905C26.57 25.2981 26.6485 25.2798 26.7198 25.2445L26.7524 25.2281C26.856 25.1763 26.9391 25.0911 26.9883 24.9862C27.0374 24.8814 27.0498 24.763 27.0233 24.6502C26.9969 24.5375 26.9331 24.4369 26.8425 24.3649C26.7518 24.2928 26.6395 24.2535 26.5236 24.2531Z" fill="#E1147B"/>
<path d="M14.3383 22.7656L14.3232 22.7494C14.2551 22.676 14.2099 22.5844 14.1931 22.4857C14.1764 22.387 14.1888 22.2856 14.2288 22.1938C14.2689 22.1021 14.3348 22.024 14.4186 21.9692C14.5023 21.9143 14.6003 21.8852 14.7004 21.8852H29.2044C29.3045 21.8852 29.4024 21.9143 29.4862 21.9692C29.5699 22.024 29.6358 22.1021 29.6759 22.1938C29.7159 22.2856 29.7283 22.387 29.7116 22.4857C29.6948 22.5844 29.6496 22.676 29.5815 22.7494L29.5664 22.7656C29.5181 22.8173 29.4597 22.8586 29.3949 22.8868C29.3301 22.9151 29.2601 22.9298 29.1894 22.93H14.7153C14.6446 22.9298 14.5747 22.9151 14.5098 22.8868C14.445 22.8586 14.3866 22.8173 14.3383 22.7656Z" fill="#E1147B"/>
<path d="M5.69977 21.8853H12.6258C12.7417 21.8855 12.8541 21.9248 12.9448 21.9969C13.0356 22.0689 13.0994 22.1694 13.1259 22.2822C13.1524 22.395 13.1401 22.5134 13.0909 22.6183C13.0418 22.7232 12.9586 22.8085 12.855 22.8603L12.8224 22.8767C12.7512 22.912 12.6727 22.9304 12.5932 22.9302H5.73322C5.65366 22.9304 5.57515 22.9121 5.5039 22.8767L5.47128 22.8603C5.36771 22.8085 5.28463 22.7233 5.23546 22.6185C5.1863 22.5136 5.17392 22.3953 5.20034 22.2825C5.22676 22.1698 5.29043 22.0693 5.38106 21.9972C5.47168 21.9251 5.58397 21.8857 5.69977 21.8853Z" fill="#E1147B"/>
<path d="M7.35805 15.3044C7.358 15.4076 7.32734 15.5085 7.26995 15.5943C7.21255 15.6801 7.131 15.747 7.03561 15.7865C6.94022 15.8259 6.83527 15.8362 6.73403 15.8161C6.63278 15.7959 6.53978 15.7462 6.46679 15.6732C6.3938 15.6002 6.3441 15.5072 6.32396 15.4059C6.30383 15.3047 6.31416 15.1997 6.35366 15.1043C6.39316 15.0089 6.46005 14.9274 6.54588 14.87C6.6317 14.8127 6.73262 14.782 6.83586 14.782C6.90444 14.782 6.97236 14.7955 7.03572 14.8218C7.09909 14.848 7.15666 14.8865 7.20515 14.935C7.25364 14.9835 7.29211 15.0411 7.31834 15.1045C7.34458 15.1678 7.35807 15.2358 7.35805 15.3044Z" fill="#E1147B"/>
<path d="M19.6656 17.8133C19.667 17.808 19.6684 17.8024 19.6699 17.797C19.6903 17.7209 19.6929 17.641 19.6775 17.5636C19.6621 17.4863 19.6291 17.4135 19.5811 17.351C19.5331 17.2884 19.4713 17.2377 19.4005 17.2029C19.3298 17.168 19.252 17.1499 19.1731 17.15H4.66684C4.58796 17.1499 4.51012 17.168 4.43935 17.2028C4.36858 17.2377 4.30678 17.2883 4.25874 17.3509C4.21069 17.4135 4.17771 17.4862 4.16231 17.5636C4.14692 17.641 4.14954 17.7209 4.16998 17.797C4.17138 17.8024 4.17292 17.808 4.17446 17.8133C4.20388 17.9225 4.26844 18.0191 4.35819 18.088C4.44794 18.1569 4.55788 18.1944 4.67104 18.1946H19.1689C19.2821 18.1944 19.392 18.1569 19.4818 18.088C19.5715 18.0191 19.6361 17.9225 19.6656 17.8133Z" fill="#E1147B"/>
<path d="M3.32396 17.6722C3.32391 17.7754 3.29325 17.8763 3.23585 17.9621C3.17845 18.0479 3.09689 18.1148 3.0015 18.1543C2.9061 18.1938 2.80114 18.2041 2.69989 18.1839C2.59863 18.1637 2.50564 18.114 2.43265 18.0409C2.35967 17.9679 2.30998 17.8749 2.28986 17.7736C2.26974 17.6724 2.28009 17.5674 2.31961 17.472C2.35913 17.3767 2.42604 17.2951 2.51189 17.2378C2.59774 17.1804 2.69866 17.1498 2.8019 17.1498C2.94039 17.1499 3.07317 17.205 3.17107 17.3029C3.26897 17.4009 3.32396 17.5337 3.32396 17.6722Z" fill="#E1147B"/>
<path d="M7.35805 20.04C7.358 20.1432 7.32734 20.2441 7.26995 20.3299C7.21255 20.4157 7.131 20.4826 7.03561 20.5221C6.94022 20.5616 6.83527 20.5719 6.73403 20.5517C6.63278 20.5315 6.53978 20.4818 6.46679 20.4088C6.3938 20.3358 6.3441 20.2428 6.32396 20.1415C6.30383 20.0403 6.31416 19.9353 6.35366 19.84C6.39316 19.7446 6.46005 19.663 6.54588 19.6057C6.6317 19.5483 6.73262 19.5177 6.83586 19.5176C6.97436 19.5177 7.10719 19.5727 7.20512 19.6707C7.30304 19.7686 7.35805 19.9015 7.35805 20.04Z" fill="#E1147B"/>
<path d="M16.2447 24.7756C16.2447 24.8789 16.214 24.9798 16.1566 25.0656C16.0992 25.1514 16.0177 25.2183 15.9223 25.2577C15.8269 25.2972 15.7219 25.3075 15.6207 25.2873C15.5194 25.2672 15.4264 25.2174 15.3534 25.1444C15.2805 25.0714 15.2308 24.9784 15.2106 24.8772C15.1905 24.7759 15.2008 24.671 15.2403 24.5756C15.2798 24.4802 15.3467 24.3987 15.4325 24.3413C15.5184 24.2839 15.6193 24.2533 15.7225 24.2533C15.7911 24.2533 15.859 24.2668 15.9224 24.293C15.9857 24.3193 16.0433 24.3578 16.0918 24.4063C16.1403 24.4548 16.1788 24.5124 16.205 24.5757C16.2312 24.6391 16.2447 24.707 16.2447 24.7756Z" fill="#E1147B"/>
<path d="M10.7844 27.1434C10.7844 27.2467 10.7537 27.3476 10.6963 27.4334C10.6389 27.5192 10.5573 27.5861 10.4619 27.6256C10.3665 27.665 10.2616 27.6753 10.1603 27.6551C10.0591 27.635 9.96608 27.5852 9.8931 27.5122C9.82012 27.4392 9.77043 27.3462 9.75031 27.2449C9.73019 27.1436 9.74054 27.0387 9.78006 26.9433C9.81958 26.8479 9.8865 26.7664 9.97235 26.7091C10.0582 26.6517 10.1591 26.6211 10.2624 26.6211C10.3309 26.6211 10.3988 26.6346 10.4622 26.6609C10.5255 26.6872 10.5831 26.7256 10.6316 26.7741C10.68 26.8226 10.7185 26.8802 10.7447 26.9436C10.7709 27.007 10.7844 27.0749 10.7844 27.1434Z" fill="#E1147B"/>
</g>
<defs>
<clipPath id="clip0_1779_7477">
<rect width="28" height="28" fill="white" transform="translate(2 2)"/>
</clipPath>
</defs>
</svg>
