<svg width="32" height="32" viewBox="0 0 32 32" fill="none" xmlns="http://www.w3.org/2000/svg">
<rect width="32" height="32" rx="8" fill="#001428"/>
<g clip-path="url(#clip0_1779_7473)">
<path d="M15.8035 3C13.0308 3.00379 10.3731 4.02968 8.41399 5.85238C6.45486 7.67508 5.35447 10.1456 5.35448 12.7214C5.35435 13.3363 5.41627 13.9498 5.53942 14.554L6.89178 13.6949C9.26901 12.1773 13.1219 12.1773 15.4991 13.6949L16.9131 14.6112L17.6837 15.1016C19.8259 16.4653 23.2974 16.4653 25.4396 15.1016L26.0676 14.7007C26.3774 13.2878 26.3455 11.8286 25.9744 10.4285C25.6033 9.02835 24.9021 7.72226 23.9216 6.60449C22.941 5.48672 21.7055 4.58517 20.3043 3.96492C18.9031 3.34468 17.3711 3.02122 15.8189 3.0179L15.8035 3Z" fill="#F2B705"/>
<path d="M21.683 18.5485C20.1883 18.5716 18.7199 18.1817 17.4641 17.4281L15.2795 16.043C14.0899 15.3654 12.7218 15.0068 11.3264 15.0068C9.93111 15.0068 8.56297 15.3654 7.37339 16.043L5.95937 16.9414C5.825 17.0268 5.6596 17.0591 5.49955 17.0313C5.33951 17.0034 5.19793 16.9176 5.10596 16.7928C5.01399 16.668 4.97917 16.5143 5.00916 16.3656C5.03915 16.217 5.13148 16.0854 5.26585 16L6.67987 15.1016C8.07395 14.2944 9.68375 13.8665 11.3264 13.8665C12.9692 13.8665 14.5789 14.2944 15.973 15.1016L18.1576 16.4939C19.2187 17.0976 20.4388 17.4171 21.683 17.4171C22.9273 17.4171 24.1473 17.0976 25.2084 16.4939L26.0406 15.9678C26.175 15.8824 26.3404 15.85 26.5005 15.8779C26.6605 15.9057 26.8021 15.9915 26.894 16.1163C26.986 16.2412 27.0208 16.3948 26.9908 16.5435C26.9609 16.6922 26.8685 16.8237 26.7342 16.9091L25.9019 17.4353C24.6455 18.1867 23.177 18.5742 21.683 18.5485Z" fill="#53CBC8"/>
<path d="M11.2802 22.6432V17.1525C11.27 17.0334 11.27 16.9137 11.2802 16.7946C11.2991 16.6437 11.3771 16.5045 11.4993 16.4035C11.6215 16.3026 11.7794 16.2468 11.9429 16.247C12.1013 16.2509 12.2525 16.3089 12.3677 16.4099C12.4829 16.511 12.5539 16.648 12.5671 16.7946C12.5941 16.9856 12.6018 17.1785 12.5902 17.3709V28.3235C12.5954 28.4941 12.5279 28.6598 12.4024 28.7845C12.2769 28.9091 12.1034 28.9827 11.9198 28.9893C11.7406 28.98 11.5726 28.9051 11.4527 28.781C11.3328 28.6569 11.2708 28.4936 11.2802 28.3271C11.2802 28.3271 11.2802 28.302 11.2802 28.2913V24.6404V22.6432Z" fill="#53CBC8"/>
<path d="M10.0357 19.88V22.611C10.0357 23.0763 9.76603 23.3841 9.38844 23.3733C9.19222 23.35 9.01317 23.2575 8.88838 23.1149C8.76358 22.9723 8.70259 22.7906 8.71804 22.6074V17.1454C8.71804 16.6693 9.01857 16.3472 9.40771 16.3651C9.79685 16.383 10.0319 16.6729 10.0319 17.149C10.0396 18.0617 10.0357 18.9708 10.0357 19.88Z" fill="#53CBC8"/>
<path d="M13.8539 19.8764V17.9579C13.8539 17.514 14.1082 17.242 14.4897 17.242C14.5828 17.2461 14.6742 17.2673 14.7585 17.3043C14.8428 17.3412 14.9184 17.3933 14.9811 17.4575C15.0437 17.5216 15.0921 17.5967 15.1235 17.6782C15.1548 17.7598 15.1686 17.8463 15.1639 17.9328V17.9579C15.1639 19.2655 15.1639 20.5708 15.1639 21.8736C15.1769 21.9565 15.172 22.0409 15.1495 22.1219C15.127 22.203 15.0873 22.2791 15.0328 22.3457C14.9783 22.4124 14.91 22.4683 14.832 22.5101C14.7539 22.552 14.6677 22.5789 14.5783 22.5895H14.4935C14.1082 22.5895 13.854 22.3139 13.8501 21.8736V19.8728L13.8539 19.8764Z" fill="#53CBC8"/>
<path d="M6.15587 20.2773V18.3588C6.15587 17.9149 6.41016 17.6429 6.78774 17.6429C6.97616 17.6513 7.15334 17.7287 7.28045 17.8581C7.40755 17.9876 7.47422 18.1586 7.46585 18.3337C7.46772 18.342 7.46772 18.3505 7.46585 18.3588C7.48126 19.664 7.48126 20.9693 7.46585 22.2745C7.47997 22.3572 7.47599 22.4417 7.45415 22.5229C7.43232 22.6042 7.39307 22.6805 7.33876 22.7473C7.28444 22.8142 7.21619 22.8701 7.13806 22.9119C7.05994 22.9536 6.97355 22.9803 6.88406 22.9904H6.7993C6.41401 22.9904 6.15972 22.7148 6.15587 22.2745V20.3131V20.2773Z" fill="#53CBC8"/>
<path d="M17.0634 18.6415C17.1502 18.642 17.2361 18.6585 17.3159 18.6903C17.3958 18.722 17.4679 18.7682 17.5283 18.8263C17.5886 18.8843 17.6358 18.9529 17.6671 19.0282C17.6984 19.1034 17.7133 19.1837 17.7107 19.2643V20.3059C17.7107 20.4654 17.6425 20.6183 17.5211 20.7311C17.3997 20.8439 17.2351 20.9072 17.0634 20.9072C16.8914 20.9072 16.7263 20.844 16.6043 20.7313C16.4823 20.6186 16.4133 20.4657 16.4123 20.3059V19.2643C16.4123 19.1039 16.4809 18.95 16.603 18.8366C16.7251 18.7232 16.8907 18.6594 17.0634 18.6594V18.6415Z" fill="#53CBC8"/>
<path d="M19.6333 19.5542C19.8053 19.5552 19.9699 19.6193 20.0912 19.7327C20.2125 19.846 20.2806 19.9993 20.2806 20.1591V26.0113C20.2806 26.1708 20.2124 26.3237 20.091 26.4365C19.9696 26.5492 19.805 26.6126 19.6333 26.6126C19.4613 26.6126 19.2962 26.5494 19.1742 26.4367C19.0522 26.324 18.9832 26.1711 18.9821 26.0113V20.1591C18.9832 19.999 19.0521 19.8457 19.174 19.7324C19.2959 19.6192 19.4609 19.5552 19.6333 19.5542Z" fill="#53CBC8"/>
<path d="M22.1877 19.7833C22.3594 19.7833 22.5241 19.8467 22.6454 19.9594C22.7668 20.0722 22.835 20.2252 22.835 20.3846V25.3491C22.835 25.5086 22.7668 25.6615 22.6454 25.7743C22.5241 25.8871 22.3594 25.9504 22.1877 25.9504C22.0157 25.9504 21.8507 25.8872 21.7287 25.7745C21.6067 25.6619 21.5376 25.5089 21.5366 25.3491V20.3739C21.5406 20.216 21.611 20.0658 21.7327 19.9554C21.8544 19.845 22.0177 19.7833 22.1877 19.7833Z" fill="#53CBC8"/>
<path d="M24.773 19.2142C24.945 19.2151 25.1097 19.2793 25.231 19.3926C25.3522 19.506 25.4203 19.6593 25.4203 19.8191V21.9667C25.4203 22.0457 25.4036 22.1238 25.371 22.1968C25.3385 22.2698 25.2908 22.336 25.2307 22.3919C25.1706 22.4477 25.0993 22.492 25.0207 22.5222C24.9422 22.5525 24.858 22.568 24.773 22.568C24.601 22.568 24.436 22.5048 24.314 22.3921C24.192 22.2794 24.1229 22.1265 24.1219 21.9667V19.8191C24.1219 19.6587 24.1905 19.5048 24.3126 19.3914C24.4347 19.2779 24.6003 19.2142 24.773 19.2142Z" fill="#53CBC8"/>
</g>
<defs>
<clipPath id="clip0_1779_7473">
<rect width="22" height="26" fill="white" transform="translate(5 3)"/>
</clipPath>
</defs>
</svg>
