<svg width="32" height="32" viewBox="0 0 32 32" fill="none" xmlns="http://www.w3.org/2000/svg">
<rect width="32" height="32" rx="8" fill="#FF0420"/>
<path fill-rule="evenodd" clip-rule="evenodd" d="M6.20615 21.0666C7.02095 21.6889 8.06622 22 9.342 22C10.8859 22 12.1189 21.6277 13.0408 20.8832C13.9628 20.1277 14.6115 18.9889 14.9868 17.4665C15.2119 16.5332 15.4049 15.5721 15.5657 14.5833C15.6193 14.2277 15.6462 13.9332 15.6462 13.6999C15.6462 12.9221 15.4585 12.2555 15.0832 11.7C14.708 11.1333 14.1933 10.711 13.5394 10.4332C12.8854 10.1444 12.1456 10 11.3202 10C8.28607 10 6.40446 11.5277 5.67546 14.5833C5.41817 15.7055 5.21984 16.6666 5.08039 17.4665C5.02684 17.8221 5 18.1222 5 18.3666C5 19.5333 5.40205 20.4333 6.20615 21.0666ZM11.0949 19.0499C10.6768 19.4166 10.1677 19.5999 9.56713 19.5999C8.53807 19.5999 8.02337 19.0888 8.02337 18.0665C8.02337 17.8221 8.04478 17.5888 8.08774 17.3666C8.28066 16.2889 8.47365 15.3777 8.66663 14.6333C8.84895 13.8778 9.14916 13.3167 9.56713 12.9498C9.99605 12.5833 10.5106 12.3999 11.1111 12.3999C12.1295 12.3999 12.6388 12.9054 12.6388 13.9165C12.6388 14.161 12.6173 14.4 12.5745 14.6333C12.4458 15.411 12.2582 16.3222 12.0116 17.3666C11.8293 18.1222 11.5239 18.6833 11.0949 19.0499ZM16.1127 21.7161C16.177 21.7939 16.2681 21.8328 16.3862 21.8328H18.5733C18.6803 21.8328 18.7823 21.7939 18.8787 21.7161C18.9752 21.6383 19.0342 21.5384 19.0556 21.4162L19.7954 17.7661H21.9665C23.3708 17.7661 24.4751 17.4606 25.2794 16.8495C26.0941 16.2385 26.6355 15.294 26.9034 14.0161C26.9679 13.7162 27 13.4272 27 13.1495C27 12.1828 26.6355 11.4439 25.9064 10.9328C25.1881 10.4217 24.2339 10.1661 23.0439 10.1661H18.7661C18.659 10.1661 18.5572 10.205 18.4606 10.2828C18.3641 10.3606 18.3052 10.4606 18.2837 10.5828L16.0645 21.4162C16.043 21.5273 16.0591 21.6272 16.1127 21.7161ZM23.2529 15.0828C22.9206 15.3384 22.5292 15.4661 22.079 15.4661H20.2296L20.8407 12.4829H22.7706C23.2101 12.4829 23.521 12.5716 23.7032 12.7495C23.8855 12.9162 23.9767 13.1606 23.9767 13.4828C23.9767 13.6272 23.9606 13.7939 23.9285 13.9828C23.8212 14.4607 23.596 14.8272 23.2529 15.0828Z" fill="white"/>
</svg>
