<svg width="32" height="32" viewBox="0 0 32 32" fill="none" xmlns="http://www.w3.org/2000/svg">
<rect width="32" height="32" rx="8" fill="#8247E5"/>
<path d="M22.187 12.1128C21.7468 11.8754 21.1808 11.8754 20.6777 12.1128L17.1561 14.0712L14.7664 15.3175L11.3076 17.276C10.8674 17.5134 10.3015 17.5134 9.79837 17.276L7.09426 15.7329C6.65406 15.4955 6.33963 15.0208 6.33963 14.4866V11.5193C6.33963 11.0445 6.59117 10.5697 7.09426 10.273L9.79837 8.78932C10.2386 8.55193 10.8046 8.55193 11.3076 8.78932L14.0118 10.3323C14.452 10.5697 14.7664 11.0445 14.7664 11.5786V13.5371L17.1561 12.2315V10.2136C17.1561 9.73887 16.9045 9.2641 16.4014 8.96736L11.3705 6.17804C10.9303 5.94065 10.3643 5.94065 9.86126 6.17804L4.70459 9.02671C4.2015 9.2641 3.94995 9.73887 3.94995 10.2136V15.7923C3.94995 16.2671 4.2015 16.7418 4.70459 17.0386L9.79837 19.8279C10.2386 20.0653 10.8046 20.0653 11.3076 19.8279L14.7664 17.9288L17.1561 16.6231L20.6148 14.724C21.055 14.4866 21.621 14.4866 22.1241 14.724L24.8282 16.2077C25.2684 16.4451 25.5828 16.9199 25.5828 17.454V20.4214C25.5828 20.8961 25.3313 21.3709 24.8282 21.6677L22.187 23.1513C21.7468 23.3887 21.1808 23.3887 20.6777 23.1513L17.9736 21.6677C17.5334 21.4303 17.219 20.9555 17.219 20.4214V18.5223L14.8293 19.8279V21.7864C14.8293 22.2611 15.0808 22.7359 15.5839 23.0326L20.6777 25.822C21.1179 26.0593 21.6839 26.0593 22.187 25.822L27.2808 23.0326C27.721 22.7953 28.0354 22.3205 28.0354 21.7864V16.1484C28.0354 15.6736 27.7838 15.1988 27.2808 14.9021L22.187 12.1128Z" fill="white"/>
</svg>
