<svg width="32" height="32" viewBox="0 0 32 32" fill="none" xmlns="http://www.w3.org/2000/svg">
<rect width="32" height="32" rx="8" fill="black"/>
<path d="M22.4092 7.66765C22.7937 7.07627 22.9999 6.37214 23 5.65057C22.9893 5.22625 22.8541 4.81642 22.6138 4.47971C22.4949 4.32261 22.3435 4.19755 22.1717 4.11447C21.9999 4.03139 21.8125 3.99259 21.6243 4.00117C20.0827 4.00117 19.301 5.54844 19.301 8.60011C19.3014 9.0388 19.3237 9.47715 19.3677 9.91328L17.0904 11.9696C16.5423 11.4598 15.8223 11.2015 14.948 11.2015C14.3025 11.1996 13.6654 11.3592 13.0871 11.6678C12.5192 11.9662 12.0153 12.3886 11.6077 12.9081C11.1522 13.5208 10.7811 14.2009 10.5059 14.9274C10.1587 15.8316 9.98703 16.8026 10.0014 17.7807C9.98066 18.7962 10.1868 19.8022 10.6025 20.7142C10.2802 21.7887 10.1212 22.912 10.1315 24.0409C10.1243 25.2549 10.4646 26.4418 11.1063 27.4406C11.7651 28.4752 12.6195 28.9999 13.6457 28.9999C13.678 29.0007 13.71 28.9942 13.7399 28.9809C13.7697 28.9676 13.7967 28.9478 13.819 28.9227C13.8498 28.8827 13.8725 28.8362 13.8857 28.7863C13.8989 28.7364 13.9024 28.684 13.8958 28.6326C13.8811 28.3159 13.7158 28.2817 13.6457 28.2817C12.8607 28.2817 12.2351 27.8832 11.7331 27.0634C11.2228 26.2288 10.9559 25.2495 10.9664 24.2508C10.9584 23.4011 11.0442 22.5534 11.2219 21.7254C12.0607 22.7703 13.2562 23.2997 14.7804 23.2997C15.8135 23.3218 16.8384 23.0982 17.7818 22.6447C18.606 22.243 19.3139 21.6093 19.8309 20.8106C20.3285 20.0233 20.7001 19.1519 20.9301 18.2327C21.17 17.2801 21.2906 16.2973 21.2887 15.3103C21.2887 14.3221 21.0981 12.4478 20.7219 9.73889C21.3558 9.11978 21.9219 8.42487 22.4092 7.66765ZM22.1839 5.74046C22.1839 6.53237 21.6532 7.51787 20.6054 8.67269C20.5655 8.23433 20.5454 7.86793 20.5454 7.58061C20.5454 5.77477 20.9086 4.85914 21.6249 4.85914C21.8649 4.85914 22.1839 4.95047 22.1839 5.74046ZM16.4404 12.5726C13.7399 15.0541 11.913 17.4133 11.0028 19.594C10.8524 19.0307 10.7778 18.4471 10.7812 17.8611C10.7806 17.1776 10.8787 16.4982 11.072 15.8471C11.5058 14.3196 12.2284 13.2192 13.2202 12.5769C13.7652 12.2299 14.3886 12.0509 15.022 12.0595C15.6166 12.0595 16.0818 12.2275 16.4404 12.5726ZM13.5368 16.8627C14.5587 15.5727 15.6741 14.3718 16.8725 13.2715C16.9538 13.5462 16.9952 13.8327 16.9951 14.121C16.9895 15.0251 16.6562 15.8912 16.0661 16.5352C15.651 17.0312 15.1936 17.2828 14.7074 17.2828H14.5311L14.5619 17.4694C14.5795 17.6242 14.6446 17.7684 14.7468 17.879C14.8547 17.9775 14.9934 18.0281 15.1347 18.0205C15.7367 18.0292 16.3234 17.8162 16.7973 17.417C17.2406 17.0606 17.5847 16.5806 17.7925 16.029C17.9857 15.4668 18.0805 14.8709 18.0724 14.2716C18.0765 13.6732 17.9127 13.0873 17.6026 12.5904L19.4592 10.9352C19.6634 13.2478 19.7669 14.6556 19.7669 15.1216C19.7669 17.0969 19.3797 18.7992 18.6158 20.181C18.2323 20.8747 17.6829 21.4451 17.0246 21.8328C16.2954 22.2519 15.478 22.462 14.6513 22.4427C13.206 22.4427 12.1701 21.8858 11.4847 20.7406C11.9396 19.3224 12.6354 18.0075 13.5368 16.8627Z" fill="#CCAD51"/>
</svg>
