<svg width="32" height="32" viewBox="0 0 32 32" fill="none" xmlns="http://www.w3.org/2000/svg">
<rect width="32" height="32" rx="8" fill="black"/>
<g clip-path="url(#clip0_1779_7464)">
<path d="M26.5552 21.1919L23.0335 24.7544C22.9576 24.8334 22.8657 24.8971 22.7632 24.9419C22.6601 24.9834 22.5493 25.0051 22.4372 25.0056H5.74261C5.6628 25.0053 5.5848 24.9831 5.51803 24.9419C5.45164 24.9012 5.39917 24.8432 5.36698 24.775C5.33457 24.7062 5.32487 24.6297 5.33916 24.5556C5.35296 24.4815 5.3888 24.4125 5.44251 24.3569L8.9603 20.7944C9.03613 20.7154 9.12806 20.6516 9.23059 20.6069C9.33363 20.5653 9.44446 20.5436 9.55653 20.5431H26.2511C26.3314 20.5411 26.4103 20.562 26.4777 20.6031C26.5453 20.6443 26.5991 20.7028 26.6327 20.7719C26.6647 20.8415 26.6744 20.9184 26.6606 20.9931C26.6475 21.0679 26.6108 21.1372 26.5552 21.1919ZM23.0335 14.0162C22.9579 13.9361 22.8651 13.8722 22.7612 13.8287C22.6593 13.7856 22.5489 13.7633 22.4372 13.7631H5.74261C5.6628 13.7635 5.5848 13.7856 5.51803 13.8269C5.45149 13.8682 5.39904 13.9268 5.36698 13.9956C5.33457 14.0644 5.32487 14.1409 5.33916 14.215C5.353 14.2886 5.38886 14.3569 5.44251 14.4119L8.9603 17.9744C9.03613 18.0534 9.12806 18.1171 9.23059 18.1619C9.33363 18.2034 9.44446 18.2251 9.55653 18.2256H26.2511C26.3304 18.2258 26.4079 18.2036 26.4737 18.1619C26.5409 18.1212 26.5935 18.0624 26.6248 17.9931C26.6568 17.9248 26.6665 17.8491 26.6526 17.7756C26.6392 17.7013 26.6033 17.6323 26.5493 17.5769L23.0335 14.0162ZM5.74261 11.4569H22.4372C22.5493 11.4564 22.6601 11.4347 22.7632 11.3931C22.8657 11.3484 22.9576 11.2846 23.0335 11.2056L26.5552 7.64312C26.6108 7.58843 26.6475 7.51914 26.6606 7.44437C26.6744 7.36964 26.6647 7.29271 26.6327 7.22311C26.5991 7.1541 26.5453 7.09557 26.4777 7.05437C26.4103 7.01325 26.3314 6.99233 26.2511 6.99437H9.55653C9.44446 6.99486 9.33363 7.01654 9.23059 7.05812C9.12806 7.10285 9.03613 7.16662 8.9603 7.24562L5.44251 10.8081C5.3888 10.8638 5.35296 10.9327 5.33916 11.0069C5.32487 11.081 5.33457 11.1574 5.36698 11.2262C5.39917 11.2945 5.45164 11.3524 5.51803 11.3931C5.5848 11.4344 5.6628 11.4565 5.74261 11.4569Z" fill="url(#paint0_linear_1779_7464)"/>
</g>
<defs>
<linearGradient id="paint0_linear_1779_7464" x1="7.13383" y1="25.4294" x2="23.5072" y2="5.86321" gradientUnits="userSpaceOnUse">
<stop offset="0.08" stop-color="#9945FF"/>
<stop offset="0.3" stop-color="#8752F3"/>
<stop offset="0.5" stop-color="#5497D5"/>
<stop offset="0.6" stop-color="#43B4CA"/>
<stop offset="0.72" stop-color="#28E0B9"/>
<stop offset="0.97" stop-color="#19FB9B"/>
</linearGradient>
<clipPath id="clip0_1779_7464">
<rect width="21.3333" height="18" fill="white" transform="translate(5.33325 7)"/>
</clipPath>
</defs>
</svg>
