<svg width="32" height="32" viewBox="0 0 32 32" fill="none" xmlns="http://www.w3.org/2000/svg">
<rect width="32" height="32" rx="8" fill="url(#paint0_linear_1779_7478)"/>
<g clip-path="url(#clip0_1779_7478)">
<path d="M13.3956 6.74327C14.4009 6.74327 15.4062 6.71032 16.4051 6.75525C16.976 6.78221 17.3755 6.64142 17.6229 6.15013C18.1144 5.18254 18.8946 4.87399 20.0235 5.04174C21.0605 5.19752 22.1261 5.18254 23.1789 5.23946C24.2032 5.29338 24.7772 6.07824 24.4347 7.00689C24.143 7.80672 23.7529 8.5766 23.5056 9.38543C23.3977 9.74191 23.4009 10.2362 23.5848 10.5507C24.5109 12.1444 25.5034 13.7051 26.496 15.2629C26.9083 15.9099 27.1144 16.566 26.9305 17.3239C26.7466 18.0758 26.6324 18.8427 26.4421 19.5916C26.1821 20.6131 25.4813 21.2212 24.3808 21.4069C24.2508 21.4279 24.1208 21.4459 23.9876 21.4579C22.8999 21.5567 22.1324 22.03 21.3555 22.8239C19.8269 24.3876 17.7624 25.2354 15.5933 25.7866C13.9411 26.206 12.2698 26.5624 10.6018 26.9279C9.47914 27.1735 8.41994 26.7182 8.10599 25.7237C7.24658 22.9677 6.08273 20.2626 6.09859 17.3119C6.10493 16.0897 6.08907 14.8675 6.72015 13.7351C6.8248 13.5494 6.79943 13.2588 6.73601 13.0401C6.56793 12.4649 6.3396 11.9078 6.14298 11.3386C5.80366 10.353 6.08907 9.52023 6.88506 8.83722C7.50979 8.301 8.1155 7.73183 8.80683 7.27949C9.23495 6.9979 9.79309 6.80019 10.31 6.75825C11.3343 6.67737 12.3681 6.73428 13.3988 6.73428V6.74027L13.3956 6.74327ZM10.0151 25.1066C10.865 24.9178 11.6641 24.786 12.4379 24.5643C14.2709 24.0341 16.1261 23.5518 17.8956 22.8718C18.9453 22.4674 20.0045 21.8832 20.5246 20.8168C20.7751 20.3015 21.1525 20.0499 21.717 19.975C22.0563 19.9301 22.3893 19.8103 22.7286 19.8073C24.0891 19.7983 24.7011 19.1902 24.8407 17.8901C24.9295 17.0423 24.9453 16.3353 24.4284 15.5804C23.4707 14.1814 22.6335 12.7106 21.7233 11.2787C21.254 10.5387 21.1652 9.79882 21.5172 8.99599C21.7867 8.38488 22.0151 7.7558 22.2878 7.0668C21.5362 7.02486 20.902 7.03984 20.2867 6.94098C19.7128 6.85111 19.3227 6.96195 19.0658 7.46821C18.5616 8.45977 17.699 8.69942 16.5827 8.65149C14.661 8.56462 12.7297 8.58559 10.8047 8.59158C10.513 8.59158 10.1673 8.69044 9.9358 8.8552C9.36814 9.25961 8.82269 9.70296 8.33749 10.1913C8.16941 10.362 8.09964 10.7365 8.16624 10.9731C8.35969 11.6681 8.71169 12.3271 8.87026 13.0281C8.95905 13.4206 8.82269 13.8729 8.71804 14.2833C8.57533 14.8315 8.27406 15.3527 8.20112 15.9039C7.76983 19.1332 9.09859 22.054 10.0182 25.1066H10.0151Z" fill="white"/>
</g>
<defs>
<linearGradient id="paint0_linear_1779_7478" x1="31" y1="32" x2="0" y2="0" gradientUnits="userSpaceOnUse">
<stop stop-color="#2C1E5E"/>
<stop offset="1" stop-color="#9864E0"/>
</linearGradient>
<clipPath id="clip0_1779_7478">
<rect width="21" height="22" fill="white" transform="translate(6 5)"/>
</clipPath>
</defs>
</svg>
