<svg width="32" height="32" viewBox="0 0 32 32" fill="none" xmlns="http://www.w3.org/2000/svg">
<rect width="32" height="32" rx="8" fill="#0088CC"/>
<path fill-rule="evenodd" clip-rule="evenodd" d="M8.51119 6H23.607C24.1403 6 24.6735 6.07905 25.232 6.33808C25.9015 6.65094 26.2548 7.14209 26.5037 7.5054C26.8293 8.03873 27.0011 8.65171 27 9.27656C27.0023 9.89188 26.8471 10.4975 26.5492 11.0359L17.0112 27.4171C16.9082 27.5949 16.76 27.7425 16.5817 27.8448C16.4035 27.9471 16.2013 28.0007 15.9958 28C15.7902 27.9993 15.5884 27.9444 15.4108 27.8409C15.2332 27.7374 15.0861 27.5889 14.9842 27.4103L5.6229 11.0629L5.61449 11.0494C5.40085 10.6962 5.06947 10.1512 5.01059 9.44644C4.95768 8.79837 5.10393 8.1496 5.4298 7.5869C5.75567 7.02421 6.2456 6.57442 6.83407 6.29772C7.46657 6.00336 8.10747 6 8.51119 6ZM14.8294 8.34136H8.51119C8.0957 8.34136 7.93589 8.36659 7.82487 8.41873C7.66814 8.49131 7.53774 8.61065 7.45159 8.76034C7.36544 8.91003 7.32777 9.08273 7.34377 9.25469C7.35218 9.35561 7.39255 9.46831 7.63142 9.8619L7.64656 9.88713L14.8294 22.4299V8.34136ZM17.171 8.34136V22.4921L24.5221 9.86695C24.6148 9.68406 24.6621 9.48157 24.6601 9.27656C24.6601 9.09659 24.6231 8.94016 24.539 8.77868C24.4838 8.69424 24.4219 8.61437 24.3539 8.53984C24.3227 8.50576 24.2849 8.4783 24.2429 8.4591C24.043 8.37082 23.8253 8.3305 23.607 8.34136H17.171Z" fill="white"/>
</svg>
