<svg width="110" height="24" viewBox="0 0 110 24" fill="none" xmlns="http://www.w3.org/2000/svg">
<path d="M93 20.5L76 24L92.5 11.5L110 24L93 20.5Z" fill="#014800"/>
<rect x="90.5" y="14" width="4.5" height="10" fill="white"/>
<path d="M92.768 0L76 24L92.768 14.4L110 24L92.768 0Z" fill="#00FF29"/>
<path d="M17.056 24L34.112 0L17.056 9.6L0 0L17.056 24Z" fill="white"/>
<path d="M56.5121 24H50.1121L53.3121 0H59.7121L56.5121 24Z" fill="white"/>
<circle cx="82" cy="15" r="2" fill="url(#paint0_radial_2548_7982)"/>
<path d="M92.74 14.4158L92.768 14.4L110 24L92.768 0L92.74 0.039378V14.4158Z" fill="#188C2B"/>
<circle cx="88.5" cy="6.5" r="2.5" fill="url(#paint1_radial_2548_7982)"/>
<circle cx="96.5" cy="5.5" r="1.5" fill="url(#paint2_radial_2548_7982)"/>
<circle cx="103.5" cy="14.5" r="2.5" fill="url(#paint3_radial_2548_7982)"/>
<circle cx="95" cy="16" r="3" fill="url(#paint4_radial_2548_7982)"/>
<defs>
<radialGradient id="paint0_radial_2548_7982" cx="0" cy="0" r="1" gradientUnits="userSpaceOnUse" gradientTransform="translate(82 15) rotate(90) scale(2)">
<stop stop-color="#FF6B00"/>
<stop offset="1" stop-color="#FF0000"/>
</radialGradient>
<radialGradient id="paint1_radial_2548_7982" cx="0" cy="0" r="1" gradientUnits="userSpaceOnUse" gradientTransform="translate(88.5 6.5) rotate(90) scale(2.5)">
<stop stop-color="#FF6B00"/>
<stop offset="1" stop-color="#FF0000"/>
</radialGradient>
<radialGradient id="paint2_radial_2548_7982" cx="0" cy="0" r="1" gradientUnits="userSpaceOnUse" gradientTransform="translate(96.5 5.5) rotate(90) scale(1.5)">
<stop stop-color="#FF6B00"/>
<stop offset="1" stop-color="#FF0000"/>
</radialGradient>
<radialGradient id="paint3_radial_2548_7982" cx="0" cy="0" r="1" gradientUnits="userSpaceOnUse" gradientTransform="translate(103.5 14.5) rotate(90) scale(2.5)">
<stop stop-color="#FF6B00"/>
<stop offset="1" stop-color="#FF0000"/>
</radialGradient>
<radialGradient id="paint4_radial_2548_7982" cx="0" cy="0" r="1" gradientUnits="userSpaceOnUse" gradientTransform="translate(95 16) rotate(90) scale(3)">
<stop stop-color="#FF6B00"/>
<stop offset="1" stop-color="#FF0000"/>
</radialGradient>
</defs>
</svg>
