<svg width="720" height="403" viewBox="0 0 720 403" fill="none" xmlns="http://www.w3.org/2000/svg">
<mask id="mask0_1745_7281" style="mask-type:alpha" maskUnits="userSpaceOnUse" x="0" y="0" width="720" height="403">
<path d="M0 0H720V403H0V0Z" fill="url(#paint0_linear_1745_7281)"/>
</mask>
<g mask="url(#mask0_1745_7281)">
<g filter="url(#filter0_b_1745_7281)">
<path d="M0 76.8C0 49.9175 0 36.4762 5.23169 26.2085C9.83361 17.1767 17.1767 9.83361 26.2085 5.23169C36.4762 0 49.9175 0 76.8 0H643.2C670.083 0 683.524 0 693.792 5.23169C702.823 9.83361 710.166 17.1767 714.768 26.2085C720 36.4762 720 49.9175 720 76.8V403.2C720 430.083 720 443.524 714.768 453.792C710.166 462.823 702.823 470.166 693.792 474.768C683.524 480 670.083 480 643.2 480H76.8C49.9175 480 36.4762 480 26.2085 474.768C17.1767 470.166 9.83361 462.823 5.23169 453.792C0 443.524 0 430.083 0 403.2V76.8Z" fill="url(#paint1_linear_1745_7281)"/>
</g>
<g filter="url(#filter1_d_1745_7281)">
<path d="M40 78.4C40 64.9587 40 58.2381 42.6158 53.1042C44.9168 48.5883 48.5883 44.9168 53.1042 42.6158C58.2381 40 64.9587 40 78.4 40H641.6C655.041 40 661.762 40 666.896 42.6158C671.412 44.9168 675.083 48.5883 677.384 53.1042C680 58.2381 680 64.9587 680 78.4V161.6C680 175.041 680 181.762 677.384 186.896C675.083 191.412 671.412 195.083 666.896 197.384C661.762 200 655.041 200 641.6 200H78.4C64.9588 200 58.2381 200 53.1042 197.384C48.5883 195.083 44.9168 191.412 42.6158 186.896C40 181.762 40 175.041 40 161.6V78.4Z" fill="url(#paint2_linear_1745_7281)" shape-rendering="crispEdges"/>
</g>
<g filter="url(#filter2_d_1745_7281)">
<path fill-rule="evenodd" clip-rule="evenodd" d="M641.6 41H78.4C71.6629 41 66.6702 41.0008 62.7183 41.3237C58.7781 41.6456 55.9607 42.2827 53.5582 43.5069C49.2305 45.7119 45.7119 49.2305 43.5069 53.5582C42.2827 55.9607 41.6456 58.7781 41.3237 62.7183C41.0008 66.6702 41 71.6629 41 78.4V161.6C41 168.337 41.0008 173.33 41.3237 177.282C41.6456 181.222 42.2827 184.039 43.5069 186.442C45.7119 190.77 49.2305 194.288 53.5582 196.493C55.9607 197.717 58.7781 198.354 62.7183 198.676C66.6702 198.999 71.6629 199 78.4 199H641.6C648.337 199 653.33 198.999 657.282 198.676C661.222 198.354 664.039 197.717 666.442 196.493C670.77 194.288 674.288 190.77 676.493 186.442C677.717 184.039 678.354 181.222 678.676 177.282C678.999 173.33 679 168.337 679 161.6V78.4C679 71.6629 678.999 66.6702 678.676 62.7183C678.354 58.7781 677.717 55.9607 676.493 53.5582C674.288 49.2305 670.77 45.7119 666.442 43.5069C664.039 42.2827 661.222 41.6456 657.282 41.3237C653.33 41.0008 648.337 41 641.6 41ZM42.6158 53.1042C40 58.2381 40 64.9587 40 78.4V161.6C40 175.041 40 181.762 42.6158 186.896C44.9168 191.412 48.5883 195.083 53.1042 197.384C58.2381 200 64.9588 200 78.4 200H641.6C655.041 200 661.762 200 666.896 197.384C671.412 195.083 675.083 191.412 677.384 186.896C680 181.762 680 175.041 680 161.6V78.4C680 64.9587 680 58.2381 677.384 53.1042C675.083 48.5883 671.412 44.9168 666.896 42.6158C661.762 40 655.041 40 641.6 40H78.4C64.9587 40 58.2381 40 53.1042 42.6158C48.5883 44.9168 44.9168 48.5883 42.6158 53.1042Z" fill="url(#paint3_linear_1745_7281)" shape-rendering="crispEdges"/>
</g>
<path d="M628 97.0002C627.869 97.0009 627.738 96.9757 627.616 96.926C627.494 96.8762 627.384 96.8029 627.29 96.7102L624.29 93.7102C624.102 93.5219 623.996 93.2665 623.996 93.0002C623.996 92.7339 624.102 92.4785 624.29 92.2902C624.478 92.1019 624.734 91.9961 625 91.9961C625.266 91.9961 625.522 92.1019 625.71 92.2902L628 94.5902L630.29 92.2902C630.478 92.1019 630.734 91.9961 631 91.9961C631.266 91.9961 631.522 92.1019 631.71 92.2902C631.898 92.4785 632.004 92.7339 632.004 93.0002C632.004 93.2665 631.898 93.5219 631.71 93.7102L628.71 96.7102C628.617 96.8029 628.506 96.8762 628.384 96.926C628.262 96.9757 628.132 97.0009 628 97.0002Z" fill="white" fill-opacity="0.4"/>
<path d="M93.8351 79.9094V109H89.4317V84.3129H89.2613L82.301 88.8583V84.6538L89.5595 79.9094H93.8351Z" fill="white"/>
<path d="M102.88 109.27C102.103 109.27 101.436 108.996 100.877 108.446C100.318 107.888 100.039 107.215 100.039 106.429C100.039 105.653 100.318 104.99 100.877 104.441C101.436 103.882 102.103 103.603 102.88 103.603C103.656 103.603 104.324 103.882 104.883 104.441C105.441 104.99 105.721 105.653 105.721 106.429C105.721 106.95 105.588 107.428 105.323 107.864C105.067 108.29 104.726 108.631 104.3 108.887C103.874 109.142 103.401 109.27 102.88 109.27Z" fill="white"/>
<path d="M120.426 109.483C118.182 109.474 116.264 108.882 114.673 107.708C113.082 106.534 111.865 104.824 111.023 102.58C110.18 100.336 109.758 97.632 109.758 94.4691C109.758 91.3157 110.18 88.6216 111.023 86.3867C111.875 84.1519 113.096 82.4473 114.687 81.2731C116.288 80.0988 118.201 79.5117 120.426 79.5117C122.651 79.5117 124.56 80.1036 126.15 81.2873C127.741 82.4615 128.958 84.1661 129.801 86.4009C130.653 88.6263 131.079 91.3157 131.079 94.4691C131.079 97.6415 130.658 100.35 129.815 102.594C128.972 104.829 127.756 106.538 126.165 107.722C124.574 108.896 122.661 109.483 120.426 109.483ZM120.426 105.691C122.396 105.691 123.935 104.73 125.043 102.807C126.16 100.885 126.719 98.1055 126.719 94.4691C126.719 92.0543 126.463 90.0136 125.952 88.3469C125.45 86.6708 124.725 85.4019 123.778 84.5401C122.841 83.6689 121.723 83.2333 120.426 83.2333C118.466 83.2333 116.927 84.1992 115.81 86.131C114.692 88.0629 114.129 90.8422 114.119 94.4691C114.119 96.8933 114.37 98.9435 114.872 100.62C115.383 102.286 116.108 103.551 117.045 104.412C117.983 105.265 119.11 105.691 120.426 105.691Z" fill="white"/>
<path d="M145.721 109.398C143.94 109.398 142.34 109.057 140.92 108.375C139.509 107.684 138.382 106.737 137.539 105.534C136.696 104.332 136.246 102.959 136.19 101.415H140.451C140.555 102.665 141.109 103.693 142.113 104.498C143.117 105.302 144.319 105.705 145.721 105.705C146.838 105.705 147.828 105.449 148.69 104.938C149.561 104.417 150.243 103.702 150.735 102.793C151.237 101.884 151.488 100.847 151.488 99.6822C151.488 98.4985 151.232 97.4426 150.721 96.5146C150.209 95.5865 149.504 94.8574 148.604 94.3271C147.714 93.7968 146.691 93.5269 145.536 93.5174C144.655 93.5174 143.77 93.6689 142.88 93.9719C141.99 94.275 141.27 94.6727 140.721 95.1651L136.701 94.5685L138.334 79.9094H154.329V83.6737H141.985L141.062 91.8129H141.232C141.8 91.2636 142.553 90.8043 143.491 90.435C144.438 90.0657 145.451 89.881 146.53 89.881C148.301 89.881 149.878 90.3024 151.261 91.1452C152.653 91.988 153.746 93.1386 154.542 94.5969C155.347 96.0458 155.744 97.7125 155.735 99.5969C155.744 101.481 155.318 103.162 154.457 104.64C153.604 106.117 152.421 107.282 150.905 108.134C149.4 108.977 147.672 109.398 145.721 109.398Z" fill="white"/>
<path d="M161.903 109L174.602 83.8867V83.6737H159.915V79.9094H179.148V83.8015L166.491 109H161.903Z" fill="white"/>
<path d="M195.124 79.9094V109H190.721V84.3129H190.55L183.59 88.8583V84.6538L190.849 79.9094H195.124Z" fill="white"/>
<path d="M202.993 109V105.819L212.837 95.6197C213.888 94.5117 214.755 93.5411 215.437 92.7077C216.128 91.8649 216.644 91.0648 216.985 90.3072C217.326 89.5496 217.496 88.7447 217.496 87.8924C217.496 86.9265 217.269 86.0932 216.815 85.3924C216.36 84.6822 215.74 84.1377 214.954 83.7589C214.168 83.3706 213.282 83.1765 212.297 83.1765C211.256 83.1765 210.347 83.3896 209.57 83.8157C208.794 84.2418 208.197 84.8432 207.78 85.6197C207.364 86.3962 207.155 87.3053 207.155 88.3469H202.965C202.965 86.5761 203.372 85.0278 204.187 83.7021C205.001 82.3763 206.118 81.3488 207.539 80.6197C208.959 79.881 210.574 79.5117 212.383 79.5117C214.21 79.5117 215.82 79.8763 217.212 80.6055C218.614 81.3252 219.708 82.31 220.493 83.56C221.279 84.8005 221.672 86.2021 221.672 87.7646C221.672 88.8441 221.469 89.9 221.062 90.9322C220.664 91.9644 219.968 93.1149 218.974 94.3839C217.979 95.6433 216.597 97.1727 214.826 98.9719L209.045 105.023V105.236H222.141V109H202.993Z" fill="white"/>
<path d="M531.196 109V79.9092H549.435V83.6876H535.585V92.5512H548.483V96.3154H535.585V105.222H549.605V109H531.196Z" fill="white"/>
<path d="M553.863 83.6876V79.9092H576.377V83.6876H567.3V109H562.925V83.6876H553.863Z" fill="white"/>
<path d="M581.352 109V79.9092H585.742V92.5512H600.244V79.9092H604.648V109H600.244V96.3154H585.742V109H581.352Z" fill="white"/>
<path d="M86.9544 155.181V133.363H88.3522V155.181H86.9544ZM91.659 139.909C91.5567 139.045 91.1419 138.375 90.4147 137.897C89.6874 137.42 88.7953 137.181 87.7385 137.181C86.9658 137.181 86.2897 137.306 85.7101 137.556C85.1363 137.806 84.6874 138.15 84.3635 138.588C84.0453 139.025 83.8863 139.522 83.8863 140.079C83.8863 140.545 83.997 140.946 84.2186 141.281C84.4459 141.61 84.7357 141.886 85.088 142.108C85.4402 142.324 85.8095 142.502 86.1959 142.645C86.5823 142.781 86.9374 142.892 87.2613 142.977L89.034 143.454C89.4885 143.574 89.9942 143.738 90.551 143.949C91.1135 144.159 91.6505 144.446 92.1618 144.809C92.6789 145.167 93.105 145.627 93.4402 146.19C93.7755 146.752 93.9431 147.443 93.9431 148.261C93.9431 149.204 93.6959 150.056 93.2016 150.818C92.713 151.579 91.997 152.184 91.0539 152.633C90.1164 153.082 88.9772 153.306 87.6363 153.306C86.3863 153.306 85.3039 153.105 84.3891 152.701C83.48 152.298 82.7641 151.735 82.2414 151.014C81.7243 150.292 81.4317 149.454 81.3635 148.5H83.5453C83.6022 149.159 83.8238 149.704 84.2101 150.136C84.6022 150.562 85.0965 150.88 85.6931 151.091C86.2953 151.295 86.9431 151.397 87.6363 151.397C88.4431 151.397 89.1675 151.267 89.8095 151.005C90.4516 150.738 90.9601 150.369 91.3351 149.897C91.7101 149.42 91.8976 148.863 91.8976 148.227C91.8976 147.647 91.7357 147.176 91.4118 146.812C91.088 146.449 90.6618 146.153 90.1334 145.926C89.605 145.699 89.034 145.5 88.4203 145.329L86.2726 144.716C84.909 144.324 83.8294 143.764 83.034 143.037C82.2385 142.309 81.8408 141.358 81.8408 140.181C81.8408 139.204 82.105 138.352 82.6334 137.625C83.1675 136.892 83.8834 136.324 84.7811 135.92C85.6845 135.511 86.6931 135.306 87.8067 135.306C88.9317 135.306 89.9317 135.508 90.8067 135.912C91.6817 136.309 92.3749 136.855 92.8863 137.548C93.4033 138.241 93.676 139.028 93.7044 139.909H91.659Z" fill="white" fill-opacity="0.64"/>
<path d="M103.248 135.545V153H101.134V137.761H101.032L96.7705 140.591V138.443L101.134 135.545H103.248Z" fill="white" fill-opacity="0.64"/>
<path d="M120.813 153.238C120.097 153.227 119.381 153.091 118.665 152.829C117.949 152.568 117.296 152.127 116.705 151.508C116.114 150.883 115.64 150.039 115.282 148.977C114.924 147.909 114.745 146.568 114.745 144.954C114.745 143.409 114.89 142.039 115.18 140.846C115.469 139.647 115.89 138.639 116.441 137.821C116.992 136.997 117.657 136.372 118.435 135.946C119.219 135.52 120.103 135.306 121.086 135.306C122.063 135.306 122.932 135.502 123.694 135.895C124.461 136.281 125.086 136.821 125.569 137.514C126.052 138.207 126.364 139.005 126.506 139.909H124.427C124.234 139.125 123.859 138.474 123.302 137.957C122.745 137.44 122.006 137.181 121.086 137.181C119.734 137.181 118.668 137.77 117.89 138.946C117.117 140.122 116.728 141.772 116.722 143.897H116.859C117.177 143.414 117.555 143.002 117.992 142.662C118.435 142.315 118.924 142.048 119.458 141.86C119.992 141.673 120.557 141.579 121.154 141.579C122.154 141.579 123.069 141.829 123.898 142.329C124.728 142.824 125.393 143.508 125.893 144.383C126.393 145.252 126.643 146.25 126.643 147.375C126.643 148.454 126.401 149.443 125.918 150.341C125.435 151.233 124.756 151.943 123.881 152.471C123.012 152.994 121.989 153.25 120.813 153.238ZM120.813 151.363C121.529 151.363 122.171 151.184 122.739 150.826C123.313 150.468 123.765 149.988 124.094 149.386C124.43 148.784 124.597 148.113 124.597 147.375C124.597 146.653 124.435 145.997 124.111 145.406C123.793 144.809 123.353 144.335 122.79 143.983C122.234 143.63 121.597 143.454 120.881 143.454C120.342 143.454 119.839 143.562 119.373 143.778C118.907 143.988 118.498 144.278 118.145 144.647C117.799 145.017 117.526 145.44 117.327 145.917C117.128 146.389 117.029 146.886 117.029 147.409C117.029 148.102 117.191 148.75 117.515 149.352C117.844 149.954 118.293 150.44 118.861 150.809C119.435 151.179 120.086 151.363 120.813 151.363Z" fill="white" fill-opacity="0.64"/>
<path d="M135.585 153.238C134.415 153.238 133.381 153.031 132.483 152.616C131.591 152.196 130.895 151.619 130.395 150.886C129.895 150.147 129.648 149.306 129.653 148.363C129.648 147.625 129.793 146.943 130.088 146.318C130.383 145.687 130.787 145.162 131.298 144.741C131.815 144.315 132.392 144.045 133.028 143.931V143.829C132.193 143.613 131.528 143.145 131.034 142.423C130.54 141.696 130.295 140.869 130.301 139.943C130.295 139.056 130.52 138.264 130.974 137.565C131.429 136.866 132.054 136.315 132.849 135.912C133.65 135.508 134.562 135.306 135.585 135.306C136.596 135.306 137.5 135.508 138.295 135.912C139.091 136.315 139.716 136.866 140.17 137.565C140.631 138.264 140.864 139.056 140.869 139.943C140.864 140.869 140.611 141.696 140.111 142.423C139.616 143.145 138.96 143.613 138.142 143.829V143.931C138.773 144.045 139.341 144.315 139.846 144.741C140.352 145.162 140.756 145.687 141.057 146.318C141.358 146.943 141.511 147.625 141.517 148.363C141.511 149.306 141.256 150.147 140.75 150.886C140.25 151.619 139.554 152.196 138.662 152.616C137.775 153.031 136.75 153.238 135.585 153.238ZM135.585 151.363C136.375 151.363 137.057 151.235 137.631 150.98C138.204 150.724 138.648 150.363 138.96 149.897C139.273 149.431 139.432 148.886 139.437 148.261C139.432 147.602 139.261 147.02 138.926 146.514C138.591 146.008 138.133 145.61 137.554 145.321C136.98 145.031 136.324 144.886 135.585 144.886C134.841 144.886 134.176 145.031 133.591 145.321C133.011 145.61 132.554 146.008 132.219 146.514C131.889 147.02 131.727 147.602 131.733 148.261C131.727 148.886 131.878 149.431 132.185 149.897C132.497 150.363 132.943 150.724 133.523 150.98C134.102 151.235 134.79 151.363 135.585 151.363ZM135.585 143.079C136.21 143.079 136.764 142.954 137.247 142.704C137.736 142.454 138.119 142.105 138.398 141.656C138.676 141.207 138.818 140.681 138.824 140.079C138.818 139.488 138.679 138.974 138.406 138.537C138.133 138.093 137.756 137.752 137.273 137.514C136.79 137.27 136.227 137.147 135.585 137.147C134.932 137.147 134.361 137.27 133.872 137.514C133.383 137.752 133.006 138.093 132.739 138.537C132.471 138.974 132.341 139.488 132.346 140.079C132.341 140.681 132.474 141.207 132.747 141.656C133.025 142.105 133.409 142.454 133.898 142.704C134.386 142.954 134.949 143.079 135.585 143.079Z" fill="white" fill-opacity="0.64"/>
<path d="M150.238 153.238C149.238 153.238 148.337 153.039 147.536 152.642C146.735 152.244 146.093 151.699 145.61 151.005C145.127 150.312 144.863 149.522 144.817 148.636H146.863C146.942 149.426 147.3 150.079 147.937 150.596C148.579 151.108 149.346 151.363 150.238 151.363C150.954 151.363 151.59 151.196 152.147 150.86C152.709 150.525 153.15 150.065 153.468 149.48C153.792 148.889 153.954 148.221 153.954 147.477C153.954 146.716 153.786 146.037 153.451 145.44C153.121 144.838 152.667 144.363 152.087 144.017C151.508 143.67 150.846 143.494 150.101 143.488C149.567 143.483 149.019 143.565 148.457 143.735C147.894 143.9 147.431 144.113 147.067 144.375L145.09 144.136L146.147 135.545H155.215V137.42H147.92L147.306 142.568H147.408C147.766 142.284 148.215 142.048 148.755 141.86C149.295 141.673 149.857 141.579 150.442 141.579C151.511 141.579 152.462 141.835 153.297 142.346C154.138 142.852 154.797 143.545 155.275 144.426C155.758 145.306 155.999 146.312 155.999 147.443C155.999 148.556 155.749 149.551 155.249 150.426C154.755 151.295 154.073 151.983 153.204 152.488C152.334 152.988 151.346 153.238 150.238 153.238Z" fill="white" fill-opacity="0.64"/>
<path d="M160.229 153.136C159.808 153.136 159.447 152.985 159.146 152.684C158.845 152.383 158.694 152.022 158.694 151.602C158.694 151.181 158.845 150.821 159.146 150.52C159.447 150.218 159.808 150.068 160.229 150.068C160.649 150.068 161.01 150.218 161.311 150.52C161.612 150.821 161.763 151.181 161.763 151.602C161.763 151.88 161.692 152.136 161.55 152.369C161.413 152.602 161.229 152.789 160.996 152.931C160.768 153.068 160.513 153.136 160.229 153.136Z" fill="white" fill-opacity="0.64"/>
<path d="M169.388 135.545V153H167.275V137.761H167.172L162.911 140.591V138.443L167.275 135.545H169.388Z" fill="white" fill-opacity="0.64"/>
<path d="M174.408 153V151.466L180.17 145.159C180.846 144.42 181.403 143.778 181.84 143.233C182.278 142.681 182.601 142.164 182.812 141.681C183.028 141.193 183.136 140.681 183.136 140.147C183.136 139.534 182.988 139.002 182.692 138.554C182.403 138.105 182.005 137.758 181.499 137.514C180.993 137.27 180.425 137.147 179.795 137.147C179.124 137.147 178.539 137.287 178.039 137.565C177.545 137.838 177.161 138.221 176.888 138.716C176.621 139.21 176.488 139.789 176.488 140.454H174.476C174.476 139.431 174.712 138.534 175.184 137.761C175.655 136.988 176.297 136.386 177.11 135.954C177.928 135.522 178.846 135.306 179.863 135.306C180.886 135.306 181.792 135.522 182.582 135.954C183.371 136.386 183.991 136.968 184.44 137.701C184.888 138.434 185.113 139.25 185.113 140.147C185.113 140.789 184.996 141.417 184.763 142.031C184.536 142.639 184.138 143.318 183.57 144.068C183.008 144.812 182.226 145.721 181.226 146.795L177.306 150.988V151.125H185.42V153H174.408Z" fill="white" fill-opacity="0.64"/>
<path d="M383.114 153V135.545H389.216C390.432 135.545 391.435 135.755 392.225 136.176C393.014 136.591 393.602 137.15 393.989 137.855C394.375 138.554 394.568 139.329 394.568 140.181C394.568 140.931 394.435 141.551 394.168 142.039C393.906 142.528 393.56 142.914 393.128 143.199C392.702 143.483 392.239 143.693 391.739 143.829V144C392.273 144.034 392.81 144.221 393.35 144.562C393.889 144.903 394.341 145.392 394.705 146.028C395.068 146.664 395.25 147.443 395.25 148.363C395.25 149.238 395.051 150.025 394.654 150.724C394.256 151.423 393.628 151.977 392.77 152.386C391.912 152.795 390.796 153 389.421 153H383.114ZM385.227 151.125H389.421C390.801 151.125 391.781 150.858 392.361 150.324C392.946 149.784 393.239 149.13 393.239 148.363C393.239 147.772 393.088 147.227 392.787 146.727C392.486 146.221 392.057 145.818 391.5 145.517C390.943 145.21 390.284 145.056 389.523 145.056H385.227V151.125ZM385.227 143.216H389.148C389.784 143.216 390.358 143.091 390.869 142.841C391.386 142.591 391.796 142.238 392.097 141.784C392.404 141.329 392.557 140.795 392.557 140.181C392.557 139.414 392.29 138.764 391.756 138.23C391.222 137.69 390.375 137.42 389.216 137.42H385.227V143.216Z" fill="white" fill-opacity="0.64"/>
<path d="M402.303 153.306C401.473 153.306 400.72 153.15 400.044 152.838C399.368 152.52 398.831 152.062 398.433 151.466C398.036 150.863 397.837 150.136 397.837 149.284C397.837 148.534 397.985 147.926 398.28 147.46C398.575 146.988 398.97 146.619 399.465 146.352C399.959 146.085 400.504 145.886 401.101 145.755C401.703 145.619 402.308 145.511 402.916 145.431C403.712 145.329 404.357 145.252 404.851 145.201C405.351 145.145 405.715 145.051 405.942 144.92C406.175 144.789 406.291 144.562 406.291 144.238V144.17C406.291 143.329 406.061 142.676 405.601 142.21C405.146 141.744 404.456 141.511 403.53 141.511C402.57 141.511 401.817 141.721 401.271 142.142C400.726 142.562 400.342 143.011 400.121 143.488L398.212 142.806C398.553 142.011 399.007 141.392 399.575 140.949C400.149 140.5 400.774 140.187 401.45 140.011C402.132 139.829 402.803 139.738 403.462 139.738C403.882 139.738 404.365 139.789 404.911 139.892C405.462 139.988 405.993 140.19 406.504 140.497C407.021 140.804 407.45 141.267 407.791 141.886C408.132 142.505 408.303 143.335 408.303 144.375V153H406.291V151.227H406.189C406.053 151.511 405.825 151.815 405.507 152.139C405.189 152.463 404.766 152.738 404.237 152.966C403.709 153.193 403.064 153.306 402.303 153.306ZM402.61 151.5C403.405 151.5 404.075 151.343 404.621 151.031C405.172 150.718 405.587 150.315 405.865 149.821C406.149 149.326 406.291 148.806 406.291 148.261V146.42C406.206 146.522 406.019 146.616 405.729 146.701C405.445 146.781 405.115 146.852 404.74 146.914C404.371 146.971 404.01 147.022 403.658 147.068C403.311 147.108 403.03 147.142 402.814 147.17C402.291 147.238 401.803 147.349 401.348 147.502C400.899 147.65 400.536 147.875 400.257 148.176C399.985 148.471 399.848 148.875 399.848 149.386C399.848 150.085 400.107 150.613 400.624 150.971C401.146 151.324 401.808 151.5 402.61 151.5Z" fill="white" fill-opacity="0.64"/>
<path d="M413.985 135.545V153H411.974V135.545H413.985Z" fill="white" fill-opacity="0.64"/>
<path d="M421.521 153.306C420.692 153.306 419.939 153.15 419.263 152.838C418.587 152.52 418.05 152.062 417.652 151.466C417.254 150.863 417.056 150.136 417.056 149.284C417.056 148.534 417.203 147.926 417.499 147.46C417.794 146.988 418.189 146.619 418.683 146.352C419.178 146.085 419.723 145.886 420.32 145.755C420.922 145.619 421.527 145.511 422.135 145.431C422.931 145.329 423.575 145.252 424.07 145.201C424.57 145.145 424.933 145.051 425.161 144.92C425.394 144.789 425.51 144.562 425.51 144.238V144.17C425.51 143.329 425.28 142.676 424.82 142.21C424.365 141.744 423.675 141.511 422.749 141.511C421.788 141.511 421.036 141.721 420.49 142.142C419.945 142.562 419.561 143.011 419.34 143.488L417.431 142.806C417.771 142.011 418.226 141.392 418.794 140.949C419.368 140.5 419.993 140.187 420.669 140.011C421.351 139.829 422.021 139.738 422.681 139.738C423.101 139.738 423.584 139.789 424.129 139.892C424.681 139.988 425.212 140.19 425.723 140.497C426.24 140.804 426.669 141.267 427.01 141.886C427.351 142.505 427.521 143.335 427.521 144.375V153H425.51V151.227H425.408C425.271 151.511 425.044 151.815 424.726 152.139C424.408 152.463 423.985 152.738 423.456 152.966C422.928 153.193 422.283 153.306 421.521 153.306ZM421.828 151.5C422.624 151.5 423.294 151.343 423.84 151.031C424.391 150.718 424.806 150.315 425.084 149.821C425.368 149.326 425.51 148.806 425.51 148.261V146.42C425.425 146.522 425.237 146.616 424.948 146.701C424.663 146.781 424.334 146.852 423.959 146.914C423.59 146.971 423.229 147.022 422.877 147.068C422.53 147.108 422.249 147.142 422.033 147.17C421.51 147.238 421.021 147.349 420.567 147.502C420.118 147.65 419.754 147.875 419.476 148.176C419.203 148.471 419.067 148.875 419.067 149.386C419.067 150.085 419.325 150.613 419.842 150.971C420.365 151.324 421.027 151.5 421.828 151.5Z" fill="white" fill-opacity="0.64"/>
<path d="M433.204 145.125V153H431.193V139.909H433.136V141.954H433.306C433.613 141.289 434.079 140.755 434.704 140.352C435.329 139.943 436.136 139.738 437.124 139.738C438.011 139.738 438.786 139.92 439.451 140.284C440.116 140.642 440.633 141.187 441.002 141.92C441.372 142.647 441.556 143.568 441.556 144.681V153H439.545V144.818C439.545 143.789 439.278 142.988 438.744 142.414C438.21 141.835 437.477 141.545 436.545 141.545C435.903 141.545 435.329 141.684 434.823 141.963C434.323 142.241 433.928 142.647 433.639 143.181C433.349 143.716 433.204 144.363 433.204 145.125Z" fill="white" fill-opacity="0.64"/>
<path d="M450.55 153.272C449.323 153.272 448.266 152.983 447.379 152.403C446.493 151.824 445.811 151.025 445.334 150.008C444.857 148.991 444.618 147.829 444.618 146.522C444.618 145.193 444.862 144.02 445.351 143.002C445.845 141.98 446.533 141.181 447.413 140.608C448.3 140.028 449.334 139.738 450.516 139.738C451.436 139.738 452.266 139.909 453.004 140.25C453.743 140.591 454.348 141.068 454.82 141.681C455.291 142.295 455.584 143.011 455.698 143.829H453.686C453.533 143.233 453.192 142.704 452.663 142.244C452.141 141.778 451.436 141.545 450.55 141.545C449.766 141.545 449.078 141.75 448.487 142.159C447.902 142.562 447.445 143.133 447.115 143.872C446.791 144.605 446.629 145.466 446.629 146.454C446.629 147.466 446.788 148.346 447.107 149.096C447.431 149.846 447.885 150.429 448.47 150.843C449.061 151.258 449.754 151.466 450.55 151.466C451.073 151.466 451.547 151.375 451.973 151.193C452.399 151.011 452.76 150.75 453.056 150.409C453.351 150.068 453.561 149.659 453.686 149.181H455.698C455.584 149.954 455.303 150.65 454.854 151.27C454.411 151.883 453.823 152.372 453.09 152.735C452.362 153.093 451.516 153.272 450.55 153.272Z" fill="white" fill-opacity="0.64"/>
<path d="M464.127 153.272C462.865 153.272 461.777 152.994 460.862 152.437C459.953 151.875 459.252 151.091 458.757 150.085C458.269 149.074 458.024 147.897 458.024 146.556C458.024 145.216 458.269 144.034 458.757 143.011C459.252 141.983 459.939 141.181 460.82 140.608C461.706 140.028 462.74 139.738 463.922 139.738C464.604 139.738 465.277 139.852 465.942 140.079C466.607 140.306 467.212 140.676 467.757 141.187C468.303 141.693 468.737 142.363 469.061 143.199C469.385 144.034 469.547 145.062 469.547 146.284V147.136H459.456V145.397H467.502C467.502 144.659 467.354 144 467.058 143.42C466.769 142.841 466.354 142.383 465.814 142.048C465.28 141.713 464.649 141.545 463.922 141.545C463.121 141.545 462.428 141.744 461.842 142.142C461.263 142.534 460.817 143.045 460.504 143.676C460.192 144.306 460.036 144.983 460.036 145.704V146.863C460.036 147.852 460.206 148.69 460.547 149.377C460.894 150.059 461.374 150.579 461.987 150.937C462.601 151.289 463.314 151.466 464.127 151.466C464.655 151.466 465.132 151.392 465.558 151.244C465.99 151.091 466.362 150.863 466.675 150.562C466.987 150.255 467.229 149.875 467.399 149.42L469.342 149.966C469.138 150.625 468.794 151.204 468.311 151.704C467.828 152.199 467.232 152.585 466.521 152.863C465.811 153.136 465.013 153.272 464.127 153.272Z" fill="white" fill-opacity="0.64"/>
<path d="M474.073 153.136C473.652 153.136 473.291 152.985 472.99 152.684C472.689 152.383 472.538 152.022 472.538 151.602C472.538 151.181 472.689 150.821 472.99 150.52C473.291 150.218 473.652 150.068 474.073 150.068C474.493 150.068 474.854 150.218 475.155 150.52C475.456 150.821 475.607 151.181 475.607 151.602C475.607 151.88 475.536 152.136 475.394 152.369C475.257 152.602 475.073 152.789 474.84 152.931C474.612 153.068 474.357 153.136 474.073 153.136ZM474.073 143.42C473.652 143.42 473.291 143.27 472.99 142.968C472.689 142.667 472.538 142.306 472.538 141.886C472.538 141.466 472.689 141.105 472.99 140.804C473.291 140.502 473.652 140.352 474.073 140.352C474.493 140.352 474.854 140.502 475.155 140.804C475.456 141.105 475.607 141.466 475.607 141.886C475.607 142.164 475.536 142.42 475.394 142.653C475.257 142.886 475.073 143.074 474.84 143.216C474.612 143.352 474.357 143.42 474.073 143.42Z" fill="white" fill-opacity="0.64"/>
<path d="M485.932 153V151.466L491.693 145.159C492.369 144.42 492.926 143.778 493.364 143.233C493.801 142.681 494.125 142.164 494.335 141.681C494.551 141.193 494.659 140.681 494.659 140.147C494.659 139.534 494.511 139.002 494.216 138.554C493.926 138.105 493.529 137.758 493.023 137.514C492.517 137.27 491.949 137.147 491.318 137.147C490.648 137.147 490.063 137.287 489.563 137.565C489.068 137.838 488.685 138.221 488.412 138.716C488.145 139.21 488.011 139.789 488.011 140.454H486C486 139.431 486.236 138.534 486.708 137.761C487.179 136.988 487.821 136.386 488.634 135.954C489.452 135.522 490.369 135.306 491.386 135.306C492.409 135.306 493.315 135.522 494.105 135.954C494.895 136.386 495.514 136.968 495.963 137.701C496.412 138.434 496.636 139.25 496.636 140.147C496.636 140.789 496.52 141.417 496.287 142.031C496.06 142.639 495.662 143.318 495.094 144.068C494.531 144.812 493.75 145.721 492.75 146.795L488.83 150.988V151.125H496.943V153H485.932Z" fill="white" fill-opacity="0.64"/>
<path d="M501.963 153.136C501.543 153.136 501.182 152.985 500.881 152.684C500.58 152.383 500.429 152.022 500.429 151.602C500.429 151.181 500.58 150.821 500.881 150.52C501.182 150.218 501.543 150.068 501.963 150.068C502.384 150.068 502.744 150.218 503.046 150.52C503.347 150.821 503.497 151.181 503.497 151.602C503.497 151.88 503.426 152.136 503.284 152.369C503.148 152.602 502.963 152.789 502.73 152.931C502.503 153.068 502.247 153.136 501.963 153.136Z" fill="white" fill-opacity="0.64"/>
<path d="M512.465 135.306C513.181 135.312 513.897 135.449 514.613 135.716C515.329 135.983 515.982 136.426 516.573 137.045C517.164 137.659 517.639 138.497 517.997 139.559C518.355 140.622 518.534 141.954 518.534 143.556C518.534 145.108 518.386 146.485 518.09 147.69C517.801 148.889 517.38 149.9 516.829 150.724C516.284 151.548 515.619 152.173 514.835 152.599C514.056 153.025 513.176 153.238 512.193 153.238C511.215 153.238 510.343 153.045 509.576 152.659C508.815 152.267 508.19 151.724 507.701 151.031C507.218 150.332 506.909 149.522 506.772 148.602H508.852C509.039 149.403 509.411 150.065 509.968 150.588C510.531 151.105 511.272 151.363 512.193 151.363C513.539 151.363 514.602 150.775 515.38 149.599C516.164 148.423 516.556 146.761 516.556 144.613H516.42C516.102 145.091 515.724 145.502 515.286 145.849C514.849 146.196 514.363 146.463 513.829 146.65C513.295 146.838 512.727 146.931 512.124 146.931C511.124 146.931 510.207 146.684 509.372 146.19C508.542 145.69 507.877 145.005 507.377 144.136C506.883 143.261 506.636 142.261 506.636 141.136C506.636 140.068 506.874 139.091 507.352 138.204C507.835 137.312 508.511 136.602 509.38 136.074C510.255 135.545 511.284 135.289 512.465 135.306ZM512.465 137.181C511.749 137.181 511.105 137.36 510.531 137.718C509.962 138.071 509.511 138.548 509.176 139.15C508.846 139.747 508.681 140.409 508.681 141.136C508.681 141.863 508.84 142.525 509.159 143.122C509.482 143.713 509.923 144.184 510.48 144.537C511.042 144.883 511.681 145.056 512.397 145.056C512.937 145.056 513.44 144.951 513.906 144.741C514.372 144.525 514.778 144.233 515.124 143.863C515.477 143.488 515.752 143.065 515.951 142.593C516.15 142.116 516.249 141.619 516.249 141.102C516.249 140.42 516.085 139.781 515.755 139.184C515.431 138.588 514.982 138.105 514.409 137.735C513.84 137.366 513.193 137.181 512.465 137.181Z" fill="white" fill-opacity="0.64"/>
<path d="M527.578 153.238C526.294 153.238 525.2 152.889 524.297 152.19C523.394 151.485 522.703 150.466 522.226 149.13C521.749 147.789 521.51 146.17 521.51 144.272C521.51 142.386 521.749 140.775 522.226 139.44C522.709 138.099 523.402 137.076 524.306 136.372C525.215 135.662 526.306 135.306 527.578 135.306C528.851 135.306 529.939 135.662 530.842 136.372C531.752 137.076 532.445 138.099 532.922 139.44C533.405 140.775 533.646 142.386 533.646 144.272C533.646 146.17 533.408 147.789 532.931 149.13C532.453 150.466 531.763 151.485 530.86 152.19C529.956 152.889 528.862 153.238 527.578 153.238ZM527.578 151.363C528.851 151.363 529.84 150.75 530.544 149.522C531.249 148.295 531.601 146.545 531.601 144.272C531.601 142.761 531.439 141.474 531.115 140.412C530.797 139.349 530.337 138.539 529.735 137.983C529.138 137.426 528.419 137.147 527.578 137.147C526.317 137.147 525.331 137.77 524.621 139.014C523.911 140.252 523.556 142.005 523.556 144.272C523.556 145.784 523.715 147.068 524.033 148.125C524.351 149.181 524.808 149.985 525.405 150.537C526.007 151.088 526.732 151.363 527.578 151.363Z" fill="white" fill-opacity="0.64"/>
<path d="M536.885 153V151.466L542.646 145.159C543.323 144.42 543.879 143.778 544.317 143.233C544.754 142.681 545.078 142.164 545.288 141.681C545.504 141.193 545.612 140.681 545.612 140.147C545.612 139.534 545.465 139.002 545.169 138.554C544.879 138.105 544.482 137.758 543.976 137.514C543.47 137.27 542.902 137.147 542.271 137.147C541.601 137.147 541.016 137.287 540.516 137.565C540.021 137.838 539.638 138.221 539.365 138.716C539.098 139.21 538.965 139.789 538.965 140.454H536.953C536.953 139.431 537.189 138.534 537.661 137.761C538.132 136.988 538.774 136.386 539.587 135.954C540.405 135.522 541.323 135.306 542.34 135.306C543.362 135.306 544.269 135.522 545.058 135.954C545.848 136.386 546.467 136.968 546.916 137.701C547.365 138.434 547.59 139.25 547.59 140.147C547.59 140.789 547.473 141.417 547.24 142.031C547.013 142.639 546.615 143.318 546.047 144.068C545.485 144.812 544.703 145.721 543.703 146.795L539.783 150.988V151.125H547.896V153H536.885Z" fill="white" fill-opacity="0.64"/>
<path d="M557.553 135.545V153H555.439V137.761H555.337L551.075 140.591V138.443L555.439 135.545H557.553Z" fill="white" fill-opacity="0.64"/>
<path d="M562.573 153V151.466L568.334 145.159C569.01 144.42 569.567 143.778 570.004 143.233C570.442 142.681 570.766 142.164 570.976 141.681C571.192 141.193 571.3 140.681 571.3 140.147C571.3 139.534 571.152 139.002 570.857 138.554C570.567 138.105 570.169 137.758 569.663 137.514C569.158 137.27 568.59 137.147 567.959 137.147C567.288 137.147 566.703 137.287 566.203 137.565C565.709 137.838 565.325 138.221 565.053 138.716C564.786 139.21 564.652 139.789 564.652 140.454H562.641C562.641 139.431 562.877 138.534 563.348 137.761C563.82 136.988 564.462 136.386 565.274 135.954C566.092 135.522 567.01 135.306 568.027 135.306C569.05 135.306 569.956 135.522 570.746 135.954C571.536 136.386 572.155 136.968 572.604 137.701C573.053 138.434 573.277 139.25 573.277 140.147C573.277 140.789 573.161 141.417 572.928 142.031C572.7 142.639 572.303 143.318 571.735 144.068C571.172 144.812 570.391 145.721 569.391 146.795L565.47 150.988V151.125H573.584V153H562.573Z" fill="white" fill-opacity="0.64"/>
<path d="M594.114 135.546H596.636L602.568 150.035H602.773L608.705 135.546H611.227V153H609.25V139.739H609.08L603.625 153H601.716L596.261 139.739H596.091V153H594.114V135.546Z" fill="#00FF60" fill-opacity="0.32"/>
<path d="M619.045 153.307C618.215 153.307 617.462 153.151 616.786 152.839C616.11 152.52 615.573 152.063 615.176 151.466C614.778 150.864 614.579 150.137 614.579 149.285C614.579 148.535 614.727 147.927 615.022 147.461C615.318 146.989 615.712 146.62 616.207 146.353C616.701 146.086 617.247 145.887 617.843 145.756C618.445 145.62 619.051 145.512 619.659 145.432C620.454 145.33 621.099 145.253 621.593 145.202C622.093 145.145 622.457 145.052 622.684 144.921C622.917 144.79 623.034 144.563 623.034 144.239V144.171C623.034 143.33 622.803 142.677 622.343 142.211C621.889 141.745 621.198 141.512 620.272 141.512C619.312 141.512 618.559 141.722 618.014 142.142C617.468 142.563 617.085 143.012 616.863 143.489L614.954 142.807C615.295 142.012 615.749 141.392 616.318 140.949C616.891 140.5 617.516 140.188 618.193 140.012C618.874 139.83 619.545 139.739 620.204 139.739C620.624 139.739 621.107 139.79 621.653 139.892C622.204 139.989 622.735 140.191 623.247 140.498C623.764 140.804 624.193 141.267 624.534 141.887C624.874 142.506 625.045 143.336 625.045 144.375V153H623.034V151.228H622.931C622.795 151.512 622.568 151.816 622.249 152.14C621.931 152.464 621.508 152.739 620.98 152.966C620.451 153.194 619.806 153.307 619.045 153.307ZM619.352 151.5C620.147 151.5 620.818 151.344 621.363 151.032C621.914 150.719 622.329 150.316 622.607 149.821C622.891 149.327 623.034 148.807 623.034 148.262V146.421C622.948 146.523 622.761 146.617 622.471 146.702C622.187 146.782 621.857 146.853 621.482 146.915C621.113 146.972 620.752 147.023 620.4 147.069C620.053 147.108 619.772 147.142 619.556 147.171C619.034 147.239 618.545 147.35 618.09 147.503C617.641 147.651 617.278 147.875 616.999 148.177C616.727 148.472 616.59 148.875 616.59 149.387C616.59 150.086 616.849 150.614 617.366 150.972C617.889 151.324 618.551 151.5 619.352 151.5Z" fill="#00FF60" fill-opacity="0.32"/>
<path d="M630.216 139.91L633.352 145.262L636.489 139.91H638.807L634.58 146.455L638.807 153H636.489L633.352 147.921L630.216 153H627.898L632.057 146.455L627.898 139.91H630.216Z" fill="#00FF60" fill-opacity="0.32"/>
<path d="M512 94C512 107.255 501.255 118 488 118C474.745 118 464 107.255 464 94C464 80.7452 474.745 70 488 70C501.255 70 512 80.7452 512 94Z" fill="#6179EE"/>
<path d="M487.935 79.5996L487.744 80.2481V99.0648L487.935 99.2553L496.669 94.0923L487.935 79.5996Z" fill="#BFCAF8"/>
<path d="M487.934 79.5996L479.2 94.0923L487.934 99.2553V90.1222V79.5996Z" fill="white"/>
<path d="M487.933 100.909L487.825 101.04V107.743L487.933 108.057L496.672 95.749L487.933 100.909Z" fill="#C0CAF9"/>
<path d="M487.934 108.057V100.909L479.2 95.749L487.934 108.057Z" fill="white"/>
<path d="M487.934 99.2552L496.668 94.0922L487.934 90.1221V99.2552Z" fill="#7F93EE"/>
<path d="M479.2 94.0922L487.934 99.2552V90.1221L479.2 94.0922Z" fill="#BFCAF9"/>
<rect x="494" y="64" width="24" height="24" rx="6" fill="#F0B90B"/>
<rect x="494.5" y="64.5" width="23" height="23" rx="5.5" stroke="black" stroke-opacity="0.4"/>
<g clip-path="url(#clip0_1745_7281)">
<path fill-rule="evenodd" clip-rule="evenodd" d="M506 66.25L500.474 69.3134L502.506 70.445L506 68.5136L509.494 70.445L511.526 69.3134L506 66.25ZM509.494 72.0452L511.526 73.176V75.4416L508.032 77.3719V81.2345L506 82.3661L503.968 81.2345V77.3719L500.474 75.4416V73.176L502.506 72.0452L506 73.9767L509.494 72.0452ZM511.526 77.0401V79.3036L509.494 80.4353V78.172L511.526 77.0401ZM509.474 82.0352L512.969 80.1037V76.2403L515 75.1086V81.2345L509.474 84.2988V82.0352ZM512.969 72.3768L510.937 71.2451L512.969 70.1135L515 71.2451V73.5087L512.969 74.6403V72.3768ZM503.968 85.1184V82.8548L506 83.9876L508.032 82.856V85.1195L506 86.2511L503.968 85.1184ZM502.506 80.4353L500.474 79.3036V77.0401L502.506 78.172V80.4353ZM506 72.3768L503.968 71.2451L506 70.1135L508.031 71.2451L506 72.3768ZM501.063 71.2451L499.032 72.3768V74.6403L497 73.5087V71.2451L499.032 70.1135L501.063 71.2451ZM497 75.1086L499.032 76.2403V80.1037L502.526 82.0352V84.2988L497 81.2345V75.1086Z" fill="white"/>
</g>
<g filter="url(#filter3_d_1745_7281)">
<path d="M40 254.4C40 240.959 40 234.238 42.6158 229.104C44.9168 224.588 48.5883 220.917 53.1042 218.616C58.2381 216 64.9587 216 78.4 216H641.6C655.041 216 661.762 216 666.896 218.616C671.412 220.917 675.083 224.588 677.384 229.104C680 234.238 680 240.959 680 254.4V401.6C680 415.041 680 421.762 677.384 426.896C675.083 431.412 671.412 435.083 666.896 437.384C661.762 440 655.041 440 641.6 440H78.4C64.9588 440 58.2381 440 53.1042 437.384C48.5883 435.083 44.9168 431.412 42.6158 426.896C40 421.762 40 415.041 40 401.6V254.4Z" fill="url(#paint4_linear_1745_7281)" shape-rendering="crispEdges"/>
</g>
<g filter="url(#filter4_d_1745_7281)">
<path fill-rule="evenodd" clip-rule="evenodd" d="M641.6 217H78.4C71.6629 217 66.6702 217.001 62.7183 217.324C58.7781 217.646 55.9607 218.283 53.5582 219.507C49.2305 221.712 45.7119 225.23 43.5069 229.558C42.2827 231.961 41.6456 234.778 41.3237 238.718C41.0008 242.67 41 247.663 41 254.4V401.6C41 408.337 41.0008 413.33 41.3237 417.282C41.6456 421.222 42.2827 424.039 43.5069 426.442C45.7119 430.77 49.2305 434.288 53.5582 436.493C55.9607 437.717 58.7781 438.354 62.7183 438.676C66.6702 438.999 71.6629 439 78.4 439H641.6C648.337 439 653.33 438.999 657.282 438.676C661.222 438.354 664.039 437.717 666.442 436.493C670.77 434.288 674.288 430.77 676.493 426.442C677.717 424.039 678.354 421.222 678.676 417.282C678.999 413.33 679 408.337 679 401.6V254.4C679 247.663 678.999 242.67 678.676 238.718C678.354 234.778 677.717 231.961 676.493 229.558C674.288 225.23 670.77 221.712 666.442 219.507C664.039 218.283 661.222 217.646 657.282 217.324C653.33 217.001 648.337 217 641.6 217ZM42.6158 229.104C40 234.238 40 240.959 40 254.4V401.6C40 415.041 40 421.762 42.6158 426.896C44.9168 431.412 48.5883 435.083 53.1042 437.384C58.2381 440 64.9588 440 78.4 440H641.6C655.041 440 661.762 440 666.896 437.384C671.412 435.083 675.083 431.412 677.384 426.896C680 421.762 680 415.041 680 401.6V254.4C680 240.959 680 234.238 677.384 229.104C675.083 224.588 671.412 220.917 666.896 218.616C661.762 216 655.041 216 641.6 216H78.4C64.9587 216 58.2381 216 53.1042 218.616C48.5883 220.917 44.9168 224.588 42.6158 229.104Z" fill="url(#paint5_linear_1745_7281)" shape-rendering="crispEdges"/>
</g>
<path d="M68 380C68 368.686 68 363.029 71.5147 359.515C75.0294 356 80.6863 356 92 356H302C313.314 356 318.971 356 322.485 359.515C326 363.029 326 368.686 326 380V388C326 399.314 326 404.971 322.485 408.485C318.971 412 313.314 412 302 412H92C80.6863 412 75.0294 412 71.5147 408.485C68 404.971 68 399.314 68 388V380Z" fill="white" fill-opacity="0.04"/>
<path d="M127.943 375.546V393H125.829V377.762H125.727L121.466 380.591V378.444L125.829 375.546H127.943Z" fill="white" fill-opacity="0.32"/>
<path d="M235.943 375.545V393H233.829V377.761H233.727L229.466 380.591V378.443L233.829 375.545H235.943Z" fill="white" fill-opacity="0.32"/>
<path d="M253.168 393.238C252.168 393.238 251.267 393.04 250.466 392.642C249.665 392.244 249.023 391.699 248.54 391.006C248.057 390.312 247.793 389.523 247.747 388.636H249.793C249.872 389.426 250.23 390.079 250.866 390.596C251.508 391.108 252.275 391.363 253.168 391.363C253.883 391.363 254.52 391.196 255.077 390.861C255.639 390.525 256.079 390.065 256.398 389.48C256.722 388.889 256.883 388.221 256.883 387.477C256.883 386.716 256.716 386.037 256.381 385.44C256.051 384.838 255.597 384.363 255.017 384.017C254.437 383.67 253.775 383.494 253.031 383.488C252.497 383.483 251.949 383.565 251.386 383.736C250.824 383.9 250.361 384.113 249.997 384.375L248.02 384.136L249.077 375.545H258.145V377.42H250.849L250.236 382.568H250.338C250.696 382.284 251.145 382.048 251.685 381.861C252.224 381.673 252.787 381.579 253.372 381.579C254.44 381.579 255.392 381.835 256.227 382.346C257.068 382.852 257.727 383.545 258.204 384.426C258.687 385.307 258.929 386.312 258.929 387.443C258.929 388.557 258.679 389.551 258.179 390.426C257.685 391.295 257.003 391.983 256.133 392.488C255.264 392.988 254.275 393.238 253.168 393.238Z" fill="white" fill-opacity="0.32"/>
<path d="M267.905 393.238C266.735 393.238 265.701 393.031 264.803 392.616C263.911 392.196 263.215 391.619 262.715 390.886C262.215 390.148 261.968 389.307 261.974 388.363C261.968 387.625 262.113 386.943 262.408 386.318C262.704 385.687 263.107 385.162 263.619 384.741C264.136 384.315 264.712 384.045 265.349 383.932V383.829C264.513 383.613 263.849 383.145 263.354 382.423C262.86 381.696 262.616 380.869 262.621 379.943C262.616 379.057 262.84 378.264 263.295 377.565C263.749 376.866 264.374 376.315 265.17 375.912C265.971 375.508 266.883 375.307 267.905 375.307C268.917 375.307 269.82 375.508 270.616 375.912C271.411 376.315 272.036 376.866 272.491 377.565C272.951 378.264 273.184 379.057 273.19 379.943C273.184 380.869 272.931 381.696 272.431 382.423C271.937 383.145 271.28 383.613 270.462 383.829V383.932C271.093 384.045 271.661 384.315 272.167 384.741C272.672 385.162 273.076 385.687 273.377 386.318C273.678 386.943 273.832 387.625 273.837 388.363C273.832 389.307 273.576 390.148 273.07 390.886C272.57 391.619 271.874 392.196 270.982 392.616C270.096 393.031 269.07 393.238 267.905 393.238ZM267.905 391.363C268.695 391.363 269.377 391.236 269.951 390.98C270.525 390.724 270.968 390.363 271.28 389.898C271.593 389.432 271.752 388.886 271.758 388.261C271.752 387.602 271.582 387.02 271.246 386.514C270.911 386.008 270.454 385.611 269.874 385.321C269.3 385.031 268.644 384.886 267.905 384.886C267.161 384.886 266.496 385.031 265.911 385.321C265.332 385.611 264.874 386.008 264.539 386.514C264.209 387.02 264.047 387.602 264.053 388.261C264.047 388.886 264.198 389.432 264.505 389.898C264.817 390.363 265.263 390.724 265.843 390.98C266.422 391.236 267.11 391.363 267.905 391.363ZM267.905 383.079C268.53 383.079 269.084 382.954 269.567 382.704C270.056 382.454 270.44 382.105 270.718 381.656C270.996 381.207 271.138 380.682 271.144 380.079C271.138 379.488 270.999 378.974 270.726 378.537C270.454 378.094 270.076 377.753 269.593 377.514C269.11 377.27 268.547 377.148 267.905 377.148C267.252 377.148 266.681 377.27 266.192 377.514C265.704 377.753 265.326 378.094 265.059 378.537C264.792 378.974 264.661 379.488 264.667 380.079C264.661 380.682 264.795 381.207 265.067 381.656C265.346 382.105 265.729 382.454 266.218 382.704C266.707 382.954 267.269 383.079 267.905 383.079Z" fill="white" fill-opacity="0.32"/>
<path d="M282.558 393.238C281.558 393.238 280.658 393.04 279.856 392.642C279.055 392.244 278.413 391.699 277.93 391.006C277.447 390.312 277.183 389.523 277.138 388.636H279.183C279.263 389.426 279.621 390.079 280.257 390.596C280.899 391.108 281.666 391.363 282.558 391.363C283.274 391.363 283.91 391.196 284.467 390.861C285.03 390.525 285.47 390.065 285.788 389.48C286.112 388.889 286.274 388.221 286.274 387.477C286.274 386.716 286.106 386.037 285.771 385.44C285.442 384.838 284.987 384.363 284.408 384.017C283.828 383.67 283.166 383.494 282.422 383.488C281.888 383.483 281.339 383.565 280.777 383.736C280.214 383.9 279.751 384.113 279.388 384.375L277.41 384.136L278.467 375.545H287.535V377.42H280.24L279.626 382.568H279.729C280.087 382.284 280.535 382.048 281.075 381.861C281.615 381.673 282.177 381.579 282.763 381.579C283.831 381.579 284.783 381.835 285.618 382.346C286.459 382.852 287.118 383.545 287.595 384.426C288.078 385.307 288.32 386.312 288.32 387.443C288.32 388.557 288.07 389.551 287.57 390.426C287.075 391.295 286.393 391.983 285.524 392.488C284.655 392.988 283.666 393.238 282.558 393.238Z" fill="white" fill-opacity="0.32"/>
<path d="M292.549 393.136C292.128 393.136 291.768 392.986 291.467 392.684C291.165 392.383 291.015 392.023 291.015 391.602C291.015 391.182 291.165 390.821 291.467 390.52C291.768 390.219 292.128 390.068 292.549 390.068C292.969 390.068 293.33 390.219 293.631 390.52C293.932 390.821 294.083 391.182 294.083 391.602C294.083 391.881 294.012 392.136 293.87 392.369C293.734 392.602 293.549 392.79 293.316 392.932C293.089 393.068 292.833 393.136 292.549 393.136Z" fill="white" fill-opacity="0.32"/>
<path d="M302.9 393.238C301.775 393.238 300.772 393.045 299.891 392.659C299.016 392.273 298.32 391.736 297.803 391.048C297.292 390.355 297.013 389.551 296.968 388.636H299.116C299.161 389.199 299.354 389.684 299.695 390.094C300.036 390.497 300.482 390.809 301.033 391.031C301.584 391.253 302.195 391.363 302.866 391.363C303.616 391.363 304.28 391.233 304.86 390.971C305.44 390.71 305.894 390.346 306.224 389.881C306.553 389.415 306.718 388.875 306.718 388.261C306.718 387.619 306.559 387.054 306.241 386.565C305.922 386.071 305.457 385.684 304.843 385.406C304.229 385.128 303.479 384.988 302.593 384.988H301.195V383.113H302.593C303.286 383.113 303.894 382.988 304.417 382.738C304.945 382.488 305.357 382.136 305.653 381.682C305.954 381.227 306.104 380.693 306.104 380.079C306.104 379.488 305.974 378.974 305.712 378.537C305.451 378.099 305.082 377.758 304.604 377.514C304.133 377.27 303.576 377.148 302.934 377.148C302.332 377.148 301.763 377.258 301.229 377.48C300.701 377.696 300.269 378.011 299.934 378.426C299.599 378.835 299.417 379.329 299.388 379.909H297.343C297.377 378.994 297.653 378.193 298.17 377.506C298.687 376.812 299.363 376.273 300.198 375.886C301.039 375.5 301.962 375.307 302.968 375.307C304.047 375.307 304.974 375.525 305.746 375.963C306.519 376.395 307.113 376.966 307.528 377.676C307.942 378.386 308.15 379.153 308.15 379.977C308.15 380.96 307.891 381.798 307.374 382.491C306.863 383.184 306.167 383.665 305.286 383.932V384.068C306.388 384.25 307.249 384.719 307.869 385.474C308.488 386.224 308.797 387.153 308.797 388.261C308.797 389.21 308.539 390.062 308.022 390.818C307.511 391.568 306.812 392.159 305.925 392.591C305.039 393.023 304.03 393.238 302.9 393.238Z" fill="white" fill-opacity="0.32"/>
<path d="M150.336 381.536V379.456H165.504V381.536H150.336ZM150.336 388.256V386.176H165.504V388.256H150.336Z" fill="white" fill-opacity="0.32"/>
<path d="M215.518 387.87C213.381 396.442 204.699 401.658 196.127 399.521C187.558 397.384 182.341 388.702 184.479 380.131C186.615 371.559 195.297 366.342 203.867 368.479C212.438 370.616 217.655 379.299 215.517 387.871L215.518 387.87H215.518Z" fill="#50AF95"/>
<path fill-rule="evenodd" clip-rule="evenodd" d="M202.025 385.814V385.814C201.912 385.822 201.328 385.857 200.024 385.857C198.987 385.857 198.251 385.826 197.992 385.814V385.814C193.984 385.638 190.993 384.94 190.993 384.105C190.993 383.269 193.984 382.573 197.992 382.393V385.119C198.254 385.138 199.005 385.182 200.042 385.182C201.286 385.182 201.909 385.13 202.022 385.12V382.395C206.021 382.573 209.006 383.271 209.006 384.105C209.006 384.938 206.022 385.636 202.022 385.813V385.813L202.025 385.814ZM202.026 382.113V379.674H207.608V375.955H192.412V379.674H197.992V382.112C193.456 382.321 190.045 383.219 190.045 384.296C190.045 385.373 193.456 386.27 197.992 386.479V394.295H202.025V386.477C206.551 386.268 209.956 385.371 209.956 384.295C209.956 383.219 206.554 382.322 202.025 382.112V382.112L202.026 382.113Z" fill="white"/>
<path d="M112 384C112 392.837 104.837 400 96 400C87.1634 400 80 392.837 80 384C80 375.163 87.1634 368 96 368C104.837 368 112 375.163 112 384Z" fill="#6179EE"/>
<path d="M95.9564 374.399L95.8291 374.832V387.376L95.9564 387.503L101.779 384.061L95.9564 374.399Z" fill="#BFCAF8"/>
<path d="M95.9563 374.399L90.1333 384.061L95.9563 387.503V381.414V374.399Z" fill="white"/>
<path d="M95.955 388.606L95.8833 388.694V393.162L95.955 393.372L101.781 385.166L95.955 388.606Z" fill="#C0CAF9"/>
<path d="M95.9563 393.372V388.606L90.1333 385.166L95.9563 393.372Z" fill="white"/>
<path d="M95.9556 387.503L101.778 384.061L95.9556 381.414V387.503Z" fill="#7F93EE"/>
<path d="M90.1333 384.061L95.9563 387.503V381.414L90.1333 384.061Z" fill="#BFCAF9"/>
<path d="M366 380C366 368.686 366 363.029 369.515 359.515C373.029 356 378.686 356 390 356H628C639.314 356 644.971 356 648.485 359.515C652 363.029 652 368.686 652 380V388C652 399.314 652 404.971 648.485 408.485C644.971 412 639.314 412 628 412H390C378.686 412 373.029 412 369.515 408.485C366 404.971 366 399.314 366 388V380Z" fill="white" fill-opacity="0.04"/>
<g opacity="0.4">
<path fill-rule="evenodd" clip-rule="evenodd" d="M583 376.601C583.773 376.601 584.4 377.227 584.4 378.001V382.344C584.4 383.033 584.674 383.695 585.161 384.182L587.99 387.011C588.537 387.557 588.537 388.444 587.99 388.991C587.443 389.537 586.557 389.537 586.01 388.991L583.181 386.162C582.169 385.149 581.6 383.776 581.6 382.344V378.001C581.6 377.227 582.227 376.601 583 376.601Z" fill="white"/>
<path fill-rule="evenodd" clip-rule="evenodd" d="M595.8 384C595.8 391.069 590.069 396.8 583 396.8C575.931 396.8 570.2 391.069 570.2 384C570.2 376.931 575.931 371.2 583 371.2C590.069 371.2 595.8 376.931 595.8 384ZM583 394C588.523 394 593 389.523 593 384C593 378.477 588.523 374 583 374C577.477 374 573 378.477 573 384C573 389.523 577.477 394 583 394Z" fill="white"/>
</g>
<path d="M378 384C378 375.163 385.163 368 394 368V368C402.837 368 410 375.163 410 384V384C410 392.837 402.837 400 394 400V400C385.163 400 378 392.837 378 384V384Z" fill="#A1B0C9"/>
<path fill-rule="evenodd" clip-rule="evenodd" d="M394 401C384.611 401 377 393.389 377 384C377 374.611 384.611 367 394 367C403.389 367 411 374.611 411 384C411 393.389 403.389 401 394 401ZM394 368C385.163 368 378 375.163 378 384C378 392.837 385.163 400 394 400C402.837 400 410 392.837 410 384C410 375.163 402.837 368 394 368Z" fill="#212325" fill-opacity="0.8"/>
<rect x="405" y="368" width="32" height="32" rx="16" fill="url(#paint6_linear_1745_7281)"/>
<rect x="404.5" y="367.5" width="33" height="33" rx="16.5" stroke="#212325" stroke-opacity="0.8"/>
<path fill-rule="evenodd" clip-rule="evenodd" d="M412.396 382.355C411.885 382.858 411.514 383.487 411.321 384.179C411.128 384.871 411.118 385.602 411.294 386.299C411.468 386.986 411.824 387.612 412.324 388.112C412.824 388.611 413.45 388.964 414.133 389.135C414.829 389.31 415.558 389.301 416.249 389.108C416.94 388.915 417.569 388.544 418.075 388.033L425.034 381.075C425.494 380.603 426.121 380.333 426.778 380.325C427.435 380.316 428.068 380.57 428.54 381.03C428.768 381.263 428.947 381.539 429.069 381.842C429.19 382.145 429.25 382.469 429.246 382.796C429.242 383.123 429.173 383.445 429.045 383.745C428.916 384.045 428.729 384.316 428.495 384.543L426.277 386.776L424.968 385.51L424.11 390.02L428.665 389.157L427.393 387.892L429.612 385.659C430.122 385.156 430.493 384.527 430.687 383.835C430.882 383.144 430.894 382.413 430.721 381.715C430.545 381.029 430.188 380.404 429.688 379.905C429.188 379.406 428.564 379.052 427.882 378.88C427.185 378.705 426.455 378.715 425.763 378.908C425.071 379.101 424.44 379.47 423.932 379.981L416.973 386.939C416.514 387.412 415.887 387.681 415.23 387.69C414.573 387.698 413.939 387.444 413.468 386.984C413.24 386.752 413.061 386.477 412.939 386.174C412.818 385.872 412.758 385.548 412.762 385.222C412.766 384.896 412.835 384.574 412.964 384.275C413.092 383.975 413.279 383.705 413.512 383.479L415.561 381.395L416.833 382.675L417.683 378.21L413.179 379.066L414.451 380.331L412.396 382.355Z" fill="white"/>
<path d="M482.277 281.806C479.071 294.663 466.049 302.488 453.19 299.281C440.337 296.076 432.512 283.053 435.719 270.197C438.923 257.338 451.945 249.513 464.8 252.718C477.658 255.924 485.482 268.948 482.276 281.806L482.276 281.806H482.277Z" fill="#50AF95"/>
<path fill-rule="evenodd" clip-rule="evenodd" d="M462.038 278.721V278.721C461.868 278.733 460.992 278.786 459.036 278.786C457.48 278.786 456.376 278.739 455.988 278.721V278.721C449.977 278.456 445.489 277.41 445.489 276.157C445.489 274.904 449.977 273.859 455.988 273.59V277.678C456.381 277.707 457.507 277.773 459.063 277.773C460.929 277.773 461.864 277.695 462.032 277.68V273.593C468.031 273.86 472.509 274.907 472.509 276.157C472.509 277.407 468.033 278.453 462.032 278.719V278.719L462.038 278.721ZM462.04 273.17V269.512H470.411V263.933H447.618V269.512H455.988V273.169C449.185 273.481 444.068 274.829 444.068 276.444C444.068 278.059 449.185 279.405 455.988 279.719V291.443H462.038V279.715C468.826 279.402 473.934 278.056 473.934 276.442C473.934 274.829 468.83 273.483 462.038 273.169V273.169L462.04 273.17Z" fill="white"/>
<rect x="465" y="246" width="24" height="24" rx="6" fill="#6179EE"/>
<rect x="465.5" y="246.5" width="23" height="23" rx="5.5" stroke="black" stroke-opacity="0.24"/>
<path d="M477.004 249.75L476.891 250.141V261.476L477.004 261.591L482.145 258.481L477.004 249.75Z" fill="#BFCAF8"/>
<path d="M477 249.75L471.859 258.481L477 261.591V256.089V249.75Z" fill="#FFFEFF"/>
<path d="M476.998 262.587L476.935 262.666V266.704L476.998 266.893L482.143 259.479L476.998 262.587Z" fill="#C0CAF9"/>
<path d="M477 266.893V262.587L471.859 259.479L477 266.893Z" fill="#FFFEFF"/>
<path d="M476.998 261.592L482.14 258.482L476.998 256.09V261.592Z" fill="#7F93EE"/>
<path d="M471.859 258.482L477 261.592V256.09L471.859 258.482Z" fill="#BFCAF9"/>
<path d="M628 279C627.869 279.001 627.738 278.976 627.616 278.926C627.494 278.876 627.384 278.803 627.29 278.71L624.29 275.71C624.102 275.522 623.996 275.266 623.996 275C623.996 274.734 624.102 274.478 624.29 274.29C624.478 274.102 624.734 273.996 625 273.996C625.266 273.996 625.522 274.102 625.71 274.29L628 276.59L630.29 274.29C630.478 274.102 630.734 273.996 631 273.996C631.266 273.996 631.522 274.102 631.71 274.29C631.898 274.478 632.004 274.734 632.004 275C632.004 275.266 631.898 275.522 631.71 275.71L628.71 278.71C628.617 278.803 628.506 278.876 628.384 278.926C628.262 278.976 628.132 279.001 628 279Z" fill="white" fill-opacity="0.4"/>
<path d="M93.8351 261.909V291H89.4317V266.313H89.2613L82.301 270.858V266.654L89.5595 261.909H93.8351Z" fill="white"/>
<path d="M122.418 291.483C120.174 291.474 118.256 290.882 116.665 289.708C115.074 288.534 113.858 286.824 113.015 284.58C112.172 282.336 111.751 279.632 111.751 276.469C111.751 273.316 112.172 270.622 113.015 268.387C113.867 266.152 115.089 264.447 116.68 263.273C118.28 262.099 120.193 261.512 122.418 261.512C124.644 261.512 126.552 262.104 128.143 263.287C129.734 264.462 130.95 266.166 131.793 268.401C132.645 270.626 133.072 273.316 133.072 276.469C133.072 279.641 132.65 282.35 131.807 284.594C130.965 286.829 129.748 288.538 128.157 289.722C126.566 290.896 124.653 291.483 122.418 291.483ZM122.418 287.691C124.388 287.691 125.927 286.73 127.035 284.807C128.152 282.885 128.711 280.105 128.711 276.469C128.711 274.054 128.455 272.014 127.944 270.347C127.442 268.671 126.717 267.402 125.77 266.54C124.833 265.669 123.716 265.233 122.418 265.233C120.458 265.233 118.919 266.199 117.802 268.131C116.684 270.063 116.121 272.842 116.111 276.469C116.111 278.893 116.362 280.944 116.864 282.62C117.376 284.286 118.1 285.551 119.038 286.412C119.975 287.265 121.102 287.691 122.418 287.691Z" fill="white"/>
<path d="M147.94 291.398C145.904 291.398 144.105 291.048 142.543 290.347C140.989 289.646 139.773 288.68 138.892 287.449C138.011 286.218 137.576 284.817 137.585 283.245C137.576 282.014 137.827 280.882 138.338 279.85C138.859 278.808 139.564 277.942 140.454 277.25C141.345 276.55 142.339 276.105 143.437 275.915V275.745C141.989 275.394 140.828 274.618 139.957 273.415C139.086 272.212 138.655 270.83 138.665 269.267C138.655 267.781 139.048 266.455 139.844 265.29C140.649 264.116 141.752 263.193 143.153 262.52C144.555 261.848 146.15 261.512 147.94 261.512C149.711 261.512 151.293 261.853 152.685 262.534C154.086 263.207 155.189 264.13 155.994 265.304C156.799 266.469 157.206 267.79 157.216 269.267C157.206 270.83 156.761 272.212 155.881 273.415C155 274.618 153.854 275.394 152.443 275.745V275.915C153.532 276.105 154.512 276.55 155.383 277.25C156.264 277.942 156.965 278.808 157.486 279.85C158.016 280.882 158.286 282.014 158.295 283.245C158.286 284.817 157.841 286.218 156.96 287.449C156.079 288.68 154.858 289.646 153.295 290.347C151.742 291.048 149.957 291.398 147.94 291.398ZM147.94 287.804C149.143 287.804 150.185 287.605 151.065 287.208C151.946 286.801 152.628 286.237 153.111 285.517C153.594 284.788 153.84 283.936 153.849 282.961C153.84 281.947 153.575 281.052 153.054 280.276C152.543 279.499 151.846 278.889 150.966 278.444C150.085 277.998 149.077 277.776 147.94 277.776C146.794 277.776 145.776 277.998 144.886 278.444C143.996 278.889 143.295 279.499 142.784 280.276C142.273 281.052 142.022 281.947 142.031 282.961C142.022 283.936 142.254 284.788 142.727 285.517C143.21 286.237 143.897 286.801 144.787 287.208C145.677 287.605 146.728 287.804 147.94 287.804ZM147.94 274.267C148.906 274.267 149.763 274.073 150.511 273.685C151.259 273.297 151.846 272.757 152.273 272.066C152.708 271.374 152.931 270.565 152.94 269.637C152.931 268.728 152.713 267.932 152.287 267.25C151.87 266.569 151.288 266.043 150.54 265.674C149.792 265.295 148.925 265.105 147.94 265.105C146.936 265.105 146.056 265.295 145.298 265.674C144.55 266.043 143.968 266.569 143.551 267.25C143.134 267.932 142.931 268.728 142.94 269.637C142.931 270.565 143.139 271.374 143.565 272.066C143.991 272.757 144.578 273.297 145.327 273.685C146.084 274.073 146.955 274.267 147.94 274.267Z" fill="white"/>
<path d="M164.364 291L177.063 265.887V265.674H162.376V261.909H181.609V265.801L168.952 291H164.364Z" fill="white"/>
<path d="M187.131 287.023L186.917 288.571C186.775 289.708 186.534 290.891 186.193 292.123C185.862 293.363 185.516 294.514 185.156 295.574C184.806 296.635 184.517 297.478 184.29 298.103H181.278C181.401 297.516 181.572 296.72 181.79 295.716C182.007 294.722 182.221 293.609 182.429 292.378C182.637 291.147 182.793 289.892 182.898 288.614L183.04 287.023H187.131Z" fill="white"/>
<path d="M202.173 291.398C200.876 291.379 199.597 291.142 198.338 290.688C197.088 290.233 195.952 289.476 194.929 288.415C193.906 287.355 193.087 285.929 192.471 284.14C191.865 282.35 191.562 280.115 191.562 277.435C191.562 274.897 191.813 272.643 192.315 270.674C192.827 268.704 193.56 267.042 194.517 265.688C195.473 264.324 196.629 263.287 197.983 262.577C199.337 261.867 200.857 261.512 202.542 261.512C204.275 261.512 205.814 261.853 207.159 262.534C208.504 263.216 209.593 264.158 210.426 265.361C211.269 266.564 211.804 267.932 212.031 269.466H207.699C207.405 268.254 206.823 267.265 205.952 266.498C205.08 265.73 203.944 265.347 202.542 265.347C200.412 265.347 198.75 266.275 197.557 268.131C196.373 269.987 195.776 272.568 195.767 275.873H195.98C196.482 275.049 197.097 274.348 197.827 273.77C198.565 273.183 199.389 272.733 200.298 272.421C201.217 272.099 202.183 271.938 203.196 271.938C204.882 271.938 206.406 272.35 207.77 273.174C209.143 273.988 210.237 275.115 211.051 276.554C211.865 277.994 212.273 279.641 212.273 281.498C212.273 283.354 211.851 285.034 211.008 286.54C210.175 288.046 209.001 289.239 207.486 290.12C205.971 290.991 204.2 291.417 202.173 291.398ZM202.159 287.705C203.276 287.705 204.275 287.43 205.156 286.881C206.037 286.332 206.733 285.593 207.244 284.665C207.756 283.737 208.011 282.7 208.011 281.554C208.011 280.437 207.76 279.419 207.258 278.5C206.766 277.582 206.084 276.853 205.213 276.313C204.351 275.773 203.366 275.503 202.258 275.503C201.416 275.503 200.634 275.664 199.915 275.986C199.204 276.308 198.579 276.753 198.04 277.321C197.5 277.89 197.074 278.543 196.761 279.282C196.458 280.011 196.307 280.783 196.307 281.597C196.307 282.686 196.558 283.694 197.06 284.623C197.571 285.551 198.267 286.299 199.148 286.867C200.038 287.426 201.042 287.705 202.159 287.705Z" fill="white"/>
<path d="M217.447 291V287.819L227.29 277.62C228.342 276.512 229.208 275.541 229.89 274.708C230.581 273.865 231.097 273.065 231.438 272.307C231.779 271.55 231.949 270.745 231.949 269.892C231.949 268.926 231.722 268.093 231.268 267.392C230.813 266.682 230.193 266.138 229.407 265.759C228.621 265.371 227.735 265.176 226.751 265.176C225.709 265.176 224.8 265.39 224.023 265.816C223.247 266.242 222.65 266.843 222.234 267.62C221.817 268.396 221.609 269.305 221.609 270.347H217.418C217.418 268.576 217.825 267.028 218.64 265.702C219.454 264.376 220.572 263.349 221.992 262.62C223.413 261.881 225.027 261.512 226.836 261.512C228.663 261.512 230.273 261.876 231.665 262.605C233.067 263.325 234.161 264.31 234.947 265.56C235.733 266.801 236.126 268.202 236.126 269.765C236.126 270.844 235.922 271.9 235.515 272.932C235.117 273.964 234.421 275.115 233.427 276.384C232.432 277.643 231.05 279.173 229.279 280.972L223.498 287.023V287.236H236.594V291H217.447Z" fill="white"/>
<path d="M520.903 261.909H525.307V281.043C525.307 283.079 524.829 284.883 523.872 286.455C522.916 288.017 521.571 289.248 519.838 290.148C518.105 291.038 516.074 291.483 513.744 291.483C511.424 291.483 509.398 291.038 507.665 290.148C505.932 289.248 504.587 288.017 503.631 286.455C502.674 284.883 502.196 283.079 502.196 281.043V261.909H506.585V280.688C506.585 282.004 506.874 283.174 507.452 284.196C508.039 285.219 508.867 286.024 509.938 286.611C511.008 287.189 512.277 287.478 513.744 287.478C515.222 287.478 516.495 287.189 517.565 286.611C518.645 286.024 519.469 285.219 520.037 284.196C520.615 283.174 520.903 282.004 520.903 280.688V261.909Z" fill="white"/>
<path d="M547.555 269.551C547.403 268.207 546.778 267.165 545.68 266.426C544.581 265.678 543.199 265.304 541.532 265.304C540.339 265.304 539.307 265.494 538.435 265.873C537.564 266.242 536.887 266.753 536.404 267.407C535.931 268.051 535.694 268.784 535.694 269.608C535.694 270.3 535.855 270.896 536.177 271.398C536.508 271.9 536.939 272.321 537.469 272.662C538.009 272.994 538.587 273.273 539.202 273.5C539.818 273.718 540.41 273.898 540.978 274.04L543.819 274.779C544.747 275.006 545.699 275.314 546.674 275.702C547.649 276.09 548.554 276.602 549.387 277.236C550.22 277.871 550.893 278.657 551.404 279.594C551.925 280.532 552.185 281.654 552.185 282.961C552.185 284.608 551.759 286.071 550.907 287.35C550.064 288.628 548.838 289.637 547.228 290.375C545.628 291.114 543.691 291.483 541.418 291.483C539.24 291.483 537.356 291.138 535.765 290.446C534.174 289.755 532.929 288.775 532.029 287.506C531.13 286.228 530.632 284.712 530.538 282.961H534.941C535.026 284.012 535.367 284.888 535.964 285.588C536.57 286.28 537.342 286.796 538.279 287.137C539.226 287.468 540.263 287.634 541.39 287.634C542.63 287.634 543.734 287.44 544.7 287.051C545.675 286.654 546.442 286.105 547.001 285.404C547.559 284.694 547.839 283.865 547.839 282.918C547.839 282.056 547.593 281.351 547.1 280.801C546.617 280.252 545.959 279.798 545.126 279.438C544.302 279.078 543.369 278.761 542.327 278.486L538.89 277.549C536.56 276.914 534.714 275.981 533.35 274.75C531.996 273.519 531.319 271.891 531.319 269.864C531.319 268.188 531.773 266.725 532.683 265.475C533.592 264.225 534.823 263.254 536.376 262.563C537.929 261.862 539.681 261.512 541.631 261.512C543.601 261.512 545.339 261.857 546.844 262.549C548.36 263.24 549.553 264.192 550.424 265.404C551.295 266.606 551.75 267.989 551.788 269.551H547.555Z" fill="white"/>
<path d="M566.848 291H557.43V261.909H567.146C569.997 261.909 572.445 262.492 574.49 263.657C576.536 264.812 578.103 266.474 579.192 268.642C580.29 270.801 580.84 273.391 580.84 276.412C580.84 279.443 580.286 282.047 579.178 284.225C578.079 286.403 576.488 288.079 574.405 289.253C572.322 290.418 569.803 291 566.848 291ZM561.82 287.165H566.607C568.822 287.165 570.664 286.748 572.132 285.915C573.6 285.072 574.698 283.855 575.428 282.265C576.157 280.664 576.521 278.713 576.521 276.412C576.521 274.13 576.157 272.194 575.428 270.603C574.708 269.012 573.633 267.804 572.203 266.98C570.773 266.157 568.998 265.745 566.876 265.745H561.82V287.165Z" fill="white"/>
<path d="M583.613 265.688V261.909H606.127V265.688H597.05V291H592.675V265.688H583.613Z" fill="white"/>
<path d="M86.9544 333.181V311.363H88.3522V333.181H86.9544ZM91.659 317.909C91.5567 317.045 91.1419 316.375 90.4147 315.897C89.6874 315.42 88.7953 315.181 87.7385 315.181C86.9658 315.181 86.2897 315.306 85.7101 315.556C85.1363 315.806 84.6874 316.15 84.3635 316.588C84.0453 317.025 83.8863 317.522 83.8863 318.079C83.8863 318.545 83.997 318.946 84.2186 319.281C84.4459 319.61 84.7357 319.886 85.088 320.108C85.4402 320.324 85.8095 320.502 86.1959 320.645C86.5823 320.781 86.9374 320.892 87.2613 320.977L89.034 321.454C89.4885 321.574 89.9942 321.738 90.551 321.949C91.1135 322.159 91.6505 322.446 92.1618 322.809C92.6789 323.167 93.105 323.627 93.4402 324.19C93.7755 324.752 93.9431 325.443 93.9431 326.261C93.9431 327.204 93.6959 328.056 93.2016 328.818C92.713 329.579 91.997 330.184 91.0539 330.633C90.1164 331.082 88.9772 331.306 87.6363 331.306C86.3863 331.306 85.3039 331.105 84.3891 330.701C83.48 330.298 82.7641 329.735 82.2414 329.014C81.7243 328.292 81.4317 327.454 81.3635 326.5H83.5453C83.6022 327.159 83.8238 327.704 84.2101 328.136C84.6022 328.562 85.0965 328.88 85.6931 329.091C86.2953 329.295 86.9431 329.397 87.6363 329.397C88.4431 329.397 89.1675 329.267 89.8095 329.005C90.4516 328.738 90.9601 328.369 91.3351 327.897C91.7101 327.42 91.8976 326.863 91.8976 326.227C91.8976 325.647 91.7357 325.176 91.4118 324.812C91.088 324.449 90.6618 324.153 90.1334 323.926C89.605 323.699 89.034 323.5 88.4203 323.329L86.2726 322.716C84.909 322.324 83.8294 321.764 83.034 321.037C82.2385 320.309 81.8408 319.358 81.8408 318.181C81.8408 317.204 82.105 316.352 82.6334 315.625C83.1675 314.892 83.8834 314.324 84.7811 313.92C85.6845 313.511 86.6931 313.306 87.8067 313.306C88.9317 313.306 89.9317 313.508 90.8067 313.912C91.6817 314.309 92.3749 314.855 92.8863 315.548C93.4033 316.241 93.676 317.028 93.7044 317.909H91.659Z" fill="white" fill-opacity="0.64"/>
<path d="M103.009 331.238C101.884 331.238 100.881 331.045 100.001 330.659C99.1256 330.272 98.4296 329.735 97.9125 329.048C97.4012 328.355 97.1228 327.551 97.0773 326.636H99.225C99.2705 327.199 99.4637 327.684 99.8046 328.093C100.145 328.497 100.592 328.809 101.143 329.031C101.694 329.252 102.305 329.363 102.975 329.363C103.725 329.363 104.39 329.233 104.969 328.971C105.549 328.71 106.003 328.346 106.333 327.88C106.663 327.414 106.827 326.875 106.827 326.261C106.827 325.619 106.668 325.054 106.35 324.565C106.032 324.071 105.566 323.684 104.952 323.406C104.339 323.127 103.589 322.988 102.702 322.988H101.305V321.113H102.702C103.395 321.113 104.003 320.988 104.526 320.738C105.055 320.488 105.467 320.136 105.762 319.681C106.063 319.227 106.214 318.693 106.214 318.079C106.214 317.488 106.083 316.974 105.822 316.537C105.56 316.099 105.191 315.758 104.714 315.514C104.242 315.27 103.685 315.147 103.043 315.147C102.441 315.147 101.873 315.258 101.339 315.48C100.81 315.696 100.378 316.011 100.043 316.426C99.708 316.835 99.5262 317.329 99.4978 317.909H97.4523C97.4864 316.994 97.762 316.193 98.279 315.505C98.7961 314.812 99.4722 314.272 100.307 313.886C101.148 313.5 102.072 313.306 103.077 313.306C104.157 313.306 105.083 313.525 105.856 313.963C106.628 314.395 107.222 314.966 107.637 315.676C108.052 316.386 108.259 317.153 108.259 317.977C108.259 318.96 108.001 319.798 107.484 320.491C106.972 321.184 106.276 321.664 105.395 321.931V322.068C106.498 322.25 107.359 322.718 107.978 323.474C108.597 324.224 108.907 325.153 108.907 326.261C108.907 327.21 108.648 328.062 108.131 328.818C107.62 329.568 106.921 330.159 106.035 330.591C105.148 331.022 104.14 331.238 103.009 331.238Z" fill="white" fill-opacity="0.64"/>
<path d="M125.279 313.545V331H123.165V315.761H123.063L118.802 318.591V316.443L123.165 313.545H125.279Z" fill="white" fill-opacity="0.64"/>
<path d="M130.299 331V329.466L136.06 323.159C136.736 322.42 137.293 321.778 137.731 321.233C138.168 320.681 138.492 320.164 138.702 319.681C138.918 319.193 139.026 318.681 139.026 318.147C139.026 317.534 138.878 317.002 138.583 316.554C138.293 316.105 137.895 315.758 137.39 315.514C136.884 315.27 136.316 315.147 135.685 315.147C135.015 315.147 134.43 315.287 133.93 315.565C133.435 315.838 133.052 316.221 132.779 316.716C132.512 317.21 132.378 317.789 132.378 318.454H130.367C130.367 317.431 130.603 316.534 131.074 315.761C131.546 314.988 132.188 314.386 133.001 313.954C133.819 313.522 134.736 313.306 135.753 313.306C136.776 313.306 137.682 313.522 138.472 313.954C139.262 314.386 139.881 314.968 140.33 315.701C140.779 316.434 141.003 317.25 141.003 318.147C141.003 318.789 140.887 319.417 140.654 320.031C140.427 320.639 140.029 321.318 139.461 322.068C138.898 322.812 138.117 323.721 137.117 324.795L133.197 328.988V329.125H141.31V331H130.299Z" fill="white" fill-opacity="0.64"/>
<path d="M150.728 331.238C149.603 331.238 148.6 331.045 147.719 330.659C146.844 330.272 146.148 329.735 145.631 329.048C145.12 328.355 144.842 327.551 144.796 326.636H146.944C146.989 327.199 147.182 327.684 147.523 328.093C147.864 328.497 148.31 328.809 148.861 329.031C149.413 329.252 150.023 329.363 150.694 329.363C151.444 329.363 152.109 329.233 152.688 328.971C153.268 328.71 153.722 328.346 154.052 327.88C154.381 327.414 154.546 326.875 154.546 326.261C154.546 325.619 154.387 325.054 154.069 324.565C153.751 324.071 153.285 323.684 152.671 323.406C152.057 323.127 151.307 322.988 150.421 322.988H149.023V321.113H150.421C151.114 321.113 151.722 320.988 152.245 320.738C152.773 320.488 153.185 320.136 153.481 319.681C153.782 319.227 153.932 318.693 153.932 318.079C153.932 317.488 153.802 316.974 153.54 316.537C153.279 316.099 152.91 315.758 152.432 315.514C151.961 315.27 151.404 315.147 150.762 315.147C150.16 315.147 149.592 315.258 149.057 315.48C148.529 315.696 148.097 316.011 147.762 316.426C147.427 316.835 147.245 317.329 147.217 317.909H145.171C145.205 316.994 145.481 316.193 145.998 315.505C146.515 314.812 147.191 314.272 148.026 313.886C148.867 313.5 149.79 313.306 150.796 313.306C151.876 313.306 152.802 313.525 153.574 313.963C154.347 314.395 154.941 314.966 155.356 315.676C155.77 316.386 155.978 317.153 155.978 317.977C155.978 318.96 155.719 319.798 155.202 320.491C154.691 321.184 153.995 321.664 153.114 321.931V322.068C154.217 322.25 155.077 322.718 155.697 323.474C156.316 324.224 156.626 325.153 156.626 326.261C156.626 327.21 156.367 328.062 155.85 328.818C155.339 329.568 154.64 330.159 153.753 330.591C152.867 331.022 151.859 331.238 150.728 331.238Z" fill="white" fill-opacity="0.64"/>
<path d="M161.072 331.136C160.652 331.136 160.291 330.985 159.99 330.684C159.689 330.383 159.538 330.022 159.538 329.602C159.538 329.181 159.689 328.821 159.99 328.52C160.291 328.218 160.652 328.068 161.072 328.068C161.493 328.068 161.854 328.218 162.155 328.52C162.456 328.821 162.606 329.181 162.606 329.602C162.606 329.88 162.535 330.136 162.393 330.369C162.257 330.602 162.072 330.789 161.839 330.931C161.612 331.068 161.356 331.136 161.072 331.136Z" fill="white" fill-opacity="0.64"/>
<path d="M171.266 331.238C169.981 331.238 168.888 330.889 167.984 330.19C167.081 329.485 166.391 328.466 165.913 327.13C165.436 325.789 165.197 324.17 165.197 322.272C165.197 320.386 165.436 318.775 165.913 317.44C166.396 316.099 167.089 315.076 167.993 314.372C168.902 313.662 169.993 313.306 171.266 313.306C172.538 313.306 173.626 313.662 174.53 314.372C175.439 315.076 176.132 316.099 176.609 317.44C177.092 318.775 177.334 320.386 177.334 322.272C177.334 324.17 177.095 325.789 176.618 327.13C176.141 328.466 175.45 329.485 174.547 330.19C173.643 330.889 172.55 331.238 171.266 331.238ZM171.266 329.363C172.538 329.363 173.527 328.75 174.231 327.522C174.936 326.295 175.288 324.545 175.288 322.272C175.288 320.761 175.126 319.474 174.802 318.412C174.484 317.349 174.024 316.539 173.422 315.983C172.825 315.426 172.106 315.147 171.266 315.147C170.004 315.147 169.018 315.77 168.308 317.014C167.598 318.252 167.243 320.005 167.243 322.272C167.243 323.784 167.402 325.068 167.72 326.125C168.038 327.181 168.496 327.985 169.092 328.537C169.694 329.088 170.419 329.363 171.266 329.363Z" fill="white" fill-opacity="0.64"/>
<path d="M186.47 331.238C185.345 331.238 184.342 331.045 183.462 330.659C182.587 330.272 181.891 329.735 181.373 329.048C180.862 328.355 180.584 327.551 180.538 326.636H182.686C182.731 327.199 182.925 327.684 183.266 328.093C183.606 328.497 184.052 328.809 184.604 329.031C185.155 329.252 185.766 329.363 186.436 329.363C187.186 329.363 187.851 329.233 188.43 328.971C189.01 328.71 189.464 328.346 189.794 327.88C190.123 327.414 190.288 326.875 190.288 326.261C190.288 325.619 190.129 325.054 189.811 324.565C189.493 324.071 189.027 323.684 188.413 323.406C187.8 323.127 187.05 322.988 186.163 322.988H184.766V321.113H186.163C186.856 321.113 187.464 320.988 187.987 320.738C188.516 320.488 188.927 320.136 189.223 319.681C189.524 319.227 189.675 318.693 189.675 318.079C189.675 317.488 189.544 316.974 189.283 316.537C189.021 316.099 188.652 315.758 188.175 315.514C187.703 315.27 187.146 315.147 186.504 315.147C185.902 315.147 185.334 315.258 184.8 315.48C184.271 315.696 183.839 316.011 183.504 316.426C183.169 316.835 182.987 317.329 182.959 317.909H180.913C180.947 316.994 181.223 316.193 181.74 315.505C182.257 314.812 182.933 314.272 183.768 313.886C184.609 313.5 185.533 313.306 186.538 313.306C187.618 313.306 188.544 313.525 189.317 313.963C190.089 314.395 190.683 314.966 191.098 315.676C191.513 316.386 191.72 317.153 191.72 317.977C191.72 318.96 191.462 319.798 190.944 320.491C190.433 321.184 189.737 321.664 188.856 321.931V322.068C189.959 322.25 190.819 322.718 191.439 323.474C192.058 324.224 192.368 325.153 192.368 326.261C192.368 327.21 192.109 328.062 191.592 328.818C191.081 329.568 190.382 330.159 189.496 330.591C188.609 331.022 187.601 331.238 186.47 331.238Z" fill="white" fill-opacity="0.64"/>
<path d="M217.955 327.932V316.682H219.864V327.932H217.955ZM213.284 323.261V321.352H224.534V323.261H213.284Z" fill="#00FF60" fill-opacity="0.64"/>
<path d="M234.32 331.238C233.036 331.238 231.943 330.889 231.039 330.19C230.136 329.486 229.445 328.466 228.968 327.131C228.491 325.79 228.252 324.17 228.252 322.273C228.252 320.386 228.491 318.775 228.968 317.44C229.451 316.099 230.144 315.077 231.048 314.372C231.957 313.662 233.048 313.307 234.32 313.307C235.593 313.307 236.681 313.662 237.585 314.372C238.494 315.077 239.187 316.099 239.664 317.44C240.147 318.775 240.389 320.386 240.389 322.273C240.389 324.17 240.15 325.79 239.673 327.131C239.195 328.466 238.505 329.486 237.602 330.19C236.698 330.889 235.604 331.238 234.32 331.238ZM234.32 329.363C235.593 329.363 236.582 328.75 237.286 327.523C237.991 326.295 238.343 324.545 238.343 322.273C238.343 320.761 238.181 319.474 237.857 318.412C237.539 317.349 237.079 316.54 236.477 315.983C235.88 315.426 235.161 315.148 234.32 315.148C233.059 315.148 232.073 315.77 231.363 317.014C230.653 318.253 230.298 320.006 230.298 322.273C230.298 323.784 230.457 325.068 230.775 326.125C231.093 327.182 231.551 327.986 232.147 328.537C232.749 329.088 233.474 329.363 234.32 329.363Z" fill="#00FF60" fill-opacity="0.64"/>
<path d="M246.052 328.613L245.916 329.534C245.819 330.182 245.671 330.875 245.472 331.613C245.279 332.352 245.078 333.048 244.867 333.702C244.657 334.355 244.484 334.875 244.347 335.261H242.813C242.887 334.898 242.984 334.417 243.103 333.821C243.222 333.224 243.342 332.557 243.461 331.818C243.586 331.085 243.688 330.335 243.768 329.568L243.87 328.613H246.052Z" fill="#00FF60" fill-opacity="0.64"/>
<path d="M254.828 331.238C253.544 331.238 252.45 330.889 251.547 330.19C250.644 329.486 249.953 328.466 249.476 327.131C248.999 325.79 248.76 324.17 248.76 322.273C248.76 320.386 248.999 318.775 249.476 317.44C249.959 316.099 250.652 315.077 251.555 314.372C252.465 313.662 253.555 313.307 254.828 313.307C256.101 313.307 257.189 313.662 258.092 314.372C259.002 315.077 259.695 316.099 260.172 317.44C260.655 318.775 260.896 320.386 260.896 322.273C260.896 324.17 260.658 325.79 260.18 327.131C259.703 328.466 259.013 329.486 258.109 330.19C257.206 330.889 256.112 331.238 254.828 331.238ZM254.828 329.363C256.101 329.363 257.09 328.75 257.794 327.523C258.499 326.295 258.851 324.545 258.851 322.273C258.851 320.761 258.689 319.474 258.365 318.412C258.047 317.349 257.587 316.54 256.984 315.983C256.388 315.426 255.669 315.148 254.828 315.148C253.567 315.148 252.581 315.77 251.871 317.014C251.161 318.253 250.805 320.006 250.805 322.273C250.805 323.784 250.965 325.068 251.283 326.125C251.601 327.182 252.058 327.986 252.655 328.537C253.257 329.088 253.982 329.363 254.828 329.363Z" fill="#00FF60" fill-opacity="0.64"/>
<path d="M264.135 331V329.466L269.896 323.159C270.573 322.42 271.129 321.778 271.567 321.233C272.004 320.682 272.328 320.165 272.538 319.682C272.754 319.193 272.862 318.682 272.862 318.148C272.862 317.534 272.715 317.003 272.419 316.554C272.129 316.105 271.732 315.758 271.226 315.514C270.72 315.27 270.152 315.148 269.521 315.148C268.851 315.148 268.266 315.287 267.766 315.565C267.271 315.838 266.888 316.221 266.615 316.716C266.348 317.21 266.215 317.79 266.215 318.454H264.203C264.203 317.432 264.439 316.534 264.911 315.761C265.382 314.988 266.024 314.386 266.837 313.954C267.655 313.523 268.573 313.307 269.59 313.307C270.612 313.307 271.519 313.523 272.308 313.954C273.098 314.386 273.717 314.969 274.166 315.702C274.615 316.434 274.84 317.25 274.84 318.148C274.84 318.79 274.723 319.417 274.49 320.031C274.263 320.639 273.865 321.318 273.297 322.068C272.734 322.812 271.953 323.721 270.953 324.795L267.033 328.988V329.125H275.146V331H264.135Z" fill="#00FF60" fill-opacity="0.64"/>
<path d="M287.564 327.727V326.807C287.564 326.17 287.695 325.588 287.956 325.059C288.223 324.525 288.609 324.099 289.115 323.781C289.627 323.457 290.246 323.295 290.973 323.295C291.712 323.295 292.331 323.457 292.831 323.781C293.331 324.099 293.709 324.525 293.965 325.059C294.22 325.588 294.348 326.17 294.348 326.807V327.727C294.348 328.363 294.217 328.949 293.956 329.483C293.7 330.011 293.32 330.437 292.814 330.761C292.314 331.079 291.7 331.238 290.973 331.238C290.234 331.238 289.612 331.079 289.107 330.761C288.601 330.437 288.217 330.011 287.956 329.483C287.695 328.949 287.564 328.363 287.564 327.727ZM289.303 326.807V327.727C289.303 328.256 289.428 328.73 289.678 329.15C289.928 329.565 290.359 329.773 290.973 329.773C291.57 329.773 291.99 329.565 292.234 329.15C292.484 328.73 292.609 328.256 292.609 327.727V326.807C292.609 326.278 292.49 325.807 292.252 325.392C292.013 324.971 291.587 324.761 290.973 324.761C290.377 324.761 289.948 324.971 289.686 325.392C289.43 325.807 289.303 326.278 289.303 326.807ZM278.871 317.738V316.818C278.871 316.182 279.002 315.599 279.263 315.071C279.53 314.537 279.916 314.111 280.422 313.792C280.933 313.469 281.553 313.307 282.28 313.307C283.019 313.307 283.638 313.469 284.138 313.792C284.638 314.111 285.016 314.537 285.271 315.071C285.527 315.599 285.655 316.182 285.655 316.818V317.738C285.655 318.375 285.524 318.96 285.263 319.494C285.007 320.023 284.627 320.449 284.121 320.773C283.621 321.091 283.007 321.25 282.28 321.25C281.541 321.25 280.919 321.091 280.413 320.773C279.908 320.449 279.524 320.023 279.263 319.494C279.002 318.96 278.871 318.375 278.871 317.738ZM280.609 316.818V317.738C280.609 318.267 280.734 318.741 280.984 319.162C281.234 319.577 281.666 319.784 282.28 319.784C282.877 319.784 283.297 319.577 283.541 319.162C283.791 318.741 283.916 318.267 283.916 317.738V316.818C283.916 316.29 283.797 315.818 283.558 315.403C283.32 314.983 282.894 314.773 282.28 314.773C281.683 314.773 281.254 314.983 280.993 315.403C280.737 315.818 280.609 316.29 280.609 316.818ZM279.519 331L291.519 313.545H293.462L281.462 331H279.519Z" fill="#00FF60" fill-opacity="0.64"/>
<path d="M384 209C384 222.255 373.255 233 360 233C346.745 233 336 222.255 336 209C336 195.745 346.745 185 360 185C373.255 185 384 195.745 384 209Z" fill="#00FF60"/>
<path fill-rule="evenodd" clip-rule="evenodd" d="M386 209C386 223.359 374.359 235 360 235C345.641 235 334 223.359 334 209C334 194.641 345.641 183 360 183C374.359 183 386 194.641 386 209ZM360 233C373.255 233 384 222.255 384 209C384 195.745 373.255 185 360 185C346.745 185 336 195.745 336 209C336 222.255 346.745 233 360 233Z" fill="black" fill-opacity="0.12"/>
<path d="M368.67 209.57C368.422 209.261 368.063 209.062 367.669 209.017C367.276 208.972 366.881 209.085 366.57 209.33L361.5 213.38V201.5C361.5 201.102 361.342 200.721 361.061 200.439C360.779 200.158 360.398 200 360 200C359.602 200 359.221 200.158 358.939 200.439C358.658 200.721 358.5 201.102 358.5 201.5V213.38L353.43 209.33C353.117 209.122 352.737 209.039 352.366 209.097C351.995 209.156 351.659 209.352 351.425 209.646C351.192 209.94 351.077 210.311 351.103 210.686C351.13 211.061 351.297 211.412 351.57 211.67L359.07 217.67C359.135 217.719 359.205 217.759 359.28 217.79L359.46 217.895C359.807 218.029 360.192 218.029 360.54 217.895L360.72 217.79C360.795 217.759 360.865 217.719 360.93 217.67L368.43 211.67C368.739 211.423 368.938 211.063 368.983 210.669C369.028 210.276 368.915 209.881 368.67 209.57V209.57Z" fill="black" fill-opacity="0.8"/>
</g>
<defs>
<filter id="filter0_b_1745_7281" x="-100" y="-100" width="920" height="680" filterUnits="userSpaceOnUse" color-interpolation-filters="sRGB">
<feFlood flood-opacity="0" result="BackgroundImageFix"/>
<feGaussianBlur in="BackgroundImage" stdDeviation="50"/>
<feComposite in2="SourceAlpha" operator="in" result="effect1_backgroundBlur_1745_7281"/>
<feBlend mode="normal" in="SourceGraphic" in2="effect1_backgroundBlur_1745_7281" result="shape"/>
</filter>
<filter id="filter1_d_1745_7281" x="40" y="40" width="642" height="163" filterUnits="userSpaceOnUse" color-interpolation-filters="sRGB">
<feFlood flood-opacity="0" result="BackgroundImageFix"/>
<feColorMatrix in="SourceAlpha" type="matrix" values="0 0 0 0 0 0 0 0 0 0 0 0 0 0 0 0 0 0 127 0" result="hardAlpha"/>
<feOffset dx="1" dy="2"/>
<feGaussianBlur stdDeviation="0.5"/>
<feComposite in2="hardAlpha" operator="out"/>
<feColorMatrix type="matrix" values="0 0 0 0 0 0 0 0 0 0 0 0 0 0 0 0 0 0 0.2 0"/>
<feBlend mode="normal" in2="BackgroundImageFix" result="effect1_dropShadow_1745_7281"/>
<feBlend mode="normal" in="SourceGraphic" in2="effect1_dropShadow_1745_7281" result="shape"/>
</filter>
<filter id="filter2_d_1745_7281" x="40" y="40" width="642" height="163" filterUnits="userSpaceOnUse" color-interpolation-filters="sRGB">
<feFlood flood-opacity="0" result="BackgroundImageFix"/>
<feColorMatrix in="SourceAlpha" type="matrix" values="0 0 0 0 0 0 0 0 0 0 0 0 0 0 0 0 0 0 127 0" result="hardAlpha"/>
<feOffset dx="1" dy="2"/>
<feGaussianBlur stdDeviation="0.5"/>
<feComposite in2="hardAlpha" operator="out"/>
<feColorMatrix type="matrix" values="0 0 0 0 0 0 0 0 0 0 0 0 0 0 0 0 0 0 0.2 0"/>
<feBlend mode="normal" in2="BackgroundImageFix" result="effect1_dropShadow_1745_7281"/>
<feBlend mode="normal" in="SourceGraphic" in2="effect1_dropShadow_1745_7281" result="shape"/>
</filter>
<filter id="filter3_d_1745_7281" x="40" y="216" width="642" height="227" filterUnits="userSpaceOnUse" color-interpolation-filters="sRGB">
<feFlood flood-opacity="0" result="BackgroundImageFix"/>
<feColorMatrix in="SourceAlpha" type="matrix" values="0 0 0 0 0 0 0 0 0 0 0 0 0 0 0 0 0 0 127 0" result="hardAlpha"/>
<feOffset dx="1" dy="2"/>
<feGaussianBlur stdDeviation="0.5"/>
<feComposite in2="hardAlpha" operator="out"/>
<feColorMatrix type="matrix" values="0 0 0 0 0 0 0 0 0 0 0 0 0 0 0 0 0 0 0.2 0"/>
<feBlend mode="normal" in2="BackgroundImageFix" result="effect1_dropShadow_1745_7281"/>
<feBlend mode="normal" in="SourceGraphic" in2="effect1_dropShadow_1745_7281" result="shape"/>
</filter>
<filter id="filter4_d_1745_7281" x="40" y="216" width="642" height="227" filterUnits="userSpaceOnUse" color-interpolation-filters="sRGB">
<feFlood flood-opacity="0" result="BackgroundImageFix"/>
<feColorMatrix in="SourceAlpha" type="matrix" values="0 0 0 0 0 0 0 0 0 0 0 0 0 0 0 0 0 0 127 0" result="hardAlpha"/>
<feOffset dx="1" dy="2"/>
<feGaussianBlur stdDeviation="0.5"/>
<feComposite in2="hardAlpha" operator="out"/>
<feColorMatrix type="matrix" values="0 0 0 0 0 0 0 0 0 0 0 0 0 0 0 0 0 0 0.2 0"/>
<feBlend mode="normal" in2="BackgroundImageFix" result="effect1_dropShadow_1745_7281"/>
<feBlend mode="normal" in="SourceGraphic" in2="effect1_dropShadow_1745_7281" result="shape"/>
</filter>
<linearGradient id="paint0_linear_1745_7281" x1="360" y1="0" x2="360" y2="403" gradientUnits="userSpaceOnUse">
<stop offset="0.447917" stop-color="white"/>
<stop offset="0.661458" stop-color="#F0F0F0" stop-opacity="0.1132"/>
<stop offset="1" stop-color="#D9D9D9" stop-opacity="0"/>
</linearGradient>
<linearGradient id="paint1_linear_1745_7281" x1="0" y1="0" x2="758.335" y2="71.0939" gradientUnits="userSpaceOnUse">
<stop stop-color="white" stop-opacity="0.12"/>
<stop offset="1" stop-color="white" stop-opacity="0"/>
</linearGradient>
<linearGradient id="paint2_linear_1745_7281" x1="40" y1="40" x2="680" y2="200" gradientUnits="userSpaceOnUse">
<stop stop-color="white" stop-opacity="0.12"/>
<stop offset="1" stop-color="white" stop-opacity="0"/>
</linearGradient>
<linearGradient id="paint3_linear_1745_7281" x1="150" y1="-34" x2="727" y2="330" gradientUnits="userSpaceOnUse">
<stop stop-color="white" stop-opacity="0.3"/>
<stop offset="1" stop-color="white" stop-opacity="0"/>
</linearGradient>
<linearGradient id="paint4_linear_1745_7281" x1="40" y1="216" x2="698.986" y2="333.676" gradientUnits="userSpaceOnUse">
<stop stop-color="white" stop-opacity="0.12"/>
<stop offset="1" stop-color="white" stop-opacity="0"/>
</linearGradient>
<linearGradient id="paint5_linear_1745_7281" x1="150" y1="112.4" x2="820.489" y2="414.527" gradientUnits="userSpaceOnUse">
<stop stop-color="white" stop-opacity="0.3"/>
<stop offset="1" stop-color="white" stop-opacity="0"/>
</linearGradient>
<linearGradient id="paint6_linear_1745_7281" x1="437.073" y1="368.179" x2="405.073" y2="399.859" gradientUnits="userSpaceOnUse">
<stop stop-color="#5F6BFB"/>
<stop offset="1" stop-color="#724DE4"/>
</linearGradient>
<clipPath id="clip0_1745_7281">
<rect width="18" height="20" fill="white" transform="translate(497 66.25)"/>
</clipPath>
</defs>
</svg>
