<svg width="40" height="40" viewBox="0 0 40 40" fill="none" xmlns="http://www.w3.org/2000/svg">
<path d="M39.3971 24.8381C36.726 35.5525 25.8741 42.0731 15.1584 39.4012C4.44722 36.7301 -2.07335 25.8775 0.598971 15.1639C3.26894 4.44838 14.1209 -2.07268 24.8332 0.598468C35.5481 3.26961 42.0683 14.1234 39.3969 24.8383L39.397 24.8381H39.3971Z" fill="#50AF95"/>
<path fill-rule="evenodd" clip-rule="evenodd" d="M22.5317 22.2677C22.3903 22.2784 21.6596 22.322 20.0297 22.322C18.7334 22.322 17.813 22.2831 17.4901 22.2677C12.4804 22.0474 8.74105 21.1753 8.74105 20.1312C8.74105 19.087 12.4804 18.2161 17.4901 17.9922V21.3992C17.8177 21.4228 18.7558 21.4782 20.0521 21.4782C21.6077 21.4782 22.3867 21.4133 22.527 21.4004V17.9946C27.5261 18.2173 31.2572 19.0894 31.2572 20.1312C31.2572 21.1729 27.5273 22.045 22.527 22.2666L22.5317 22.2677ZM22.5328 17.6422V14.5935H29.5094V9.94434H10.5146V14.5935H17.4901V17.641C11.8204 17.9015 7.55664 19.0246 7.55664 20.3704C7.55664 21.7162 11.8204 22.8381 17.4901 23.0998V32.8694H22.5316V23.0962C28.1884 22.8358 32.445 21.7139 32.445 20.3692C32.445 19.0246 28.1919 17.9026 22.5316 17.641L22.5328 17.6422Z" fill="white"/>
</svg>
