<svg width="32" height="32" viewBox="0 0 32 32" fill="none" xmlns="http://www.w3.org/2000/svg">
<g clip-path="url(#clip0_1899_22177)">
<path d="M16 32C24.8366 32 32 24.8366 32 16C32 7.16344 24.8366 0 16 0C7.16344 0 0 7.16344 0 16C0 24.8366 7.16344 32 16 32Z" fill="#00FF00"/>
<path d="M12.469 6.05563H11.9678L11.6124 6.44209V6.9579L11.6173 6.9632L11.5342 7.07193L11.0152 7.13338L9.75712 8.77136L9.81844 9.30496L9.6722 9.48768L9.69189 9.66906L9.31992 10.0403L9.29005 13.0963L9.65489 13.4812L9.64545 13.7205L9.78103 13.8628L9.72376 14.3679L10.9661 16.0043L11.4851 16.0657L11.5983 16.2016L11.6035 16.2022L11.6004 16.2055V16.7213L11.9558 17.1078H11.9688L11.9633 17.1134L11.9649 17.2962L11.6661 17.6083L11.6 17.6762V20.3539L11.4396 20.5123H8.8354L8.68128 20.3539V19.817L8.31174 19.4387L8.31959 19.2895L8.69387 18.9159L8.71431 16.5277L8.35419 16.1477L8.36388 15.9882L8.70086 15.6417V15.1259L8.32659 14.7394H7.81732L7.74734 14.6786L7.68285 14.145L5.83977 12.693L5.32867 12.7593L5 13.1684L5.06448 13.702L6.90914 15.1686L7.42809 15.1007L7.45305 15.1216L7.44907 15.1259V15.6417L7.80449 16.0266H7.84008L7.83837 16.125L7.46409 16.5002L7.43579 18.8965L7.79906 19.2814L7.79385 19.4387H7.78962L7.43579 19.817V20.3539L7.78962 20.7194H8.31173L8.47999 20.8907V21.4275L8.8354 21.793H11.4396L11.8076 21.4275V20.8907L11.9743 20.7194H12.498L12.8518 20.3539V17.6762L12.498 17.2978L12.4885 17.0973L12.8522 16.7213V16.2055L12.4779 15.8207H11.9639L11.894 15.7343L11.9553 15.2007L10.6972 13.5627L10.1798 13.5012L10.1751 13.4951L10.1754 13.4893L10.5497 13.1157L10.5686 10.0694L10.21 9.68939L10.2118 9.655L10.2273 9.63644L10.7463 9.57499L11.9902 7.93862L11.9289 7.41149L11.9868 7.34273H12.4899L12.8642 6.9579V6.44209L12.8622 6.43998L13.0273 6.29358H18.2537L18.4184 6.43954L18.4159 6.44209V6.9579L18.7902 7.34273H19.2935L19.3514 7.41149L19.2917 7.93862L20.534 9.57499L21.0529 9.63644L21.0685 9.65507L21.0703 9.68939L20.7117 10.0694L20.7306 13.1157L21.1049 13.4893L21.1054 13.4967L21.1019 13.5012L20.5829 13.5627L19.3265 15.2007L19.3863 15.7343L19.3052 15.8343L19.2919 15.8207H18.7698L18.4159 16.2055V16.7213L18.7698 17.1078H18.7787L18.7698 17.2978L18.4159 17.6762V20.3539L18.7698 20.7194H19.2919L19.4601 20.8907V21.4275L19.8281 21.793H22.4323L22.7878 21.4275V20.8907L22.9544 20.7194H23.4765L23.832 20.3539V19.817L23.4765 19.4387H23.474L23.4688 19.2814L23.8321 18.8965L23.8037 16.5002L23.4295 16.125L23.4278 16.0266H23.4637L23.819 15.6417V15.1259L23.8147 15.1213L23.8393 15.1007L24.3583 15.1686L26.2014 13.702L26.2674 13.1684L25.9388 12.7593L25.4277 12.693L23.5846 14.145L23.5201 14.6786L23.4501 14.7394H22.9416L22.5672 15.1259V15.6417L22.9039 15.9879L22.9137 16.1477L22.5536 16.5277L22.5724 18.9159L22.9483 19.2895L22.9561 19.4387H22.9544L22.5865 19.817V20.3539L22.4323 20.5123H19.8281L19.6677 20.3539V17.6762L19.6016 17.6083L19.3013 17.2962L19.3045 17.1134L19.2955 17.1041L19.6677 16.7213V16.2055L19.6658 16.2035L19.6819 16.2016L19.7951 16.0657L20.3141 16.0043L21.558 14.3679L21.5007 13.8623L21.6349 13.7205L21.6254 13.4812L21.9903 13.0963L21.9604 10.0403L21.589 9.66965L21.6097 9.48768L21.4618 9.30496L21.5232 8.77136L20.2651 7.13338L19.7476 7.07193L19.6631 6.96291L19.6677 6.9579V6.44209L19.3123 6.05563H18.8073L18.6438 5.92167V5.38484L18.2491 5H13.0273L12.6326 5.38484V5.92167L12.469 6.05563Z" fill="black"/>
<path d="M14.2208 13.6758H13.6987L13.3433 14.0622V15.4078L13.6987 15.7926H14.2208L14.595 15.4078V14.0622L14.2208 13.6758Z" fill="black"/>
<path d="M17.0609 13.6855H17.583L17.9383 14.072V15.4099L17.583 15.7948H17.0609L16.6865 15.4099V14.072L17.0609 13.6855Z" fill="black"/>
<path d="M14.9175 21.5265L14.9128 21.5233L14.9191 20.9995L14.5543 20.6162L14.0322 20.6113L13.6594 20.9865L13.6547 21.5087L13.499 21.6802L12.9832 21.6753L10.5017 24.1686L10.497 24.7055L10.5179 24.7266L10.496 24.7054L10.3324 24.8655H7.72665L7.57411 24.707V24.1702L7.20455 23.7918H6.68245L6.32861 24.1702V24.707L6.68245 25.0708H7.20455L7.37283 25.2439V25.7807L7.72665 26.1462H10.3324L10.7004 25.7807V25.2439L10.864 25.0742L11.3839 25.0806L13.8655 22.5857L13.8702 22.0617L14.0196 21.892L14.5165 21.8968L14.9175 21.5265Z" fill="black"/>
<path d="M16.3922 21.5265L16.3953 21.5233L16.3906 20.9995L16.7555 20.6162L17.2776 20.6113L17.6487 20.9865L17.6534 21.5087L17.8091 21.6802L18.3249 21.6753L20.8065 24.1686L20.8128 24.7055L20.9758 24.8655H23.58L23.7341 24.707V24.1702L24.1021 23.7918H24.6242L24.9796 24.1702V24.707L24.6242 25.0708H24.1021L23.9354 25.2439V25.7807L23.58 26.1462H20.9758L20.6078 25.7807V25.2439L20.4427 25.0742L19.9258 25.0806L17.4443 22.5857L17.438 22.0617L17.2902 21.892L16.7916 21.8968L16.3922 21.5265Z" fill="black"/>
</g>
<defs>
<clipPath id="clip0_1899_22177">
<rect width="32" height="32" fill="white"/>
</clipPath>
</defs>
</svg>
