<svg width="32" height="32" viewBox="0 0 32 32" fill="none" xmlns="http://www.w3.org/2000/svg">
<circle cx="16" cy="16" r="16" fill="white"/>
<path d="M26.8801 18.467C26.8801 15.3511 25.6389 12.3629 23.4295 10.1597C21.2201 7.9565 18.2235 6.71875 15.0989 6.71875H13.8687V11.5451L9.04 6.73H5.56276L11.4675 12.6229H5.12012V13.8505C5.12037 16.9663 6.36169 19.9543 8.57105 22.1575C10.7804 24.3607 13.7769 25.5985 16.9014 25.5987H18.1325V20.7761L22.9001 25.5313H26.3773L20.5328 19.6946H26.8801V18.467ZM16.3413 17.2393H13.1864C12.8599 17.2393 12.5467 17.3686 12.3158 17.5989C12.0849 17.8291 11.9552 18.1413 11.9552 18.467C11.9552 18.7926 12.0849 19.1048 12.3158 19.3351C12.5467 19.5653 12.8599 19.6946 13.1864 19.6946H15.6702V23.0628C13.6427 22.7901 11.761 21.8611 10.3144 20.4183C8.86785 18.9756 7.93639 17.0992 7.66321 15.0773H18.8139C18.9783 15.0818 19.1421 15.0534 19.2954 14.9938C19.4486 14.9342 19.5884 14.8444 19.7063 14.7301C19.8243 14.6157 19.918 14.4788 19.982 14.3277C20.046 14.1765 20.079 14.0141 20.079 13.8501C20.079 13.686 20.046 13.5236 19.982 13.3725C19.918 13.2213 19.8243 13.0845 19.7063 12.97C19.5884 12.8556 19.4486 12.766 19.2954 12.7063C19.1421 12.6467 18.9783 12.6183 18.8139 12.6229H16.33V9.2547C18.3575 9.52727 20.2392 10.4562 21.686 11.8987C23.1327 13.3412 24.0644 15.2175 24.338 17.2393H16.3413ZM17.7134 13.8084C17.7126 13.6157 17.7692 13.4271 17.8761 13.2665C17.9828 13.1059 18.135 12.9805 18.3133 12.9062C18.4916 12.8319 18.688 12.812 18.8777 12.8491C19.0673 12.8862 19.2416 12.9785 19.3786 13.1144C19.5156 13.2504 19.609 13.4238 19.6471 13.6127C19.6852 13.8016 19.6662 13.9976 19.5925 14.1757C19.5189 14.3539 19.3939 14.5062 19.2334 14.6135C19.0728 14.7207 18.884 14.7781 18.6907 14.7783C18.4323 14.7786 18.1843 14.6766 18.001 14.4948C17.8178 14.3129 17.7144 14.0661 17.7134 13.8084Z" fill="url(#paint0_linear_1899_22197)"/>
<defs>
<linearGradient id="paint0_linear_1899_22197" x1="5.12012" y1="16.3369" x2="26.8801" y2="16.3369" gradientUnits="userSpaceOnUse">
<stop stop-color="#C2FC50"/>
<stop offset="1" stop-color="#4EA338"/>
</linearGradient>
</defs>
</svg>
