<svg width="32" height="32" viewBox="0 0 32 32" fill="none" xmlns="http://www.w3.org/2000/svg">
<rect width="32" height="32" rx="16" fill="black"/>
<path d="M20.7068 4.61032C20.6899 4.51481 20.6544 4.42354 20.6023 4.34174C20.5502 4.25994 20.4825 4.1892 20.403 4.13357C20.3236 4.07794 20.234 4.0385 20.1393 4.01751C20.0446 3.99651 19.9467 3.99438 19.8512 4.01122C19.7556 4.02806 19.6644 4.06356 19.5826 4.11567C19.5008 4.16779 19.43 4.2355 19.3744 4.31495C19.3188 4.3944 19.2793 4.48404 19.2583 4.57873C19.2373 4.67342 19.2352 4.77132 19.2521 4.86684L19.5896 6.78262C19.0123 6.3338 18.3534 6.00116 17.6495 5.80313C16.6793 5.52211 15.6475 5.53621 14.6854 5.84363C13.7012 6.1258 12.8141 6.67799 12.0237 7.46846L9.96411 9.52803C8.7362 10.7566 7.99028 12.1053 7.82017 13.5742C7.64736 15.0465 8.11516 16.344 9.17971 17.4085L10.1828 18.4116C11.0813 19.3094 12.1688 19.7725 13.4116 19.7577H13.4197C14.6563 19.7286 15.8856 19.2338 17.0973 18.3603C17.2479 18.2428 17.3471 18.0716 17.3741 17.8826C17.4012 17.6935 17.3539 17.5013 17.2423 17.3464C17.1306 17.1914 16.9633 17.0857 16.7754 17.0515C16.5876 17.0173 16.3937 17.0572 16.2346 17.1628C15.1869 17.9168 14.2432 18.2604 13.39 18.2813C12.5678 18.2901 11.8583 17.9985 11.2271 17.3673L10.224 16.3642C9.4666 15.6068 9.16823 14.7529 9.28704 13.7464V13.7444C9.40855 12.6866 9.95128 11.6294 11.0084 10.5723L13.068 8.51276C13.7093 7.87147 14.387 7.46441 15.0999 7.26055L15.11 7.25785L15.1188 7.25448C15.8091 7.03083 16.5507 7.02025 17.2472 7.2241L17.2539 7.22545C17.7803 7.37422 18.2725 7.62465 18.7026 7.9626L16.8563 8.28797C16.7608 8.30481 16.6695 8.3403 16.5877 8.39242C16.5059 8.44453 16.4352 8.51225 16.3796 8.5917C16.2672 8.75216 16.2232 8.95068 16.2572 9.14359C16.2912 9.3365 16.4005 9.50799 16.5609 9.62035C16.7214 9.7327 16.9199 9.77671 17.1128 9.74269L21.4757 8.97314L20.7061 4.61032H20.7068Z" fill="white"/>
<path d="M22.0083 18.4008C21.8868 19.4593 21.3447 20.5164 20.2876 21.5735L18.228 23.6324C17.5867 24.2744 16.909 24.6814 16.1955 24.8853L16.186 24.888L16.1766 24.8907C15.4865 25.1145 14.7451 25.1253 14.0488 24.9218L14.0421 24.9197C13.4953 24.7692 12.9687 24.4945 12.4645 24.0807L14.4484 23.731C14.544 23.7141 14.6352 23.6786 14.717 23.6265C14.7988 23.5744 14.8696 23.5067 14.9252 23.4272C14.9808 23.3478 15.0203 23.2582 15.0413 23.1635C15.0622 23.0688 15.0644 22.9709 15.0475 22.8754C15.0307 22.7798 14.9952 22.6886 14.9431 22.6068C14.891 22.525 14.8233 22.4542 14.7438 22.3986C14.6644 22.343 14.5747 22.3035 14.48 22.2825C14.3853 22.2616 14.2874 22.2594 14.1919 22.2763L9.8291 23.0458L10.5987 27.4086C10.637 27.5973 10.7476 27.7635 10.9067 27.8719C11.0659 27.9803 11.261 28.0222 11.4506 27.9888C11.6403 27.9553 11.8093 27.8491 11.9218 27.6928C12.0342 27.5366 12.0812 27.3425 12.0527 27.1521L11.7422 25.3902C12.3108 25.8255 12.9571 26.1485 13.6465 26.3421C14.6164 26.6232 15.648 26.6093 16.6099 26.3022C17.5948 26.0194 18.4818 25.4672 19.2723 24.6774L21.3319 22.6172C22.5598 21.3899 23.3057 20.0405 23.4758 18.5709C23.6486 17.0993 23.1808 15.8019 22.1156 14.7367L21.1132 13.7342C20.2147 12.8358 19.1265 12.3733 17.8844 12.3875H17.8756C16.6396 12.4166 15.4097 12.912 14.1987 13.7849C14.1171 13.8403 14.0475 13.9116 13.9939 13.9944C13.9403 14.0773 13.9039 14.17 13.8867 14.2671C13.8696 14.3643 13.872 14.4639 13.894 14.56C13.916 14.6562 13.957 14.747 14.0147 14.827C14.0723 14.9071 14.1454 14.9748 14.2296 15.0261C14.3139 15.0775 14.4075 15.1114 14.5051 15.126C14.6027 15.1405 14.7021 15.1354 14.7977 15.1108C14.8932 15.0863 14.9829 15.0428 15.0614 14.9831C16.1084 14.229 17.0528 13.8854 17.906 13.8645C18.7282 13.8557 19.4377 14.1467 20.0689 14.7785L21.0713 15.781C21.8294 16.5391 22.1271 17.3923 22.0089 18.3995V18.4008H22.0083Z" fill="white"/>
</svg>
