<svg width="32" height="32" viewBox="0 0 32 32" fill="none" xmlns="http://www.w3.org/2000/svg">
<circle cx="16" cy="16" r="16" fill="white"/>
<path d="M26.1714 22.4003H23.2557H21.6722C20.7047 22.4003 20.2998 21.6079 20.2182 21.2116C20.1475 20.8717 20.0468 20.5432 19.9191 20.2288C19.7036 19.5504 20.0703 19.18 20.2805 19.0796L22.0824 18.043C22.3307 18.4554 22.5308 18.9039 22.6969 19.3673C22.7922 19.6237 23.1477 20.0987 23.807 19.9471L25.7802 19.4245C26.0292 20.381 26.1714 21.373 26.1714 22.4003Z" fill="url(#paint0_linear_1899_22184)"/>
<path fill-rule="evenodd" clip-rule="evenodd" d="M22.7568 14.2143C21.3345 12.7973 19.5567 11.7345 17.5299 11.2031L16.7832 14.0018C18.2766 14.3914 19.6278 15.2062 20.6945 16.269L22.7568 14.2143Z" fill="url(#paint1_linear_1899_22184)"/>
<path d="M6.97014 18.0072C6.22344 19.318 5.79675 20.8058 5.79675 22.4H4.47124C4.18749 22.4 3.7551 22.3017 3.33624 21.8575C3.00114 21.502 2.97921 20.9376 3.01013 20.6997C3.18123 19.5746 3.51553 18.5013 3.9713 17.4977C4.09741 17.2047 4.5388 16.7036 5.29545 17.0437L6.97014 18.0072Z" fill="url(#paint2_linear_1899_22184)"/>
<path d="M26.1705 22.3973C26.1705 21.37 26.0282 20.3781 25.7793 19.4216L27.6165 18.935C27.944 18.8493 28.644 18.8797 28.8239 19.6874C28.8918 20.0365 28.9471 20.3919 28.9892 20.7509C29.0226 20.9573 28.992 21.4806 28.6029 21.9221C28.2137 22.3636 27.657 22.3973 27.5084 22.3973H26.1705Z" fill="#ABDA02"/>
<path d="M20.6953 16.2727L22.7576 14.218L24.1279 12.8528C24.3677 12.6284 24.9835 12.3277 25.5295 12.9201C25.9248 13.3724 26.2935 13.8513 26.6318 14.3605C26.7739 14.6458 26.9052 15.3045 26.293 15.6567L24.6066 16.6269L22.082 18.0793C21.6909 17.4063 21.2287 16.8041 20.6953 16.2727Z" fill="#ABDA02"/>
<path d="M20.3749 12.3738C18.6682 11.3819 16.677 10.815 14.5435 10.815C13.8119 10.815 13.0982 10.8864 12.4024 11.0164C11.7862 11.1321 11.4365 10.6451 11.3386 10.3871L11.0584 9.33711C10.993 9.0178 11.0404 8.34035 11.7538 8.18505C12.6552 8.00653 13.5994 7.91016 14.5435 7.91016C16.8161 7.91016 18.9826 8.43867 20.9284 9.38159C21.2077 9.5124 21.685 9.9538 21.3608 10.6729L20.3749 12.3738Z" fill="#ABDA02"/>
<path d="M14.5084 13.7188C15.2907 13.7188 16.0729 13.825 16.784 14.0022L16.2655 15.9457C16.1985 16.1995 15.897 16.6916 15.2268 16.6293C15.006 16.6019 14.7784 16.5882 14.5439 16.5882C11.7164 16.5882 9.37756 18.5901 8.83253 21.2227C8.78854 21.4067 8.62488 21.8312 8.32222 22.0574C7.94389 22.34 7.63312 22.398 7.3899 22.398H5.79688C5.79688 17.5801 9.70817 13.7188 14.5084 13.7188Z" fill="#ABDA02"/>
<defs>
<linearGradient id="paint0_linear_1899_22184" x1="23.0124" y1="18.043" x2="23.0124" y2="22.4003" gradientUnits="userSpaceOnUse">
<stop stop-color="#6410D6"/>
<stop offset="1" stop-color="#A310D6"/>
</linearGradient>
<linearGradient id="paint1_linear_1899_22184" x1="19.77" y1="11.2031" x2="19.77" y2="16.269" gradientUnits="userSpaceOnUse">
<stop stop-color="#6410D6"/>
<stop offset="1" stop-color="#A310D6"/>
</linearGradient>
<linearGradient id="paint2_linear_1899_22184" x1="4.98507" y1="16.9297" x2="4.98507" y2="22.4" gradientUnits="userSpaceOnUse">
<stop stop-color="#6410D6"/>
<stop offset="1" stop-color="#A310D6"/>
</linearGradient>
</defs>
</svg>
