<svg width="32" height="32" viewBox="0 0 32 32" fill="none" xmlns="http://www.w3.org/2000/svg">
<circle cx="16" cy="16" r="16" fill="white"/>
<g clip-path="url(#clip0_1899_22200)">
<path d="M15.3994 19.8696L8.95114 21.3624C8.71594 21.4213 8.53955 21.657 8.53955 21.8927V26.3318C8.53955 26.705 8.83355 26.9406 9.20593 26.8621L18.2021 24.7801C18.5745 24.7015 18.7313 24.3479 18.5745 24.014L16.9478 20.6553C16.693 20.1249 16.9478 19.575 17.5162 19.4571L23.396 18.0429C23.8077 17.9447 24.1604 17.5126 24.1604 17.0804V12.9753C24.1604 12.6021 23.8663 12.3468 23.494 12.445L15.0074 14.4681C14.4782 14.5859 14.243 15.0966 14.4782 15.5877L15.9678 18.6714C16.2226 19.2018 15.9678 19.7321 15.3994 19.8696Z" fill="black"/>
<path d="M11.1464 8.77207L12.8319 12.229C13.0475 12.6808 12.8319 13.1522 12.3419 13.2504L9.2256 13.9772C8.8336 14.0754 8.52002 14.4682 8.52002 14.861V18.5734C8.52002 19.2019 9.02961 19.5947 9.63719 19.4572L12.5379 18.7894C12.9299 18.7108 13.2435 18.2984 13.2435 17.9055L13.2631 14.095C13.2631 13.5647 13.6943 13.0343 14.2039 12.9165L23.7097 10.638C23.9448 10.5791 24.1213 10.3434 24.1213 10.1077V5.66866C24.1213 5.29546 23.8273 5.04012 23.4549 5.13833L11.5188 8.00603C11.1464 8.08461 10.9896 8.43815 11.1464 8.77207Z" fill="black"/>
</g>
<defs>
<clipPath id="clip0_1899_22200">
<rect width="21.76" height="21.76" fill="white" transform="translate(5.12012 5.11719)"/>
</clipPath>
</defs>
</svg>
