<svg width="32" height="32" viewBox="0 0 32 32" fill="none" xmlns="http://www.w3.org/2000/svg">
<rect width="32" height="32" rx="16" fill="white"/>
<path d="M26.0708 17.5959C26.5466 18.1777 26.8339 18.8307 26.9531 19.5717C27.2759 21.5822 25.8974 23.6166 23.9802 23.9312C23.6869 23.9793 23.3861 23.9953 23.0888 23.9957C19.297 23.9999 15.5057 24.0011 11.7139 23.9978C8.38163 23.9944 5.50125 21.9181 4.45518 18.6205C3.48044 15.5473 4.07381 12.7581 6.21019 10.402C7.72131 8.73455 9.62456 7.97348 11.8111 8.0007C15.3929 8.0451 18.5558 10.9126 19.1313 14.622C19.4098 16.4173 19.1583 18.1212 18.3629 19.7346C17.909 20.6553 16.7414 20.7453 16.227 19.8992C15.9616 19.4628 15.9691 19.0121 16.1891 18.5488C17.0782 16.6761 17.0283 14.8277 15.9651 13.0559C14.2528 10.2018 10.4427 9.7197 8.10826 12.0377C7.03549 13.1028 6.47161 14.4222 6.46802 15.9661C6.46124 18.9158 8.59124 21.1022 11.0357 21.3853C11.2528 21.4105 11.4724 21.4214 11.6908 21.4214C15.5754 21.4235 19.46 21.4235 23.3446 21.4222C23.9408 21.4222 24.4481 20.9602 24.5381 20.3449C24.6286 19.7258 24.26 19.1118 23.6853 18.9371C23.5658 18.9007 23.4383 18.8827 23.3131 18.8772C22.6353 18.8492 22.116 18.2992 22.114 17.6001C22.1121 16.8918 22.6389 16.331 23.3231 16.3134C24.0392 16.295 24.5744 15.7127 24.5473 14.9814C24.5214 14.2828 23.9484 13.7336 23.2757 13.7659C22.9931 13.7793 22.758 13.9091 22.5325 14.0825C21.9869 14.5014 21.2365 14.3753 20.8301 13.809C20.4403 13.2662 20.5348 12.4838 21.0477 12.0448C21.5362 11.6263 22.0941 11.3587 22.715 11.2527C24.6788 10.9172 26.48 12.1868 26.9072 14.2279C27.1539 15.4057 26.8981 16.4813 26.1943 17.4363C26.1581 17.4858 26.1198 17.5335 26.0716 17.5968L26.0708 17.5959Z" fill="url(#paint0_linear_2096_7180)"/>
<defs>
<linearGradient id="paint0_linear_2096_7180" x1="4" y1="8" x2="27" y2="24" gradientUnits="userSpaceOnUse">
<stop stop-color="#3CB06F"/>
<stop offset="1" stop-color="#04AF90"/>
</linearGradient>
</defs>
</svg>
