<svg width="32" height="32" viewBox="0 0 32 32" fill="none" xmlns="http://www.w3.org/2000/svg">
<path d="M16 32C24.8366 32 32 24.8366 32 16C32 7.16344 24.8366 0 16 0C7.16344 0 0 7.16344 0 16C0 24.8366 7.16344 32 16 32Z" fill="#22BA79"/>
<mask id="mask0_1899_22211" style="mask-type:alpha" maskUnits="userSpaceOnUse" x="5" y="5" width="22" height="22">
<path d="M8.49562 8.41139C7.97158 8.93447 7.514 9.49962 7.12193 10.0953C6.80917 10.5695 6.53784 11.0647 6.30921 11.573C4.53254 15.5143 5.26112 20.3177 8.49562 23.5512C12.67 27.7269 19.4614 27.7269 23.6354 23.5512C27.8095 19.3775 27.8095 12.5858 23.6354 8.41139C21.5482 6.32452 18.807 5.28125 16.0657 5.28125C13.3241 5.28125 10.5828 6.32452 8.49562 8.41139ZM15.0683 18.6168C12.5326 17.5876 10.0334 16.4843 7.69414 15.0531L7.68932 15.0503C7.39327 14.8708 7.24524 14.5227 7.31459 14.1833C7.40579 13.7353 7.53134 13.2932 7.69189 12.86C8.02038 11.9734 8.49434 11.1289 9.11471 10.364C9.31027 10.1216 9.52027 9.88751 9.74568 9.6621C13.23 6.17746 18.8998 6.17746 22.3854 9.6621C23.1602 10.4366 23.7623 11.3196 24.1925 12.2627C24.4854 12.9059 23.8891 13.5953 23.2116 13.3943C22.6291 13.2225 22.0456 13.0555 21.4587 12.9011C20.1049 12.5437 18.7337 12.2441 17.3665 11.9301C17.1353 11.8774 17.047 11.7843 17.1167 11.548C17.2387 11.1373 17.3479 10.7227 17.4638 10.3107C17.5832 9.88173 17.3678 9.6576 16.9275 9.7626C16.6238 9.83549 16.3232 9.92187 16.0191 9.99701C14.824 10.2927 13.6291 10.5814 12.4385 10.8858C12.0185 10.9915 11.9523 11.2118 12.233 11.5322C12.5072 11.8463 12.8036 12.1404 13.091 12.4419C13.9156 13.3044 14.7344 14.1707 15.5657 15.0262C15.8753 15.3437 16.0776 15.3036 16.2224 14.8881C16.3694 14.4639 16.4854 14.0253 16.5875 13.5863C16.6556 13.2887 16.7994 13.2392 17.0624 13.3465C19.5982 14.3753 22.0977 15.4789 24.4369 16.9101C24.4388 16.9111 24.4404 16.912 24.442 16.9133C24.7365 17.0922 24.8865 17.4383 24.8174 17.7761C24.7808 17.9579 24.7384 18.1393 24.6899 18.3194C24.5265 18.9254 24.2985 19.5178 24.0057 20.0849C23.5943 20.8828 23.0539 21.6323 22.3854 22.3011C21.7274 22.9588 20.9902 23.4928 20.2054 23.9031C16.836 25.6615 12.5724 25.1275 9.74568 22.3011C8.97086 21.5263 8.36846 20.6436 7.9385 19.7005C7.64501 19.0577 8.2413 18.3679 8.91948 18.5686C9.50164 18.7404 10.0854 18.9074 10.6724 19.0625C12.0262 19.4195 13.397 19.7188 14.7642 20.0329C14.9954 20.0862 15.0837 20.1786 15.0144 20.4143C14.8927 20.8257 14.7832 21.2399 14.666 21.6515C14.5469 22.0812 14.7633 22.3056 15.2019 22.2006C15.506 22.1274 15.8078 22.0414 16.1116 21.9662C17.3058 21.6699 18.5006 21.3812 19.6922 21.0774C20.1116 20.9714 20.1787 20.7518 19.8981 20.4307C19.6235 20.1167 19.3275 19.8228 19.0401 19.52C18.2152 18.6588 17.3954 17.7909 16.565 16.9364C16.2561 16.6182 16.0535 16.659 15.9083 17.0745C15.7619 17.4993 15.6454 17.938 15.5436 18.3766C15.4967 18.5808 15.4142 18.6688 15.2819 18.6688C15.2215 18.6688 15.1505 18.6505 15.0683 18.6168Z" fill="white"/>
</mask>
<g mask="url(#mask0_1899_22211)">
<path fill-rule="evenodd" clip-rule="evenodd" d="M4.50098 27.7165H27.9738V3.89844H4.50098V27.7165Z" fill="white"/>
</g>
</svg>
