<svg width="32" height="32" viewBox="0 0 32 32" fill="none" xmlns="http://www.w3.org/2000/svg">
<rect width="32" height="32" rx="16" fill="#7F1FFF"/>
<g clip-path="url(#clip0_2111_7654)">
<path d="M23.691 20.8466C25.6333 21.3282 27.5586 20.5985 28.4915 19.5417C28.0349 19.0928 27.5795 18.6451 27.1237 18.197C25.6602 19.522 23.6522 19.1846 22.6108 18.0067C21.5813 16.8426 21.6102 15.0518 22.6632 13.9356C23.7545 12.7786 25.7198 12.5292 27.1216 13.8085C27.5812 13.3558 28.0404 12.9031 28.5 12.4504C27.3167 11.2038 25.1648 10.5783 23.1505 11.3241C21.0871 12.0878 19.7488 14.1066 19.8676 16.2696C19.9865 18.438 21.5536 20.3163 23.691 20.8466V20.8466Z" fill="white"/>
<path d="M8.49898 20.9997C11.2689 21.0391 13.6717 18.8217 13.6619 16.0094C13.6624 13.2814 11.4031 11.0454 8.68725 11.001C5.91132 10.9553 3.5017 13.1615 3.5 15.9922C3.4983 18.7232 5.76266 20.9608 8.49898 20.9997ZM8.58417 12.9506C10.2944 12.951 11.6821 14.3188 11.6817 16.0031C11.6813 17.6857 10.291 19.0518 8.57991 19.051C6.86928 19.0501 5.48324 17.6836 5.48366 15.9985C5.48451 14.3142 6.87227 12.9498 8.58417 12.9506V12.9506Z" fill="white"/>
</g>
<defs>
<clipPath id="clip0_2111_7654">
<rect width="25" height="10" fill="white" transform="translate(3.5 11)"/>
</clipPath>
</defs>
</svg>
