<svg width="32" height="32" viewBox="0 0 32 32" fill="none" xmlns="http://www.w3.org/2000/svg">
<circle cx="15.9997" cy="15.9997" r="15.9997" fill="white"/>
<path d="M2.2293e-05 15.8008V16.0664C-0.0057623 19.5106 1.11434 22.8631 3.19108 25.6173L3.2533 25.697L11.862 17.2215L5.44437 10.8129H14.0353L16.1997 12.9683L21.0885 8.25476H27.5284L6.51546 28.9013C9.23199 30.8988 12.5163 31.9839 15.8931 31.9994H15.9997C20.1973 32 24.227 30.3578 27.22 27.427C30.213 24.4962 31.9295 20.5114 31.9994 16.3319V16.0664C32.0348 11.8407 30.383 7.77405 27.4075 4.76112C24.432 1.7482 20.3765 0.0357682 16.1331 0.000553975C11.8897 -0.0346602 7.80604 1.61022 4.78051 4.57335C1.75498 7.53647 0.0353839 11.5751 2.2293e-05 15.8008ZM18.4886 23.6523L16.3419 21.5234L20.6663 17.3454L27.1106 23.6523H18.4886Z" fill="url(#paint0_radial_1899_22194)"/>
<defs>
<radialGradient id="paint0_radial_1899_22194" cx="0" cy="0" r="1" gradientUnits="userSpaceOnUse" gradientTransform="translate(29.4205 1.4841) scale(42.2392 42.0632)">
<stop stop-color="#15D9E1"/>
<stop offset="0.63" stop-color="#0D58EF"/>
<stop offset="1" stop-color="#080285"/>
</radialGradient>
</defs>
</svg>
