<svg width="160" height="160" viewBox="0 0 160 160" fill="none" xmlns="http://www.w3.org/2000/svg">
<rect width="160" height="160" rx="40" fill="url(#paint0_radial_1602_3427)"/>
<path d="M98.3647 58.0827C95.8382 57.791 93.4086 57.6939 93.4086 57.6939C93.4086 57.6939 109.783 64.1563 107.84 84.1751C107.708 84.013 107.551 83.8213 107.384 83.6181L106.962 83.1053C106.7 82.7868 106.443 82.4758 106.247 82.2355C106.059 82.0044 105.926 81.8386 105.896 81.7943L105.898 81.81L105.904 81.8451C106.04 82.7604 107.677 93.7842 95.8867 102.639C96.324 100.987 96.6641 98.5575 96.6641 98.5575C96.6641 98.5575 92.2424 106.04 83.1563 107.304H83.1077C84.7597 105.797 85.7801 104.485 85.7801 104.485C85.7801 104.485 82.8648 106.478 77.3743 106.478C74.7989 106.478 71.6407 106.04 67.8992 104.728C69.114 105.02 70.3288 105.166 71.5921 105.166C79.7551 105.166 86.3632 99.0434 86.3632 91.4635C86.3632 87.1876 84.2739 83.3491 80.9212 80.8225L80.5269 81.3301C80.3678 81.5352 80.1708 81.7893 79.9556 82.0675C79.415 82.766 78.759 83.6163 78.2974 84.2237C77.5685 85.2441 76.9369 86.2644 77.0826 87.4306C77.2771 88.694 76.8884 89.9573 76.1595 90.8804C75.8512 91.24 75.19 91.8168 74.4773 92.4386C74.3476 92.5518 74.2162 92.6664 74.0848 92.7814C73.5727 93.2304 73.0622 93.6862 72.661 94.0874C71.9322 94.7675 70.9118 94.9134 70.1344 94.9134C70.1138 94.9134 70.0934 94.9132 70.0731 94.9129C70.0507 94.9125 70.0286 94.912 70.0068 94.9113C69.9549 94.9096 69.9042 94.9069 69.8548 94.9038C69.7758 94.8989 69.7 94.8925 69.6273 94.8864L69.6243 94.8861L69.6224 94.8858L69.5407 94.8791L69.4755 94.874C69.3998 94.8685 69.3278 94.8648 69.2598 94.8648H69.114C68.5308 94.8648 68.288 95.0106 67.462 95.7393C67.2676 95.9337 66.8303 96.0309 66.3444 96.0309C64.9839 96.0309 62.9432 95.3993 62.1172 95.1077C60.9996 94.6704 59.7362 90.7347 59.6391 89.8115C59.5811 89.2609 60.2835 87.9326 60.9013 86.7645C61.3194 85.974 61.6986 85.2569 61.777 84.904C61.9714 84.0294 62.8459 76.8867 62.9432 76.0607C63.0403 75.2346 62.9916 74.6515 62.3114 73.534C61.8255 72.708 61.8255 71.882 62.3114 70.1328C60.2862 68.812 54.0766 63.6836 52.5306 62.4067C52.3703 62.2744 52.2601 62.1835 52.2099 62.1424C51.9183 61.8994 52.0156 61.7536 52.0156 61.7536C52.0156 61.7536 52.1127 61.6078 52.4529 61.6565C52.6958 61.705 56.2864 62.5528 60.8052 64.2049C58.9588 58.4713 62.8945 55.0215 62.8945 55.0215C62.8945 55.0215 63.5262 57.4995 64.2065 59.2002C66.8788 51.1829 74.4588 51.9118 74.4588 51.9118L72.5639 54.9243L72.5698 54.9207C72.867 54.7422 76.9326 52.3004 82.9133 52.3004C87.2864 52.3004 92.6799 53.6124 98.3647 58.0827Z" fill="white"/>
<path d="M99.2894 58.4634C99.119 58.8772 98.6946 59.1274 98.2501 59.0761C98.0919 59.0578 97.934 59.0403 97.777 59.0236C99.0958 59.9404 100.606 61.1649 102.083 62.7444C106.104 67.0438 109.838 73.9399 108.835 84.2717C108.796 84.6754 108.517 85.0155 108.128 85.1325C107.74 85.2496 107.319 85.1204 107.064 84.8056C107.056 84.7963 107.048 84.787 107.041 84.7775C106.889 89.0323 105.281 96.8348 96.4872 103.439C96.1466 103.694 95.6814 103.706 95.3281 103.468C94.9748 103.231 94.811 102.795 94.92 102.383C94.9293 102.348 94.9386 102.312 94.9478 102.277C94.6537 102.576 94.334 102.886 93.9886 103.198C91.6453 105.319 88.0902 107.627 83.294 108.294C83.2484 108.3 83.2024 108.304 83.1563 108.304H83.1077C82.6948 108.304 82.3244 108.05 82.1752 107.665C82.0837 107.429 82.087 107.173 82.1737 106.946C80.8665 107.252 79.2622 107.478 77.3743 107.478C74.6825 107.478 71.4126 107.02 67.5684 105.672C67.0658 105.496 66.7895 104.957 66.9399 104.446C67.0904 103.935 67.6147 103.632 68.1326 103.756C69.2716 104.029 70.408 104.166 71.5921 104.166C79.2752 104.166 85.3632 98.4214 85.3632 91.4635C85.3632 87.8593 83.753 84.5773 81.0847 82.2427C80.9798 82.378 80.866 82.525 80.7465 82.6795L80.7464 82.6796C80.2094 83.3733 79.5608 84.2142 79.1026 84.817C78.365 85.8508 77.9876 86.5676 78.0734 87.2948C78.3073 88.8463 77.8297 90.3789 76.9443 91.5001C76.936 91.5107 76.9274 91.521 76.9187 91.5312C76.5624 91.9468 75.8626 92.5573 75.2019 93.1336L75.1347 93.1922L74.4773 92.4386L75.1347 93.1922L75.1002 93.2223C74.9816 93.3257 74.8626 93.4295 74.7438 93.5336C74.2313 93.9829 73.7434 94.4192 73.3681 94.7945C73.36 94.8026 73.3517 94.8106 73.3433 94.8184C72.3319 95.7624 70.9894 95.9134 70.1344 95.9134L99.2894 58.4634ZM99.2894 58.4634C99.4598 58.0497 99.3346 57.5731 98.9829 57.2966C93.1161 52.6833 87.5033 51.3004 82.9133 51.3004C79.7403 51.3004 77.0818 51.9576 75.1867 52.6327L75.3053 52.4442C75.49 52.1506 75.5093 51.7822 75.3563 51.4708C75.2034 51.1594 74.8999 50.9496 74.5546 50.9164L74.4588 51.9118C74.5546 50.9164 74.554 50.9163 74.5534 50.9163L74.5521 50.9161L74.5489 50.9158L74.5405 50.9151L74.5154 50.913C74.4951 50.9114 74.4675 50.9094 74.4331 50.9074C74.3644 50.9032 74.2684 50.8987 74.148 50.8963C73.9076 50.8915 73.5689 50.8949 73.1572 50.926C72.3363 50.9882 71.2106 51.1618 69.9895 51.611C68.0341 52.3303 65.8673 53.7476 64.3313 56.4505C64.3052 56.3629 64.2799 56.2769 64.2553 56.1928C64.1361 55.7847 64.0378 55.4285 63.9693 55.1748C63.9351 55.048 63.9084 54.947 63.8904 54.8781L63.87 54.7998L63.865 54.7802L63.8638 54.7756L63.8635 54.7746L63.8635 54.7745C63.8635 54.7745 63.8635 54.7744 63.8635 54.7744C63.7776 54.4375 63.5228 54.1694 63.1907 54.0664C62.8586 53.9634 62.4968 54.0403 62.2353 54.2695L62.8945 55.0215C62.2353 54.2695 62.2349 54.2699 62.2345 54.2702L62.2336 54.271L62.2315 54.2729L62.2262 54.2776L62.2115 54.2908C62.1998 54.3014 62.1845 54.3155 62.1659 54.3329C62.1287 54.3679 62.0782 54.4167 62.0168 54.479C61.8941 54.6035 61.7273 54.7827 61.5365 55.0144C61.1556 55.4769 60.6732 56.1554 60.2549 57.0326C59.5835 58.4403 59.0845 60.3485 59.419 62.6552C55.6949 61.3867 52.9073 60.7275 52.6486 60.6758C52.6306 60.6723 52.6126 60.6692 52.5945 60.6666C52.2683 60.6199 51.9613 60.6544 51.6928 60.7765C51.5622 60.8358 51.4549 60.9097 51.3691 60.9865C51.3267 61.0245 51.2904 61.0624 51.2597 61.0984C51.2443 61.1164 51.2303 61.1339 51.2177 61.1508C51.2113 61.1592 51.2053 61.1675 51.1996 61.1756L51.1912 61.1875L51.1872 61.1934L51.1853 61.1963L51.1843 61.1977C51.184 61.1982 51.1836 61.1987 51.4687 61.389C51.1834 61.1991 51.183 61.1997 51.1826 61.2003L51.1814 61.2021L51.1791 61.2057L51.1743 61.213L51.1648 61.2281C51.1584 61.2385 51.1519 61.2494 51.1454 61.2608C51.1324 61.2837 51.1192 61.3088 51.1064 61.3361C51.0808 61.3908 51.0564 61.4548 51.0374 61.5275C50.9984 61.6769 50.9858 61.8501 51.0195 62.0357C51.0876 62.4101 51.3147 62.698 51.5697 62.9106L51.5697 62.9106L51.5763 62.916C51.6246 62.9556 51.7326 63.0447 51.8938 63.1778C51.8939 63.1778 51.8939 63.1779 51.894 63.1779L51.92 63.1995C53.3494 64.38 58.6921 68.7927 61.1685 70.5601C60.8346 71.9836 60.84 73.005 61.4494 74.041L61.4572 74.054C61.765 74.5597 61.8891 74.8789 61.9419 75.1204C61.9928 75.3531 61.9929 75.5794 61.95 75.9439C61.9019 76.353 61.6594 78.3416 61.4046 80.3375C61.1449 82.3719 60.885 84.3081 60.8008 84.6871C60.8012 84.6855 60.7982 84.6988 60.7873 84.7307C60.7769 84.7614 60.7618 84.8016 60.741 84.8522C60.6989 84.9545 60.641 85.0812 60.5674 85.2324C60.4194 85.5364 60.2287 85.8972 60.0173 86.2969L60.0173 86.297L60.0082 86.3141C59.7057 86.8862 59.3633 87.5335 59.1045 88.1099C58.9737 88.4013 58.8533 88.6981 58.7687 88.9749C58.6923 89.2248 58.6082 89.5706 58.6446 89.9161L99.2894 58.4634ZM70.0237 95.9121C70.0343 95.9124 70.0449 95.9126 70.0554 95.9127L70.0068 94.9113L69.9738 95.9107C69.9738 95.9107 69.9738 95.9107 69.9739 95.9107C69.9905 95.9113 70.0071 95.9117 70.0237 95.9121ZM63.5571 55.7705L63.5571 55.7705L63.5571 55.7705Z" stroke="#2D7DC8" stroke-opacity="0.5" stroke-width="2" stroke-linejoin="round"/>
<path d="M63.146 82.4288L64.7008 70.7189L52.7188 62.1909L63.5347 65.5197L66.45 61.0495L77.0911 54.4414L100.56 67.3661L101.774 87.0934L91.3278 101.622L83.0676 102.885L87.3435 95.0621V87.5308L84.2338 81.6514L81.0754 79.5621L76.2165 84.5668V89.8631L72.4265 93.41L67.6162 93.9931L65.4783 95.2079L61.9798 94.0903L60.5221 88.8426L63.146 85.1499V82.4288Z" fill="white"/>
<path d="M84.7142 61.2506C82.139 60.7161 79.3209 60.8619 79.3209 60.8619C79.3209 60.8619 78.3976 65.1378 72.6641 66.2553C72.7127 66.2553 80.244 68.8306 84.7142 61.2506Z" fill="#94A6C3"/>
<path d="M87.0405 100.02C90.1502 97.5904 92.4825 94.2378 93.5514 90.4478C93.6 90.302 94.0373 90.0591 94.3289 89.8648C94.8148 89.5732 95.3007 89.3302 95.3978 88.9415C95.5922 87.824 95.6894 86.6579 95.6894 85.4917C95.6894 85.0544 95.252 84.6171 94.8148 84.1798C94.4746 83.8882 94.1345 83.5482 94.1345 83.3052C93.6486 78.8836 91.6079 74.7534 88.3523 71.7409L88.0123 72.0811C91.1705 75.045 93.2113 79.0779 93.6486 83.3538C93.6972 83.7425 94.0859 84.1312 94.4746 84.5199C94.8148 84.8115 95.2035 85.2487 95.2035 85.4431C95.2035 86.5607 95.1063 87.6782 94.9119 88.7958C94.8633 88.9902 94.4261 89.1845 94.0859 89.3789C93.6 89.6218 93.1627 89.8648 93.0656 90.2535C91.8994 94.3835 89.2269 97.9791 85.68 100.311C86.3116 98.9509 88.3038 94.5294 89.3728 92.2942L89.1784 85.103L83.0075 79.1265L79.5091 79.6124L75.6706 85.8318C75.6706 85.8318 77.4683 88.1156 74.9417 90.7879C72.4637 93.4117 70.5201 93.9948 70.5201 93.9948L68.7222 93.023C69.2568 92.3428 70.3257 91.3225 71.1517 90.6422C72.5608 89.4761 73.9699 89.3789 73.9699 88.1156C74.0185 85.4917 71.2003 86.2205 71.2003 86.2205L70.1799 87.1923L69.7427 90.7879L67.6047 93.4604L67.3617 93.4117L63.8633 92.6343C63.8633 92.6343 66.0012 91.5168 66.3414 90.2535C66.6815 89.0387 65.6611 85.0058 65.6125 84.7628C65.6611 84.8115 66.6329 85.6374 67.0702 86.9979C67.8476 84.86 68.868 82.8193 69.1596 82.6249C69.4511 82.4305 73.3868 80.3413 73.3868 80.3413L72.0749 83.791L73.0467 83.2566L75.379 77.5231C75.379 77.5231 77.6627 76.4055 79.3633 76.4055C82.4244 76.3569 86.9433 72.6155 84.9025 65.9102C85.4856 66.1532 95.5922 71.2065 97.3414 81.1187C98.6533 88.7472 94.3289 95.8899 87.0405 100.02Z" fill="#94A6C3"/>
<path d="M75.4828 62.3102C76.6005 60.9982 76.1631 59.0547 76.1631 59.0547L72.9077 63.8651C72.859 63.8651 74.0738 63.9136 75.4828 62.3102Z" fill="#1B314F"/>
<path d="M64.5539 88.6037L64.9426 86.6602C64.9426 86.6602 63.3391 89.4783 63.1934 89.8671C63.0475 90.3044 63.2905 91.0818 63.9221 91.0332C64.5539 90.9847 65.3313 90.0614 65.3313 89.3812C65.3313 88.5066 64.5539 88.6037 64.5539 88.6037Z" fill="#1B314F"/>
<path d="M93.4086 57.6978C93.4086 57.6978 95.8382 57.795 98.3647 58.0865C92.6798 53.6163 87.2864 52.3044 82.9133 52.3044C76.8882 52.3044 72.8068 54.7825 72.5638 54.9282L74.4589 51.9157C74.4589 51.9157 66.8788 51.1868 64.2065 59.2041C63.5262 57.5035 62.8945 55.0254 62.8945 55.0254C62.8945 55.0254 58.9588 58.4753 60.8052 64.2088C56.2864 62.5568 52.6958 61.7089 52.4529 61.6604C52.1127 61.6117 52.0155 61.7576 52.0155 61.7576C52.0155 61.7576 51.9184 61.9033 52.2099 62.1463C52.7444 62.5835 60.0763 68.679 62.3114 70.1367C61.8255 71.8859 61.8255 72.7119 62.3114 73.538C62.9917 74.6555 63.0403 75.2386 62.9431 76.0646C62.846 76.8906 61.9714 84.0333 61.777 84.9079C61.5826 85.7825 59.5419 88.8922 59.6391 89.8154C59.7362 90.7386 60.9996 94.6743 62.1172 95.1117C62.9431 95.4032 64.9839 96.0348 66.3444 96.0348C66.8303 96.0348 67.2676 95.9376 67.462 95.7433C68.288 95.0145 68.5309 94.8687 69.114 94.8687C69.1626 94.8687 69.2112 94.8687 69.2598 94.8687C69.5028 94.8687 69.7943 94.9173 70.1344 94.9173C70.9118 94.9173 71.9322 94.7715 72.661 94.0912C73.73 93.0223 75.5764 91.5646 76.1595 90.8843C76.8883 89.9612 77.2771 88.6979 77.0826 87.4345C76.9369 86.2684 77.5685 85.248 78.2974 84.2276C79.2206 83.0129 80.9212 80.8264 80.9212 80.8264C84.2739 83.353 86.3632 87.1915 86.3632 91.4674C86.3632 99.0474 79.7551 105.17 71.592 105.17C70.3287 105.17 69.114 105.024 67.8993 104.732C71.6407 106.044 74.7989 106.482 77.3742 106.482C82.8648 106.482 85.7801 104.489 85.7801 104.489C85.7801 104.489 84.7597 105.801 83.1077 107.308C83.1563 107.308 83.1563 107.308 83.1563 107.308C92.2425 106.044 96.6642 98.5615 96.6642 98.5615C96.6642 98.5615 96.324 100.991 95.8867 102.643C107.985 93.5568 105.945 82.1869 105.896 81.7982C105.993 81.9439 107.208 83.4016 107.84 84.179C109.783 64.1602 93.4086 57.6978 93.4086 57.6978ZM74.7989 89.6697C74.6046 89.9126 73.7786 90.6414 73.1954 91.1759C72.6125 91.7104 71.9808 92.2448 71.4949 92.7307C71.3005 92.9251 70.9118 93.0223 70.3287 93.0223C70.1344 93.0223 69.94 93.0223 69.7942 93.0223C69.6971 93.0223 69.5999 93.0223 69.5028 93.0223C69.4056 93.0223 69.3569 93.0223 69.3083 93.0223C69.1626 93.0223 69.0168 93.0223 68.871 93.0223C69.5999 92.0505 71.7378 89.8154 72.4667 89.3295C73.3413 88.7464 73.7785 88.1633 73.2441 87.143C72.7095 86.1226 71.3005 86.3656 71.3005 86.3656C71.3005 86.3656 72.1266 86.0254 72.8554 86.0254C71.9322 85.7825 70.7661 86.0254 70.2315 86.5599C69.6485 87.0944 69.7457 88.9894 69.5028 90.2041C69.2598 91.4674 68.4337 92.0991 67.1705 93.2653C66.4901 93.8969 66.0043 94.0912 65.6156 94.0912C64.7895 93.9455 63.8177 93.7025 63.1375 93.4596C62.6516 92.8279 61.9227 90.7386 61.7283 89.864C61.8742 89.3781 62.4572 88.3577 62.7488 87.7746C63.3319 86.6571 63.672 86.0254 63.7691 85.4423C63.9635 84.6164 64.5952 79.5144 64.8382 77.3765C65.4698 78.2026 66.3444 79.5631 66.15 80.4377C67.5592 78.4455 66.5388 76.5019 66.0529 75.7244C65.6156 74.947 65.0325 73.3922 65.5184 71.7401C66.0043 70.0881 67.7535 65.5207 67.7535 65.5207C67.7535 65.5207 68.3366 66.5411 69.1626 66.3468C69.9887 66.1524 76.6453 56.143 76.6453 56.143C76.6453 56.143 78.4432 60.0787 76.5482 62.9455C74.6046 65.8122 72.7095 66.3468 72.7095 66.3468C72.7095 66.3468 75.382 66.8327 77.8601 65.0348C78.8805 67.4157 79.8522 69.8937 79.9009 70.2339C79.7551 70.574 77.8115 75.2386 77.6171 75.5301C77.52 75.6273 76.8397 75.8216 76.3538 75.9188C75.5278 76.1618 75.042 76.3075 74.8476 76.4533C74.5074 76.7449 72.9526 81.0208 72.2237 83.11C71.3492 83.353 70.4744 83.8389 69.8428 84.8107C70.183 84.5677 71.2519 84.422 72.0294 84.3248C72.7095 84.2762 74.7989 85.3938 75.3335 87.4831C75.3335 87.5317 75.3335 87.5317 75.3335 87.5803C75.4307 88.3577 75.1877 89.0866 74.7989 89.6697ZM70.2315 90.2527C70.6689 89.621 70.6203 88.552 70.6689 88.212C70.7174 87.8718 70.8146 87.2402 71.2033 87.143C71.592 87.0458 72.5153 87.1915 72.5153 87.8718C72.5153 88.5035 71.835 88.6492 71.3492 89.0866C71.009 89.4267 70.3287 90.1556 70.2315 90.2527ZM89.6187 80.9721C90.1045 78.4941 90.1532 76.3562 90.0074 74.607C91.9024 77.1336 93.0686 80.1947 93.4086 83.353C93.4573 83.7418 93.846 84.1305 94.2347 84.5192C94.5748 84.8107 94.9635 85.1994 94.9635 85.4423C94.9635 86.5599 94.8663 87.6774 94.672 88.7951C94.6234 88.9408 94.1861 89.1838 93.846 89.3781C93.3601 89.621 92.9228 89.864 92.8256 90.2527C91.7567 93.9941 89.4729 97.2981 86.4118 99.6304C90.9306 94.9173 93.1171 87.143 89.6187 80.9721ZM86.5576 100.068C89.7158 97.6383 92.1453 94.2371 93.2143 90.3984C93.2629 90.2527 93.7003 90.0097 93.9917 89.8154C94.4776 89.5725 94.9635 89.2809 95.0607 88.8922C95.255 87.7746 95.3522 86.6085 95.3522 85.4423C95.3522 85.0051 94.915 84.5677 94.4776 84.1305C94.2347 83.8389 93.846 83.4988 93.846 83.2559C93.4573 79.7088 92.0481 76.3562 89.8617 73.5865C88.8899 67.7558 85.0027 65.958 84.9055 65.9094C85.0027 66.0552 87.5294 69.6994 85.7801 73.9752C83.9823 78.2997 79.3663 77.6195 78.9776 77.668C78.5889 77.668 77.0826 79.6116 75.1877 83.2072C74.9448 83.11 73.9243 82.8671 72.7582 83.0615C73.6328 80.632 74.9448 77.1821 75.1877 76.8906C75.2848 76.7934 76.0137 76.5991 76.4996 76.4533C77.4228 76.2103 77.8601 76.0646 78.0058 75.8703C78.103 75.7245 78.5889 74.607 79.0748 73.4408C79.5121 73.4408 80.6297 73.3436 80.7269 73.295C80.824 73.1978 81.7472 70.817 81.7472 70.5254C81.7472 70.2824 79.8522 65.5693 79.1235 63.7715C79.4635 63.3827 79.8037 62.8969 80.1438 62.3624C90.1045 63.4314 97.8788 71.8859 97.8788 82.1383C97.8788 90.0097 93.2629 96.8609 86.5576 100.068Z" fill="#0D1928"/>
<path d="M73.6361 73.8296C74.5593 72.7607 74.0734 70.7684 72.3727 70.4284C72.8101 69.4079 73.4417 67.3672 73.4417 67.3672C73.4417 67.3672 68.4856 75.1415 68.0483 75.2873C67.611 75.433 67.1737 73.7325 67.1737 73.7325C66.2505 77.2794 68.7286 77.7653 69.0201 76.6478C70.3806 76.3076 72.7129 74.85 73.6361 73.8296Z" fill="#1B314F"/>
<path d="M69.3984 75.7267L71.9251 71.4023C71.9251 71.4023 73.3828 72.1311 72.654 73.2973C71.7307 74.6578 69.3984 75.7267 69.3984 75.7267Z" fill="#FFD923"/>
<path d="M100.644 95.7448C99.9149 96.7166 99.089 97.7369 98.1172 98.7087C104.385 86.6585 98.4087 75.6288 98.1657 75.1914C98.6031 75.6288 99.0403 76.1147 99.429 76.5519C104.239 81.8967 104.823 89.914 100.644 95.7448Z" fill="#D82122"/>
<path d="M106.488 80.2442C104.301 74.3649 101.191 69.3602 94.3404 64.8414C87.7323 60.4684 80.6382 60.8085 80.2495 60.8571C80.2009 60.8571 80.1523 60.8571 80.1523 60.8571C80.3952 60.7599 80.6382 60.7113 80.8811 60.6627C82.3875 60.1768 84.331 59.7881 86.2746 59.5452C91.4251 58.8163 96.6241 60.5656 100.171 64.3069C100.22 64.3555 100.22 64.3555 100.268 64.4041C104.301 68.6799 106.391 74.0248 106.488 80.2442Z" fill="#D82122"/>
<path d="M92.7817 56.1929C85.5418 54.8324 80.8772 55.5127 77.5246 56.776C77.4274 56.3873 77.0872 55.6098 76.7957 54.9782C75.7754 56.1929 74.7064 57.6506 74.0262 58.5738C72.1798 59.8371 71.4023 61.0519 71.4023 61.0519C72.4713 57.4076 75.581 54.6866 79.371 54.0064C80.44 53.812 81.6061 53.7148 82.8694 53.7148C86.222 53.7634 89.5748 54.5895 92.7817 56.1929Z" fill="#D82122"/>
<path d="M65.9984 65.5194C60.3134 65.325 62.2085 58.7168 62.3056 58.3281C62.3056 58.3767 62.6944 63.5271 65.9984 65.5194Z" fill="#D82122"/>
<path d="M71.5939 53.6172C67.2209 56.241 68.0955 62.509 68.0955 62.509C63.9168 56.1438 71.2538 53.763 71.5939 53.6172Z" fill="#D82122"/>
<path d="M64.4005 67.2743C64.692 67.5173 64.9836 67.9545 64.6435 68.5862C64.4491 68.9263 64.1576 68.8778 63.7202 68.6834C63.1372 68.3919 59.6387 66.3511 56.4805 64.2617C60.0761 65.525 63.7202 66.8855 64.3033 67.1771C64.3033 67.1771 64.352 67.2257 64.4005 67.2743Z" fill="white"/>
<defs>
<radialGradient id="paint0_radial_1602_3427" cx="0" cy="0" r="1" gradientUnits="userSpaceOnUse" gradientTransform="translate(98 73.5) rotate(138.567) scale(130.714)">
<stop stop-color="#2A537E"/>
<stop offset="1" stop-color="#0E131D"/>
</radialGradient>
</defs>
</svg>
