<svg width="160" height="160" viewBox="0 0 160 160" fill="none" xmlns="http://www.w3.org/2000/svg">
<rect width="160" height="160" rx="40" fill="white"/>
<path d="M86.6907 57H73.3092C72.862 57 72.5038 57.3593 72.494 57.8059C72.2237 70.359 65.649 82.2734 54.3326 90.7125C53.9733 90.9803 53.8915 91.4837 54.1541 91.8462L61.9834 102.66C62.2498 103.028 62.7687 103.111 63.1341 102.841C70.2099 97.5986 75.9013 91.2746 79.9999 84.2652C84.0986 91.2746 89.7903 97.5986 96.8662 102.841C97.2311 103.111 97.7502 103.028 98.0169 102.66L105.846 91.8462C106.108 91.4837 106.027 90.9803 105.668 90.7125C94.3509 82.2734 87.7763 70.359 87.5063 57.8059C87.4965 57.3593 87.1379 57 86.6907 57Z" fill="#FF875B"/>
</svg>
