<svg width="160" height="160" viewBox="0 0 160 160" fill="none" xmlns="http://www.w3.org/2000/svg">
<rect width="160" height="160" rx="40" fill="#7524F9"/>
<path d="M96.7021 88.8768C96.3547 88.6427 96.1455 88.4791 95.9144 88.3524C93.143 86.8274 90.3598 85.3232 87.6036 83.7741C86.7585 83.2994 86.0247 83.2914 85.1695 83.7628C77.1488 88.1776 69.1011 92.5491 61.0939 96.988C59.9806 97.6054 59.0664 97.7241 58.0087 96.9928C57.3762 96.555 56.6475 96.2455 55.9762 95.8575C54.6992 95.1198 54.038 94.0373 54.033 92.6085C54.0296 91.7265 54.0785 90.8413 54.0195 89.9625C53.9587 89.0693 54.3551 88.5224 55.1479 88.091C60.345 85.2718 65.5268 82.4302 70.7137 79.5982C77.2652 76.0205 83.8167 72.4444 90.3682 68.8666C91.4579 68.2717 91.4579 68.2156 90.3783 67.6222C87.6322 66.11 84.8726 64.6186 82.1434 63.0791C81.3472 62.6301 80.6641 62.6397 79.8679 63.0759C72.0378 67.3785 64.1841 71.6425 56.3641 75.9643C54.873 76.7886 53.9149 76.7854 54.006 74.7055C54.1122 72.3032 54.0414 69.8946 54.0279 67.4891C54.0195 65.9929 54.6723 64.8415 56.02 64.1038C63.7118 59.8927 71.412 55.696 79.1156 51.5073C80.3858 50.8161 81.7048 50.8386 82.9699 51.5297C90.6398 55.7232 98.3029 59.9264 105.966 64.1295C107.331 64.8784 107.953 66.0442 107.99 67.51C108.01 68.3118 107.975 69.1136 107.999 69.9154C108.027 70.8423 107.611 71.4758 106.766 71.9328C103.933 73.4643 101.118 75.0246 98.2978 76.5753C98.0634 76.7036 97.839 76.8479 97.4764 77.0644C98.9709 77.8887 100.346 78.6472 101.72 79.4025C103.107 80.1627 104.5 80.9132 105.885 81.6797C107.294 82.4591 107.992 83.6345 107.994 85.1804C107.997 87.6132 108 90.0459 107.994 92.4786C107.988 94.0165 107.317 95.208 105.895 95.9825C98.2945 100.128 90.6887 104.269 83.0914 108.417C81.6407 109.209 80.2272 109.188 78.7901 108.388C76.5348 107.134 74.2644 105.906 72.0041 104.663C70.6395 103.913 70.6327 103.229 71.972 102.497C79.8342 98.194 87.6963 93.8914 95.5568 89.584C95.9093 89.3916 96.24 89.1639 96.7038 88.8768H96.7021Z" fill="white"/>
</svg>
