<svg width="160" height="160" viewBox="0 0 160 160" fill="none" xmlns="http://www.w3.org/2000/svg">
<rect width="160" height="160" rx="40" fill="#2980FE"/>
<path d="M80.0124 51C73.6829 50.9975 67.4948 52.8722 62.2308 56.3869C56.9668 59.9016 52.8633 64.8985 50.4394 70.7455C48.0155 76.5925 47.38 83.0271 48.6134 89.2353C49.8467 95.4435 52.8934 101.146 57.3682 105.623C61.843 110.1 67.5448 113.148 73.7525 114.384C79.9603 115.62 86.395 114.987 92.243 112.565C98.091 110.144 103.089 106.042 106.606 100.78C110.123 95.5169 112 89.3295 112 83C111.999 74.5154 108.629 66.3784 102.631 60.3777C96.6328 54.377 88.497 51.004 80.0124 51ZM103.433 84.7473H88.5723C88.1296 86.9649 86.872 88.9361 85.0475 90.2722C83.2231 91.6082 80.9642 92.2122 78.7164 91.9649C76.4686 91.7176 74.3951 90.637 72.9047 88.9362C71.4144 87.2354 70.6154 85.038 70.6654 82.7772C70.7154 80.5164 71.6108 78.3563 73.1748 76.7231C74.7389 75.0899 76.8582 74.1021 79.1147 73.9544C81.3713 73.8067 83.6012 74.5099 85.3648 75.9254C87.1284 77.3408 88.2976 79.3657 88.6419 81.6007H103.42C103.838 81.6007 104.238 81.7664 104.533 82.0615C104.828 82.3565 104.994 82.7567 104.994 83.174C104.994 83.5912 104.828 83.9914 104.533 84.2865C104.238 84.5815 103.838 84.7473 103.42 84.7473H103.433Z" fill="black"/>
</svg>
