<svg width="160" height="160" viewBox="0 0 160 160" fill="none" xmlns="http://www.w3.org/2000/svg">
<rect width="160" height="160" rx="40" fill="#FE7E89"/>
<path d="M72.2791 90.446C71.6346 87.8923 71.1399 85.7055 70.4924 83.5631C70.3785 83.1902 69.617 82.8085 69.1374 82.7848C67.2937 82.6931 65.444 82.7523 63.5973 82.7404C63.0607 82.7375 62.5211 82.6842 62.0025 82.6546C61.8046 79.8819 64.3438 77.0677 66.9339 77.0648C69.68 77.0618 72.426 77.0884 75.172 77.0529C76.1853 77.0381 76.587 77.337 76.5181 78.4201C76.1283 84.6254 77.5913 90.2389 82.0821 94.8493C82.3009 95.0741 82.4118 95.3967 82.6667 95.8346C82.1151 95.9027 81.7433 95.9885 81.3746 95.9885C74.9832 95.9915 68.5917 96.027 62.2003 95.956C59.7121 95.9293 57.2179 95.7222 54.9245 94.5563C51.7438 92.9406 49.8312 90.3277 48.9588 86.9898C47.4839 81.3467 47.5738 75.7775 50.1939 70.4245C51.9507 66.835 55.0115 64.9204 58.9027 64.4736C62.0145 64.1185 65.1712 64.083 68.3129 64.0357C72.8517 63.9676 77.3934 64.0179 82.3009 64.0179C81.8722 64.5535 81.6384 64.8613 81.3896 65.1572C80.3463 66.4 79.348 67.6902 78.2238 68.8561C77.8071 69.2881 77.0907 69.661 76.5031 69.6699C72.5609 69.7409 68.6127 69.6935 64.6706 69.7113C58.2522 69.7409 55.7549 72.0875 55.644 78.4201C55.6051 80.5654 55.8509 82.7434 56.2226 84.8651C56.7083 87.623 58.2791 89.6441 61.283 89.9016C64.9254 90.2123 68.5888 90.2744 72.2791 90.4431V90.446Z" fill="white"/>
<path d="M96.5713 64.0029C98.6027 64.443 101.336 64.7694 103.862 65.6466C108.061 67.1038 110.266 70.3796 111.234 74.4248C112.303 78.9042 112.358 83.4098 110.724 87.7727C109.133 92.0218 105.881 94.5311 101.266 95.5016C97.5703 96.2798 93.9296 96.1166 90.3102 95.2218C84.3678 93.753 81.2312 89.8244 80.3627 84.2025C79.7281 80.0933 79.8374 75.9636 81.4073 72C82.9771 68.0306 86.1472 65.8157 90.3254 64.8743C92.1321 64.4692 94.0116 64.3468 96.5774 64L96.5713 64.0029ZM87.5622 79.1723C87.6745 80.8947 87.714 82.1071 87.8355 83.3107C88.3881 88.7606 92.3355 91.5468 97.9529 90.5326C100.622 90.0517 102.444 88.6645 103.352 86.2135C104.603 82.8357 104.664 79.3909 103.923 75.9082C103.033 71.726 100.917 69.8929 96.544 69.5228C92.4478 69.176 89.3992 71.0557 88.294 74.8124C87.8324 76.3774 87.7413 78.0415 87.5622 79.1723Z" fill="white"/>
</svg>
