<svg width="160" height="160" viewBox="0 0 160 160" fill="none" xmlns="http://www.w3.org/2000/svg">
<rect width="160" height="160" rx="40" fill="url(#paint0_radial_1602_3407)"/>
<path d="M112.834 58.576C114.944 87.6592 96.5686 101.405 80.0954 102.871C64.7802 104.234 50.3641 94.6599 49.0994 79.95C48.0561 67.7972 55.4389 62.6233 61.2395 62.1076C67.2055 61.5755 72.219 65.7613 72.6539 70.8293C73.0728 75.7018 70.0845 77.9195 68.006 78.1041C66.3624 78.2507 64.2946 77.2355 64.1078 75.0557C63.9477 73.1827 64.6468 72.9276 64.476 70.9378C64.1718 67.3954 61.1355 66.9828 59.4732 67.1294C57.4614 67.3085 53.8114 69.6973 54.3236 75.6475C54.8386 81.6493 60.4951 86.3915 67.9099 85.7319C75.9117 85.0207 81.4828 78.6823 81.9017 69.7923C81.898 69.3215 81.9954 68.8554 82.1872 68.4269L82.1899 68.4161C82.2761 68.2299 82.377 68.051 82.4914 67.8813C82.6622 67.6207 82.881 67.333 83.1638 67.0181C83.1665 67.01 83.1665 67.01 83.1718 67.01C83.3772 66.7738 83.6254 66.5186 83.9055 66.2445C87.4008 62.8893 99.9892 54.9766 111.895 57.4821C112.146 57.5369 112.374 57.6731 112.543 57.8703C112.712 58.0674 112.814 58.315 112.834 58.576Z" fill="white"/>
<defs>
<radialGradient id="paint0_radial_1602_3407" cx="0" cy="0" r="1" gradientUnits="userSpaceOnUse" gradientTransform="translate(120 17.5) rotate(130.101) scale(186.296)">
<stop stop-color="#11BFD0"/>
<stop offset="1" stop-color="#0477B5"/>
</radialGradient>
</defs>
</svg>
