<svg width="160" height="160" viewBox="0 0 160 160" fill="none" xmlns="http://www.w3.org/2000/svg">
<rect width="160" height="160" rx="40" fill="#F6851B" fill-opacity="0.2"/>
<path d="M106.075 52.6836L83.0625 69.7749L87.318 59.6913L106.075 52.6836Z" fill="#E2761B"/>
<path d="M52.9375 52.6836L75.7645 69.9368L71.7172 59.6913L52.9375 52.6836Z" fill="#E4761B"/>
<path d="M97.7695 92.3008L91.6406 101.691L104.754 105.299L108.524 92.5089L97.7695 92.3008Z" fill="#E4761B"/>
<path d="M50.5078 92.5089L54.2545 105.299L67.3679 101.691L61.239 92.3008L50.5078 92.5089Z" fill="#E4761B"/>
<path d="M66.619 76.4334L62.9648 81.9609L75.9857 82.5391L75.5232 68.5469L66.619 76.4334Z" fill="#E4761B"/>
<path d="M92.3712 76.4351L83.3514 68.3867L83.0508 82.5409L96.0485 81.9627L92.3712 76.4351Z" fill="#E4761B"/>
<path d="M67.3477 101.695L75.1648 97.8786L68.4115 92.6055L67.3477 101.695Z" fill="#E4761B"/>
<path d="M83.7969 97.8786L91.6372 101.695L90.5502 92.6055L83.7969 97.8786Z" fill="#E4761B"/>
<path d="M91.6489 101.687L83.8086 97.8711L84.433 102.982L84.3637 105.133L91.6489 101.687Z" fill="#D7C1B3"/>
<path d="M67.375 101.687L74.6602 105.133L74.614 102.982L75.1921 97.8711L67.375 101.687Z" fill="#D7C1B3"/>
<path d="M74.7642 89.2234L68.2422 87.3038L72.8446 85.1992L74.7642 89.2234Z" fill="#233447"/>
<path d="M84.2344 89.2234L86.154 85.1992L90.7795 87.3038L84.2344 89.2234Z" fill="#233447"/>
<path d="M67.3827 101.687L68.4929 92.2969L61.2539 92.505L67.3827 101.687Z" fill="#CD6116"/>
<path d="M90.5664 92.2969L91.6765 101.687L97.8054 92.505L90.5664 92.2969Z" fill="#CD6116"/>
<path d="M96.0407 81.9609L83.043 82.5391L84.2456 89.223L86.1652 85.1988L90.7907 87.3034L96.0407 81.9609Z" fill="#CD6116"/>
<path d="M68.2614 87.3034L72.8869 85.1988L74.7834 89.223L76.0092 82.5391L62.9883 81.9609L68.2614 87.3034Z" fill="#CD6116"/>
<path d="M62.9609 81.9609L68.4191 92.5997L68.234 87.3034L62.9609 81.9609Z" fill="#E4751F"/>
<path d="M90.7938 87.3034L90.5625 92.5997L96.0438 81.9609L90.7938 87.3034Z" fill="#E4751F"/>
<path d="M75.9992 82.5391L74.7734 89.223L76.2999 97.1095L76.6468 86.7252L75.9992 82.5391Z" fill="#E4751F"/>
<path d="M83.0346 82.5391L82.4102 86.702L82.6877 97.1095L84.2373 89.223L83.0346 82.5391Z" fill="#E4751F"/>
<path d="M84.2644 89.2204L82.7148 97.1069L83.825 97.8701L90.5782 92.597L90.8095 87.3008L84.2644 89.2204Z" fill="#F6851B"/>
<path d="M68.2422 87.3008L68.4272 92.597L75.1805 97.8701L76.2906 97.1069L74.7642 89.2204L68.2422 87.3008Z" fill="#F6851B"/>
<path d="M84.3738 105.137L84.4432 102.987L83.865 102.478H75.1459L74.614 102.987L74.6602 105.137L67.375 101.691L69.919 103.773L75.0765 107.358H83.9344L89.115 103.773L91.659 101.691L84.3738 105.137Z" fill="#C0AD9E"/>
<path d="M83.8259 97.8765L82.7158 97.1133H76.3094L75.1993 97.8765L74.6211 102.988L75.153 102.479H83.8721L84.4503 102.988L83.8259 97.8765Z" fill="#161616"/>
<path d="M107.033 70.8851L108.999 61.449L106.061 52.6836L83.8125 69.1967L92.3697 76.4357L104.466 79.9742L107.148 76.852L105.992 76.0194L107.842 74.3311L106.408 73.221L108.258 71.8102L107.033 70.8851Z" fill="#763D16"/>
<path d="M50.0312 61.449L51.9971 70.8851L50.7482 71.8102L52.5984 73.221L51.1876 74.3311L53.0378 76.0194L51.8815 76.852L54.5411 79.9742L66.6369 76.4357L75.1942 69.1967L52.9453 52.6836L50.0312 61.449Z" fill="#763D16"/>
<path d="M104.47 79.9799L92.3743 76.4414L96.0516 81.9689L90.5703 92.6077L97.7861 92.5152H108.54L104.47 79.9799Z" fill="#F6851B"/>
<path d="M66.6278 76.4414L54.532 79.9799L50.5078 92.5152H61.239L68.4317 92.6077L62.9736 81.9689L66.6278 76.4414Z" fill="#F6851B"/>
<path d="M83.0435 82.5454L83.8067 69.2008L87.3221 59.6953H71.7109L75.1801 69.2008L75.9896 82.5454L76.2671 86.7547L76.2902 97.1159H82.6966L82.7428 86.7547L83.0435 82.5454Z" fill="#F6851B"/>
</svg>
