<svg width="160" height="160" viewBox="0 0 160 160" fill="none" xmlns="http://www.w3.org/2000/svg">
<rect width="160" height="160" rx="40" fill="black"/>
<path d="M96.9478 54.8428L85.2422 72.2222C84.8611 72.7939 85.0167 73.5678 85.5883 73.9489C86.0511 74.26 86.6656 74.2211 87.0894 73.8556L98.6122 63.8611C98.8028 63.69 99.0983 63.7056 99.2694 63.8961C99.3472 63.9817 99.39 64.0983 99.39 64.215V95.505C99.39 95.7617 99.18 95.9717 98.9233 95.9717C98.7872 95.9717 98.655 95.9094 98.5656 95.8044L63.7367 54.1117C62.6011 52.7739 60.9367 52 59.1828 52H57.9656C54.6717 52 52 54.6717 52 57.9656V102.034C52 105.328 54.6717 108 57.9656 108C60.0383 108 61.9672 106.923 63.0522 105.157L74.7578 87.7778C75.1389 87.2061 74.9833 86.4322 74.4117 86.0511C73.9489 85.74 73.3344 85.7789 72.9106 86.1444L61.3878 96.1389C61.1972 96.31 60.9017 96.2944 60.7306 96.1039C60.6528 96.0183 60.61 95.9017 60.61 95.785V64.4872C60.61 64.2306 60.82 64.0206 61.0767 64.0206C61.2128 64.0206 61.345 64.0828 61.4344 64.1878L96.2594 105.888C97.395 107.226 99.0594 108 100.813 108H102.031C105.324 108 107.996 105.332 108 102.038V57.9656C108 54.6717 105.328 52 102.034 52C99.9617 52 98.0328 53.0772 96.9478 54.8428Z" fill="white"/>
</svg>
