<svg width="160" height="160" viewBox="0 0 160 160" fill="none" xmlns="http://www.w3.org/2000/svg">
<rect width="160" height="160" rx="40" fill="url(#paint0_linear_1602_3380)"/>
<path d="M107.412 79.6277H100.582C100.582 64.9213 89.2589 53 75.2903 53C61.4949 53 50.279 64.6294 50.0045 79.084C49.7205 94.0254 63.0348 107 77.2282 107H79.0135C91.5267 107 108.298 96.6869 110.919 84.1212C111.402 81.805 109.665 79.6277 107.412 79.6277ZM65.1407 80.2829C65.1407 82.2495 63.6129 83.858 61.745 83.858C59.877 83.858 58.3493 82.2488 58.3493 80.2829V74.4992C58.3493 72.5326 59.877 70.9241 61.745 70.9241C63.6129 70.9241 65.1407 72.5326 65.1407 74.4992V80.2829ZM76.9319 80.2829C76.9319 82.2495 75.4043 83.858 73.5364 83.858C71.6683 83.858 70.1407 82.2488 70.1407 80.2829V74.4992C70.1407 72.5326 71.669 70.9241 73.5364 70.9241C75.4043 70.9241 76.9319 72.5326 76.9319 74.4992V80.2829Z" fill="url(#paint1_linear_1602_3380)"/>
<defs>
<linearGradient id="paint0_linear_1602_3380" x1="80" y1="0" x2="80" y2="160" gradientUnits="userSpaceOnUse">
<stop stop-color="#534BB1"/>
<stop offset="1" stop-color="#551BF9"/>
</linearGradient>
<linearGradient id="paint1_linear_1602_3380" x1="80.4999" y1="53" x2="80.4999" y2="107" gradientUnits="userSpaceOnUse">
<stop stop-color="white"/>
<stop offset="1" stop-color="white" stop-opacity="0.82"/>
</linearGradient>
</defs>
</svg>
