<svg width="160" height="160" viewBox="0 0 160 160" fill="none" xmlns="http://www.w3.org/2000/svg">
<rect width="160" height="160" rx="40" fill="black"/>
<path fill-rule="evenodd" clip-rule="evenodd" d="M104 84.5616V88.6306C104 99.9352 88.1803 106.442 83.3312 108.167L81.5676 108.799V101.767L82.4292 101.429C89.9735 98.4853 97.5856 93.3858 97.5856 88.6306V84.5616H104ZM80.0413 51.1992L86.5062 53.2661V60.4413L80.0413 58.3674L79.6184 58.5032V74.6473H86.5062V81.299H79.6184V108.701L77.8225 108.007C76.9887 107.686 75.6455 107.138 73.9838 106.357L73.2033 105.987V53.3871L80.0413 51.1992ZM71.1739 54.0628V61.2054L62.4144 64.0249V74.6472H71.1739V105.412L69.2339 104.378C63.1967 101.156 56 95.7231 56 88.1376V84.5617H62.4144V88.1376C62.4144 89.7072 63.2022 91.3562 64.7588 93.0544V81.2988H56V58.9192L71.1739 54.0628ZM88.4534 53.8927L104 58.8813V81.299H94.872V91.0058C94.872 91.0058 92.8314 93.7797 88.4591 96.1024C88.4591 94.8187 88.4564 75.0817 88.4547 63.0575L88.4534 53.8927ZM94.872 63.1239V74.6473H97.5856V63.9925L94.872 63.1239Z" fill="white"/>
</svg>
