<svg width="160" height="160" viewBox="0 0 160 160" fill="none" xmlns="http://www.w3.org/2000/svg">
<rect width="160" height="160" rx="40" fill="#2980FE"/>
<path d="M92.5894 91.2022V79.4713C93.3367 79.4373 94.0663 79.4827 94.7668 79.3579C97.0441 78.9478 98.1714 76.3011 96.8315 74.1796C96.0745 72.9819 94.4592 72.3773 93.0774 72.7728C91.5619 73.2071 90.6343 74.4259 90.6343 75.9932C90.6343 82.8814 90.6214 89.7695 90.644 96.6576C90.6488 98.1471 89.9031 99.0482 88.3345 98.998C85.922 98.9218 83.503 98.9332 81.0889 98.998C79.881 99.0304 78.9904 98.0888 79.0001 96.9461C79.0629 89.8424 78.9904 82.7371 79.0484 75.6334C79.079 71.8457 80.4962 68.5799 83.0682 65.7971C85.07 63.6318 87.4407 62.1197 90.2993 61.4568C94.9552 60.3774 99.2569 61.191 103.1 64.1115C106.235 66.494 108.185 69.6788 108.791 73.5556C109.496 78.071 108.422 82.1779 105.477 85.7598C103.077 88.6787 99.9961 90.3497 96.3564 91.0045C95.1501 91.2217 93.8923 91.1439 92.5878 91.2039L92.5894 91.2022Z" fill="white"/>
<path d="M59.5969 71.9059C57.3975 71.9059 55.3093 71.9075 53.2227 71.9059C51.6902 71.9042 51.0249 71.2295 51.0233 69.6741C51.0185 67.4845 51.0677 65.2949 51.001 63.107C50.9645 61.8808 51.8998 60.9903 53.0083 61.0001C59.9923 61.0617 66.978 61.0439 73.962 61.0244C76.4949 61.0179 78.8706 63.4102 78.9944 66.1399C79.1088 68.6361 77.4477 71.03 75.2023 71.6204C74.629 71.7712 74.0319 71.8653 73.4396 71.8945C72.5185 71.9399 71.5943 71.9059 70.5589 71.9059V72.8855C70.5589 80.9124 70.5589 88.9392 70.5589 96.9677C70.5589 98.4064 69.9666 99 68.5342 99C66.2062 99 63.8782 99 61.5486 99C60.1543 99 59.5937 98.4404 59.5937 97.0488C59.5937 89.022 59.5937 80.9951 59.5937 72.9666C59.5937 72.6471 59.5937 72.3276 59.5937 71.9075L59.5969 71.9059Z" fill="white"/>
</svg>
