<svg width="160" height="160" viewBox="0 0 160 160" fill="none" xmlns="http://www.w3.org/2000/svg">
<rect width="160" height="160" rx="40" fill="white"/>
<path d="M104.808 60.0462C104.784 59.2477 104.218 58.5666 103.416 58.4609C99.702 57.9559 96.0348 57.0635 92.4382 55.76C88.8653 54.4448 84.9033 52.6246 80.6346 50.229C80.0922 49.9237 79.5851 49.9237 79.0427 50.229C74.7976 52.6246 70.871 54.4448 67.2626 55.76C63.6661 57.0635 59.9989 57.9559 56.308 58.4609C55.5062 58.5666 54.952 59.2477 54.8576 60.0462C54.5039 75.1243 57.8174 87.4663 64.7746 97.0604C68.5598 102.286 73.3119 106.525 79.0309 109.766C79.479 110.095 80.1629 110.06 80.6818 109.766C86.3654 106.478 91.1058 102.263 94.8792 97.0604C101.86 87.4663 105.15 75.1243 104.808 60.0462V60.0462Z" fill="#403352"/>
<path opacity="0.2" fill-rule="evenodd" clip-rule="evenodd" d="M104.142 72.818C103.551 72.497 102.96 72.1761 102.368 71.8552C98.0014 69.4846 93.6342 67.1139 89.267 64.7422C86.8261 67.0908 78.3359 75.3814 78.3359 75.3814C78.3359 75.3814 77.6756 94.3113 77.0742 97.2705L86.0259 106.185C89.4043 103.572 92.3579 100.536 94.8797 97.0594C99.7764 90.3296 102.857 82.2478 104.142 72.818Z" fill="url(#paint0_linear_1602_3448)"/>
<path d="M83.1235 74.6202L77.6875 74.491L88.0761 65.1435C88.6067 64.6151 89.4793 64.6503 89.9628 65.2257L92.1561 67.8092C92.3683 68.2437 92.3212 68.7487 92.0382 69.1362L88.6303 73.7395C87.345 75.4775 85.2814 74.6554 83.1235 74.6202V74.6202Z" fill="#C23A76"/>
<path d="M82.4877 93.4891L78.4195 97.0473C77.5941 97.7753 76.2852 97.1882 76.2852 96.0843V74.2422L82.2636 77.9178C82.641 78.1526 82.865 78.5636 82.8768 78.9981L82.924 92.5144C82.924 92.9019 82.7707 93.2542 82.4877 93.4891V93.4891Z" fill="#F24B93"/>
<path d="M82.8749 86.5645V79.0019C82.8749 78.5674 82.6509 78.1682 82.2853 77.9333L70.7883 70.5352L67.6398 74.7509C67.2035 75.3381 67.345 76.1718 67.9582 76.5711L82.8749 86.5645Z" fill="#C23A76"/>
<path d="M86.7651 75.4785H67.9571C67.4737 75.4785 67.3086 75.1615 67.5916 74.774L71.4121 69.4074C71.648 69.0668 72.0489 68.8672 72.4616 68.8672H91.8828C92.0125 68.8672 92.2365 68.8672 92.154 68.9729L87.8028 74.9501C87.5552 75.2907 87.1778 75.4785 86.7651 75.4785V75.4785Z" fill="#F24B93"/>
<defs>
<linearGradient id="paint0_linear_1602_3448" x1="229.677" y1="53.7034" x2="296.942" y2="34.2586" gradientUnits="userSpaceOnUse">
<stop/>
<stop offset="1" stop-opacity="0.7"/>
</linearGradient>
</defs>
</svg>
