<svg width="160" height="160" viewBox="0 0 160 160" fill="none" xmlns="http://www.w3.org/2000/svg">
<rect width="160" height="160" rx="40" fill="#3375BB"/>
<path fill-rule="evenodd" clip-rule="evenodd" d="M102.408 56.7753C103.195 56.7753 103.94 57.1123 104.488 57.6837C105.036 58.2697 105.346 59.0607 105.332 59.8662C105.191 68.5974 104.868 75.2774 104.263 80.5658C103.673 85.8543 102.787 89.7802 101.452 92.9593C100.552 95.0833 99.4419 96.8413 98.1346 98.3354C96.3775 100.313 94.3676 101.749 92.1746 103.111C91.2371 103.696 90.2625 104.272 89.24 104.878C87.0584 106.169 84.6597 107.588 81.9415 109.484C80.9576 110.172 79.6785 110.172 78.6946 109.484C75.9346 107.566 73.5042 106.129 71.3028 104.828C70.8132 104.538 70.335 104.255 69.8669 103.976C67.2947 102.423 64.9754 100.943 62.9512 98.8042C61.6018 97.3979 60.4351 95.6839 59.5073 93.6477C58.2422 90.9228 57.3848 87.6268 56.7522 83.3639C55.9088 77.6652 55.4871 70.2087 55.3325 59.8662C55.3184 59.0607 55.6136 58.2697 56.1618 57.6837C56.71 57.1123 57.4691 56.7753 58.2563 56.7753H59.4652C63.1901 56.7901 71.4131 56.4091 78.5258 50.6373C79.58 49.7876 81.0561 49.7876 82.1103 50.6373C89.2229 56.4091 97.4459 56.7901 101.185 56.7753H102.408ZM95.8716 91.0109C96.7852 89.0477 97.5444 86.3377 98.1206 82.4409C98.8093 77.7824 99.2312 71.4539 99.4279 62.8403C95.0423 62.7083 87.508 61.8294 80.325 56.7901C73.1423 61.8146 65.6079 62.6937 61.2363 62.8403C61.3909 69.9598 61.7 75.4973 62.192 79.848C62.7543 84.7996 63.5556 88.1543 64.5535 90.5127C65.2142 92.0802 65.9453 93.2082 66.8167 94.2042C67.9834 95.5375 69.4593 96.6362 71.4694 97.896C72.3032 98.4173 73.2225 98.9597 74.2232 99.5501C76.0061 100.602 78.0473 101.806 80.325 103.316C82.5608 101.83 84.5726 100.639 86.3347 99.5947C86.8659 99.2802 87.3742 98.9789 87.8593 98.687C90.3333 97.2074 92.1607 95.977 93.5241 94.5413C94.4379 93.5598 95.1829 92.4905 95.8716 91.0109Z" fill="white"/>
</svg>
