<svg width="87" height="86" viewBox="0 0 87 86" fill="none" xmlns="http://www.w3.org/2000/svg">
<rect x="0.849121" width="85.7143" height="85.7143" rx="24" fill="#006BFF"/>
<path d="M34.3417 36.3296C40.1022 30.7448 49.4532 30.7448 55.2137 36.3296L55.9072 37.0068C56.198 37.2844 56.198 37.7396 55.9072 38.0172L53.5359 40.3155C53.3905 40.4598 53.1556 40.4598 53.0102 40.3155L52.0594 39.394C48.0327 35.4968 41.5227 35.4968 37.496 39.394L36.4781 40.3821C36.3327 40.5264 36.0978 40.5264 35.9524 40.3821L33.5811 38.0838C33.2903 37.8062 33.2903 37.351 33.5811 37.0734L34.3417 36.3296ZM60.1241 41.0816L62.2382 43.1245C62.529 43.4021 62.529 43.8573 62.2382 44.1349L52.7194 53.3614C52.4285 53.639 51.9587 53.639 51.6791 53.3614L44.9231 46.8107C44.856 46.7441 44.733 46.7441 44.6658 46.8107L37.9098 53.3614C37.619 53.639 37.1492 53.639 36.8696 53.3614L27.3172 44.1349C27.0264 43.8573 27.0264 43.4021 27.3172 43.1245L29.4313 41.0816C29.7221 40.804 30.1919 40.804 30.4715 41.0816L37.2275 47.6323C37.2946 47.6989 37.4177 47.6989 37.4848 47.6323L44.2408 41.0816C44.5316 40.804 45.0014 40.804 45.281 41.0816L52.037 47.6323C52.1042 47.6989 52.2272 47.6989 52.2943 47.6323L59.0503 41.0816C59.3635 40.804 59.8333 40.804 60.1241 41.0816Z" fill="white"/>
</svg>
