<svg width="160" height="160" viewBox="0 0 160 160" fill="none" xmlns="http://www.w3.org/2000/svg">
<rect width="160" height="160" rx="40" fill="#222947"/>
<path d="M85.9798 83.6825C80.7816 86.6618 74.8177 88.0492 68.8329 87.6714C66.542 87.6821 64.2732 87.2255 62.1661 86.3297C60.059 85.4339 58.1581 84.1179 56.5805 82.4628C55.4113 80.9904 54.5744 79.2843 54.1268 77.4606C53.6792 75.6368 53.6314 73.7384 53.9866 71.8946C54.1922 70.5044 54.6128 69.1543 55.2334 67.8924L55.3186 67.719C57.5056 63.5791 60.7381 60.0788 64.6971 57.5636C68.6767 55.0371 73.2421 53.574 77.9538 53.3151C82.6654 53.0563 87.3646 54.0104 91.5989 56.0857C95.8171 58.1512 99.4238 61.274 102.065 65.1476C104.694 68.9988 106.259 73.4717 106.602 78.1166C106.945 82.7615 106.054 87.4145 104.02 91.6077C101.975 95.8161 98.8648 99.4204 94.995 102.065C91.1042 104.721 86.5915 106.332 81.8931 106.742L82.1807 109.999C87.4556 109.539 92.5217 107.729 96.8889 104.745C101.235 101.778 104.728 97.7315 107.024 93.0064C109.307 88.2999 110.306 83.0773 109.919 77.8641C109.533 72.6509 107.776 67.6311 104.824 63.3096C101.856 58.9621 97.8045 55.4586 93.0671 53.1429C88.311 50.8172 83.0338 49.7516 77.7442 50.0487C72.4546 50.3459 67.3311 51.9959 62.8675 54.8396C58.4286 57.6669 54.8062 61.5986 52.3577 66.2467L52.2422 66.4804C51.4723 68.0463 50.9521 69.7222 50.7003 71.4478C50.2794 73.7441 50.3574 76.1036 50.9292 78.3673C51.501 80.631 52.5533 82.7462 54.015 84.5704C55.8754 86.5868 58.1362 88.1958 60.6538 89.2953C63.1715 90.3948 65.891 90.9607 68.6399 90.9573C75.8769 91.407 83.0655 89.5095 89.1299 85.5488L85.9798 83.6825Z" fill="white"/>
<path d="M92.3289 87.3906C86.1707 92.3337 78.5471 95.1129 70.6413 95.297C57.6038 96.0058 52.1682 91.8339 52.119 91.7906L51.0671 93.0687L52.1266 91.8132L50 94.3242C50.2308 94.5127 55.4413 98.6601 67.6804 98.6601C68.6832 98.6601 69.7351 98.6601 70.8305 98.5753C84.9068 97.8023 92.6411 91.7548 95.3353 89.1721L92.3289 87.3906Z" fill="white"/>
<path d="M97.9809 90.7647C96.1903 93.0803 93.992 95.0522 91.4933 96.5841C82.6711 102.191 71.4499 102.915 63.5925 102.524L63.4336 105.799C64.758 105.863 66.0218 105.891 67.2535 105.891C89.4084 105.891 98.3612 95.9545 100.862 92.4066L97.979 90.7383" fill="white"/>
<path d="M97.1367 78.3852C97.655 78.3789 98.1599 78.22 98.5878 77.9284C99.0157 77.6369 99.3475 77.2258 99.5415 76.7468C99.7355 76.2678 99.783 75.7423 99.678 75.2365C99.573 74.7307 99.3202 74.2672 98.9514 73.9041C98.5826 73.5411 98.1143 73.2949 97.6055 73.1965C97.0966 73.098 96.5699 73.1517 96.0915 73.3508C95.6132 73.5499 95.2047 73.8855 94.9173 74.3154C94.6299 74.7452 94.4766 75.2502 94.4766 75.7667C94.4821 76.4651 94.7651 77.1327 95.2637 77.6235C95.7623 78.1143 96.4358 78.3882 97.1367 78.3852Z" fill="white"/>
</svg>
