<svg width="24" height="24" viewBox="0 0 24 24" fill="none" xmlns="http://www.w3.org/2000/svg">
<path fill-rule="evenodd" clip-rule="evenodd" d="M12 1.36719C11.2891 1.36719 10.5907 1.5543 9.97508 1.90973L4.27508 5.19974C3.66082 5.55438 3.15039 6.06416 2.79501 6.67799C2.43964 7.29183 2.2517 7.98822 2.25 8.6975L2.25 8.6993V15.2993L2.25 15.3011C2.2517 16.0104 2.43964 16.7068 2.79501 17.3206C3.15039 17.9344 3.66074 18.4442 4.275 18.7988L9.975 22.0888C10.5907 22.4443 11.2891 22.6314 12 22.6314C12.7109 22.6314 13.4093 22.4443 14.025 22.0888L19.7249 18.7989C20.3392 18.4442 20.8496 17.9344 21.205 17.3206C21.5604 16.7068 21.7483 16.0104 21.75 15.3011L21.75 8.6993L21.75 8.6975C21.7483 7.98822 21.5604 7.29183 21.205 6.67799C20.8496 6.06416 20.3393 5.55442 19.725 5.19978L14.025 1.90978C13.4093 1.55434 12.7109 1.36719 12 1.36719ZM10.725 3.20881C11.1126 2.98501 11.5524 2.86719 12 2.86719C12.4476 2.86719 12.8874 2.98501 13.275 3.20881L18.975 6.49882C19.2439 6.6541 19.4813 6.8566 19.6761 7.09552L11.9997 11.5223L4.32366 7.09579C4.51855 6.85677 4.75591 6.65419 5.02492 6.49887L10.725 3.20881ZM3.75831 8.50131C3.75297 8.56734 3.75018 8.63371 3.75 8.70025V15.2983C3.75121 15.7446 3.86954 16.1828 4.09315 16.569C4.31691 16.9555 4.63824 17.2765 5.025 17.4998L10.7249 20.7897C10.8914 20.8858 11.0675 20.9624 11.2497 21.0185V12.8213L3.75831 8.50131ZM12.7497 21.0187C12.9321 20.9626 13.1083 20.886 13.275 20.7898L18.975 17.4998C19.3618 17.2765 19.6831 16.9555 19.9068 16.569C20.1305 16.1827 20.2488 15.7445 20.25 15.2981L20.25 8.70109C20.2498 8.63433 20.247 8.56719 20.2417 8.50094L12.7497 12.8213V21.0187Z" fill="#00FF66"/>
</svg>
