<svg width="24" height="24" viewBox="0 0 24 24" fill="none" xmlns="http://www.w3.org/2000/svg">
<path d="M12.0004 0.25C12.4147 0.25 12.7504 0.585786 12.7504 1V7.18885L14.4701 5.46918C14.763 5.17629 15.2379 5.17629 15.5308 5.46918C15.8237 5.76207 15.8237 6.23695 15.5308 6.52984L12.5308 9.52984C12.2379 9.82273 11.763 9.82273 11.4701 9.52984L8.47012 6.52984C8.17722 6.23695 8.17722 5.76207 8.47012 5.46918C8.76301 5.17629 9.23788 5.17629 9.53078 5.46918L11.2504 7.18885V1C11.2504 0.585786 11.5862 0.25 12.0004 0.25Z" fill="#00FF66"/>
<path fill-rule="evenodd" clip-rule="evenodd" d="M3.76303 6.28849C4.15599 6.1575 4.58073 6.36987 4.71172 6.76283L6.54077 12.25H17.4599L19.2889 6.76283C19.4199 6.36987 19.8447 6.1575 20.2376 6.28849C20.6306 6.41947 20.8429 6.84421 20.712 7.23717L19.041 12.25H20.0002C20.2121 12.25 20.4141 12.3396 20.5563 12.4967C20.6985 12.6539 20.7676 12.8638 20.7465 13.0746L20.1065 19.4746C19.9887 20.6463 19.4399 21.7328 18.5666 22.5227C17.6933 23.3126 16.5577 23.75 15.3802 23.75H8.62203C7.44107 23.7554 6.30041 23.3207 5.42257 22.5307C4.54425 21.7402 3.99212 20.6507 3.87396 19.475L3.8737 19.4723L3.2537 13.0723C3.23331 12.8618 3.30274 12.6525 3.44489 12.4959C3.58705 12.3393 3.78871 12.25 4.0002 12.25H4.95963L3.28869 7.23717C3.15771 6.84421 3.37008 6.41947 3.76303 6.28849ZM17.9831 13.75C17.9948 13.7503 18.0064 13.7503 18.018 13.75H19.1715L18.614 19.325C18.5334 20.1266 18.1579 20.8698 17.5604 21.4103C16.9629 21.9507 16.1859 22.25 15.3802 22.25L8.62021 22.25L8.61645 22.25C7.80796 22.2541 7.02698 21.9566 6.42602 21.4157C5.82538 20.8752 5.44768 20.1302 5.36657 19.3263L5.36645 19.325L4.82637 13.75H5.98265C5.99425 13.7503 6.00589 13.7503 6.01755 13.75H17.9831Z" fill="#00FF66"/>
</svg>
