<svg width="193" height="84" viewBox="0 0 193 84" fill="none" xmlns="http://www.w3.org/2000/svg">
<g clip-path="url(#clip0_1885_10578)">
<path d="M16.5045 0.168945C7.45947 0.168945 0.110352 7.60405 0.110352 16.7549V66.4312C0.110352 75.5004 7.45947 83.0172 16.5045 83.0172H67.7869C76.7512 83.0172 84.1811 75.5821 84.1811 66.4312V0.168945H16.5045Z" fill="white"/>
<path d="M65.2027 70.9251L74.7323 59.3231V55.4013H60.0341V59.3231H69.5637L60.0341 70.9251V74.8469H74.7323V70.9251H65.2027ZM25.0652 56.6268C23.3692 55.4013 21.3502 54.6659 19.089 54.6659C13.032 54.6659 8.26718 59.895 8.91326 66.1862C9.39782 71.0068 13.2743 74.8469 18.0391 75.3371C20.7042 75.5822 23.1269 74.8469 25.0652 73.4579V74.9286H29.3454V55.3195H25.0652V56.6268ZM25.0652 65.0424C25.0652 68.8008 21.6733 71.7421 17.7968 70.9251C15.5355 70.4349 13.6781 68.6374 13.2743 66.2679C12.4667 62.3461 15.374 58.9145 19.089 58.9145C22.4001 58.9145 25.0652 61.6108 25.0652 64.9607V65.0424ZM49.2931 55.5647C48.97 55.5647 48.5662 55.5647 48.2432 55.5647L53.8156 48.293H48.7277L40.8133 58.9962C39.1981 61.1206 38.3905 63.4083 38.4713 65.696C38.552 68.3923 39.6827 70.8434 41.5401 72.6409C43.3976 74.3567 45.8204 75.3371 48.4047 75.3371C48.4855 75.3371 48.5662 75.3371 48.7277 75.3371C54.3001 75.1737 58.5804 70.68 58.4996 65.1241C58.2574 60.0584 54.3001 55.8915 49.2931 55.5647ZM48.647 71.4153C47.1125 71.497 45.7396 70.9251 44.6898 69.9446C43.5591 68.8825 42.913 67.3301 42.8323 65.696C42.7515 63.9802 43.3168 62.4278 44.3667 61.284C45.3358 60.2218 46.7087 59.5682 48.1624 59.5682C48.2432 59.5682 48.3239 59.5682 48.4047 59.5682C49.7776 59.5682 51.1505 60.0584 52.1196 61.0389C53.2503 62.101 53.9771 63.6534 53.9771 65.2875C54.2194 68.5557 51.8774 71.3336 48.647 71.4153ZM29.4262 52.2148H32.172V74.8469H36.4523V48.293H29.3454C29.4262 48.293 29.4262 52.2148 29.4262 52.2148Z" fill="#090A0C"/>
<path d="M89.8345 65.2869C89.8345 59.5676 94.1147 55.2373 99.8487 55.2373C103.564 55.2373 106.794 57.1982 108.167 60.303L106.148 61.5285C105.098 59.2408 102.756 57.7701 99.8487 57.7701C95.6492 57.7701 92.338 61.12 92.338 65.3687C92.338 69.6173 95.5684 72.9672 99.8487 72.9672C102.756 72.9672 105.017 71.4148 106.229 69.2088L108.328 70.4343C106.713 73.3757 103.483 75.3366 99.7679 75.3366C94.034 75.3366 89.8345 71.0063 89.8345 65.2869Z" fill="white"/>
<path d="M118.989 55.4014V57.8525C115.92 57.8525 113.012 59.4866 113.012 64.2254V74.9287H110.509V55.7282H113.012V58.9147C114.304 56.2184 116.566 55.4014 118.989 55.4014Z" fill="white"/>
<path d="M138.775 55.7275L130.618 76.7256C129.165 80.4023 126.338 82.9351 122.946 82.6083V80.2389C125.45 80.484 127.146 78.7682 128.115 76.2353L128.599 75.0098L120.2 55.7275H122.865L129.972 71.8233L136.11 55.7275H138.775Z" fill="white"/>
<path d="M160.257 65.2869C160.257 71.0063 155.815 75.3366 150.485 75.3366C147.093 75.3366 144.428 73.7025 142.813 71.088V82.5266H140.309V55.7275H142.813V59.4859C144.428 56.8714 147.093 55.2373 150.485 55.2373C155.815 55.2373 160.257 59.6493 160.257 65.2869ZM157.753 65.2869C157.753 61.0383 154.523 57.6884 150.243 57.6884C145.962 57.6884 142.732 61.0383 142.732 65.2869C142.732 69.5356 145.962 72.8855 150.243 72.8855C154.523 72.8855 157.753 69.5356 157.753 65.2869Z" fill="white"/>
<path d="M166.233 58.1789V69.7809C166.233 73.0491 168.01 72.804 171.725 72.6406V74.8466C166.637 75.582 163.73 74.3564 163.73 69.7809V58.1789H159.772V55.7278H163.73V51.1523L166.233 50.417V55.7278H171.725V58.1789H166.233Z" fill="white"/>
<path d="M172.128 65.2869C172.128 59.5676 176.57 55.2373 182.143 55.2373C187.715 55.2373 192.157 59.6493 192.157 65.2869C192.157 70.9245 187.634 75.3366 182.143 75.3366C176.651 75.3366 172.128 71.0063 172.128 65.2869ZM189.572 65.2869C189.572 61.0383 186.342 57.6884 182.062 57.6884C177.782 57.6884 174.551 61.0383 174.551 65.2869C174.551 69.5356 177.782 72.8855 182.062 72.8855C186.342 72.8855 189.572 69.5356 189.572 65.2869Z" fill="white"/>
</g>
<defs>
<clipPath id="clip0_1885_10578">
<rect width="191.966" height="82.8483" fill="white" transform="translate(0.110352 0.168945)"/>
</clipPath>
</defs>
</svg>
