<svg width="117" height="102" viewBox="0 0 117 102" fill="none" xmlns="http://www.w3.org/2000/svg">
<g clip-path="url(#clip0_1885_10592)">
<path d="M29.3898 21.0032C25.4273 18.3366 21.1084 16.62 18.9034 12.4231C21.9389 13.5728 24.9611 14.7172 27.9806 15.8616L28.1949 15.4972C25.8184 12.7955 23.8412 9.86982 23.0187 6.23156C25.0576 7.82397 27 9.54594 29.8667 10.3448C28.1467 7.22209 26.4909 4.37195 26.223 0.919922C28.1494 3.07643 30.0355 5.18705 31.9217 7.29767L32.262 7.16542C32.3852 5.36788 31.9994 3.22487 34.2151 2.53662C35.3725 2.17766 36.2299 3.17359 37.039 4.19921C36.6291 4.27208 36.3451 4.29907 36.0745 4.37735C34.8153 4.74711 34.5232 5.44615 35.4315 6.41779C36.3022 7.34895 36.4174 8.09117 36.1575 9.41638C35.3082 13.7591 38.9279 19.9047 43.0163 21.6591C44.8918 22.4634 46.7887 23.2434 48.5784 24.215C50.8316 25.4404 52.1391 27.2406 51.4666 30.3606C51.2496 31.3647 51.338 32.4848 52.3615 32.9436C52.9241 33.1946 53.8511 33.0435 54.4325 32.7304C55.4399 32.1906 55.3166 31.1326 55.1961 29.9342C54.6683 30.4119 54.2932 30.752 53.7493 31.2432C53.7493 30.1717 53.7064 29.2514 53.7627 28.3391C53.819 27.416 53.9717 26.5011 54.0842 25.5834L53.7332 25.3054C53.6153 25.6833 53.4974 26.0584 53.3796 26.4363C52.6187 23.6995 53.1947 21.5835 55.3166 19.8453C53.4144 19.4702 51.8095 19.6537 50.3815 21.3028C50.9254 19.9209 52.1846 18.7495 53.3099 18.6578C54.5745 18.5525 55.8525 18.6335 57.5082 18.6335C55.7105 17.2948 54.0038 17.5917 52.1043 17.5296C53.7279 16.4743 55.3274 16.4122 56.75 16.9277C59.247 17.8319 61.6717 18.9709 64.0428 20.1773C65.5325 20.9357 65.6718 22.6712 64.6484 24.6685C63.7213 22.9897 62.8399 23.0113 59.4694 24.8736C60.6215 27.354 61.7119 29.8829 62.9926 32.3093C63.2552 32.8032 64.2545 33.1595 64.8814 33.1136C65.3342 33.0812 65.8915 32.3417 66.1085 31.7965C66.3229 31.2648 66.2559 30.5658 66.1541 29.9666C65.7361 27.5429 66.6337 25.6995 68.6591 24.5011C70.2211 23.5754 71.8742 22.7495 73.5782 22.1368C78.3258 20.4283 80.4584 16.7469 81.364 12.0749C81.6185 10.7659 81.9481 9.45147 81.1925 8.14515C81.0827 7.95622 81.4846 7.37324 81.7578 7.07095C83.3252 5.322 83.1564 4.73901 80.7612 4.17222C81.4122 3.1439 82.3044 2.21544 83.419 2.52853C85.6883 3.16819 85.3373 5.3058 85.4203 7.11953L85.7526 7.30846C87.6387 5.20594 89.5222 3.10342 91.4807 0.919922C91.1753 4.36925 89.5972 7.23289 87.7941 10.2963C90.8404 9.58102 92.7802 7.65393 95.0119 5.75923C93.9108 9.59722 92.0621 12.7038 89.5329 15.4271L89.7607 15.8373C92.7614 14.7037 95.7621 13.5702 98.7736 12.4339C96.6141 16.6254 92.2711 18.3042 88.3032 21.0275C93.8358 23.3189 98.937 22.1557 104.223 20.5336C99.0924 25.0868 92.7721 25.8182 86.5697 27.0598C90.6796 30.1879 95.4915 31.335 100.282 32.6197C94.3073 33.3565 88.33 34.5657 82.3339 32.3444C83.1778 35.3862 84.6648 36.6169 94.4172 42.4387C91.1967 43.27 85.5114 41.4266 78.3177 37.1028C81.1282 42.3253 80.5468 47.6289 80.4022 52.9378C78.0605 48.8569 76.5628 44.2308 72.6646 40.903C72.319 45.9339 72.5949 50.9271 70.6659 55.6395C70.4033 51.4183 70.2024 47.197 67.3061 43.7396C64.7448 48.1201 65.436 52.5087 67.2016 56.9701C64.7636 55.7664 62.5103 51.4102 61.6905 46.8057C61.361 47.2996 60.9242 47.753 60.7233 48.2928C59.8097 50.73 59.8231 53.2401 61.219 55.4101C63.0515 58.2575 65.2003 60.8999 67.2177 63.6286C67.4696 63.9713 67.7643 64.2817 67.8447 64.8593C66.9471 64.2925 66.0523 63.723 64.8332 62.9511C65.7093 65.553 66.4675 67.8012 67.2258 70.0495L66.9793 70.1844C65.5834 68.5758 64.1902 66.9699 62.7943 65.3613C62.7354 65.3937 62.6765 65.4261 62.6175 65.4585C63.3114 68.1494 64.008 70.8376 64.7019 73.5285L64.501 73.6203C63.3195 71.5852 62.1379 69.5502 60.7528 67.1643C60.1258 71.1183 59.5471 74.7512 58.9711 78.384L58.73 78.3948C58.1566 74.7646 57.5833 71.1345 56.9563 67.1697C55.5926 69.5043 54.395 71.5555 53.1947 73.6068L53.0045 73.5177C53.6984 70.8268 54.3923 68.1359 55.1907 65.0455C53.5296 66.9591 52.1337 68.565 50.7379 70.1736L50.4806 70.0414C51.2362 67.8039 51.9917 65.5664 52.8839 62.9241C51.6488 63.7257 50.7593 64.3033 49.8698 64.8809L49.6715 64.6434C50.8772 63.1886 52.1203 61.7609 53.2804 60.2683C54.9791 58.0848 56.7581 55.9337 57.3555 53.1078C57.7306 51.3427 57.5484 49.6261 56.8706 47.9716C56.6991 47.5533 56.3347 47.2159 55.8444 46.5466C55.3059 50.9325 53.7439 54.4088 50.5878 57.0916C52.1846 52.6328 53.0366 48.2038 50.3842 43.7747C47.5228 47.1916 47.2817 51.3751 47.0432 55.5909C45.082 50.919 45.3955 45.942 45.0311 40.9084C41.165 44.2605 39.5923 48.8083 37.4061 53.0809C36.4121 49.421 37.323 41.6182 39.2896 37.1405C34.2258 40.2039 29.2157 42.8732 22.9812 42.6222C27.86 39.8557 32.9103 37.7262 35.694 32.2338C29.4488 34.5711 23.4313 33.3592 17.4111 32.6224C22.1961 31.3512 26.9866 30.1744 31.0992 27.0868C24.9289 25.7777 18.5926 25.1003 13.6602 20.593C17.7299 22.126 21.9229 22.628 26.2123 22.0936C27.1956 21.9721 28.1279 21.4512 29.3925 21.0032H29.3898Z" fill="white"/>
<path d="M3.19505 89.1127C2.93785 91.4663 2.68332 93.8171 2.42076 96.1679C2.29751 97.2799 2.85479 97.7981 3.88629 97.9304H0.810547C1.11062 97.2853 1.62503 96.5863 1.75095 95.8197C2.12068 93.5688 2.39664 91.2989 2.57079 89.0237C2.61634 88.4407 2.14212 87.8172 1.89563 87.1829C2.68064 87.1829 3.80859 87.1155 4.91779 87.2234C5.25805 87.2558 5.70012 87.7065 5.8448 88.0682C6.53336 89.8091 7.1335 91.5823 7.88636 93.6821C8.71156 91.3448 9.44299 89.2801 10.1664 87.2342H13.711C13.4752 87.774 12.9662 88.384 12.9983 88.9643C13.1242 91.2881 13.36 93.612 13.6842 95.9169C13.786 96.6456 14.287 97.3177 14.5657 97.925H10.4316C10.6326 97.3393 11.0612 96.705 11.0184 96.1031C10.8523 93.782 10.5388 91.4743 10.0833 89.083C9.55552 90.5108 9.01431 91.9332 8.4999 93.3663C7.98014 94.813 7.48448 96.2678 6.85218 98.0788C5.63046 94.8319 4.5427 91.9494 3.45761 89.0668C3.3692 89.083 3.28079 89.0992 3.19237 89.1154L3.19505 89.1127Z" fill="white"/>
<path d="M90.4064 98.0134C90.5269 99.3872 90.6421 100.685 90.7546 101.951H88.0728V91.3631C88.6649 91.131 89.5115 90.7963 90.4412 90.4319C90.5108 90.7963 90.5751 91.1175 90.6475 91.4926C90.827 91.409 90.9529 91.3739 91.052 91.301C92.4345 90.3024 93.7554 90.1296 94.7386 90.8287C95.8076 91.5844 96.3328 93.2335 95.9738 94.699C95.3817 97.1201 93.7339 98.2806 91.2771 98.0134C91.0601 97.9891 90.8404 98.0107 90.409 98.0107L90.4064 98.0134ZM90.4439 91.8921C90.5216 93.4197 90.5376 94.9744 90.7171 96.5101C90.7654 96.9284 91.2959 97.587 91.6308 97.6032C92.0969 97.6248 92.8685 97.2469 93.0052 96.8582C93.3187 95.9649 93.4767 94.9555 93.4285 94.0081C93.3374 92.2726 92.4345 91.6492 90.4465 91.8921H90.4439Z" fill="white"/>
<path d="M79.1883 90.5184C78.8239 89.8896 78.6364 89.5414 78.4274 89.2067C77.0074 86.9261 74.1996 86.9666 72.9404 89.3255C71.9625 91.1581 72.0723 93.0393 73.0475 94.8477C74.205 96.9934 77.5004 97.5278 79.3517 95.1445C79.1722 97.0149 77.2084 98.3051 74.8292 98.1107C71.2042 97.8166 69.1305 95.3146 69.5726 91.7708C69.937 88.8316 73.3396 86.4672 76.4394 86.9989C78.7864 87.4011 78.9097 87.5441 79.1883 90.5184Z" fill="white"/>
<path d="M65.2511 97.9357H62.5451C62.5451 96.1543 62.6389 94.3973 62.4782 92.6645C62.4406 92.2489 61.5565 91.9115 60.8867 91.4068V97.9357H58.1914V91.3636C58.8585 91.1018 59.7078 90.7698 60.6081 90.4189C60.6831 90.7941 60.7501 91.1207 60.8278 91.512C61.3261 91.2178 61.7307 90.9398 62.1647 90.7266C63.6972 89.9736 64.9538 90.7266 64.9993 92.4432C65.0341 93.79 64.9859 95.1395 65.0181 96.489C65.0288 96.9613 65.1681 97.431 65.2538 97.9411L65.2511 97.9357Z" fill="white"/>
<path d="M22.6302 97.4118C21.8506 97.3686 20.9343 98.6641 20.018 97.2499C19.9939 97.2553 19.8974 97.2553 19.8278 97.2984C18.9061 97.8814 17.7862 98.6156 16.9128 97.7978C16.2912 97.2148 16.1439 95.9948 16.0153 95.0313C15.8465 93.7358 15.9027 92.4106 15.8599 91.0233C16.4707 90.9018 17.3683 90.721 18.3783 90.5186C18.3783 92.1757 18.3703 93.7816 18.3783 95.3903C18.3864 96.594 18.957 97.1014 20.0502 96.8477V91.0341C20.2833 90.9855 20.736 90.8829 21.1915 90.7939C21.6202 90.7102 22.0542 90.6427 22.6276 90.5428V97.4118H22.6302Z" fill="white"/>
<path d="M49.0125 90.4267C51.3514 90.4483 52.9965 92.1001 52.9563 94.3808C52.9188 96.4536 51.0433 98.1756 48.8598 98.1378C46.5101 98.0973 44.7847 96.4077 44.8356 94.1946C44.8865 91.9976 46.6548 90.4025 49.0098 90.424L49.0125 90.4267ZM50.5503 94.2782C50.3414 93.3956 50.1806 92.424 49.8564 91.5117C49.7332 91.169 49.1973 90.7263 48.8999 90.7587C48.5061 90.8046 47.9756 91.1987 47.8229 91.5738C47.1049 93.3417 47.1611 95.1635 47.8899 96.9125C48.0399 97.2714 48.6052 97.6817 48.9642 97.6682C49.3313 97.6547 49.8591 97.2174 49.9957 96.845C50.2851 96.065 50.3655 95.2094 50.553 94.2755L50.5503 94.2782Z" fill="white"/>
<path d="M81.806 93.3311H80.6486C80.6111 93.2231 80.5388 93.1313 80.5602 93.0666C81.0451 91.4067 82.6473 90.2677 84.2575 90.4269C85.5703 90.5565 86.1571 91.1881 86.1678 92.5214C86.1812 93.8223 86.1678 95.1205 86.1678 96.5105C86.5054 96.5861 86.8215 96.6589 87.3225 96.7723C86.9662 97.1826 86.701 97.7574 86.4063 97.7736C85.5301 97.8222 84.6433 97.6522 83.8262 97.3094C83.143 97.5361 82.4356 97.9788 81.7792 97.9167C81.2702 97.8681 80.587 97.2608 80.4236 96.7534C80.2923 96.3513 80.6995 95.5847 81.0907 95.2366C81.5649 94.8155 82.2749 94.6644 82.8858 94.3999C83.7324 94.0355 84.1852 92.8857 83.652 92.1381C83.4136 91.8061 82.859 91.601 82.4276 91.5632C82.2722 91.5497 82.0338 92.1786 81.8837 92.5349C81.8034 92.7265 81.8355 92.964 81.8033 93.3284L81.806 93.3311ZM83.7029 94.5861L83.3171 94.4134C83.0947 94.9154 82.7411 95.4039 82.6982 95.9221C82.6741 96.2163 83.159 96.551 83.4162 96.8695L83.7029 96.6886V94.5888V94.5861Z" fill="white"/>
<path d="M117 97.9306H114.594C114.479 94.2627 114.859 90.6217 114.299 86.8512C115.015 86.6245 115.883 86.3465 117 85.9902V97.9306Z" fill="white"/>
<path d="M26.7909 85.9658V97.9035H24.2644C24.2831 94.2679 24.3099 90.6297 24.2456 86.7755C24.7279 86.6217 25.5986 86.3437 26.7909 85.9658Z" fill="white"/>
<path d="M30.6411 89.0752C30.6894 89.6717 30.7242 90.1008 30.7644 90.5947H32.9345C32.7381 91.1615 31.9968 91.4818 30.7108 91.5556C30.7108 92.9995 30.5688 94.4867 30.7992 95.9118C30.8662 96.3301 31.9915 96.5757 32.6157 96.8942C32.0156 97.9036 30.9653 98.3409 29.6605 97.99C28.3691 97.6445 28.2941 96.6675 28.2968 95.569C28.3022 94.1277 28.2191 92.6892 28.1655 90.9726C28.7201 90.5489 29.5989 89.8741 30.6411 89.0752Z" fill="white"/>
<path d="M44.0182 96.3569C42.9358 97.9088 41.9311 98.3487 40.3075 97.9817C38.8714 97.6578 37.9176 96.5458 37.7113 94.9507C37.5291 93.5337 38.432 91.7686 39.777 91.002C40.9559 90.33 42.2124 90.1033 43.4502 90.778C43.761 90.9481 44.0021 91.4582 44.045 91.8387C44.0691 92.0465 43.5949 92.5108 43.3698 92.4946C43.0564 92.473 42.759 92.1194 42.4696 91.89C42.0892 91.5877 41.5506 90.9346 41.3819 91.0236C40.8862 91.28 40.3504 91.7605 40.1709 92.276C39.5225 94.1329 40.345 96.0519 41.9525 96.4513C42.5795 96.6079 43.2975 96.4 44.0182 96.3569Z" fill="white"/>
<path d="M103.612 91.6147C103.612 92.9319 103.481 94.2868 103.647 95.6012C103.837 97.0937 105.037 96.5647 106.074 96.4891C105.33 97.7307 104.314 98.2165 102.974 98.0438C101.943 97.9115 101.37 97.342 101.372 96.2543C101.372 95.3556 101.407 94.4541 101.359 93.558C101.316 92.7942 101.179 92.0385 101.056 91.0668C101.715 90.5567 102.583 89.8874 103.58 89.1182C103.62 89.6175 103.655 90.0277 103.698 90.5594H105.911C105.757 91.0992 104.991 91.451 103.612 91.6147Z" fill="white"/>
<path d="M110.048 94.2029C110.128 93.9087 110.259 93.6172 110.275 93.3176C110.326 92.3837 110.096 91.4796 108.998 91.5713C108.596 91.6037 108.261 92.4377 107.896 92.9073L108.172 93.2636L106.803 93.4363C107.216 91.8169 108.204 90.9101 109.557 90.4917C111.366 89.933 112.523 90.9452 112.478 92.8857C112.456 93.7359 112.365 94.5969 112.467 95.4336C112.529 95.9491 112.893 96.4268 113.26 97.2203C112.665 98.4754 111.503 98.5078 110.013 96.8911L110.034 96.9181C110.029 96.0058 110.026 95.0908 110.021 94.1786L110.048 94.2056V94.2029Z" fill="white"/>
<path d="M56.7579 90.3242V97.9219H54.0894V91.3714C54.7431 91.115 55.6219 90.7723 56.7579 90.3269V90.3242Z" fill="white"/>
<path d="M36.7173 90.3006V97.9171H34.0381V91.3748C34.6918 91.113 35.5304 90.7756 36.7173 90.2979V90.3006Z" fill="white"/>
<path d="M97.147 97.9087V91.3582C97.7846 91.1126 98.6313 90.7833 99.7217 90.3623V97.9087H97.147Z" fill="white"/>
<path d="M110.013 96.891C109.552 97.9112 108.689 98.2918 107.751 97.8707C107.288 97.6629 106.945 96.9018 106.819 96.3296C106.749 96.0111 107.146 95.3984 107.489 95.2122C108.29 94.7804 109.187 94.5267 110.048 94.2028L110.021 94.1758C108.577 95.779 108.579 96.1515 110.034 96.9153L110.013 96.8883V96.891Z" fill="white"/>
<path d="M57.3232 88.0359C56.439 88.6459 55.8978 89.2991 55.4959 89.2208C55.0324 89.1317 54.3814 88.3949 54.3868 87.9415C54.3894 87.515 55.1048 86.8133 55.5656 86.7593C55.9782 86.7107 56.4765 87.3828 57.3232 88.0333V88.0359Z" fill="white"/>
<path d="M37.2504 88.0521C36.3823 88.6459 35.8331 89.3044 35.4365 89.2208C34.957 89.1209 34.2791 88.3841 34.2952 87.9415C34.3086 87.5042 35.0454 86.816 35.5276 86.7566C35.9322 86.7053 36.4305 87.3989 37.2504 88.0521Z" fill="white"/>
<path d="M98.4414 89.879C97.9163 88.9533 97.3349 88.3892 97.4099 87.9331C97.4876 87.458 98.1949 87.0856 98.6289 86.6699C99.0308 87.1315 99.7247 87.5768 99.7489 88.0572C99.7703 88.5187 99.1005 89.0154 98.4414 89.879Z" fill="white"/>
</g>
<defs>
<clipPath id="clip0_1885_10592">
<rect width="116.19" height="101.034" fill="white" transform="translate(0.810547 0.919922)"/>
</clipPath>
</defs>
</svg>
