<svg width="235" height="55" viewBox="0 0 235 55" fill="none" xmlns="http://www.w3.org/2000/svg">
<g clip-path="url(#clip0_1885_10589)">
<path d="M48.5605 17.3897L19.3361 0.834961L15.683 2.9058V7.04349L12.03 4.97265L8.37691 7.04349V11.1812L4.72386 9.11035L1.0708 11.1812V44.2907L4.72386 46.3615L8.37691 44.2907V48.4284L12.03 50.4992L15.683 48.4284V52.5661L19.3361 54.6369L48.5605 38.0822V33.9445L44.9075 31.8736L48.5605 29.8028V25.6651L44.9075 23.5943L48.5605 21.5234V17.3897ZM8.37691 40.153L4.72386 42.2238V13.252L8.37691 15.3229V40.153ZM19.3361 42.2199V38.0822L33.9483 29.8068L37.6013 31.8776L19.3361 42.2199ZM30.2952 27.7359L19.3361 33.9445V21.5274L30.2952 27.7359ZM33.9483 25.6651L19.3361 17.3897V13.252L37.6013 23.5983L33.9483 25.6651ZM12.03 9.11035L15.683 11.1812V15.3189L12.03 13.248V9.11035ZM12.03 17.3897L15.683 19.4606V36.0153L12.03 38.0862V17.3897ZM12.03 42.2199L15.683 40.149V44.2867L12.03 46.3576V42.2199ZM44.9075 36.0113L19.3361 50.4953V46.3576L41.2544 33.9405L44.9075 36.0113ZM44.9075 27.7359L41.2544 29.8068L37.6013 27.7359L41.2544 25.6651L44.9075 27.7359ZM41.2544 21.5274L19.3361 9.11035V4.97265L44.9075 19.4566L41.2544 21.5274Z" fill="white"/>
<path d="M63.7373 42.2198H59.52V13.252H72.3869C78.2927 13.252 81.8767 16.7684 81.8767 21.9415C81.8767 27.1146 78.2927 30.6311 72.3869 30.6311H63.7413V42.2198H63.7373ZM77.6595 21.9415C77.6595 19.0463 75.9709 16.7684 72.3869 16.7684H63.7413V27.1146H72.3869C75.9709 27.1146 77.6595 24.8367 77.6595 21.9415ZM83.4394 26.2863C83.8615 22.8495 86.8124 20.0778 92.7628 20.0778C96.3915 20.0778 99.4682 21.0295 101.031 23.5942C101.705 24.7132 102.086 26.2027 102.086 27.939V42.2158H98.0354V39.5237C96.769 41.1804 94.2403 42.8331 90.6522 42.8331C86.1792 42.8331 82.3841 40.5552 82.3841 35.7962C82.3841 32.0727 84.9575 29.4244 90.4411 28.9664L98.0354 28.3452V27.931C98.0354 25.0358 96.769 23.1721 92.7628 23.1721C89.5563 23.1721 87.8271 24.4146 87.6161 26.2743H83.4394V26.2863ZM98.0313 32.909V31.2523L90.8592 31.8736C87.9043 32.1205 86.4309 33.5302 86.4309 35.8042C86.4309 38.7033 88.5415 39.7348 91.0702 39.7348C94.8694 39.7388 98.0313 37.2538 98.0313 32.909ZM114.568 24.0123C111.617 24.0123 109.717 25.669 109.717 29.3925V42.2238H105.666V20.699H109.717V23.184C110.772 21.3203 112.457 20.2848 115.623 20.2848H116.763V24.0084H114.568V24.0123ZM117.985 26.2863C118.407 22.8495 121.358 20.0778 127.309 20.0778C130.937 20.0778 134.014 21.0295 135.577 23.5942C136.25 24.7132 136.632 26.2027 136.632 27.939V42.2158H132.581V39.5237C131.315 41.1804 128.786 42.8331 125.198 42.8331C120.725 42.8331 116.93 40.5552 116.93 35.7962C116.93 32.0727 119.503 29.4244 124.987 28.9664L132.581 28.3452V27.931C132.581 25.0358 131.315 23.1721 127.309 23.1721C124.102 23.1721 122.373 24.4146 122.162 26.2743H117.985V26.2863ZM132.581 32.909V31.2523L125.409 31.8736C122.454 32.1205 120.981 33.5302 120.981 35.8042C120.981 38.7033 123.091 39.7348 125.62 39.7348C129.415 39.7388 132.581 37.2538 132.581 32.909ZM156.541 39.3246C155.275 41.3954 152.746 42.841 149.369 42.841C142.789 42.841 139.205 37.6679 139.205 31.4594C139.205 25.2509 142.789 20.0778 149.369 20.0778C152.742 20.0778 155.275 21.5273 156.541 23.5942V13.252H160.588V42.2238H156.537V39.3246H156.541ZM150.002 23.3911C145.574 23.3911 143.252 26.9075 143.252 31.4594C143.252 36.0113 145.574 39.5317 150.002 39.5317C154.43 39.5317 156.752 35.8082 156.752 31.4594C156.752 27.1146 154.43 23.3911 150.002 23.3911ZM176.199 38.9104V42.2198H163.206V38.9104H167.679V24.0123H163.206V20.703H171.726V38.9144H176.199V38.9104ZM171.726 17.3896H167.675V13.252H171.726V17.3896ZM193.238 38.9104C192.394 40.1529 190.076 42.0127 186.277 42.0127C180.12 42.0127 176.113 37.0467 176.113 31.0452C176.113 25.0438 180.12 20.0778 186.277 20.0778C190.072 20.0778 192.394 21.9415 193.238 23.18V20.695H197.289V39.9379C197.289 46.7677 193.283 50.2841 186.91 50.2841C182.015 50.2841 178.431 47.7991 177.587 44.0756H181.804C182.186 45.565 183.744 47.1779 186.906 47.1779C191.546 47.1779 193.234 44.2827 193.234 39.9339V38.9104H193.238ZM186.703 23.3911C182.697 23.3911 180.164 26.9075 180.164 31.0492C180.164 35.1869 182.693 38.7073 186.703 38.7073C190.92 38.7073 193.453 35.1909 193.453 31.0492C193.449 26.9075 190.92 23.3911 186.703 23.3911ZM205.05 23.184C206.316 20.9061 208.845 20.0817 211.378 20.0817C214.328 20.0817 217.072 21.3242 218.339 23.8053C219.605 21.5273 221.923 20.0817 225.722 20.0817C230.361 20.0817 233.738 22.7738 233.738 28.15V42.2198H229.687V28.7713C229.687 25.2548 228.21 23.3911 224.878 23.3911C222.134 23.3911 219.394 25.0478 219.394 29.3925V42.2238H215.343V28.7753C215.343 25.2588 213.866 23.3951 210.533 23.3951C207.789 23.3951 205.05 25.0517 205.05 29.3965V42.2278H200.999V20.699H205.05V23.184Z" fill="white"/>
</g>
<defs>
<clipPath id="clip0_1885_10589">
<rect width="233.39" height="54.5586" fill="white" transform="translate(0.665039 0.436523)"/>
</clipPath>
</defs>
</svg>
