<svg width="145" height="117" viewBox="0 0 145 117" fill="none" xmlns="http://www.w3.org/2000/svg">
<path d="M0.555664 102.923C0.555664 95.1601 6.74534 88.9912 14.2724 88.9912C18.9154 88.9912 22.9943 91.2786 25.1748 95.0216L23.0656 96.2692C21.2369 93.2887 17.9298 91.4172 14.2724 91.4172C8.29348 91.4172 3.29873 96.4771 3.29873 102.923C3.29873 109.439 8.22227 114.499 14.2724 114.499C17.9298 114.499 21.2369 112.696 23.0656 109.716L25.1748 110.964C22.9943 114.707 18.9154 116.994 14.2724 116.994C6.74534 116.925 0.555664 110.756 0.555664 102.923Z" fill="white"/>
<path d="M32.8159 92.3064C33.5107 90.0493 35.1083 88.9912 37.1925 88.9912C39.2767 88.9912 40.8743 90.0493 41.5676 92.3064L49.2083 116.994H46.57L44.2776 109.306L30.2466 109.376L27.815 116.994H25.1753L32.8159 92.3064ZM30.871 106.837H43.4437L39.2767 93.0823C38.9293 91.9537 38.2346 91.3894 37.1925 91.3894C36.0815 91.3894 35.4557 91.9537 35.1083 93.0823L30.871 106.837Z" fill="white"/>
<path d="M53.311 116.925V89.5879H61.0909C67.9745 89.5879 72.6547 92.6642 72.6547 99.0265C72.6547 105.599 67.7668 108.535 61.1591 108.535H55.8588V116.995H53.311V116.925ZM55.8588 92.0349V106.018H61.0909C66.047 106.018 69.9703 103.991 69.9703 98.9565C69.9703 94.1324 66.3215 91.965 61.0909 91.965H55.8588V92.0349Z" fill="white"/>
<path d="M79.1027 89.5879V116.995H76.1719V89.5879H79.1027Z" fill="white"/>
<path d="M101.377 92.0412H92.6667V116.995H90.0875V92.0412H81.4468V89.5879H101.377V92.0412Z" fill="white"/>
<path d="M107.445 92.2981C108.156 90.0466 109.793 88.9912 111.927 88.9912C114.062 88.9912 115.698 90.0466 116.41 92.2981L124.237 116.924H121.462L119.114 109.254L104.741 109.325L102.322 116.994H99.6177L107.445 92.2981ZM105.452 106.792H118.33L114.062 93.072C113.706 91.9463 112.994 91.3834 111.927 91.3834C110.788 91.3834 110.149 91.9463 109.793 93.072L105.452 106.792Z" fill="white"/>
<path d="M130.364 114.541H144.753V116.995H130.364C128.388 116.995 127.754 116.013 127.754 114.401V89.5879H130.364V114.541Z" fill="white"/>
<path d="M0.555664 76.7696L2.76241 75.6524C3.93476 78.3758 6.62425 79.8423 10.0723 79.8423C13.7962 79.8423 16.6235 77.887 16.6235 74.535C16.6235 70.9037 13.3824 70.2054 9.86542 69.4372C5.79671 68.5295 1.17631 67.3423 1.17631 61.8955C1.17631 57.6356 5.1071 54.3535 9.79646 54.3535C13.6583 54.3535 17.1753 56.239 18.6235 59.8004L16.4857 60.9178C15.2443 58.2641 12.8997 56.7976 9.7275 56.7976C6.55529 56.7976 3.79684 58.8926 3.79684 61.7558C3.79684 65.387 7.10697 66.0854 10.693 66.8535C14.7617 67.7614 19.3131 68.9485 19.3131 74.4653C19.1752 79.2836 15.1754 82.3563 10.0723 82.3563C5.79671 82.3563 2.07281 80.4009 0.555664 76.7696Z" fill="white"/>
<path d="M24.0024 81.7613V54.9502H26.6248V67.2243H43.0682V54.9502H45.6907V81.7613H43.0682V69.5558H26.6248V81.6928H24.0024V81.7613Z" fill="white"/>
<path d="M54.4829 54.9502V81.7613H52.1382V54.9502H54.4829Z" fill="white"/>
<path d="M59.1724 81.7605L63.1248 57.3146C63.4777 55.3864 64.8892 54.3535 66.6538 54.3535C68.2065 54.3535 69.6181 55.111 70.1121 56.8325L76.0409 77.2844C76.1819 77.9042 76.3231 78.1108 76.6761 78.1108C77.0289 78.1108 77.1701 77.8353 77.3113 77.2844L83.2399 56.9014C83.7341 55.1799 85.1457 54.3535 86.6984 54.3535C88.3924 54.3535 89.8039 55.3864 90.1568 57.3834L93.7564 81.6227H91.1449L87.757 58.072C87.616 57.1769 87.4042 56.626 86.6278 56.626C86.0632 56.626 85.6397 57.108 85.4279 57.9343L79.2875 78.4552C78.9346 79.6946 77.8759 80.3833 76.6761 80.3833C75.5468 80.3833 74.4176 79.7635 74.0646 78.524L67.9242 57.8655C67.6419 57.0391 67.3596 56.626 66.795 56.626C66.2302 56.626 65.7362 57.108 65.595 58.072L61.8543 81.6916H59.1724V81.7605Z" fill="white"/>
<path d="M103.156 57.5982C103.85 55.389 105.448 54.3535 107.532 54.3535C109.546 54.3535 111.213 55.389 111.908 57.5982L119.548 81.7605H116.909L114.616 74.2357L100.586 74.3046L98.1545 81.7605H95.5151L103.156 57.5982ZM101.211 71.8195H113.783L109.615 58.3576C109.268 57.253 108.573 56.7007 107.532 56.7007C106.42 56.7007 105.795 57.253 105.448 58.3576L101.211 71.8195Z" fill="white"/>
<path d="M41.2927 26.7144C40.9312 27.8788 40.4476 28.985 39.9053 29.9748C39.7246 30.324 39.5439 30.6152 39.3619 30.9645C38.3971 32.3035 36.7081 33.235 34.8982 33.235C33.2703 33.235 31.762 32.5363 30.7972 31.4302C30.7362 31.372 30.6763 31.3137 30.6165 31.2556C29.5906 30.1493 28.1434 29.4507 26.5143 29.4507C26.0917 29.4507 25.7302 29.5089 25.3687 29.5672V40.4543C24.1621 40.6871 22.8346 40.8036 21.5682 40.8036C10.1077 40.8036 0.878906 31.8378 0.878906 20.8342C0.878906 9.83069 10.0474 0.806641 21.5084 0.806641C23.6797 0.806641 25.7901 1.15596 27.7807 1.73816L21.628 7.67656L25.3687 11.2862L38.518 23.9781L39.0602 24.5021L41.2927 26.7144Z" fill="white"/>
</svg>
