<svg width="500" height="45" viewBox="0 0 500 45" fill="none" xmlns="http://www.w3.org/2000/svg">
<path d="M271.258 22.1006C271.258 9.78573 281.077 0 293.017 0C300.382 0 306.853 3.62844 310.312 9.566L306.966 11.5451C304.065 6.81708 298.819 3.84835 293.017 3.84835C283.533 3.84835 275.61 11.875 275.61 22.1006C275.61 32.4361 283.42 40.4626 293.017 40.4626C298.819 40.4626 304.065 37.6037 306.966 32.8758L310.312 34.8551C306.853 40.7925 300.382 44.421 293.017 44.421C281.077 44.311 271.258 34.5251 271.258 22.1006Z" fill="white"/>
<path d="M322.432 5.25892C323.535 1.67838 326.069 0 329.375 0C332.681 0 335.215 1.67838 336.315 5.25892L348.436 44.421H344.251L340.614 32.225L318.357 32.3366L314.499 44.421H310.312L322.432 5.25892ZM319.347 28.3087H339.291L332.681 6.48974C332.13 4.69947 331.028 3.80432 329.375 3.80432C327.613 3.80432 326.62 4.69947 326.069 6.48974L319.347 28.3087Z" fill="white"/>
<path d="M354.946 44.3093V0.944336H367.287C378.207 0.944336 385.631 5.82427 385.631 15.9168C385.631 26.3421 377.877 31.0003 367.395 31.0003H358.987V44.4202H354.946V44.3093ZM358.987 4.82611V27.0077H367.287C375.149 27.0077 381.373 23.7914 381.373 15.8059C381.373 8.15336 375.584 4.71521 367.287 4.71521H358.987V4.82611Z" fill="white"/>
<path d="M395.859 0.944336V44.4202H391.21V0.944336H395.859Z" fill="white"/>
<path d="M431.192 4.83604H417.376V44.4202H413.284V4.83604H399.578V0.944336H431.192V4.83604Z" fill="white"/>
<path d="M440.816 5.24571C441.945 1.67416 444.541 0 447.926 0C451.313 0 453.909 1.67416 455.038 5.24571L467.454 44.3094H463.052L459.327 32.1437L436.527 32.2554L432.69 44.421H428.4L440.816 5.24571ZM437.656 28.2375H458.084L451.313 6.47343C450.748 4.68766 449.619 3.79476 447.926 3.79476C446.121 3.79476 445.106 4.68766 444.541 6.47343L437.656 28.2375Z" fill="white"/>
<path d="M477.173 40.5284H500V44.4202H477.173C474.04 44.4202 473.034 42.8635 473.034 40.3062V0.944336H477.173V40.5284Z" fill="white"/>
<path d="M0 36.1165L3.50059 34.3442C5.36029 38.6643 9.62665 40.9906 15.0963 40.9906C21.0036 40.9906 25.4886 37.889 25.4886 32.5716C25.4886 26.8113 20.3472 25.7036 14.7681 24.4851C8.31392 23.0451 0.984543 21.1618 0.984543 12.5215C0.984543 5.76407 7.21998 0.557617 14.6587 0.557617C20.7848 0.557617 26.3639 3.54857 28.6612 9.19812L25.27 10.9706C23.3008 6.76104 19.5815 4.43476 14.5494 4.43476C9.51725 4.43476 5.14151 7.75803 5.14151 12.2999C5.14151 18.0602 10.3924 19.1679 16.0809 20.3865C22.5351 21.8266 29.7551 23.7097 29.7551 32.4611C29.5363 40.1045 23.1914 44.9786 15.0963 44.9786C8.31392 44.9786 2.40667 41.8768 0 36.1165Z" fill="white"/>
<path d="M37.1963 44.0386V1.50781H41.3562V20.9784H67.4405V1.50781H71.6006V44.0386H67.4405V24.6768H41.3562V43.9298H37.1963V44.0386Z" fill="white"/>
<path d="M85.5475 1.50781V44.0386H81.8281V1.50781H85.5475Z" fill="white"/>
<path d="M92.9839 44.0335L99.2537 5.25478C99.8134 2.19616 102.053 0.557617 104.852 0.557617C107.315 0.557617 109.554 1.75922 110.338 4.49011L119.743 36.9331C119.966 37.9162 120.19 38.244 120.75 38.244C121.31 38.244 121.534 37.807 121.758 36.9331L131.162 4.59935C131.946 1.86846 134.186 0.557617 136.649 0.557617C139.336 0.557617 141.575 2.19616 142.135 5.36401L147.845 43.815H143.702L138.328 6.45636C138.104 5.03631 137.768 4.16241 136.537 4.16241C135.641 4.16241 134.969 4.92707 134.633 6.23789L124.893 38.7903C124.333 40.7565 122.653 41.8488 120.75 41.8488C118.959 41.8488 117.167 40.8657 116.608 38.8995L106.867 6.12865C106.419 4.81784 105.971 4.16241 105.076 4.16241C104.18 4.16241 103.396 4.92707 103.172 6.45636L97.2383 43.9242H92.9839V44.0335Z" fill="white"/>
<path d="M162.756 5.70465C163.858 2.20029 166.392 0.557617 169.698 0.557617C172.893 0.557617 175.537 2.20029 176.639 5.70465L188.759 44.0335H184.572L180.936 32.0969L158.679 32.2062L154.823 44.0335H150.636L162.756 5.70465ZM159.671 28.264H179.614L173.003 6.90928C172.452 5.1571 171.35 4.281 169.698 4.281C167.935 4.281 166.943 5.1571 166.392 6.90928L159.671 28.264Z" fill="white"/>
<path d="M252.224 28.7706C251.827 30.0637 251.295 31.292 250.699 32.3912C250.501 32.7791 250.302 33.1024 250.102 33.4903C249.042 34.9773 247.186 36.0117 245.196 36.0117C243.407 36.0117 241.75 35.2358 240.689 34.0075C240.622 33.9428 240.556 33.8781 240.491 33.8136C239.363 32.5851 237.773 31.8092 235.982 31.8092C235.518 31.8092 235.12 31.8739 234.723 31.9386V44.0288C233.397 44.2873 231.938 44.4166 230.546 44.4166C217.95 44.4166 207.808 34.4601 207.808 22.2406C207.808 10.0212 217.884 0 230.48 0C232.867 0 235.186 0.387918 237.374 1.03445L230.612 7.62905L234.723 11.6375L249.175 25.7319L249.771 26.3138L252.224 28.7706Z" fill="white"/>
</svg>
