<svg width="24" height="24" viewBox="0 0 24 24" fill="none" xmlns="http://www.w3.org/2000/svg">
<path d="M3.33301 9.77142C3.33301 9.45501 3.56814 9.19351 3.8732 9.15213L3.95801 9.14642H16.458C16.8032 9.14642 17.083 9.42625 17.083 9.77142C17.083 10.0878 16.8479 10.3493 16.5428 10.3907L16.458 10.3964H3.95801C3.61283 10.3964 3.33301 10.1166 3.33301 9.77142Z" fill="currentColor" stroke="currentColor" stroke-width="1" />
<path d="M10.976 5.19399C10.7314 4.95044 10.7305 4.55471 10.9741 4.31011C11.1955 4.08774 11.5427 4.06682 11.7878 4.24784L11.858 4.3082L16.8996 9.3282C17.1227 9.55028 17.143 9.8987 16.9605 10.1438L16.8997 10.214L11.858 15.2348C11.6134 15.4784 11.2177 15.4775 10.9741 15.233C10.7527 15.0106 10.7333 14.6633 10.9153 14.419L10.976 14.3491L15.5727 9.77085L10.976 5.19399Z" fill="currentColor" stroke="currentColor" stroke-width="1" />
</svg>
