<svg width="16" height="16" viewBox="0 0 16 16" fill="none" xmlns="http://www.w3.org/2000/svg">
<path fill-rule="evenodd" clip-rule="evenodd" d="M7.26438 3.44C7.59132 2.85333 8.40868 2.85333 8.73562 3.44L13.8849 12.68C14.2119 13.2667 13.8032 14 13.1493 14H2.85068C2.1968 14 1.78813 13.2667 2.11507 12.68L7.26438 3.44ZM7.20001 6.1999C7.20001 5.75807 7.55818 5.3999 8.00001 5.3999C8.44184 5.3999 8.80001 5.75807 8.80001 6.1999V9.1999C8.80001 9.64173 8.44184 9.9999 8.00001 9.9999C7.55818 9.9999 7.20001 9.64173 7.20001 9.1999V6.1999ZM8.00001 11C7.55818 11 7.20001 11.3582 7.20001 11.8C7.20001 12.2418 7.55818 12.6 8.00001 12.6C8.44184 12.6 8.80001 12.2418 8.80001 11.8C8.80001 11.3582 8.44184 11 8.00001 11Z" fill="#FF4F4F" fill-opacity="0.64"/>
</svg>
