<svg width="16" height="16" viewBox="0 0 16 16" fill="none" xmlns="http://www.w3.org/2000/svg">
<g opacity="0.4">
<path d="M12.4998 8.79883C12.1098 8.79883 11.7998 9.10883 11.7998 9.49883V11.4988C11.7998 12.7688 10.7698 13.7988 9.4998 13.7988H4.4998C3.2298 13.7988 2.1998 12.7688 2.1998 11.4988V6.49883C2.1998 5.22883 3.2298 4.19883 4.4998 4.19883H6.4998C6.8898 4.19883 7.1998 3.88883 7.1998 3.49883C7.1998 3.10883 6.8898 2.79883 6.4998 2.79883H4.4998C2.4598 2.79883 0.799805 4.45883 0.799805 6.49883V11.4988C0.799805 13.5388 2.4598 15.1988 4.4998 15.1988H9.4998C11.5398 15.1988 13.1998 13.5388 13.1998 11.4988V9.49883C13.1998 9.10883 12.8898 8.79883 12.4998 8.79883Z" fill="white"/>
<path d="M15.1495 1.22906C15.1195 1.14906 15.0595 1.06906 14.9995 0.999062C14.9995 0.999062 14.9595 0.979062 14.9495 0.959062C14.8995 0.909062 14.8395 0.869062 14.7695 0.839062C14.6795 0.799062 14.5895 0.789062 14.4995 0.789062H9.49945C9.10945 0.789062 8.79945 1.09906 8.79945 1.48906C8.79945 1.87906 9.10945 2.18906 9.49945 2.18906H12.8095L6.57945 8.41906C6.30945 8.68906 6.30945 9.13906 6.57945 9.40906C6.71945 9.54906 6.89945 9.61906 7.07945 9.61906C7.25945 9.61906 7.43945 9.54906 7.57945 9.40906L13.7895 3.19906V6.47906C13.7795 6.86906 14.0895 7.17906 14.4695 7.17906C14.8595 7.17906 15.1695 6.86906 15.1695 6.47906L15.1895 1.49906C15.1895 1.40906 15.1695 1.31906 15.1395 1.22906H15.1495Z" fill="white"/>
</g>
</svg>
