<svg width="24" height="24" viewBox="0 0 24 24" fill="none" xmlns="http://www.w3.org/2000/svg">
<path d="M21 4C21.4142 4 21.75 4.33579 21.75 4.75V7.75C21.75 8.16421 21.4142 8.5 21 8.5C20.5858 8.5 20.25 8.16421 20.25 7.75V4.75C20.25 4.33579 20.5858 4 21 4Z" fill="white"/>
<path d="M3.75 15.7495C3.75 15.3353 3.41421 14.9995 3 14.9995C2.58579 14.9995 2.25 15.3353 2.25 15.7495V19.7495C2.25 20.1637 2.58579 20.4995 3 20.4995C3.41421 20.4995 3.75 20.1637 3.75 19.7495V15.7495Z" fill="white"/>
<path d="M15.75 8.74902C15.75 8.33481 15.4142 7.99902 15 7.99902C14.5858 7.99902 14.25 8.33481 14.25 8.74902V11.749C14.25 12.1632 14.5858 12.499 15 12.499C15.4142 12.499 15.75 12.1632 15.75 11.749V8.74902Z" fill="white"/>
<path d="M9.75 10.75C9.75 10.3358 9.41421 10 9 10C8.58579 10 8.25 10.3358 8.25 10.75V14.75C8.25 15.1642 8.58579 15.5 9 15.5C9.41421 15.5 9.75 15.1642 9.75 14.75V10.75Z" fill="white"/>
<path d="M12 10C12.4142 10 12.75 10.3358 12.75 10.75V12.75C12.75 13.1642 12.4142 13.5 12 13.5C11.5858 13.5 11.25 13.1642 11.25 12.75V10.75C11.25 10.3358 11.5858 10 12 10Z" fill="white"/>
<path fill-rule="evenodd" clip-rule="evenodd" d="M12.0002 4C7.72004 4 4.25024 7.46979 4.25024 11.75C4.25024 16.0302 7.72004 19.5 12.0002 19.5C16.2805 19.5 19.7502 16.0302 19.7502 11.75C19.7502 7.46979 16.2805 4 12.0002 4ZM5.75024 11.75C5.75024 8.29822 8.54846 5.5 12.0002 5.5C15.452 5.5 18.2502 8.29822 18.2502 11.75C18.2502 15.2018 15.452 18 12.0002 18C8.54846 18 5.75024 15.2018 5.75024 11.75Z" fill="white"/>
</svg>
