<svg width="24" height="24" viewBox="0 0 24 24" fill="none" xmlns="http://www.w3.org/2000/svg">
<path fill-rule="evenodd" clip-rule="evenodd" d="M10.1454 14.0312C9.595 13.5284 9.24976 12.8047 9.24976 12.0005C9.24976 10.4817 10.481 9.25049 11.9998 9.25049C12.1748 9.25049 12.346 9.26684 12.5119 9.2981L13.3289 7.6641C13.5142 7.29362 13.9647 7.14345 14.3352 7.32869C14.7056 7.51393 14.8558 7.96444 14.6706 8.33492L13.8535 9.96914C14.4042 10.472 14.7498 11.1959 14.7498 12.0005C14.7498 13.5193 13.5185 14.7505 11.9998 14.7505C11.8244 14.7505 11.6529 14.7341 11.4867 14.7027L10.6706 16.3349C10.4853 16.7054 10.0348 16.8556 9.66435 16.6703C9.29386 16.4851 9.14369 16.0346 9.32894 15.6641L10.1454 14.0312ZM10.7498 12.0005C10.7498 11.3101 11.3094 10.7505 11.9998 10.7505C12.6901 10.7505 13.2498 11.3101 13.2498 12.0005C13.2498 12.6908 12.6901 13.2505 11.9998 13.2505C11.3094 13.2505 10.7498 12.6908 10.7498 12.0005Z" fill="#00FF66"/>
<path d="M18.0002 12.9995C18.5525 12.9995 19.0002 12.5518 19.0002 11.9995C19.0002 11.4472 18.5525 10.9995 18.0002 10.9995C17.448 10.9995 17.0002 11.4472 17.0002 11.9995C17.0002 12.5518 17.448 12.9995 18.0002 12.9995Z" fill="#00FF66"/>
<path d="M13.0002 5.99951C13.0002 6.5518 12.5525 6.99951 12.0002 6.99951C11.448 6.99951 11.0002 6.5518 11.0002 5.99951C11.0002 5.44723 11.448 4.99951 12.0002 4.99951C12.5525 4.99951 13.0002 5.44723 13.0002 5.99951Z" fill="#00FF66"/>
<path d="M12.0002 18.9995C12.5525 18.9995 13.0002 18.5518 13.0002 17.9995C13.0002 17.4472 12.5525 16.9995 12.0002 16.9995C11.448 16.9995 11.0002 17.4472 11.0002 17.9995C11.0002 18.5518 11.448 18.9995 12.0002 18.9995Z" fill="#00FF66"/>
<path d="M7.00024 11.9995C7.00024 12.5518 6.55253 12.9995 6.00024 12.9995C5.44796 12.9995 5.00024 12.5518 5.00024 11.9995C5.00024 11.4472 5.44796 10.9995 6.00024 10.9995C6.55253 10.9995 7.00024 11.4472 7.00024 11.9995Z" fill="#00FF66"/>
<path fill-rule="evenodd" clip-rule="evenodd" d="M12 2.25C6.61522 2.25 2.25 6.61522 2.25 12C2.25 17.3848 6.61522 21.75 12 21.75C17.3848 21.75 21.75 17.3848 21.75 12C21.75 6.61522 17.3848 2.25 12 2.25ZM3.75 12C3.75 7.44365 7.44365 3.75 12 3.75C16.5563 3.75 20.25 7.44365 20.25 12C20.25 16.5563 16.5563 20.25 12 20.25C7.44365 20.25 3.75 16.5563 3.75 12Z" fill="#00FF66"/>
</svg>
