<svg width="16" height="16" viewBox="0 0 16 16" fill="none" xmlns="http://www.w3.org/2000/svg">
<path d="M14.5 12C15.3284 12 16 11.3284 16 10.5C16 9.67157 15.3284 9 14.5 9C13.6716 9 13 9.67157 13 10.5C13 11.3284 13.6716 12 14.5 12Z" fill="currentColor" fill-opacity="0.4"/>
<path d="M13.96 7.62078C14.3 7.44078 14.43 7.01078 14.25 6.67078C12.97 4.28078 10.57 2.80078 8 2.80078C4.47 2.80078 1.53 5.53078 0.92 9.12078C0.38 9.35078 0 9.88078 0 10.5008C0 11.3308 0.67 12.0008 1.5 12.0008C2.33 12.0008 3 11.3308 3 10.5008C3 9.97078 2.73 9.51078 2.32 9.24078C2.86 6.37078 5.2 4.20078 8 4.20078C10.06 4.20078 11.98 5.40078 13.01 7.33078C13.19 7.67078 13.62 7.80078 13.96 7.62078Z" fill="currentColor" fill-opacity="0.4"/>
</svg>
