<svg width="16" height="16" viewBox="0 0 16 16" fill="none" xmlns="http://www.w3.org/2000/svg">
<path fill-rule="evenodd" clip-rule="evenodd" d="M8 14C11.3137 14 14 11.3137 14 8C14 4.68629 11.3137 2 8 2C4.68629 2 2 4.68629 2 8C2 11.3137 4.68629 14 8 14ZM11.6536 6.06144C11.9084 5.70048 11.8223 5.20132 11.4613 4.94652C11.1004 4.69173 10.6012 4.77779 10.3464 5.13875L7.53695 9.11883C7.4631 9.22346 7.31132 9.23268 7.22534 9.13777L5.5929 7.33573C5.29627 7.00828 4.79035 6.9833 4.4629 7.27993C4.13546 7.57656 4.11047 8.08247 4.4071 8.40992L6.03954 10.212C6.81335 11.0662 8.17943 10.9832 8.8441 10.0415L11.6536 6.06144Z" fill="#03D954" fill-opacity="0.64"/>
</svg>
