<svg width="24" height="24" fill="none" xmlns="http://www.w3.org/2000/svg">
    <path fill-rule="evenodd" clip-rule="evenodd" d="M17.938 9.426a6.348 6.348 0 0 1 1.203 3.715c0 1.331-.421 2.63-1.203 3.715l1.64 1.228a8.374 8.374 0 0 0 1.615-5.044 8.378 8.378 0 0 0-1.739-5.003l-.943.837-.573.552Z" fill="currentColor"/>
    <path fill-rule="evenodd" clip-rule="evenodd" d="m21.038 19.18-5.515-4.143a3.118 3.118 0 0 0 .162-3.598l2.64-2.355 2.763-2.554a.445.445 0 0 0 .011-.633l-.382-.377a10.97 10.97 0 0 0-7.406-3.2l.011-1.498a.894.894 0 0 0-.022-.3.741.741 0 0 0-.146-.266.696.696 0 0 0-.831-.178.757.757 0 0 0-.248.178.659.659 0 0 0-.145.255.543.543 0 0 0-.023.3l-.011 1.543c-.666.065-1.324.192-1.966.378L9.94.81a.893.893 0 0 0-.023-.299.75.75 0 0 0-.145-.266.696.696 0 0 0-.831-.178.757.757 0 0 0-.248.178.668.668 0 0 0-.146.255.543.543 0 0 0-.022.3l-.034 2.455a10.908 10.908 0 0 0-5.276 4.93 10.707 10.707 0 0 0-.998 7.104 10.803 10.803 0 0 0 3.718 6.162 11.047 11.047 0 0 0 6.802 2.515l8.026.034c.12 0 .235-.047.32-.13a.444.444 0 0 0 .132-.317v-4.007a.467.467 0 0 0-.178-.366ZM12.9 22.034a9.08 9.08 0 0 1-5.461-1.866 8.889 8.889 0 0 1-3.19-4.76 8.792 8.792 0 0 1 .397-5.693 8.932 8.932 0 0 1 3.817-4.284l-.01 2.921c-.01.1-.003.201.022.3a.75.75 0 0 0 .146.266.663.663 0 0 0 .246.177.67.67 0 0 0 .584 0 .773.773 0 0 0 .248-.177.668.668 0 0 0 .146-.256.543.543 0 0 0 .022-.299l.012-3.587a9.119 9.119 0 0 1 3.088-.522c1.94 0 3.825.628 5.37 1.786a.23.23 0 0 1 .09.168.227.227 0 0 1-.068.177l-4.2 3.809a3.248 3.248 0 0 0-1.214-.245 3.334 3.334 0 0 0-1.348.278 3.173 3.173 0 0 0-1.101.81 3.284 3.284 0 0 0-.662 1.19 3.088 3.088 0 0 0-.102 1.355c.092.685.41 1.322.902 1.813.493.49 1.135.81 1.828.907.458.068.926.034 1.37-.1l5.37 4.032a.232.232 0 0 1 .09.177l-.012 1.422c0 .06-.023.116-.066.158a.228.228 0 0 1-.16.066l-6.154-.023Zm1.314-8.884a1.306 1.306 0 0 1-.214.7c-.14.206-.34.368-.572.465-.23.1-.486.123-.73.067a1.379 1.379 0 0 1-.652-.344 1.23 1.23 0 0 1-.27-1.366c.099-.23.262-.427.472-.566.211-.135.456-.208.708-.212.335.002.656.136.892.371.235.236.367.554.366.885Z" fill="currentColor"/>
</svg>
