<svg width="24" height="24" fill="none" xmlns="http://www.w3.org/2000/svg">
    <path d="m23.98 12.07.02-.218a23.057 23.057 0 0 0-3.95-.043c.208-.653.316-1.391.308-2.23-.016-1.783-.618-3.171-1.562-4.323.182-1.086.046-2.17-.298-3.256a7.245 7.245 0 0 0-3.648 1.306c-2.024-.407-4.046-.432-6.07 0C7.518 2.464 6.278 2.05 5.06 2c-.363 1.195-.418 2.374-.113 3.532-1.064 1.117-1.471 2.472-1.45 3.974.01.859.144 1.623.39 2.3A23.094 23.094 0 0 0 0 11.852l.02.219a22.926 22.926 0 0 1 3.957-.039c.048.114.096.226.15.335-1.399-.036-2.658.084-3.835.37l.052.214c1.197-.29 2.479-.407 3.91-.36.945 1.662 2.767 2.639 5.42 2.949-.617.493-.947 1.078-1.032 1.738H7.237c-1.887 0-2.402-2.379-4.357-2.143 1.896.93 1.518 3.9 4.552 3.9h1.274v2.722c.014.44-.18.734-.493.938 1.087.109 1.904-.427 1.904-1.085v-3.598c0-.322.34-.347.34-.347v4.202c.013.419-.192.657-.41.884.958.037 1.858-.15 1.899-.958v-4.02c0-.203.334-.208.334 0v3.832c.01.68.604 1.23 1.86 1.146-.334-.269-.438-.54-.438-.93v-4.156s.347-.017.347.347v3.503c0 .781.948 1.103 2.03 1.073-.355-.263-.596-.576-.596-.994v-4.215c-.038-.62-.293-1.204-.792-1.747 2.424-.369 4.172-1.326 5.043-3.04 1.437-.049 2.721.068 3.922.36l.053-.215c-1.189-.288-2.457-.408-3.87-.37.05-.109.098-.217.14-.332a23.081 23.081 0 0 1 4 .036ZM3.729 15.49c-.06 0-.11-.035-.11-.075 0-.042.05-.076.11-.076.058 0 .107.034.107.076 0 .04-.049.074-.107.074Zm.338.229c-.065 0-.12-.037-.12-.084 0-.047.055-.084.12-.084.067 0 .12.037.12.084 0 .047-.053.084-.12.084Zm.345.297c-.078 0-.14-.044-.14-.098 0-.055.062-.1.14-.1.078 0 .14.045.14.1 0 .055-.062.098-.14.098Zm.335.357c-.09 0-.164-.051-.164-.115s.074-.115.164-.115c.091 0 .165.051.165.115s-.074.115-.165.115Zm.368.404c-.1 0-.182-.058-.182-.127 0-.072.082-.13.182-.13.103 0 .184.058.184.13 0 .07-.081.127-.184.127Zm.428.41c-.112 0-.202-.063-.202-.142 0-.079.09-.143.202-.143.113 0 .204.064.204.143 0 .079-.09.142-.204.142Zm.578.39c-.125 0-.226-.07-.226-.158s.101-.158.226-.158c.124 0 .225.07.225.158s-.1.158-.225.158Zm.716.21c-.124 0-.227-.072-.227-.159 0-.087.103-.159.227-.159.124 0 .226.072.226.16 0 .086-.102.158-.226.158Zm.755.022c-.125 0-.226-.07-.226-.157 0-.088.101-.158.226-.158s.224.07.224.159c0 .086-.1.156-.224.156Zm.745.016c-.124 0-.225-.07-.225-.16 0-.087.101-.157.225-.157.125 0 .226.07.226.157 0 .09-.101.16-.226.16Z" fill="currentColor"/>
</svg>
