<svg width="24" height="20" fill="none" xmlns="http://www.w3.org/2000/svg">
    <path d="M24.005 2.304a9.827 9.827 0 0 1-2.845.78A4.94 4.94 0 0 0 23.328.355 9.974 9.974 0 0 1 20.2 1.554a4.926 4.926 0 0 0-8.39 4.492A14.017 14.017 0 0 1 1.671.901a4.94 4.94 0 0 0 1.525 6.573 4.901 4.901 0 0 1-2.231-.62v.064a4.93 4.93 0 0 0 3.951 4.828 4.947 4.947 0 0 1-2.222.088 4.926 4.926 0 0 0 4.6 3.41 9.856 9.856 0 0 1-7.29 2.066 13.944 13.944 0 0 0 7.553 2.212c9.057 0 14.007-7.503 14.007-14.012v-.633a10.11 10.11 0 0 0 2.44-2.573Z" fill="currentColor"/>
</svg>
