<svg width="335" height="81" viewBox="0 0 335 81" fill="none" xmlns="http://www.w3.org/2000/svg">
<path d="M0 36.9655C0 24.0264 0 17.5568 2.51813 12.6147C4.73313 8.26751 8.26751 4.73313 12.6147 2.51813C17.5568 0 24.0264 0 36.9655 0H43.8966C56.8357 0 63.3053 0 68.2474 2.51813C72.5946 4.73313 76.1289 8.26751 78.3439 12.6147C80.8621 17.5568 80.8621 24.0264 80.8621 36.9655V43.8966C80.8621 56.8357 80.8621 63.3053 78.3439 68.2474C76.1289 72.5946 72.5946 76.1289 68.2474 78.3439C63.3053 80.8621 56.8357 80.8621 43.8966 80.8621H36.9655C24.0264 80.8621 17.5568 80.8621 12.6147 78.3439C8.26751 76.1289 4.73313 72.5946 2.51813 68.2474C0 63.3053 0 56.8357 0 43.8966V36.9655Z" fill="url(#paint0_linear_2100_20260)" fill-opacity="0.08"/>
<path fill-rule="evenodd" clip-rule="evenodd" d="M43.8966 1.15517H36.9655C30.4769 1.15517 25.6799 1.15607 21.8853 1.4661C18.1042 1.77503 15.4202 2.38513 13.1391 3.54739C9.00931 5.65165 5.65165 9.00931 3.54739 13.1391C2.38513 15.4202 1.77503 18.1042 1.4661 21.8853C1.15607 25.6799 1.15517 30.4769 1.15517 36.9655V43.8966C1.15517 50.3852 1.15607 55.1822 1.4661 58.9768C1.77503 62.7579 2.38513 65.4419 3.54739 67.7229C5.65165 71.8528 9.00931 75.2104 13.1391 77.3147C15.4202 78.4769 18.1042 79.087 21.8853 79.396C25.6799 79.706 30.4769 79.7069 36.9655 79.7069H43.8966C50.3852 79.7069 55.1822 79.706 58.9768 79.396C62.7579 79.087 65.4419 78.4769 67.7229 77.3147C71.8528 75.2104 75.2104 71.8528 77.3147 67.7229C78.4769 65.4419 79.087 62.7579 79.396 58.9768C79.706 55.1822 79.7069 50.3852 79.7069 43.8966V36.9655C79.7069 30.4769 79.706 25.6799 79.396 21.8853C79.087 18.1042 78.4769 15.4202 77.3147 13.1391C75.2104 9.00931 71.8528 5.65165 67.7229 3.54739C65.4419 2.38513 62.7579 1.77503 58.9768 1.4661C55.1822 1.15607 50.3852 1.15517 43.8966 1.15517ZM2.51813 12.6147C0 17.5568 0 24.0264 0 36.9655V43.8966C0 56.8357 0 63.3053 2.51813 68.2474C4.73313 72.5946 8.26751 76.1289 12.6147 78.3439C17.5568 80.8621 24.0264 80.8621 36.9655 80.8621H43.8966C56.8357 80.8621 63.3053 80.8621 68.2474 78.3439C72.5946 76.1289 76.1289 72.5946 78.3439 68.2474C80.8621 63.3053 80.8621 56.8357 80.8621 43.8966V36.9655C80.8621 24.0264 80.8621 17.5568 78.3439 12.6147C76.1289 8.26751 72.5946 4.73313 68.2474 2.51813C63.3053 0 56.8357 0 43.8966 0H36.9655C24.0264 0 17.5568 0 12.6147 2.51813C8.26751 4.73313 4.73313 8.26751 2.51813 12.6147Z" fill="#00FF60" fill-opacity="0.48"/>
<path d="M6.35352 29.5724C6.35352 19.2211 6.35352 14.0454 8.36802 10.0918C10.14 6.61401 12.9675 3.7865 16.4453 2.0145C20.399 0 25.5746 0 35.9259 0H46.0914C56.4428 0 61.6184 0 65.5721 2.0145C69.0499 3.7865 71.8774 6.61401 73.6494 10.0918C75.6639 14.0454 75.6639 19.2211 75.6639 29.5724V39.7379C75.6639 50.0892 75.6639 55.2649 73.6494 59.2186C71.8774 62.6963 69.0499 65.5238 65.5721 67.2958C61.6184 69.3103 56.4428 69.3103 46.0914 69.3103H35.9259C25.5746 69.3103 20.399 69.3103 16.4453 67.2958C12.9675 65.5238 10.14 62.6963 8.36802 59.2186C6.35352 55.2649 6.35352 50.0892 6.35352 39.7379V29.5724Z" fill="url(#paint1_linear_2100_20260)" fill-opacity="0.08"/>
<path fill-rule="evenodd" clip-rule="evenodd" d="M46.0914 1.15517H35.9259C30.7312 1.15517 26.9046 1.15607 23.8806 1.40315C20.87 1.64912 18.7566 2.13332 16.9697 3.04377C13.7093 4.70502 11.0585 7.3558 9.39728 10.6162C8.48684 12.403 8.00264 14.5164 7.75666 17.527C7.50959 20.5511 7.50869 24.3777 7.50869 29.5724V39.7379C7.50869 44.9327 7.50959 48.7592 7.75666 51.7833C8.00264 54.7939 8.48684 56.9073 9.39728 58.6941C11.0585 61.9545 13.7093 64.6053 16.9697 66.2666C18.7566 67.177 20.87 67.6612 23.8806 67.9072C26.9046 68.1543 30.7312 68.1552 35.9259 68.1552H46.0914C51.2862 68.1552 55.1127 68.1543 58.1368 67.9072C61.1474 67.6612 63.2608 67.177 65.0477 66.2666C68.3081 64.6053 70.9588 61.9545 72.6201 58.6941C73.5305 56.9073 74.0147 54.7939 74.2607 51.7833C74.5078 48.7592 74.5087 44.9327 74.5087 39.7379V29.5724C74.5087 24.3777 74.5078 20.5511 74.2607 17.527C74.0147 14.5164 73.5305 12.403 72.6201 10.6162C70.9588 7.3558 68.3081 4.70502 65.0477 3.04377C63.2608 2.13332 61.1474 1.64912 58.1368 1.40315C55.1127 1.15607 51.2862 1.15517 46.0914 1.15517ZM8.36802 10.0918C6.35352 14.0454 6.35352 19.2211 6.35352 29.5724V39.7379C6.35352 50.0892 6.35352 55.2649 8.36802 59.2186C10.14 62.6963 12.9675 65.5238 16.4453 67.2958C20.399 69.3103 25.5746 69.3103 35.9259 69.3103H46.0914C56.4428 69.3103 61.6184 69.3103 65.5721 67.2958C69.0499 65.5238 71.8774 62.6963 73.6494 59.2186C75.6639 55.2649 75.6639 50.0892 75.6639 39.7379V29.5724C75.6639 19.2211 75.6639 14.0454 73.6494 10.0918C71.8774 6.61401 69.0499 3.7865 65.5721 2.0145C61.6184 0 56.4428 0 46.0914 0H35.9259C25.5746 0 20.399 0 16.4453 2.0145C12.9675 3.7865 10.14 6.61401 8.36802 10.0918Z" fill="#00FF60" fill-opacity="0.48"/>
<path d="M39.2054 45.0517L32.2744 26.033H36.1835L40.7026 39.1188C40.7765 39.3036 40.8504 39.5161 40.9243 39.7564C40.9983 39.9967 41.0722 40.2277 41.1461 40.4495C41.2201 40.6528 41.2848 40.8377 41.3402 41.004H41.4788C41.5343 40.8561 41.5897 40.6805 41.6452 40.4772C41.7191 40.2739 41.793 40.0614 41.867 39.8396C41.9409 39.5993 42.0148 39.3683 42.0888 39.1465L46.5801 26.033H50.3228L43.3918 45.0517H39.2054Z" fill="#00FF60"/>
<path d="M127.068 36.9655C127.068 24.0264 127.068 17.5568 129.586 12.6147C131.801 8.26751 135.336 4.73313 139.683 2.51813C144.625 0 151.095 0 164.034 0H170.965C183.904 0 190.374 0 195.316 2.51813C199.663 4.73313 203.197 8.26751 205.412 12.6147C207.93 17.5568 207.93 24.0264 207.93 36.9655V43.8966C207.93 56.8357 207.93 63.3053 205.412 68.2474C203.197 72.5946 199.663 76.1289 195.316 78.3439C190.374 80.8621 183.904 80.8621 170.965 80.8621H164.034C151.095 80.8621 144.625 80.8621 139.683 78.3439C135.336 76.1289 131.801 72.5946 129.586 68.2474C127.068 63.3053 127.068 56.8357 127.068 43.8966V36.9655Z" fill="url(#paint2_linear_2100_20260)" fill-opacity="0.08"/>
<path fill-rule="evenodd" clip-rule="evenodd" d="M170.965 1.15517H164.034C157.545 1.15517 152.748 1.15607 148.954 1.4661C145.173 1.77503 142.489 2.38513 140.207 3.54739C136.078 5.65165 132.72 9.00931 130.616 13.1391C129.453 15.4202 128.843 18.1042 128.534 21.8853C128.224 25.6799 128.224 30.4769 128.224 36.9655V43.8966C128.224 50.3852 128.224 55.1822 128.534 58.9768C128.843 62.7579 129.453 65.4419 130.616 67.7229C132.72 71.8528 136.078 75.2104 140.207 77.3147C142.489 78.4769 145.173 79.087 148.954 79.396C152.748 79.706 157.545 79.7069 164.034 79.7069H170.965C177.454 79.7069 182.251 79.706 186.045 79.396C189.826 79.087 192.51 78.4769 194.791 77.3147C198.921 75.2104 202.279 71.8528 204.383 67.7229C205.545 65.4419 206.155 62.7579 206.464 58.9768C206.774 55.1822 206.775 50.3852 206.775 43.8966V36.9655C206.775 30.4769 206.774 25.6799 206.464 21.8853C206.155 18.1042 205.545 15.4202 204.383 13.1391C202.279 9.00931 198.921 5.65165 194.791 3.54739C192.51 2.38513 189.826 1.77503 186.045 1.4661C182.251 1.15607 177.454 1.15517 170.965 1.15517ZM129.586 12.6147C127.068 17.5568 127.068 24.0264 127.068 36.9655V43.8966C127.068 56.8357 127.068 63.3053 129.586 68.2474C131.801 72.5946 135.336 76.1289 139.683 78.3439C144.625 80.8621 151.095 80.8621 164.034 80.8621H170.965C183.904 80.8621 190.374 80.8621 195.316 78.3439C199.663 76.1289 203.197 72.5946 205.412 68.2474C207.93 63.3053 207.93 56.8357 207.93 43.8966V36.9655C207.93 24.0264 207.93 17.5568 205.412 12.6147C203.197 8.26751 199.663 4.73313 195.316 2.51813C190.374 0 183.904 0 170.965 0H164.034C151.095 0 144.625 0 139.683 2.51813C135.336 4.73313 131.801 8.26751 129.586 12.6147Z" fill="#00FF60" fill-opacity="0.48"/>
<path d="M133.422 29.5724C133.422 19.2211 133.422 14.0454 135.436 10.0918C137.208 6.61401 140.036 3.7865 143.514 2.0145C147.467 0 152.643 0 162.994 0H173.16C183.511 0 188.687 0 192.64 2.0145C196.118 3.7865 198.946 6.61401 200.718 10.0918C202.732 14.0454 202.732 19.2211 202.732 29.5724V39.7379C202.732 50.0892 202.732 55.2649 200.718 59.2186C198.946 62.6963 196.118 65.5238 192.64 67.2958C188.687 69.3103 183.511 69.3103 173.16 69.3103H162.994C152.643 69.3103 147.467 69.3103 143.514 67.2958C140.036 65.5238 137.208 62.6963 135.436 59.2186C133.422 55.2649 133.422 50.0892 133.422 39.7379V29.5724Z" fill="url(#paint3_linear_2100_20260)" fill-opacity="0.08"/>
<path fill-rule="evenodd" clip-rule="evenodd" d="M173.16 1.15517H162.994C157.8 1.15517 153.973 1.15607 150.949 1.40315C147.938 1.64912 145.825 2.13332 144.038 3.04377C140.778 4.70502 138.127 7.3558 136.466 10.6162C135.555 12.403 135.071 14.5164 134.825 17.527C134.578 20.5511 134.577 24.3777 134.577 29.5724V39.7379C134.577 44.9327 134.578 48.7592 134.825 51.7833C135.071 54.7939 135.555 56.9073 136.466 58.6941C138.127 61.9545 140.778 64.6053 144.038 66.2666C145.825 67.177 147.938 67.6612 150.949 67.9072C153.973 68.1543 157.8 68.1552 162.994 68.1552H173.16C178.355 68.1552 182.181 68.1543 185.205 67.9072C188.216 67.6612 190.329 67.177 192.116 66.2666C195.376 64.6053 198.027 61.9545 199.688 58.6941C200.599 56.9073 201.083 54.7939 201.329 51.7833C201.576 48.7592 201.577 44.9327 201.577 39.7379V29.5724C201.577 24.3777 201.576 20.5511 201.329 17.527C201.083 14.5164 200.599 12.403 199.688 10.6162C198.027 7.3558 195.376 4.70502 192.116 3.04377C190.329 2.13332 188.216 1.64912 185.205 1.40315C182.181 1.15607 178.355 1.15517 173.16 1.15517ZM135.436 10.0918C133.422 14.0454 133.422 19.2211 133.422 29.5724V39.7379C133.422 50.0892 133.422 55.2649 135.436 59.2186C137.208 62.6963 140.036 65.5238 143.514 67.2958C147.467 69.3103 152.643 69.3103 162.994 69.3103H173.16C183.511 69.3103 188.687 69.3103 192.64 67.2958C196.118 65.5238 198.946 62.6963 200.718 59.2186C202.732 55.2649 202.732 50.0892 202.732 39.7379V29.5724C202.732 19.2211 202.732 14.0454 200.718 10.0918C198.946 6.61401 196.118 3.7865 192.64 2.0145C188.687 0 183.511 0 173.16 0H162.994C152.643 0 147.467 0 143.514 2.0145C140.036 3.7865 137.208 6.61401 135.436 10.0918Z" fill="#00FF60" fill-opacity="0.48"/>
<path d="M166.272 45.0517V26.033H169.876V45.0517H166.272Z" fill="#00FF60"/>
<path d="M254.139 36.9655C254.139 24.0264 254.139 17.5568 256.657 12.6147C258.872 8.26751 262.406 4.73313 266.753 2.51813C271.695 0 278.165 0 291.104 0H298.035C310.974 0 317.444 0 322.386 2.51813C326.733 4.73313 330.268 8.26751 332.483 12.6147C335.001 17.5568 335.001 24.0264 335.001 36.9655V43.8966C335.001 56.8357 335.001 63.3053 332.483 68.2474C330.268 72.5946 326.733 76.1289 322.386 78.3439C317.444 80.8621 310.974 80.8621 298.035 80.8621H291.104C278.165 80.8621 271.695 80.8621 266.753 78.3439C262.406 76.1289 258.872 72.5946 256.657 68.2474C254.139 63.3053 254.139 56.8357 254.139 43.8966V36.9655Z" fill="url(#paint4_linear_2100_20260)" fill-opacity="0.08"/>
<path fill-rule="evenodd" clip-rule="evenodd" d="M298.035 1.15517H291.104C284.616 1.15517 279.819 1.15607 276.024 1.4661C272.243 1.77503 269.559 2.38513 267.278 3.54739C263.148 5.65165 259.79 9.00931 257.686 13.1391C256.524 15.4202 255.914 18.1042 255.605 21.8853C255.295 25.6799 255.294 30.4769 255.294 36.9655V43.8966C255.294 50.3852 255.295 55.1822 255.605 58.9768C255.914 62.7579 256.524 65.4419 257.686 67.7229C259.79 71.8528 263.148 75.2104 267.278 77.3147C269.559 78.4769 272.243 79.087 276.024 79.396C279.819 79.706 284.616 79.7069 291.104 79.7069H298.035C304.524 79.7069 309.321 79.706 313.115 79.396C316.897 79.087 319.581 78.4769 321.862 77.3147C325.991 75.2104 329.349 71.8528 331.453 67.7229C332.616 65.4419 333.226 62.7579 333.535 58.9768C333.845 55.1822 333.846 50.3852 333.846 43.8966V36.9655C333.846 30.4769 333.845 25.6799 333.535 21.8853C333.226 18.1042 332.616 15.4202 331.453 13.1391C329.349 9.00931 325.991 5.65165 321.862 3.54739C319.581 2.38513 316.897 1.77503 313.115 1.4661C309.321 1.15607 304.524 1.15517 298.035 1.15517ZM256.657 12.6147C254.139 17.5568 254.139 24.0264 254.139 36.9655V43.8966C254.139 56.8357 254.139 63.3053 256.657 68.2474C258.872 72.5946 262.406 76.1289 266.753 78.3439C271.695 80.8621 278.165 80.8621 291.104 80.8621H298.035C310.974 80.8621 317.444 80.8621 322.386 78.3439C326.733 76.1289 330.268 72.5946 332.483 68.2474C335.001 63.3053 335.001 56.8357 335.001 43.8966V36.9655C335.001 24.0264 335.001 17.5568 332.483 12.6147C330.268 8.26751 326.733 4.73313 322.386 2.51813C317.444 0 310.974 0 298.035 0H291.104C278.165 0 271.695 0 266.753 2.51813C262.406 4.73313 258.872 8.26751 256.657 12.6147Z" fill="#00FF60" fill-opacity="0.48"/>
<path d="M260.492 29.5724C260.492 19.2211 260.492 14.0454 262.507 10.0918C264.279 6.61401 267.106 3.7865 270.584 2.0145C274.538 0 279.713 0 290.065 0H300.23C310.581 0 315.757 0 319.711 2.0145C323.189 3.7865 326.016 6.61401 327.788 10.0918C329.803 14.0454 329.803 19.2211 329.803 29.5724V39.7379C329.803 50.0892 329.803 55.2649 327.788 59.2186C326.016 62.6963 323.189 65.5238 319.711 67.2958C315.757 69.3103 310.581 69.3103 300.23 69.3103H290.065C279.713 69.3103 274.538 69.3103 270.584 67.2958C267.106 65.5238 264.279 62.6963 262.507 59.2186C260.492 55.2649 260.492 50.0892 260.492 39.7379V29.5724Z" fill="url(#paint5_linear_2100_20260)" fill-opacity="0.08"/>
<path fill-rule="evenodd" clip-rule="evenodd" d="M300.23 1.15517H290.065C284.87 1.15517 281.043 1.15607 278.019 1.40315C275.009 1.64912 272.895 2.13332 271.108 3.04377C267.848 4.70502 265.197 7.3558 263.536 10.6162C262.626 12.403 262.141 14.5164 261.895 17.527C261.648 20.5511 261.647 24.3777 261.647 29.5724V39.7379C261.647 44.9327 261.648 48.7592 261.895 51.7833C262.141 54.7939 262.626 56.9073 263.536 58.6941C265.197 61.9545 267.848 64.6053 271.108 66.2666C272.895 67.177 275.009 67.6612 278.019 67.9072C281.043 68.1543 284.87 68.1552 290.065 68.1552H300.23C305.425 68.1552 309.251 68.1543 312.275 67.9072C315.286 67.6612 317.399 67.177 319.186 66.2666C322.447 64.6053 325.098 61.9545 326.759 58.6941C327.669 56.9073 328.153 54.7939 328.399 51.7833C328.646 48.7592 328.647 44.9327 328.647 39.7379V29.5724C328.647 24.3777 328.646 20.5511 328.399 17.527C328.153 14.5164 327.669 12.403 326.759 10.6162C325.098 7.3558 322.447 4.70502 319.186 3.04377C317.399 2.13332 315.286 1.64912 312.275 1.40315C309.251 1.15607 305.425 1.15517 300.23 1.15517ZM262.507 10.0918C260.492 14.0454 260.492 19.2211 260.492 29.5724V39.7379C260.492 50.0892 260.492 55.2649 262.507 59.2186C264.279 62.6963 267.106 65.5238 270.584 67.2958C274.538 69.3103 279.713 69.3103 290.065 69.3103H300.23C310.581 69.3103 315.757 69.3103 319.711 67.2958C323.189 65.5238 326.016 62.6963 327.788 59.2186C329.803 55.2649 329.803 50.0892 329.803 39.7379V29.5724C329.803 19.2211 329.803 14.0454 327.788 10.0918C326.016 6.61401 323.189 3.7865 319.711 2.0145C315.757 0 310.581 0 300.23 0H290.065C279.713 0 274.538 0 270.584 2.0145C267.106 3.7865 264.279 6.61401 262.507 10.0918Z" fill="#00FF60" fill-opacity="0.48"/>
<path d="M285.747 45.0517L293.149 26.033H297.696L305.126 45.0517H301.217L299.692 41.004H290.986L289.462 45.0517H285.747ZM292.123 37.9543H298.527L296.614 32.7976C296.541 32.6128 296.448 32.3818 296.337 32.1045C296.245 31.8088 296.143 31.4946 296.032 31.1619C295.921 30.8108 295.81 30.4596 295.7 30.1084C295.589 29.7572 295.487 29.443 295.395 29.1658H295.256C295.145 29.5354 295.006 29.9605 294.84 30.4411C294.692 30.9216 294.544 31.3745 294.397 31.7996C294.249 32.2247 294.129 32.5574 294.036 32.7976L292.123 37.9543Z" fill="#00FF60"/>
<path d="M120 40.2588C120 49.0953 112.837 56.2588 104 56.2588C95.1634 56.2588 88 49.0953 88 40.2588C88 31.4222 95.1634 24.2588 104 24.2588C112.837 24.2588 120 31.4222 120 40.2588Z" fill="white" fill-opacity="0.08"/>
<path d="M104 33.2588C103.448 33.2588 103 33.7065 103 34.2588V39.2588H98C97.4477 39.2588 97 39.7065 97 40.2588C97 40.811 97.4477 41.2588 98 41.2588H103V46.2588C103 46.811 103.448 47.2588 104 47.2588C104.552 47.2588 105 46.811 105 46.2588V41.2588H110C110.552 41.2588 111 40.811 111 40.2588C111 39.7065 110.552 39.2588 110 39.2588H105V34.2588C105 33.7065 104.552 33.2588 104 33.2588Z" fill="white"/>
<path d="M247 40.2588C247 49.0953 239.837 56.2588 231 56.2588C222.163 56.2588 215 49.0953 215 40.2588C215 31.4222 222.163 24.2588 231 24.2588C239.837 24.2588 247 31.4222 247 40.2588Z" fill="white" fill-opacity="0.08"/>
<path d="M231 33.2588C230.448 33.2588 230 33.7065 230 34.2588V39.2588H225C224.448 39.2588 224 39.7065 224 40.2588C224 40.811 224.448 41.2588 225 41.2588H230V46.2588C230 46.811 230.448 47.2588 231 47.2588C231.552 47.2588 232 46.811 232 46.2588V41.2588H237C237.552 41.2588 238 40.811 238 40.2588C238 39.7065 237.552 39.2588 237 39.2588H232V34.2588C232 33.7065 231.552 33.2588 231 33.2588Z" fill="white"/>
<defs>
<linearGradient id="paint0_linear_2100_20260" x1="40.431" y1="0" x2="40.431" y2="80.8621" gradientUnits="userSpaceOnUse">
<stop stop-color="#00FF60"/>
<stop offset="1" stop-color="#00FF60" stop-opacity="0"/>
</linearGradient>
<linearGradient id="paint1_linear_2100_20260" x1="41.0087" y1="0" x2="41.0087" y2="69.3103" gradientUnits="userSpaceOnUse">
<stop stop-color="#00FF60" stop-opacity="0"/>
<stop offset="1" stop-color="#00FF60"/>
</linearGradient>
<linearGradient id="paint2_linear_2100_20260" x1="167.499" y1="0" x2="167.499" y2="80.8621" gradientUnits="userSpaceOnUse">
<stop stop-color="#00FF60"/>
<stop offset="1" stop-color="#00FF60" stop-opacity="0"/>
</linearGradient>
<linearGradient id="paint3_linear_2100_20260" x1="168.077" y1="0" x2="168.077" y2="69.3103" gradientUnits="userSpaceOnUse">
<stop stop-color="#00FF60" stop-opacity="0"/>
<stop offset="1" stop-color="#00FF60"/>
</linearGradient>
<linearGradient id="paint4_linear_2100_20260" x1="294.57" y1="0" x2="294.57" y2="80.8621" gradientUnits="userSpaceOnUse">
<stop stop-color="#00FF60"/>
<stop offset="1" stop-color="#00FF60" stop-opacity="0"/>
</linearGradient>
<linearGradient id="paint5_linear_2100_20260" x1="295.147" y1="0" x2="295.147" y2="69.3103" gradientUnits="userSpaceOnUse">
<stop stop-color="#00FF60" stop-opacity="0"/>
<stop offset="1" stop-color="#00FF60"/>
</linearGradient>
</defs>
</svg>
