<svg width="16" height="16" viewBox="0 0 16 16" fill="none" xmlns="http://www.w3.org/2000/svg">
<path d="M14 7.30542C14 11.2171 11.6274 13.6991 8.31208 14.8924C8.11039 14.965 7.88961 14.965 7.68791 14.8924C4.37258 13.6991 2 11.2171 2 7.30542V3.54539C2 3.10387 2.28956 2.71461 2.71243 2.58764L7.71243 1.08635C7.90001 1.03002 8.09999 1.03002 8.28757 1.08635L13.2876 2.58764C13.7104 2.71461 14 3.10387 14 3.54539V7.30542Z" fill="url(#paint0_linear_10096_54869)"/>
<path d="M13.5 7.30542C13.5 9.15325 12.9421 10.6402 12.009 11.8058C11.0714 12.977 9.73424 13.8491 8.14276 14.4219C8.05051 14.4551 7.94949 14.4551 7.85724 14.4219C6.26576 13.8491 4.9286 12.977 3.99104 11.8058C3.05789 10.6402 2.5 9.15325 2.5 7.30542V3.54539C2.5 3.32463 2.64478 3.13 2.85621 3.06651L7.85621 1.56523C7.95 1.53706 8.05 1.53706 8.14379 1.56523L13.1438 3.06651C13.3552 3.13 13.5 3.32463 13.5 3.54539V7.30542Z" stroke="white" stroke-opacity="0.08"/>
<defs>
<linearGradient id="paint0_linear_10096_54869" x1="2" y1="2.80155" x2="14.5749" y2="14.3754" gradientUnits="userSpaceOnUse">
<stop stop-color="#14BC55" stop-opacity="0.8"/>
<stop offset="0.489583" stop-color="#00FF60" stop-opacity="0.4"/>
</linearGradient>
</defs>
</svg>
