<svg width="120" height="120" viewBox="0 0 120 120" fill="none" xmlns="http://www.w3.org/2000/svg">
<mask id="mask0_1906_31448" style="mask-type:alpha" maskUnits="userSpaceOnUse" x="0" y="0" width="120" height="120">
<rect width="120" height="120" fill="url(#paint0_linear_1906_31448)"/>
</mask>
<g mask="url(#mask0_1906_31448)">
<circle r="30" transform="matrix(-1 0 0 1 70 59)" fill="#00FF60" fill-opacity="0.08"/>
<circle r="29" transform="matrix(-1 0 0 1 70 59)" stroke="#00FF60" stroke-opacity="0.48" stroke-width="2"/>
<circle r="30" transform="matrix(-1 0 0 1 50 59)" fill="white" fill-opacity="0.08"/>
<circle r="29" transform="matrix(-1 0 0 1 50 59)" stroke="white" stroke-opacity="0.12" stroke-width="2"/>
<path d="M44.4574 44.6C46.2763 41.4496 47.1857 39.8744 48.3731 39.3458C49.4087 38.8847 50.5913 38.8847 51.6269 39.3458C52.8143 39.8744 53.7237 41.4496 55.5426 44.6L65.242 61.4C67.0609 64.5504 67.9703 66.1256 67.8345 67.4181C67.716 68.5455 67.1247 69.5697 66.2075 70.2361C65.1561 71 63.3372 71 59.6995 71H40.3005C36.6628 71 34.8439 71 33.7925 70.2361C32.8753 69.5697 32.284 68.5455 32.1655 67.4181C32.0297 66.1256 32.9391 64.5504 34.758 61.4L44.4574 44.6Z" fill="white" fill-opacity="0.02"/>
<path d="M54.6765 45.1L64.376 61.9C65.2953 63.4923 65.9492 64.6269 66.3632 65.5245C66.7794 66.4269 66.8791 66.9413 66.84 67.3136C66.7511 68.1592 66.3076 68.9273 65.6198 69.4271C65.3169 69.6471 64.8215 69.8179 63.832 69.9087C62.8477 69.999 61.5381 70 59.6995 70H40.3005C38.4619 70 37.1523 69.999 36.168 69.9087C35.1785 69.8179 34.6831 69.6471 34.3802 69.4271C33.6924 68.9273 33.2489 68.1592 33.16 67.3136C33.1209 66.9413 33.2206 66.4269 33.6368 65.5245C34.0508 64.6269 34.7047 63.4923 35.624 61.9L45.3235 45.1C46.2428 43.5077 46.8984 42.3741 47.4688 41.5668C48.0422 40.7552 48.4378 40.4116 48.7798 40.2594C49.5565 39.9135 50.4435 39.9135 51.2202 40.2594C51.5622 40.4116 51.9578 40.7552 52.5312 41.5668C53.1016 42.3741 53.7572 43.5077 54.6765 45.1Z" stroke="white" stroke-opacity="0.08" stroke-width="2"/>
<rect x="58" y="47" width="24" height="24" rx="8" fill="white" fill-opacity="0.02"/>
<rect x="59" y="48" width="22" height="22" rx="7" stroke="#00FF60" stroke-opacity="0.48" stroke-width="2"/>
</g>
<defs>
<linearGradient id="paint0_linear_1906_31448" x1="60" y1="0" x2="60" y2="120" gradientUnits="userSpaceOnUse">
<stop offset="0.509429"/>
<stop offset="0.973152" stop-opacity="0"/>
</linearGradient>
</defs>
</svg>
