<svg width="300" height="120" viewBox="0 0 300 120" fill="none" xmlns="http://www.w3.org/2000/svg">
<mask id="mask0_1930_8837" style="mask-type:alpha" maskUnits="userSpaceOnUse" x="0" y="0" width="300" height="120">
<mask id="mask1_1930_8837" style="mask-type:alpha" maskUnits="userSpaceOnUse" x="0" y="0" width="300" height="120">
<rect width="300" height="120" fill="url(#paint0_linear_1930_8837)"/>
</mask>
<g mask="url(#mask1_1930_8837)">
<rect width="300" height="120" fill="url(#paint1_linear_1930_8837)"/>
</g>
</mask>
<g mask="url(#mask0_1930_8837)">
<rect y="24" width="214" height="72" rx="16" fill="#00FF60" fill-opacity="0.08"/>
<g opacity="0.24">
<circle cx="36" cy="60" r="14" stroke="#00FF60" stroke-width="4"/>
<path d="M36 51L36 59.192C36 59.9866 36.4704 60.7058 37.1984 61.0243L44 64" stroke="#00FF60" stroke-width="4"/>
</g>
<path opacity="0.6" d="M68.3011 51.5455V69H65.6591V54.1875H65.5568L61.3807 56.9148V54.392L65.7358 51.5455H68.3011ZM78.4484 69V55.9091H80.8944V58.0398H81.0563C81.3291 57.3182 81.7751 56.7557 82.3944 56.3523C83.0137 55.9432 83.7552 55.7386 84.6188 55.7386C85.4938 55.7386 86.2268 55.9432 86.8177 56.3523C87.4143 56.7614 87.8546 57.3239 88.1387 58.0398H88.2751C88.5876 57.3409 89.0847 56.7841 89.7666 56.3693C90.4484 55.9489 91.2609 55.7386 92.2041 55.7386C93.3916 55.7386 94.3603 56.1108 95.1103 56.8551C95.866 57.5994 96.2438 58.7216 96.2438 60.2216V69H93.6955V60.4602C93.6955 59.5739 93.4541 58.9318 92.9711 58.5341C92.4882 58.1364 91.9114 57.9375 91.241 57.9375C90.4114 57.9375 89.7666 58.1932 89.3063 58.7045C88.8461 59.2102 88.616 59.8608 88.616 60.6562V69H86.0762V60.2983C86.0762 59.5881 85.8546 59.017 85.4114 58.5852C84.9683 58.1534 84.3916 57.9375 83.6813 57.9375C83.1984 57.9375 82.7524 58.0653 82.3433 58.321C81.9399 58.571 81.6132 58.9205 81.3632 59.3693C81.1188 59.8182 80.9967 60.3381 80.9967 60.929V69H78.4484ZM99.1793 69V55.9091H101.728V69H99.1793ZM100.466 53.8892C100.023 53.8892 99.6424 53.7415 99.3242 53.446C99.0117 53.1449 98.8555 52.7869 98.8555 52.3722C98.8555 51.9517 99.0117 51.5937 99.3242 51.2983C99.6424 50.9972 100.023 50.8466 100.466 50.8466C100.909 50.8466 101.287 50.9972 101.6 51.2983C101.918 51.5937 102.077 51.9517 102.077 52.3722C102.077 52.7869 101.918 53.1449 101.6 53.446C101.287 53.7415 100.909 53.8892 100.466 53.8892ZM107.224 61.2273V69H104.676V55.9091H107.122V58.0398H107.284C107.585 57.3466 108.057 56.7898 108.699 56.3693C109.346 55.9489 110.162 55.7386 111.145 55.7386C112.037 55.7386 112.818 55.9261 113.488 56.3011C114.159 56.6705 114.679 57.2216 115.048 57.9545C115.417 58.6875 115.602 59.5937 115.602 60.6733V69H113.054V60.9801C113.054 60.0312 112.807 59.2898 112.312 58.7557C111.818 58.2159 111.139 57.946 110.275 57.946C109.684 57.946 109.159 58.0739 108.699 58.3295C108.244 58.5852 107.883 58.9602 107.616 59.4545C107.355 59.9432 107.224 60.5341 107.224 61.2273ZM130.999 51.5455V69H128.357V54.1875H128.255L124.079 56.9148V54.392L128.434 51.5455H130.999ZM135.241 69V67.0909L141.147 60.9716C141.778 60.3068 142.298 59.7244 142.707 59.2244C143.122 58.7187 143.431 58.2386 143.636 57.7841C143.84 57.3295 143.943 56.8466 143.943 56.3352C143.943 55.7557 143.806 55.2557 143.533 54.8352C143.261 54.4091 142.889 54.0824 142.417 53.8551C141.945 53.6222 141.414 53.5057 140.823 53.5057C140.198 53.5057 139.653 53.6335 139.187 53.8892C138.721 54.1449 138.363 54.5057 138.113 54.9716C137.863 55.4375 137.738 55.983 137.738 56.608H135.224C135.224 55.5455 135.468 54.6165 135.957 53.821C136.445 53.0256 137.116 52.4091 137.968 51.9716C138.82 51.5284 139.789 51.3068 140.874 51.3068C141.971 51.3068 142.937 51.5256 143.772 51.9631C144.613 52.3949 145.269 52.9858 145.741 53.7358C146.212 54.4801 146.448 55.321 146.448 56.2585C146.448 56.9062 146.326 57.5398 146.082 58.1591C145.843 58.7784 145.426 59.4687 144.829 60.2301C144.232 60.9858 143.403 61.9034 142.34 62.983L138.872 66.6136V66.7415H146.729V69H135.241ZM165.195 59.1051L162.885 59.5142C162.789 59.2187 162.635 58.9375 162.425 58.6705C162.22 58.4034 161.942 58.1847 161.59 58.0142C161.238 57.8437 160.797 57.7585 160.269 57.7585C159.547 57.7585 158.945 57.9205 158.462 58.2443C157.979 58.5625 157.738 58.9744 157.738 59.4801C157.738 59.9176 157.899 60.2699 158.223 60.5369C158.547 60.804 159.07 61.0227 159.792 61.1932L161.871 61.6705C163.076 61.9489 163.973 62.3778 164.564 62.9574C165.155 63.5369 165.451 64.2898 165.451 65.2159C165.451 66 165.223 66.6989 164.769 67.3125C164.32 67.9205 163.692 68.3977 162.885 68.7443C162.084 69.0909 161.155 69.2642 160.098 69.2642C158.632 69.2642 157.436 68.9517 156.51 68.3267C155.584 67.696 155.016 66.8011 154.806 65.642L157.269 65.267C157.422 65.9091 157.738 66.3949 158.215 66.7244C158.692 67.0483 159.314 67.2102 160.081 67.2102C160.917 67.2102 161.584 67.0369 162.084 66.6903C162.584 66.3381 162.834 65.9091 162.834 65.4034C162.834 64.9943 162.681 64.6506 162.374 64.3722C162.073 64.0937 161.61 63.8835 160.985 63.7415L158.769 63.2557C157.547 62.9773 156.644 62.5341 156.059 61.9261C155.479 61.3182 155.189 60.5483 155.189 59.6165C155.189 58.8437 155.405 58.1676 155.837 57.5881C156.269 57.0085 156.865 56.5568 157.627 56.233C158.388 55.9034 159.26 55.7386 160.243 55.7386C161.658 55.7386 162.772 56.0455 163.584 56.6591C164.397 57.267 164.934 58.0824 165.195 59.1051ZM173.414 69.2642C172.125 69.2642 171.014 68.9886 170.082 68.4375C169.156 67.8807 168.44 67.0994 167.934 66.0938C167.434 65.0824 167.184 63.8977 167.184 62.5398C167.184 61.1989 167.434 60.017 167.934 58.9943C168.44 57.9716 169.145 57.1733 170.048 56.5994C170.957 56.0256 172.02 55.7386 173.236 55.7386C173.974 55.7386 174.69 55.8608 175.383 56.1051C176.076 56.3494 176.699 56.733 177.25 57.2557C177.801 57.7784 178.236 58.4574 178.554 59.2926C178.872 60.1222 179.031 61.1307 179.031 62.3182V63.2216H168.625V61.3125H176.534C176.534 60.642 176.397 60.0483 176.125 59.5312C175.852 59.0085 175.468 58.5966 174.974 58.2955C174.486 57.9943 173.912 57.8438 173.253 57.8438C172.537 57.8438 171.912 58.0199 171.378 58.3722C170.849 58.7187 170.44 59.1733 170.15 59.7358C169.866 60.2926 169.724 60.8977 169.724 61.5511V63.0426C169.724 63.9176 169.878 64.6619 170.184 65.2756C170.497 65.8892 170.932 66.358 171.488 66.6818C172.045 67 172.696 67.1591 173.44 67.1591C173.923 67.1591 174.363 67.0909 174.761 66.9545C175.159 66.8125 175.503 66.6023 175.792 66.3239C176.082 66.0455 176.304 65.7017 176.457 65.2926L178.869 65.7273C178.676 66.4375 178.329 67.0597 177.829 67.5938C177.335 68.1222 176.713 68.5341 175.963 68.8295C175.218 69.1193 174.369 69.2642 173.414 69.2642ZM186.893 69.2642C185.626 69.2642 184.535 68.9773 183.62 68.4034C182.711 67.8239 182.012 67.0256 181.523 66.0085C181.035 64.9915 180.79 63.8267 180.79 62.5142C180.79 61.1847 181.04 60.0114 181.54 58.9943C182.04 57.9716 182.745 57.1733 183.654 56.5994C184.563 56.0256 185.634 55.7386 186.867 55.7386C187.861 55.7386 188.748 55.9233 189.526 56.2926C190.305 56.6562 190.932 57.1676 191.41 57.8267C191.893 58.4858 192.18 59.2557 192.27 60.1364H189.79C189.654 59.5227 189.341 58.9943 188.853 58.5511C188.37 58.108 187.722 57.8864 186.91 57.8864C186.199 57.8864 185.577 58.0739 185.043 58.4489C184.515 58.8182 184.103 59.3466 183.807 60.0341C183.512 60.7159 183.364 61.5227 183.364 62.4545C183.364 63.4091 183.509 64.233 183.799 64.9261C184.089 65.6193 184.498 66.1562 185.026 66.5369C185.56 66.9176 186.188 67.108 186.91 67.108C187.393 67.108 187.83 67.0199 188.222 66.8438C188.62 66.6619 188.952 66.4034 189.219 66.0682C189.492 65.733 189.682 65.3295 189.79 64.858H192.27C192.18 65.7045 191.904 66.4602 191.444 67.125C190.983 67.7898 190.367 68.3125 189.594 68.6932C188.827 69.0739 187.927 69.2642 186.893 69.2642Z" fill="#00FF60"/>
<rect x="1" y="25" width="212" height="70" rx="15" stroke="#00FF60" stroke-opacity="0.48" stroke-width="2"/>
<rect x="218" y="24" width="128.5" height="72" rx="16" fill="white" fill-opacity="0.02"/>
<g opacity="0.24">
<rect x="240" y="46" width="20" height="28" rx="6" stroke="white" stroke-width="4"/>
<path d="M260 54.5H263.5C265.709 54.5 267.5 56.2909 267.5 58.5V61.5" stroke="white" stroke-width="4" stroke-linecap="round"/>
<path d="M248 55H252" stroke="white" stroke-width="4" stroke-linecap="round"/>
</g>
<path opacity="0.48" d="M282.565 71.1818V49.3636H283.963V71.1818H282.565ZM286.938 56.1307C286.847 55.3239 286.472 54.6989 285.812 54.2557C285.153 53.8068 284.324 53.5824 283.324 53.5824C282.608 53.5824 281.989 53.696 281.466 53.9233C280.943 54.1449 280.537 54.4517 280.247 54.8438C279.963 55.2301 279.821 55.6705 279.821 56.1648C279.821 56.5795 279.918 56.9375 280.111 57.2386C280.31 57.5398 280.568 57.7926 280.886 57.9972C281.21 58.196 281.557 58.3636 281.926 58.5C282.295 58.6307 282.651 58.7386 282.991 58.8239L284.696 59.267C285.253 59.4034 285.824 59.5881 286.409 59.821C286.994 60.054 287.537 60.3608 288.037 60.7415C288.537 61.1222 288.94 61.5938 289.247 62.1562C289.56 62.7188 289.716 63.392 289.716 64.1761C289.716 65.1648 289.46 66.0426 288.949 66.8097C288.443 67.5767 287.707 68.1818 286.741 68.625C285.781 69.0682 284.619 69.2898 283.256 69.2898C281.949 69.2898 280.818 69.0824 279.864 68.6676C278.909 68.2528 278.162 67.6648 277.622 66.9034C277.082 66.1364 276.784 65.2273 276.727 64.1761H279.369C279.42 64.8068 279.625 65.3324 279.983 65.7528C280.347 66.1676 280.81 66.4773 281.372 66.6818C281.94 66.8807 282.562 66.9801 283.239 66.9801C283.983 66.9801 284.645 66.8636 285.224 66.6307C285.81 66.392 286.27 66.0625 286.605 65.642C286.94 65.2159 287.108 64.7187 287.108 64.1506C287.108 63.6335 286.96 63.2102 286.665 62.8807C286.375 62.5511 285.98 62.2784 285.48 62.0625C284.986 61.8466 284.426 61.6562 283.801 61.4915L281.739 60.929C280.341 60.5483 279.233 59.9886 278.415 59.25C277.602 58.5114 277.196 57.5341 277.196 56.3182C277.196 55.3125 277.469 54.4347 278.014 53.6847C278.56 52.9347 279.298 52.3523 280.23 51.9375C281.162 51.517 282.213 51.3068 283.384 51.3068C284.565 51.3068 285.608 51.5142 286.511 51.929C287.42 52.3438 288.136 52.9148 288.659 53.642C289.182 54.3636 289.455 55.1932 289.477 56.1307H286.938ZM298.221 69.2898C296.874 69.2841 295.724 68.929 294.769 68.2244C293.815 67.5199 293.085 66.4943 292.579 65.1477C292.073 63.8011 291.82 62.179 291.82 60.2812C291.82 58.3892 292.073 56.7727 292.579 55.4318C293.09 54.0909 293.823 53.0682 294.778 52.3636C295.738 51.6591 296.886 51.3068 298.221 51.3068C299.556 51.3068 300.701 51.6619 301.656 52.3722C302.61 53.0767 303.34 54.0994 303.846 55.4403C304.357 56.7756 304.613 58.3892 304.613 60.2812C304.613 62.1847 304.36 63.8097 303.855 65.1562C303.349 66.4972 302.619 67.5227 301.664 68.233C300.71 68.9375 299.562 69.2898 298.221 69.2898ZM298.221 67.0142C299.403 67.0142 300.326 66.4375 300.991 65.2841C301.661 64.1307 301.997 62.4631 301.997 60.2812C301.997 58.8324 301.843 57.608 301.536 56.608C301.235 55.6023 300.801 54.8409 300.232 54.3239C299.67 53.8011 298.999 53.5398 298.221 53.5398C297.045 53.5398 296.122 54.1193 295.451 55.2784C294.781 56.4375 294.443 58.1051 294.437 60.2812C294.437 61.7358 294.587 62.9659 294.889 63.9716C295.195 64.9716 295.63 65.7301 296.193 66.2472C296.755 66.7585 297.431 67.0142 298.221 67.0142ZM308.237 69.1619C307.771 69.1619 307.37 68.9972 307.035 68.6676C306.7 68.3324 306.532 67.929 306.532 67.4574C306.532 66.9915 306.7 66.5937 307.035 66.2642C307.37 65.929 307.771 65.7614 308.237 65.7614C308.703 65.7614 309.103 65.929 309.438 66.2642C309.774 66.5937 309.941 66.9915 309.941 67.4574C309.941 67.7699 309.862 68.0568 309.703 68.3182C309.549 68.5739 309.345 68.7784 309.089 68.9318C308.833 69.0852 308.549 69.1619 308.237 69.1619ZM318.284 69.2386C317.114 69.2386 316.069 69.0369 315.148 68.6335C314.233 68.2301 313.509 67.6705 312.975 66.9545C312.446 66.233 312.162 65.3977 312.123 64.4489H314.799C314.833 64.9659 315.006 65.4148 315.319 65.7955C315.637 66.1705 316.051 66.4602 316.563 66.6648C317.074 66.8693 317.642 66.9716 318.267 66.9716C318.955 66.9716 319.563 66.8523 320.091 66.6136C320.625 66.375 321.043 66.0426 321.344 65.6165C321.645 65.1847 321.796 64.6875 321.796 64.125C321.796 63.5398 321.645 63.0256 321.344 62.5824C321.049 62.1335 320.614 61.7812 320.04 61.5256C319.472 61.2699 318.784 61.142 317.978 61.142H316.503V58.9943H317.978C318.625 58.9943 319.194 58.8778 319.682 58.6449C320.176 58.4119 320.563 58.0881 320.841 57.6733C321.12 57.2528 321.259 56.7614 321.259 56.1989C321.259 55.6591 321.137 55.1903 320.892 54.7926C320.654 54.3892 320.313 54.0739 319.87 53.8466C319.432 53.6193 318.915 53.5057 318.319 53.5057C317.75 53.5057 317.219 53.6108 316.725 53.821C316.236 54.0256 315.838 54.321 315.532 54.7074C315.225 55.0881 315.06 55.5455 315.037 56.0795H312.489C312.517 55.1364 312.796 54.3068 313.324 53.5909C313.858 52.875 314.563 52.3153 315.438 51.9119C316.313 51.5085 317.284 51.3068 318.353 51.3068C319.472 51.3068 320.438 51.5256 321.25 51.9631C322.069 52.3949 322.699 52.9716 323.142 53.6932C323.591 54.4148 323.813 55.2045 323.807 56.0625C323.813 57.0398 323.54 57.8693 322.989 58.5511C322.444 59.233 321.716 59.6903 320.807 59.9233V60.0597C321.966 60.2358 322.864 60.696 323.5 61.4403C324.142 62.1847 324.461 63.108 324.455 64.2102C324.461 65.1705 324.194 66.0312 323.654 66.7926C323.12 67.554 322.39 68.1534 321.463 68.5909C320.537 69.0227 319.478 69.2386 318.284 69.2386Z" fill="white"/>
<rect x="219" y="25" width="126.5" height="70" rx="15" stroke="white" stroke-opacity="0.08" stroke-width="2"/>
</g>
<defs>
<linearGradient id="paint0_linear_1930_8837" x1="150" y1="60" x2="150" y2="120" gradientUnits="userSpaceOnUse">
<stop stop-color="#090A0C"/>
<stop offset="1" stop-color="#090A0C" stop-opacity="0"/>
</linearGradient>
<linearGradient id="paint1_linear_1930_8837" x1="150" y1="60" x2="300" y2="60" gradientUnits="userSpaceOnUse">
<stop stop-color="#090A0C"/>
<stop offset="1" stop-color="#090A0C" stop-opacity="0"/>
</linearGradient>
</defs>
</svg>
