<svg width="300" height="120" viewBox="0 0 300 120" fill="none" xmlns="http://www.w3.org/2000/svg">
<mask id="mask0_1905_31027" style="mask-type:alpha" maskUnits="userSpaceOnUse" x="0" y="0" width="300" height="120">
<mask id="mask1_1905_31027" style="mask-type:alpha" maskUnits="userSpaceOnUse" x="0" y="0" width="300" height="120">
<rect width="300" height="120" fill="url(#paint0_linear_1905_31027)"/>
</mask>
<g mask="url(#mask1_1905_31027)">
<rect width="300" height="120" fill="url(#paint1_linear_1905_31027)"/>
</g>
</mask>
<g mask="url(#mask0_1905_31027)">
<path d="M0 35.2C0 22.8788 0 16.7183 2.39786 12.0122C4.50707 7.87264 7.87264 4.50707 12.0122 2.39786C16.7183 0 22.8788 0 35.2 0H277.8C290.121 0 296.282 0 300.988 2.39786C305.127 4.50707 308.493 7.87264 310.602 12.0122C313 16.7183 313 22.8788 313 35.2V121H0V35.2Z" fill="white" fill-opacity="0.02"/>
<path d="M1 35.2C1 29.0229 1.00078 24.4503 1.29641 20.8319C1.59109 17.2252 2.17374 14.6548 3.28886 12.4662C5.3022 8.5148 8.5148 5.3022 12.4662 3.28886C14.6548 2.17374 17.2252 1.59109 20.8319 1.29641C24.4503 1.00078 29.0229 1 35.2 1H277.8C283.977 1 288.55 1.00078 292.168 1.29641C295.775 1.59109 298.345 2.17374 300.534 3.28886C304.485 5.3022 307.698 8.5148 309.711 12.4662C310.826 14.6548 311.409 17.2252 311.704 20.8319C311.999 24.4503 312 29.0229 312 35.2V120H1V35.2Z" stroke="white" stroke-opacity="0.08" stroke-width="2"/>
<rect x="21" y="21" width="274" height="62" rx="9" stroke="white" stroke-opacity="0.08" stroke-width="2"/>
<path opacity="0.4" d="M115.312 56.5909V54.4602L122.855 42.5455H124.534V45.6818H123.469L118.074 54.2216V54.358H128.412V56.5909H115.312ZM123.588 60V55.9432L123.605 54.9716V42.5455H126.102V60H123.588ZM136.8 60.2386C135.578 60.2386 134.499 60.0284 133.561 59.608C132.629 59.1875 131.899 58.608 131.371 57.8693C130.842 57.1307 130.581 56.2898 130.587 55.3466C130.581 54.608 130.732 53.929 131.038 53.3097C131.351 52.6847 131.774 52.1648 132.308 51.75C132.842 51.3295 133.439 51.0625 134.098 50.9489V50.8466C133.229 50.6364 132.533 50.1705 132.01 49.4489C131.487 48.7273 131.229 47.8977 131.234 46.9602C131.229 46.0682 131.465 45.2727 131.942 44.5739C132.425 43.8693 133.087 43.3153 133.928 42.9119C134.769 42.5085 135.726 42.3068 136.8 42.3068C137.862 42.3068 138.811 42.5114 139.646 42.9205C140.487 43.3239 141.149 43.8778 141.632 44.5824C142.115 45.2812 142.359 46.0739 142.365 46.9602C142.359 47.8977 142.092 48.7273 141.564 49.4489C141.036 50.1705 140.348 50.6364 139.502 50.8466V50.9489C140.155 51.0625 140.743 51.3295 141.266 51.75C141.794 52.1648 142.215 52.6847 142.527 53.3097C142.845 53.929 143.007 54.608 143.013 55.3466C143.007 56.2898 142.74 57.1307 142.212 57.8693C141.683 58.608 140.95 59.1875 140.013 59.608C139.081 60.0284 138.01 60.2386 136.8 60.2386ZM136.8 58.0824C137.521 58.0824 138.146 57.9631 138.675 57.7244C139.203 57.4801 139.612 57.142 139.902 56.7102C140.192 56.2727 140.34 55.7614 140.345 55.1761C140.34 54.5682 140.181 54.0312 139.868 53.5653C139.561 53.0994 139.144 52.733 138.615 52.4659C138.087 52.1989 137.482 52.0653 136.8 52.0653C136.112 52.0653 135.502 52.1989 134.967 52.4659C134.433 52.733 134.013 53.0994 133.706 53.5653C133.399 54.0312 133.249 54.5682 133.254 55.1761C133.249 55.7614 133.388 56.2727 133.672 56.7102C133.962 57.142 134.374 57.4801 134.908 57.7244C135.442 57.9631 136.073 58.0824 136.8 58.0824ZM136.8 49.9602C137.379 49.9602 137.894 49.8437 138.342 49.6108C138.791 49.3778 139.144 49.054 139.399 48.6392C139.661 48.2244 139.794 47.7386 139.8 47.1818C139.794 46.6364 139.663 46.1591 139.408 45.75C139.158 45.3409 138.808 45.0256 138.359 44.804C137.911 44.5767 137.391 44.4631 136.8 44.4631C136.198 44.4631 135.669 44.5767 135.215 44.804C134.766 45.0256 134.416 45.3409 134.166 45.75C133.916 46.1591 133.794 46.6364 133.8 47.1818C133.794 47.7386 133.919 48.2244 134.175 48.6392C134.431 49.054 134.783 49.3778 135.232 49.6108C135.686 49.8437 136.209 49.9602 136.8 49.9602ZM155.43 50.1051L153.12 50.5142C153.024 50.2187 152.87 49.9375 152.66 49.6705C152.455 49.4034 152.177 49.1847 151.825 49.0142C151.473 48.8437 151.032 48.7585 150.504 48.7585C149.782 48.7585 149.18 48.9205 148.697 49.2443C148.214 49.5625 147.973 49.9744 147.973 50.4801C147.973 50.9176 148.134 51.2699 148.458 51.5369C148.782 51.804 149.305 52.0227 150.027 52.1932L152.106 52.6705C153.311 52.9489 154.208 53.3778 154.799 53.9574C155.39 54.5369 155.686 55.2898 155.686 56.2159C155.686 57 155.458 57.6989 155.004 58.3125C154.555 58.9205 153.927 59.3977 153.12 59.7443C152.319 60.0909 151.39 60.2642 150.333 60.2642C148.867 60.2642 147.671 59.9517 146.745 59.3267C145.819 58.696 145.251 57.8011 145.041 56.642L147.504 56.267C147.657 56.9091 147.973 57.3949 148.45 57.7244C148.927 58.0483 149.549 58.2102 150.316 58.2102C151.152 58.2102 151.819 58.0369 152.319 57.6903C152.819 57.3381 153.069 56.9091 153.069 56.4034C153.069 55.9943 152.916 55.6506 152.609 55.3722C152.308 55.0937 151.845 54.8835 151.22 54.7415L149.004 54.2557C147.782 53.9773 146.879 53.5341 146.294 52.9261C145.714 52.3182 145.424 51.5483 145.424 50.6165C145.424 49.8437 145.64 49.1676 146.072 48.5881C146.504 48.0085 147.1 47.5568 147.862 47.233C148.623 46.9034 149.495 46.7386 150.478 46.7386C151.893 46.7386 153.007 47.0455 153.819 47.6591C154.632 48.267 155.169 49.0824 155.43 50.1051ZM163.879 60V46.9091H166.342V48.9886H166.478C166.717 48.2841 167.138 47.7301 167.74 47.3267C168.348 46.9176 169.035 46.7131 169.802 46.7131C169.961 46.7131 170.149 46.7187 170.365 46.7301C170.586 46.7415 170.76 46.7557 170.885 46.7727V49.2102C170.782 49.1818 170.601 49.1506 170.339 49.1165C170.078 49.0767 169.817 49.0568 169.555 49.0568C168.953 49.0568 168.416 49.1847 167.944 49.4403C167.478 49.6903 167.109 50.0398 166.836 50.4886C166.564 50.9318 166.427 51.4375 166.427 52.0057V60H163.879ZM177.783 60.2642C176.493 60.2642 175.383 59.9886 174.451 59.4375C173.525 58.8807 172.809 58.0994 172.303 57.0938C171.803 56.0824 171.553 54.8977 171.553 53.5398C171.553 52.1989 171.803 51.017 172.303 49.9943C172.809 48.9716 173.513 48.1733 174.417 47.5994C175.326 47.0256 176.388 46.7386 177.604 46.7386C178.343 46.7386 179.059 46.8608 179.752 47.1051C180.445 47.3494 181.067 47.733 181.618 48.2557C182.17 48.7784 182.604 49.4574 182.922 50.2926C183.241 51.1222 183.4 52.1307 183.4 53.3182V54.2216H172.993V52.3125H180.903C180.903 51.642 180.766 51.0483 180.493 50.5312C180.221 50.0085 179.837 49.5966 179.343 49.2955C178.854 48.9943 178.28 48.8438 177.621 48.8438C176.905 48.8438 176.28 49.0199 175.746 49.3722C175.218 49.7187 174.809 50.1733 174.519 50.7358C174.235 51.2926 174.093 51.8977 174.093 52.5511V54.0426C174.093 54.9176 174.246 55.6619 174.553 56.2756C174.866 56.8892 175.3 57.358 175.857 57.6818C176.414 58 177.064 58.1591 177.809 58.1591C178.292 58.1591 178.732 58.0909 179.13 57.9545C179.528 57.8125 179.871 57.6023 180.161 57.3239C180.451 57.0455 180.672 56.7017 180.826 56.2926L183.238 56.7273C183.045 57.4375 182.698 58.0597 182.198 58.5938C181.704 59.1222 181.082 59.5341 180.332 59.8295C179.587 60.1193 178.738 60.2642 177.783 60.2642ZM185.747 60V46.9091H188.193V49.0398H188.355C188.628 48.3182 189.074 47.7557 189.693 47.3523C190.312 46.9432 191.054 46.7386 191.918 46.7386C192.793 46.7386 193.526 46.9432 194.116 47.3523C194.713 47.7614 195.153 48.3239 195.437 49.0398H195.574C195.886 48.3409 196.383 47.7841 197.065 47.3693C197.747 46.9489 198.56 46.7386 199.503 46.7386C200.69 46.7386 201.659 47.1108 202.409 47.8551C203.165 48.5994 203.543 49.7216 203.543 51.2216V60H200.994V51.4602C200.994 50.5739 200.753 49.9318 200.27 49.5341C199.787 49.1364 199.21 48.9375 198.54 48.9375C197.71 48.9375 197.065 49.1932 196.605 49.7045C196.145 50.2102 195.915 50.8608 195.915 51.6562V60H193.375V51.2983C193.375 50.5881 193.153 50.017 192.71 49.5852C192.267 49.1534 191.69 48.9375 190.98 48.9375C190.497 48.9375 190.051 49.0653 189.642 49.321C189.239 49.571 188.912 49.9205 188.662 50.3693C188.418 50.8182 188.295 51.3381 188.295 51.929V60H185.747ZM210.288 60.2898C209.458 60.2898 208.708 60.1364 208.038 59.8295C207.367 59.517 206.836 59.0653 206.444 58.4744C206.058 57.8835 205.864 57.1591 205.864 56.3011C205.864 55.5625 206.006 54.9545 206.291 54.4773C206.575 54 206.958 53.6222 207.441 53.3438C207.924 53.0653 208.464 52.8551 209.06 52.7131C209.657 52.571 210.265 52.4631 210.884 52.3892C211.668 52.2983 212.305 52.2244 212.793 52.1676C213.282 52.1051 213.637 52.0057 213.859 51.8693C214.08 51.733 214.191 51.5114 214.191 51.2045V51.1449C214.191 50.4006 213.981 49.8239 213.56 49.4148C213.146 49.0057 212.526 48.8011 211.702 48.8011C210.845 48.8011 210.168 48.9915 209.674 49.3722C209.185 49.7472 208.847 50.1648 208.66 50.625L206.265 50.0795C206.549 49.2841 206.964 48.642 207.509 48.1534C208.06 47.6591 208.694 47.3011 209.41 47.0795C210.126 46.8523 210.879 46.7386 211.668 46.7386C212.191 46.7386 212.745 46.8011 213.33 46.9261C213.921 47.0455 214.472 47.267 214.984 47.5909C215.501 47.9148 215.924 48.3778 216.254 48.9801C216.583 49.5767 216.748 50.3523 216.748 51.3068V60H214.259V58.2102H214.157C213.992 58.5398 213.745 58.8636 213.416 59.1818C213.086 59.5 212.663 59.7642 212.146 59.9744C211.629 60.1847 211.009 60.2898 210.288 60.2898ZM210.842 58.2443C211.546 58.2443 212.149 58.1051 212.649 57.8267C213.154 57.5483 213.538 57.1847 213.799 56.7358C214.066 56.2812 214.2 55.7955 214.2 55.2784V53.5909C214.109 53.6818 213.933 53.767 213.671 53.8466C213.416 53.9205 213.123 53.9858 212.793 54.0426C212.464 54.0937 212.143 54.142 211.83 54.1875C211.518 54.2273 211.256 54.2614 211.046 54.2898C210.552 54.3523 210.1 54.4574 209.691 54.6051C209.288 54.7528 208.964 54.9659 208.72 55.2443C208.481 55.517 208.362 55.8807 208.362 56.3352C208.362 56.9659 208.595 57.4432 209.06 57.767C209.526 58.0852 210.12 58.2443 210.842 58.2443ZM219.662 60V46.9091H222.21V60H219.662ZM220.949 44.8892C220.506 44.8892 220.125 44.7415 219.807 44.446C219.495 44.1449 219.338 43.7869 219.338 43.3722C219.338 42.9517 219.495 42.5937 219.807 42.2983C220.125 41.9972 220.506 41.8466 220.949 41.8466C221.392 41.8466 221.77 41.9972 222.083 42.2983C222.401 42.5937 222.56 42.9517 222.56 43.3722C222.56 43.7869 222.401 44.1449 222.083 44.446C221.77 44.7415 221.392 44.8892 220.949 44.8892ZM227.707 52.2273V60H225.159V46.9091H227.605V49.0398H227.767C228.068 48.3466 228.539 47.7898 229.181 47.3693C229.829 46.9489 230.644 46.7386 231.627 46.7386C232.519 46.7386 233.301 46.9261 233.971 47.3011C234.642 47.6705 235.162 48.2216 235.531 48.9545C235.9 49.6875 236.085 50.5937 236.085 51.6733V60H233.537V51.9801C233.537 51.0312 233.289 50.2898 232.795 49.7557C232.301 49.2159 231.622 48.946 230.758 48.946C230.167 48.946 229.642 49.0739 229.181 49.3295C228.727 49.5852 228.366 49.9602 228.099 50.4545C227.838 50.9432 227.707 51.5341 227.707 52.2273ZM239.022 60V46.9091H241.571V60H239.022ZM240.309 44.8892C239.866 44.8892 239.486 44.7415 239.167 44.446C238.855 44.1449 238.699 43.7869 238.699 43.3722C238.699 42.9517 238.855 42.5937 239.167 42.2983C239.486 41.9972 239.866 41.8466 240.309 41.8466C240.753 41.8466 241.13 41.9972 241.443 42.2983C241.761 42.5937 241.92 42.9517 241.92 43.3722C241.92 43.7869 241.761 44.1449 241.443 44.446C241.13 44.7415 240.753 44.8892 240.309 44.8892ZM247.067 52.2273V60H244.519V46.9091H246.965V49.0398H247.127C247.428 48.3466 247.9 47.7898 248.542 47.3693C249.189 46.9489 250.005 46.7386 250.988 46.7386C251.88 46.7386 252.661 46.9261 253.332 47.3011C254.002 47.6705 254.522 48.2216 254.891 48.9545C255.26 49.6875 255.445 50.5937 255.445 51.6733V60H252.897V51.9801C252.897 51.0312 252.65 50.2898 252.155 49.7557C251.661 49.2159 250.982 48.946 250.118 48.946C249.528 48.946 249.002 49.0739 248.542 49.3295C248.087 49.5852 247.726 49.9602 247.459 50.4545C247.198 50.9432 247.067 51.5341 247.067 52.2273ZM263.871 65.1818C262.832 65.1818 261.937 65.0455 261.187 64.7727C260.442 64.5 259.834 64.1392 259.363 63.6903C258.891 63.2415 258.539 62.75 258.306 62.2159L260.496 61.3125C260.65 61.5625 260.854 61.8267 261.11 62.1051C261.371 62.3892 261.724 62.6307 262.167 62.8295C262.616 63.0284 263.192 63.1278 263.897 63.1278C264.863 63.1278 265.661 62.892 266.292 62.4205C266.923 61.9545 267.238 61.2102 267.238 60.1875V57.6136H267.076C266.923 57.892 266.701 58.2017 266.411 58.5426C266.127 58.8835 265.735 59.179 265.235 59.429C264.735 59.679 264.084 59.804 263.283 59.804C262.249 59.804 261.317 59.5625 260.488 59.0795C259.664 58.5909 259.011 57.8722 258.528 56.9233C258.05 55.9687 257.812 54.7955 257.812 53.4034C257.812 52.0114 258.048 50.8182 258.519 49.8239C258.996 48.8295 259.65 48.0682 260.479 47.5398C261.309 47.0057 262.249 46.7386 263.3 46.7386C264.113 46.7386 264.769 46.875 265.269 47.1477C265.769 47.4148 266.158 47.7273 266.437 48.0852C266.721 48.4432 266.94 48.7585 267.093 49.0312H267.28V46.9091H269.778V60.2898C269.778 61.4148 269.516 62.3381 268.994 63.0597C268.471 63.7813 267.763 64.3153 266.871 64.6619C265.985 65.0085 264.985 65.1818 263.871 65.1818ZM263.846 57.6903C264.579 57.6903 265.198 57.5199 265.704 57.179C266.215 56.8324 266.602 56.3381 266.863 55.696C267.13 55.0483 267.263 54.2727 267.263 53.3693C267.263 52.4886 267.133 51.7131 266.871 51.0426C266.61 50.3722 266.227 49.8494 265.721 49.4744C265.215 49.0937 264.59 48.9034 263.846 48.9034C263.079 48.9034 262.44 49.1023 261.928 49.5C261.417 49.892 261.03 50.4261 260.769 51.1023C260.513 51.7784 260.386 52.5341 260.386 53.3693C260.386 54.2273 260.516 54.9801 260.778 55.6278C261.039 56.2756 261.425 56.7812 261.937 57.1449C262.454 57.5085 263.09 57.6903 263.846 57.6903Z" fill="white"/>
<path fill-rule="evenodd" clip-rule="evenodd" d="M55.7048 46.2952C55.3142 45.9046 54.6751 45.8987 54.2846 46.2892L50.0001 50.5736L45.7157 46.2892C45.3252 45.8987 44.686 45.9046 44.2955 46.2952C43.905 46.6857 43.899 47.3248 44.2895 47.7154L48.574 51.9998L44.2894 56.2843C43.8989 56.6748 43.9049 57.314 44.2954 57.7045C44.6859 58.095 45.3251 58.101 45.7156 57.7105L50.0001 53.426L54.2846 57.7105C54.6752 58.101 55.3143 58.095 55.7048 57.7045C56.0954 57.314 56.1013 56.6748 55.7108 56.2843L51.4263 51.9998L55.7107 47.7154C56.1013 47.3248 56.0953 46.6857 55.7048 46.2952Z" fill="white" fill-opacity="0.24"/>
<rect x="74" y="38" width="28" height="28" rx="6" fill="#00FF60" fill-opacity="0.04"/>
<rect x="75" y="39" width="26" height="26" rx="5" stroke="#00FF60" stroke-opacity="0.48" stroke-width="2"/>
<g clip-path="url(#clip0_1905_31027)">
<path d="M96.0426 49.6667L92.4189 55.5001L96.0426 53.1667L99.6662 55.5001L96.0426 49.6667Z" fill="#00FF60"/>
<path d="M79.9571 55.5001L83.5808 49.6667L79.9571 52.0001L76.3335 49.6667L79.9571 55.5001Z" fill="#00FF60"/>
<path d="M88.3397 55.5001H86.98L87.6598 49.6667H89.0195L88.3397 55.5001Z" fill="#00FF60"/>
</g>
</g>
<defs>
<linearGradient id="paint0_linear_1905_31027" x1="150" y1="60" x2="150" y2="120" gradientUnits="userSpaceOnUse">
<stop stop-color="#D9D9D9"/>
<stop offset="1" stop-color="#D9D9D9" stop-opacity="0"/>
</linearGradient>
<linearGradient id="paint1_linear_1905_31027" x1="150" y1="60" x2="300" y2="60" gradientUnits="userSpaceOnUse">
<stop stop-color="#D9D9D9"/>
<stop offset="1" stop-color="#D9D9D9" stop-opacity="0"/>
</linearGradient>
<clipPath id="clip0_1905_31027">
<rect width="23.3333" height="5.83333" fill="white" transform="translate(76.3335 49.6667)"/>
</clipPath>
</defs>
</svg>
