<svg width="300" height="120" viewBox="0 0 300 120" fill="none" xmlns="http://www.w3.org/2000/svg">
<mask id="mask0_1965_8517" style="mask-type:alpha" maskUnits="userSpaceOnUse" x="0" y="0" width="300" height="120">
<mask id="mask1_1965_8517" style="mask-type:alpha" maskUnits="userSpaceOnUse" x="0" y="0" width="300" height="120">
<rect width="300" height="120" fill="url(#paint0_linear_1965_8517)"/>
</mask>
<g mask="url(#mask1_1965_8517)">
<rect width="300" height="120" fill="url(#paint1_linear_1965_8517)"/>
</g>
</mask>
<g mask="url(#mask0_1965_8517)">
<rect x="20" y="80" width="300" height="72" rx="16" fill="white" fill-opacity="0.02"/>
<rect x="21" y="81" width="298" height="70" rx="15" stroke="white" stroke-opacity="0.08" stroke-width="2"/>
<path opacity="0.6" d="M50.9176 125V107.545H57.3097C58.5483 107.545 59.5739 107.75 60.3864 108.159C61.1989 108.562 61.8068 109.111 62.2102 109.804C62.6136 110.491 62.8153 111.267 62.8153 112.131C62.8153 112.858 62.6818 113.472 62.4148 113.972C62.1477 114.466 61.7898 114.864 61.3409 115.165C60.8977 115.46 60.4091 115.676 59.875 115.812V115.983C60.4545 116.011 61.0199 116.199 61.571 116.545C62.1278 116.886 62.5881 117.372 62.9517 118.003C63.3153 118.634 63.4972 119.401 63.4972 120.304C63.4972 121.196 63.2869 121.997 62.8665 122.707C62.4517 123.412 61.8097 123.972 60.9403 124.386C60.071 124.795 58.9602 125 57.608 125H50.9176ZM53.5511 122.741H57.3523C58.6136 122.741 59.517 122.497 60.0625 122.009C60.608 121.52 60.8807 120.909 60.8807 120.176C60.8807 119.625 60.7415 119.119 60.4631 118.659C60.1847 118.199 59.7869 117.832 59.2699 117.56C58.7585 117.287 58.1506 117.151 57.446 117.151H53.5511V122.741ZM53.5511 115.097H57.0795C57.6705 115.097 58.2017 114.983 58.6733 114.756C59.1506 114.528 59.5284 114.21 59.8068 113.801C60.0909 113.386 60.233 112.898 60.233 112.335C60.233 111.614 59.9801 111.009 59.4744 110.52C58.9688 110.031 58.1932 109.787 57.1477 109.787H53.5511V115.097ZM65.9362 125V111.909H68.3993V113.989H68.5356C68.7743 113.284 69.1947 112.73 69.797 112.327C70.4049 111.918 71.0924 111.713 71.8595 111.713C72.0186 111.713 72.2061 111.719 72.422 111.73C72.6436 111.741 72.8169 111.756 72.9419 111.773V114.21C72.8396 114.182 72.6578 114.151 72.3964 114.116C72.1351 114.077 71.8737 114.057 71.6123 114.057C71.0101 114.057 70.4731 114.185 70.0015 114.44C69.5356 114.69 69.1663 115.04 68.8936 115.489C68.6209 115.932 68.4845 116.437 68.4845 117.006V125H65.9362ZM74.6671 125V111.909H77.2154V125H74.6671ZM75.9541 109.889C75.5109 109.889 75.1302 109.741 74.812 109.446C74.4995 109.145 74.3433 108.787 74.3433 108.372C74.3433 107.952 74.4995 107.594 74.812 107.298C75.1302 106.997 75.5109 106.847 75.9541 106.847C76.3972 106.847 76.7751 106.997 77.0876 107.298C77.4058 107.594 77.5649 107.952 77.5649 108.372C77.5649 108.787 77.4058 109.145 77.0876 109.446C76.7751 109.741 76.3972 109.889 75.9541 109.889ZM85.0643 125.256C84.0074 125.256 83.0643 124.986 82.2347 124.446C81.4109 123.901 80.7631 123.125 80.2915 122.119C79.8256 121.108 79.5927 119.895 79.5927 118.48C79.5927 117.065 79.8285 115.855 80.3001 114.849C80.7773 113.844 81.4307 113.074 82.2603 112.54C83.0898 112.006 84.0302 111.739 85.0813 111.739C85.8938 111.739 86.5472 111.875 87.0415 112.148C87.5415 112.415 87.9279 112.727 88.2006 113.085C88.479 113.443 88.6949 113.759 88.8484 114.031H89.0018V107.545H91.5501V125H89.0614V122.963H88.8484C88.6949 123.241 88.4734 123.56 88.1836 123.918C87.8995 124.276 87.5074 124.588 87.0074 124.855C86.5074 125.122 85.8597 125.256 85.0643 125.256ZM85.6268 123.082C86.3597 123.082 86.979 122.889 87.4847 122.503C87.9961 122.111 88.3824 121.568 88.6438 120.875C88.9109 120.182 89.0444 119.375 89.0444 118.455C89.0444 117.545 88.9137 116.75 88.6523 116.068C88.391 115.386 88.0074 114.855 87.5018 114.474C86.9961 114.094 86.3711 113.903 85.6268 113.903C84.8597 113.903 84.2205 114.102 83.7091 114.5C83.1978 114.898 82.8114 115.44 82.5501 116.128C82.2944 116.815 82.1665 117.591 82.1665 118.455C82.1665 119.33 82.2972 120.116 82.5586 120.815C82.8199 121.514 83.2063 122.068 83.7177 122.477C84.2347 122.881 84.8711 123.082 85.6268 123.082ZM100.196 130.182C99.156 130.182 98.2611 130.045 97.5111 129.773C96.7668 129.5 96.1588 129.139 95.6872 128.69C95.2157 128.241 94.8634 127.75 94.6304 127.216L96.8208 126.312C96.9742 126.562 97.1787 126.827 97.4344 127.105C97.6958 127.389 98.048 127.631 98.4912 127.83C98.9401 128.028 99.5168 128.128 100.221 128.128C101.187 128.128 101.986 127.892 102.616 127.42C103.247 126.955 103.562 126.21 103.562 125.188V122.614H103.4C103.247 122.892 103.025 123.202 102.736 123.543C102.451 123.884 102.059 124.179 101.559 124.429C101.059 124.679 100.409 124.804 99.6077 124.804C98.5736 124.804 97.6418 124.562 96.8122 124.08C95.9884 123.591 95.335 122.872 94.852 121.923C94.3747 120.969 94.1361 119.795 94.1361 118.403C94.1361 117.011 94.3719 115.818 94.8435 114.824C95.3208 113.83 95.9742 113.068 96.8037 112.54C97.6333 112.006 98.5736 111.739 99.6247 111.739C100.437 111.739 101.093 111.875 101.593 112.148C102.093 112.415 102.483 112.727 102.761 113.085C103.045 113.443 103.264 113.759 103.417 114.031H103.605V111.909H106.102V125.29C106.102 126.415 105.841 127.338 105.318 128.06C104.795 128.781 104.088 129.315 103.196 129.662C102.309 130.009 101.309 130.182 100.196 130.182ZM100.17 122.69C100.903 122.69 101.522 122.52 102.028 122.179C102.54 121.832 102.926 121.338 103.187 120.696C103.454 120.048 103.588 119.273 103.588 118.369C103.588 117.489 103.457 116.713 103.196 116.043C102.934 115.372 102.551 114.849 102.045 114.474C101.54 114.094 100.915 113.903 100.17 113.903C99.4032 113.903 98.764 114.102 98.2526 114.5C97.7412 114.892 97.3549 115.426 97.0935 116.102C96.8378 116.778 96.71 117.534 96.71 118.369C96.71 119.227 96.8407 119.98 97.102 120.628C97.3634 121.276 97.7497 121.781 98.2611 122.145C98.7782 122.509 99.4145 122.69 100.17 122.69ZM114.682 125.264C113.392 125.264 112.281 124.989 111.349 124.438C110.423 123.881 109.707 123.099 109.202 122.094C108.702 121.082 108.452 119.898 108.452 118.54C108.452 117.199 108.702 116.017 109.202 114.994C109.707 113.972 110.412 113.173 111.315 112.599C112.224 112.026 113.287 111.739 114.503 111.739C115.241 111.739 115.957 111.861 116.65 112.105C117.344 112.349 117.966 112.733 118.517 113.256C119.068 113.778 119.503 114.457 119.821 115.293C120.139 116.122 120.298 117.131 120.298 118.318V119.222H109.892V117.312H117.801C117.801 116.642 117.665 116.048 117.392 115.531C117.119 115.009 116.736 114.597 116.241 114.295C115.753 113.994 115.179 113.844 114.52 113.844C113.804 113.844 113.179 114.02 112.645 114.372C112.116 114.719 111.707 115.173 111.417 115.736C111.133 116.293 110.991 116.898 110.991 117.551V119.043C110.991 119.918 111.145 120.662 111.452 121.276C111.764 121.889 112.199 122.358 112.756 122.682C113.312 123 113.963 123.159 114.707 123.159C115.19 123.159 115.631 123.091 116.028 122.955C116.426 122.812 116.77 122.602 117.06 122.324C117.349 122.045 117.571 121.702 117.724 121.293L120.136 121.727C119.943 122.437 119.596 123.06 119.096 123.594C118.602 124.122 117.98 124.534 117.23 124.83C116.486 125.119 115.636 125.264 114.682 125.264ZM132.455 115.105L130.146 115.514C130.049 115.219 129.896 114.937 129.685 114.67C129.481 114.403 129.202 114.185 128.85 114.014C128.498 113.844 128.058 113.759 127.529 113.759C126.808 113.759 126.205 113.92 125.722 114.244C125.239 114.562 124.998 114.974 124.998 115.48C124.998 115.918 125.16 116.27 125.484 116.537C125.808 116.804 126.33 117.023 127.052 117.193L129.131 117.67C130.336 117.949 131.234 118.378 131.825 118.957C132.415 119.537 132.711 120.29 132.711 121.216C132.711 122 132.484 122.699 132.029 123.312C131.58 123.92 130.952 124.398 130.146 124.744C129.344 125.091 128.415 125.264 127.359 125.264C125.893 125.264 124.697 124.952 123.771 124.327C122.844 123.696 122.276 122.801 122.066 121.642L124.529 121.267C124.683 121.909 124.998 122.395 125.475 122.724C125.952 123.048 126.575 123.21 127.342 123.21C128.177 123.21 128.844 123.037 129.344 122.69C129.844 122.338 130.094 121.909 130.094 121.403C130.094 120.994 129.941 120.651 129.634 120.372C129.333 120.094 128.87 119.884 128.245 119.741L126.029 119.256C124.808 118.977 123.904 118.534 123.319 117.926C122.739 117.318 122.45 116.548 122.45 115.616C122.45 114.844 122.665 114.168 123.097 113.588C123.529 113.009 124.126 112.557 124.887 112.233C125.648 111.903 126.521 111.739 127.504 111.739C128.918 111.739 130.032 112.045 130.844 112.659C131.657 113.267 132.194 114.082 132.455 115.105Z" fill="white"/>
<path opacity="0.16" d="M237.126 121.139C236.503 121.139 235.943 121.02 235.446 120.781C234.952 120.539 234.558 120.208 234.263 119.787C233.968 119.366 233.81 118.885 233.79 118.345H235.282C235.318 118.783 235.512 119.142 235.863 119.424C236.215 119.706 236.636 119.847 237.126 119.847C237.517 119.847 237.864 119.757 238.165 119.578C238.47 119.396 238.709 119.146 238.881 118.827C239.057 118.509 239.145 118.146 239.145 117.739C239.145 117.324 239.055 116.955 238.876 116.63C238.697 116.305 238.45 116.05 238.135 115.864C237.824 115.679 237.466 115.584 237.062 115.581C236.753 115.581 236.443 115.634 236.132 115.74C235.82 115.846 235.568 115.985 235.376 116.158L233.969 115.949L234.541 110.818H240.139V112.136H235.819L235.496 114.984H235.555C235.754 114.792 236.018 114.631 236.346 114.502C236.677 114.373 237.032 114.308 237.41 114.308C238.029 114.308 238.581 114.456 239.065 114.751C239.552 115.046 239.935 115.448 240.214 115.959C240.495 116.466 240.634 117.049 240.631 117.709C240.634 118.368 240.485 118.957 240.184 119.474C239.885 119.991 239.471 120.398 238.941 120.697C238.414 120.992 237.809 121.139 237.126 121.139ZM242.167 121V119.886L245.612 116.317C245.98 115.929 246.284 115.589 246.522 115.298C246.764 115.003 246.945 114.723 247.064 114.457C247.183 114.192 247.243 113.911 247.243 113.612C247.243 113.274 247.164 112.982 247.004 112.737C246.845 112.489 246.628 112.298 246.353 112.165C246.078 112.03 245.768 111.962 245.423 111.962C245.059 111.962 244.741 112.036 244.469 112.185C244.197 112.335 243.988 112.545 243.842 112.817C243.697 113.089 243.624 113.407 243.624 113.771H242.157C242.157 113.152 242.3 112.61 242.585 112.146C242.87 111.682 243.261 111.322 243.758 111.067C244.255 110.808 244.82 110.679 245.453 110.679C246.093 110.679 246.656 110.807 247.144 111.062C247.634 111.314 248.017 111.658 248.292 112.096C248.567 112.53 248.705 113.021 248.705 113.567C248.705 113.945 248.633 114.315 248.491 114.676C248.352 115.037 248.108 115.44 247.76 115.884C247.412 116.325 246.928 116.86 246.308 117.49L244.285 119.608V119.683H248.869V121H242.167ZM254.371 110.341L251.089 122.531H249.762L253.043 110.341H254.371ZM255.677 121L260.121 112.21V112.136H254.981V110.818H261.712V112.18L257.282 121H255.677ZM266.487 121.169C265.702 121.166 265.03 120.959 264.474 120.548C263.917 120.137 263.491 119.538 263.196 118.753C262.901 117.967 262.753 117.021 262.753 115.914C262.753 114.81 262.901 113.867 263.196 113.085C263.494 112.303 263.922 111.706 264.479 111.295C265.039 110.884 265.708 110.679 266.487 110.679C267.266 110.679 267.934 110.886 268.491 111.3C269.047 111.711 269.473 112.308 269.768 113.09C270.067 113.869 270.216 114.81 270.216 115.914C270.216 117.024 270.068 117.972 269.773 118.758C269.478 119.54 269.052 120.138 268.496 120.553C267.939 120.964 267.269 121.169 266.487 121.169ZM266.487 119.842C267.176 119.842 267.715 119.505 268.103 118.832C268.494 118.16 268.689 117.187 268.689 115.914C268.689 115.069 268.6 114.355 268.421 113.771C268.245 113.185 267.992 112.741 267.66 112.439C267.332 112.134 266.941 111.982 266.487 111.982C265.801 111.982 265.262 112.32 264.871 112.996C264.48 113.672 264.283 114.645 264.28 115.914C264.28 116.763 264.367 117.48 264.543 118.067C264.722 118.65 264.976 119.093 265.304 119.394C265.632 119.692 266.026 119.842 266.487 119.842Z" fill="white"/>
<path d="M293 110L297.586 114.586C298.367 115.367 298.367 116.633 297.586 117.414L293 122" stroke="white" stroke-opacity="0.12" stroke-width="2"/>
<rect width="300" height="72" rx="16" fill="#00FF60" fill-opacity="0.08"/>
<rect x="1" y="1" width="298" height="70" rx="15" stroke="#00FF60" stroke-opacity="0.48" stroke-width="2"/>
<path opacity="0.6" d="M36.5682 45H30.9176V27.5455H36.7472C38.4574 27.5455 39.9261 27.8949 41.1534 28.5938C42.3807 29.2869 43.321 30.2841 43.9744 31.5852C44.6335 32.8807 44.9631 34.4347 44.9631 36.2472C44.9631 38.0653 44.6307 39.6278 43.9659 40.9347C43.3068 42.2415 42.3523 43.2472 41.1023 43.9517C39.8523 44.6506 38.3409 45 36.5682 45ZM33.5511 42.6989H36.4233C37.7528 42.6989 38.858 42.4489 39.7386 41.9489C40.6193 41.4432 41.2784 40.7131 41.7159 39.7585C42.1534 38.7983 42.3722 37.6278 42.3722 36.2472C42.3722 34.8778 42.1534 33.7159 41.7159 32.7614C41.2841 31.8068 40.6392 31.0824 39.7812 30.5881C38.9233 30.0937 37.858 29.8466 36.5852 29.8466H33.5511V42.6989ZM47.7579 45V27.5455H58.7011V29.8125H50.3914V35.1307H58.1301V37.3892H50.3914V42.733H58.8034V45H47.7579ZM63.5713 27.5455L67.7474 34.3722H67.8838L72.0599 27.5455H75.111L69.6735 36.2727L75.1451 45H72.0769L67.8838 38.267H67.7474L63.5542 45H60.486L66.0514 36.2727L60.5201 27.5455H63.5713ZM86.8484 35.1051L84.5387 35.5142C84.4421 35.2187 84.2887 34.9375 84.0785 34.6705C83.8739 34.4034 83.5955 34.1847 83.2432 34.0142C82.891 33.8437 82.4506 33.7585 81.9222 33.7585C81.2006 33.7585 80.5984 33.9205 80.1154 34.2443C79.6324 34.5625 79.391 34.9744 79.391 35.4801C79.391 35.9176 79.5529 36.2699 79.8768 36.5369C80.2006 36.804 80.7234 37.0227 81.4449 37.1932L83.5245 37.6705C84.729 37.9489 85.6268 38.3778 86.2177 38.9574C86.8086 39.5369 87.104 40.2898 87.104 41.2159C87.104 42 86.8768 42.6989 86.4222 43.3125C85.9734 43.9205 85.3455 44.3977 84.5387 44.7443C83.7376 45.0909 82.8086 45.2642 81.7518 45.2642C80.2859 45.2642 79.0898 44.9517 78.1637 44.3267C77.2376 43.696 76.6694 42.8011 76.4591 41.642L78.9222 41.267C79.0756 41.9091 79.391 42.3949 79.8682 42.7244C80.3455 43.0483 80.9677 43.2102 81.7347 43.2102C82.5699 43.2102 83.2376 43.0369 83.7376 42.6903C84.2376 42.3381 84.4876 41.9091 84.4876 41.4034C84.4876 40.9943 84.3341 40.6506 84.0273 40.3722C83.7262 40.0937 83.2631 39.8835 82.6381 39.7415L80.4222 39.2557C79.2006 38.9773 78.2972 38.5341 77.712 37.9261C77.1324 37.3182 76.8427 36.5483 76.8427 35.6165C76.8427 34.8437 77.0586 34.1676 77.4904 33.5881C77.9222 33.0085 78.5188 32.5568 79.2802 32.233C80.0415 31.9034 80.9137 31.7386 81.8966 31.7386C83.3114 31.7386 84.4251 32.0455 85.2376 32.6591C86.0501 33.267 86.587 34.0824 86.8484 35.1051Z" fill="#00FF60"/>
<path opacity="0.16" d="M236.763 41H235.133L238.797 30.8182H240.572L244.236 41H242.605L239.726 32.6676H239.647L236.763 41ZM237.037 37.0128H242.327V38.3054H237.037V37.0128ZM246.793 30.8182V41H245.307V30.8182H246.793ZM249.999 30.8182V41H248.513V30.8182H249.999Z" fill="white"/>
<path d="M273 30L277.586 34.5858C278.367 35.3668 278.367 36.6332 277.586 37.4142L273 42" stroke="white" stroke-opacity="0.12" stroke-width="2"/>
</g>
<defs>
<linearGradient id="paint0_linear_1965_8517" x1="150" y1="60" x2="150" y2="120" gradientUnits="userSpaceOnUse">
<stop stop-color="#090A0C"/>
<stop offset="1" stop-color="#090A0C" stop-opacity="0"/>
</linearGradient>
<linearGradient id="paint1_linear_1965_8517" x1="150" y1="60" x2="300" y2="60" gradientUnits="userSpaceOnUse">
<stop stop-color="#090A0C"/>
<stop offset="1" stop-color="#090A0C" stop-opacity="0"/>
</linearGradient>
</defs>
</svg>
