<svg width="300" height="120" viewBox="0 0 300 120" fill="none" xmlns="http://www.w3.org/2000/svg">
<mask id="mask0_1930_8838" style="mask-type:alpha" maskUnits="userSpaceOnUse" x="0" y="0" width="300" height="120">
<mask id="mask1_1930_8838" style="mask-type:alpha" maskUnits="userSpaceOnUse" x="0" y="0" width="300" height="120">
<rect width="300" height="120" fill="url(#paint0_linear_1930_8838)"/>
</mask>
<g mask="url(#mask1_1930_8838)">
<rect width="300" height="120" fill="url(#paint1_linear_1930_8838)"/>
</g>
</mask>
<g mask="url(#mask0_1930_8838)">
<rect x="132.5" y="24" width="214" height="72" rx="16" fill="white" fill-opacity="0.02"/>
<g opacity="0.24">
<circle cx="168.5" cy="60" r="14" stroke="white" stroke-width="4"/>
<path d="M168.5 51L168.5 59.192C168.5 59.9866 168.97 60.7058 169.698 61.0243L176.5 64" stroke="white" stroke-width="4"/>
</g>
<path opacity="0.48" d="M200.801 51.5455V69H198.159V54.1875H198.057L193.881 56.9148V54.392L198.236 51.5455H200.801ZM210.948 69V55.9091H213.394V58.0398H213.556C213.829 57.3182 214.275 56.7557 214.894 56.3523C215.514 55.9432 216.255 55.7386 217.119 55.7386C217.994 55.7386 218.727 55.9432 219.318 56.3523C219.914 56.7614 220.355 57.3239 220.639 58.0398H220.775C221.088 57.3409 221.585 56.7841 222.267 56.3693C222.948 55.9489 223.761 55.7386 224.704 55.7386C225.892 55.7386 226.86 56.1108 227.61 56.8551C228.366 57.5994 228.744 58.7216 228.744 60.2216V69H226.196V60.4602C226.196 59.5739 225.954 58.9318 225.471 58.5341C224.988 58.1364 224.411 57.9375 223.741 57.9375C222.911 57.9375 222.267 58.1932 221.806 58.7045C221.346 59.2102 221.116 59.8608 221.116 60.6562V69H218.576V60.2983C218.576 59.5881 218.355 59.017 217.911 58.5852C217.468 58.1534 216.892 57.9375 216.181 57.9375C215.698 57.9375 215.252 58.0653 214.843 58.321C214.44 58.571 214.113 58.9205 213.863 59.3693C213.619 59.8182 213.497 60.3381 213.497 60.929V69H210.948ZM231.679 69V55.9091H234.228V69H231.679ZM232.966 53.8892C232.523 53.8892 232.142 53.7415 231.824 53.446C231.512 53.1449 231.355 52.7869 231.355 52.3722C231.355 51.9517 231.512 51.5937 231.824 51.2983C232.142 50.9972 232.523 50.8466 232.966 50.8466C233.409 50.8466 233.787 50.9972 234.1 51.2983C234.418 51.5937 234.577 51.9517 234.577 52.3722C234.577 52.7869 234.418 53.1449 234.1 53.446C233.787 53.7415 233.409 53.8892 232.966 53.8892ZM239.724 61.2273V69H237.176V55.9091H239.622V58.0398H239.784C240.085 57.3466 240.557 56.7898 241.199 56.3693C241.846 55.9489 242.662 55.7386 243.645 55.7386C244.537 55.7386 245.318 55.9261 245.988 56.3011C246.659 56.6705 247.179 57.2216 247.548 57.9545C247.917 58.6875 248.102 59.5937 248.102 60.6733V69H245.554V60.9801C245.554 60.0312 245.307 59.2898 244.812 58.7557C244.318 58.2159 243.639 57.946 242.775 57.946C242.184 57.946 241.659 58.0739 241.199 58.3295C240.744 58.5852 240.383 58.9602 240.116 59.4545C239.855 59.9432 239.724 60.5341 239.724 61.2273ZM263.499 51.5455V69H260.857V54.1875H260.755L256.579 56.9148V54.392L260.934 51.5455H263.499ZM267.741 69V67.0909L273.647 60.9716C274.278 60.3068 274.798 59.7244 275.207 59.2244C275.622 58.7187 275.931 58.2386 276.136 57.7841C276.34 57.3295 276.443 56.8466 276.443 56.3352C276.443 55.7557 276.306 55.2557 276.033 54.8352C275.761 54.4091 275.389 54.0824 274.917 53.8551C274.445 53.6222 273.914 53.5057 273.323 53.5057C272.698 53.5057 272.153 53.6335 271.687 53.8892C271.221 54.1449 270.863 54.5057 270.613 54.9716C270.363 55.4375 270.238 55.983 270.238 56.608H267.724C267.724 55.5455 267.968 54.6165 268.457 53.821C268.945 53.0256 269.616 52.4091 270.468 51.9716C271.32 51.5284 272.289 51.3068 273.374 51.3068C274.471 51.3068 275.437 51.5256 276.272 51.9631C277.113 52.3949 277.769 52.9858 278.241 53.7358C278.712 54.4801 278.948 55.321 278.948 56.2585C278.948 56.9062 278.826 57.5398 278.582 58.1591C278.343 58.7784 277.926 59.4687 277.329 60.2301C276.732 60.9858 275.903 61.9034 274.84 62.983L271.372 66.6136V66.7415H279.229V69H267.741ZM297.695 59.1051L295.385 59.5142C295.289 59.2187 295.135 58.9375 294.925 58.6705C294.72 58.4034 294.442 58.1847 294.09 58.0142C293.738 57.8437 293.297 57.7585 292.769 57.7585C292.047 57.7585 291.445 57.9205 290.962 58.2443C290.479 58.5625 290.238 58.9744 290.238 59.4801C290.238 59.9176 290.399 60.2699 290.723 60.5369C291.047 60.804 291.57 61.0227 292.292 61.1932L294.371 61.6705C295.576 61.9489 296.473 62.3778 297.064 62.9574C297.655 63.5369 297.951 64.2898 297.951 65.2159C297.951 66 297.723 66.6989 297.269 67.3125C296.82 67.9205 296.192 68.3977 295.385 68.7443C294.584 69.0909 293.655 69.2642 292.598 69.2642C291.132 69.2642 289.936 68.9517 289.01 68.3267C288.084 67.696 287.516 66.8011 287.306 65.642L289.769 65.267C289.922 65.9091 290.238 66.3949 290.715 66.7244C291.192 67.0483 291.814 67.2102 292.581 67.2102C293.417 67.2102 294.084 67.0369 294.584 66.6903C295.084 66.3381 295.334 65.9091 295.334 65.4034C295.334 64.9943 295.181 64.6506 294.874 64.3722C294.573 64.0937 294.11 63.8835 293.485 63.7415L291.269 63.2557C290.047 62.9773 289.144 62.5341 288.559 61.9261C287.979 61.3182 287.689 60.5483 287.689 59.6165C287.689 58.8437 287.905 58.1676 288.337 57.5881C288.769 57.0085 289.365 56.5568 290.127 56.233C290.888 55.9034 291.76 55.7386 292.743 55.7386C294.158 55.7386 295.272 56.0455 296.084 56.6591C296.897 57.267 297.434 58.0824 297.695 59.1051ZM305.914 69.2642C304.625 69.2642 303.514 68.9886 302.582 68.4375C301.656 67.8807 300.94 67.0994 300.434 66.0938C299.934 65.0824 299.684 63.8977 299.684 62.5398C299.684 61.1989 299.934 60.017 300.434 58.9943C300.94 57.9716 301.645 57.1733 302.548 56.5994C303.457 56.0256 304.52 55.7386 305.736 55.7386C306.474 55.7386 307.19 55.8608 307.883 56.1051C308.576 56.3494 309.199 56.733 309.75 57.2557C310.301 57.7784 310.736 58.4574 311.054 59.2926C311.372 60.1222 311.531 61.1307 311.531 62.3182V63.2216H301.125V61.3125H309.034C309.034 60.642 308.897 60.0483 308.625 59.5312C308.352 59.0085 307.968 58.5966 307.474 58.2955C306.986 57.9943 306.412 57.8438 305.753 57.8438C305.037 57.8438 304.412 58.0199 303.878 58.3722C303.349 58.7187 302.94 59.1733 302.65 59.7358C302.366 60.2926 302.224 60.8977 302.224 61.5511V63.0426C302.224 63.9176 302.378 64.6619 302.684 65.2756C302.997 65.8892 303.432 66.358 303.988 66.6818C304.545 67 305.196 67.1591 305.94 67.1591C306.423 67.1591 306.863 67.0909 307.261 66.9545C307.659 66.8125 308.003 66.6023 308.292 66.3239C308.582 66.0455 308.804 65.7017 308.957 65.2926L311.369 65.7273C311.176 66.4375 310.829 67.0597 310.329 67.5938C309.835 68.1222 309.213 68.5341 308.463 68.8295C307.718 69.1193 306.869 69.2642 305.914 69.2642ZM319.393 69.2642C318.126 69.2642 317.035 68.9773 316.12 68.4034C315.211 67.8239 314.512 67.0256 314.023 66.0085C313.535 64.9915 313.29 63.8267 313.29 62.5142C313.29 61.1847 313.54 60.0114 314.04 58.9943C314.54 57.9716 315.245 57.1733 316.154 56.5994C317.063 56.0256 318.134 55.7386 319.367 55.7386C320.361 55.7386 321.248 55.9233 322.026 56.2926C322.805 56.6562 323.432 57.1676 323.91 57.8267C324.393 58.4858 324.68 59.2557 324.77 60.1364H322.29C322.154 59.5227 321.841 58.9943 321.353 58.5511C320.87 58.108 320.222 57.8864 319.41 57.8864C318.699 57.8864 318.077 58.0739 317.543 58.4489C317.015 58.8182 316.603 59.3466 316.307 60.0341C316.012 60.7159 315.864 61.5227 315.864 62.4545C315.864 63.4091 316.009 64.233 316.299 64.9261C316.589 65.6193 316.998 66.1562 317.526 66.5369C318.06 66.9176 318.688 67.108 319.41 67.108C319.893 67.108 320.33 67.0199 320.722 66.8438C321.12 66.6619 321.452 66.4034 321.719 66.0682C321.992 65.733 322.182 65.3295 322.29 64.858H324.77C324.68 65.7045 324.404 66.4602 323.944 67.125C323.483 67.7898 322.867 68.3125 322.094 68.6932C321.327 69.0739 320.427 69.2642 319.393 69.2642Z" fill="white"/>
<rect x="133.5" y="25" width="212" height="70" rx="15" stroke="white" stroke-opacity="0.08" stroke-width="2"/>
<rect y="24" width="128.5" height="72" rx="16" fill="#00FF60" fill-opacity="0.08"/>
<g opacity="0.24">
<rect x="22" y="46" width="20" height="28" rx="6" stroke="#00FF60" stroke-width="4"/>
<path d="M42 54.5H45.5C47.7091 54.5 49.5 56.2909 49.5 58.5V61.5" stroke="#00FF60" stroke-width="4" stroke-linecap="round"/>
<path d="M30 55H34" stroke="#00FF60" stroke-width="4" stroke-linecap="round"/>
</g>
<path opacity="0.6" d="M64.5653 71.1818V49.3636H65.9631V71.1818H64.5653ZM68.9375 56.1307C68.8466 55.3239 68.4716 54.6989 67.8125 54.2557C67.1534 53.8068 66.3239 53.5824 65.3239 53.5824C64.608 53.5824 63.9886 53.696 63.4659 53.9233C62.9432 54.1449 62.5369 54.4517 62.2472 54.8438C61.9631 55.2301 61.821 55.6705 61.821 56.1648C61.821 56.5795 61.9176 56.9375 62.1108 57.2386C62.3097 57.5398 62.5682 57.7926 62.8864 57.9972C63.2102 58.196 63.5568 58.3636 63.9261 58.5C64.2955 58.6307 64.6506 58.7386 64.9915 58.8239L66.696 59.267C67.2528 59.4034 67.8239 59.5881 68.4091 59.821C68.9943 60.054 69.5369 60.3608 70.0369 60.7415C70.5369 61.1222 70.9403 61.5938 71.2472 62.1562C71.5597 62.7188 71.7159 63.392 71.7159 64.1761C71.7159 65.1648 71.4602 66.0426 70.9489 66.8097C70.4432 67.5767 69.7074 68.1818 68.7415 68.625C67.7813 69.0682 66.6193 69.2898 65.2557 69.2898C63.9489 69.2898 62.8182 69.0824 61.8636 68.6676C60.9091 68.2528 60.1619 67.6648 59.6222 66.9034C59.0824 66.1364 58.7841 65.2273 58.7273 64.1761H61.3693C61.4205 64.8068 61.625 65.3324 61.983 65.7528C62.3466 66.1676 62.8097 66.4773 63.3722 66.6818C63.9403 66.8807 64.5625 66.9801 65.2386 66.9801C65.983 66.9801 66.6449 66.8636 67.2244 66.6307C67.8097 66.392 68.2699 66.0625 68.6051 65.642C68.9403 65.2159 69.108 64.7187 69.108 64.1506C69.108 63.6335 68.9602 63.2102 68.6648 62.8807C68.375 62.5511 67.9801 62.2784 67.4801 62.0625C66.9858 61.8466 66.4261 61.6562 65.8011 61.4915L63.7386 60.929C62.3409 60.5483 61.233 59.9886 60.4148 59.25C59.6023 58.5114 59.196 57.5341 59.196 56.3182C59.196 55.3125 59.4688 54.4347 60.0142 53.6847C60.5597 52.9347 61.2983 52.3523 62.2301 51.9375C63.1619 51.517 64.2131 51.3068 65.3835 51.3068C66.5653 51.3068 67.608 51.5142 68.5114 51.929C69.4205 52.3438 70.1364 52.9148 70.6591 53.642C71.1818 54.3636 71.4545 55.1932 71.4773 56.1307H68.9375ZM80.221 69.2898C78.8744 69.2841 77.7238 68.929 76.7693 68.2244C75.8147 67.5199 75.0846 66.4943 74.5789 65.1477C74.0733 63.8011 73.8204 62.179 73.8204 60.2812C73.8204 58.3892 74.0733 56.7727 74.5789 55.4318C75.0903 54.0909 75.8233 53.0682 76.7778 52.3636C77.738 51.6591 78.8858 51.3068 80.221 51.3068C81.5562 51.3068 82.7011 51.6619 83.6557 52.3722C84.6102 53.0767 85.3403 54.0994 85.846 55.4403C86.3574 56.7756 86.613 58.3892 86.613 60.2812C86.613 62.1847 86.3602 63.8097 85.8545 65.1562C85.3488 66.4972 84.6187 67.5227 83.6642 68.233C82.7096 68.9375 81.5619 69.2898 80.221 69.2898ZM80.221 67.0142C81.4028 67.0142 82.3261 66.4375 82.9909 65.2841C83.6613 64.1307 83.9966 62.4631 83.9966 60.2812C83.9966 58.8324 83.8432 57.608 83.5363 56.608C83.2352 55.6023 82.8005 54.8409 82.2324 54.3239C81.6699 53.8011 80.9994 53.5398 80.221 53.5398C79.0449 53.5398 78.1216 54.1193 77.4511 55.2784C76.7807 56.4375 76.4426 58.1051 76.4369 60.2812C76.4369 61.7358 76.5875 62.9659 76.8886 63.9716C77.1954 64.9716 77.6301 65.7301 78.1926 66.2472C78.7551 66.7585 79.4312 67.0142 80.221 67.0142ZM90.2367 69.1619C89.7708 69.1619 89.3703 68.9972 89.035 68.6676C88.6998 68.3324 88.5322 67.929 88.5322 67.4574C88.5322 66.9915 88.6998 66.5937 89.035 66.2642C89.3703 65.929 89.7708 65.7614 90.2367 65.7614C90.7026 65.7614 91.1032 65.929 91.4384 66.2642C91.7737 66.5937 91.9413 66.9915 91.9413 67.4574C91.9413 67.7699 91.8617 68.0568 91.7026 68.3182C91.5492 68.5739 91.3447 68.7784 91.089 68.9318C90.8333 69.0852 90.5492 69.1619 90.2367 69.1619ZM100.284 69.2386C99.114 69.2386 98.0685 69.0369 97.1481 68.6335C96.2333 68.2301 95.5089 67.6705 94.9748 66.9545C94.4464 66.233 94.1623 65.3977 94.1225 64.4489H96.7986C96.8327 64.9659 97.006 65.4148 97.3185 65.7955C97.6367 66.1705 98.0515 66.4602 98.5628 66.6648C99.0742 66.8693 99.6424 66.9716 100.267 66.9716C100.955 66.9716 101.563 66.8523 102.091 66.6136C102.625 66.375 103.043 66.0426 103.344 65.6165C103.645 65.1847 103.796 64.6875 103.796 64.125C103.796 63.5398 103.645 63.0256 103.344 62.5824C103.049 62.1335 102.614 61.7812 102.04 61.5256C101.472 61.2699 100.784 61.142 99.9776 61.142H98.5032V58.9943H99.9776C100.625 58.9943 101.194 58.8778 101.682 58.6449C102.176 58.4119 102.563 58.0881 102.841 57.6733C103.12 57.2528 103.259 56.7614 103.259 56.1989C103.259 55.6591 103.137 55.1903 102.892 54.7926C102.654 54.3892 102.313 54.0739 101.87 53.8466C101.432 53.6193 100.915 53.5057 100.319 53.5057C99.7503 53.5057 99.2191 53.6108 98.7248 53.821C98.2361 54.0256 97.8384 54.321 97.5316 54.7074C97.2248 55.0881 97.06 55.5455 97.0373 56.0795H94.489C94.5174 55.1364 94.7958 54.3068 95.3242 53.5909C95.8583 52.875 96.5628 52.3153 97.4378 51.9119C98.3128 51.5085 99.2844 51.3068 100.353 51.3068C101.472 51.3068 102.438 51.5256 103.25 51.9631C104.069 52.3949 104.699 52.9716 105.142 53.6932C105.591 54.4148 105.813 55.2045 105.807 56.0625C105.813 57.0398 105.54 57.8693 104.989 58.5511C104.444 59.233 103.716 59.6903 102.807 59.9233V60.0597C103.966 60.2358 104.864 60.696 105.5 61.4403C106.142 62.1847 106.461 63.108 106.455 64.2102C106.461 65.1705 106.194 66.0312 105.654 66.7926C105.12 67.554 104.39 68.1534 103.463 68.5909C102.537 69.0227 101.478 69.2386 100.284 69.2386Z" fill="#00FF60"/>
<rect x="1" y="25" width="126.5" height="70" rx="15" stroke="#00FF60" stroke-opacity="0.48" stroke-width="2"/>
</g>
<defs>
<linearGradient id="paint0_linear_1930_8838" x1="150" y1="60" x2="150" y2="120" gradientUnits="userSpaceOnUse">
<stop stop-color="#090A0C"/>
<stop offset="1" stop-color="#090A0C" stop-opacity="0"/>
</linearGradient>
<linearGradient id="paint1_linear_1930_8838" x1="150" y1="60" x2="300" y2="60" gradientUnits="userSpaceOnUse">
<stop stop-color="#090A0C"/>
<stop offset="1" stop-color="#090A0C" stop-opacity="0"/>
</linearGradient>
</defs>
</svg>
