<svg width="80" height="80" viewBox="0 0 80 80" fill="none" xmlns="http://www.w3.org/2000/svg">
<mask id="mask0_2414_17965" style="mask-type:alpha" maskUnits="userSpaceOnUse" x="0" y="0" width="80" height="80">
<rect width="80" height="80" fill="#D9D9D9"/>
</mask>
<g mask="url(#mask0_2414_17965)">
<mask id="mask1_2414_17965" style="mask-type:alpha" maskUnits="userSpaceOnUse" x="-20" y="-20" width="120" height="120">
<rect x="-20" y="-20" width="120" height="120" fill="url(#paint0_linear_2414_17965)"/>
</mask>
<g mask="url(#mask1_2414_17965)">
<path d="M40.0155 3.0177e-06C32.1036 -0.00306957 24.3685 2.34028 17.7885 6.73366C11.2085 11.1271 6.07918 17.3731 3.0493 24.6819C0.0194095 31.9907 -0.77494 40.0338 0.766714 47.7941C2.30837 55.5543 6.11677 62.6831 11.7103 68.2788C17.3037 73.8744 24.431 77.6856 32.1907 79.2302C39.9503 80.7749 47.9938 79.9837 55.3038 76.9566C62.6137 73.9296 68.8618 68.8027 73.2577 62.2244C77.6536 55.6461 80 47.9119 80 40C79.9992 29.3943 75.7868 19.223 68.2889 11.7221C60.7909 4.2213 50.6213 0.00494507 40.0155 3.0177e-06ZM69.2909 42.1841H50.7153C50.162 44.9561 48.59 47.4201 46.3094 49.0902C44.0288 50.7603 41.2052 51.5152 38.3955 51.2061C35.5858 50.897 32.9938 49.5462 31.1309 47.4203C29.268 45.2943 28.2693 42.5475 28.3318 39.7215C28.3943 36.8954 29.5134 34.1954 31.4685 32.1539C33.4236 30.1124 36.0728 28.8776 38.8934 28.693C41.7141 28.5084 44.5015 29.3874 46.706 31.1567C48.9105 32.926 50.372 35.4571 50.8023 38.2509H69.2753C69.7969 38.2509 70.2971 38.4581 70.6659 38.8269C71.0348 39.1957 71.2419 39.6959 71.2419 40.2175C71.2419 40.739 71.0348 41.2393 70.6659 41.6081C70.2971 41.9769 69.7969 42.1841 69.2753 42.1841H69.2909Z" fill="#00FF60" fill-opacity="0.08"/>
<path d="M51.5072 43.1841C50.7802 45.8717 49.1597 48.2423 46.9002 49.897C44.4179 51.7149 41.3445 52.5366 38.2861 52.2001C35.2278 51.8636 32.4065 50.3934 30.3788 48.0793C28.351 45.7653 27.264 42.7754 27.332 39.6993C27.4 36.6233 28.6182 33.6844 30.7463 31.4623C32.8744 29.2401 35.7579 27.896 38.8281 27.6951C41.8983 27.4942 44.9324 28.451 47.332 30.3768C49.5064 32.122 51.0168 34.5481 51.6295 37.2509H69.2753C70.0621 37.2509 70.8167 37.5634 71.373 38.1198C71.9294 38.6761 72.2419 39.4307 72.2419 40.2175C72.2419 41.0043 71.9294 41.7588 71.373 42.3152C70.8204 42.8679 70.0721 43.18 69.2909 43.1841H51.5072ZM51.5072 43.1841H69.2753H51.5072ZM18.3438 7.56532C24.7593 3.28177 32.301 0.997007 40.0152 1C50.3557 1.00482 60.2711 5.11578 67.5816 12.4291C74.8921 19.7424 78.9992 29.6595 79 40C79 47.7141 76.7123 55.255 72.4263 61.6688C68.1402 68.0826 62.0484 73.0814 54.9212 76.0327C47.794 78.9841 39.9516 79.7555 32.3859 78.2495C24.8202 76.7434 17.8711 73.0275 12.4175 67.5718C6.96385 62.116 3.25066 55.1655 1.74755 47.5992C0.244434 40.033 1.01892 32.1909 3.97306 25.0648C6.9272 17.9388 11.9283 11.8489 18.3438 7.56532Z" stroke="#00FF60" stroke-opacity="0.48" stroke-width="2"/>
</g>
</g>
<defs>
<linearGradient id="paint0_linear_2414_17965" x1="40" y1="-20" x2="40" y2="100" gradientUnits="userSpaceOnUse">
<stop offset="0.509429"/>
<stop offset="0.973152" stop-opacity="0"/>
</linearGradient>
</defs>
</svg>
