<svg width="80" height="80" viewBox="0 0 80 80" fill="none" xmlns="http://www.w3.org/2000/svg">
<mask id="mask0_2414_17967" style="mask-type:alpha" maskUnits="userSpaceOnUse" x="0" y="0" width="80" height="80">
<path d="M0 0H80V80H0V0Z" fill="#D9D9D9"/>
</mask>
<g mask="url(#mask0_2414_17967)">
<mask id="mask1_2414_17967" style="mask-type:alpha" maskUnits="userSpaceOnUse" x="-20" y="-20" width="120" height="120">
<path d="M-20 -20H100V100H-20V-20Z" fill="url(#paint0_linear_2414_17967)"/>
</mask>
<g mask="url(#mask1_2414_17967)">
<path d="M43.2 67.363V62.0001C45.88 61.5601 48.3114 60.1801 50.0657 58.1087C51.82 56.0373 52.7772 53.4087 52.7686 50.6973C52.7686 44.1287 46.88 40.4916 41.6829 37.2801C37.5457 34.723 33.6343 32.3087 33.6343 29.3087C33.6343 25.4401 37.0657 24.0659 40.0029 24.0659C41.6914 24.0659 43.3086 24.7401 44.5029 25.9344C45.6972 27.1287 46.3686 28.7458 46.3714 30.4344H52.7714C52.7657 27.6087 51.8257 24.863 50.0914 22.6287C48.36 20.3944 45.9372 18.7973 43.2029 18.0887V12.6401H36.8029V18.003C34.1229 18.443 31.6914 19.823 29.9372 21.8944C28.1829 23.9658 27.2257 26.5944 27.2343 29.3087C27.2343 35.8773 33.1229 39.5144 38.32 42.7258C42.4572 45.283 46.3686 47.6973 46.3686 50.6973C46.3686 54.5659 42.9372 55.9401 40 55.9401C38.3114 55.9401 36.6943 55.2659 35.5 54.0716C34.3057 52.8773 33.6343 51.2601 33.6314 49.5716H27.2314C27.2372 52.3973 28.1772 55.143 29.9114 57.3773C31.6429 59.6116 34.0657 61.2087 36.8 61.9201V67.3687H43.2V67.363Z" fill="#00FF60" fill-opacity="0.08"/>
<path fill-rule="evenodd" clip-rule="evenodd" d="M41.2 60.3017L42.876 60.0266C45.086 59.6637 47.0916 58.5258 48.5395 56.8162C49.9861 55.108 50.7757 52.9401 50.7686 50.7036L50.7686 50.6973C50.7686 48.0956 49.6305 46.0229 47.7571 44.1407C45.8315 42.206 43.2737 40.6142 40.6315 38.9815L40.5279 38.9175C38.532 37.6839 36.4107 36.3729 34.7958 34.9706C33.1969 33.5822 31.6343 31.7179 31.6343 29.3087C31.6343 26.6754 32.8515 24.7583 34.598 23.579C36.2495 22.4639 38.2695 22.0659 40.0029 22.0659C42.2255 22.0659 44.3503 22.9534 45.9171 24.5202C47.0056 25.6087 47.7635 26.965 48.1267 28.4344H50.5798C50.2629 26.7752 49.5588 25.2042 48.5115 23.855L48.5106 23.8538C47.0499 21.9689 45.0064 20.6221 42.7012 20.0248L41.2029 19.6365V14.6401H38.8029V19.7014L37.1269 19.9766C34.9169 20.3394 32.9113 21.4773 31.4634 23.187C30.0169 24.8949 29.2272 27.0628 29.2343 29.3024L29.2343 29.3087C29.2343 31.9104 30.3724 33.9831 32.2458 35.8653C34.1714 37.8 36.7292 39.3918 39.3713 41.0245L39.475 41.0885C41.4709 42.3221 43.5922 43.6331 45.2071 45.0354C46.806 46.4238 48.3686 48.288 48.3686 50.6973C48.3686 53.3306 47.1514 55.2477 45.4049 56.427C43.7534 57.5421 41.7334 57.9401 40 57.9401C37.7774 57.9401 35.6526 57.0526 34.0858 55.4858C32.9973 54.3973 32.2394 53.041 31.8762 51.5716H29.4231C29.74 53.2308 30.4441 54.8018 31.4913 56.1509L31.4923 56.1522C32.9529 58.037 34.9969 59.3844 37.3036 59.9846L38.8 60.3739V65.3687H41.2V60.3017ZM43.2 67.3687H36.8V61.9201C34.0657 61.2087 31.6429 59.6116 29.9114 57.3773C28.5903 55.6753 27.7301 53.6764 27.3927 51.5716C27.2872 50.9133 27.2328 50.2447 27.2314 49.5716H33.6314C33.6343 51.2601 34.3057 52.8773 35.5 54.0716C36.6943 55.2659 38.3114 55.9401 40 55.9401C42.9372 55.9401 46.3686 54.5659 46.3686 50.6973C46.3686 47.7006 42.4659 45.2884 38.3338 42.7344L38.3164 42.7236C33.1201 39.5127 27.2343 35.8757 27.2343 29.3087C27.2257 26.5944 28.1829 23.9658 29.9372 21.8944C31.6914 19.823 34.1229 18.443 36.8029 18.003V12.6401H43.2029V18.0887C45.9372 18.7973 48.36 20.3944 50.0914 22.6287C51.4126 24.3307 52.2728 26.3295 52.6102 28.4344C52.7157 29.0927 52.7701 29.7613 52.7714 30.4344H46.3714C46.3686 28.7458 45.6972 27.1287 44.5029 25.9344C43.3086 24.7401 41.6914 24.0659 40.0029 24.0659C37.0657 24.0659 33.6343 25.4401 33.6343 29.3087C33.6343 32.3054 37.537 34.7176 41.6691 37.2716L41.6865 37.2824C46.8828 40.4933 52.7686 44.1302 52.7686 50.6973C52.7772 53.4087 51.82 56.0373 50.0657 58.1087C48.3114 60.1801 45.88 61.5601 43.2 62.0001V67.3687Z" fill="#00FF60" fill-opacity="0.48"/>
<path d="M80 40C80 29.3914 75.7857 19.2171 68.2857 11.7143C60.7829 4.21429 50.6086 0 40 0C29.3914 0 19.2171 4.21429 11.7143 11.7143C4.21429 19.2171 0 29.3914 0 40C0 50.6086 4.21429 60.7829 11.7143 68.2857C19.2171 75.7857 29.3914 80 40 80C50.6057 79.9886 60.7714 75.7714 68.2714 68.2714C75.7714 60.7714 79.9886 50.6057 80 40ZM6.4 40C6.4 31.0886 9.94 22.5429 16.2429 16.24C22.5429 9.94 31.0886 6.4 40.0029 6.4C48.9171 6.4 57.46 9.94 63.7629 16.24C70.0657 22.54 73.6057 31.0886 73.6057 40C73.6057 48.9114 70.0657 57.4571 63.7629 63.76C57.4629 70.06 48.9171 73.6029 40.0029 73.6029C31.0943 73.5914 22.5543 70.0486 16.2543 63.7514C9.95429 57.4514 6.41143 48.9114 6.40286 40.0029L6.4 40Z" fill="#00FF60" fill-opacity="0.08"/>
<path fill-rule="evenodd" clip-rule="evenodd" d="M4.4 40.8288V40C4.4 30.558 8.15079 21.5036 14.8286 14.8258C21.5038 8.15064 30.5583 4.4 40.0029 4.4C49.4477 4.4 58.4991 8.15081 65.1768 14.8255C71.8551 21.5008 75.6057 30.5583 75.6057 40C75.6057 49.442 71.8549 58.4964 65.1771 65.1742C58.5022 71.8491 49.4479 75.6029 40.0029 75.6029H40.0003C30.5623 75.5907 21.5148 71.8374 14.8404 65.166L14.8401 65.1656C8.36323 58.6888 4.63683 49.9771 4.4135 40.8423L4.4 40.8288ZM6.40286 40.0029C6.41143 48.9114 9.95429 57.4514 16.2543 63.7514C22.5543 70.0486 31.0943 73.5914 40.0029 73.6029C48.9171 73.6029 57.4629 70.06 63.7629 63.76C70.0657 57.4571 73.6057 48.9114 73.6057 40C73.6057 31.0886 70.0657 22.54 63.7629 16.24C57.46 9.94 48.9171 6.4 40.0029 6.4C31.0886 6.4 22.5429 9.94 16.2429 16.24C9.94 22.5429 6.4 31.0886 6.4 40L6.40286 40.0029ZM68.2857 11.7143C60.7829 4.21429 50.6086 0 40 0C29.3914 0 19.2171 4.21429 11.7143 11.7143C4.21429 19.2171 0 29.3914 0 40C0 50.6086 4.21429 60.7829 11.7143 68.2857C19.2171 75.7857 29.3914 80 40 80C50.6057 79.9886 60.7714 75.7714 68.2714 68.2714C75.7714 60.7714 79.9886 50.6057 80 40C80 29.3914 75.7857 19.2171 68.2857 11.7143ZM13.1282 66.8712C20.2561 73.9964 29.9219 78 40 78C50.0752 77.9886 59.7323 73.9822 66.8572 66.8572C73.9822 59.7323 77.9886 50.0752 78 40C78 29.9219 73.9964 20.2561 66.8712 13.1282C59.7434 6.00338 50.0779 2 40 2C29.9221 2 20.2566 6.00338 13.1288 13.1282C13.1287 13.1283 13.1286 13.1284 13.1285 13.1285C13.1284 13.1286 13.1283 13.1287 13.1282 13.1288C6.00338 20.2566 2 29.9221 2 40C2 50.0779 6.00338 59.7434 13.1282 66.8712Z" fill="#00FF60" fill-opacity="0.48"/>
</g>
</g>
<defs>
<linearGradient id="paint0_linear_2414_17967" x1="40" y1="-20" x2="40" y2="100" gradientUnits="userSpaceOnUse">
<stop offset="0.509429"/>
<stop offset="0.973152" stop-opacity="0"/>
</linearGradient>
</defs>
</svg>