<svg width="80" height="80" viewBox="0 0 80 80" fill="none" xmlns="http://www.w3.org/2000/svg">
<mask id="mask0_2414_17967" style="mask-type:alpha" maskUnits="userSpaceOnUse" x="0" y="0" width="80" height="80">
<rect width="80" height="80" fill="#D9D9D9"/>
</mask>
<g mask="url(#mask0_2414_17967)">
<mask id="mask1_2414_17967" style="mask-type:alpha" maskUnits="userSpaceOnUse" x="-20" y="-20" width="120" height="120">
<rect x="-20" y="-20" width="120" height="120" fill="url(#paint0_linear_2414_17967)"/>
</mask>
<g mask="url(#mask1_2414_17967)">
<path d="M43.2 67.363V62.0001C45.88 61.5601 48.3114 60.1801 50.0657 58.1087C51.82 56.0373 52.7772 53.4087 52.7686 50.6973C52.7686 44.1287 46.88 40.4916 41.6829 37.2801C37.5457 34.723 33.6343 32.3087 33.6343 29.3087C33.6343 25.4401 37.0657 24.0659 40.0029 24.0659C41.6914 24.0659 43.3086 24.7401 44.5029 25.9344C45.6972 27.1287 46.3686 28.7458 46.3714 30.4344H52.7714C52.7657 27.6087 51.8257 24.863 50.0914 22.6287C48.36 20.3944 45.9372 18.7973 43.2029 18.0887V12.6401H36.8029V18.003C34.1229 18.443 31.6914 19.823 29.9372 21.8944C28.1829 23.9658 27.2257 26.5944 27.2343 29.3087C27.2343 35.8773 33.1229 39.5144 38.32 42.7258C42.4572 45.283 46.3686 47.6973 46.3686 50.6973C46.3686 54.5659 42.9372 55.9401 40 55.9401C38.3114 55.9401 36.6943 55.2659 35.5 54.0716C34.3057 52.8773 33.6343 51.2601 33.6314 49.5716H27.2314C27.2372 52.3973 28.1772 55.143 29.9114 57.3773C31.6429 59.6116 34.0657 61.2087 36.8 61.9201V67.3687H43.2V67.363Z" fill="#00FF60" fill-opacity="0.08"/>
<path d="M43.038 61.0133L42.2 61.1509V62.0001V66.3687H37.8V61.9201V61.147L37.0518 60.9524C34.5313 60.2966 32.2979 58.8243 30.7019 56.7647L30.7014 56.7641C29.3091 54.9705 28.4721 52.8187 28.2761 50.5716H32.7009C32.9198 52.1555 33.6491 53.6348 34.7929 54.7787C36.1734 56.1592 38.0444 56.9401 40 56.9401C41.601 56.9401 43.4071 56.5693 44.8453 55.5982C46.3311 54.595 47.3686 52.9811 47.3686 50.6973C47.3686 48.7427 46.0983 47.1338 44.5514 45.7904C42.9983 44.4418 40.9351 43.1666 38.9077 41.9135L38.8458 41.8752L38.8457 41.8752C36.2253 40.256 33.5607 38.604 31.537 36.5708C29.5394 34.5638 28.2343 32.2517 28.2343 29.3087L28.2343 29.3055C28.2265 26.8286 29.0999 24.4304 30.7003 22.5407C32.3014 20.6502 34.5199 19.3912 36.9649 18.9898L37.8029 18.8522V18.003V13.6401H42.2029V18.0887V18.8626L42.952 19.0567C45.4718 19.7097 47.705 21.1817 49.301 23.2412L49.3015 23.2419C50.6938 25.0355 51.5308 27.1873 51.7268 29.4344H47.302C47.0831 27.8505 46.3538 26.3711 45.21 25.2273C43.8294 23.8468 41.9585 23.0659 40.0029 23.0659C38.4019 23.0659 36.5958 23.4367 35.1576 24.4078C33.6718 25.411 32.6343 27.0249 32.6343 29.3087C32.6343 31.2633 33.9045 32.8722 35.4515 34.2155C37.0046 35.5642 39.0678 36.8394 41.0952 38.0925L41.1571 38.1308L41.1572 38.1308C43.7776 39.75 46.4422 41.402 48.4659 43.4352C50.4635 45.4422 51.7686 47.7543 51.7686 50.6973L51.7686 50.7004C51.7764 53.1744 50.9031 55.5727 49.3026 57.4624C47.7015 59.353 45.483 60.6119 43.038 61.0133Z" stroke="#00FF60" stroke-opacity="0.48" stroke-width="2"/>
<path d="M80 40C80 29.3914 75.7857 19.2171 68.2857 11.7143C60.7829 4.21429 50.6086 0 40 0C29.3914 0 19.2171 4.21429 11.7143 11.7143C4.21429 19.2171 0 29.3914 0 40C0 50.6086 4.21429 60.7829 11.7143 68.2857C19.2171 75.7857 29.3914 80 40 80C50.6057 79.9886 60.7714 75.7714 68.2714 68.2714C75.7714 60.7714 79.9886 50.6057 80 40ZM6.4 40C6.4 31.0886 9.94 22.5429 16.2429 16.24C22.5429 9.94 31.0886 6.4 40.0029 6.4C48.9171 6.4 57.46 9.94 63.7629 16.24C70.0657 22.54 73.6057 31.0886 73.6057 40C73.6057 48.9114 70.0657 57.4571 63.7629 63.76C57.4629 70.06 48.9171 73.6029 40.0029 73.6029C31.0943 73.5914 22.5543 70.0486 16.2543 63.7514C9.95429 57.4514 6.41143 48.9114 6.40286 40.0029L6.4 40Z" fill="#00FF60" fill-opacity="0.08"/>
<path d="M67.5785 12.4213C60.2631 5.10883 50.3432 1 40 1C29.6568 1 19.7369 5.10883 12.4215 12.4213C12.4214 12.4213 12.4213 12.4214 12.4213 12.4215M67.5785 12.4213L11.7143 68.2857C4.21429 60.7829 0 50.6086 0 40C0 29.3914 4.21429 19.2171 11.7143 11.7143L12.4213 12.4215M67.5785 12.4213C74.8908 19.7364 78.9997 29.656 79 39.9989C78.9889 50.3398 74.8771 60.2516 67.5643 67.5643C60.2516 74.8771 50.3398 78.9889 39.9989 79C29.656 78.9997 19.7364 74.8908 12.4213 67.5785M67.5785 12.4213L12.4213 67.5785M12.4213 12.4215C5.10883 19.7369 1 29.6568 1 40C1 50.3432 5.10883 60.2631 12.4213 67.5785M12.4213 12.4215V67.5785M5.4 40V40.4142L5.40576 40.42C5.52274 49.4429 9.15808 58.0694 15.5472 64.4585L15.5473 64.4587C22.0346 70.943 30.8283 74.5911 40.0016 74.6029H40.0029C49.1825 74.6029 57.9825 70.9545 64.47 64.4671C70.9603 57.9768 74.6057 49.1767 74.6057 40C74.6057 30.8234 70.9604 22.0204 64.4698 15.5327C57.9795 9.0454 49.1824 5.4 40.0029 5.4C30.8234 5.4 22.0233 9.04532 15.5358 15.5329C9.04539 22.0233 5.4 30.8233 5.4 40Z" stroke="#00FF60" stroke-opacity="0.48" stroke-width="2"/>
</g>
</g>
<defs>
<linearGradient id="paint0_linear_2414_17967" x1="40" y1="-20" x2="40" y2="100" gradientUnits="userSpaceOnUse">
<stop offset="0.509429"/>
<stop offset="0.973152" stop-opacity="0"/>
</linearGradient>
</defs>
</svg>
