<svg width="80" height="80" viewBox="0 0 80 80" fill="none" xmlns="http://www.w3.org/2000/svg">
<mask id="mask0_2414_17966" style="mask-type:alpha" maskUnits="userSpaceOnUse" x="0" y="0" width="80" height="80">
<rect width="80" height="80" fill="#D9D9D9"/>
</mask>
<g mask="url(#mask0_2414_17966)">
<mask id="mask1_2414_17966" style="mask-type:alpha" maskUnits="userSpaceOnUse" x="-20" y="-20" width="120" height="120">
<rect x="-20" y="-20" width="120" height="120" fill="url(#paint0_linear_2414_17966)"/>
</mask>
<g mask="url(#mask1_2414_17966)">
<path d="M79.9158 38.5895C79.8316 38.3368 79.8316 38 79.8316 37.7474C78.9895 31.1789 74.7789 25.7895 68.4632 23.3474C61.8105 20.7368 54.4 22.0842 49.0947 26.7158L43.2 31.8526L49.6 37.4947L54.6526 33.0316C57.6 30.5053 61.7263 29.7474 65.4316 31.1789C68.4632 32.3579 70.4842 34.5474 71.2421 37.4947C71.3263 37.9158 71.4105 38.3368 71.4947 38.7579C71.5789 39.2632 71.6632 39.7684 71.6632 40.2737C71.6632 40.7789 71.5789 41.2842 71.4947 41.7895C71.0737 45.3263 68.8842 48.1053 65.4316 49.3684C64.7579 49.6211 64.1684 49.7895 63.4947 49.9579C62.821 50.0421 62.2316 50.1263 61.5579 50.1263C59.0316 50.1263 56.5895 49.2 54.6526 47.5158L30.9053 26.7158C27.3684 23.6 22.9895 22 18.4421 22C16.0842 22 13.8105 22.4211 11.5368 23.3474C5.22105 25.7895 1.01053 31.1789 0.168421 37.7474C0.0842105 38.5895 0 39.4316 0 40.2737C0 40.8632 0.0842105 41.4526 0.0842105 42.0421C0.0842105 42.2947 0.0842105 42.5474 0.168421 42.8C1.01053 49.4526 5.22105 54.8421 11.5368 57.2C13.8105 58.1263 16.1684 58.5474 18.4421 58.5474C22.9895 58.5474 27.3684 56.9474 30.9053 53.8316L36.8 48.6947L30.4 43.1368L25.3474 47.5158C22.4 50.1263 18.2737 50.8 14.5684 49.3684C11.5368 48.1895 9.51579 45.9158 8.75789 43.0526C8.58947 42.6316 8.50526 42.2105 8.50526 41.7895C8.42105 41.2842 8.42105 40.7789 8.42105 40.2737C8.42105 39.7684 8.50526 39.2632 8.50526 38.7579C8.92632 35.2211 11.2 32.5263 14.5684 31.1789C15.8316 30.6737 17.1789 30.4211 18.4421 30.4211C20.9684 30.4211 23.4105 31.3474 25.3474 33.0316L49.0947 53.8316C52.6316 56.9474 57.0105 58.5474 61.5579 58.5474C63.9158 58.5474 66.1895 58.1263 68.4632 57.2C74.7789 54.7579 79.0737 49.3684 79.8316 42.8C79.9158 41.9579 80 41.1158 80 40.2737C80 39.6827 79.9143 39.1774 79.9143 38.588L79.9158 38.5895Z" fill="#00FF60" fill-opacity="0.08"/>
<path d="M35.2764 48.696L30.2483 53.0777L30.2483 53.0777L30.2442 53.0812C26.8925 56.0339 22.7494 57.5474 18.4421 57.5474C16.2912 57.5474 14.0621 57.149 11.9141 56.2739L11.9004 56.2683L11.8866 56.2632C5.92313 54.0368 1.95648 48.9626 1.1605 42.6744L1.14817 42.577L1.1171 42.4838C1.09211 42.4088 1.08421 42.3173 1.08421 42.0421C1.08421 41.7115 1.061 41.3867 1.04062 41.1015L1.03956 41.0866C1.01808 40.7859 1 40.5268 1 40.2737C1 39.4941 1.07754 38.7062 1.16205 37.8609C1.96111 31.6661 5.92511 26.5894 11.8975 24.2801L11.9058 24.2768L11.9141 24.2735C14.0641 23.3975 16.2093 23 18.4421 23C22.7494 23 26.8925 24.5134 30.2442 27.4662L30.2464 27.468L53.9937 48.268L53.9965 48.2704C56.1111 50.1092 58.785 51.1263 61.5579 51.1263C62.2303 51.1263 62.8307 51.0501 63.4162 50.9758C63.4839 50.9672 63.5514 50.9586 63.6188 50.9502L63.6787 50.9427L63.7373 50.928C64.4319 50.7544 65.0595 50.5757 65.779 50.3061C69.5705 48.9175 72.0118 45.8352 72.4849 41.9314L72.4866 41.9208C72.5673 41.437 72.6632 40.8623 72.6632 40.2737C72.6632 39.6851 72.5673 39.1104 72.4866 38.6266L72.4811 38.5935L72.4785 38.5776L72.4753 38.5618L72.2227 37.2986L72.2174 37.272L72.2106 37.2457C71.3657 33.9601 69.0997 31.5325 65.794 30.2469L65.792 30.2461C61.7385 28.68 57.2246 29.5099 54.0018 32.2723L53.9962 32.2772L53.9906 32.2821L49.5993 36.161L44.7171 31.857L49.7517 27.4697L49.7524 27.4691C54.7794 23.0805 61.7962 21.8054 68.0979 24.2783L68.1025 24.2801C74.0589 26.5832 78.0176 31.6389 78.8314 37.8111C78.8311 38.0111 78.8336 38.3741 78.9156 38.7226C78.9208 39.0044 78.9411 39.2643 78.9591 39.4943L78.9602 39.5083C78.9819 39.7865 79 40.023 79 40.2737C79 41.0551 78.9221 41.845 78.8373 42.6926C78.1217 48.8716 74.0858 53.9537 68.1025 56.2673L68.0942 56.2705L68.0859 56.2739C65.9359 57.1498 63.7907 57.5474 61.5579 57.5474C57.2506 57.5474 53.1075 56.0339 49.7558 53.0812L49.7536 53.0793L26.0063 32.2793L26.0035 32.277C23.8889 30.4381 21.215 29.4211 18.4421 29.4211C17.0505 29.4211 15.5771 29.6984 14.197 30.2505C10.5289 31.7177 7.98149 34.6983 7.51228 38.6397L7.50526 38.6986V38.7579C7.50526 38.962 7.48825 39.1731 7.46661 39.4327L7.46525 39.449C7.44505 39.6913 7.42105 39.9791 7.42105 40.2737L7.42105 40.3051C7.42101 40.7686 7.42095 41.3142 7.50612 41.8739C7.51643 42.382 7.61965 42.8806 7.80644 43.3655C8.6616 46.5249 10.9103 49.0188 14.206 50.3004L14.208 50.3012C18.2454 51.8611 22.7675 51.1339 26.0062 48.2681L30.3993 44.4607L35.2764 48.696Z" stroke="#00FF60" stroke-opacity="0.48" stroke-width="2"/>
</g>
</g>
<defs>
<linearGradient id="paint0_linear_2414_17966" x1="40" y1="-20" x2="40" y2="100" gradientUnits="userSpaceOnUse">
<stop offset="0.509429"/>
<stop offset="0.973152" stop-opacity="0"/>
</linearGradient>
</defs>
</svg>
