<svg width="600" height="240" viewBox="0 0 600 240" fill="none" xmlns="http://www.w3.org/2000/svg">
<mask id="mask0_1996_14121" style="mask-type:alpha" maskUnits="userSpaceOnUse" x="0" y="0" width="600" height="240">
<mask id="mask1_1996_14121" style="mask-type:alpha" maskUnits="userSpaceOnUse" x="0" y="0" width="600" height="240">
<rect width="600" height="240" transform="matrix(-1 0 0 1 600 0)" fill="url(#paint0_linear_1996_14121)"/>
</mask>
<g mask="url(#mask1_1996_14121)">
<rect width="600" height="240" transform="matrix(-1 0 0 1 600 0)" fill="url(#paint1_linear_1996_14121)"/>
</g>
</mask>
<g mask="url(#mask0_1996_14121)">
<path d="M534.5 66.9248C483.679 146.918 394.289 200 292.5 200C192.879 200 105.134 149.155 53.7998 72.0001" stroke="url(#paint2_linear_1996_14121)" stroke-opacity="0.12" stroke-width="30"/>
<path d="M53 72H523" stroke="url(#paint3_linear_1996_14121)" stroke-opacity="0.12" stroke-width="20"/>
<mask id="mask2_1996_14121" style="mask-type:alpha" maskUnits="userSpaceOnUse" x="41" y="59" width="506" height="157">
<path fill-rule="evenodd" clip-rule="evenodd" d="M505.089 82.1189C455.341 144.891 378.458 185.119 292.188 185.119C205.918 185.119 129.038 144.892 79.2882 82.1189H505.089ZM519.516 62.1189H52.6885V72.6511L41 80.428C94.9969 161.585 187.338 215.119 292.188 215.119C399.322 215.119 493.393 159.229 546.849 75.0873L521.527 59C520.864 60.0445 520.193 61.0842 519.516 62.1189Z" fill="url(#paint4_linear_1996_14121)" fill-opacity="0.12"/>
</mask>
<g mask="url(#mask2_1996_14121)">
<rect x="331" y="62.1189" width="80" height="153" fill="url(#paint5_linear_1996_14121)"/>
</g>
<g filter="url(#filter0_b_1996_14121)">
<circle cx="53" cy="70" r="50" fill="white" fill-opacity="0.08"/>
<circle cx="53" cy="70" r="49" stroke="white" stroke-opacity="0.24" stroke-width="2"/>
</g>
<path d="M102 75C102 102.062 80.062 124 53 124C25.938 124 4 102.062 4 75" stroke="url(#paint6_linear_1996_14121)" stroke-opacity="0.12" stroke-width="2"/>
<path d="M212 170C212 197.062 190.062 219 163 219C135.938 219 114 197.062 114 170" stroke="url(#paint7_linear_1996_14121)" stroke-opacity="0.12" stroke-width="2"/>
<path d="M472 170C472 197.062 450.062 219 423 219C395.938 219 374 197.062 374 170" stroke="url(#paint8_linear_1996_14121)" stroke-opacity="0.12" stroke-width="2"/>
<path d="M582 75C582 102.062 560.062 124 533 124C505.938 124 484 102.062 484 75" stroke="url(#paint9_linear_1996_14121)" stroke-opacity="0.24" stroke-width="2"/>
<g filter="url(#filter1_b_1996_14121)">
<circle cx="533" cy="70" r="50" fill="#00FF60" fill-opacity="0.08"/>
<circle cx="533" cy="70" r="49" stroke="#00FF60" stroke-opacity="0.48" stroke-width="2"/>
</g>
<circle cx="533" cy="70" r="70" fill="url(#paint10_radial_1996_14121)"/>
<g filter="url(#filter2_b_1996_14121)">
<circle cx="163" cy="165" r="50" fill="white" fill-opacity="0.08"/>
<circle cx="163" cy="165" r="49" stroke="white" stroke-opacity="0.24" stroke-width="2"/>
</g>
<path d="M175.434 171.468C175.434 164.996 171.478 162.776 163.566 161.849C157.914 161.107 156.784 159.629 156.784 157.041C156.784 154.453 158.669 152.788 162.435 152.788C165.826 152.788 167.712 153.898 168.652 156.672C168.842 157.227 169.407 157.596 169.972 157.596H172.988C173.743 157.596 174.308 157.041 174.308 156.299V156.113C173.553 152.042 170.162 148.899 165.831 148.531V144.092C165.831 143.35 165.266 142.795 164.325 142.613H161.499C160.744 142.613 160.179 143.168 159.994 144.092V148.344C154.342 149.086 150.761 152.784 150.761 157.409C150.761 163.513 154.528 165.919 162.44 166.843C167.716 167.766 169.412 168.876 169.412 171.837C169.412 174.798 166.776 176.831 163.195 176.831C158.298 176.831 156.603 174.798 156.038 172.023C155.848 171.282 155.283 170.914 154.718 170.914H151.516C150.761 170.914 150.196 171.468 150.196 172.21V172.396C150.951 177.022 153.962 180.351 160.179 181.275V185.714C160.179 186.455 160.744 187.01 161.685 187.192H164.511C165.266 187.192 165.831 186.637 166.016 185.714V181.275C171.663 180.347 175.434 176.463 175.434 171.468Z" fill="white" fill-opacity="0.08" stroke="white" stroke-opacity="0.48" stroke-width="2"/>
<path d="M153.395 190.893C138.701 185.712 131.164 169.62 136.63 155.378C139.456 147.61 145.672 141.692 153.395 138.918C154.15 138.549 154.525 137.994 154.525 137.066V134.478C154.525 133.737 154.15 133.182 153.395 133C153.205 133 152.83 133 152.64 133.186C134.745 138.736 124.947 157.416 130.599 174.991C133.99 185.348 142.092 193.303 152.64 196.633C153.395 197.001 154.145 196.633 154.335 195.891C154.525 195.705 154.525 195.523 154.525 195.15V192.562C154.525 192.002 153.96 191.265 153.395 190.893ZM173.36 133.182C172.605 132.814 171.855 133.182 171.665 133.923C171.475 134.11 171.475 134.292 171.475 134.665V137.253C171.475 137.994 172.04 138.731 172.605 139.104C187.299 144.285 194.836 160.377 189.37 174.618C186.544 182.387 180.328 188.304 172.605 191.079C171.85 191.447 171.475 192.002 171.475 192.93V195.518C171.475 196.26 171.85 196.815 172.605 196.997C172.795 196.997 173.17 196.997 173.36 196.81C191.255 191.261 201.053 172.581 195.401 155.005C192.01 144.467 183.723 136.511 173.36 133.182Z" fill="white" fill-opacity="0.08" stroke="white" stroke-opacity="0.48" stroke-width="2"/>
<g filter="url(#filter3_b_1996_14121)">
<circle cx="423" cy="165" r="50" fill="white" fill-opacity="0.08"/>
<circle cx="423" cy="165" r="49" stroke="white" stroke-opacity="0.24" stroke-width="2"/>
</g>
<path d="M435.434 171.468C435.434 164.996 431.478 162.776 423.566 161.849C417.914 161.107 416.784 159.629 416.784 157.041C416.784 154.453 418.669 152.788 422.435 152.788C425.826 152.788 427.712 153.898 428.652 156.672C428.842 157.227 429.407 157.596 429.972 157.596H432.988C433.743 157.596 434.308 157.041 434.308 156.299V156.113C433.553 152.042 430.162 148.899 425.831 148.531V144.092C425.831 143.35 425.266 142.795 424.325 142.613H421.499C420.744 142.613 420.179 143.168 419.994 144.092V148.344C414.342 149.086 410.761 152.784 410.761 157.409C410.761 163.513 414.528 165.919 422.44 166.843C427.716 167.766 429.412 168.876 429.412 171.837C429.412 174.798 426.776 176.831 423.195 176.831C418.298 176.831 416.603 174.798 416.038 172.023C415.848 171.282 415.283 170.914 414.718 170.914H411.516C410.761 170.914 410.196 171.468 410.196 172.21V172.396C410.951 177.022 413.962 180.351 420.179 181.275V185.714C420.179 186.455 420.744 187.01 421.685 187.192H424.511C425.266 187.192 425.831 186.637 426.016 185.714V181.275C431.663 180.347 435.434 176.463 435.434 171.468Z" fill="white" fill-opacity="0.08" stroke="white" stroke-opacity="0.48" stroke-width="2"/>
<path d="M413.395 190.893C398.701 185.712 391.164 169.62 396.63 155.378C399.456 147.61 405.672 141.692 413.395 138.918C414.15 138.549 414.525 137.994 414.525 137.066V134.478C414.525 133.737 414.15 133.182 413.395 133C413.205 133 412.83 133 412.64 133.186C394.745 138.736 384.947 157.416 390.599 174.991C393.99 185.348 402.092 193.303 412.64 196.633C413.395 197.001 414.145 196.633 414.335 195.891C414.525 195.705 414.525 195.523 414.525 195.15V192.562C414.525 192.002 413.96 191.265 413.395 190.893ZM433.36 133.182C432.605 132.814 431.855 133.182 431.665 133.923C431.475 134.11 431.475 134.292 431.475 134.665V137.253C431.475 137.994 432.04 138.731 432.605 139.104C447.299 144.285 454.836 160.377 449.37 174.618C446.544 182.387 440.328 188.304 432.605 191.079C431.85 191.447 431.475 192.002 431.475 192.93V195.518C431.475 196.26 431.85 196.815 432.605 196.997C432.795 196.997 433.17 196.997 433.36 196.81C451.255 191.261 461.053 172.581 455.401 155.005C452.01 144.467 443.723 136.511 433.36 133.182Z" fill="white" fill-opacity="0.08" stroke="white" stroke-opacity="0.48" stroke-width="2"/>
<path d="M56.1329 72.9276H71.5363C71.8646 72.9276 72.0197 72.9276 72.0434 72.4883C72.1693 70.8892 72.1693 69.2808 72.0434 67.6799C72.0434 67.369 71.892 67.2406 71.5618 67.2406H40.9064C40.527 67.2406 40.4249 67.369 40.4249 67.732V72.3338C40.4249 72.9276 40.4249 72.9276 41.0323 72.9276H56.1329ZM70.3232 61.8626C70.367 61.7453 70.367 61.6169 70.3232 61.5014C70.066 60.9299 69.7614 60.3845 69.4075 59.8726C68.8748 58.9977 68.2473 58.1916 67.5322 57.4675C67.1947 57.03 66.8044 56.6372 66.3666 56.304C64.1739 54.3996 61.5671 53.0519 58.7652 52.3743C57.3514 52.0504 55.9067 51.8959 54.4583 51.9089H40.8535C40.4741 51.9089 40.423 52.0634 40.423 52.4003V61.5778C40.423 61.965 40.423 62.0692 40.9046 62.0692H70.1408C70.1408 62.0692 70.3943 62.0171 70.4454 61.8626H70.3214H70.3232ZM70.3232 78.3056C69.8927 78.2572 69.4585 78.2572 69.028 78.3056H40.932C40.5525 78.3056 40.4249 78.3056 40.4249 78.8231V87.7958C40.4249 88.209 40.4249 88.3133 40.932 88.3133H53.9037C54.524 88.3617 55.1442 88.317 55.7516 88.1848C57.6342 88.0471 59.4857 87.6301 61.2515 86.9432C61.8937 86.7161 62.5139 86.4201 63.0994 86.0645H63.2764C66.3173 84.4506 68.7872 81.9151 70.3451 78.8026C70.3451 78.8026 70.522 78.4117 70.3232 78.3093V78.3056ZM35.3336 92.9653V92.8108V86.7868V84.7447V78.6686C35.3336 78.3317 35.3336 78.2814 34.9286 78.2814H29.4305C29.1259 78.2814 29 78.2814 29 77.8681V72.9555H34.8775C35.2059 72.9555 35.3336 72.9555 35.3336 72.5162V67.6557C35.3336 67.3448 35.3336 67.2685 34.9286 67.2685H29.4305C29.1259 67.2685 29 67.2685 29 66.8552V62.3056C29 62.0208 29 61.9445 29.405 61.9445H34.852C35.2314 61.9445 35.3336 61.9445 35.3336 61.453V47.5175C35.3336 47.1042 35.3336 47 35.8407 47H54.8414C56.2205 47.0558 57.5904 47.2104 58.9458 47.4654C61.7386 47.9922 64.422 49.0105 66.8755 50.4643C68.5027 51.4416 70.0003 52.6219 71.3338 53.9808C72.3371 55.0437 73.2419 56.1942 74.0445 57.4191C74.8417 58.6607 75.5039 59.988 76.0238 61.3749C76.0876 61.736 76.4269 61.9799 76.7808 61.9184H81.3157C81.8976 61.9184 81.8976 61.9184 81.9232 62.4881V66.7287C81.9232 67.1419 81.7718 67.2462 81.365 67.2462H77.868C77.5141 67.2462 77.412 67.2462 77.4375 67.7116C77.5762 69.2864 77.5762 70.8669 77.4375 72.4417C77.4375 72.8811 77.4375 72.9332 77.9209 72.9332H81.9214C82.0983 73.1659 81.9214 73.3986 81.9214 73.6331C81.9469 73.9328 81.9469 74.2363 81.9214 74.536V77.6652C81.9214 78.1046 81.7955 78.2349 81.4142 78.2349H76.6258C76.2919 78.1697 75.9672 78.3875 75.8906 78.7263C74.7505 81.7513 72.9263 84.4636 70.5695 86.6379C69.7085 87.429 68.8037 88.1737 67.8587 88.8606C66.8445 89.4563 65.8576 90.0762 64.8178 90.5676C62.9043 91.4463 60.8977 92.0941 58.8382 92.5055C56.8826 92.8629 54.8997 93.0248 52.9096 92.9969H35.3263V92.9709L35.3336 92.9653Z" fill="white" fill-opacity="0.08" stroke="white" stroke-opacity="0.48" stroke-width="2"/>
<path d="M536.133 72.9276H551.536C551.865 72.9276 552.02 72.9276 552.043 72.4883C552.169 70.8892 552.169 69.2808 552.043 67.6799C552.043 67.369 551.892 67.2406 551.562 67.2406H520.906C520.527 67.2406 520.425 67.369 520.425 67.732V72.3338C520.425 72.9276 520.425 72.9276 521.032 72.9276H536.133ZM550.323 61.8626C550.367 61.7453 550.367 61.6169 550.323 61.5014C550.066 60.9299 549.761 60.3845 549.407 59.8726C548.875 58.9977 548.247 58.1916 547.532 57.4675C547.195 57.03 546.804 56.6372 546.367 56.304C544.174 54.3996 541.567 53.0519 538.765 52.3743C537.351 52.0504 535.907 51.8959 534.458 51.9089H520.854C520.474 51.9089 520.423 52.0634 520.423 52.4003V61.5778C520.423 61.965 520.423 62.0692 520.905 62.0692H550.141C550.141 62.0692 550.394 62.0171 550.445 61.8626H550.321H550.323ZM550.323 78.3056C549.893 78.2572 549.459 78.2572 549.028 78.3056H520.932C520.553 78.3056 520.425 78.3056 520.425 78.8231V87.7958C520.425 88.209 520.425 88.3133 520.932 88.3133H533.904C534.524 88.3617 535.144 88.317 535.752 88.1848C537.634 88.0471 539.486 87.6301 541.252 86.9432C541.894 86.7161 542.514 86.4201 543.099 86.0645H543.276C546.317 84.4506 548.787 81.9151 550.345 78.8026C550.345 78.8026 550.522 78.4117 550.323 78.3093V78.3056ZM515.334 92.9653V92.8108V86.7868V84.7447V78.6686C515.334 78.3317 515.334 78.2814 514.929 78.2814H509.431C509.126 78.2814 509 78.2814 509 77.8681V72.9555H514.878C515.206 72.9555 515.334 72.9555 515.334 72.5162V67.6557C515.334 67.3448 515.334 67.2685 514.929 67.2685H509.431C509.126 67.2685 509 67.2685 509 66.8552V62.3056C509 62.0208 509 61.9445 509.405 61.9445H514.852C515.231 61.9445 515.334 61.9445 515.334 61.453V47.5175C515.334 47.1042 515.334 47 515.841 47H534.841C536.22 47.0558 537.59 47.2104 538.946 47.4654C541.739 47.9922 544.422 49.0105 546.875 50.4643C548.503 51.4416 550 52.6219 551.334 53.9808C552.337 55.0437 553.242 56.1942 554.045 57.4191C554.842 58.6607 555.504 59.988 556.024 61.3749C556.088 61.736 556.427 61.9799 556.781 61.9184H561.316C561.898 61.9184 561.898 61.9184 561.923 62.4881V66.7287C561.923 67.1419 561.772 67.2462 561.365 67.2462H557.868C557.514 67.2462 557.412 67.2462 557.438 67.7116C557.576 69.2864 557.576 70.8669 557.438 72.4417C557.438 72.8811 557.438 72.9332 557.921 72.9332H561.921C562.098 73.1659 561.921 73.3986 561.921 73.6331C561.947 73.9328 561.947 74.2363 561.921 74.536V77.6652C561.921 78.1046 561.795 78.2349 561.414 78.2349H556.626C556.292 78.1697 555.967 78.3875 555.891 78.7263C554.75 81.7513 552.926 84.4636 550.569 86.6379C549.708 87.429 548.804 88.1737 547.859 88.8606C546.844 89.4563 545.858 90.0762 544.818 90.5676C542.904 91.4463 540.898 92.0941 538.838 92.5055C536.883 92.8629 534.9 93.0248 532.91 92.9969H515.326V92.9709L515.334 92.9653Z" fill="#00FF60" fill-opacity="0.08" stroke="#00FF60" stroke-opacity="0.48" stroke-width="2"/>
<g filter="url(#filter4_b_1996_14121)">
<circle cx="294" cy="200" r="28" fill="#00FF60" fill-opacity="0.08"/>
<circle cx="294" cy="200" r="27" stroke="#00FF60" stroke-opacity="0.48" stroke-width="2"/>
</g>
<g filter="url(#filter5_b_1996_14121)">
<circle cx="294" cy="72" r="28" fill="#00FF60" fill-opacity="0.08"/>
<circle cx="294" cy="72" r="27" stroke="#00FF60" stroke-opacity="0.48" stroke-width="2"/>
</g>
<path d="M285.144 64.2356C286.343 63.0107 288.243 62.6729 289.78 63.3319C291.058 63.8792 291.908 65.0855 292.872 66.0656C292.234 66.6971 291.635 67.3668 291.006 68.0081C290.431 67.4109 289.875 66.795 289.289 66.2105C288.706 65.6269 287.711 65.5545 287.095 66.1155C286.274 66.9419 285.496 67.8201 284.671 68.6416C284.192 69.1351 283.341 69.1821 282.847 68.6906C282.306 68.1912 282.273 67.2033 282.813 66.6893C283.591 65.8727 284.367 65.0542 285.145 64.2366" fill="white"/>
<path d="M296.8 64.2914C298.027 63.0107 300 62.6406 301.579 63.37C302.676 63.8331 303.403 64.8524 304.238 65.6788C304.602 66.0851 305.095 66.4621 305.159 67.0593C305.311 67.9219 304.515 68.7747 303.692 68.6181C303.121 68.5564 302.76 68.0414 302.38 67.6507C301.891 67.1494 301.432 66.6119 300.919 66.137C300.284 65.5632 299.25 65.5995 298.674 66.2476C294.525 70.6066 290.385 74.9774 286.233 79.3344C284.948 80.7013 282.991 81.2907 281.21 80.8628C278.961 80.3841 277.17 78.2329 277 75.8243V74.7806C277.122 73.1749 277.947 71.7238 279.089 70.684C278.703 70.2777 278.315 69.8733 277.937 69.4601C279.294 69.4523 280.651 69.4581 282.009 69.4572V73.7555C281.658 73.3873 281.306 73.0182 280.956 72.6491C280.677 72.9428 280.381 73.2199 280.133 73.545C279.467 74.4643 279.409 75.8106 279.981 76.7956C280.547 77.8276 281.751 78.4062 282.863 78.1762C283.506 78.0743 284.077 77.6954 284.527 77.2117C288.616 72.9036 292.711 68.5995 296.8 64.2914Z" fill="white"/>
<path d="M305.546 69.0225C306.904 69.0195 308.263 69.0225 309.621 69.0205C309.261 69.4347 308.855 69.8038 308.502 70.2238C308.876 70.6762 309.314 71.0639 309.675 71.529C310.772 72.8557 311.229 74.7297 310.889 76.449C310.583 78.1331 309.5 79.6341 308.038 80.3919C306.094 81.4435 303.545 81.1057 301.949 79.5215C299.668 77.1276 297.395 74.7248 295.114 72.3328C295.744 71.6827 296.343 71.0022 296.996 70.3776C299.179 72.7 301.386 74.998 303.575 77.3146C304.397 78.2291 305.806 78.5022 306.867 77.904C308.043 77.3077 308.691 75.7637 308.281 74.4526C308.039 73.4882 307.238 72.8811 306.62 72.1899C306.263 72.5669 305.905 72.9448 305.546 73.3217C305.548 71.8883 305.547 70.4549 305.547 69.0215" fill="white"/>
<path d="M308.45 195.299L301.967 185.777C301.748 185.454 301.43 185.214 301.062 185.091C300.694 184.968 300.297 184.97 299.93 185.096C299.564 185.223 299.249 185.467 299.032 185.792C298.816 186.116 298.711 186.503 298.733 186.893C298.902 188.906 299.644 190.826 300.869 192.422C300.269 191.972 291.267 185.149 280.56 188.785C280.294 188.854 280.045 188.975 279.826 189.141C279.607 189.308 279.423 189.516 279.285 189.755C279.146 189.994 279.056 190.258 279.019 190.532C278.982 190.806 278.999 191.085 279.07 191.352C279.211 191.869 279.538 192.314 279.986 192.601C280.435 192.888 280.974 192.995 281.497 192.903C283.721 192.494 285.987 192.371 288.241 192.538C290.469 192.722 292.644 193.321 294.655 194.306C296.691 195.368 298.558 196.732 300.193 198.354C301.787 200.118 303.208 202.034 304.433 204.077C304.571 204.323 304.791 204.512 305.053 204.611C305.316 204.71 305.604 204.713 305.869 204.62C306.171 204.499 306.413 204.262 306.543 203.961C306.672 203.66 306.679 203.32 306.56 203.015C306.06 201.685 305.449 200.401 304.732 199.176C305.461 199.579 306.295 199.745 307.121 199.649C307.476 199.572 307.808 199.41 308.09 199.179C308.371 198.947 308.595 198.651 308.742 198.315C308.953 197.829 309.037 197.297 308.985 196.769C308.934 196.241 308.75 195.735 308.45 195.299Z" fill="white"/>
<path d="M279.549 204.701L286.053 214.23C286.272 214.552 286.591 214.792 286.959 214.913C287.327 215.034 287.724 215.029 288.089 214.899C288.454 214.769 288.766 214.521 288.978 214.194C289.189 213.867 289.288 213.479 289.259 213.09C289.09 211.065 288.345 209.133 287.114 207.525C287.714 207.976 296.732 214.805 307.442 211.173C307.977 211.031 308.433 210.68 308.713 210.199C308.992 209.718 309.072 209.144 308.934 208.604C308.794 208.087 308.468 207.642 308.02 207.355C307.572 207.068 307.034 206.96 306.512 207.052C304.283 207.458 302.013 207.581 299.754 207.417C297.531 207.249 295.359 206.665 293.349 205.694C291.311 204.639 289.444 203.276 287.814 201.651C286.215 199.888 284.793 197.97 283.57 195.924C283.425 195.668 283.193 195.474 282.917 195.378C282.641 195.282 282.34 195.292 282.071 195.404C281.781 195.537 281.554 195.777 281.436 196.075C281.319 196.373 281.32 196.705 281.44 197.002C281.939 198.327 282.549 199.607 283.262 200.828C282.533 200.425 281.697 200.259 280.871 200.355C280.517 200.434 280.186 200.596 279.906 200.827C279.625 201.059 279.403 201.355 279.257 201.69C279.047 202.175 278.964 202.707 279.015 203.234C279.066 203.761 279.25 204.266 279.549 204.701Z" fill="white"/>
<g filter="url(#filter6_b_1996_14121)">
<circle cx="496" cy="32" r="22" fill="#00FF60" fill-opacity="0.08"/>
<circle cx="496" cy="32" r="21" stroke="#00FF60" stroke-opacity="0.48" stroke-width="2"/>
</g>
<path fill-rule="evenodd" clip-rule="evenodd" d="M486.206 37.0666C487.021 37.6889 488.066 38 489.342 38C490.886 38 492.119 37.6277 493.041 36.8832C493.963 36.1277 494.611 34.9889 494.987 33.4665C495.212 32.5332 495.405 31.5721 495.566 30.5833C495.619 30.2277 495.646 29.9332 495.646 29.6999C495.646 28.9221 495.458 28.2555 495.083 27.7C494.708 27.1333 494.193 26.711 493.539 26.4332C492.885 26.1444 492.146 26 491.32 26C488.286 26 486.404 27.5277 485.675 30.5833C485.418 31.7055 485.22 32.6666 485.08 33.4665C485.027 33.8221 485 34.1222 485 34.3666C485 35.5333 485.402 36.4333 486.206 37.0666ZM491.095 35.0499C490.677 35.4166 490.168 35.5999 489.567 35.5999C488.538 35.5999 488.023 35.0888 488.023 34.0665C488.023 33.8221 488.045 33.5888 488.088 33.3666C488.281 32.2889 488.474 31.3777 488.667 30.6333C488.849 29.8778 489.149 29.3167 489.567 28.9498C489.996 28.5833 490.511 28.3999 491.111 28.3999C492.13 28.3999 492.639 28.9054 492.639 29.9165C492.639 30.161 492.617 30.4 492.575 30.6333C492.446 31.411 492.258 32.3222 492.012 33.3666C491.829 34.1222 491.524 34.6833 491.095 35.0499ZM496.113 37.7161C496.177 37.7939 496.268 37.8328 496.386 37.8328H498.573C498.68 37.8328 498.782 37.7939 498.879 37.7161C498.975 37.6383 499.034 37.5384 499.056 37.4162L499.795 33.7661H501.966C503.371 33.7661 504.475 33.4606 505.279 32.8495C506.094 32.2385 506.636 31.294 506.903 30.0161C506.968 29.7162 507 29.4272 507 29.1495C507 28.1828 506.636 27.4439 505.906 26.9328C505.188 26.4217 504.234 26.1661 503.044 26.1661H498.766C498.659 26.1661 498.557 26.205 498.461 26.2828C498.364 26.3606 498.305 26.4606 498.284 26.5828L496.064 37.4162C496.043 37.5273 496.059 37.6272 496.113 37.7161ZM503.253 31.0828C502.921 31.3384 502.529 31.4661 502.079 31.4661H500.23L500.841 28.4829H502.771C503.21 28.4829 503.521 28.5716 503.703 28.7495C503.886 28.9162 503.977 29.1606 503.977 29.4828C503.977 29.6272 503.961 29.7939 503.928 29.9828C503.821 30.4607 503.596 30.8272 503.253 31.0828Z" fill="#00FF60" fill-opacity="0.48"/>
<g filter="url(#filter7_b_1996_14121)">
<circle cx="385" cy="127" r="22" fill="white" fill-opacity="0.08"/>
<circle cx="385" cy="127" r="21" stroke="white" stroke-opacity="0.24" stroke-width="2"/>
</g>
<path fill-rule="evenodd" clip-rule="evenodd" d="M375.206 132.067C376.021 132.689 377.066 133 378.342 133C379.886 133 381.119 132.628 382.041 131.883C382.963 131.128 383.611 129.989 383.987 128.467C384.212 127.533 384.405 126.572 384.566 125.583C384.619 125.228 384.646 124.933 384.646 124.7C384.646 123.922 384.458 123.255 384.083 122.7C383.708 122.133 383.193 121.711 382.539 121.433C381.885 121.144 381.146 121 380.32 121C377.286 121 375.404 122.528 374.675 125.583C374.418 126.706 374.22 127.667 374.08 128.467C374.027 128.822 374 129.122 374 129.367C374 130.533 374.402 131.433 375.206 132.067ZM380.095 130.05C379.677 130.417 379.168 130.6 378.567 130.6C377.538 130.6 377.023 130.089 377.023 129.067C377.023 128.822 377.045 128.589 377.088 128.367C377.281 127.289 377.474 126.378 377.667 125.633C377.849 124.878 378.149 124.317 378.567 123.95C378.996 123.583 379.511 123.4 380.111 123.4C381.13 123.4 381.639 123.905 381.639 124.917C381.639 125.161 381.617 125.4 381.575 125.633C381.446 126.411 381.258 127.322 381.012 128.367C380.829 129.122 380.524 129.683 380.095 130.05ZM385.113 132.716C385.177 132.794 385.268 132.833 385.386 132.833H387.573C387.68 132.833 387.782 132.794 387.879 132.716C387.975 132.638 388.034 132.538 388.056 132.416L388.795 128.766H390.966C392.371 128.766 393.475 128.461 394.279 127.85C395.094 127.238 395.636 126.294 395.903 125.016C395.968 124.716 396 124.427 396 124.15C396 123.183 395.636 122.444 394.906 121.933C394.188 121.422 393.234 121.166 392.044 121.166H387.766C387.659 121.166 387.557 121.205 387.461 121.283C387.364 121.361 387.305 121.461 387.284 121.583L385.064 132.416C385.043 132.527 385.059 132.627 385.113 132.716ZM392.253 126.083C391.921 126.338 391.529 126.466 391.079 126.466H389.23L389.841 123.483H391.771C392.21 123.483 392.521 123.572 392.703 123.75C392.886 123.916 392.977 124.161 392.977 124.483C392.977 124.627 392.961 124.794 392.928 124.983C392.821 125.461 392.596 125.827 392.253 126.083Z" fill="white" fill-opacity="0.48"/>
<g filter="url(#filter8_b_1996_14121)">
<circle cx="91" cy="32" r="22" fill="white" fill-opacity="0.08"/>
<circle cx="91" cy="32" r="21" stroke="white" stroke-opacity="0.24" stroke-width="2"/>
</g>
<g filter="url(#filter9_b_1996_14121)">
<circle cx="200" cy="127" r="22" fill="white" fill-opacity="0.08"/>
<circle cx="200" cy="127" r="21" stroke="white" stroke-opacity="0.24" stroke-width="2"/>
</g>
<path fill-rule="evenodd" clip-rule="evenodd" d="M102.662 25.4757C102.866 25.8125 102.982 26.1921 103 26.5818L103 37.387C102.987 37.7356 102.895 38.0771 102.73 38.3877C102.565 38.6982 102.332 38.9701 102.047 39.1842L91.9337 44.8354C91.6449 44.9446 91.3375 45.0004 91.0274 44.9999C90.6892 45.0023 90.3543 44.9358 90.0446 44.8048C90.0165 44.7917 89.9444 44.7531 89.8387 44.6965C89.8196 44.6863 89.7995 44.6755 89.7783 44.6642C89.6888 44.6157 89.5797 44.556 89.4572 44.4889L85.7551 42.4323L86.5965 41.0552L90.7159 43.3415C90.9056 43.4143 91.1162 43.4183 91.3087 43.3528L94.7906 41.4056L98.2239 39.4857L99.184 38.9484L101.047 37.9075C101.049 37.9057 101.051 37.9038 101.053 37.902C101.051 37.9036 101.049 37.9053 101.047 37.9069L99.1845 38.9478L94.0356 30.9128L96.0156 27.6735L101.334 35.666V26.642C101.327 26.5143 101.289 26.39 101.223 26.2794C101.156 26.1689 101.063 26.0754 100.952 26.0069L91.3492 20.6772C91.2345 20.6246 91.109 20.5976 90.9819 20.5981C90.8549 20.5987 90.7297 20.6269 90.6155 20.6805C90.5851 20.6951 81.0458 26.0232 81.0016 26.0537C80.9019 26.1229 80.8194 26.2126 80.7599 26.3163C80.7004 26.4199 80.6655 26.5351 80.6577 26.6533L80.6706 35.279L79 37.7568V26.5772C79.0187 26.217 79.1217 25.8656 79.3013 25.5494C79.4808 25.2332 79.7324 24.9604 80.0369 24.7514C80.1545 24.6702 80.2791 24.599 80.4094 24.5387C80.4094 24.5387 89.7886 19.2898 89.8699 19.2503C90.2171 19.0856 90.5989 19 90.9859 19C91.3728 19 91.7546 19.0856 92.1019 19.2503L101.83 24.6484C102.173 24.8549 102.459 25.1389 102.662 25.4757ZM79.0019 38.6775L79.001 38.677L79.0019 38.6777V38.6775ZM79.0019 38.6775L81.6299 40.1387L90.3784 26.6011L88.8937 26.5641C87.6286 26.5468 86.2659 26.864 85.6404 27.8494L80.6725 35.2793L79.0019 37.7571V38.6775ZM91.0747 35.7758L94.7914 41.4043L98.2248 39.4844L93.3438 32.061L91.0747 35.7758ZM95.4269 26.6008L91.5139 26.6145L82.6606 40.7115L85.755 42.4307L86.5965 41.0535L95.4269 26.6008Z" fill="white" fill-opacity="0.48"/>
<path fill-rule="evenodd" clip-rule="evenodd" d="M211.662 120.476C211.866 120.813 211.982 121.192 212 121.582L212 132.387C211.987 132.736 211.895 133.077 211.73 133.388C211.565 133.698 211.332 133.97 211.047 134.184L200.934 139.835C200.645 139.945 200.337 140 200.027 140C199.689 140.002 199.354 139.936 199.045 139.805C199.016 139.792 198.944 139.753 198.839 139.697C198.82 139.686 198.799 139.676 198.778 139.664C198.689 139.616 198.58 139.556 198.457 139.489L194.755 137.432L195.597 136.055L199.716 138.341C199.906 138.414 200.116 138.418 200.309 138.353L203.791 136.406L207.224 134.486L208.184 133.948L210.047 132.907C210.049 132.906 210.051 132.904 210.053 132.902C210.051 132.904 210.049 132.905 210.047 132.907L208.184 133.948L203.036 125.913L205.016 122.673L210.334 130.666V121.642C210.327 121.514 210.289 121.39 210.223 121.279C210.156 121.169 210.063 121.075 209.952 121.007L200.349 115.677C200.234 115.625 200.109 115.598 199.982 115.598C199.855 115.599 199.73 115.627 199.615 115.681C199.585 115.695 190.046 121.023 190.002 121.054C189.902 121.123 189.819 121.213 189.76 121.316C189.7 121.42 189.666 121.535 189.658 121.653L189.671 130.279L188 132.757V121.577C188.019 121.217 188.122 120.866 188.301 120.549C188.481 120.233 188.732 119.96 189.037 119.751C189.154 119.67 189.279 119.599 189.409 119.539C189.409 119.539 198.789 114.29 198.87 114.25C199.217 114.086 199.599 114 199.986 114C200.373 114 200.755 114.086 201.102 114.25L210.83 119.648C211.173 119.855 211.459 120.139 211.662 120.476ZM188.002 133.678L188.001 133.677L188.002 133.678V133.678ZM188.002 133.678L190.63 135.139L199.378 121.601L197.894 121.564C196.629 121.547 195.266 121.864 194.64 122.849L189.673 130.279L188.002 132.757V133.678ZM200.075 130.776L203.791 136.404L207.225 134.484L202.344 127.061L200.075 130.776ZM204.427 121.601L200.514 121.615L191.661 135.711L194.755 137.431L195.596 136.054L204.427 121.601Z" fill="white" fill-opacity="0.48"/>
<path d="M268.236 29.7614V27.2472L275.642 15.5455H277.739V19.125H276.46L271.474 27.0256V27.1619H281.812V29.7614H268.236ZM276.562 33V28.9943L276.597 27.8693V15.5455H279.58V33H276.562ZM290.507 33.3324C289.104 33.3324 287.899 32.9773 286.894 32.267C285.894 31.5511 285.124 30.5199 284.584 29.1733C284.05 27.821 283.783 26.1932 283.783 24.2898C283.788 22.3864 284.058 20.767 284.592 19.4318C285.132 18.0909 285.902 17.0682 286.902 16.3636C287.908 15.6591 289.109 15.3068 290.507 15.3068C291.905 15.3068 293.107 15.6591 294.112 16.3636C295.118 17.0682 295.888 18.0909 296.422 19.4318C296.962 20.7727 297.232 22.392 297.232 24.2898C297.232 26.1989 296.962 27.8295 296.422 29.1818C295.888 30.5284 295.118 31.5568 294.112 32.267C293.112 32.9773 291.911 33.3324 290.507 33.3324ZM290.507 30.6648C291.598 30.6648 292.459 30.1278 293.09 29.054C293.726 27.9744 294.044 26.3864 294.044 24.2898C294.044 22.9034 293.899 21.7386 293.609 20.7955C293.32 19.8523 292.911 19.142 292.382 18.6648C291.854 18.1818 291.229 17.9403 290.507 17.9403C289.422 17.9403 288.564 18.4801 287.933 19.5597C287.303 20.6335 286.984 22.2102 286.979 24.2898C286.973 25.6818 287.112 26.8523 287.396 27.8011C287.686 28.75 288.095 29.4659 288.624 29.9489C289.152 30.4261 289.78 30.6648 290.507 30.6648ZM308.916 29.7273V28.8068C308.916 28.1307 309.058 27.5085 309.342 26.9403C309.632 26.3722 310.052 25.9148 310.603 25.5682C311.154 25.2216 311.822 25.0483 312.606 25.0483C313.413 25.0483 314.089 25.2216 314.634 25.5682C315.18 25.9091 315.592 26.3636 315.87 26.9318C316.154 27.5 316.296 28.125 316.296 28.8068V29.7273C316.296 30.4034 316.154 31.0256 315.87 31.5938C315.586 32.1619 315.169 32.6193 314.617 32.9659C314.072 33.3125 313.402 33.4858 312.606 33.4858C311.811 33.4858 311.137 33.3125 310.586 32.9659C310.035 32.6193 309.617 32.1619 309.333 31.5938C309.055 31.0256 308.916 30.4034 308.916 29.7273ZM311.14 28.8068V29.7273C311.14 30.1761 311.248 30.5881 311.464 30.9631C311.68 31.3381 312.061 31.5256 312.606 31.5256C313.157 31.5256 313.535 31.3409 313.74 30.9716C313.95 30.5966 314.055 30.1818 314.055 29.7273V28.8068C314.055 28.3523 313.955 27.9375 313.757 27.5625C313.558 27.1818 313.174 26.9915 312.606 26.9915C312.072 26.9915 311.694 27.1818 311.473 27.5625C311.251 27.9375 311.14 28.3523 311.14 28.8068ZM300.044 19.7386V18.8182C300.044 18.1364 300.188 17.5114 300.478 16.9432C300.768 16.375 301.188 15.9205 301.74 15.5795C302.291 15.233 302.958 15.0597 303.742 15.0597C304.544 15.0597 305.217 15.233 305.762 15.5795C306.313 15.9205 306.728 16.375 307.007 16.9432C307.285 17.5114 307.424 18.1364 307.424 18.8182V19.7386C307.424 20.4205 307.282 21.0455 306.998 21.6136C306.72 22.1761 306.305 22.6278 305.754 22.9688C305.203 23.3097 304.532 23.4801 303.742 23.4801C302.941 23.4801 302.265 23.3097 301.714 22.9688C301.169 22.6278 300.754 22.1733 300.47 21.6051C300.186 21.0369 300.044 20.4148 300.044 19.7386ZM302.285 18.8182V19.7386C302.285 20.1932 302.39 20.608 302.6 20.983C302.816 21.3523 303.197 21.5369 303.742 21.5369C304.288 21.5369 304.663 21.3523 304.867 20.983C305.078 20.608 305.183 20.1932 305.183 19.7386V18.8182C305.183 18.3636 305.083 17.9489 304.884 17.5739C304.686 17.1932 304.305 17.0028 303.742 17.0028C303.203 17.0028 302.825 17.1932 302.609 17.5739C302.393 17.9545 302.285 18.3693 302.285 18.8182ZM301.015 33L313.015 15.5455H315.146L303.146 33H301.015Z" fill="white"/>
<path d="M275.943 160.239C275.108 160.233 274.293 160.088 273.497 159.804C272.702 159.514 271.986 159.045 271.349 158.398C270.713 157.744 270.207 156.878 269.832 155.798C269.457 154.713 269.273 153.369 269.278 151.767C269.278 150.273 269.438 148.94 269.756 147.77C270.074 146.599 270.531 145.611 271.128 144.804C271.724 143.991 272.443 143.372 273.284 142.946C274.131 142.52 275.077 142.307 276.122 142.307C277.219 142.307 278.19 142.523 279.037 142.955C279.889 143.386 280.577 143.977 281.099 144.727C281.622 145.472 281.946 146.312 282.071 147.25H278.96C278.801 146.58 278.474 146.045 277.98 145.648C277.491 145.244 276.872 145.043 276.122 145.043C274.912 145.043 273.98 145.568 273.327 146.619C272.679 147.67 272.352 149.114 272.347 150.949H272.466C272.744 150.449 273.105 150.02 273.548 149.662C273.991 149.304 274.491 149.028 275.048 148.835C275.611 148.636 276.205 148.537 276.83 148.537C277.852 148.537 278.77 148.781 279.582 149.27C280.401 149.759 281.048 150.432 281.526 151.29C282.003 152.142 282.239 153.119 282.233 154.222C282.239 155.369 281.977 156.401 281.449 157.315C280.92 158.224 280.185 158.94 279.241 159.463C278.298 159.986 277.199 160.244 275.943 160.239ZM275.926 157.682C276.545 157.682 277.099 157.531 277.588 157.23C278.077 156.929 278.463 156.523 278.747 156.011C279.031 155.5 279.17 154.926 279.165 154.29C279.17 153.665 279.034 153.099 278.756 152.594C278.483 152.088 278.105 151.687 277.622 151.392C277.139 151.097 276.588 150.949 275.969 150.949C275.509 150.949 275.08 151.037 274.682 151.213C274.284 151.389 273.938 151.634 273.642 151.946C273.347 152.253 273.114 152.611 272.943 153.02C272.778 153.423 272.693 153.855 272.688 154.315C272.693 154.923 272.835 155.483 273.114 155.994C273.392 156.506 273.776 156.915 274.264 157.222C274.753 157.528 275.307 157.682 275.926 157.682ZM291.085 160.332C289.682 160.332 288.477 159.977 287.472 159.267C286.472 158.551 285.702 157.52 285.162 156.173C284.628 154.821 284.361 153.193 284.361 151.29C284.367 149.386 284.636 147.767 285.171 146.432C285.71 145.091 286.48 144.068 287.48 143.364C288.486 142.659 289.688 142.307 291.085 142.307C292.483 142.307 293.685 142.659 294.69 143.364C295.696 144.068 296.466 145.091 297 146.432C297.54 147.773 297.81 149.392 297.81 151.29C297.81 153.199 297.54 154.83 297 156.182C296.466 157.528 295.696 158.557 294.69 159.267C293.69 159.977 292.489 160.332 291.085 160.332ZM291.085 157.665C292.176 157.665 293.037 157.128 293.668 156.054C294.304 154.974 294.622 153.386 294.622 151.29C294.622 149.903 294.477 148.739 294.188 147.795C293.898 146.852 293.489 146.142 292.96 145.665C292.432 145.182 291.807 144.94 291.085 144.94C290 144.94 289.142 145.48 288.511 146.56C287.881 147.634 287.563 149.21 287.557 151.29C287.551 152.682 287.69 153.852 287.975 154.801C288.264 155.75 288.673 156.466 289.202 156.949C289.73 157.426 290.358 157.665 291.085 157.665ZM309.494 156.727V155.807C309.494 155.131 309.636 154.509 309.92 153.94C310.21 153.372 310.63 152.915 311.181 152.568C311.732 152.222 312.4 152.048 313.184 152.048C313.991 152.048 314.667 152.222 315.213 152.568C315.758 152.909 316.17 153.364 316.448 153.932C316.732 154.5 316.875 155.125 316.875 155.807V156.727C316.875 157.403 316.732 158.026 316.448 158.594C316.164 159.162 315.747 159.619 315.196 159.966C314.65 160.313 313.98 160.486 313.184 160.486C312.389 160.486 311.715 160.313 311.164 159.966C310.613 159.619 310.196 159.162 309.911 158.594C309.633 158.026 309.494 157.403 309.494 156.727ZM311.718 155.807V156.727C311.718 157.176 311.826 157.588 312.042 157.963C312.258 158.338 312.639 158.526 313.184 158.526C313.735 158.526 314.113 158.341 314.318 157.972C314.528 157.597 314.633 157.182 314.633 156.727V155.807C314.633 155.352 314.534 154.938 314.335 154.562C314.136 154.182 313.752 153.991 313.184 153.991C312.65 153.991 312.272 154.182 312.051 154.562C311.829 154.938 311.718 155.352 311.718 155.807ZM300.622 146.739V145.818C300.622 145.136 300.767 144.511 301.056 143.943C301.346 143.375 301.767 142.92 302.318 142.58C302.869 142.233 303.536 142.06 304.321 142.06C305.122 142.06 305.795 142.233 306.34 142.58C306.892 142.92 307.306 143.375 307.585 143.943C307.863 144.511 308.002 145.136 308.002 145.818V146.739C308.002 147.42 307.86 148.045 307.576 148.614C307.298 149.176 306.883 149.628 306.332 149.969C305.781 150.31 305.11 150.48 304.321 150.48C303.519 150.48 302.843 150.31 302.292 149.969C301.747 149.628 301.332 149.173 301.048 148.605C300.764 148.037 300.622 147.415 300.622 146.739ZM302.863 145.818V146.739C302.863 147.193 302.968 147.608 303.178 147.983C303.394 148.352 303.775 148.537 304.321 148.537C304.866 148.537 305.241 148.352 305.446 147.983C305.656 147.608 305.761 147.193 305.761 146.739V145.818C305.761 145.364 305.661 144.949 305.463 144.574C305.264 144.193 304.883 144.003 304.321 144.003C303.781 144.003 303.403 144.193 303.187 144.574C302.971 144.955 302.863 145.369 302.863 145.818ZM301.593 160L313.593 142.545H315.724L303.724 160H301.593Z" fill="white"/>
</g>
<defs>
<filter id="filter0_b_1996_14121" x="-37" y="-20" width="180" height="180" filterUnits="userSpaceOnUse" color-interpolation-filters="sRGB">
<feFlood flood-opacity="0" result="BackgroundImageFix"/>
<feGaussianBlur in="BackgroundImage" stdDeviation="20"/>
<feComposite in2="SourceAlpha" operator="in" result="effect1_backgroundBlur_1996_14121"/>
<feBlend mode="normal" in="SourceGraphic" in2="effect1_backgroundBlur_1996_14121" result="shape"/>
</filter>
<filter id="filter1_b_1996_14121" x="443" y="-20" width="180" height="180" filterUnits="userSpaceOnUse" color-interpolation-filters="sRGB">
<feFlood flood-opacity="0" result="BackgroundImageFix"/>
<feGaussianBlur in="BackgroundImage" stdDeviation="20"/>
<feComposite in2="SourceAlpha" operator="in" result="effect1_backgroundBlur_1996_14121"/>
<feBlend mode="normal" in="SourceGraphic" in2="effect1_backgroundBlur_1996_14121" result="shape"/>
</filter>
<filter id="filter2_b_1996_14121" x="73" y="75" width="180" height="180" filterUnits="userSpaceOnUse" color-interpolation-filters="sRGB">
<feFlood flood-opacity="0" result="BackgroundImageFix"/>
<feGaussianBlur in="BackgroundImage" stdDeviation="20"/>
<feComposite in2="SourceAlpha" operator="in" result="effect1_backgroundBlur_1996_14121"/>
<feBlend mode="normal" in="SourceGraphic" in2="effect1_backgroundBlur_1996_14121" result="shape"/>
</filter>
<filter id="filter3_b_1996_14121" x="333" y="75" width="180" height="180" filterUnits="userSpaceOnUse" color-interpolation-filters="sRGB">
<feFlood flood-opacity="0" result="BackgroundImageFix"/>
<feGaussianBlur in="BackgroundImage" stdDeviation="20"/>
<feComposite in2="SourceAlpha" operator="in" result="effect1_backgroundBlur_1996_14121"/>
<feBlend mode="normal" in="SourceGraphic" in2="effect1_backgroundBlur_1996_14121" result="shape"/>
</filter>
<filter id="filter4_b_1996_14121" x="226" y="132" width="136" height="136" filterUnits="userSpaceOnUse" color-interpolation-filters="sRGB">
<feFlood flood-opacity="0" result="BackgroundImageFix"/>
<feGaussianBlur in="BackgroundImage" stdDeviation="20"/>
<feComposite in2="SourceAlpha" operator="in" result="effect1_backgroundBlur_1996_14121"/>
<feBlend mode="normal" in="SourceGraphic" in2="effect1_backgroundBlur_1996_14121" result="shape"/>
</filter>
<filter id="filter5_b_1996_14121" x="226" y="4" width="136" height="136" filterUnits="userSpaceOnUse" color-interpolation-filters="sRGB">
<feFlood flood-opacity="0" result="BackgroundImageFix"/>
<feGaussianBlur in="BackgroundImage" stdDeviation="20"/>
<feComposite in2="SourceAlpha" operator="in" result="effect1_backgroundBlur_1996_14121"/>
<feBlend mode="normal" in="SourceGraphic" in2="effect1_backgroundBlur_1996_14121" result="shape"/>
</filter>
<filter id="filter6_b_1996_14121" x="434" y="-30" width="124" height="124" filterUnits="userSpaceOnUse" color-interpolation-filters="sRGB">
<feFlood flood-opacity="0" result="BackgroundImageFix"/>
<feGaussianBlur in="BackgroundImage" stdDeviation="20"/>
<feComposite in2="SourceAlpha" operator="in" result="effect1_backgroundBlur_1996_14121"/>
<feBlend mode="normal" in="SourceGraphic" in2="effect1_backgroundBlur_1996_14121" result="shape"/>
</filter>
<filter id="filter7_b_1996_14121" x="323" y="65" width="124" height="124" filterUnits="userSpaceOnUse" color-interpolation-filters="sRGB">
<feFlood flood-opacity="0" result="BackgroundImageFix"/>
<feGaussianBlur in="BackgroundImage" stdDeviation="20"/>
<feComposite in2="SourceAlpha" operator="in" result="effect1_backgroundBlur_1996_14121"/>
<feBlend mode="normal" in="SourceGraphic" in2="effect1_backgroundBlur_1996_14121" result="shape"/>
</filter>
<filter id="filter8_b_1996_14121" x="29" y="-30" width="124" height="124" filterUnits="userSpaceOnUse" color-interpolation-filters="sRGB">
<feFlood flood-opacity="0" result="BackgroundImageFix"/>
<feGaussianBlur in="BackgroundImage" stdDeviation="20"/>
<feComposite in2="SourceAlpha" operator="in" result="effect1_backgroundBlur_1996_14121"/>
<feBlend mode="normal" in="SourceGraphic" in2="effect1_backgroundBlur_1996_14121" result="shape"/>
</filter>
<filter id="filter9_b_1996_14121" x="138" y="65" width="124" height="124" filterUnits="userSpaceOnUse" color-interpolation-filters="sRGB">
<feFlood flood-opacity="0" result="BackgroundImageFix"/>
<feGaussianBlur in="BackgroundImage" stdDeviation="20"/>
<feComposite in2="SourceAlpha" operator="in" result="effect1_backgroundBlur_1996_14121"/>
<feBlend mode="normal" in="SourceGraphic" in2="effect1_backgroundBlur_1996_14121" result="shape"/>
</filter>
<linearGradient id="paint0_linear_1996_14121" x1="300" y1="120" x2="300" y2="240" gradientUnits="userSpaceOnUse">
<stop stop-color="#090A0C"/>
<stop offset="1" stop-color="#090A0C" stop-opacity="0"/>
</linearGradient>
<linearGradient id="paint1_linear_1996_14121" x1="300" y1="120" x2="600" y2="120" gradientUnits="userSpaceOnUse">
<stop stop-color="#090A0C"/>
<stop offset="1" stop-color="#090A0C" stop-opacity="0"/>
</linearGradient>
<linearGradient id="paint2_linear_1996_14121" x1="53.7998" y1="66.9248" x2="533.006" y2="65.4872" gradientUnits="userSpaceOnUse">
<stop stop-color="#00FF60" stop-opacity="0"/>
<stop offset="1" stop-color="#00FF60"/>
</linearGradient>
<linearGradient id="paint3_linear_1996_14121" x1="53" y1="72" x2="459.591" y2="-86.7115" gradientUnits="userSpaceOnUse">
<stop stop-color="#00FF60" stop-opacity="0"/>
<stop offset="1" stop-color="#00FF60"/>
</linearGradient>
<linearGradient id="paint4_linear_1996_14121" x1="52.6885" y1="72.1189" x2="459.279" y2="-86.5926" gradientUnits="userSpaceOnUse">
<stop stop-color="#00FF60" stop-opacity="0"/>
<stop offset="1" stop-color="#00FF60"/>
</linearGradient>
<linearGradient id="paint5_linear_1996_14121" x1="331" y1="62.1189" x2="411" y2="62.1189" gradientUnits="userSpaceOnUse">
<stop stop-color="#00FF60" stop-opacity="0"/>
<stop offset="0.508704" stop-color="#00FF60"/>
<stop offset="1" stop-color="#00FF60" stop-opacity="0"/>
</linearGradient>
<linearGradient id="paint6_linear_1996_14121" x1="53" y1="75" x2="53" y2="124" gradientUnits="userSpaceOnUse">
<stop offset="0.0365062" stop-color="white" stop-opacity="0"/>
<stop offset="1" stop-color="white"/>
</linearGradient>
<linearGradient id="paint7_linear_1996_14121" x1="163" y1="170" x2="163" y2="219" gradientUnits="userSpaceOnUse">
<stop offset="0.0365062" stop-color="white" stop-opacity="0"/>
<stop offset="1" stop-color="white"/>
</linearGradient>
<linearGradient id="paint8_linear_1996_14121" x1="423" y1="170" x2="423" y2="219" gradientUnits="userSpaceOnUse">
<stop offset="0.0365062" stop-color="white" stop-opacity="0"/>
<stop offset="1" stop-color="white"/>
</linearGradient>
<linearGradient id="paint9_linear_1996_14121" x1="533" y1="75" x2="533" y2="124" gradientUnits="userSpaceOnUse">
<stop offset="0.0365062" stop-color="#00FF60" stop-opacity="0"/>
<stop offset="1" stop-color="#00FF60"/>
</linearGradient>
<radialGradient id="paint10_radial_1996_14121" cx="0" cy="0" r="1" gradientUnits="userSpaceOnUse" gradientTransform="translate(533 70) rotate(90) scale(70)">
<stop offset="0.864483" stop-color="#00FF60" stop-opacity="0"/>
<stop offset="0.864583" stop-color="#00FF60" stop-opacity="0.24"/>
<stop offset="1" stop-color="#00FF60" stop-opacity="0"/>
</radialGradient>
</defs>
</svg>
