<svg width="300" height="120" viewBox="0 0 300 120" fill="none" xmlns="http://www.w3.org/2000/svg">
<mask id="mask0_1930_8909" style="mask-type:alpha" maskUnits="userSpaceOnUse" x="0" y="0" width="300" height="120">
<mask id="mask1_1930_8909" style="mask-type:alpha" maskUnits="userSpaceOnUse" x="0" y="0" width="300" height="120">
<rect width="300" height="120" fill="url(#paint0_linear_1930_8909)"/>
</mask>
<g mask="url(#mask1_1930_8909)">
<rect width="300" height="120" fill="url(#paint1_linear_1930_8909)"/>
</g>
</mask>
<g mask="url(#mask0_1930_8909)">
<rect y="24" width="112" height="72" rx="16" fill="white" fill-opacity="0.02"/>
<path opacity="0.6" d="M24.224 50.472V70.656H26.072V52.296H38.048V70.56H39.944V50.472H24.224ZM25.448 58.8V60.576H38.84V58.8H25.448ZM25.424 67.296V69.096H38.888V67.296H25.424ZM45.056 53.904V55.728H66.008V53.904H45.056ZM49.856 64.608V66.432H61.04V64.608H49.856ZM54.536 48.864V70.92H56.432V48.864H54.536ZM53.984 54.504C52.064 59.112 48.248 63.576 44.24 65.664C44.648 66.024 45.248 66.696 45.536 67.152C49.688 64.728 53.456 60.144 55.592 55.056L53.984 54.504ZM57.032 54.576L55.424 55.128C57.536 60.168 61.232 64.752 65.48 67.104C65.768 66.6 66.392 65.88 66.848 65.496C62.696 63.504 58.928 59.136 57.032 54.576ZM78.536 62.28V70.92H80.24V63.936H86.936V70.824H88.688V62.28H78.536ZM77.888 53.784V55.368H86.288V59.664H88.04V53.784H77.888ZM81.344 50.352C80.96 53.256 80.288 57.288 79.736 59.664H81.512C82.016 57.384 82.688 53.448 83.12 50.496L81.344 50.352ZM77.504 49.752V51.312H89.384V49.752H77.504ZM76.784 58.848V60.456H90.152V58.848H76.784ZM79.304 68.184V69.816H87.896V68.184H79.304ZM69.08 56.256V57.672H75.848V56.256H69.08ZM69.224 49.704V51.144H75.824V49.704H69.224ZM69.08 59.52V60.96H75.848V59.52H69.08ZM67.952 52.92V54.408H76.688V52.92H67.952ZM69.944 62.808V64.32H74.36V68.328H69.944V69.816H75.944V62.808H69.944ZM69.056 62.808V70.92H70.616V62.808H69.056Z" fill="white"/>
<rect x="1" y="25" width="110" height="70" rx="15" stroke="white" stroke-opacity="0.08" stroke-width="2"/>
<rect x="120" y="24" width="120" height="72" rx="16" fill="#00FF60" fill-opacity="0.08"/>
<path opacity="0.6" d="M141.918 69V51.5455H152.861V53.8125H144.551V59.1307H152.29V61.3892H144.551V66.733H152.963V69H141.918ZM158.242 61.2273V69H155.694V55.9091H158.14V58.0398H158.302C158.603 57.3466 159.075 56.7898 159.717 56.3693C160.364 55.9489 161.18 55.7386 162.163 55.7386C163.055 55.7386 163.836 55.9261 164.507 56.3011C165.177 56.6705 165.697 57.2216 166.066 57.9545C166.435 58.6875 166.62 59.5937 166.62 60.6733V69H164.072V60.9801C164.072 60.0312 163.825 59.2898 163.33 58.7557C162.836 58.2159 162.157 57.946 161.293 57.946C160.703 57.946 160.177 58.0739 159.717 58.3295C159.262 58.5852 158.901 58.9602 158.634 59.4545C158.373 59.9432 158.242 60.5341 158.242 61.2273ZM175.046 74.1818C174.007 74.1818 173.112 74.0455 172.362 73.7727C171.617 73.5 171.009 73.1392 170.538 72.6903C170.066 72.2415 169.714 71.75 169.481 71.2159L171.671 70.3125C171.825 70.5625 172.029 70.8267 172.285 71.1051C172.546 71.3892 172.899 71.6307 173.342 71.8295C173.791 72.0284 174.367 72.1278 175.072 72.1278C176.038 72.1278 176.836 71.892 177.467 71.4205C178.098 70.9545 178.413 70.2102 178.413 69.1875V66.6136H178.251C178.098 66.892 177.876 67.2017 177.586 67.5426C177.302 67.8835 176.91 68.179 176.41 68.429C175.91 68.679 175.259 68.804 174.458 68.804C173.424 68.804 172.492 68.5625 171.663 68.0795C170.839 67.5909 170.186 66.8722 169.703 65.9233C169.225 64.9687 168.987 63.7955 168.987 62.4034C168.987 61.0114 169.223 59.8182 169.694 58.8239C170.171 57.8295 170.825 57.0682 171.654 56.5398C172.484 56.0057 173.424 55.7386 174.475 55.7386C175.288 55.7386 175.944 55.875 176.444 56.1477C176.944 56.4148 177.333 56.7273 177.612 57.0852C177.896 57.4432 178.115 57.7585 178.268 58.0312H178.455V55.9091H180.953V69.2898C180.953 70.4148 180.691 71.3381 180.169 72.0597C179.646 72.7813 178.938 73.3153 178.046 73.6619C177.16 74.0085 176.16 74.1818 175.046 74.1818ZM175.021 66.6903C175.754 66.6903 176.373 66.5199 176.879 66.179C177.39 65.8324 177.777 65.3381 178.038 64.696C178.305 64.0483 178.438 63.2727 178.438 62.3693C178.438 61.4886 178.308 60.7131 178.046 60.0426C177.785 59.3722 177.402 58.8494 176.896 58.4744C176.39 58.0937 175.765 57.9034 175.021 57.9034C174.254 57.9034 173.615 58.1023 173.103 58.5C172.592 58.892 172.205 59.4261 171.944 60.1023C171.688 60.7784 171.561 61.5341 171.561 62.3693C171.561 63.2273 171.691 63.9801 171.953 64.6278C172.214 65.2756 172.6 65.7812 173.112 66.1449C173.629 66.5085 174.265 66.6903 175.021 66.6903ZM186.439 51.5455V69H183.89V51.5455H186.439ZM189.387 69V55.9091H191.935V69H189.387ZM190.674 53.8892C190.231 53.8892 189.85 53.7415 189.532 53.446C189.219 53.1449 189.063 52.7869 189.063 52.3722C189.063 51.9517 189.219 51.5937 189.532 51.2983C189.85 50.9972 190.231 50.8466 190.674 50.8466C191.117 50.8466 191.495 50.9972 191.807 51.2983C192.125 51.5937 192.285 51.9517 192.285 52.3722C192.285 52.7869 192.125 53.1449 191.807 53.446C191.495 53.7415 191.117 53.8892 190.674 53.8892ZM204.693 59.1051L202.383 59.5142C202.287 59.2187 202.133 58.9375 201.923 58.6705C201.719 58.4034 201.44 58.1847 201.088 58.0142C200.736 57.8437 200.295 57.7585 199.767 57.7585C199.045 57.7585 198.443 57.9205 197.96 58.2443C197.477 58.5625 197.236 58.9744 197.236 59.4801C197.236 59.9176 197.398 60.2699 197.721 60.5369C198.045 60.804 198.568 61.0227 199.29 61.1932L201.369 61.6705C202.574 61.9489 203.471 62.3778 204.062 62.9574C204.653 63.5369 204.949 64.2898 204.949 65.2159C204.949 66 204.721 66.6989 204.267 67.3125C203.818 67.9205 203.19 68.3977 202.383 68.7443C201.582 69.0909 200.653 69.2642 199.596 69.2642C198.131 69.2642 196.935 68.9517 196.008 68.3267C195.082 67.696 194.514 66.8011 194.304 65.642L196.767 65.267C196.92 65.9091 197.236 66.3949 197.713 66.7244C198.19 67.0483 198.812 67.2102 199.579 67.2102C200.415 67.2102 201.082 67.0369 201.582 66.6903C202.082 66.3381 202.332 65.9091 202.332 65.4034C202.332 64.9943 202.179 64.6506 201.872 64.3722C201.571 64.0937 201.108 63.8835 200.483 63.7415L198.267 63.2557C197.045 62.9773 196.142 62.5341 195.557 61.9261C194.977 61.3182 194.687 60.5483 194.687 59.6165C194.687 58.8437 194.903 58.1676 195.335 57.5881C195.767 57.0085 196.363 56.5568 197.125 56.233C197.886 55.9034 198.758 55.7386 199.741 55.7386C201.156 55.7386 202.27 56.0455 203.082 56.6591C203.895 57.267 204.432 58.0824 204.693 59.1051ZM209.819 61.2273V69H207.271V51.5455H209.785V58.0398H209.947C210.254 57.3352 210.722 56.7756 211.353 56.3608C211.984 55.946 212.808 55.7386 213.825 55.7386C214.722 55.7386 215.506 55.9233 216.177 56.2926C216.853 56.6619 217.376 57.2131 217.745 57.946C218.12 58.6733 218.308 59.5824 218.308 60.6733V69H215.759V60.9801C215.759 60.0199 215.512 59.2756 215.018 58.7472C214.523 58.2131 213.836 57.946 212.955 57.946C212.353 57.946 211.813 58.0739 211.336 58.3295C210.864 58.5852 210.492 58.9602 210.219 59.4545C209.952 59.9432 209.819 60.5341 209.819 61.2273Z" fill="#00FF60"/>
<rect x="121" y="25" width="118" height="70" rx="15" stroke="#00FF60" stroke-opacity="0.48" stroke-width="2"/>
<rect x="248" y="24" width="135" height="72" rx="16" fill="white" fill-opacity="0.02"/>
<path opacity="0.6" d="M272.56 50.448V52.776H279.952V50.448H272.56ZM281.848 50.448V52.8H290.8V50.448H281.848ZM272.488 48.48C271.696 50.616 270.304 52.776 268.72 54.12C269.368 54.456 270.52 55.2 271.072 55.656C272.608 54.12 274.216 51.648 275.176 49.176L272.488 48.48ZM282.28 48.528C281.704 50.544 280.6 52.536 279.28 53.808C279.952 54.144 281.104 54.888 281.632 55.368C282.952 53.88 284.248 51.528 284.992 49.176L282.28 48.528ZM273.856 52.272C274.504 53.328 275.224 54.768 275.488 55.68L277.984 54.624C277.648 53.736 276.856 52.344 276.184 51.336L273.856 52.272ZM284.128 52.152C284.92 53.256 285.808 54.744 286.144 55.68L288.616 54.552C288.208 53.592 287.248 52.176 286.456 51.144L284.128 52.152ZM276.712 63.048V65.016H283.288V63.048H276.712ZM270.112 58.296V71.136H272.92V58.296H270.112ZM276.52 55.8V58.344H288.88V55.8H276.52ZM271.336 56.328C272.296 57.216 273.424 58.512 273.88 59.352L276.112 57.792C275.584 56.928 274.432 55.728 273.448 54.888L271.336 56.328ZM287.152 55.8V68.088C287.152 68.424 287.032 68.52 286.648 68.544C286.312 68.568 284.992 68.568 283.912 68.496C284.272 69.168 284.632 70.224 284.752 70.944C286.576 70.968 287.872 70.92 288.784 70.536C289.696 70.128 289.984 69.48 289.984 68.112V55.8H287.152ZM278.032 61.824H282.112V66.312H278.032V61.824ZM275.608 59.712V68.4H284.656V59.712H275.608ZM296.824 48.72C295.72 52.128 293.848 55.536 291.832 57.744C292.336 58.44 293.128 60.048 293.392 60.72C295.84 57.96 298.12 53.616 299.536 49.536L296.824 48.72ZM294.88 55.344V71.136H297.616V52.632L297.592 52.608L294.88 55.344ZM305.104 48.744V70.992H307.912V48.744H305.104ZM299.008 52.896V55.632H314.56V52.896H299.008ZM301.936 64.536V67.104H311.128V64.536H301.936ZM308.92 54.432L306.88 55.032C308.2 59.76 310.432 64.68 313.072 67.56C313.576 66.792 314.536 65.808 315.208 65.304C312.616 62.856 310.192 58.512 308.92 54.432ZM304.216 54.216C302.944 58.488 300.472 63 297.736 65.448C298.36 65.928 299.32 66.936 299.776 67.632C302.632 64.704 304.912 59.76 306.28 54.792L304.216 54.216ZM317.128 52.8V64.968H320.032V55.632H333.952V64.848H336.976V52.8H317.128ZM318.64 60.792V63.624H335.632V60.792H318.64ZM325.456 48.624V71.16H328.504V48.624H325.456ZM355.144 53.976C352.648 61.8 347.488 66.24 339.184 68.424C339.76 69.12 340.672 70.512 341.008 71.232C349.6 68.544 355.192 63.504 358.216 54.864L355.144 53.976ZM345.88 54.168L343 55.032C346 63.336 350.944 68.832 359.944 71.184C360.4 70.344 361.336 68.976 362.032 68.304C353.488 66.384 348.304 61.272 345.88 54.168ZM339.616 52.416V55.248H361.6V52.416H339.616ZM349.048 48.624V54.144H352.024V48.624H349.048Z" fill="white"/>
<rect x="249" y="25" width="133" height="70" rx="15" stroke="white" stroke-opacity="0.08" stroke-width="2"/>
</g>
<defs>
<linearGradient id="paint0_linear_1930_8909" x1="150" y1="60" x2="150" y2="120" gradientUnits="userSpaceOnUse">
<stop stop-color="#090A0C"/>
<stop offset="1" stop-color="#090A0C" stop-opacity="0"/>
</linearGradient>
<linearGradient id="paint1_linear_1930_8909" x1="150" y1="60" x2="300" y2="60" gradientUnits="userSpaceOnUse">
<stop stop-color="#090A0C"/>
<stop offset="1" stop-color="#090A0C" stop-opacity="0"/>
</linearGradient>
</defs>
</svg>
