<svg width="300" height="120" viewBox="0 0 300 120" fill="none" xmlns="http://www.w3.org/2000/svg">
<mask id="mask0_1965_8958" style="mask-type:alpha" maskUnits="userSpaceOnUse" x="0" y="0" width="300" height="120">
<mask id="mask1_1965_8958" style="mask-type:alpha" maskUnits="userSpaceOnUse" x="0" y="0" width="300" height="120">
<rect width="300" height="120" fill="url(#paint0_linear_1965_8958)"/>
</mask>
<g mask="url(#mask1_1965_8958)">
<rect width="300" height="120" fill="url(#paint1_linear_1965_8958)"/>
</g>
</mask>
<g mask="url(#mask0_1965_8958)">
<path fill-rule="evenodd" clip-rule="evenodd" d="M83.6985 1.34676L16 15.6972L16.0004 15.6973H105.982C105.922 10.861 105.65 8.01989 104.413 5.85934C103.022 3.42854 100.824 1.56104 98.2005 0.580393C95.2109 -0.537058 91.3734 0.0908804 83.6985 1.34676Z" fill="#00FF60" fill-opacity="0.08"/>
<path fill-rule="evenodd" clip-rule="evenodd" d="M121.677 43.6973C122.731 43.6972 123.641 43.6972 124.39 43.7584C125.181 43.823 125.967 43.9656 126.724 44.3512C127.853 44.9265 128.771 45.8444 129.346 46.9733C129.732 47.7301 129.874 48.5165 129.939 49.3072C130 50.0563 130 50.9659 130 52.0201V63.3744C130 64.4287 130 65.3382 129.939 66.0873C129.874 66.878 129.732 67.6645 129.346 68.4212C128.771 69.5502 127.853 70.4681 126.724 71.0433C125.967 71.4289 125.181 71.5715 124.39 71.6361C123.641 71.6973 122.731 71.6973 121.677 71.6973H96.323C95.2686 71.6973 94.3591 71.6973 93.6099 71.6361C92.8193 71.5715 92.0328 71.4289 91.2761 71.0433C90.1471 70.4681 89.2292 69.5502 88.654 68.4212C88.2684 67.6645 88.1257 66.878 88.0611 66.0873C87.9999 65.3382 88 64.4287 88 63.3744V52.0202C88 50.9659 87.9999 50.0564 88.0611 49.3072C88.1257 48.5165 88.2684 47.7301 88.654 46.9733C89.2292 45.8444 90.1471 44.9265 91.2761 44.3512C92.0328 43.9656 92.8193 43.823 93.6099 43.7584C94.3591 43.6972 95.2686 43.6972 96.3229 43.6973H121.677ZM90.436 47.8813C90 48.737 90 49.8571 90 52.0973V63.2973C90 65.5375 90 66.6576 90.436 67.5132C90.8195 68.2659 91.4314 68.8778 92.184 69.2613C93.0397 69.6973 94.1598 69.6973 96.4 69.6973H121.6C123.84 69.6973 124.96 69.6973 125.816 69.2613C126.569 68.8778 127.181 68.2659 127.564 67.5132C128 66.6576 128 65.5375 128 63.2973V52.0973C128 49.8571 128 48.737 127.564 47.8813C127.181 47.1287 126.569 46.5167 125.816 46.1332C124.96 45.6973 123.84 45.6973 121.6 45.6973H96.4C94.1598 45.6973 93.0397 45.6973 92.184 46.1332C91.4314 46.5167 90.8195 47.1287 90.436 47.8813Z" fill="#00FF60" fill-opacity="0.48"/>
<path fill-rule="evenodd" clip-rule="evenodd" d="M2 36.8973C2 30.1766 2 26.8163 3.30792 24.2494C4.4584 21.9914 6.29417 20.1557 8.55211 19.0052C11.1191 17.6973 14.4794 17.6973 21.2 17.6973H102.8C109.521 17.6973 112.881 17.6973 115.448 19.0052C117.706 20.1557 119.542 21.9914 120.692 24.2494C122 26.8163 122 30.1766 122 36.8973V43.6973C121.894 43.6973 121.786 43.6973 121.677 43.6973H96.3229C95.2686 43.6972 94.3591 43.6972 93.6099 43.7584C92.8193 43.823 92.0328 43.9656 91.2761 44.3512C90.1471 44.9265 89.2292 45.8444 88.654 46.9733C88.2684 47.7301 88.1257 48.5165 88.0611 49.3072C87.9999 50.0562 88 50.9655 88 52.0196V52.0202V63.3744V63.375C88 64.429 87.9999 65.3383 88.0611 66.0873C88.1257 66.878 88.2684 67.6645 88.654 68.4212C89.2292 69.5502 90.1471 70.4681 91.2761 71.0433C92.0328 71.4289 92.8193 71.5715 93.6099 71.6361C94.359 71.6973 95.2685 71.6973 96.3227 71.6973H96.323H121.677H121.677C121.786 71.6973 121.894 71.6973 122 71.6972V78.4973C122 85.2179 122 88.5782 120.692 91.1451C119.542 93.4031 117.706 95.2389 115.448 96.3893C112.881 97.6973 109.521 97.6973 102.8 97.6973H21.2C14.4794 97.6973 11.1191 97.6973 8.55211 96.3893C6.29417 95.2389 4.4584 93.4031 3.30792 91.1451C2 88.5782 2 85.2179 2 78.4973V36.8973Z" fill="#00FF60" fill-opacity="0.08"/>
<path fill-rule="evenodd" clip-rule="evenodd" d="M102.889 15.6973H102.889C106.174 15.6973 108.762 15.6972 110.844 15.8674C112.969 16.041 114.743 16.4016 116.356 17.2232C118.99 18.5654 121.132 20.7071 122.474 23.3414C123.296 24.9538 123.656 26.7281 123.83 28.8528C124 30.9354 124 33.5231 124 36.808V36.8082V36.8084V43.7325C123.415 43.7016 122.746 43.6978 122 43.6973V36.8973C122 30.1766 122 26.8163 120.692 24.2494C119.542 21.9914 117.706 20.1557 115.448 19.0052C112.881 17.6973 109.521 17.6973 102.8 17.6973H21.2C14.4794 17.6973 11.1191 17.6973 8.55211 19.0052C6.29417 20.1557 4.4584 21.9914 3.30792 24.2494C2 26.8163 2 30.1766 2 36.8973V78.4973C2 85.2179 2 88.5782 3.30792 91.1451C4.4584 93.4031 6.29417 95.2389 8.55211 96.3893C11.1191 97.6973 14.4794 97.6973 21.2 97.6973H102.8C109.521 97.6973 112.881 97.6973 115.448 96.3893C117.706 95.2389 119.542 93.4031 120.692 91.1451C122 88.5782 122 85.2179 122 78.4973V71.6972C122.746 71.6968 123.415 71.6929 124 71.662V78.5861V78.5863V78.5865C124 81.8714 124 84.4592 123.83 86.5417C123.656 88.6664 123.296 90.4407 122.474 92.0531C121.132 94.6874 118.99 96.8291 116.356 98.1714C114.743 98.9929 112.969 99.3535 110.844 99.5271C108.762 99.6973 106.174 99.6973 102.889 99.6973H21.1111C17.8261 99.6973 15.2382 99.6973 13.1556 99.5271C11.0309 99.3535 9.25654 98.9929 7.64413 98.1714C5.00986 96.8291 2.86814 94.6874 1.52591 92.0531C0.704349 90.4407 0.34373 88.6664 0.170135 86.5417C-2.24585e-05 84.4591 -1.22091e-05 81.8712 2.11762e-07 78.5861V36.8084V36.8084C-1.22091e-05 33.5233 -2.1991e-05 30.9354 0.170135 28.8528C0.34373 26.7281 0.704349 24.9538 1.52591 23.3414C2.86814 20.7071 5.00986 18.5654 7.64413 17.2232C9.25654 16.4016 11.0309 16.041 13.1556 15.8674C15.2382 15.6972 17.8261 15.6973 21.1111 15.6973H21.1112H102.889Z" fill="#00FF60" fill-opacity="0.48"/>
<path d="M90 52.0973C90 49.8571 90 48.737 90.436 47.8813C90.8195 47.1287 91.4314 46.5167 92.184 46.1332C93.0397 45.6973 94.1598 45.6973 96.4 45.6973H121.6C123.84 45.6973 124.96 45.6973 125.816 46.1332C126.569 46.5167 127.181 47.1287 127.564 47.8813C128 48.737 128 49.8571 128 52.0973V63.2973C128 65.5375 128 66.6576 127.564 67.5132C127.181 68.2659 126.569 68.8778 125.816 69.2613C124.96 69.6973 123.84 69.6973 121.6 69.6973H96.4C94.1598 69.6973 93.0397 69.6973 92.184 69.2613C91.4314 68.8778 90.8195 68.2659 90.436 67.5132C90 66.6576 90 65.5375 90 63.2973V52.0973Z" fill="#00FF60" fill-opacity="0.08"/>
<circle cx="102" cy="57.6973" r="6" fill="#00FF60" fill-opacity="0.08"/>
<circle cx="102" cy="57.6973" r="5" stroke="#00FF60" stroke-opacity="0.48" stroke-width="2"/>
<path fill-rule="evenodd" clip-rule="evenodd" d="M16.0004 15.6973L16 15.6972L83.6985 1.34676C91.3734 0.0908804 95.2109 -0.537058 98.2005 0.580393C100.824 1.56104 103.022 3.42854 104.413 5.85934C105.65 8.01989 105.922 10.861 105.982 15.6973H103.982C103.956 13.6337 103.892 11.9996 103.735 10.6447C103.534 8.89671 103.192 7.7522 102.678 6.85292C101.518 4.82726 99.6866 3.27101 97.5003 2.4538C96.3979 2.04177 95.0253 1.90305 92.8581 2.06782C90.6721 2.23402 87.894 2.68683 84.0215 3.32051L26.3838 15.6973H16.0004Z" fill="#00FF60" fill-opacity="0.48"/>
<mask id="mask2_1965_8958" style="mask-type:alpha" maskUnits="userSpaceOnUse" x="130" y="-20" width="130" height="120">
<rect x="130" y="-20" width="130" height="120" fill="url(#paint2_linear_1965_8958)"/>
</mask>
<g mask="url(#mask2_1965_8958)">
<path fill-rule="evenodd" clip-rule="evenodd" d="M213.698 1.34676L146 15.6972L146 15.6973H235.982C235.922 10.861 235.65 8.01989 234.413 5.85934C233.022 3.42854 230.824 1.56104 228.2 0.580393C225.211 -0.537058 221.373 0.0908804 213.698 1.34676Z" fill="white" fill-opacity="0.08"/>
<path fill-rule="evenodd" clip-rule="evenodd" d="M251.677 43.6973C252.731 43.6972 253.641 43.6972 254.39 43.7584C255.181 43.823 255.967 43.9656 256.724 44.3512C257.853 44.9265 258.771 45.8444 259.346 46.9733C259.732 47.7301 259.874 48.5165 259.939 49.3072C260 50.0563 260 50.9659 260 52.0201V63.3744C260 64.4287 260 65.3382 259.939 66.0873C259.874 66.878 259.732 67.6645 259.346 68.4212C258.771 69.5502 257.853 70.4681 256.724 71.0433C255.967 71.4289 255.181 71.5715 254.39 71.6361C253.641 71.6973 252.731 71.6973 251.677 71.6973H226.323C225.269 71.6973 224.359 71.6973 223.61 71.6361C222.819 71.5715 222.033 71.4289 221.276 71.0433C220.147 70.4681 219.229 69.5502 218.654 68.4212C218.268 67.6645 218.126 66.878 218.061 66.0873C218 65.3382 218 64.4287 218 63.3744V52.0202C218 50.9659 218 50.0564 218.061 49.3072C218.126 48.5165 218.268 47.7301 218.654 46.9733C219.229 45.8444 220.147 44.9265 221.276 44.3512C222.033 43.9656 222.819 43.823 223.61 43.7584C224.359 43.6972 225.269 43.6972 226.323 43.6973H251.677ZM220.436 47.8813C220 48.737 220 49.8571 220 52.0973V63.2973C220 65.5375 220 66.6576 220.436 67.5132C220.819 68.2659 221.431 68.8778 222.184 69.2613C223.04 69.6973 224.16 69.6973 226.4 69.6973H251.6C253.84 69.6973 254.96 69.6973 255.816 69.2613C256.569 68.8778 257.181 68.2659 257.564 67.5132C258 66.6576 258 65.5375 258 63.2973V52.0973C258 49.8571 258 48.737 257.564 47.8813C257.181 47.1287 256.569 46.5167 255.816 46.1332C254.96 45.6973 253.84 45.6973 251.6 45.6973H226.4C224.16 45.6973 223.04 45.6973 222.184 46.1332C221.431 46.5167 220.819 47.1287 220.436 47.8813Z" fill="white" fill-opacity="0.48"/>
<path fill-rule="evenodd" clip-rule="evenodd" d="M132 36.8973C132 30.1766 132 26.8163 133.308 24.2494C134.458 21.9914 136.294 20.1557 138.552 19.0052C141.119 17.6973 144.479 17.6973 151.2 17.6973H232.8C239.521 17.6973 242.881 17.6973 245.448 19.0052C247.706 20.1557 249.542 21.9914 250.692 24.2494C252 26.8163 252 30.1766 252 36.8973V43.6973C251.894 43.6973 251.786 43.6973 251.677 43.6973H226.323C225.269 43.6972 224.359 43.6972 223.61 43.7584C222.819 43.823 222.033 43.9656 221.276 44.3512C220.147 44.9265 219.229 45.8444 218.654 46.9733C218.268 47.7301 218.126 48.5165 218.061 49.3072C218 50.0562 218 50.9655 218 52.0196V52.0202V63.3744V63.375C218 64.429 218 65.3383 218.061 66.0873C218.126 66.878 218.268 67.6645 218.654 68.4212C219.229 69.5502 220.147 70.4681 221.276 71.0433C222.033 71.4289 222.819 71.5715 223.61 71.6361C224.359 71.6973 225.269 71.6973 226.323 71.6973H226.323H251.677H251.677C251.786 71.6973 251.894 71.6973 252 71.6972V78.4973C252 85.2179 252 88.5782 250.692 91.1451C249.542 93.4031 247.706 95.2389 245.448 96.3893C242.881 97.6973 239.521 97.6973 232.8 97.6973H151.2C144.479 97.6973 141.119 97.6973 138.552 96.3893C136.294 95.2389 134.458 93.4031 133.308 91.1451C132 88.5782 132 85.2179 132 78.4973V36.8973Z" fill="white" fill-opacity="0.08"/>
<path fill-rule="evenodd" clip-rule="evenodd" d="M232.889 15.6973H232.889C236.174 15.6973 238.762 15.6972 240.844 15.8674C242.969 16.041 244.743 16.4016 246.356 17.2232C248.99 18.5654 251.132 20.7071 252.474 23.3414C253.296 24.9538 253.656 26.7281 253.83 28.8528C254 30.9354 254 33.5231 254 36.808V36.8082V36.8084V43.7325C253.415 43.7016 252.746 43.6978 252 43.6973V36.8973C252 30.1766 252 26.8163 250.692 24.2494C249.542 21.9914 247.706 20.1557 245.448 19.0052C242.881 17.6973 239.521 17.6973 232.8 17.6973H151.2C144.479 17.6973 141.119 17.6973 138.552 19.0052C136.294 20.1557 134.458 21.9914 133.308 24.2494C132 26.8163 132 30.1766 132 36.8973V78.4973C132 85.2179 132 88.5782 133.308 91.1451C134.458 93.4031 136.294 95.2389 138.552 96.3893C141.119 97.6973 144.479 97.6973 151.2 97.6973H232.8C239.521 97.6973 242.881 97.6973 245.448 96.3893C247.706 95.2389 249.542 93.4031 250.692 91.1451C252 88.5782 252 85.2179 252 78.4973V71.6972C252.746 71.6968 253.415 71.6929 254 71.662V78.5861V78.5863V78.5865C254 81.8714 254 84.4592 253.83 86.5417C253.656 88.6664 253.296 90.4407 252.474 92.0531C251.132 94.6874 248.99 96.8291 246.356 98.1714C244.743 98.9929 242.969 99.3535 240.844 99.5271C238.762 99.6973 236.174 99.6973 232.889 99.6973H151.111C147.826 99.6973 145.238 99.6973 143.156 99.5271C141.031 99.3535 139.257 98.9929 137.644 98.1714C135.01 96.8291 132.868 94.6874 131.526 92.0531C130.704 90.4407 130.344 88.6664 130.17 86.5417C130 84.4591 130 81.8712 130 78.5861V36.8084V36.8084C130 33.5233 130 30.9354 130.17 28.8528C130.344 26.7281 130.704 24.9538 131.526 23.3414C132.868 20.7071 135.01 18.5654 137.644 17.2232C139.257 16.4016 141.031 16.041 143.156 15.8674C145.238 15.6972 147.826 15.6973 151.111 15.6973H151.111H232.889Z" fill="white" fill-opacity="0.48"/>
<path d="M220 52.0973C220 49.8571 220 48.737 220.436 47.8813C220.819 47.1287 221.431 46.5167 222.184 46.1332C223.04 45.6973 224.16 45.6973 226.4 45.6973H251.6C253.84 45.6973 254.96 45.6973 255.816 46.1332C256.569 46.5167 257.181 47.1287 257.564 47.8813C258 48.737 258 49.8571 258 52.0973V63.2973C258 65.5375 258 66.6576 257.564 67.5132C257.181 68.2659 256.569 68.8778 255.816 69.2613C254.96 69.6973 253.84 69.6973 251.6 69.6973H226.4C224.16 69.6973 223.04 69.6973 222.184 69.2613C221.431 68.8778 220.819 68.2659 220.436 67.5132C220 66.6576 220 65.5375 220 63.2973V52.0973Z" fill="white" fill-opacity="0.08"/>
<circle cx="232" cy="57.6973" r="6" fill="white" fill-opacity="0.08"/>
<circle cx="232" cy="57.6973" r="5" stroke="white" stroke-opacity="0.48" stroke-width="2"/>
<path fill-rule="evenodd" clip-rule="evenodd" d="M146 15.6973L146 15.6972L213.698 1.34676C221.373 0.0908804 225.211 -0.537058 228.2 0.580393C230.824 1.56104 233.022 3.42854 234.413 5.85934C235.65 8.01989 235.922 10.861 235.982 15.6973H233.982C233.956 13.6337 233.892 11.9996 233.735 10.6447C233.534 8.89671 233.192 7.7522 232.678 6.85292C231.518 4.82726 229.687 3.27101 227.5 2.4538C226.398 2.04177 225.025 1.90305 222.858 2.06782C220.672 2.23402 217.894 2.68683 214.021 3.32051L156.384 15.6973H146Z" fill="white" fill-opacity="0.48"/>
</g>
</g>
<defs>
<linearGradient id="paint0_linear_1965_8958" x1="150" y1="60" x2="150" y2="120" gradientUnits="userSpaceOnUse">
<stop stop-color="#090A0C"/>
<stop offset="1" stop-color="#090A0C" stop-opacity="0"/>
</linearGradient>
<linearGradient id="paint1_linear_1965_8958" x1="150" y1="60" x2="300" y2="60" gradientUnits="userSpaceOnUse">
<stop stop-color="#090A0C"/>
<stop offset="1" stop-color="#090A0C" stop-opacity="0"/>
</linearGradient>
<linearGradient id="paint2_linear_1965_8958" x1="260" y1="-20" x2="130" y2="-20" gradientUnits="userSpaceOnUse">
<stop stop-color="#D9D9D9"/>
<stop offset="1" stop-color="#D9D9D9" stop-opacity="0"/>
</linearGradient>
</defs>
</svg>
