<svg width="300" height="120" viewBox="0 0 300 120" fill="none" xmlns="http://www.w3.org/2000/svg">
<mask id="mask0_1934_9409" style="mask-type:alpha" maskUnits="userSpaceOnUse" x="0" y="0" width="300" height="120">
<mask id="mask1_1934_9409" style="mask-type:alpha" maskUnits="userSpaceOnUse" x="0" y="0" width="300" height="120">
<rect width="300" height="120" fill="url(#paint0_linear_1934_9409)"/>
</mask>
<g mask="url(#mask1_1934_9409)">
<rect width="300" height="120" fill="url(#paint1_linear_1934_9409)"/>
</g>
</mask>
<g mask="url(#mask0_1934_9409)">
<rect width="336" height="126" rx="16" fill="white" fill-opacity="0.02"/>
<rect x="1" y="1" width="334" height="124" rx="15" stroke="white" stroke-opacity="0.08" stroke-width="2" stroke-dasharray="4 4"/>
<rect x="16" y="16" width="207" height="40" rx="20" fill="white" fill-opacity="0.02"/>
<circle cx="36" cy="36" r="16" fill="white" fill-opacity="0.02"/>
<circle cx="36" cy="36" r="15" stroke="white" stroke-opacity="0.08" stroke-width="2"/>
<circle cx="72" cy="36" r="12" fill="white" fill-opacity="0.02"/>
<circle cx="72" cy="36" r="11" stroke="white" stroke-opacity="0.08" stroke-width="2"/>
<circle cx="156" cy="36" r="12" fill="white" fill-opacity="0.02"/>
<circle cx="156" cy="36" r="11" stroke="white" stroke-opacity="0.08" stroke-width="2"/>
<rect x="156" y="27.5" width="11.9769" height="11.9769" rx="4" transform="rotate(45 156 27.5)" fill="white" fill-opacity="0.02"/>
<rect x="156" y="28.9142" width="9.97693" height="9.97693" rx="3" transform="rotate(45 156 28.9142)" stroke="white" stroke-opacity="0.08" stroke-width="2"/>
<path opacity="0.6" d="M92.9602 42.1591C92.2481 42.1591 91.608 42.0227 91.0398 41.75C90.4754 41.4735 90.0246 41.0947 89.6875 40.6136C89.3504 40.1326 89.1705 39.5833 89.1477 38.9659H90.8523C90.8939 39.4659 91.1155 39.8769 91.517 40.1989C91.9186 40.5208 92.3996 40.6818 92.9602 40.6818C93.4072 40.6818 93.803 40.5795 94.1477 40.375C94.4962 40.1667 94.7689 39.8807 94.9659 39.517C95.1667 39.1534 95.267 38.7386 95.267 38.2727C95.267 37.7992 95.1648 37.3769 94.9602 37.0057C94.7557 36.6345 94.4735 36.3428 94.1136 36.1307C93.7576 35.9186 93.3485 35.8106 92.8864 35.8068C92.5341 35.8068 92.1799 35.8674 91.8239 35.9886C91.4678 36.1098 91.1799 36.2689 90.9602 36.4659L89.3523 36.2273L90.0057 30.3636H96.4034V31.8693H91.4659L91.0966 35.125H91.1648C91.392 34.9053 91.6932 34.7216 92.0682 34.5739C92.447 34.4261 92.8523 34.3523 93.2841 34.3523C93.9924 34.3523 94.6231 34.5208 95.1761 34.858C95.733 35.1951 96.1705 35.6553 96.4886 36.2386C96.8106 36.8182 96.9697 37.4848 96.9659 38.2386C96.9697 38.9924 96.7992 39.6648 96.4545 40.2557C96.1136 40.8466 95.6402 41.3125 95.0341 41.6534C94.4318 41.9905 93.7405 42.1591 92.9602 42.1591ZM99.4414 42.108C99.1308 42.108 98.8637 41.9981 98.6402 41.7784C98.4167 41.5549 98.305 41.286 98.305 40.9716C98.305 40.661 98.4167 40.3958 98.6402 40.1761C98.8637 39.9527 99.1308 39.8409 99.4414 39.8409C99.752 39.8409 100.019 39.9527 100.243 40.1761C100.466 40.3958 100.578 40.661 100.578 40.9716C100.578 41.1799 100.525 41.3712 100.419 41.5455C100.316 41.7159 100.18 41.8523 100.01 41.9545C99.8391 42.0568 99.6497 42.108 99.4414 42.108ZM106.164 42.1591C105.452 42.1591 104.812 42.0227 104.244 41.75C103.679 41.4735 103.228 41.0947 102.891 40.6136C102.554 40.1326 102.374 39.5833 102.351 38.9659H104.056C104.098 39.4659 104.319 39.8769 104.721 40.1989C105.122 40.5208 105.603 40.6818 106.164 40.6818C106.611 40.6818 107.007 40.5795 107.351 40.375C107.7 40.1667 107.973 39.8807 108.17 39.517C108.37 39.1534 108.471 38.7386 108.471 38.2727C108.471 37.7992 108.369 37.3769 108.164 37.0057C107.959 36.6345 107.677 36.3428 107.317 36.1307C106.961 35.9186 106.552 35.8106 106.09 35.8068C105.738 35.8068 105.384 35.8674 105.028 35.9886C104.672 36.1098 104.384 36.2689 104.164 36.4659L102.556 36.2273L103.209 30.3636H109.607V31.8693H104.67L104.3 35.125H104.369C104.596 34.9053 104.897 34.7216 105.272 34.5739C105.651 34.4261 106.056 34.3523 106.488 34.3523C107.196 34.3523 107.827 34.5208 108.38 34.858C108.937 35.1951 109.374 35.6553 109.692 36.2386C110.014 36.8182 110.173 37.4848 110.17 38.2386C110.173 38.9924 110.003 39.6648 109.658 40.2557C109.317 40.8466 108.844 41.3125 108.238 41.6534C107.636 41.9905 106.944 42.1591 106.164 42.1591Z" fill="white"/>
<path opacity="0.6" d="M173.119 42V40.7273L177.057 36.6477C177.477 36.2045 177.824 35.8163 178.097 35.483C178.373 35.1458 178.58 34.8258 178.716 34.5227C178.852 34.2197 178.92 33.8977 178.92 33.5568C178.92 33.1705 178.83 32.8371 178.648 32.5568C178.466 32.2727 178.218 32.0549 177.903 31.9034C177.589 31.7481 177.235 31.6705 176.841 31.6705C176.424 31.6705 176.061 31.7557 175.75 31.9261C175.439 32.0966 175.201 32.3371 175.034 32.6477C174.867 32.9583 174.784 33.322 174.784 33.7386H173.108C173.108 33.0303 173.271 32.411 173.597 31.8807C173.922 31.3504 174.369 30.9394 174.938 30.6477C175.506 30.3523 176.152 30.2045 176.875 30.2045C177.606 30.2045 178.25 30.3504 178.807 30.642C179.367 30.9299 179.805 31.3239 180.119 31.8239C180.434 32.3201 180.591 32.8807 180.591 33.5057C180.591 33.9375 180.509 34.3598 180.347 34.7727C180.188 35.1856 179.909 35.6458 179.511 36.1534C179.114 36.6572 178.561 37.2689 177.852 37.9886L175.54 40.4091V40.4943H180.778V42H173.119ZM187.027 30.3636V42H185.265V32.125H185.197L182.413 33.9432V32.2614L185.316 30.3636H187.027ZM190.324 42.108C190.014 42.108 189.747 41.9981 189.523 41.7784C189.3 41.5549 189.188 41.286 189.188 40.9716C189.188 40.661 189.3 40.3958 189.523 40.1761C189.747 39.9527 190.014 39.8409 190.324 39.8409C190.635 39.8409 190.902 39.9527 191.126 40.1761C191.349 40.3958 191.461 40.661 191.461 40.9716C191.461 41.1799 191.408 41.3712 191.302 41.5455C191.199 41.7159 191.063 41.8523 190.893 41.9545C190.722 42.0568 190.533 42.108 190.324 42.108ZM197.034 42.1591C196.515 42.1515 196.004 42.0568 195.5 41.875C195 41.6932 194.546 41.3902 194.137 40.9659C193.728 40.5417 193.4 39.9716 193.154 39.2557C192.911 38.5398 192.79 37.6458 192.79 36.5739C192.79 35.5587 192.89 34.6572 193.091 33.8693C193.296 33.0814 193.589 32.4167 193.972 31.875C194.354 31.3295 194.817 30.9148 195.358 30.6307C195.9 30.3466 196.508 30.2045 197.182 30.2045C197.875 30.2045 198.491 30.3409 199.029 30.6136C199.567 30.8864 200.002 31.2633 200.335 31.7443C200.673 32.2254 200.887 32.7727 200.978 33.3864H199.245C199.127 32.9015 198.894 32.5057 198.546 32.1989C198.197 31.892 197.743 31.7386 197.182 31.7386C196.33 31.7386 195.665 32.1098 195.188 32.8523C194.714 33.5947 194.476 34.6269 194.472 35.9489H194.557C194.758 35.6193 195.004 35.339 195.296 35.108C195.591 34.8731 195.921 34.6932 196.284 34.5682C196.652 34.4394 197.038 34.375 197.443 34.375C198.118 34.375 198.728 34.5398 199.273 34.8693C199.822 35.1951 200.26 35.6458 200.585 36.2216C200.911 36.7973 201.074 37.4564 201.074 38.1989C201.074 38.9413 200.906 39.6136 200.568 40.2159C200.235 40.8182 199.765 41.2955 199.159 41.6477C198.553 41.9962 197.845 42.1667 197.034 42.1591ZM197.029 40.6818C197.476 40.6818 197.875 40.572 198.228 40.3523C198.58 40.1326 198.858 39.8371 199.063 39.4659C199.267 39.0947 199.37 38.6799 199.37 38.2216C199.37 37.7746 199.269 37.3674 199.068 37C198.871 36.6326 198.599 36.3409 198.25 36.125C197.906 35.9091 197.512 35.8011 197.068 35.8011C196.731 35.8011 196.419 35.8655 196.131 35.9943C195.847 36.1231 195.597 36.3011 195.381 36.5284C195.165 36.7557 194.995 37.017 194.87 37.3125C194.748 37.6042 194.688 37.9129 194.688 38.2386C194.688 38.6742 194.788 39.0777 194.989 39.4489C195.193 39.8201 195.472 40.1193 195.824 40.3466C196.18 40.5701 196.582 40.6818 197.029 40.6818ZM203.216 42L208.295 31.9545V31.8693H202.42V30.3636H210.113V31.9205L205.051 42H203.216Z" fill="white"/>
<g clip-path="url(#clip0_1934_9409)">
<g clip-path="url(#clip1_1934_9409)">
<path d="M134.5 38C135.328 38 136 37.3284 136 36.5C136 35.6716 135.328 35 134.5 35C133.672 35 133 35.6716 133 36.5C133 37.3284 133.672 38 134.5 38Z" fill="white" fill-opacity="0.24"/>
<path d="M131 35.8H122.82C122.57 35.33 122.08 35 121.5 35C120.67 35 120 35.67 120 36.5C120 37.33 120.67 38 121.5 38C122.07 38 122.57 37.67 122.82 37.2H131C131.39 37.2 131.7 36.89 131.7 36.5C131.7 36.11 131.39 35.8 131 35.8Z" fill="white" fill-opacity="0.24"/>
</g>
</g>
<path d="M33.2287 33.8C34.1382 32.2248 34.5929 31.4372 35.1865 31.1729C35.7043 30.9424 36.2957 30.9424 36.8135 31.1729C37.4071 31.4372 37.8618 32.2248 38.7713 33.8L40.1569 36.2C41.0664 37.7752 41.5211 38.5628 41.4531 39.2091C41.3939 39.7728 41.0982 40.2849 40.6397 40.618C40.1139 41 39.2045 41 37.3856 41H34.6144C32.7955 41 31.8861 41 31.3603 40.618C30.9018 40.2849 30.6061 39.7728 30.5469 39.2091C30.4789 38.5628 30.9336 37.7752 31.8431 36.2L33.2287 33.8Z" fill="white" fill-opacity="0.02"/>
<path d="M34.0947 34.3C34.5593 33.4953 34.874 32.9524 35.1428 32.5719C35.4146 32.1872 35.5481 32.1066 35.5933 32.0865C35.8522 31.9712 36.1478 31.9712 36.4067 32.0865C36.4519 32.1066 36.5854 32.1872 36.8572 32.5719C37.126 32.9524 37.4407 33.4953 37.9053 34.3L39.2909 36.7C39.7555 37.5047 40.0684 38.0486 40.2635 38.4717C40.4607 38.8994 40.4638 39.0554 40.4586 39.1045C40.429 39.3864 40.2812 39.6424 40.0519 39.809C40.0119 39.8381 39.8753 39.9134 39.4062 39.9564C38.9423 39.999 38.3148 40 37.3856 40H34.6144C33.6852 40 33.0577 39.999 32.5938 39.9564C32.1247 39.9134 31.9881 39.8381 31.9481 39.809C31.7188 39.6424 31.571 39.3864 31.5414 39.1045C31.5362 39.0554 31.5393 38.8994 31.7365 38.4717C31.9316 38.0486 32.2445 37.5047 32.7091 36.7L34.0947 34.3Z" stroke="white" stroke-opacity="0.08" stroke-width="2"/>
<path d="M71.0321 30.2215C71.231 29.1481 72.769 29.1481 72.9679 30.2215C73.1103 30.9892 74.047 31.2936 74.6135 30.7561C75.4053 30.0047 76.6495 30.9087 76.1796 31.894C75.8435 32.5988 76.4224 33.3957 77.1966 33.2938C78.2789 33.1513 78.7541 34.614 77.7948 35.1349C77.1086 35.5075 77.1086 36.4925 77.7948 36.8651C78.7541 37.386 78.2789 38.8487 77.1966 38.7062C76.4224 38.6043 75.8435 39.4012 76.1796 40.106C76.6495 41.0913 75.4053 41.9953 74.6135 41.2439C74.047 40.7064 73.1103 41.0108 72.9679 41.7785C72.769 42.8519 71.231 42.8519 71.0321 41.7785C70.8897 41.0108 69.953 40.7064 69.3865 41.2439C68.5947 41.9953 67.3505 41.0913 67.8204 40.106C68.1565 39.4012 67.5776 38.6043 66.8034 38.7062C65.7211 38.8487 65.2459 37.386 66.2052 36.8651C66.8914 36.4925 66.8914 35.5075 66.2052 35.1349C65.2459 34.614 65.7211 33.1513 66.8034 33.2938C67.5776 33.3957 68.1565 32.5988 67.8204 31.894C67.3505 30.9087 68.5947 30.0047 69.3865 30.7561C69.953 31.2936 70.8897 30.9892 71.0321 30.2215Z" fill="white" fill-opacity="0.02"/>
<path d="M68.7547 31.5332C69.8822 32.528 71.6725 31.9463 72 30.4787C72.3275 31.9463 74.1178 32.528 75.2453 31.5332C74.6477 32.913 75.7541 34.4359 77.251 34.2938C75.9565 35.0588 75.9565 36.9412 77.251 37.7062C75.7541 37.5641 74.6477 39.087 75.2453 40.4668C74.1178 39.472 72.3275 40.0537 72 41.5213C71.6725 40.0537 69.8822 39.472 68.7547 40.4668C69.3523 39.087 68.2459 37.5641 66.749 37.7062C68.0435 36.9412 68.0435 35.0588 66.749 34.2938C68.2459 34.4359 69.3523 32.913 68.7547 31.5332Z" stroke="white" stroke-opacity="0.08" stroke-width="2"/>
<rect x="16" y="70" width="40" height="40" rx="20" fill="#00FF60" fill-opacity="0.08"/>
<rect x="17" y="71" width="38" height="38" rx="19" stroke="#00FF60" stroke-opacity="0.48" stroke-width="2"/>
<g opacity="0.48">
<rect x="30" y="81" width="12" height="18" rx="4" stroke="#00FF60" stroke-width="2"/>
<path d="M42.6777 86.563H43.9998C45.6566 86.563 46.9998 87.9061 46.9998 89.563V90.938" stroke="#00FF60" stroke-width="2" stroke-linecap="round"/>
<path d="M34.7627 86.875H37.0678" stroke="#00FF60" stroke-width="2" stroke-linecap="round"/>
</g>
<rect x="64" y="70" width="227" height="40" rx="20" fill="white" fill-opacity="0.02"/>
<circle cx="84" cy="90" r="16" fill="white" fill-opacity="0.02"/>
<circle cx="84" cy="90" r="15" stroke="white" stroke-opacity="0.08" stroke-width="2"/>
<circle cx="120" cy="90" r="12" fill="white" fill-opacity="0.02"/>
<circle cx="120" cy="90" r="11" stroke="white" stroke-opacity="0.08" stroke-width="2"/>
<rect x="120" y="81.5312" width="11.9769" height="11.9769" rx="4" transform="rotate(45 120 81.5312)" fill="white" fill-opacity="0.02"/>
<rect x="120" y="82.9455" width="9.97693" height="9.97693" rx="3" transform="rotate(45 120 82.9455)" stroke="white" stroke-opacity="0.08" stroke-width="2"/>
<path opacity="0.6" d="M137.119 96V94.7273L141.057 90.6477C141.477 90.2045 141.824 89.8163 142.097 89.483C142.373 89.1458 142.58 88.8258 142.716 88.5227C142.852 88.2197 142.92 87.8977 142.92 87.5568C142.92 87.1705 142.83 86.8371 142.648 86.5568C142.466 86.2727 142.218 86.0549 141.903 85.9034C141.589 85.7481 141.235 85.6705 140.841 85.6705C140.424 85.6705 140.061 85.7557 139.75 85.9261C139.439 86.0966 139.201 86.3371 139.034 86.6477C138.867 86.9583 138.784 87.322 138.784 87.7386H137.108C137.108 87.0303 137.271 86.411 137.597 85.8807C137.922 85.3504 138.369 84.9394 138.938 84.6477C139.506 84.3523 140.152 84.2045 140.875 84.2045C141.606 84.2045 142.25 84.3504 142.807 84.642C143.367 84.9299 143.805 85.3239 144.119 85.8239C144.434 86.3201 144.591 86.8807 144.591 87.5057C144.591 87.9375 144.509 88.3598 144.347 88.7727C144.188 89.1856 143.909 89.6458 143.511 90.1534C143.114 90.6572 142.561 91.2689 141.852 91.9886L139.54 94.4091V94.4943H144.778V96H137.119ZM151.027 84.3636V96H149.265V86.125H149.197L146.413 87.9432V86.2614L149.316 84.3636H151.027ZM154.324 96.108C154.014 96.108 153.747 95.9981 153.523 95.7784C153.3 95.5549 153.188 95.286 153.188 94.9716C153.188 94.661 153.3 94.3958 153.523 94.1761C153.747 93.9527 154.014 93.8409 154.324 93.8409C154.635 93.8409 154.902 93.9527 155.126 94.1761C155.349 94.3958 155.461 94.661 155.461 94.9716C155.461 95.1799 155.408 95.3712 155.302 95.5455C155.199 95.7159 155.063 95.8523 154.893 95.9545C154.722 96.0568 154.533 96.108 154.324 96.108ZM161.034 96.1591C160.515 96.1515 160.004 96.0568 159.5 95.875C159 95.6932 158.546 95.3902 158.137 94.9659C157.728 94.5417 157.4 93.9716 157.154 93.2557C156.911 92.5398 156.79 91.6458 156.79 90.5739C156.79 89.5587 156.89 88.6572 157.091 87.8693C157.296 87.0814 157.589 86.4167 157.972 85.875C158.354 85.3295 158.817 84.9148 159.358 84.6307C159.9 84.3466 160.508 84.2045 161.182 84.2045C161.875 84.2045 162.491 84.3409 163.029 84.6136C163.567 84.8864 164.002 85.2633 164.335 85.7443C164.673 86.2254 164.887 86.7727 164.978 87.3864H163.245C163.127 86.9015 162.894 86.5057 162.546 86.1989C162.197 85.892 161.743 85.7386 161.182 85.7386C160.33 85.7386 159.665 86.1098 159.188 86.8523C158.714 87.5947 158.476 88.6269 158.472 89.9489H158.557C158.758 89.6193 159.004 89.339 159.296 89.108C159.591 88.8731 159.921 88.6932 160.284 88.5682C160.652 88.4394 161.038 88.375 161.443 88.375C162.118 88.375 162.728 88.5398 163.273 88.8693C163.822 89.1951 164.26 89.6458 164.585 90.2216C164.911 90.7973 165.074 91.4564 165.074 92.1989C165.074 92.9413 164.906 93.6136 164.568 94.2159C164.235 94.8182 163.765 95.2955 163.159 95.6477C162.553 95.9962 161.845 96.1667 161.034 96.1591ZM161.029 94.6818C161.476 94.6818 161.875 94.572 162.228 94.3523C162.58 94.1326 162.858 93.8371 163.063 93.4659C163.267 93.0947 163.37 92.6799 163.37 92.2216C163.37 91.7746 163.269 91.3674 163.068 91C162.871 90.6326 162.599 90.3409 162.25 90.125C161.906 89.9091 161.512 89.8011 161.068 89.8011C160.731 89.8011 160.419 89.8655 160.131 89.9943C159.847 90.1231 159.597 90.3011 159.381 90.5284C159.165 90.7557 158.995 91.017 158.87 91.3125C158.748 91.6042 158.688 91.9129 158.688 92.2386C158.688 92.6742 158.788 93.0777 158.989 93.4489C159.193 93.8201 159.472 94.1193 159.824 94.3466C160.18 94.5701 160.582 94.6818 161.029 94.6818ZM167.216 96L172.295 85.9545V85.8693H166.42V84.3636H174.113V85.9205L169.051 96H167.216Z" fill="white"/>
<g clip-path="url(#clip2_1934_9409)">
<path d="M197.5 94C198.328 94 199 93.3284 199 92.5C199 91.6716 198.328 91 197.5 91C196.672 91 196 91.6716 196 92.5C196 93.3284 196.672 94 197.5 94Z" fill="white" fill-opacity="0.24"/>
<path d="M196.96 89.6198C197.3 89.4398 197.43 89.0098 197.25 88.6698C195.97 86.2798 193.57 84.7998 191 84.7998C187.47 84.7998 184.53 87.5298 183.92 91.1198C183.38 91.3498 183 91.8798 183 92.4998C183 93.3298 183.67 93.9998 184.5 93.9998C185.33 93.9998 186 93.3298 186 92.4998C186 91.9698 185.73 91.5098 185.32 91.2398C185.86 88.3698 188.2 86.1998 191 86.1998C193.06 86.1998 194.98 87.3998 196.01 89.3298C196.19 89.6698 196.62 89.7998 196.96 89.6198Z" fill="white" fill-opacity="0.24"/>
</g>
<circle cx="219" cy="90" r="12" fill="white" fill-opacity="0.02"/>
<circle cx="219" cy="90" r="11" stroke="white" stroke-opacity="0.08" stroke-width="2"/>
<path d="M216.461 85.8615C217.004 84.3934 217.276 83.6593 217.585 83.3501C218.366 82.5674 219.634 82.5674 220.415 83.3501C220.724 83.6593 220.996 84.3934 221.539 85.8615C221.65 86.1603 221.705 86.3097 221.779 86.4432C221.96 86.7701 222.23 87.0396 222.557 87.221C222.69 87.2952 222.84 87.3504 223.138 87.461C224.607 88.0043 225.341 88.2759 225.65 88.5846C226.433 89.3659 226.433 90.6341 225.65 91.4154C225.341 91.7241 224.607 91.9957 223.138 92.539C222.84 92.6496 222.69 92.7048 222.557 92.779C222.23 92.9604 221.96 93.2299 221.779 93.5568C221.705 93.6903 221.65 93.8397 221.539 94.1385C220.996 95.6066 220.724 96.3407 220.415 96.6499C219.634 97.4326 218.366 97.4326 217.585 96.6499C217.276 96.3407 217.004 95.6066 216.461 94.1385C216.35 93.8397 216.295 93.6903 216.221 93.5568C216.04 93.2299 215.77 92.9604 215.443 92.779C215.31 92.7048 215.16 92.6496 214.862 92.539C213.393 91.9957 212.659 91.7241 212.35 91.4154C211.567 90.6341 211.567 89.3659 212.35 88.5846C212.659 88.2759 213.393 88.0043 214.862 87.461C215.16 87.3504 215.31 87.2952 215.443 87.221C215.77 87.0396 216.04 86.7701 216.221 86.4432C216.295 86.3097 216.35 86.1603 216.461 85.8615Z" fill="white" fill-opacity="0.02"/>
<path d="M217.399 86.2086C217.674 85.4638 217.868 84.9423 218.029 84.5661C218.109 84.3806 218.172 84.2522 218.223 84.163C218.269 84.0823 218.294 84.0554 218.294 84.0553C218.684 83.6657 219.316 83.6657 219.706 84.0553C219.707 84.0562 219.731 84.0836 219.777 84.163C219.828 84.2522 219.891 84.3806 219.971 84.5661C220.132 84.9423 220.326 85.4638 220.601 86.2086C220.608 86.2257 220.614 86.2428 220.62 86.2597C220.712 86.5082 220.792 86.7265 220.905 86.9286C221.177 87.4189 221.581 87.8231 222.071 88.0953C222.273 88.2075 222.492 88.2882 222.74 88.38C222.757 88.3862 222.774 88.3925 222.791 88.3989C223.536 88.6745 224.058 88.8677 224.434 89.0295C224.619 89.1092 224.748 89.1722 224.837 89.2232C224.918 89.2694 224.945 89.2936 224.945 89.2935C225.334 89.6839 225.334 90.3161 224.945 90.7065C224.944 90.7071 224.916 90.7313 224.837 90.7768C224.748 90.8278 224.619 90.8908 224.434 90.9705C224.058 91.1323 223.536 91.3255 222.791 91.6011C222.774 91.6075 222.757 91.6138 222.74 91.62C222.492 91.7118 222.273 91.7925 222.071 91.9047C221.581 92.1769 221.177 92.5811 220.905 93.0714C220.792 93.2735 220.712 93.4918 220.62 93.7403C220.614 93.7572 220.608 93.7743 220.601 93.7914C220.326 94.5362 220.132 95.0576 219.971 95.4339C219.891 95.6194 219.828 95.7478 219.777 95.837C219.731 95.9177 219.706 95.9446 219.706 95.9447C219.316 96.3343 218.684 96.3343 218.294 95.9447C218.293 95.9438 218.269 95.9165 218.223 95.837C218.172 95.7478 218.109 95.6194 218.029 95.4339C217.868 95.0576 217.674 94.5362 217.399 93.7914C217.392 93.7743 217.386 93.7572 217.38 93.7403C217.288 93.4918 217.208 93.2735 217.095 93.0714C216.823 92.5811 216.419 92.1769 215.929 91.9047C215.727 91.7925 215.508 91.7118 215.26 91.62C215.243 91.6138 215.226 91.6075 215.209 91.6011C214.464 91.3255 213.942 91.1323 213.566 90.9705C213.381 90.8908 213.252 90.8278 213.163 90.7768C213.082 90.7306 213.055 90.7064 213.055 90.7065C212.666 90.3161 212.666 89.6839 213.055 89.2935C213.056 89.2929 213.084 89.2686 213.163 89.2232C213.252 89.1722 213.381 89.1092 213.566 89.0295C213.942 88.8677 214.464 88.6745 215.209 88.3989C215.226 88.3925 215.243 88.3862 215.26 88.38C215.508 88.2882 215.727 88.2075 215.929 88.0953C216.419 87.8231 216.823 87.4189 217.095 86.9286C217.208 86.7265 217.288 86.5082 217.38 86.2597C217.386 86.2428 217.392 86.2257 217.399 86.2086Z" stroke="white" stroke-opacity="0.08" stroke-width="2"/>
<path opacity="0.6" d="M240.534 84.3636V96H238.773V86.125H238.705L235.92 87.9432V86.2614L238.824 84.3636H240.534ZM247.413 96.1932C246.515 96.1894 245.748 95.9527 245.112 95.483C244.475 95.0133 243.989 94.3295 243.652 93.4318C243.314 92.5341 243.146 91.4527 243.146 90.1875C243.146 88.9261 243.314 87.8485 243.652 86.9545C243.992 86.0606 244.481 85.3788 245.117 84.9091C245.758 84.4394 246.523 84.2045 247.413 84.2045C248.303 84.2045 249.066 84.4413 249.703 84.9148C250.339 85.3845 250.826 86.0663 251.163 86.9602C251.504 87.8504 251.674 88.9261 251.674 90.1875C251.674 91.4564 251.506 92.5398 251.169 93.4375C250.832 94.3314 250.345 95.0152 249.708 95.4886C249.072 95.9583 248.307 96.1932 247.413 96.1932ZM247.413 94.6761C248.201 94.6761 248.816 94.2917 249.26 93.5227C249.707 92.7538 249.93 91.642 249.93 90.1875C249.93 89.2216 249.828 88.4053 249.623 87.7386C249.422 87.0682 249.133 86.5606 248.754 86.2159C248.379 85.8674 247.932 85.6932 247.413 85.6932C246.629 85.6932 246.013 86.0795 245.566 86.8523C245.119 87.625 244.894 88.7367 244.89 90.1875C244.89 91.1572 244.991 91.9773 245.191 92.6477C245.396 93.3144 245.686 93.8201 246.061 94.1648C246.436 94.5057 246.886 94.6761 247.413 94.6761ZM257.421 96.1932C256.523 96.1894 255.756 95.9527 255.12 95.483C254.484 95.0133 253.997 94.3295 253.66 93.4318C253.323 92.5341 253.154 91.4527 253.154 90.1875C253.154 88.9261 253.323 87.8485 253.66 86.9545C254.001 86.0606 254.489 85.3788 255.126 84.9091C255.766 84.4394 256.531 84.2045 257.421 84.2045C258.311 84.2045 259.074 84.4413 259.711 84.9148C260.347 85.3845 260.834 86.0663 261.171 86.9602C261.512 87.8504 261.682 88.9261 261.682 90.1875C261.682 91.4564 261.514 92.5398 261.177 93.4375C260.84 94.3314 260.353 95.0152 259.717 95.4886C259.08 95.9583 258.315 96.1932 257.421 96.1932ZM257.421 94.6761C258.209 94.6761 258.824 94.2917 259.268 93.5227C259.715 92.7538 259.938 91.642 259.938 90.1875C259.938 89.2216 259.836 88.4053 259.631 87.7386C259.431 87.0682 259.141 86.5606 258.762 86.2159C258.387 85.8674 257.94 85.6932 257.421 85.6932C256.637 85.6932 256.021 86.0795 255.574 86.8523C255.128 87.625 254.902 88.7367 254.898 90.1875C254.898 91.1572 254.999 91.9773 255.199 92.6477C255.404 93.3144 255.694 93.8201 256.069 94.1648C256.444 94.5057 256.895 94.6761 257.421 94.6761ZM264.098 96.108C263.788 96.108 263.521 95.9981 263.297 95.7784C263.074 95.5549 262.962 95.286 262.962 94.9716C262.962 94.661 263.074 94.3958 263.297 94.1761C263.521 93.9527 263.788 93.8409 264.098 93.8409C264.409 93.8409 264.676 93.9527 264.899 94.1761C265.123 94.3958 265.235 94.661 265.235 94.9716C265.235 95.1799 265.182 95.3712 265.076 95.5455C264.973 95.7159 264.837 95.8523 264.666 95.9545C264.496 96.0568 264.307 96.108 264.098 96.108ZM270.896 84.2045C271.415 84.2083 271.926 84.303 272.43 84.4886C272.934 84.6742 273.389 84.9773 273.794 85.3977C274.203 85.8182 274.529 86.3864 274.771 87.1023C275.017 87.8144 275.142 88.7008 275.146 89.7614C275.146 90.7803 275.044 91.6875 274.839 92.483C274.635 93.2746 274.341 93.9432 273.959 94.4886C273.58 95.0341 273.12 95.4489 272.578 95.733C272.036 96.017 271.426 96.1591 270.748 96.1591C270.055 96.1591 269.44 96.0227 268.902 95.75C268.364 95.4773 267.926 95.1004 267.589 94.6193C267.252 94.1345 267.042 93.5777 266.959 92.9489H268.692C268.805 93.4489 269.036 93.8542 269.385 94.1648C269.737 94.4716 270.192 94.625 270.748 94.625C271.601 94.625 272.265 94.2538 272.743 93.5114C273.22 92.7652 273.461 91.7235 273.464 90.3864H273.373C273.176 90.7121 272.93 90.9924 272.635 91.2273C272.343 91.4621 272.015 91.6439 271.652 91.7727C271.288 91.9015 270.9 91.9659 270.487 91.9659C269.817 91.9659 269.207 91.8011 268.657 91.4716C268.108 91.142 267.671 90.6894 267.345 90.1136C267.019 89.5379 266.856 88.8807 266.856 88.142C266.856 87.4072 267.023 86.7405 267.356 86.142C267.693 85.5436 268.163 85.0701 268.765 84.7216C269.372 84.3693 270.082 84.197 270.896 84.2045ZM270.902 85.6818C270.459 85.6818 270.059 85.7917 269.703 86.0114C269.351 86.2273 269.072 86.5208 268.868 86.892C268.663 87.2595 268.561 87.6686 268.561 88.1193C268.561 88.5701 268.659 88.9792 268.856 89.3466C269.057 89.7102 269.33 90 269.675 90.2159C270.023 90.428 270.421 90.5341 270.868 90.5341C271.201 90.5341 271.512 90.4697 271.8 90.3409C272.087 90.2121 272.339 90.0341 272.555 89.8068C272.771 89.5758 272.94 89.3144 273.061 89.0227C273.182 88.7311 273.243 88.4242 273.243 88.1023C273.243 87.6742 273.14 87.2765 272.936 86.9091C272.735 86.5417 272.459 86.2462 272.106 86.0227C271.754 85.7955 271.353 85.6818 270.902 85.6818Z" fill="white"/>
<rect x="77" y="83" width="14" height="14" rx="4" fill="white" fill-opacity="0.02"/>
<rect x="78" y="84" width="12" height="12" rx="3" stroke="white" stroke-opacity="0.08" stroke-width="2"/>
</g>
<defs>
<linearGradient id="paint0_linear_1934_9409" x1="150" y1="60" x2="150" y2="120" gradientUnits="userSpaceOnUse">
<stop stop-color="#090A0C"/>
<stop offset="1" stop-color="#090A0C" stop-opacity="0"/>
</linearGradient>
<linearGradient id="paint1_linear_1934_9409" x1="150" y1="60" x2="300" y2="60" gradientUnits="userSpaceOnUse">
<stop stop-color="#090A0C"/>
<stop offset="1" stop-color="#090A0C" stop-opacity="0"/>
</linearGradient>
<clipPath id="clip0_1934_9409">
<rect width="16" height="16" fill="white" transform="translate(120 28)"/>
</clipPath>
<clipPath id="clip1_1934_9409">
<rect width="16" height="16" fill="white" transform="translate(120 28)"/>
</clipPath>
<clipPath id="clip2_1934_9409">
<rect width="16" height="16" fill="white" transform="translate(183 82)"/>
</clipPath>
</defs>
</svg>
