<svg width="275" height="110" viewBox="0 0 275 110" fill="none" xmlns="http://www.w3.org/2000/svg">
<mask id="mask0_2112_21595" style="mask-type:alpha" maskUnits="userSpaceOnUse" x="0" y="0" width="275" height="110">
<path d="M0 0H275V110H0V0Z" fill="url(#paint0_linear_2112_21595)"/>
</mask>
<g mask="url(#mask0_2112_21595)">
<path d="M55 55C55 70.1878 42.6878 82.5 27.5 82.5C12.3122 82.5 0 70.1878 0 55C0 39.8122 12.3122 27.5 27.5 27.5C42.6878 27.5 55 39.8122 55 55Z" fill="#00FF60" fill-opacity="0.04"/>
<path fill-rule="evenodd" clip-rule="evenodd" d="M27.5 81.5833C42.1816 81.5833 54.0833 69.6816 54.0833 55C54.0833 40.3184 42.1816 28.4167 27.5 28.4167C12.8184 28.4167 0.916667 40.3184 0.916667 55C0.916667 69.6816 12.8184 81.5833 27.5 81.5833ZM27.5 82.5C42.6878 82.5 55 70.1878 55 55C55 39.8122 42.6878 27.5 27.5 27.5C12.3122 27.5 0 39.8122 0 55C0 70.1878 12.3122 82.5 27.5 82.5Z" fill="#00FF60" fill-opacity="0.48"/>
<path d="M178.75 55C178.75 70.1878 166.438 82.5 151.25 82.5C136.062 82.5 123.75 70.1878 123.75 55C123.75 39.8122 136.062 27.5 151.25 27.5C166.438 27.5 178.75 39.8122 178.75 55Z" fill="white" fill-opacity="0.02"/>
<path fill-rule="evenodd" clip-rule="evenodd" d="M151.25 81.5833C165.932 81.5833 177.833 69.6816 177.833 55C177.833 40.3184 165.932 28.4167 151.25 28.4167C136.568 28.4167 124.667 40.3184 124.667 55C124.667 69.6816 136.568 81.5833 151.25 81.5833ZM151.25 82.5C166.438 82.5 178.75 70.1878 178.75 55C178.75 39.8122 166.438 27.5 151.25 27.5C136.062 27.5 123.75 39.8122 123.75 55C123.75 70.1878 136.062 82.5 151.25 82.5Z" fill="white" fill-opacity="0.08"/>
<path d="M302.5 55C302.5 70.1878 290.188 82.5 275 82.5C259.812 82.5 247.5 70.1878 247.5 55C247.5 39.8122 259.812 27.5 275 27.5C290.188 27.5 302.5 39.8122 302.5 55Z" fill="white" fill-opacity="0.02"/>
<path fill-rule="evenodd" clip-rule="evenodd" d="M275 81.5833C289.682 81.5833 301.583 69.6816 301.583 55C301.583 40.3184 289.682 28.4167 275 28.4167C260.318 28.4167 248.417 40.3184 248.417 55C248.417 69.6816 260.318 81.5833 275 81.5833ZM275 82.5C290.188 82.5 302.5 70.1878 302.5 55C302.5 39.8122 290.188 27.5 275 27.5C259.812 27.5 247.5 39.8122 247.5 55C247.5 70.1878 259.812 82.5 275 82.5Z" fill="white" fill-opacity="0.08"/>
<g opacity="0.12">
<path fill-rule="evenodd" clip-rule="evenodd" d="M149.032 104.551C149.168 103.858 149.632 103.286 150.367 103.286H152.029C152.059 103.286 152.088 103.289 152.117 103.295C152.805 103.432 153.372 103.899 153.372 104.64V106.91C155.927 107.311 157.894 109.29 158.349 111.811C158.354 111.838 158.357 111.866 158.357 111.893V112.006C158.357 112.708 157.819 113.25 157.122 113.25H155.349C154.831 113.25 154.316 112.911 154.138 112.378L154.138 112.377C153.886 111.613 153.525 111.128 153.042 110.822C152.548 110.51 151.87 110.349 150.918 110.349C149.871 110.349 149.156 110.587 148.712 110.945C148.282 111.292 148.053 111.792 148.053 112.453C148.053 113.162 148.2 113.611 148.631 113.962C149.107 114.351 149.993 114.674 151.64 114.896C153.978 115.177 155.828 115.662 157.094 116.634C158.398 117.636 159.019 119.101 159.019 121.158C159.019 124.319 156.771 126.755 153.481 127.457V129.753C153.481 129.783 153.478 129.813 153.473 129.842C153.337 130.536 152.873 131.107 152.138 131.107H150.476C150.447 131.107 150.417 131.104 150.388 131.098C149.7 130.962 149.133 130.494 149.133 129.753V127.465C147.425 127.147 146.102 126.499 145.135 125.568C144.095 124.565 143.504 123.266 143.269 121.791C143.265 121.767 143.263 121.742 143.263 121.718V121.605C143.263 120.903 143.801 120.361 144.498 120.361H146.38C146.931 120.361 147.44 120.737 147.601 121.38C147.602 121.388 147.604 121.395 147.606 121.402C147.759 122.174 148.053 122.783 148.589 123.208C149.13 123.637 149.984 123.932 151.364 123.932C153.312 123.932 154.561 122.825 154.561 121.38C154.561 120.975 154.504 120.667 154.396 120.421C154.291 120.181 154.125 119.975 153.866 119.788C153.324 119.396 152.398 119.102 150.853 118.824C148.513 118.543 146.696 118.029 145.46 117.057C144.188 116.057 143.595 114.622 143.595 112.675C143.595 109.724 145.745 107.404 149.024 106.811V104.64C149.024 104.61 149.027 104.58 149.032 104.551ZM149.94 104.688V107.206C149.94 107.437 149.77 107.633 149.543 107.664C146.398 108.087 144.512 110.163 144.512 112.675C144.512 114.411 145.027 115.544 146.025 116.329C147.057 117.142 148.668 117.632 150.974 117.909C150.983 117.91 150.992 117.911 151.001 117.912C152.55 118.191 153.67 118.51 154.4 119.037C154.778 119.311 155.056 119.642 155.234 120.047C155.41 120.447 155.478 120.892 155.478 121.38C155.478 123.509 153.627 124.855 151.364 124.855C149.866 124.855 148.782 124.537 148.022 123.934C147.26 123.33 146.889 122.493 146.709 121.596C146.675 121.468 146.618 121.394 146.565 121.351C146.509 121.306 146.444 121.285 146.38 121.285H144.498C144.307 121.285 144.18 121.413 144.18 121.605V121.681C144.393 122.98 144.907 124.069 145.769 124.9C146.64 125.74 147.902 126.35 149.66 126.618C149.884 126.652 150.049 126.846 150.049 127.075V129.753C150.049 129.902 150.141 130.096 150.524 130.183H152.138C152.285 130.183 152.478 130.091 152.565 129.705V127.075C152.565 126.849 152.727 126.656 152.947 126.619C156.092 126.089 158.102 123.903 158.102 121.158C158.102 119.31 157.559 118.153 156.538 117.369C155.478 116.555 153.84 116.091 151.528 115.812L151.522 115.812L151.522 115.812C149.848 115.586 148.74 115.24 148.054 114.68C147.322 114.084 147.136 113.306 147.136 112.453C147.136 111.553 147.462 110.77 148.14 110.224C148.803 109.689 149.749 109.425 150.918 109.425C151.959 109.425 152.832 109.599 153.529 110.04C154.236 110.487 154.707 111.174 155.007 112.084C155.053 112.221 155.203 112.326 155.349 112.326H157.122C157.313 112.326 157.44 112.198 157.44 112.006V111.936C157.018 109.7 155.197 107.981 152.874 107.779C152.638 107.758 152.456 107.558 152.456 107.319V104.64C152.456 104.491 152.365 104.298 151.981 104.21H150.367C150.22 104.21 150.028 104.302 149.94 104.688Z" fill="white"/>
<path fill-rule="evenodd" clip-rule="evenodd" d="M145.597 97.4863L145.602 97.4863C145.639 97.4863 145.676 97.4908 145.712 97.4997C146.026 97.5773 146.29 97.744 146.472 97.996C146.651 98.2442 146.725 98.5407 146.725 98.8401V100.402C146.725 100.743 146.658 101.056 146.492 101.328C146.325 101.601 146.084 101.793 145.806 101.932C145.791 101.94 145.776 101.946 145.76 101.952C141.342 103.581 137.791 107.053 136.177 111.606L136.174 111.613C133.051 119.964 137.358 129.404 145.757 132.443C145.793 132.456 145.827 132.473 145.858 132.495C146.076 132.642 146.282 132.851 146.436 133.076C146.584 133.291 146.725 133.58 146.725 133.885V135.446C146.725 135.453 146.725 135.46 146.725 135.466C146.725 135.561 146.726 135.687 146.702 135.804C146.679 135.919 146.635 136.023 146.567 136.118C146.463 136.416 146.254 136.657 145.974 136.788C145.668 136.93 145.314 136.923 144.989 136.771C138.661 134.711 133.799 129.805 131.763 123.425L131.762 123.423C128.372 112.604 134.226 101.103 144.941 97.6457C145.073 97.556 145.214 97.5221 145.305 97.5068C145.426 97.4862 145.541 97.4863 145.597 97.4863ZM145.447 98.4193C145.403 98.4557 145.351 98.4835 145.297 98.501C135.019 101.771 129.389 112.781 132.636 123.143C134.585 129.25 139.238 133.938 145.299 135.901C145.321 135.908 145.342 135.917 145.362 135.927C145.471 135.982 145.547 135.969 145.589 135.949C145.634 135.928 145.686 135.88 145.711 135.781C145.728 135.712 145.761 135.648 145.806 135.594C145.807 135.589 145.807 135.583 145.807 135.577C145.809 135.544 145.809 135.505 145.809 135.446V133.885C145.809 133.852 145.784 133.75 145.682 133.602C145.599 133.48 145.491 133.369 145.388 133.291C136.548 130.056 132.021 120.104 135.315 111.291C137.022 106.48 140.769 102.817 145.419 101.094C145.572 101.014 145.658 100.931 145.711 100.845C145.766 100.754 145.809 100.62 145.809 100.402V98.8401C145.809 98.6921 145.773 98.5975 145.73 98.5391C145.696 98.4916 145.641 98.4434 145.541 98.4105C145.535 98.4107 145.529 98.4109 145.523 98.4112C145.496 98.4124 145.474 98.4146 145.456 98.4176C145.453 98.4182 145.45 98.4188 145.447 98.4193ZM157.513 97.6285C163.729 99.6881 168.702 104.592 170.738 111.086L170.738 111.086C174.128 121.905 168.274 133.406 157.559 136.863C157.427 136.953 157.286 136.987 157.196 137.002C157.074 137.023 156.959 137.023 156.903 137.022H156.898C156.861 137.022 156.824 137.018 156.788 137.009C156.474 136.931 156.21 136.765 156.028 136.513C155.849 136.265 155.775 135.968 155.775 135.669V134.107C155.775 133.766 155.842 133.453 156.008 133.18C156.175 132.908 156.416 132.716 156.694 132.577C156.709 132.569 156.724 132.562 156.74 132.557C161.158 130.928 164.709 127.456 166.323 122.903L166.326 122.896C169.449 114.545 165.142 105.104 156.743 102.066C156.707 102.053 156.673 102.036 156.642 102.014C156.423 101.866 156.213 101.653 156.055 101.406C155.898 101.16 155.775 100.851 155.775 100.514V98.9526C155.775 98.9461 155.775 98.9394 155.775 98.9325C155.775 98.8385 155.774 98.7118 155.798 98.5953C155.821 98.4804 155.865 98.3761 155.933 98.2809C156.037 97.9832 156.246 97.7419 156.526 97.6113C156.833 97.4686 157.186 97.4759 157.513 97.6285ZM156.911 98.4497C156.866 98.4705 156.814 98.5193 156.789 98.6179C156.772 98.6869 156.739 98.7508 156.694 98.8047C156.693 98.8097 156.693 98.8155 156.693 98.8221C156.691 98.8547 156.691 98.8936 156.691 98.9526V100.514C156.691 100.625 156.734 100.762 156.826 100.906C156.906 101.032 157.011 101.141 157.112 101.218C165.952 104.453 170.479 114.404 167.185 123.218C165.478 128.029 161.731 131.692 157.081 133.414C156.928 133.494 156.842 133.578 156.789 133.664C156.734 133.755 156.691 133.889 156.691 134.107V135.669C156.691 135.817 156.727 135.911 156.77 135.97C156.804 136.017 156.859 136.065 156.959 136.098C156.965 136.098 156.971 136.098 156.977 136.098C157.004 136.096 157.026 136.094 157.044 136.091C157.047 136.091 157.05 136.09 157.053 136.089C157.097 136.053 157.149 136.025 157.203 136.008C167.482 132.737 173.111 121.727 169.864 111.364C167.916 105.151 163.155 100.461 157.199 98.4968C157.178 98.4899 157.157 98.4814 157.138 98.4715C157.029 98.417 156.954 98.4298 156.911 98.4497Z" fill="white"/>
</g>
<g opacity="0.12">
<path fill-rule="evenodd" clip-rule="evenodd" d="M272.782 104.551C272.918 103.858 273.382 103.286 274.117 103.286H275.779C275.809 103.286 275.838 103.289 275.867 103.295C276.555 103.432 277.122 103.899 277.122 104.64V106.91C279.677 107.311 281.644 109.29 282.099 111.811C282.104 111.838 282.107 111.866 282.107 111.893V112.006C282.107 112.708 281.569 113.25 280.872 113.25H279.099C278.581 113.25 278.066 112.911 277.888 112.378L277.888 112.377C277.636 111.613 277.275 111.128 276.792 110.822C276.298 110.51 275.62 110.349 274.668 110.349C273.621 110.349 272.906 110.587 272.462 110.945C272.032 111.292 271.803 111.792 271.803 112.453C271.803 113.162 271.95 113.611 272.381 113.962C272.857 114.351 273.743 114.674 275.39 114.896C277.728 115.177 279.578 115.662 280.844 116.634C282.148 117.636 282.769 119.101 282.769 121.158C282.769 124.319 280.521 126.755 277.231 127.457V129.753C277.231 129.783 277.228 129.813 277.223 129.842C277.087 130.536 276.623 131.107 275.888 131.107H274.226C274.197 131.107 274.167 131.104 274.138 131.098C273.45 130.962 272.883 130.494 272.883 129.753V127.465C271.175 127.147 269.852 126.499 268.885 125.568C267.845 124.565 267.254 123.266 267.019 121.791C267.015 121.767 267.013 121.742 267.013 121.718V121.605C267.013 120.903 267.551 120.361 268.248 120.361H270.13C270.681 120.361 271.19 120.737 271.351 121.38C271.352 121.388 271.354 121.395 271.356 121.402C271.509 122.174 271.803 122.783 272.339 123.208C272.88 123.637 273.734 123.932 275.114 123.932C277.062 123.932 278.311 122.825 278.311 121.38C278.311 120.975 278.254 120.667 278.146 120.421C278.041 120.181 277.875 119.975 277.616 119.788C277.074 119.396 276.148 119.102 274.603 118.824C272.263 118.543 270.446 118.029 269.21 117.057C267.938 116.057 267.345 114.622 267.345 112.675C267.345 109.724 269.495 107.404 272.774 106.811V104.64C272.774 104.61 272.777 104.58 272.782 104.551ZM273.69 104.688V107.206C273.69 107.437 273.52 107.633 273.293 107.664C270.148 108.087 268.262 110.163 268.262 112.675C268.262 114.411 268.777 115.544 269.775 116.329C270.807 117.142 272.418 117.632 274.724 117.909C274.733 117.91 274.742 117.911 274.751 117.912C276.3 118.191 277.42 118.51 278.15 119.037C278.528 119.311 278.806 119.642 278.984 120.047C279.16 120.447 279.228 120.892 279.228 121.38C279.228 123.509 277.377 124.855 275.114 124.855C273.616 124.855 272.532 124.537 271.772 123.934C271.01 123.33 270.639 122.493 270.459 121.596C270.425 121.468 270.368 121.394 270.315 121.351C270.259 121.306 270.194 121.285 270.13 121.285H268.248C268.057 121.285 267.93 121.413 267.93 121.605V121.681C268.143 122.98 268.657 124.069 269.519 124.9C270.39 125.74 271.652 126.35 273.41 126.618C273.634 126.652 273.799 126.846 273.799 127.075V129.753C273.799 129.902 273.891 130.096 274.274 130.183H275.888C276.035 130.183 276.228 130.091 276.315 129.705V127.075C276.315 126.849 276.477 126.656 276.697 126.619C279.842 126.089 281.852 123.903 281.852 121.158C281.852 119.31 281.309 118.153 280.288 117.369C279.228 116.555 277.59 116.091 275.278 115.812L275.272 115.812L275.272 115.812C273.598 115.586 272.49 115.24 271.804 114.68C271.072 114.084 270.886 113.306 270.886 112.453C270.886 111.553 271.212 110.77 271.89 110.224C272.553 109.689 273.499 109.425 274.668 109.425C275.709 109.425 276.582 109.599 277.279 110.04C277.986 110.487 278.457 111.174 278.757 112.084C278.803 112.221 278.953 112.326 279.099 112.326H280.872C281.063 112.326 281.19 112.198 281.19 112.006V111.936C280.768 109.7 278.947 107.981 276.624 107.779C276.388 107.758 276.206 107.558 276.206 107.319V104.64C276.206 104.491 276.115 104.298 275.731 104.21H274.117C273.97 104.21 273.778 104.302 273.69 104.688Z" fill="white"/>
<path fill-rule="evenodd" clip-rule="evenodd" d="M269.347 97.4863L269.352 97.4863C269.389 97.4863 269.426 97.4908 269.462 97.4997C269.776 97.5773 270.04 97.744 270.222 97.996C270.401 98.2442 270.475 98.5407 270.475 98.8401V100.402C270.475 100.743 270.408 101.056 270.242 101.328C270.075 101.601 269.834 101.793 269.556 101.932C269.541 101.94 269.526 101.946 269.51 101.952C265.092 103.581 261.541 107.053 259.927 111.606L259.924 111.613C256.801 119.964 261.108 129.404 269.507 132.443C269.543 132.456 269.577 132.473 269.608 132.495C269.826 132.642 270.032 132.851 270.186 133.076C270.334 133.291 270.475 133.58 270.475 133.885V135.446C270.475 135.453 270.475 135.46 270.475 135.466C270.475 135.561 270.476 135.687 270.452 135.804C270.429 135.919 270.385 136.023 270.317 136.118C270.213 136.416 270.004 136.657 269.724 136.788C269.418 136.93 269.064 136.923 268.739 136.771C262.411 134.711 257.549 129.805 255.513 123.425L255.512 123.423C252.122 112.604 257.976 101.103 268.691 97.6457C268.823 97.556 268.964 97.5221 269.055 97.5068C269.176 97.4862 269.291 97.4863 269.347 97.4863ZM269.197 98.4193C269.153 98.4557 269.101 98.4835 269.047 98.501C258.769 101.771 253.139 112.781 256.386 123.143C258.335 129.25 262.988 133.938 269.049 135.901C269.071 135.908 269.092 135.917 269.112 135.927C269.221 135.982 269.297 135.969 269.339 135.949C269.384 135.928 269.436 135.88 269.461 135.781C269.478 135.712 269.511 135.648 269.556 135.594C269.557 135.589 269.557 135.583 269.557 135.577C269.559 135.544 269.559 135.505 269.559 135.446V133.885C269.559 133.852 269.534 133.75 269.432 133.602C269.349 133.48 269.241 133.369 269.138 133.291C260.298 130.056 255.771 120.104 259.065 111.291C260.772 106.48 264.519 102.817 269.169 101.094C269.322 101.014 269.408 100.931 269.461 100.845C269.516 100.754 269.559 100.62 269.559 100.402V98.8401C269.559 98.6921 269.523 98.5975 269.48 98.5391C269.446 98.4916 269.391 98.4434 269.291 98.4105C269.285 98.4107 269.279 98.4109 269.273 98.4112C269.246 98.4124 269.224 98.4146 269.206 98.4176C269.203 98.4182 269.2 98.4188 269.197 98.4193ZM281.263 97.6285C287.479 99.6881 292.452 104.592 294.488 111.086L294.488 111.086C297.878 121.905 292.024 133.406 281.309 136.863C281.177 136.953 281.036 136.987 280.946 137.002C280.824 137.023 280.709 137.023 280.653 137.022H280.648C280.611 137.022 280.574 137.018 280.538 137.009C280.224 136.931 279.96 136.765 279.778 136.513C279.599 136.265 279.525 135.968 279.525 135.669V134.107C279.525 133.766 279.592 133.453 279.758 133.18C279.925 132.908 280.166 132.716 280.444 132.577C280.459 132.569 280.474 132.562 280.49 132.557C284.908 130.928 288.459 127.456 290.073 122.903L290.076 122.896C293.199 114.545 288.892 105.104 280.493 102.066C280.457 102.053 280.423 102.036 280.392 102.014C280.173 101.866 279.963 101.653 279.805 101.406C279.648 101.16 279.525 100.851 279.525 100.514V98.9526C279.525 98.9461 279.525 98.9394 279.525 98.9325C279.525 98.8385 279.524 98.7118 279.548 98.5953C279.571 98.4804 279.615 98.3761 279.683 98.2809C279.787 97.9832 279.996 97.7419 280.276 97.6113C280.583 97.4686 280.936 97.4759 281.263 97.6285ZM280.661 98.4497C280.616 98.4705 280.564 98.5193 280.539 98.6179C280.522 98.6869 280.489 98.7508 280.444 98.8047C280.443 98.8097 280.443 98.8155 280.443 98.8221C280.441 98.8547 280.441 98.8936 280.441 98.9526V100.514C280.441 100.625 280.484 100.762 280.576 100.906C280.656 101.032 280.761 101.141 280.862 101.218C289.702 104.453 294.229 114.404 290.935 123.218C289.228 128.029 285.481 131.692 280.831 133.414C280.678 133.494 280.592 133.578 280.539 133.664C280.484 133.755 280.441 133.889 280.441 134.107V135.669C280.441 135.817 280.477 135.911 280.52 135.97C280.554 136.017 280.609 136.065 280.709 136.098C280.715 136.098 280.721 136.098 280.727 136.098C280.754 136.096 280.776 136.094 280.794 136.091C280.797 136.091 280.8 136.09 280.803 136.089C280.847 136.053 280.899 136.025 280.953 136.008C291.232 132.737 296.861 121.727 293.614 111.364C291.666 105.151 286.905 100.461 280.949 98.4968C280.928 98.4899 280.907 98.4814 280.888 98.4715C280.779 98.417 280.704 98.4298 280.661 98.4497Z" fill="white"/>
</g>
<path d="M60.5 54.9999C60.5 52.9749 62.1416 51.3333 64.1667 51.3333H114.583C116.608 51.3333 118.25 52.9749 118.25 54.9999C118.25 57.025 116.608 58.6666 114.583 58.6666H64.1667C62.1416 58.6666 60.5 57.025 60.5 54.9999Z" fill="white" fill-opacity="0.02"/>
<path fill-rule="evenodd" clip-rule="evenodd" d="M114.583 52.2499H64.1667C62.6479 52.2499 61.4167 53.4811 61.4167 54.9999C61.4167 56.5187 62.6479 57.7499 64.1667 57.7499H114.583C116.102 57.7499 117.333 56.5187 117.333 54.9999C117.333 53.4811 116.102 52.2499 114.583 52.2499ZM64.1667 51.3333C62.1416 51.3333 60.5 52.9749 60.5 54.9999C60.5 57.025 62.1416 58.6666 64.1667 58.6666H114.583C116.608 58.6666 118.25 57.025 118.25 54.9999C118.25 52.9749 116.608 51.3333 114.583 51.3333H64.1667Z" fill="white" fill-opacity="0.08"/>
<path d="M184.25 54.9999C184.25 52.9749 185.892 51.3333 187.917 51.3333H238.333C240.358 51.3333 242 52.9749 242 54.9999C242 57.025 240.358 58.6666 238.333 58.6666H187.917C185.892 58.6666 184.25 57.025 184.25 54.9999Z" fill="white" fill-opacity="0.02"/>
<path fill-rule="evenodd" clip-rule="evenodd" d="M238.333 52.2499H187.917C186.398 52.2499 185.167 53.4811 185.167 54.9999C185.167 56.5187 186.398 57.7499 187.917 57.7499H238.333C239.852 57.7499 241.083 56.5187 241.083 54.9999C241.083 53.4811 239.852 52.2499 238.333 52.2499ZM187.917 51.3333C185.892 51.3333 184.25 52.9749 184.25 54.9999C184.25 57.025 185.892 58.6666 187.917 58.6666H238.333C240.358 58.6666 242 57.025 242 54.9999C242 52.9749 240.358 51.3333 238.333 51.3333H187.917Z" fill="white" fill-opacity="0.08"/>
<path fill-rule="evenodd" clip-rule="evenodd" d="M27.3691 100.391C27.5494 100.367 27.7263 100.454 27.8202 100.61L37.4946 116.785C37.5577 116.89 37.5764 117.017 37.5465 117.136C37.5166 117.255 37.4405 117.358 37.3353 117.42L27.6608 123.182C27.4809 123.29 27.2519 123.26 27.1039 123.112L26.8924 122.899C26.8062 122.813 26.7578 122.695 26.7578 122.572V101.573C26.7578 101.528 26.7641 101.484 26.7765 101.442L26.9879 100.718C27.0393 100.543 27.1888 100.414 27.3691 100.391ZM27.6745 102.156V122.101L36.4709 116.862L27.6745 102.156Z" fill="#00FF60"/>
<path fill-rule="evenodd" clip-rule="evenodd" d="M27.5503 100.404C27.7486 100.459 27.8858 100.641 27.8858 100.849V122.785C27.8858 122.951 27.7976 123.104 27.6546 123.186C27.5117 123.268 27.336 123.267 27.1943 123.182L17.5195 117.42C17.4143 117.358 17.3383 117.255 17.3084 117.136C17.2785 117.017 17.2971 116.89 17.3602 116.785L27.0349 100.61C27.1412 100.433 27.3519 100.348 27.5503 100.404ZM18.3839 116.862L26.9692 121.975V102.51L18.3839 116.862Z" fill="#00FF60"/>
<path d="M60.5 54.9999C60.5 52.9749 62.1416 51.3333 64.1667 51.3333H84.3333C86.3584 51.3333 88 52.9749 88 54.9999C88 57.025 86.3584 58.6666 84.3333 58.6666H64.1667C62.1416 58.6666 60.5 57.025 60.5 54.9999Z" fill="#00FF60"/>
<path fill-rule="evenodd" clip-rule="evenodd" d="M84.3333 52.2499H64.1667C62.6479 52.2499 61.4167 53.4811 61.4167 54.9999C61.4167 56.5187 62.6479 57.7499 64.1667 57.7499H84.3333C85.8521 57.7499 87.0833 56.5187 87.0833 54.9999C87.0833 53.4811 85.8521 52.2499 84.3333 52.2499ZM64.1667 51.3333C62.1416 51.3333 60.5 52.9749 60.5 54.9999C60.5 57.025 62.1416 58.6666 64.1667 58.6666H84.3333C86.3584 58.6666 88 57.025 88 54.9999C88 52.9749 86.3584 51.3333 84.3333 51.3333H64.1667Z" fill="white" fill-opacity="0.08"/>
</g>
<defs>
<linearGradient id="paint0_linear_2112_21595" x1="137.5" y1="0" x2="275" y2="0" gradientUnits="userSpaceOnUse">
<stop stop-color="#D9D9D9"/>
<stop offset="1" stop-color="#D9D9D9" stop-opacity="0"/>
</linearGradient>
</defs>
</svg>
