<svg width="600" height="240" viewBox="0 0 600 240" fill="none" xmlns="http://www.w3.org/2000/svg">
<mask id="mask0_1905_31251" style="mask-type:alpha" maskUnits="userSpaceOnUse" x="0" y="0" width="600" height="240">
<rect width="600" height="240" fill="url(#paint0_linear_1905_31251)"/>
</mask>
<g mask="url(#mask0_1905_31251)">
<circle cx="60" cy="120" r="60" fill="#00FF60" fill-opacity="0.04"/>
<circle cx="60" cy="120" r="59" stroke="#00FF60" stroke-opacity="0.48" stroke-width="2"/>
<circle cx="330" cy="120" r="60" fill="white" fill-opacity="0.02"/>
<circle cx="330" cy="120" r="59" stroke="white" stroke-opacity="0.08" stroke-width="2"/>
<circle cx="600" cy="120" r="60" fill="white" fill-opacity="0.02"/>
<circle cx="600" cy="120" r="59" stroke="white" stroke-opacity="0.08" stroke-width="2"/>
<g opacity="0.12">
<path d="M345.95 129.178C345.95 120.721 340.875 117.821 330.725 116.609C323.475 115.641 322.025 113.709 322.025 110.328C322.025 106.946 324.443 104.771 329.275 104.771C333.625 104.771 336.043 106.221 337.25 109.846C337.493 110.571 338.218 111.053 338.943 111.053H342.812C343.781 111.053 344.506 110.328 344.506 109.359V109.116C343.537 103.797 339.187 99.6906 333.631 99.2092V93.4092C333.631 92.4406 332.906 91.7156 331.699 91.4778H328.074C327.106 91.4778 326.381 92.2028 326.143 93.4092V98.9656C318.893 99.9342 314.299 104.766 314.299 110.809C314.299 118.784 319.131 121.928 329.281 123.134C336.049 124.341 338.224 125.791 338.224 129.659C338.224 133.528 334.843 136.184 330.249 136.184C323.968 136.184 321.793 133.528 321.068 129.903C320.824 128.934 320.099 128.453 319.374 128.453H315.268C314.299 128.453 313.574 129.178 313.574 130.146V130.39C314.543 136.434 318.406 140.784 326.381 141.99V147.79C326.381 148.759 327.106 149.484 328.312 149.721H331.937C332.906 149.721 333.631 148.996 333.868 147.79V141.99C341.113 140.778 345.95 135.703 345.95 129.178Z" stroke="white" stroke-width="2" stroke-linejoin="round"/>
<path d="M317.678 154.556C298.828 147.787 289.159 126.762 296.171 108.156C299.796 98.0056 307.771 90.2742 317.678 86.6492C318.646 86.1678 319.128 85.4428 319.128 84.2305V80.8491C319.128 79.8805 318.646 79.1555 317.678 78.9177C317.434 78.9177 316.953 78.9177 316.709 79.1613C293.753 86.4114 281.184 110.818 288.434 133.78C292.784 147.312 303.178 157.705 316.709 162.055C317.678 162.537 318.64 162.055 318.884 161.087C319.128 160.843 319.128 160.605 319.128 160.118V156.737C319.128 156.006 318.403 155.043 317.678 154.556ZM343.29 79.1555C342.322 78.6741 341.359 79.1555 341.115 80.1241C340.872 80.3677 340.872 80.6055 340.872 81.0927V84.4741C340.872 85.4428 341.597 86.4056 342.322 86.8928C361.172 93.6614 370.84 114.686 363.828 133.293C360.203 143.443 352.228 151.174 342.322 154.799C341.353 155.281 340.872 156.006 340.872 157.218V160.599C340.872 161.568 341.353 162.293 342.322 162.531C342.565 162.531 343.047 162.531 343.29 162.287C366.246 155.037 378.815 130.631 371.565 107.668C367.215 93.8992 356.584 83.5055 343.29 79.1555Z" stroke="white" stroke-width="2" stroke-linejoin="round"/>
</g>
<g opacity="0.12">
<path d="M615.95 129.178C615.95 120.721 610.875 117.821 600.725 116.609C593.475 115.641 592.025 113.709 592.025 110.328C592.025 106.946 594.443 104.771 599.275 104.771C603.625 104.771 606.043 106.221 607.25 109.846C607.493 110.571 608.218 111.053 608.943 111.053H612.812C613.781 111.053 614.506 110.328 614.506 109.359V109.116C613.537 103.797 609.187 99.6906 603.631 99.2092V93.4092C603.631 92.4406 602.906 91.7156 601.699 91.4778H598.074C597.106 91.4778 596.381 92.2028 596.143 93.4092V98.9656C588.893 99.9342 584.299 104.766 584.299 110.809C584.299 118.784 589.131 121.928 599.281 123.134C606.049 124.341 608.224 125.791 608.224 129.659C608.224 133.528 604.843 136.184 600.249 136.184C593.968 136.184 591.793 133.528 591.068 129.903C590.824 128.934 590.099 128.453 589.374 128.453H585.268C584.299 128.453 583.574 129.178 583.574 130.146V130.39C584.543 136.434 588.406 140.784 596.381 141.99V147.79C596.381 148.759 597.106 149.484 598.312 149.721H601.937C602.906 149.721 603.631 148.996 603.868 147.79V141.99C611.113 140.778 615.95 135.703 615.95 129.178Z" stroke="white" stroke-width="2" stroke-linejoin="round"/>
<path d="M587.678 154.556C568.828 147.787 559.159 126.762 566.171 108.156C569.796 98.0056 577.771 90.2742 587.678 86.6492C588.646 86.1678 589.128 85.4428 589.128 84.2305V80.8491C589.128 79.8805 588.646 79.1555 587.678 78.9177C587.434 78.9177 586.953 78.9177 586.709 79.1613C563.753 86.4114 551.184 110.818 558.434 133.78C562.784 147.312 573.178 157.705 586.709 162.055C587.678 162.537 588.64 162.055 588.884 161.087C589.128 160.843 589.128 160.605 589.128 160.118V156.737C589.128 156.006 588.403 155.043 587.678 154.556ZM613.29 79.1555C612.322 78.6741 611.359 79.1555 611.115 80.1241C610.872 80.3677 610.872 80.6055 610.872 81.0927V84.4741C610.872 85.4428 611.597 86.4056 612.322 86.8928C631.172 93.6614 640.84 114.686 633.828 133.293C630.203 143.443 622.228 151.174 612.322 154.799C611.353 155.281 610.872 156.006 610.872 157.218V160.599C610.872 161.568 611.353 162.293 612.322 162.531C612.565 162.531 613.047 162.531 613.29 162.287C636.246 155.037 648.815 130.631 641.565 107.668C637.215 93.8992 626.584 83.5055 613.29 79.1555Z" stroke="white" stroke-width="2" stroke-linejoin="round"/>
</g>
<rect x="132" y="112" width="126" height="16" rx="8" fill="white" fill-opacity="0.02"/>
<rect x="133" y="113" width="124" height="14" rx="7" stroke="white" stroke-opacity="0.08" stroke-width="2"/>
<rect x="402" y="112" width="126" height="16" rx="8" fill="white" fill-opacity="0.02"/>
<rect x="403" y="113" width="124" height="14" rx="7" stroke="white" stroke-opacity="0.08" stroke-width="2"/>
<path d="M59.8418 85.1987L59.3804 86.766V132.24L59.8418 132.7L80.9497 120.223L59.8418 85.1987Z" stroke="#00FF60" stroke-width="2" stroke-linejoin="round"/>
<path d="M59.8419 85.1987L38.7334 120.223L59.8419 132.7V110.628V85.1987Z" stroke="#00FF60" stroke-width="2" stroke-linejoin="round"/>
<path d="M59.8372 136.697L59.5771 137.015V153.213L59.8372 153.972L80.9581 124.227L59.8372 136.697Z" stroke="#00FF60" stroke-width="2" stroke-linejoin="round"/>
<path d="M59.8419 153.972V136.697L38.7334 124.227L59.8419 153.972Z" stroke="#00FF60" stroke-width="2" stroke-linejoin="round"/>
<path d="M59.8389 132.699L80.9468 120.222L59.8389 110.628V132.699Z" stroke="#00FF60" stroke-width="2" stroke-linejoin="round"/>
<path d="M38.7334 120.222L59.8419 132.699V110.628L38.7334 120.222Z" stroke="#00FF60" stroke-width="2" stroke-linejoin="round"/>
<rect x="132" y="112" width="60" height="16" rx="8" fill="#00FF60"/>
<rect x="133" y="113" width="58" height="14" rx="7" stroke="white" stroke-opacity="0.08" stroke-width="2"/>
</g>
<defs>
<linearGradient id="paint0_linear_1905_31251" x1="300" y1="0" x2="600" y2="0" gradientUnits="userSpaceOnUse">
<stop stop-color="#D9D9D9"/>
<stop offset="1" stop-color="#D9D9D9" stop-opacity="0"/>
</linearGradient>
</defs>
</svg>
