<svg width="275" height="110" viewBox="0 0 275 110" fill="none" xmlns="http://www.w3.org/2000/svg">
<mask id="mask0_2112_21595" style="mask-type:alpha" maskUnits="userSpaceOnUse" x="0" y="0" width="275" height="110">
<path d="M0 0H275V110H0V0Z" fill="url(#paint0_linear_2112_21595)"/>
</mask>
<g mask="url(#mask0_2112_21595)">
<path d="M55 55C55 70.1878 42.6878 82.5 27.5 82.5C12.3122 82.5 0 70.1878 0 55C0 39.8122 12.3122 27.5 27.5 27.5C42.6878 27.5 55 39.8122 55 55Z" fill="#00FF60" fill-opacity="0.04"/>
<path fill-rule="evenodd" clip-rule="evenodd" d="M27.5 81.5833C42.1816 81.5833 54.0833 69.6816 54.0833 55C54.0833 40.3184 42.1816 28.4167 27.5 28.4167C12.8184 28.4167 0.916667 40.3184 0.916667 55C0.916667 69.6816 12.8184 81.5833 27.5 81.5833ZM27.5 82.5C42.6878 82.5 55 70.1878 55 55C55 39.8122 42.6878 27.5 27.5 27.5C12.3122 27.5 0 39.8122 0 55C0 70.1878 12.3122 82.5 27.5 82.5Z" fill="#00FF60" fill-opacity="0.48"/>
<path d="M178.75 55C178.75 70.1878 166.438 82.5 151.25 82.5C136.062 82.5 123.75 70.1878 123.75 55C123.75 39.8122 136.062 27.5 151.25 27.5C166.438 27.5 178.75 39.8122 178.75 55Z" fill="white" fill-opacity="0.02"/>
<path fill-rule="evenodd" clip-rule="evenodd" d="M151.25 81.5833C165.932 81.5833 177.833 69.6816 177.833 55C177.833 40.3184 165.932 28.4167 151.25 28.4167C136.568 28.4167 124.667 40.3184 124.667 55C124.667 69.6816 136.568 81.5833 151.25 81.5833ZM151.25 82.5C166.438 82.5 178.75 70.1878 178.75 55C178.75 39.8122 166.438 27.5 151.25 27.5C136.062 27.5 123.75 39.8122 123.75 55C123.75 70.1878 136.062 82.5 151.25 82.5Z" fill="white" fill-opacity="0.08"/>
<path d="M302.5 55C302.5 70.1878 290.188 82.5 275 82.5C259.812 82.5 247.5 70.1878 247.5 55C247.5 39.8122 259.812 27.5 275 27.5C290.188 27.5 302.5 39.8122 302.5 55Z" fill="white" fill-opacity="0.02"/>
<path fill-rule="evenodd" clip-rule="evenodd" d="M275 81.5833C289.682 81.5833 301.583 69.6816 301.583 55C301.583 40.3184 289.682 28.4167 275 28.4167C260.318 28.4167 248.417 40.3184 248.417 55C248.417 69.6816 260.318 81.5833 275 81.5833ZM275 82.5C290.188 82.5 302.5 70.1878 302.5 55C302.5 39.8122 290.188 27.5 275 27.5C259.812 27.5 247.5 39.8122 247.5 55C247.5 70.1878 259.812 82.5 275 82.5Z" fill="white" fill-opacity="0.08"/>
<path d="M60.5 54.9999C60.5 52.9749 62.1416 51.3333 64.1667 51.3333H114.583C116.608 51.3333 118.25 52.9749 118.25 54.9999C118.25 57.025 116.608 58.6666 114.583 58.6666H64.1667C62.1416 58.6666 60.5 57.025 60.5 54.9999Z" fill="white" fill-opacity="0.02"/>
<path fill-rule="evenodd" clip-rule="evenodd" d="M114.583 52.2499H64.1667C62.6479 52.2499 61.4167 53.4811 61.4167 54.9999C61.4167 56.5187 62.6479 57.7499 64.1667 57.7499H114.583C116.102 57.7499 117.333 56.5187 117.333 54.9999C117.333 53.4811 116.102 52.2499 114.583 52.2499ZM64.1667 51.3333C62.1416 51.3333 60.5 52.9749 60.5 54.9999C60.5 57.025 62.1416 58.6666 64.1667 58.6666H114.583C116.608 58.6666 118.25 57.025 118.25 54.9999C118.25 52.9749 116.608 51.3333 114.583 51.3333H64.1667Z" fill="white" fill-opacity="0.08"/>
<path d="M184.25 54.9999C184.25 52.9749 185.892 51.3333 187.917 51.3333H238.333C240.358 51.3333 242 52.9749 242 54.9999C242 57.025 240.358 58.6666 238.333 58.6666H187.917C185.892 58.6666 184.25 57.025 184.25 54.9999Z" fill="white" fill-opacity="0.02"/>
<path fill-rule="evenodd" clip-rule="evenodd" d="M238.333 52.2499H187.917C186.398 52.2499 185.167 53.4811 185.167 54.9999C185.167 56.5187 186.398 57.7499 187.917 57.7499H238.333C239.852 57.7499 241.083 56.5187 241.083 54.9999C241.083 53.4811 239.852 52.2499 238.333 52.2499ZM187.917 51.3333C185.892 51.3333 184.25 52.9749 184.25 54.9999C184.25 57.025 185.892 58.6666 187.917 58.6666H238.333C240.358 58.6666 242 57.025 242 54.9999C242 52.9749 240.358 51.3333 238.333 51.3333H187.917Z" fill="white" fill-opacity="0.08"/>
<path d="M60.5 54.9999C60.5 52.9749 62.1416 51.3333 64.1667 51.3333H84.3333C86.3584 51.3333 88 52.9749 88 54.9999C88 57.025 86.3584 58.6666 84.3333 58.6666H64.1667C62.1416 58.6666 60.5 57.025 60.5 54.9999Z" fill="#00FF60"/>
<path fill-rule="evenodd" clip-rule="evenodd" d="M84.3333 52.2499H64.1667C62.6479 52.2499 61.4167 53.4811 61.4167 54.9999C61.4167 56.5187 62.6479 57.7499 64.1667 57.7499H84.3333C85.8521 57.7499 87.0833 56.5187 87.0833 54.9999C87.0833 53.4811 85.8521 52.2499 84.3333 52.2499ZM64.1667 51.3333C62.1416 51.3333 60.5 52.9749 60.5 54.9999C60.5 57.025 62.1416 58.6666 64.1667 58.6666H84.3333C86.3584 58.6666 88 57.025 88 54.9999C88 52.9749 86.3584 51.3333 84.3333 51.3333H64.1667Z" fill="white" fill-opacity="0.08"/>
</g>
<defs>
<linearGradient id="paint0_linear_2112_21595" x1="137.5" y1="0" x2="275" y2="0" gradientUnits="userSpaceOnUse">
<stop stop-color="#D9D9D9"/>
<stop offset="1" stop-color="#D9D9D9" stop-opacity="0"/>
</linearGradient>
</defs>
</svg>
