<svg width="275" height="110" viewBox="0 0 275 110" fill="none" xmlns="http://www.w3.org/2000/svg">
<mask id="mask0_2702_20811" style="mask-type:alpha" maskUnits="userSpaceOnUse" x="0" y="0" width="275" height="110">
<rect width="275" height="110" fill="url(#paint0_linear_2702_20811)"/>
</mask>
<g mask="url(#mask0_2702_20811)">
<circle cx="27.5" cy="55" r="27.5" fill="#00FF60" fill-opacity="0.04"/>
<circle cx="27.5" cy="55" r="27" stroke="#00FF60" stroke-opacity="0.48"/>
<circle cx="151.25" cy="55" r="27.5" fill="white" fill-opacity="0.02"/>
<circle cx="151.25" cy="55" r="27" stroke="white" stroke-opacity="0.08"/>
<circle cx="275" cy="55" r="27.5" fill="white" fill-opacity="0.02"/>
<circle cx="275" cy="55" r="27" stroke="white" stroke-opacity="0.08"/>
<g opacity="0.12">
<path d="M158.56 59.2064C158.56 55.3306 156.234 54.0014 151.582 53.4458C148.259 53.0019 147.595 52.1166 147.595 50.5668C147.595 49.017 148.703 48.0201 150.918 48.0201C152.912 48.0201 154.02 48.6847 154.573 50.3462C154.685 50.6785 155.017 50.8991 155.349 50.8991H157.122C157.566 50.8991 157.899 50.5668 157.899 50.1229V50.0112C157.455 47.5735 155.461 45.6914 152.914 45.4708V42.8125C152.914 42.3685 152.582 42.0362 152.029 41.9272H150.368C149.924 41.9272 149.591 42.2595 149.482 42.8125V45.3592C146.159 45.8031 144.054 48.0175 144.054 50.7875C144.054 54.4427 146.268 55.8835 150.92 56.4364C154.023 56.9894 155.02 57.654 155.02 59.4271C155.02 61.2002 153.47 62.4177 151.364 62.4177C148.485 62.4177 147.489 61.2002 147.156 59.5387C147.045 59.0948 146.712 58.8741 146.38 58.8741H144.498C144.054 58.8741 143.722 59.2064 143.722 59.6504V59.762C144.166 62.532 145.936 64.5257 149.591 65.0787V67.737C149.591 68.181 149.924 68.5132 150.477 68.6222H152.138C152.582 68.6222 152.914 68.2899 153.023 67.737V65.0787C156.343 64.5231 158.56 62.197 158.56 59.2064Z" stroke="white" stroke-linejoin="round"/>
<path d="M145.603 70.8379C136.963 67.7356 132.532 58.0991 135.745 49.5711C137.407 44.919 141.062 41.3754 145.603 39.714C146.046 39.4933 146.267 39.161 146.267 38.6055V37.0556C146.267 36.6117 146.046 36.2794 145.603 36.1704C145.491 36.1704 145.27 36.1704 145.159 36.2821C134.637 39.605 128.876 50.7913 132.199 61.3157C134.193 67.5176 138.957 72.2814 145.159 74.2751C145.603 74.4958 146.044 74.2751 146.155 73.8312C146.267 73.7195 146.267 73.6105 146.267 73.3872V71.8374C146.267 71.5025 145.935 71.0612 145.603 70.8379ZM157.342 36.2794C156.898 36.0588 156.456 36.2794 156.345 36.7233C156.233 36.835 156.233 36.944 156.233 37.1673V38.7171C156.233 39.161 156.565 39.6023 156.898 39.8256C165.537 42.9279 169.969 52.5644 166.755 61.0924C165.093 65.7445 161.438 69.2881 156.898 70.9495C156.454 71.1702 156.233 71.5025 156.233 72.0581V73.6079C156.233 74.0518 156.454 74.3841 156.898 74.4931C157.009 74.4931 157.23 74.4931 157.342 74.3815C167.863 71.0585 173.624 59.8722 170.301 49.3478C168.307 43.0369 163.434 38.2732 157.342 36.2794Z" stroke="white" stroke-linejoin="round"/>
</g>
<g opacity="0.12">
<path d="M282.31 59.2064C282.31 55.3306 279.984 54.0014 275.332 53.4458C272.009 53.0019 271.345 52.1166 271.345 50.5668C271.345 49.017 272.453 48.0201 274.668 48.0201C276.662 48.0201 277.77 48.6847 278.323 50.3462C278.435 50.6785 278.767 50.8991 279.099 50.8991H280.872C281.316 50.8991 281.649 50.5668 281.649 50.1229V50.0112C281.205 47.5735 279.211 45.6914 276.664 45.4708V42.8125C276.664 42.3685 276.332 42.0362 275.779 41.9272H274.118C273.674 41.9272 273.341 42.2595 273.232 42.8125V45.3592C269.909 45.8031 267.804 48.0175 267.804 50.7875C267.804 54.4427 270.018 55.8835 274.67 56.4364C277.773 56.9894 278.77 57.654 278.77 59.4271C278.77 61.2002 277.22 62.4177 275.114 62.4177C272.235 62.4177 271.239 61.2002 270.906 59.5387C270.795 59.0948 270.462 58.8741 270.13 58.8741H268.248C267.804 58.8741 267.472 59.2064 267.472 59.6504V59.762C267.916 62.532 269.686 64.5257 273.341 65.0787V67.737C273.341 68.181 273.674 68.5132 274.227 68.6222H275.888C276.332 68.6222 276.664 68.2899 276.773 67.737V65.0787C280.093 64.5231 282.31 62.197 282.31 59.2064Z" stroke="white" stroke-linejoin="round"/>
<path d="M269.353 70.8379C260.713 67.7356 256.282 58.0991 259.495 49.5711C261.157 44.919 264.812 41.3754 269.353 39.714C269.796 39.4933 270.017 39.161 270.017 38.6055V37.0556C270.017 36.6117 269.796 36.2794 269.353 36.1704C269.241 36.1704 269.02 36.1704 268.909 36.2821C258.387 39.605 252.626 50.7913 255.949 61.3157C257.943 67.5176 262.707 72.2814 268.909 74.2751C269.353 74.4958 269.794 74.2751 269.905 73.8312C270.017 73.7195 270.017 73.6105 270.017 73.3872V71.8374C270.017 71.5025 269.685 71.0612 269.353 70.8379ZM281.092 36.2794C280.648 36.0588 280.206 36.2794 280.095 36.7233C279.983 36.835 279.983 36.944 279.983 37.1673V38.7171C279.983 39.161 280.315 39.6023 280.648 39.8256C289.287 42.9279 293.719 52.5644 290.505 61.0924C288.843 65.7445 285.188 69.2881 280.648 70.9495C280.204 71.1702 279.983 71.5025 279.983 72.0581V73.6079C279.983 74.0518 280.204 74.3841 280.648 74.4931C280.759 74.4931 280.98 74.4931 281.092 74.3815C291.613 71.0585 297.374 59.8722 294.051 49.3478C292.057 43.0369 287.184 38.2732 281.092 36.2794Z" stroke="white" stroke-linejoin="round"/>
</g>
<rect x="60.5" y="51.3333" width="57.75" height="7.33333" rx="3.66667" fill="white" fill-opacity="0.02"/>
<rect x="61" y="51.8333" width="56.75" height="6.33333" rx="3.16667" stroke="white" stroke-opacity="0.08"/>
<rect x="184.25" y="51.3333" width="57.75" height="7.33333" rx="3.66667" fill="white" fill-opacity="0.02"/>
<rect x="184.75" y="51.8333" width="56.75" height="6.33333" rx="3.16667" stroke="white" stroke-opacity="0.08"/>
<path d="M27.4278 39.0493L27.2163 39.7676V60.6097L27.4278 60.8207L37.1023 55.102L27.4278 39.0493Z" stroke="#00FF60" stroke-linejoin="round"/>
<path d="M27.4276 39.0493L17.7529 55.102L27.4276 60.8207V50.7045V39.0493Z" stroke="#00FF60" stroke-linejoin="round"/>
<path d="M27.4253 62.653L27.3062 62.7983V70.2226L27.4253 70.5705L37.1057 56.9373L27.4253 62.653Z" stroke="#00FF60" stroke-linejoin="round"/>
<path d="M27.4276 70.5705V62.653L17.7529 56.9373L27.4276 70.5705Z" stroke="#00FF60" stroke-linejoin="round"/>
<path d="M27.4263 60.8208L37.1007 55.1021L27.4263 50.7046V60.8208Z" stroke="#00FF60" stroke-linejoin="round"/>
<path d="M17.7529 55.1021L27.4276 60.8208V50.7046L17.7529 55.1021Z" stroke="#00FF60" stroke-linejoin="round"/>
<rect x="60.5" y="51.3333" width="27.5" height="7.33333" rx="3.66667" fill="#00FF60"/>
<rect x="61" y="51.8333" width="26.5" height="6.33333" rx="3.16667" stroke="white" stroke-opacity="0.08"/>
</g>
<defs>
<linearGradient id="paint0_linear_2702_20811" x1="137.5" y1="0" x2="275" y2="0" gradientUnits="userSpaceOnUse">
<stop stop-color="#D9D9D9"/>
<stop offset="1" stop-color="#D9D9D9" stop-opacity="0"/>
</linearGradient>
</defs>
</svg>
