<svg width="300" height="240" viewBox="0 0 300 240" fill="none" xmlns="http://www.w3.org/2000/svg">
<mask id="mask0_1905_31014" style="mask-type:alpha" maskUnits="userSpaceOnUse" x="0" y="0" width="300" height="240">
<mask id="mask1_1905_31014" style="mask-type:alpha" maskUnits="userSpaceOnUse" x="0" y="0" width="300" height="240">
<rect width="300" height="240" fill="url(#paint0_linear_1905_31014)"/>
</mask>
<g mask="url(#mask1_1905_31014)">
<rect width="300" height="240" fill="url(#paint1_linear_1905_31014)"/>
</g>
</mask>
<g mask="url(#mask0_1905_31014)">
<rect width="363" height="96" rx="22" fill="white" fill-opacity="0.02"/>
<rect x="1" y="1" width="361" height="94" rx="21" stroke="white" stroke-opacity="0.08" stroke-width="2"/>
<rect x="12" y="12" width="72" height="72" rx="12" fill="#00FF60" fill-opacity="0.04"/>
<rect x="13" y="13" width="70" height="70" rx="11" stroke="#00FF60" stroke-opacity="0.48" stroke-width="2"/>
<g clip-path="url(#clip0_1905_31014)">
<path d="M52.0158 65.9994C52.0158 68.2086 50.217 70 47.9987 70C45.7804 70 43.9816 68.2086 43.9816 65.9994H52.0145H52.0158ZM48.0657 26C49.1755 26 50.0736 26.8957 50.0736 27.9996L50.0763 32.177C55.5976 33.1317 59.8304 37.8289 60.0421 43.5502L60.05 43.9994C60.05 51.2764 61.2715 56.9323 63.712 60.9669C64.2853 61.9124 63.979 63.142 63.0283 63.7117C62.7153 63.9002 62.3563 63.9998 61.9921 63.9998H34.0079C32.8981 63.9998 32 63.104 32 62.0001C32 61.6361 32.0999 61.2799 32.288 60.9682C34.6233 57.109 35.8422 51.7662 35.9435 44.941L35.9579 43.5515C36.1709 37.7844 40.4707 33.057 46.0579 32.1561V27.9996C46.0579 26.8957 46.9573 26 48.0657 26Z" fill="#00FF60" fill-opacity="0.08"/>
<path d="M49.0736 27.9996V28.0003L49.0763 32.1777L49.0768 33.0191L49.9059 33.1624C54.9676 34.0376 58.8442 38.3421 59.0424 43.5777L59.05 44.0082C59.0509 51.3726 60.2845 57.2326 62.8564 61.4845L62.857 61.4854C63.1416 61.9549 62.9914 62.568 62.5143 62.8539L62.5122 62.8551C62.3552 62.9497 62.1747 62.9998 61.9921 62.9998H34.0079C33.4469 62.9998 33 62.5483 33 62.0001C33 61.8196 33.0495 61.6418 33.1442 61.4848C35.6064 57.4153 36.8407 51.8738 36.9434 44.9558L36.9434 44.9514L36.9577 43.5755C37.1588 38.2995 41.0963 33.9691 46.2171 33.1433L47.0579 33.0077V32.1561V27.9996C47.0579 27.4519 47.5057 27 48.0657 27C48.6267 27 49.0736 27.4514 49.0736 27.9996ZM50.844 66.9994C50.4302 68.1631 49.3146 69 47.9987 69C46.6827 69 45.5672 68.1631 45.1534 66.9994H50.844Z" stroke="#00FF60" stroke-opacity="0.48" stroke-width="2"/>
</g>
<path opacity="0.6" d="M103.703 38.5568V28.9545H105.614V38.5568H103.703ZM99.8608 34.7074V32.804H109.463V34.7074H99.8608ZM117.156 26.2557C117.805 26.2604 118.444 26.3788 119.074 26.6108C119.703 26.8428 120.272 27.2216 120.778 27.7472C121.29 28.2727 121.697 28.983 122 29.8778C122.308 30.768 122.464 31.8759 122.469 33.2017C122.469 34.4754 122.341 35.6094 122.085 36.6037C121.829 37.5933 121.462 38.429 120.984 39.1108C120.511 39.7926 119.935 40.3111 119.258 40.6662C118.581 41.0213 117.819 41.1989 116.971 41.1989C116.105 41.1989 115.336 41.0284 114.663 40.6875C113.991 40.3466 113.444 39.8755 113.023 39.2741C112.601 38.6681 112.338 37.9721 112.234 37.1861H114.4C114.542 37.8111 114.831 38.3177 115.267 38.706C115.707 39.0895 116.275 39.2812 116.971 39.2812C118.037 39.2812 118.868 38.8172 119.464 37.8892C120.061 36.9564 120.362 35.6544 120.366 33.983H120.253C120.006 34.3902 119.699 34.7405 119.329 35.0341C118.965 35.3277 118.555 35.5549 118.101 35.7159C117.646 35.8769 117.161 35.9574 116.645 35.9574C115.807 35.9574 115.044 35.7514 114.358 35.3395C113.671 34.9276 113.124 34.3617 112.717 33.642C112.31 32.9223 112.106 32.1009 112.106 31.1776C112.106 30.259 112.315 29.4257 112.731 28.6776C113.153 27.9295 113.74 27.3376 114.493 26.902C115.25 26.4616 116.138 26.2462 117.156 26.2557ZM117.163 28.1023C116.609 28.1023 116.11 28.2396 115.665 28.5142C115.224 28.7841 114.876 29.151 114.621 29.6151C114.365 30.0743 114.237 30.5857 114.237 31.1491C114.237 31.7126 114.36 32.224 114.606 32.6832C114.857 33.1378 115.198 33.5 115.629 33.7699C116.065 34.035 116.562 34.1676 117.121 34.1676C117.537 34.1676 117.926 34.0871 118.285 33.9261C118.645 33.7652 118.96 33.5426 119.23 33.2585C119.5 32.9697 119.711 32.643 119.862 32.2784C120.014 31.9138 120.089 31.5303 120.089 31.1278C120.089 30.5928 119.962 30.0956 119.706 29.6364C119.455 29.1771 119.109 28.8078 118.669 28.5284C118.229 28.2443 117.727 28.1023 117.163 28.1023ZM125.535 41.1349C125.146 41.1349 124.812 40.9976 124.533 40.723C124.254 40.4437 124.114 40.1075 124.114 39.7145C124.114 39.3262 124.254 38.9948 124.533 38.7202C124.812 38.4408 125.146 38.3011 125.535 38.3011C125.923 38.3011 126.257 38.4408 126.536 38.7202C126.815 38.9948 126.955 39.3262 126.955 39.7145C126.955 39.9749 126.889 40.214 126.756 40.4318C126.628 40.6449 126.458 40.8153 126.245 40.9432C126.032 41.071 125.795 41.1349 125.535 41.1349ZM129.371 41V39.4091L134.293 34.3097C134.818 33.7557 135.252 33.2704 135.593 32.8537C135.938 32.4323 136.196 32.0322 136.367 31.6534C136.537 31.2746 136.622 30.8722 136.622 30.446C136.622 29.9631 136.509 29.5464 136.282 29.196C136.054 28.8409 135.744 28.5687 135.351 28.3793C134.958 28.1851 134.515 28.0881 134.023 28.0881C133.502 28.0881 133.048 28.1946 132.659 28.4077C132.271 28.6207 131.973 28.9214 131.764 29.3097C131.556 29.6979 131.452 30.1525 131.452 30.6733H129.357C129.357 29.7879 129.56 29.0137 129.968 28.3509C130.375 27.688 130.934 27.1742 131.644 26.8097C132.354 26.4403 133.161 26.2557 134.066 26.2557C134.979 26.2557 135.784 26.438 136.48 26.8026C137.181 27.1624 137.728 27.6548 138.121 28.2798C138.514 28.9001 138.711 29.6009 138.711 30.3821C138.711 30.9219 138.609 31.4498 138.405 31.9659C138.206 32.482 137.858 33.0573 137.361 33.6918C136.864 34.3215 136.173 35.0862 135.287 35.9858L132.397 39.0114V39.1179H138.945V41H129.371ZM146.301 41.2415C145.178 41.2367 144.22 40.9408 143.424 40.3537C142.629 39.7666 142.02 38.9119 141.599 37.7898C141.177 36.6676 140.967 35.3158 140.967 33.7344C140.967 32.1577 141.177 30.8106 141.599 29.6932C142.025 28.5758 142.636 27.7235 143.431 27.1364C144.231 26.5492 145.188 26.2557 146.301 26.2557C147.413 26.2557 148.367 26.5516 149.163 27.1435C149.958 27.7306 150.567 28.5829 150.988 29.7003C151.414 30.813 151.627 32.1577 151.627 33.7344C151.627 35.3205 151.417 36.6747 150.995 37.7969C150.574 38.9143 149.965 39.7689 149.17 40.3608C148.374 40.9479 147.418 41.2415 146.301 41.2415ZM146.301 39.3452C147.285 39.3452 148.055 38.8646 148.609 37.9034C149.168 36.9422 149.447 35.5526 149.447 33.7344C149.447 32.527 149.319 31.5066 149.063 30.6733C148.812 29.8352 148.45 29.2008 147.977 28.7699C147.508 28.3343 146.949 28.1165 146.301 28.1165C145.32 28.1165 144.551 28.5994 143.992 29.5653C143.434 30.5312 143.152 31.9209 143.147 33.7344C143.147 34.9465 143.273 35.9716 143.524 36.8097C143.779 37.643 144.141 38.2751 144.61 38.706C145.079 39.1321 145.642 39.3452 146.301 39.3452ZM158.811 41.1989C157.835 41.1989 156.964 41.0308 156.197 40.6946C155.435 40.3584 154.831 39.892 154.386 39.2955C153.946 38.6941 153.709 37.9981 153.676 37.2074H155.906C155.934 37.6383 156.079 38.0123 156.339 38.3295C156.604 38.642 156.95 38.8835 157.376 39.054C157.802 39.2244 158.276 39.3097 158.797 39.3097C159.369 39.3097 159.876 39.2102 160.316 39.0114C160.761 38.8125 161.109 38.5355 161.36 38.1804C161.611 37.8205 161.737 37.4062 161.737 36.9375C161.737 36.4498 161.611 36.0213 161.36 35.652C161.114 35.2779 160.752 34.9844 160.274 34.7713C159.8 34.5582 159.227 34.4517 158.555 34.4517H157.326V32.6619H158.555C159.095 32.6619 159.568 32.5649 159.975 32.3707C160.387 32.1766 160.709 31.9067 160.941 31.5611C161.173 31.2107 161.289 30.8011 161.289 30.3324C161.289 29.8826 161.188 29.492 160.984 29.1605C160.785 28.8243 160.501 28.5616 160.132 28.3722C159.767 28.1828 159.336 28.0881 158.839 28.0881C158.366 28.0881 157.923 28.1757 157.511 28.3509C157.104 28.5213 156.772 28.7675 156.517 29.0895C156.261 29.4067 156.124 29.7879 156.105 30.233H153.981C154.005 29.447 154.237 28.7557 154.677 28.1591C155.122 27.5625 155.709 27.0961 156.439 26.7599C157.168 26.4238 157.977 26.2557 158.868 26.2557C159.8 26.2557 160.605 26.438 161.282 26.8026C161.964 27.1624 162.49 27.643 162.859 28.2443C163.233 28.8456 163.418 29.5038 163.413 30.2188C163.418 31.0331 163.19 31.7244 162.731 32.2926C162.277 32.8608 161.671 33.242 160.913 33.4361V33.5497C161.879 33.6965 162.627 34.08 163.157 34.7003C163.692 35.3205 163.958 36.09 163.953 37.0085C163.958 37.8087 163.735 38.526 163.285 39.1605C162.84 39.795 162.232 40.2945 161.46 40.6591C160.688 41.0189 159.805 41.1989 158.811 41.1989ZM171.329 41V26.4545H180.449V28.3438H173.524V32.7756H179.973V34.6577H173.524V39.1108H180.534V41H171.329ZM182.263 28.3438V26.4545H193.52V28.3438H188.981V41H186.794V28.3438H182.263ZM195.607 41V26.4545H197.802V32.7756H205.053V26.4545H207.255V41H205.053V34.6577H197.802V41H195.607Z" fill="white"/>
<path opacity="0.24" d="M99.7614 69V54.4545H104.847C105.86 54.4545 106.696 54.6297 107.354 54.9801C108.012 55.3258 108.502 55.7921 108.824 56.3793C109.146 56.9616 109.307 57.608 109.307 58.3182C109.307 58.9432 109.196 59.4593 108.973 59.8665C108.755 60.2737 108.466 60.5956 108.107 60.8324C107.751 61.0691 107.366 61.2443 106.949 61.358V61.5C107.394 61.5284 107.841 61.6847 108.291 61.9688C108.741 62.2528 109.117 62.66 109.42 63.1903C109.723 63.7206 109.875 64.3693 109.875 65.1364C109.875 65.8655 109.709 66.5213 109.378 67.1037C109.046 67.6861 108.523 68.1477 107.808 68.4886C107.093 68.8295 106.163 69 105.017 69H99.7614ZM101.523 67.4375H105.017C106.168 67.4375 106.984 67.215 107.467 66.7699C107.955 66.3201 108.199 65.7756 108.199 65.1364C108.199 64.6439 108.073 64.1894 107.822 63.7727C107.571 63.3513 107.214 63.0152 106.75 62.7642C106.286 62.5085 105.737 62.3807 105.102 62.3807H101.523V67.4375ZM101.523 60.8466H104.79C105.32 60.8466 105.798 60.7424 106.224 60.5341C106.655 60.3258 106.996 60.0322 107.247 59.6534C107.503 59.2746 107.631 58.8295 107.631 58.3182C107.631 57.679 107.408 57.1368 106.963 56.6918C106.518 56.242 105.813 56.017 104.847 56.017H101.523V60.8466ZM112.142 69V58.0909H113.761V59.7386H113.875C114.074 59.1989 114.434 58.7609 114.954 58.4247C115.475 58.0885 116.062 57.9205 116.716 57.9205C116.839 57.9205 116.993 57.9228 117.177 57.9276C117.362 57.9323 117.502 57.9394 117.596 57.9489V59.6534C117.54 59.6392 117.409 59.6179 117.206 59.5895C117.007 59.5563 116.796 59.5398 116.574 59.5398C116.043 59.5398 115.57 59.651 115.153 59.8736C114.741 60.0914 114.415 60.3944 114.173 60.7827C113.936 61.1662 113.818 61.6042 113.818 62.0966V69H112.142ZM119.183 69V58.0909H120.859V69H119.183ZM120.036 56.2727C119.709 56.2727 119.427 56.1615 119.19 55.9389C118.958 55.7164 118.842 55.4489 118.842 55.1364C118.842 54.8239 118.958 54.5563 119.19 54.3338C119.427 54.1113 119.709 54 120.036 54C120.362 54 120.642 54.1113 120.874 54.3338C121.11 54.5563 121.229 54.8239 121.229 55.1364C121.229 55.4489 121.11 55.7164 120.874 55.9389C120.642 56.1615 120.362 56.2727 120.036 56.2727ZM127.649 69.2273C126.74 69.2273 125.937 68.9976 125.241 68.5384C124.545 68.0743 124.001 67.4209 123.608 66.5781C123.215 65.7306 123.018 64.7292 123.018 63.5739C123.018 62.428 123.215 61.4337 123.608 60.5909C124.001 59.7481 124.547 59.0971 125.248 58.6378C125.949 58.1785 126.759 57.9489 127.677 57.9489C128.387 57.9489 128.948 58.0672 129.36 58.304C129.777 58.536 130.094 58.8011 130.312 59.0994C130.535 59.393 130.707 59.6345 130.831 59.8239H130.973V54.4545H132.649V69H131.029V67.3239H130.831C130.707 67.5227 130.532 67.7737 130.305 68.0767C130.078 68.375 129.753 68.6425 129.332 68.8793C128.911 69.1113 128.349 69.2273 127.649 69.2273ZM127.876 67.7216C128.548 67.7216 129.117 67.5464 129.581 67.196C130.045 66.8409 130.397 66.3509 130.639 65.7259C130.88 65.0961 131.001 64.3693 131.001 63.5455C131.001 62.7311 130.883 62.0185 130.646 61.4077C130.409 60.7921 130.059 60.3139 129.595 59.973C129.131 59.6274 128.558 59.4545 127.876 59.4545C127.166 59.4545 126.574 59.6368 126.1 60.0014C125.632 60.3613 125.279 60.8513 125.042 61.4716C124.81 62.0871 124.694 62.7784 124.694 63.5455C124.694 64.322 124.813 65.0275 125.049 65.6619C125.291 66.2917 125.646 66.7936 126.115 67.1676C126.588 67.5369 127.175 67.7216 127.876 67.7216ZM139.955 73.3182C139.145 73.3182 138.449 73.214 137.867 73.0057C137.284 72.8021 136.799 72.5322 136.411 72.196C136.027 71.8646 135.722 71.5095 135.494 71.1307L136.83 70.1932C136.981 70.392 137.173 70.6193 137.405 70.875C137.637 71.1354 137.954 71.3603 138.357 71.5497C138.764 71.7438 139.297 71.8409 139.955 71.8409C140.835 71.8409 141.562 71.6278 142.135 71.2017C142.708 70.7756 142.994 70.108 142.994 69.1989V66.983H142.852C142.729 67.1818 142.554 67.428 142.327 67.7216C142.104 68.0104 141.782 68.2685 141.361 68.4957C140.944 68.7183 140.381 68.8295 139.671 68.8295C138.79 68.8295 137.999 68.6212 137.298 68.2045C136.602 67.7879 136.051 67.1818 135.644 66.3864C135.241 65.5909 135.04 64.625 135.04 63.4886C135.04 62.3712 135.236 61.3982 135.629 60.5696C136.022 59.7363 136.569 59.0923 137.27 58.6378C137.971 58.1785 138.78 57.9489 139.699 57.9489C140.409 57.9489 140.973 58.0672 141.389 58.304C141.811 58.536 142.133 58.8011 142.355 59.0994C142.583 59.393 142.758 59.6345 142.881 59.8239H143.051V58.0909H144.671V69.3125C144.671 70.25 144.458 71.0123 144.031 71.5994C143.61 72.1913 143.042 72.6245 142.327 72.8991C141.617 73.1785 140.826 73.3182 139.955 73.3182ZM139.898 67.3239C140.57 67.3239 141.138 67.17 141.602 66.8622C142.066 66.5545 142.419 66.1117 142.661 65.5341C142.902 64.9564 143.023 64.2652 143.023 63.4602C143.023 62.6742 142.904 61.9806 142.668 61.3793C142.431 60.7779 142.081 60.3068 141.617 59.9659C141.153 59.625 140.58 59.4545 139.898 59.4545C139.188 59.4545 138.596 59.6345 138.122 59.9943C137.654 60.3542 137.301 60.8371 137.064 61.4432C136.832 62.0492 136.716 62.7216 136.716 63.4602C136.716 64.2178 136.834 64.8878 137.071 65.4702C137.313 66.0478 137.668 66.5024 138.137 66.8338C138.61 67.1605 139.197 67.3239 139.898 67.3239ZM151.913 69.2273C150.862 69.2273 149.955 68.9953 149.192 68.5312C148.435 68.0625 147.85 67.4091 147.438 66.571C147.031 65.7282 146.827 64.7481 146.827 63.6307C146.827 62.5133 147.031 61.5284 147.438 60.6761C147.85 59.8191 148.423 59.1515 149.157 58.6733C149.896 58.1903 150.757 57.9489 151.742 57.9489C152.31 57.9489 152.871 58.0436 153.425 58.233C153.979 58.4223 154.484 58.7301 154.938 59.1562C155.393 59.5777 155.755 60.1364 156.025 60.8324C156.295 61.5284 156.43 62.3854 156.43 63.4034V64.1136H148.021V62.6648H154.725C154.725 62.0492 154.602 61.5 154.356 61.017C154.114 60.5341 153.769 60.1529 153.319 59.8736C152.874 59.5942 152.348 59.4545 151.742 59.4545C151.075 59.4545 150.497 59.6203 150.009 59.9517C149.526 60.2784 149.155 60.7045 148.894 61.2301C148.634 61.7557 148.504 62.3191 148.504 62.9205V63.8864C148.504 64.7102 148.646 65.4086 148.93 65.9815C149.219 66.5497 149.619 66.983 150.13 67.2812C150.641 67.5748 151.236 67.7216 151.913 67.7216C152.353 67.7216 152.751 67.66 153.106 67.5369C153.466 67.4091 153.776 67.2197 154.036 66.9688C154.297 66.7131 154.498 66.3958 154.64 66.017L156.259 66.4716C156.089 67.0208 155.802 67.5038 155.4 67.9205C154.997 68.3324 154.5 68.6544 153.908 68.8864C153.317 69.1136 152.651 69.2273 151.913 69.2273ZM162.699 69.2273C161.79 69.2273 160.987 68.9976 160.291 68.5384C159.595 68.0743 159.051 67.4209 158.658 66.5781C158.265 65.7306 158.068 64.7292 158.068 63.5739C158.068 62.428 158.265 61.4337 158.658 60.5909C159.051 59.7481 159.597 59.0971 160.298 58.6378C160.999 58.1785 161.809 57.9489 162.727 57.9489C163.437 57.9489 163.998 58.0672 164.41 58.304C164.827 58.536 165.144 58.8011 165.362 59.0994C165.585 59.393 165.757 59.6345 165.881 59.8239H166.023V54.4545H167.699V69H166.079V67.3239H165.881C165.757 67.5227 165.582 67.7737 165.355 68.0767C165.128 68.375 164.803 68.6425 164.382 68.8793C163.961 69.1113 163.399 69.2273 162.699 69.2273ZM162.926 67.7216C163.598 67.7216 164.167 67.5464 164.631 67.196C165.095 66.8409 165.447 66.3509 165.689 65.7259C165.93 65.0961 166.051 64.3693 166.051 63.5455C166.051 62.7311 165.933 62.0185 165.696 61.4077C165.459 60.7921 165.109 60.3139 164.645 59.973C164.181 59.6274 163.608 59.4545 162.926 59.4545C162.216 59.4545 161.624 59.6368 161.15 60.0014C160.682 60.3613 160.329 60.8513 160.092 61.4716C159.86 62.0871 159.744 62.7784 159.744 63.5455C159.744 64.322 159.863 65.0275 160.099 65.6619C160.341 66.2917 160.696 66.7936 161.165 67.1676C161.638 67.5369 162.225 67.7216 162.926 67.7216ZM183.554 60.5341L182.048 60.9602C181.953 60.7093 181.813 60.4654 181.629 60.2287C181.449 59.9872 181.203 59.7884 180.89 59.6321C180.578 59.4759 180.178 59.3977 179.69 59.3977C179.022 59.3977 178.466 59.5516 178.021 59.8594C177.581 60.1624 177.36 60.5483 177.36 61.017C177.36 61.4337 177.512 61.7628 177.815 62.0043C178.118 62.2457 178.591 62.447 179.235 62.608L180.855 63.0057C181.83 63.2424 182.557 63.6046 183.035 64.0923C183.513 64.5753 183.752 65.1979 183.752 65.9602C183.752 66.5852 183.572 67.1439 183.213 67.6364C182.858 68.1288 182.36 68.517 181.721 68.8011C181.082 69.0852 180.339 69.2273 179.491 69.2273C178.378 69.2273 177.457 68.9858 176.728 68.5028C175.999 68.0199 175.537 67.3144 175.343 66.3864L176.934 65.9886C177.086 66.5758 177.372 67.0161 177.794 67.3097C178.22 67.6032 178.776 67.75 179.463 67.75C180.244 67.75 180.864 67.5843 181.323 67.2528C181.787 66.9167 182.019 66.5142 182.019 66.0455C182.019 65.6667 181.887 65.3494 181.622 65.0938C181.357 64.8333 180.949 64.6392 180.4 64.5114L178.582 64.0852C177.583 63.8485 176.849 63.4815 176.38 62.9844C175.916 62.4825 175.684 61.8551 175.684 61.1023C175.684 60.4867 175.857 59.9422 176.203 59.4688C176.553 58.9953 177.029 58.6236 177.63 58.3537C178.236 58.0838 178.923 57.9489 179.69 57.9489C180.769 57.9489 181.617 58.1856 182.233 58.6591C182.853 59.1326 183.293 59.7576 183.554 60.5341ZM192.75 64.5398V58.0909H194.427V69H192.75V67.1534H192.637C192.381 67.7074 191.983 68.1785 191.444 68.5668C190.904 68.9503 190.222 69.142 189.398 69.142C188.716 69.142 188.11 68.9929 187.58 68.6946C187.05 68.3916 186.633 67.937 186.33 67.331C186.027 66.7202 185.875 65.9508 185.875 65.0227V58.0909H187.552V64.9091C187.552 65.7045 187.774 66.339 188.219 66.8125C188.669 67.286 189.242 67.5227 189.938 67.5227C190.355 67.5227 190.778 67.4162 191.209 67.2031C191.645 66.9901 192.009 66.6634 192.303 66.223C192.601 65.7827 192.75 65.2216 192.75 64.5398ZM201.528 69.2273C200.506 69.2273 199.625 68.9858 198.886 68.5028C198.148 68.0199 197.58 67.3546 197.182 66.5071C196.784 65.6596 196.585 64.6913 196.585 63.6023C196.585 62.4943 196.789 61.5166 197.196 60.669C197.608 59.8168 198.181 59.1515 198.915 58.6733C199.653 58.1903 200.515 57.9489 201.5 57.9489C202.267 57.9489 202.958 58.0909 203.574 58.375C204.189 58.6591 204.694 59.0568 205.087 59.5682C205.48 60.0795 205.723 60.6761 205.818 61.358H204.142C204.014 60.8608 203.73 60.4205 203.29 60.0369C202.854 59.6487 202.267 59.4545 201.528 59.4545C200.875 59.4545 200.302 59.625 199.81 59.9659C199.322 60.3021 198.941 60.7779 198.666 61.3935C198.396 62.0043 198.261 62.7216 198.261 63.5455C198.261 64.3883 198.394 65.1222 198.659 65.7472C198.929 66.3722 199.308 66.8575 199.795 67.2031C200.288 67.5488 200.866 67.7216 201.528 67.7216C201.964 67.7216 202.359 67.6458 202.714 67.4943C203.07 67.3428 203.37 67.125 203.616 66.8409C203.863 66.5568 204.038 66.2159 204.142 65.8182H205.818C205.723 66.4621 205.489 67.0421 205.115 67.5582C204.746 68.0696 204.256 68.4768 203.645 68.7798C203.039 69.0781 202.333 69.2273 201.528 69.2273ZM212.442 69.2273C211.391 69.2273 210.484 68.9953 209.722 68.5312C208.965 68.0625 208.38 67.4091 207.968 66.571C207.561 65.7282 207.357 64.7481 207.357 63.6307C207.357 62.5133 207.561 61.5284 207.968 60.6761C208.38 59.8191 208.953 59.1515 209.687 58.6733C210.425 58.1903 211.287 57.9489 212.272 57.9489C212.84 57.9489 213.401 58.0436 213.955 58.233C214.509 58.4223 215.013 58.7301 215.468 59.1562C215.922 59.5777 216.285 60.1364 216.555 60.8324C216.824 61.5284 216.959 62.3854 216.959 63.4034V64.1136H208.55V62.6648H215.255C215.255 62.0492 215.132 61.5 214.886 61.017C214.644 60.5341 214.298 60.1529 213.849 59.8736C213.404 59.5942 212.878 59.4545 212.272 59.4545C211.604 59.4545 211.027 59.6203 210.539 59.9517C210.056 60.2784 209.684 60.7045 209.424 61.2301C209.163 61.7557 209.033 62.3191 209.033 62.9205V63.8864C209.033 64.7102 209.175 65.4086 209.459 65.9815C209.748 66.5497 210.148 66.983 210.66 67.2812C211.171 67.5748 211.765 67.7216 212.442 67.7216C212.883 67.7216 213.28 67.66 213.636 67.5369C213.995 67.4091 214.305 67.2197 214.566 66.9688C214.826 66.7131 215.028 66.3958 215.17 66.017L216.789 66.4716C216.618 67.0208 216.332 67.5038 215.93 67.9205C215.527 68.3324 215.03 68.6544 214.438 68.8864C213.846 69.1136 213.181 69.2273 212.442 69.2273ZM226.836 60.5341L225.331 60.9602C225.236 60.7093 225.096 60.4654 224.912 60.2287C224.732 59.9872 224.486 59.7884 224.173 59.6321C223.861 59.4759 223.46 59.3977 222.973 59.3977C222.305 59.3977 221.749 59.5516 221.304 59.8594C220.863 60.1624 220.643 60.5483 220.643 61.017C220.643 61.4337 220.795 61.7628 221.098 62.0043C221.401 62.2457 221.874 62.447 222.518 62.608L224.137 63.0057C225.113 63.2424 225.84 63.6046 226.318 64.0923C226.796 64.5753 227.035 65.1979 227.035 65.9602C227.035 66.5852 226.855 67.1439 226.495 67.6364C226.14 68.1288 225.643 68.517 225.004 68.8011C224.365 69.0852 223.621 69.2273 222.774 69.2273C221.661 69.2273 220.74 68.9858 220.011 68.5028C219.282 68.0199 218.82 67.3144 218.626 66.3864L220.217 65.9886C220.369 66.5758 220.655 67.0161 221.076 67.3097C221.503 67.6032 222.059 67.75 222.745 67.75C223.527 67.75 224.147 67.5843 224.606 67.2528C225.07 66.9167 225.302 66.5142 225.302 66.0455C225.302 65.6667 225.17 65.3494 224.905 65.0938C224.639 64.8333 224.232 64.6392 223.683 64.5114L221.865 64.0852C220.866 63.8485 220.132 63.4815 219.663 62.9844C219.199 62.4825 218.967 61.8551 218.967 61.1023C218.967 60.4867 219.14 59.9422 219.486 59.4688C219.836 58.9953 220.312 58.6236 220.913 58.3537C221.519 58.0838 222.206 57.9489 222.973 57.9489C224.052 57.9489 224.9 58.1856 225.515 58.6591C226.136 59.1326 226.576 59.7576 226.836 60.5341ZM236.886 60.5341L235.38 60.9602C235.285 60.7093 235.146 60.4654 234.961 60.2287C234.781 59.9872 234.535 59.7884 234.222 59.6321C233.91 59.4759 233.51 59.3977 233.022 59.3977C232.354 59.3977 231.798 59.5516 231.353 59.8594C230.913 60.1624 230.692 60.5483 230.692 61.017C230.692 61.4337 230.844 61.7628 231.147 62.0043C231.45 62.2457 231.923 62.447 232.567 62.608L234.187 63.0057C235.162 63.2424 235.889 63.6046 236.367 64.0923C236.845 64.5753 237.084 65.1979 237.084 65.9602C237.084 66.5852 236.905 67.1439 236.545 67.6364C236.19 68.1288 235.692 68.517 235.053 68.8011C234.414 69.0852 233.671 69.2273 232.823 69.2273C231.71 69.2273 230.789 68.9858 230.06 68.5028C229.331 68.0199 228.869 67.3144 228.675 66.3864L230.266 65.9886C230.418 66.5758 230.704 67.0161 231.126 67.3097C231.552 67.6032 232.108 67.75 232.795 67.75C233.576 67.75 234.196 67.5843 234.655 67.2528C235.119 66.9167 235.351 66.5142 235.351 66.0455C235.351 65.6667 235.219 65.3494 234.954 65.0938C234.689 64.8333 234.281 64.6392 233.732 64.5114L231.914 64.0852C230.915 63.8485 230.181 63.4815 229.712 62.9844C229.248 62.4825 229.016 61.8551 229.016 61.1023C229.016 60.4867 229.189 59.9422 229.535 59.4688C229.885 58.9953 230.361 58.6236 230.962 58.3537C231.568 58.0838 232.255 57.9489 233.022 57.9489C234.101 57.9489 234.949 58.1856 235.565 58.6591C236.185 59.1326 236.625 59.7576 236.886 60.5341ZM239.208 69V58.0909H240.884V69H239.208ZM240.06 56.2727C239.733 56.2727 239.451 56.1615 239.215 55.9389C238.983 55.7164 238.867 55.4489 238.867 55.1364C238.867 54.8239 238.983 54.5563 239.215 54.3338C239.451 54.1113 239.733 54 240.06 54C240.386 54 240.666 54.1113 240.898 54.3338C241.135 54.5563 241.253 54.8239 241.253 55.1364C241.253 55.4489 241.135 55.7164 240.898 55.9389C240.666 56.1615 240.386 56.2727 240.06 56.2727ZM248.412 58.0909V59.5114H242.531V58.0909H248.412ZM244.292 69V56.5852C244.292 55.9602 244.439 55.4394 244.733 55.0227C245.026 54.6061 245.407 54.2936 245.876 54.0852C246.345 53.8769 246.84 53.7727 247.36 53.7727C247.772 53.7727 248.109 53.8059 248.369 53.8722C248.629 53.9384 248.824 54 248.951 54.0568L248.468 55.5057C248.383 55.4773 248.265 55.4418 248.113 55.3991C247.967 55.3565 247.772 55.3352 247.531 55.3352C246.977 55.3352 246.577 55.4749 246.331 55.7543C246.089 56.0336 245.968 56.4432 245.968 56.983V69H244.292ZM257.236 64.5398V58.0909H258.912V69H257.236V67.1534H257.122C256.866 67.7074 256.469 68.1785 255.929 68.5668C255.389 68.9503 254.707 69.142 253.883 69.142C253.202 69.142 252.596 68.9929 252.065 68.6946C251.535 68.3916 251.118 67.937 250.815 67.331C250.512 66.7202 250.361 65.9508 250.361 65.0227V58.0909H252.037V64.9091C252.037 65.7045 252.259 66.339 252.704 66.8125C253.154 67.286 253.727 67.5227 254.423 67.5227C254.84 67.5227 255.264 67.4162 255.694 67.2031C256.13 66.9901 256.495 66.6634 256.788 66.223C257.087 65.7827 257.236 65.2216 257.236 64.5398ZM263.258 54.4545V69H261.582V54.4545H263.258ZM267.604 54.4545V69H265.928V54.4545H267.604ZM271.353 73.0909C271.069 73.0909 270.816 73.0672 270.594 73.0199C270.371 72.9773 270.217 72.9347 270.132 72.892L270.558 71.4148C270.965 71.5189 271.325 71.5568 271.638 71.5284C271.95 71.5 272.227 71.3603 272.469 71.1094C272.715 70.8632 272.94 70.4631 273.143 69.9091L273.456 69.0568L269.422 58.0909H271.24L274.251 66.7841H274.365L277.376 58.0909H279.194L274.564 70.5909C274.355 71.1544 274.097 71.6207 273.79 71.9901C273.482 72.3641 273.124 72.6411 272.717 72.821C272.315 73.0009 271.86 73.0909 271.353 73.0909Z" fill="white"/>
<rect y="208" width="363" height="96" rx="22" fill="white" fill-opacity="0.02"/>
<rect x="1" y="209" width="361" height="94" rx="21" stroke="white" stroke-opacity="0.08" stroke-width="2"/>
<rect x="12" y="220" width="72" height="72" rx="12" fill="#00FF60" fill-opacity="0.08"/>
<rect x="13" y="221" width="70" height="70" rx="11" stroke="#00FF60" stroke-opacity="0.48" stroke-width="2"/>
<g clip-path="url(#clip1_1905_31014)">
<path d="M52.0158 273.999C52.0158 276.209 50.217 278 47.9987 278C45.7804 278 43.9816 276.209 43.9816 273.999H52.0145H52.0158ZM48.0657 234C49.1755 234 50.0736 234.896 50.0736 236L50.0763 240.177C55.5976 241.132 59.8304 245.829 60.0421 251.55L60.05 251.999C60.05 259.276 61.2715 264.932 63.712 268.967C64.2853 269.912 63.979 271.142 63.0283 271.712C62.7153 271.9 62.3563 272 61.9921 272H34.0079C32.8981 272 32 271.104 32 270C32 269.636 32.0999 269.28 32.288 268.968C34.6233 265.109 35.8422 259.766 35.9435 252.941L35.9579 251.552C36.1709 245.784 40.4707 241.057 46.0579 240.156V236C46.0579 234.896 46.9573 234 48.0657 234Z" fill="#00FF60" fill-opacity="0.08"/>
<path d="M49.0736 236V236L49.0763 240.178L49.0768 241.019L49.9059 241.162C54.9676 242.038 58.8442 246.342 59.0424 251.578L59.05 252.008C59.0509 259.373 60.2845 265.233 62.8564 269.484L62.857 269.485C63.1416 269.955 62.9914 270.568 62.5143 270.854L62.5122 270.855C62.3552 270.95 62.1747 271 61.9921 271H34.0079C33.4469 271 33 270.548 33 270C33 269.82 33.0495 269.642 33.1442 269.485C35.6064 265.415 36.8407 259.874 36.9434 252.956L36.9434 252.951L36.9577 251.576C37.1588 246.3 41.0963 241.969 46.2171 241.143L47.0579 241.008V240.156V236C47.0579 235.452 47.5057 235 48.0657 235C48.6267 235 49.0736 235.451 49.0736 236ZM50.844 274.999C50.4302 276.163 49.3146 277 47.9987 277C46.6827 277 45.5672 276.163 45.1534 274.999H50.844Z" stroke="#00FF60" stroke-opacity="0.48" stroke-width="2"/>
</g>
<path opacity="0.6" d="M103.703 246.557V236.955H105.614V246.557H103.703ZM99.8608 242.707V240.804H109.463V242.707H99.8608ZM117.156 234.256C117.805 234.26 118.444 234.379 119.074 234.611C119.703 234.843 120.272 235.222 120.778 235.747C121.29 236.273 121.697 236.983 122 237.878C122.308 238.768 122.464 239.876 122.469 241.202C122.469 242.475 122.341 243.609 122.085 244.604C121.829 245.593 121.462 246.429 120.984 247.111C120.511 247.793 119.935 248.311 119.258 248.666C118.581 249.021 117.819 249.199 116.971 249.199C116.105 249.199 115.336 249.028 114.663 248.688C113.991 248.347 113.444 247.875 113.023 247.274C112.601 246.668 112.338 245.972 112.234 245.186H114.4C114.542 245.811 114.831 246.318 115.267 246.706C115.707 247.089 116.275 247.281 116.971 247.281C118.037 247.281 118.868 246.817 119.464 245.889C120.061 244.956 120.362 243.654 120.366 241.983H120.253C120.006 242.39 119.699 242.741 119.329 243.034C118.965 243.328 118.555 243.555 118.101 243.716C117.646 243.877 117.161 243.957 116.645 243.957C115.807 243.957 115.044 243.751 114.358 243.339C113.671 242.928 113.124 242.362 112.717 241.642C112.31 240.922 112.106 240.101 112.106 239.178C112.106 238.259 112.315 237.426 112.731 236.678C113.153 235.929 113.74 235.338 114.493 234.902C115.25 234.462 116.138 234.246 117.156 234.256ZM117.163 236.102C116.609 236.102 116.11 236.24 115.665 236.514C115.224 236.784 114.876 237.151 114.621 237.615C114.365 238.074 114.237 238.586 114.237 239.149C114.237 239.713 114.36 240.224 114.606 240.683C114.857 241.138 115.198 241.5 115.629 241.77C116.065 242.035 116.562 242.168 117.121 242.168C117.537 242.168 117.926 242.087 118.285 241.926C118.645 241.765 118.96 241.543 119.23 241.259C119.5 240.97 119.711 240.643 119.862 240.278C120.014 239.914 120.089 239.53 120.089 239.128C120.089 238.593 119.962 238.096 119.706 237.636C119.455 237.177 119.109 236.808 118.669 236.528C118.229 236.244 117.727 236.102 117.163 236.102ZM125.535 249.135C125.146 249.135 124.812 248.998 124.533 248.723C124.254 248.444 124.114 248.107 124.114 247.714C124.114 247.326 124.254 246.995 124.533 246.72C124.812 246.441 125.146 246.301 125.535 246.301C125.923 246.301 126.257 246.441 126.536 246.72C126.815 246.995 126.955 247.326 126.955 247.714C126.955 247.975 126.889 248.214 126.756 248.432C126.628 248.645 126.458 248.815 126.245 248.943C126.032 249.071 125.795 249.135 125.535 249.135ZM129.371 249V247.409L134.293 242.31C134.818 241.756 135.252 241.27 135.593 240.854C135.938 240.432 136.196 240.032 136.367 239.653C136.537 239.275 136.622 238.872 136.622 238.446C136.622 237.963 136.509 237.546 136.282 237.196C136.054 236.841 135.744 236.569 135.351 236.379C134.958 236.185 134.515 236.088 134.023 236.088C133.502 236.088 133.048 236.195 132.659 236.408C132.271 236.621 131.973 236.921 131.764 237.31C131.556 237.698 131.452 238.152 131.452 238.673H129.357C129.357 237.788 129.56 237.014 129.968 236.351C130.375 235.688 130.934 235.174 131.644 234.81C132.354 234.44 133.161 234.256 134.066 234.256C134.979 234.256 135.784 234.438 136.48 234.803C137.181 235.162 137.728 235.655 138.121 236.28C138.514 236.9 138.711 237.601 138.711 238.382C138.711 238.922 138.609 239.45 138.405 239.966C138.206 240.482 137.858 241.057 137.361 241.692C136.864 242.321 136.173 243.086 135.287 243.986L132.397 247.011V247.118H138.945V249H129.371ZM146.301 249.241C145.178 249.237 144.22 248.941 143.424 248.354C142.629 247.767 142.02 246.912 141.599 245.79C141.177 244.668 140.967 243.316 140.967 241.734C140.967 240.158 141.177 238.811 141.599 237.693C142.025 236.576 142.636 235.723 143.431 235.136C144.231 234.549 145.188 234.256 146.301 234.256C147.413 234.256 148.367 234.552 149.163 235.143C149.958 235.731 150.567 236.583 150.988 237.7C151.414 238.813 151.627 240.158 151.627 241.734C151.627 243.321 151.417 244.675 150.995 245.797C150.574 246.914 149.965 247.769 149.17 248.361C148.374 248.948 147.418 249.241 146.301 249.241ZM146.301 247.345C147.285 247.345 148.055 246.865 148.609 245.903C149.168 244.942 149.447 243.553 149.447 241.734C149.447 240.527 149.319 239.507 149.063 238.673C148.812 237.835 148.45 237.201 147.977 236.77C147.508 236.334 146.949 236.116 146.301 236.116C145.32 236.116 144.551 236.599 143.992 237.565C143.434 238.531 143.152 239.921 143.147 241.734C143.147 242.946 143.273 243.972 143.524 244.81C143.779 245.643 144.141 246.275 144.61 246.706C145.079 247.132 145.642 247.345 146.301 247.345ZM158.811 249.199C157.835 249.199 156.964 249.031 156.197 248.695C155.435 248.358 154.831 247.892 154.386 247.295C153.946 246.694 153.709 245.998 153.676 245.207H155.906C155.934 245.638 156.079 246.012 156.339 246.33C156.604 246.642 156.95 246.884 157.376 247.054C157.802 247.224 158.276 247.31 158.797 247.31C159.369 247.31 159.876 247.21 160.316 247.011C160.761 246.812 161.109 246.536 161.36 246.18C161.611 245.821 161.737 245.406 161.737 244.938C161.737 244.45 161.611 244.021 161.36 243.652C161.114 243.278 160.752 242.984 160.274 242.771C159.8 242.558 159.227 242.452 158.555 242.452H157.326V240.662H158.555C159.095 240.662 159.568 240.565 159.975 240.371C160.387 240.177 160.709 239.907 160.941 239.561C161.173 239.211 161.289 238.801 161.289 238.332C161.289 237.883 161.188 237.492 160.984 237.161C160.785 236.824 160.501 236.562 160.132 236.372C159.767 236.183 159.336 236.088 158.839 236.088C158.366 236.088 157.923 236.176 157.511 236.351C157.104 236.521 156.772 236.768 156.517 237.089C156.261 237.407 156.124 237.788 156.105 238.233H153.981C154.005 237.447 154.237 236.756 154.677 236.159C155.122 235.562 155.709 235.096 156.439 234.76C157.168 234.424 157.977 234.256 158.868 234.256C159.8 234.256 160.605 234.438 161.282 234.803C161.964 235.162 162.49 235.643 162.859 236.244C163.233 236.846 163.418 237.504 163.413 238.219C163.418 239.033 163.19 239.724 162.731 240.293C162.277 240.861 161.671 241.242 160.913 241.436V241.55C161.879 241.696 162.627 242.08 163.157 242.7C163.692 243.321 163.958 244.09 163.953 245.009C163.958 245.809 163.735 246.526 163.285 247.161C162.84 247.795 162.232 248.295 161.46 248.659C160.688 249.019 159.805 249.199 158.811 249.199ZM171.329 249V234.455H180.449V236.344H173.524V240.776H179.973V242.658H173.524V247.111H180.534V249H171.329ZM182.263 236.344V234.455H193.52V236.344H188.981V249H186.794V236.344H182.263ZM195.607 249V234.455H197.802V240.776H205.053V234.455H207.255V249H205.053V242.658H197.802V249H195.607Z" fill="white"/>
<rect y="104" width="363" height="96" rx="22" fill="white" fill-opacity="0.02"/>
<rect x="1" y="105" width="361" height="94" rx="21" stroke="white" stroke-opacity="0.08" stroke-width="2"/>
<rect x="12" y="116" width="72" height="72" rx="12" fill="#00FF60" fill-opacity="0.08"/>
<rect x="13" y="117" width="70" height="70" rx="11" stroke="#00FF60" stroke-opacity="0.48" stroke-width="2"/>
<g clip-path="url(#clip2_1905_31014)">
<path d="M52.0158 169.999C52.0158 172.209 50.217 174 47.9987 174C45.7804 174 43.9816 172.209 43.9816 169.999H52.0145H52.0158ZM48.0657 130C49.1755 130 50.0736 130.896 50.0736 132L50.0763 136.177C55.5976 137.132 59.8304 141.829 60.0421 147.55L60.05 147.999C60.05 155.276 61.2715 160.932 63.712 164.967C64.2853 165.912 63.979 167.142 63.0283 167.712C62.7153 167.9 62.3563 168 61.9921 168H34.0079C32.8981 168 32 167.104 32 166C32 165.636 32.0999 165.28 32.288 164.968C34.6233 161.109 35.8422 155.766 35.9435 148.941L35.9579 147.552C36.1709 141.784 40.4707 137.057 46.0579 136.156V132C46.0579 130.896 46.9573 130 48.0657 130Z" fill="#00FF60" fill-opacity="0.08"/>
<path d="M49.0736 132V132L49.0763 136.178L49.0768 137.019L49.9059 137.162C54.9676 138.038 58.8442 142.342 59.0424 147.578L59.05 148.008C59.0509 155.373 60.2845 161.233 62.8564 165.484L62.857 165.485C63.1416 165.955 62.9914 166.568 62.5143 166.854L62.5122 166.855C62.3552 166.95 62.1747 167 61.9921 167H34.0079C33.4469 167 33 166.548 33 166C33 165.82 33.0495 165.642 33.1442 165.485C35.6064 161.415 36.8407 155.874 36.9434 148.956L36.9434 148.951L36.9577 147.576C37.1588 142.3 41.0963 137.969 46.2171 137.143L47.0579 137.008V136.156V132C47.0579 131.452 47.5057 131 48.0657 131C48.6267 131 49.0736 131.451 49.0736 132ZM50.844 170.999C50.4302 172.163 49.3146 173 47.9987 173C46.6827 173 45.5672 172.163 45.1534 170.999H50.844Z" stroke="#00FF60" stroke-opacity="0.48" stroke-width="2"/>
</g>
<path opacity="0.6" d="M103.703 142.557V132.955H105.614V142.557H103.703ZM99.8608 138.707V136.804H109.463V138.707H99.8608ZM112.014 142.159V140.384L118.3 130.455H119.699V133.068H118.811L114.315 140.185V140.298H122.93V142.159H112.014ZM118.91 145V141.619L118.925 140.81V130.455H121.006V145H118.91ZM129.898 145V143.409L134.82 138.31C135.346 137.756 135.779 137.27 136.12 136.854C136.466 136.432 136.724 136.032 136.894 135.653C137.065 135.275 137.15 134.872 137.15 134.446C137.15 133.963 137.036 133.546 136.809 133.196C136.582 132.841 136.271 132.569 135.878 132.379C135.485 132.185 135.043 132.088 134.55 132.088C134.03 132.088 133.575 132.195 133.187 132.408C132.798 132.621 132.5 132.921 132.292 133.31C132.083 133.698 131.979 134.152 131.979 134.673H129.884C129.884 133.788 130.088 133.014 130.495 132.351C130.902 131.688 131.461 131.174 132.171 130.81C132.881 130.44 133.689 130.256 134.593 130.256C135.507 130.256 136.312 130.438 137.008 130.803C137.708 131.162 138.255 131.655 138.648 132.28C139.041 132.9 139.238 133.601 139.238 134.382C139.238 134.922 139.136 135.45 138.932 135.966C138.734 136.482 138.386 137.057 137.888 137.692C137.391 138.321 136.7 139.086 135.815 139.986L132.924 143.011V143.118H139.472V145H129.898ZM146.679 145.199C145.661 145.199 144.761 145.024 143.98 144.673C143.203 144.323 142.595 143.84 142.155 143.224C141.714 142.609 141.496 141.908 141.501 141.122C141.496 140.507 141.622 139.941 141.878 139.425C142.138 138.904 142.491 138.471 142.936 138.125C143.381 137.775 143.878 137.552 144.427 137.457V137.372C143.703 137.197 143.123 136.809 142.687 136.207C142.252 135.606 142.036 134.915 142.041 134.134C142.036 133.39 142.233 132.727 142.63 132.145C143.033 131.558 143.585 131.096 144.285 130.76C144.986 130.424 145.784 130.256 146.679 130.256C147.564 130.256 148.355 130.426 149.051 130.767C149.752 131.103 150.303 131.565 150.706 132.152C151.108 132.734 151.312 133.395 151.317 134.134C151.312 134.915 151.089 135.606 150.649 136.207C150.209 136.809 149.636 137.197 148.93 137.372V137.457C149.475 137.552 149.965 137.775 150.4 138.125C150.841 138.471 151.191 138.904 151.451 139.425C151.717 139.941 151.852 140.507 151.856 141.122C151.852 141.908 151.629 142.609 151.189 143.224C150.748 143.84 150.138 144.323 149.356 144.673C148.58 145.024 147.687 145.199 146.679 145.199ZM146.679 143.402C147.28 143.402 147.801 143.303 148.241 143.104C148.682 142.9 149.023 142.618 149.264 142.259C149.505 141.894 149.629 141.468 149.633 140.98C149.629 140.473 149.496 140.026 149.236 139.638C148.98 139.25 148.632 138.944 148.192 138.722C147.751 138.499 147.247 138.388 146.679 138.388C146.106 138.388 145.597 138.499 145.152 138.722C144.707 138.944 144.356 139.25 144.101 139.638C143.845 140.026 143.719 140.473 143.724 140.98C143.719 141.468 143.835 141.894 144.072 142.259C144.314 142.618 144.657 142.9 145.102 143.104C145.547 143.303 146.073 143.402 146.679 143.402ZM146.679 136.634C147.162 136.634 147.59 136.536 147.964 136.342C148.338 136.148 148.632 135.878 148.845 135.533C149.063 135.187 149.174 134.782 149.179 134.318C149.174 133.864 149.065 133.466 148.852 133.125C148.644 132.784 148.353 132.521 147.978 132.337C147.604 132.147 147.171 132.053 146.679 132.053C146.177 132.053 145.737 132.147 145.358 132.337C144.984 132.521 144.692 132.784 144.484 133.125C144.276 133.466 144.174 133.864 144.179 134.318C144.174 134.782 144.278 135.187 144.491 135.533C144.704 135.878 144.998 136.148 145.372 136.342C145.751 136.536 146.186 136.634 146.679 136.634ZM159.065 145.241C157.942 145.237 156.984 144.941 156.188 144.354C155.393 143.767 154.784 142.912 154.363 141.79C153.942 140.668 153.731 139.316 153.731 137.734C153.731 136.158 153.942 134.811 154.363 133.693C154.789 132.576 155.4 131.723 156.195 131.136C156.996 130.549 157.952 130.256 159.065 130.256C160.177 130.256 161.131 130.552 161.927 131.143C162.722 131.731 163.331 132.583 163.752 133.7C164.178 134.813 164.391 136.158 164.391 137.734C164.391 139.321 164.181 140.675 163.759 141.797C163.338 142.914 162.729 143.769 161.934 144.361C161.138 144.948 160.182 145.241 159.065 145.241ZM159.065 143.345C160.049 143.345 160.819 142.865 161.373 141.903C161.932 140.942 162.211 139.553 162.211 137.734C162.211 136.527 162.083 135.507 161.827 134.673C161.576 133.835 161.214 133.201 160.741 132.77C160.272 132.334 159.713 132.116 159.065 132.116C158.085 132.116 157.315 132.599 156.756 133.565C156.198 134.531 155.916 135.921 155.911 137.734C155.911 138.946 156.037 139.972 156.288 140.81C156.543 141.643 156.906 142.275 157.374 142.706C157.843 143.132 158.406 143.345 159.065 143.345ZM180.956 130.455H183.158V140.021C183.158 141.039 182.919 141.941 182.441 142.727C181.963 143.509 181.29 144.124 180.424 144.574C179.557 145.019 178.542 145.241 177.377 145.241C176.217 145.241 175.204 145.019 174.337 144.574C173.471 144.124 172.798 143.509 172.32 142.727C171.842 141.941 171.603 141.039 171.603 140.021V130.455H173.797V139.844C173.797 140.502 173.942 141.087 174.231 141.598C174.524 142.109 174.938 142.512 175.473 142.805C176.008 143.094 176.643 143.239 177.377 143.239C178.115 143.239 178.752 143.094 179.287 142.805C179.827 142.512 180.239 142.109 180.523 141.598C180.812 141.087 180.956 140.502 180.956 139.844V130.455ZM193.882 134.276C193.806 133.603 193.494 133.082 192.945 132.713C192.395 132.339 191.704 132.152 190.871 132.152C190.274 132.152 189.758 132.247 189.322 132.436C188.887 132.621 188.548 132.876 188.307 133.203C188.07 133.525 187.952 133.892 187.952 134.304C187.952 134.65 188.032 134.948 188.193 135.199C188.359 135.45 188.574 135.661 188.839 135.831C189.109 135.997 189.398 136.136 189.706 136.25C190.014 136.359 190.31 136.449 190.594 136.52L192.014 136.889C192.478 137.003 192.954 137.157 193.442 137.351C193.929 137.545 194.382 137.801 194.798 138.118C195.215 138.435 195.551 138.828 195.807 139.297C196.067 139.766 196.197 140.327 196.197 140.98C196.197 141.804 195.984 142.536 195.558 143.175C195.137 143.814 194.524 144.318 193.719 144.688C192.918 145.057 191.95 145.241 190.814 145.241C189.725 145.241 188.783 145.069 187.987 144.723C187.192 144.377 186.569 143.887 186.119 143.253C185.669 142.614 185.421 141.856 185.374 140.98H187.575C187.618 141.506 187.788 141.944 188.087 142.294C188.39 142.64 188.776 142.898 189.244 143.068C189.718 143.234 190.236 143.317 190.8 143.317C191.42 143.317 191.972 143.22 192.454 143.026C192.942 142.827 193.326 142.552 193.605 142.202C193.884 141.847 194.024 141.432 194.024 140.959C194.024 140.528 193.901 140.175 193.655 139.901C193.413 139.626 193.084 139.399 192.668 139.219C192.256 139.039 191.789 138.88 191.268 138.743L189.55 138.274C188.385 137.957 187.462 137.491 186.78 136.875C186.103 136.259 185.764 135.445 185.764 134.432C185.764 133.594 185.991 132.862 186.446 132.237C186.901 131.612 187.516 131.127 188.293 130.781C189.069 130.431 189.945 130.256 190.92 130.256C191.905 130.256 192.774 130.429 193.527 130.774C194.284 131.12 194.881 131.596 195.317 132.202C195.752 132.803 195.98 133.494 195.999 134.276H193.882ZM203.129 145H198.42V130.455H203.278C204.703 130.455 205.927 130.746 206.95 131.328C207.972 131.906 208.756 132.737 209.301 133.821C209.85 134.901 210.124 136.196 210.124 137.706C210.124 139.221 209.847 140.523 209.293 141.612C208.744 142.701 207.949 143.539 206.907 144.126C205.865 144.709 204.606 145 203.129 145ZM200.614 143.082H203.008C204.116 143.082 205.037 142.874 205.771 142.457C206.505 142.036 207.054 141.428 207.418 140.632C207.783 139.832 207.965 138.857 207.965 137.706C207.965 136.565 207.783 135.597 207.418 134.801C207.059 134.006 206.521 133.402 205.806 132.99C205.091 132.578 204.204 132.372 203.143 132.372H200.614V143.082ZM224.534 135.185H222.319C222.233 134.711 222.075 134.295 221.843 133.935C221.611 133.575 221.327 133.269 220.99 133.018C220.654 132.768 220.278 132.578 219.861 132.45C219.449 132.322 219.011 132.259 218.547 132.259C217.709 132.259 216.959 132.469 216.296 132.891C215.638 133.312 215.117 133.93 214.733 134.744C214.355 135.559 214.165 136.553 214.165 137.727C214.165 138.911 214.355 139.91 214.733 140.724C215.117 141.539 215.64 142.154 216.303 142.571C216.966 142.988 217.712 143.196 218.54 143.196C218.999 143.196 219.435 143.134 219.847 143.011C220.264 142.884 220.64 142.696 220.976 142.45C221.312 142.204 221.596 141.903 221.828 141.548C222.065 141.188 222.229 140.777 222.319 140.312L224.534 140.32C224.416 141.035 224.186 141.693 223.846 142.294C223.509 142.891 223.076 143.407 222.546 143.842C222.02 144.273 221.419 144.607 220.742 144.844C220.065 145.08 219.326 145.199 218.526 145.199C217.266 145.199 216.144 144.901 215.159 144.304C214.175 143.703 213.398 142.843 212.83 141.726C212.266 140.608 211.985 139.276 211.985 137.727C211.985 136.174 212.269 134.841 212.837 133.729C213.405 132.611 214.182 131.754 215.167 131.158C216.151 130.556 217.271 130.256 218.526 130.256C219.298 130.256 220.017 130.367 220.685 130.589C221.357 130.807 221.961 131.129 222.496 131.555C223.031 131.977 223.474 132.493 223.824 133.104C224.175 133.71 224.411 134.403 224.534 135.185Z" fill="white"/>
<path opacity="0.24" d="M99.7614 173V158.455H104.847C105.86 158.455 106.696 158.63 107.354 158.98C108.012 159.326 108.502 159.792 108.824 160.379C109.146 160.962 109.307 161.608 109.307 162.318C109.307 162.943 109.196 163.459 108.973 163.866C108.755 164.274 108.466 164.596 108.107 164.832C107.751 165.069 107.366 165.244 106.949 165.358V165.5C107.394 165.528 107.841 165.685 108.291 165.969C108.741 166.253 109.117 166.66 109.42 167.19C109.723 167.721 109.875 168.369 109.875 169.136C109.875 169.866 109.709 170.521 109.378 171.104C109.046 171.686 108.523 172.148 107.808 172.489C107.093 172.83 106.163 173 105.017 173H99.7614ZM101.523 171.438H105.017C106.168 171.438 106.984 171.215 107.467 170.77C107.955 170.32 108.199 169.776 108.199 169.136C108.199 168.644 108.073 168.189 107.822 167.773C107.571 167.351 107.214 167.015 106.75 166.764C106.286 166.509 105.737 166.381 105.102 166.381H101.523V171.438ZM101.523 164.847H104.79C105.32 164.847 105.798 164.742 106.224 164.534C106.655 164.326 106.996 164.032 107.247 163.653C107.503 163.275 107.631 162.83 107.631 162.318C107.631 161.679 107.408 161.137 106.963 160.692C106.518 160.242 105.813 160.017 104.847 160.017H101.523V164.847ZM112.142 173V162.091H113.761V163.739H113.875C114.074 163.199 114.434 162.761 114.954 162.425C115.475 162.089 116.062 161.92 116.716 161.92C116.839 161.92 116.993 161.923 117.177 161.928C117.362 161.932 117.502 161.939 117.596 161.949V163.653C117.54 163.639 117.409 163.618 117.206 163.589C117.007 163.556 116.796 163.54 116.574 163.54C116.043 163.54 115.57 163.651 115.153 163.874C114.741 164.091 114.415 164.394 114.173 164.783C113.936 165.166 113.818 165.604 113.818 166.097V173H112.142ZM119.183 173V162.091H120.859V173H119.183ZM120.036 160.273C119.709 160.273 119.427 160.161 119.19 159.939C118.958 159.716 118.842 159.449 118.842 159.136C118.842 158.824 118.958 158.556 119.19 158.334C119.427 158.111 119.709 158 120.036 158C120.362 158 120.642 158.111 120.874 158.334C121.11 158.556 121.229 158.824 121.229 159.136C121.229 159.449 121.11 159.716 120.874 159.939C120.642 160.161 120.362 160.273 120.036 160.273ZM127.649 173.227C126.74 173.227 125.937 172.998 125.241 172.538C124.545 172.074 124.001 171.421 123.608 170.578C123.215 169.731 123.018 168.729 123.018 167.574C123.018 166.428 123.215 165.434 123.608 164.591C124.001 163.748 124.547 163.097 125.248 162.638C125.949 162.179 126.759 161.949 127.677 161.949C128.387 161.949 128.948 162.067 129.36 162.304C129.777 162.536 130.094 162.801 130.312 163.099C130.535 163.393 130.707 163.634 130.831 163.824H130.973V158.455H132.649V173H131.029V171.324H130.831C130.707 171.523 130.532 171.774 130.305 172.077C130.078 172.375 129.753 172.643 129.332 172.879C128.911 173.111 128.349 173.227 127.649 173.227ZM127.876 171.722C128.548 171.722 129.117 171.546 129.581 171.196C130.045 170.841 130.397 170.351 130.639 169.726C130.88 169.096 131.001 168.369 131.001 167.545C131.001 166.731 130.883 166.018 130.646 165.408C130.409 164.792 130.059 164.314 129.595 163.973C129.131 163.627 128.558 163.455 127.876 163.455C127.166 163.455 126.574 163.637 126.1 164.001C125.632 164.361 125.279 164.851 125.042 165.472C124.81 166.087 124.694 166.778 124.694 167.545C124.694 168.322 124.813 169.027 125.049 169.662C125.291 170.292 125.646 170.794 126.115 171.168C126.588 171.537 127.175 171.722 127.876 171.722ZM139.955 177.318C139.145 177.318 138.449 177.214 137.867 177.006C137.284 176.802 136.799 176.532 136.411 176.196C136.027 175.865 135.722 175.509 135.494 175.131L136.83 174.193C136.981 174.392 137.173 174.619 137.405 174.875C137.637 175.135 137.954 175.36 138.357 175.55C138.764 175.744 139.297 175.841 139.955 175.841C140.835 175.841 141.562 175.628 142.135 175.202C142.708 174.776 142.994 174.108 142.994 173.199V170.983H142.852C142.729 171.182 142.554 171.428 142.327 171.722C142.104 172.01 141.782 172.268 141.361 172.496C140.944 172.718 140.381 172.83 139.671 172.83C138.79 172.83 137.999 172.621 137.298 172.205C136.602 171.788 136.051 171.182 135.644 170.386C135.241 169.591 135.04 168.625 135.04 167.489C135.04 166.371 135.236 165.398 135.629 164.57C136.022 163.736 136.569 163.092 137.27 162.638C137.971 162.179 138.78 161.949 139.699 161.949C140.409 161.949 140.973 162.067 141.389 162.304C141.811 162.536 142.133 162.801 142.355 163.099C142.583 163.393 142.758 163.634 142.881 163.824H143.051V162.091H144.671V173.312C144.671 174.25 144.458 175.012 144.031 175.599C143.61 176.191 143.042 176.625 142.327 176.899C141.617 177.179 140.826 177.318 139.955 177.318ZM139.898 171.324C140.57 171.324 141.138 171.17 141.602 170.862C142.066 170.554 142.419 170.112 142.661 169.534C142.902 168.956 143.023 168.265 143.023 167.46C143.023 166.674 142.904 165.981 142.668 165.379C142.431 164.778 142.081 164.307 141.617 163.966C141.153 163.625 140.58 163.455 139.898 163.455C139.188 163.455 138.596 163.634 138.122 163.994C137.654 164.354 137.301 164.837 137.064 165.443C136.832 166.049 136.716 166.722 136.716 167.46C136.716 168.218 136.834 168.888 137.071 169.47C137.313 170.048 137.668 170.502 138.137 170.834C138.61 171.161 139.197 171.324 139.898 171.324ZM151.913 173.227C150.862 173.227 149.955 172.995 149.192 172.531C148.435 172.062 147.85 171.409 147.438 170.571C147.031 169.728 146.827 168.748 146.827 167.631C146.827 166.513 147.031 165.528 147.438 164.676C147.85 163.819 148.423 163.152 149.157 162.673C149.896 162.19 150.757 161.949 151.742 161.949C152.31 161.949 152.871 162.044 153.425 162.233C153.979 162.422 154.484 162.73 154.938 163.156C155.393 163.578 155.755 164.136 156.025 164.832C156.295 165.528 156.43 166.385 156.43 167.403V168.114H148.021V166.665H154.725C154.725 166.049 154.602 165.5 154.356 165.017C154.114 164.534 153.769 164.153 153.319 163.874C152.874 163.594 152.348 163.455 151.742 163.455C151.075 163.455 150.497 163.62 150.009 163.952C149.526 164.278 149.155 164.705 148.894 165.23C148.634 165.756 148.504 166.319 148.504 166.92V167.886C148.504 168.71 148.646 169.409 148.93 169.982C149.219 170.55 149.619 170.983 150.13 171.281C150.641 171.575 151.236 171.722 151.913 171.722C152.353 171.722 152.751 171.66 153.106 171.537C153.466 171.409 153.776 171.22 154.036 170.969C154.297 170.713 154.498 170.396 154.64 170.017L156.259 170.472C156.089 171.021 155.802 171.504 155.4 171.92C154.997 172.332 154.5 172.654 153.908 172.886C153.317 173.114 152.651 173.227 151.913 173.227ZM162.699 173.227C161.79 173.227 160.987 172.998 160.291 172.538C159.595 172.074 159.051 171.421 158.658 170.578C158.265 169.731 158.068 168.729 158.068 167.574C158.068 166.428 158.265 165.434 158.658 164.591C159.051 163.748 159.597 163.097 160.298 162.638C160.999 162.179 161.809 161.949 162.727 161.949C163.437 161.949 163.998 162.067 164.41 162.304C164.827 162.536 165.144 162.801 165.362 163.099C165.585 163.393 165.757 163.634 165.881 163.824H166.023V158.455H167.699V173H166.079V171.324H165.881C165.757 171.523 165.582 171.774 165.355 172.077C165.128 172.375 164.803 172.643 164.382 172.879C163.961 173.111 163.399 173.227 162.699 173.227ZM162.926 171.722C163.598 171.722 164.167 171.546 164.631 171.196C165.095 170.841 165.447 170.351 165.689 169.726C165.93 169.096 166.051 168.369 166.051 167.545C166.051 166.731 165.933 166.018 165.696 165.408C165.459 164.792 165.109 164.314 164.645 163.973C164.181 163.627 163.608 163.455 162.926 163.455C162.216 163.455 161.624 163.637 161.15 164.001C160.682 164.361 160.329 164.851 160.092 165.472C159.86 166.087 159.744 166.778 159.744 167.545C159.744 168.322 159.863 169.027 160.099 169.662C160.341 170.292 160.696 170.794 161.165 171.168C161.638 171.537 162.225 171.722 162.926 171.722ZM183.554 164.534L182.048 164.96C181.953 164.709 181.813 164.465 181.629 164.229C181.449 163.987 181.203 163.788 180.89 163.632C180.578 163.476 180.178 163.398 179.69 163.398C179.022 163.398 178.466 163.552 178.021 163.859C177.581 164.162 177.36 164.548 177.36 165.017C177.36 165.434 177.512 165.763 177.815 166.004C178.118 166.246 178.591 166.447 179.235 166.608L180.855 167.006C181.83 167.242 182.557 167.605 183.035 168.092C183.513 168.575 183.752 169.198 183.752 169.96C183.752 170.585 183.572 171.144 183.213 171.636C182.858 172.129 182.36 172.517 181.721 172.801C181.082 173.085 180.339 173.227 179.491 173.227C178.378 173.227 177.457 172.986 176.728 172.503C175.999 172.02 175.537 171.314 175.343 170.386L176.934 169.989C177.086 170.576 177.372 171.016 177.794 171.31C178.22 171.603 178.776 171.75 179.463 171.75C180.244 171.75 180.864 171.584 181.323 171.253C181.787 170.917 182.019 170.514 182.019 170.045C182.019 169.667 181.887 169.349 181.622 169.094C181.357 168.833 180.949 168.639 180.4 168.511L178.582 168.085C177.583 167.848 176.849 167.482 176.38 166.984C175.916 166.482 175.684 165.855 175.684 165.102C175.684 164.487 175.857 163.942 176.203 163.469C176.553 162.995 177.029 162.624 177.63 162.354C178.236 162.084 178.923 161.949 179.69 161.949C180.769 161.949 181.617 162.186 182.233 162.659C182.853 163.133 183.293 163.758 183.554 164.534ZM192.75 168.54V162.091H194.427V173H192.75V171.153H192.637C192.381 171.707 191.983 172.179 191.444 172.567C190.904 172.95 190.222 173.142 189.398 173.142C188.716 173.142 188.11 172.993 187.58 172.695C187.05 172.392 186.633 171.937 186.33 171.331C186.027 170.72 185.875 169.951 185.875 169.023V162.091H187.552V168.909C187.552 169.705 187.774 170.339 188.219 170.812C188.669 171.286 189.242 171.523 189.938 171.523C190.355 171.523 190.778 171.416 191.209 171.203C191.645 170.99 192.009 170.663 192.303 170.223C192.601 169.783 192.75 169.222 192.75 168.54ZM201.528 173.227C200.506 173.227 199.625 172.986 198.886 172.503C198.148 172.02 197.58 171.355 197.182 170.507C196.784 169.66 196.585 168.691 196.585 167.602C196.585 166.494 196.789 165.517 197.196 164.669C197.608 163.817 198.181 163.152 198.915 162.673C199.653 162.19 200.515 161.949 201.5 161.949C202.267 161.949 202.958 162.091 203.574 162.375C204.189 162.659 204.694 163.057 205.087 163.568C205.48 164.08 205.723 164.676 205.818 165.358H204.142C204.014 164.861 203.73 164.42 203.29 164.037C202.854 163.649 202.267 163.455 201.528 163.455C200.875 163.455 200.302 163.625 199.81 163.966C199.322 164.302 198.941 164.778 198.666 165.393C198.396 166.004 198.261 166.722 198.261 167.545C198.261 168.388 198.394 169.122 198.659 169.747C198.929 170.372 199.308 170.857 199.795 171.203C200.288 171.549 200.866 171.722 201.528 171.722C201.964 171.722 202.359 171.646 202.714 171.494C203.07 171.343 203.37 171.125 203.616 170.841C203.863 170.557 204.038 170.216 204.142 169.818H205.818C205.723 170.462 205.489 171.042 205.115 171.558C204.746 172.07 204.256 172.477 203.645 172.78C203.039 173.078 202.333 173.227 201.528 173.227ZM212.442 173.227C211.391 173.227 210.484 172.995 209.722 172.531C208.965 172.062 208.38 171.409 207.968 170.571C207.561 169.728 207.357 168.748 207.357 167.631C207.357 166.513 207.561 165.528 207.968 164.676C208.38 163.819 208.953 163.152 209.687 162.673C210.425 162.19 211.287 161.949 212.272 161.949C212.84 161.949 213.401 162.044 213.955 162.233C214.509 162.422 215.013 162.73 215.468 163.156C215.922 163.578 216.285 164.136 216.555 164.832C216.824 165.528 216.959 166.385 216.959 167.403V168.114H208.55V166.665H215.255C215.255 166.049 215.132 165.5 214.886 165.017C214.644 164.534 214.298 164.153 213.849 163.874C213.404 163.594 212.878 163.455 212.272 163.455C211.604 163.455 211.027 163.62 210.539 163.952C210.056 164.278 209.684 164.705 209.424 165.23C209.163 165.756 209.033 166.319 209.033 166.92V167.886C209.033 168.71 209.175 169.409 209.459 169.982C209.748 170.55 210.148 170.983 210.66 171.281C211.171 171.575 211.765 171.722 212.442 171.722C212.883 171.722 213.28 171.66 213.636 171.537C213.995 171.409 214.305 171.22 214.566 170.969C214.826 170.713 215.028 170.396 215.17 170.017L216.789 170.472C216.618 171.021 216.332 171.504 215.93 171.92C215.527 172.332 215.03 172.654 214.438 172.886C213.846 173.114 213.181 173.227 212.442 173.227ZM226.836 164.534L225.331 164.96C225.236 164.709 225.096 164.465 224.912 164.229C224.732 163.987 224.486 163.788 224.173 163.632C223.861 163.476 223.46 163.398 222.973 163.398C222.305 163.398 221.749 163.552 221.304 163.859C220.863 164.162 220.643 164.548 220.643 165.017C220.643 165.434 220.795 165.763 221.098 166.004C221.401 166.246 221.874 166.447 222.518 166.608L224.137 167.006C225.113 167.242 225.84 167.605 226.318 168.092C226.796 168.575 227.035 169.198 227.035 169.96C227.035 170.585 226.855 171.144 226.495 171.636C226.14 172.129 225.643 172.517 225.004 172.801C224.365 173.085 223.621 173.227 222.774 173.227C221.661 173.227 220.74 172.986 220.011 172.503C219.282 172.02 218.82 171.314 218.626 170.386L220.217 169.989C220.369 170.576 220.655 171.016 221.076 171.31C221.503 171.603 222.059 171.75 222.745 171.75C223.527 171.75 224.147 171.584 224.606 171.253C225.07 170.917 225.302 170.514 225.302 170.045C225.302 169.667 225.17 169.349 224.905 169.094C224.639 168.833 224.232 168.639 223.683 168.511L221.865 168.085C220.866 167.848 220.132 167.482 219.663 166.984C219.199 166.482 218.967 165.855 218.967 165.102C218.967 164.487 219.14 163.942 219.486 163.469C219.836 162.995 220.312 162.624 220.913 162.354C221.519 162.084 222.206 161.949 222.973 161.949C224.052 161.949 224.9 162.186 225.515 162.659C226.136 163.133 226.576 163.758 226.836 164.534ZM236.886 164.534L235.38 164.96C235.285 164.709 235.146 164.465 234.961 164.229C234.781 163.987 234.535 163.788 234.222 163.632C233.91 163.476 233.51 163.398 233.022 163.398C232.354 163.398 231.798 163.552 231.353 163.859C230.913 164.162 230.692 164.548 230.692 165.017C230.692 165.434 230.844 165.763 231.147 166.004C231.45 166.246 231.923 166.447 232.567 166.608L234.187 167.006C235.162 167.242 235.889 167.605 236.367 168.092C236.845 168.575 237.084 169.198 237.084 169.96C237.084 170.585 236.905 171.144 236.545 171.636C236.19 172.129 235.692 172.517 235.053 172.801C234.414 173.085 233.671 173.227 232.823 173.227C231.71 173.227 230.789 172.986 230.06 172.503C229.331 172.02 228.869 171.314 228.675 170.386L230.266 169.989C230.418 170.576 230.704 171.016 231.126 171.31C231.552 171.603 232.108 171.75 232.795 171.75C233.576 171.75 234.196 171.584 234.655 171.253C235.119 170.917 235.351 170.514 235.351 170.045C235.351 169.667 235.219 169.349 234.954 169.094C234.689 168.833 234.281 168.639 233.732 168.511L231.914 168.085C230.915 167.848 230.181 167.482 229.712 166.984C229.248 166.482 229.016 165.855 229.016 165.102C229.016 164.487 229.189 163.942 229.535 163.469C229.885 162.995 230.361 162.624 230.962 162.354C231.568 162.084 232.255 161.949 233.022 161.949C234.101 161.949 234.949 162.186 235.565 162.659C236.185 163.133 236.625 163.758 236.886 164.534ZM239.208 173V162.091H240.884V173H239.208ZM240.06 160.273C239.733 160.273 239.451 160.161 239.215 159.939C238.983 159.716 238.867 159.449 238.867 159.136C238.867 158.824 238.983 158.556 239.215 158.334C239.451 158.111 239.733 158 240.06 158C240.386 158 240.666 158.111 240.898 158.334C241.135 158.556 241.253 158.824 241.253 159.136C241.253 159.449 241.135 159.716 240.898 159.939C240.666 160.161 240.386 160.273 240.06 160.273ZM248.412 162.091V163.511H242.531V162.091H248.412ZM244.292 173V160.585C244.292 159.96 244.439 159.439 244.733 159.023C245.026 158.606 245.407 158.294 245.876 158.085C246.345 157.877 246.84 157.773 247.36 157.773C247.772 157.773 248.109 157.806 248.369 157.872C248.629 157.938 248.824 158 248.951 158.057L248.468 159.506C248.383 159.477 248.265 159.442 248.113 159.399C247.967 159.357 247.772 159.335 247.531 159.335C246.977 159.335 246.577 159.475 246.331 159.754C246.089 160.034 245.968 160.443 245.968 160.983V173H244.292ZM257.236 168.54V162.091H258.912V173H257.236V171.153H257.122C256.866 171.707 256.469 172.179 255.929 172.567C255.389 172.95 254.707 173.142 253.883 173.142C253.202 173.142 252.596 172.993 252.065 172.695C251.535 172.392 251.118 171.937 250.815 171.331C250.512 170.72 250.361 169.951 250.361 169.023V162.091H252.037V168.909C252.037 169.705 252.259 170.339 252.704 170.812C253.154 171.286 253.727 171.523 254.423 171.523C254.84 171.523 255.264 171.416 255.694 171.203C256.13 170.99 256.495 170.663 256.788 170.223C257.087 169.783 257.236 169.222 257.236 168.54ZM263.258 158.455V173H261.582V158.455H263.258ZM267.604 158.455V173H265.928V158.455H267.604ZM271.353 177.091C271.069 177.091 270.816 177.067 270.594 177.02C270.371 176.977 270.217 176.935 270.132 176.892L270.558 175.415C270.965 175.519 271.325 175.557 271.638 175.528C271.95 175.5 272.227 175.36 272.469 175.109C272.715 174.863 272.94 174.463 273.143 173.909L273.456 173.057L269.422 162.091H271.24L274.251 170.784H274.365L277.376 162.091H279.194L274.564 174.591C274.355 175.154 274.097 175.621 273.79 175.99C273.482 176.364 273.124 176.641 272.717 176.821C272.315 177.001 271.86 177.091 271.353 177.091Z" fill="white"/>
</g>
<defs>
<linearGradient id="paint0_linear_1905_31014" x1="150" y1="120" x2="150" y2="240" gradientUnits="userSpaceOnUse">
<stop stop-color="#D9D9D9"/>
<stop offset="1" stop-color="#D9D9D9" stop-opacity="0"/>
</linearGradient>
<linearGradient id="paint1_linear_1905_31014" x1="150" y1="120" x2="300" y2="120" gradientUnits="userSpaceOnUse">
<stop stop-color="#D9D9D9"/>
<stop offset="1" stop-color="#D9D9D9" stop-opacity="0"/>
</linearGradient>
<clipPath id="clip0_1905_31014">
<rect width="32" height="44" fill="white" transform="translate(32 26)"/>
</clipPath>
<clipPath id="clip1_1905_31014">
<rect width="32" height="44" fill="white" transform="translate(32 234)"/>
</clipPath>
<clipPath id="clip2_1905_31014">
<rect width="32" height="44" fill="white" transform="translate(32 130)"/>
</clipPath>
</defs>
</svg>
