<svg width="300" height="120" viewBox="0 0 300 120" fill="none" xmlns="http://www.w3.org/2000/svg">
<mask id="mask0_1930_8895" style="mask-type:alpha" maskUnits="userSpaceOnUse" x="0" y="0" width="300" height="120">
<mask id="mask1_1930_8895" style="mask-type:alpha" maskUnits="userSpaceOnUse" x="0" y="0" width="300" height="120">
<rect width="300" height="120" fill="url(#paint0_linear_1930_8895)"/>
</mask>
<g mask="url(#mask1_1930_8895)">
<rect width="300" height="120" fill="url(#paint1_linear_1930_8895)"/>
</g>
</mask>
<g mask="url(#mask0_1930_8895)">
<rect y="22" width="375" height="80" rx="16" fill="white" fill-opacity="0.02"/>
<rect x="24" y="46" width="32" height="32" rx="8" fill="#00FF60" fill-opacity="0.08"/>
<rect x="25" y="47" width="30" height="30" rx="7" stroke="#00FF60" stroke-opacity="0.48" stroke-width="2"/>
<rect x="40" y="54" width="11.9769" height="11.9769" rx="4" transform="rotate(45 40 54)" fill="#00FF60" fill-opacity="0.02"/>
<rect x="40" y="55.4142" width="9.97693" height="9.97693" rx="3" transform="rotate(45 40 55.4142)" stroke="#00FF60" stroke-opacity="0.48" stroke-width="2"/>
<path opacity="0.48" d="M75.7557 71.2898C74.4091 71.2841 73.2585 70.929 72.304 70.2244C71.3494 69.5199 70.6193 68.4943 70.1136 67.1477C69.608 65.8011 69.3551 64.179 69.3551 62.2812C69.3551 60.3892 69.608 58.7727 70.1136 57.4318C70.625 56.0909 71.358 55.0682 72.3125 54.3636C73.2727 53.6591 74.4205 53.3068 75.7557 53.3068C77.0909 53.3068 78.2358 53.6619 79.1903 54.3722C80.1449 55.0767 80.875 56.0994 81.3807 57.4403C81.892 58.7756 82.1477 60.3892 82.1477 62.2812C82.1477 64.1847 81.8949 65.8097 81.3892 67.1562C80.8835 68.4972 80.1534 69.5227 79.1989 70.233C78.2443 70.9375 77.0966 71.2898 75.7557 71.2898ZM75.7557 69.0142C76.9375 69.0142 77.8608 68.4375 78.5256 67.2841C79.196 66.1307 79.5312 64.4631 79.5312 62.2812C79.5312 60.8324 79.3778 59.608 79.071 58.608C78.7699 57.6023 78.3352 56.8409 77.767 56.3239C77.2045 55.8011 76.5341 55.5398 75.7557 55.5398C74.5795 55.5398 73.6563 56.1193 72.9858 57.2784C72.3153 58.4375 71.9773 60.1051 71.9716 62.2812C71.9716 63.7358 72.1222 64.9659 72.4233 65.9716C72.7301 66.9716 73.1648 67.7301 73.7273 68.2472C74.2898 68.7585 74.9659 69.0142 75.7557 69.0142ZM95.0974 68.1023L85.2963 58.3011L86.9071 56.6903L96.7082 66.4915L95.0974 68.1023ZM86.9071 68.1023L85.2963 66.4915L95.0974 56.6903L96.7082 58.3011L86.9071 68.1023ZM106.272 71.2386C105.102 71.2386 104.056 71.0369 103.136 70.6335C102.221 70.2301 101.497 69.6705 100.963 68.9545C100.434 68.233 100.15 67.3977 100.11 66.4489H102.786C102.821 66.9659 102.994 67.4148 103.306 67.7955C103.625 68.1705 104.039 68.4602 104.551 68.6648C105.062 68.8693 105.63 68.9716 106.255 68.9716C106.943 68.9716 107.551 68.8523 108.079 68.6136C108.613 68.375 109.031 68.0426 109.332 67.6165C109.633 67.1847 109.784 66.6875 109.784 66.125C109.784 65.5398 109.633 65.0256 109.332 64.5824C109.036 64.1335 108.602 63.7812 108.028 63.5256C107.46 63.2699 106.772 63.142 105.965 63.142H104.491V60.9943H105.965C106.613 60.9943 107.181 60.8778 107.67 60.6449C108.164 60.4119 108.551 60.0881 108.829 59.6733C109.107 59.2528 109.247 58.7614 109.247 58.1989C109.247 57.6591 109.125 57.1903 108.88 56.7926C108.642 56.3892 108.301 56.0739 107.857 55.8466C107.42 55.6193 106.903 55.5057 106.306 55.5057C105.738 55.5057 105.207 55.6108 104.713 55.821C104.224 56.0256 103.826 56.321 103.519 56.7074C103.213 57.0881 103.048 57.5455 103.025 58.0795H100.477C100.505 57.1364 100.784 56.3068 101.312 55.5909C101.846 54.875 102.551 54.3153 103.426 53.9119C104.301 53.5085 105.272 53.3068 106.34 53.3068C107.46 53.3068 108.426 53.5256 109.238 53.9631C110.056 54.3949 110.687 54.9716 111.13 55.6932C111.579 56.4148 111.801 57.2045 111.795 58.0625C111.801 59.0398 111.528 59.8693 110.977 60.5511C110.431 61.233 109.704 61.6903 108.795 61.9233V62.0597C109.954 62.2358 110.852 62.696 111.488 63.4403C112.13 64.1847 112.448 65.108 112.443 66.2102C112.448 67.1705 112.181 68.0312 111.642 68.7926C111.107 69.554 110.377 70.1534 109.451 70.5909C108.525 71.0227 107.465 71.2386 106.272 71.2386ZM121.806 53.5455V71H119.164V56.1875H119.062L114.886 58.9148V56.392L119.241 53.5455H121.806ZM131.946 71.2386C130.724 71.2386 129.645 71.0284 128.707 70.608C127.775 70.1875 127.045 69.608 126.517 68.8693C125.988 68.1307 125.727 67.2898 125.733 66.3466C125.727 65.608 125.878 64.929 126.184 64.3097C126.497 63.6847 126.92 63.1648 127.454 62.75C127.988 62.3295 128.585 62.0625 129.244 61.9489V61.8466C128.375 61.6364 127.679 61.1705 127.156 60.4489C126.633 59.7273 126.375 58.8977 126.38 57.9602C126.375 57.0682 126.611 56.2727 127.088 55.5739C127.571 54.8693 128.233 54.3153 129.074 53.9119C129.915 53.5085 130.872 53.3068 131.946 53.3068C133.008 53.3068 133.957 53.5114 134.792 53.9205C135.633 54.3239 136.295 54.8778 136.778 55.5824C137.261 56.2812 137.505 57.0739 137.511 57.9602C137.505 58.8977 137.238 59.7273 136.71 60.4489C136.182 61.1705 135.494 61.6364 134.647 61.8466V61.9489C135.301 62.0625 135.889 62.3295 136.412 62.75C136.94 63.1648 137.361 63.6847 137.673 64.3097C137.991 64.929 138.153 65.608 138.159 66.3466C138.153 67.2898 137.886 68.1307 137.358 68.8693C136.829 69.608 136.096 70.1875 135.159 70.608C134.227 71.0284 133.156 71.2386 131.946 71.2386ZM131.946 69.0824C132.667 69.0824 133.292 68.9631 133.821 68.7244C134.349 68.4801 134.758 68.142 135.048 67.7102C135.338 67.2727 135.486 66.7614 135.491 66.1761C135.486 65.5682 135.326 65.0312 135.014 64.5653C134.707 64.0994 134.29 63.733 133.761 63.4659C133.233 63.1989 132.628 63.0653 131.946 63.0653C131.258 63.0653 130.647 63.1989 130.113 63.4659C129.579 63.733 129.159 64.0994 128.852 64.5653C128.545 65.0312 128.395 65.5682 128.4 66.1761C128.395 66.7614 128.534 67.2727 128.818 67.7102C129.108 68.142 129.52 68.4801 130.054 68.7244C130.588 68.9631 131.218 69.0824 131.946 69.0824ZM131.946 60.9602C132.525 60.9602 133.04 60.8437 133.488 60.6108C133.937 60.3778 134.29 60.054 134.545 59.6392C134.807 59.2244 134.94 58.7386 134.946 58.1818C134.94 57.6364 134.809 57.1591 134.554 56.75C134.304 56.3409 133.954 56.0256 133.505 55.804C133.057 55.5767 132.537 55.4631 131.946 55.4631C131.343 55.4631 130.815 55.5767 130.361 55.804C129.912 56.0256 129.562 56.3409 129.312 56.75C129.062 57.1591 128.94 57.6364 128.946 58.1818C128.94 58.7386 129.065 59.2244 129.321 59.6392C129.576 60.054 129.929 60.3778 130.378 60.6108C130.832 60.8437 131.355 60.9602 131.946 60.9602ZM146.28 71.2642C145.013 71.2642 143.922 70.9773 143.008 70.4034C142.099 69.8239 141.4 69.0256 140.911 68.0085C140.422 66.9915 140.178 65.8267 140.178 64.5142C140.178 63.1847 140.428 62.0114 140.928 60.9943C141.428 59.9716 142.133 59.1733 143.042 58.5994C143.951 58.0256 145.022 57.7386 146.255 57.7386C147.249 57.7386 148.136 57.9233 148.914 58.2926C149.692 58.6562 150.32 59.1676 150.797 59.8267C151.28 60.4858 151.567 61.2557 151.658 62.1364H149.178C149.042 61.5227 148.729 60.9943 148.241 60.5511C147.758 60.108 147.11 59.8864 146.297 59.8864C145.587 59.8864 144.965 60.0739 144.431 60.4489C143.903 60.8182 143.491 61.3466 143.195 62.0341C142.9 62.7159 142.752 63.5227 142.752 64.4545C142.752 65.4091 142.897 66.233 143.187 66.9261C143.476 67.6193 143.886 68.1562 144.414 68.5369C144.948 68.9176 145.576 69.108 146.297 69.108C146.78 69.108 147.218 69.0199 147.61 68.8438C148.008 68.6619 148.34 68.4034 148.607 68.0682C148.88 67.733 149.07 67.3295 149.178 66.858H151.658C151.567 67.7045 151.292 68.4602 150.832 69.125C150.371 69.7898 149.755 70.3125 148.982 70.6932C148.215 71.0739 147.314 71.2642 146.28 71.2642ZM155.582 71.1619C155.116 71.1619 154.716 70.9972 154.381 70.6676C154.045 70.3324 153.878 69.929 153.878 69.4574C153.878 68.9915 154.045 68.5937 154.381 68.2642C154.716 67.929 155.116 67.7614 155.582 67.7614C156.048 67.7614 156.449 67.929 156.784 68.2642C157.119 68.5937 157.287 68.9915 157.287 69.4574C157.287 69.7699 157.207 70.0568 157.048 70.3182C156.895 70.5739 156.69 70.7784 156.435 70.9318C156.179 71.0852 155.895 71.1619 155.582 71.1619ZM161.899 71.1619C161.433 71.1619 161.033 70.9972 160.698 70.6676C160.362 70.3324 160.195 69.929 160.195 69.4574C160.195 68.9915 160.362 68.5937 160.698 68.2642C161.033 67.929 161.433 67.7614 161.899 67.7614C162.365 67.7614 162.766 67.929 163.101 68.2642C163.436 68.5937 163.604 68.9915 163.604 69.4574C163.604 69.7699 163.524 70.0568 163.365 70.3182C163.212 70.5739 163.007 70.7784 162.752 70.9318C162.496 71.0852 162.212 71.1619 161.899 71.1619ZM168.216 71.1619C167.75 71.1619 167.35 70.9972 167.014 70.6676C166.679 70.3324 166.512 69.929 166.512 69.4574C166.512 68.9915 166.679 68.5937 167.014 68.2642C167.35 67.929 167.75 67.7614 168.216 67.7614C168.682 67.7614 169.083 67.929 169.418 68.2642C169.753 68.5937 169.921 68.9915 169.921 69.4574C169.921 69.7699 169.841 70.0568 169.682 70.3182C169.529 70.5739 169.324 70.7784 169.068 70.9318C168.813 71.0852 168.529 71.1619 168.216 71.1619ZM177.333 53.5455V71H174.691V56.1875H174.588L170.412 58.9148V56.392L174.767 53.5455H177.333ZM187.336 71.2386C186.267 71.2386 185.307 71.0341 184.455 70.625C183.608 70.2102 182.932 69.642 182.427 68.9205C181.921 68.1989 181.651 67.375 181.617 66.4489H184.174C184.236 67.1989 184.569 67.8153 185.171 68.2983C185.773 68.7812 186.495 69.0227 187.336 69.0227C188.006 69.0227 188.6 68.8693 189.117 68.5625C189.64 68.25 190.049 67.821 190.344 67.2756C190.645 66.7301 190.796 66.108 190.796 65.4091C190.796 64.6989 190.642 64.0653 190.336 63.5085C190.029 62.9517 189.606 62.5142 189.066 62.196C188.532 61.8778 187.918 61.7159 187.225 61.7102C186.696 61.7102 186.165 61.8011 185.631 61.983C185.097 62.1648 184.665 62.4034 184.336 62.6989L181.924 62.3409L182.904 53.5455H192.5V55.804H185.094L184.54 60.6875H184.642C184.983 60.358 185.435 60.0824 185.998 59.8608C186.566 59.6392 187.174 59.5284 187.821 59.5284C188.884 59.5284 189.83 59.7812 190.66 60.2869C191.495 60.7926 192.151 61.483 192.628 62.358C193.111 63.2273 193.35 64.2273 193.344 65.358C193.35 66.4886 193.094 67.4972 192.577 68.3835C192.066 69.2699 191.356 69.9687 190.446 70.4801C189.543 70.9858 188.506 71.2386 187.336 71.2386ZM202.054 71.2386C200.883 71.2386 199.838 71.0369 198.917 70.6335C198.003 70.2301 197.278 69.6705 196.744 68.9545C196.216 68.233 195.932 67.3977 195.892 66.4489H198.568C198.602 66.9659 198.775 67.4148 199.088 67.7955C199.406 68.1705 199.821 68.4602 200.332 68.6648C200.844 68.8693 201.412 68.9716 202.037 68.9716C202.724 68.9716 203.332 68.8523 203.861 68.6136C204.395 68.375 204.812 68.0426 205.113 67.6165C205.415 67.1847 205.565 66.6875 205.565 66.125C205.565 65.5398 205.415 65.0256 205.113 64.5824C204.818 64.1335 204.383 63.7812 203.809 63.5256C203.241 63.2699 202.554 63.142 201.747 63.142H200.273V60.9943H201.747C202.395 60.9943 202.963 60.8778 203.452 60.6449C203.946 60.4119 204.332 60.0881 204.611 59.6733C204.889 59.2528 205.028 58.7614 205.028 58.1989C205.028 57.6591 204.906 57.1903 204.662 56.7926C204.423 56.3892 204.082 56.0739 203.639 55.8466C203.202 55.6193 202.684 55.5057 202.088 55.5057C201.52 55.5057 200.988 55.6108 200.494 55.821C200.006 56.0256 199.608 56.321 199.301 56.7074C198.994 57.0881 198.829 57.5455 198.807 58.0795H196.258C196.287 57.1364 196.565 56.3068 197.094 55.5909C197.628 54.875 198.332 54.3153 199.207 53.9119C200.082 53.5085 201.054 53.3068 202.122 53.3068C203.241 53.3068 204.207 53.5256 205.02 53.9631C205.838 54.3949 206.469 54.9716 206.912 55.6932C207.361 56.4148 207.582 57.2045 207.577 58.0625C207.582 59.0398 207.309 59.8693 206.758 60.5511C206.213 61.233 205.486 61.6903 204.577 61.9233V62.0597C205.736 62.2358 206.633 62.696 207.27 63.4403C207.912 64.1847 208.23 65.108 208.224 66.2102C208.23 67.1705 207.963 68.0312 207.423 68.7926C206.889 69.554 206.159 70.1534 205.233 70.5909C204.307 71.0227 203.247 71.2386 202.054 71.2386ZM211.554 71L219.173 55.9318V55.804H210.361V53.5455H221.901V55.8807L214.307 71H211.554Z" fill="white"/>
<rect x="1" y="23" width="373" height="78" rx="15" stroke="white" stroke-opacity="0.08" stroke-width="2"/>
</g>
<defs>
<linearGradient id="paint0_linear_1930_8895" x1="150" y1="60" x2="150" y2="120" gradientUnits="userSpaceOnUse">
<stop stop-color="#090A0C"/>
<stop offset="1" stop-color="#090A0C" stop-opacity="0"/>
</linearGradient>
<linearGradient id="paint1_linear_1930_8895" x1="150" y1="60" x2="300" y2="60" gradientUnits="userSpaceOnUse">
<stop stop-color="#090A0C"/>
<stop offset="1" stop-color="#090A0C" stop-opacity="0"/>
</linearGradient>
</defs>
</svg>
