<svg width="275" height="110" viewBox="0 0 275 110" fill="none" xmlns="http://www.w3.org/2000/svg">
<mask id="mask0_3517_26356" style="mask-type:alpha" maskUnits="userSpaceOnUse" x="0" y="0" width="275" height="110">
<mask id="mask1_3517_26356" style="mask-type:alpha" maskUnits="userSpaceOnUse" x="0" y="0" width="275" height="110">
<path d="M0 0H275V110H0V0Z" fill="url(#paint0_linear_3517_26356)"/>
</mask>
<g mask="url(#mask1_3517_26356)">
<path d="M0 0H275V110H0V0Z" fill="url(#paint1_linear_3517_26356)"/>
</g>
</mask>
<g mask="url(#mask0_3517_26356)">
<path fill-rule="evenodd" clip-rule="evenodd" d="M190.135 29.5459C187.992 31.7568 186.92 32.8623 186.154 34.1462C185.474 35.2847 184.974 36.5229 184.671 37.8166C184.329 39.2757 184.329 40.8237 184.329 43.9198V89.4667C184.329 96.654 184.329 100.248 185.713 102.993C186.93 105.408 188.872 107.371 191.26 108.601C193.975 110 197.53 110 204.639 110H254.689C261.798 110 265.353 110 268.068 108.601C270.457 107.371 272.399 105.408 273.616 102.993C274.999 100.248 274.999 96.654 274.999 89.4667V20.5333C274.999 13.346 274.999 9.75232 273.616 7.00712C272.399 4.59238 270.457 2.62912 268.068 1.39875C265.353 0 261.798 0 254.689 0H227.315C224.168 0 222.594 0 221.116 0.363593C219.805 0.685932 218.553 1.21745 217.408 1.93813C216.116 2.75104 215.015 3.88714 212.812 6.15932L212.812 6.15936L212.812 6.15939L206.079 13.1029C204.379 14.8566 201.59 14.8706 199.872 13.1342C198.456 11.7023 196.159 11.7023 194.743 13.1342L189.614 18.3196C188.197 19.7516 188.197 22.0732 189.614 23.5051L190.108 24.005C191.619 25.5319 191.631 28.0038 190.135 29.5459ZM220.597 11C220.597 8.97496 222.221 7.33333 224.224 7.33333H264.119C266.122 7.33333 267.746 8.97496 267.746 11C267.746 13.025 266.122 14.6667 264.119 14.6667H224.224C222.221 14.6667 220.597 13.025 220.597 11Z" fill="#00FF60" fill-opacity="0.08"/>
<path fill-rule="evenodd" clip-rule="evenodd" d="M214.107 7.44271L214.107 7.44278L207.374 14.3863C204.967 16.8681 201.02 16.888 198.59 14.4305C197.881 13.7146 196.733 13.7146 196.025 14.4305L190.896 19.616L189.614 18.3196L194.743 13.1342C196.159 11.7023 198.456 11.7023 199.872 13.1342C201.59 14.8706 204.379 14.8566 206.079 13.1029L212.812 6.15932L212.812 6.15927C215.015 3.88712 216.116 2.75104 217.408 1.93813C218.553 1.21745 219.805 0.685932 221.116 0.363593C222.594 0 224.168 0 227.315 0H254.689C261.798 0 265.353 0 268.068 1.39875C270.457 2.62912 272.399 4.59238 273.616 7.00712C274.999 9.75232 274.999 13.346 274.999 20.5333V89.4667C274.999 96.654 274.999 100.248 273.616 102.993C272.399 105.408 270.457 107.371 268.068 108.601C265.353 110 261.798 110 254.689 110H204.639C197.53 110 193.975 110 191.26 108.601C188.872 107.371 186.93 105.408 185.713 102.993C184.329 100.248 184.329 96.654 184.329 89.4667V43.9198C184.329 40.8237 184.329 39.2757 184.671 37.8166C184.974 36.5229 185.474 35.2847 186.154 34.1462C186.92 32.8623 187.992 31.7568 190.135 29.5459C191.631 28.0038 191.619 25.5319 190.108 24.005L189.614 23.5051L190.896 22.2087L191.39 22.7086C193.604 24.9465 193.622 28.5692 191.43 30.8293C189.227 33.1016 188.338 34.0353 187.706 35.0932C187.124 36.069 186.695 37.1304 186.436 38.2393C186.154 39.4415 186.143 40.7378 186.143 43.9198V89.4667C186.143 93.0906 186.144 95.6983 186.309 97.7463C186.473 99.7729 186.789 101.089 187.328 102.161C188.372 104.23 190.036 105.913 192.083 106.968C193.143 107.513 194.445 107.832 196.45 107.998C198.475 108.165 201.055 108.167 204.639 108.167H254.689C258.274 108.167 260.853 108.165 262.879 107.998C264.883 107.832 266.186 107.513 267.245 106.968C269.292 105.913 270.957 104.23 272 102.161C272.54 101.089 272.855 99.7729 273.019 97.7463C273.185 95.6983 273.186 93.0906 273.186 89.4667V20.5333C273.186 16.9094 273.185 14.3017 273.019 12.2537C272.855 10.2271 272.54 8.91051 272 7.83944C270.957 5.76966 269.292 4.08687 267.245 3.03226C266.186 2.48652 264.883 2.16767 262.879 2.00209C260.853 1.83476 258.274 1.83333 254.689 1.83333H227.315C224.08 1.83333 222.763 1.84542 221.544 2.14498C220.421 2.42127 219.348 2.87686 218.366 3.49459C217.303 4.16385 216.372 5.10593 214.112 7.43762L214.111 7.43782L214.107 7.44271ZM189.614 23.5051L190.896 22.2087C190.188 21.4928 190.188 20.332 190.896 19.616L189.614 18.3196C188.197 19.7516 188.197 22.0732 189.614 23.5051ZM218.784 11C218.784 7.96243 221.219 5.5 224.224 5.5H264.119C267.124 5.5 269.559 7.96243 269.559 11C269.559 14.0376 267.124 16.5 264.119 16.5H224.224C221.219 16.5 218.784 14.0376 218.784 11ZM224.224 7.33333C222.221 7.33333 220.597 8.97496 220.597 11C220.597 13.025 222.221 14.6667 224.224 14.6667H264.119C266.122 14.6667 267.746 13.025 267.746 11C267.746 8.97496 266.122 7.33333 264.119 7.33333H224.224Z" fill="#00FF60" fill-opacity="0.48"/>
<g opacity="0.48">
<path fill-rule="evenodd" clip-rule="evenodd" d="M243.195 46.85H218.126C217.063 46.85 216.377 46.8514 215.855 46.8943C215.354 46.9353 215.168 47.005 215.077 47.0516C214.73 47.229 214.448 47.512 214.272 47.8601C214.225 47.9516 214.156 48.1379 214.115 48.6405C214.072 49.1647 214.071 49.8534 214.071 50.92V76.08C214.071 77.1466 214.072 77.8353 214.115 78.3595C214.156 78.8621 214.225 79.0484 214.272 79.1399C214.448 79.488 214.73 79.771 215.077 79.9484C215.168 79.995 215.354 80.0647 215.855 80.1057C216.377 80.1486 217.063 80.15 218.126 80.15H243.195C244.258 80.15 244.944 80.1486 245.466 80.1057C245.967 80.0647 246.153 79.995 246.244 79.9484C246.591 79.771 246.873 79.488 247.049 79.1399C247.096 79.0484 247.165 78.8621 247.206 78.3595C247.249 77.8353 247.25 77.1466 247.25 76.08V50.92C247.25 49.8534 247.249 49.1647 247.206 48.6405C247.165 48.1379 247.096 47.9516 247.049 47.8601C246.873 47.512 246.591 47.229 246.244 47.0516C246.153 47.005 245.967 46.9353 245.466 46.8943C244.944 46.8514 244.258 46.85 243.195 46.85ZM212.629 47.0202C212.228 47.8117 212.228 48.8478 212.228 50.92V76.08C212.228 78.1522 212.228 79.1883 212.629 79.9798C212.983 80.676 213.547 81.242 214.24 81.5967C215.029 82 216.061 82 218.126 82H243.195C245.26 82 246.292 82 247.081 81.5967C247.774 81.242 248.338 80.676 248.692 79.9798C249.093 79.1883 249.093 78.1522 249.093 76.08V50.92C249.093 48.8478 249.093 47.8117 248.692 47.0202C248.338 46.324 247.774 45.758 247.081 45.4033C246.292 45 245.26 45 243.195 45H218.126C216.061 45 215.029 45 214.24 45.4033C213.547 45.758 212.983 46.324 212.629 47.0202Z" fill="#00FF60"/>
<path fill-rule="evenodd" clip-rule="evenodd" d="M215.217 81.2845L202.547 94L201.268 92.7155L213.937 80L215.217 81.2845Z" fill="#00FF60"/>
<path fill-rule="evenodd" clip-rule="evenodd" d="M261.05 35.2845L248.38 48L247.101 46.7155L259.77 34L261.05 35.2845Z" fill="#00FF60"/>
<path fill-rule="evenodd" clip-rule="evenodd" d="M247.101 81.2845L259.77 94L261.05 92.7155L248.38 80L247.101 81.2845Z" fill="#00FF60"/>
<path fill-rule="evenodd" clip-rule="evenodd" d="M201.268 35.2845L213.937 48L215.217 46.7155L202.547 34L201.268 35.2845Z" fill="#00FF60"/>
</g>
<path fill-rule="evenodd" clip-rule="evenodd" d="M4.9769 30.4013C3.13938 32.2964 2.22061 33.244 1.56393 34.3445C0.981681 35.3203 0.552951 36.3816 0.293086 37.4905C0 38.7412 0 40.0681 0 42.7219V92.4C0 98.5606 0 101.641 1.1859 103.994C2.22904 106.064 3.89354 107.746 5.94082 108.801C8.26827 110 11.3151 110 17.4087 110H73.2616C79.3552 110 82.402 110 84.7295 108.801C86.7768 107.746 88.4412 106.064 89.4844 103.994C90.6703 101.641 90.6703 98.5606 90.6703 92.4V17.6C90.6703 11.4394 90.6703 8.35913 89.4844 6.0061C88.4412 3.93632 86.7768 2.25354 84.7295 1.19893C82.402 0 79.3552 0 73.2616 0H41.7674C39.0697 0 37.7209 0 36.4536 0.311651C35.33 0.587941 34.2573 1.04352 33.2756 1.66125C32.1683 2.35804 31.2241 3.33186 29.3356 5.27948L21.7498 13.1029C20.0494 14.8566 17.2604 14.8706 15.5428 13.1342C14.1265 11.7023 11.8301 11.7023 10.4137 13.1342L5.28465 18.3196C3.86829 19.7516 3.86829 22.0732 5.28465 23.5051C7.06888 25.3089 7.08326 28.229 5.31689 30.0507L4.9769 30.4013ZM36.2681 11C36.2681 8.97496 37.8919 7.33333 39.8949 7.33333H79.7899C81.7929 7.33333 83.4167 8.97496 83.4167 11C83.4167 13.025 81.7929 14.6667 79.7899 14.6667H39.8949C37.8919 14.6667 36.2681 13.025 36.2681 11Z" fill="white" fill-opacity="0.08"/>
<path fill-rule="evenodd" clip-rule="evenodd" d="M6.27188 31.6847C4.37482 33.6412 3.63848 34.417 3.11668 35.2915C2.63147 36.1047 2.2742 36.9891 2.05764 37.9132C1.82476 38.907 1.81341 39.9821 1.81341 42.7219V92.4C1.81341 95.5105 1.81482 97.7332 1.95562 99.4755C2.0947 101.196 2.36067 102.287 2.80165 103.162C3.67094 104.886 5.05802 106.289 6.76409 107.168C7.62957 107.613 8.70792 107.882 10.4101 108.023C12.1335 108.165 14.332 108.167 17.4087 108.167H73.2616C76.3383 108.167 78.5368 108.165 80.2602 108.023C81.9624 107.882 83.0407 107.613 83.9062 107.168C85.6123 106.289 86.9994 104.886 87.8686 103.162C88.3096 102.287 88.5756 101.196 88.7147 99.4755C88.8555 97.7332 88.8569 95.5105 88.8569 92.4V17.6C88.8569 14.4895 88.8555 12.2668 88.7147 10.5245C88.5756 8.80362 88.3096 7.71341 87.8686 6.83842C86.9994 5.1136 85.6123 3.71128 83.9062 2.83244C83.0407 2.38661 81.9624 2.11771 80.2602 1.97711C78.5368 1.83476 76.3383 1.83333 73.2616 1.83333H41.7674C38.9821 1.83333 37.8891 1.84542 36.8822 2.09304C35.9459 2.32328 35.0519 2.70294 34.2339 3.21771C33.3541 3.77134 32.5804 4.55201 30.6306 6.56287L23.0448 14.3863C20.6384 16.8681 16.6913 16.888 14.2606 14.4305C13.5524 13.7146 12.4042 13.7146 11.696 14.4305L6.56692 19.616L5.28465 18.3196L10.4137 13.1342C11.8301 11.7023 14.1265 11.7023 15.5428 13.1342C17.2604 14.8706 20.0494 14.8566 21.7498 13.1029L29.3356 5.27948C31.2241 3.33186 32.1683 2.35804 33.2756 1.66125C34.2573 1.04352 35.33 0.587941 36.4536 0.311651C37.7209 0 39.0697 0 41.7674 0H73.2616C79.3552 0 82.402 0 84.7295 1.19893C86.7768 2.25354 88.4412 3.93632 89.4844 6.0061C90.6703 8.35913 90.6703 11.4394 90.6703 17.6V92.4C90.6703 98.5606 90.6703 101.641 89.4844 103.994C88.4412 106.064 86.7768 107.746 84.7295 108.801C82.402 110 79.3552 110 73.2616 110H17.4087C11.3151 110 8.26827 110 5.94082 108.801C3.89354 107.746 2.22904 106.064 1.1859 103.994C0 101.641 0 98.5606 0 92.4V42.7219C0 40.0681 0 38.7412 0.293086 37.4905C0.552951 36.3816 0.981681 35.3203 1.56393 34.3445C2.22061 33.244 3.13938 32.2964 4.9769 30.4013L5.31689 30.0507C7.08326 28.229 7.06888 25.3089 5.28465 23.5051L6.56692 22.2087C9.05435 24.7235 9.0744 28.7944 6.61187 31.3341L6.27188 31.6847ZM5.28465 23.5051L6.56692 22.2087C5.85874 21.4928 5.85874 20.332 6.56692 19.616L5.28465 18.3196C3.86829 19.7516 3.86829 22.0732 5.28465 23.5051ZM34.4547 11C34.4547 7.96243 36.8904 5.5 39.8949 5.5H79.7899C82.7944 5.5 85.2301 7.96243 85.2301 11C85.2301 14.0376 82.7944 16.5 79.7899 16.5H39.8949C36.8904 16.5 34.4547 14.0376 34.4547 11ZM39.8949 7.33333C37.8919 7.33333 36.2681 8.97496 36.2681 11C36.2681 13.025 37.8919 14.6667 39.8949 14.6667H79.7899C81.7929 14.6667 83.4167 13.025 83.4167 11C83.4167 8.97496 81.7929 7.33333 79.7899 7.33333H39.8949Z" fill="white" fill-opacity="0.12"/>
<g opacity="0.12">
<path fill-rule="evenodd" clip-rule="evenodd" d="M60.6999 46.85H34.9535C33.862 46.85 33.1572 46.8514 32.6208 46.8943C32.1066 46.9353 31.9159 47.005 31.8223 47.0516C31.4661 47.229 31.1765 47.512 30.995 47.8601C30.9473 47.9516 30.8759 48.1379 30.8339 48.6405C30.7901 49.1647 30.7886 49.8534 30.7886 50.92V76.08C30.7886 77.1466 30.7901 77.8353 30.8339 78.3595C30.8759 78.8621 30.9473 79.0484 30.995 79.1399C31.1765 79.488 31.4661 79.771 31.8223 79.9484C31.9159 79.995 32.1066 80.0647 32.6208 80.1057C33.1572 80.1486 33.862 80.15 34.9535 80.15H60.6999C61.7913 80.15 62.4961 80.1486 63.0325 80.1057C63.5468 80.0647 63.7374 79.995 63.8311 79.9484C64.1873 79.771 64.4769 79.488 64.6584 79.1399C64.7061 79.0484 64.7774 78.8621 64.8194 78.3595C64.8632 77.8353 64.8647 77.1466 64.8647 76.08V50.92C64.8647 49.8534 64.8632 49.1647 64.8194 48.6405C64.7774 48.1379 64.7061 47.9516 64.6584 47.8601C64.4769 47.512 64.1873 47.229 63.8311 47.0516C63.7374 47.005 63.5468 46.9353 63.0325 46.8943C62.4961 46.8514 61.7913 46.85 60.6999 46.85ZM29.3082 47.0202C28.8955 47.8117 28.8955 48.8478 28.8955 50.92V76.08C28.8955 78.1522 28.8955 79.1883 29.3082 79.9798C29.6712 80.676 30.2504 81.242 30.9628 81.5967C31.7727 82 32.833 82 34.9535 82H60.6999C62.8203 82 63.8806 82 64.6905 81.5967C65.4029 81.242 65.9822 80.676 66.3452 79.9798C66.7578 79.1883 66.7578 78.1522 66.7578 76.08V50.92C66.7578 48.8478 66.7578 47.8117 66.3452 47.0202C65.9822 46.324 65.4029 45.758 64.6905 45.4033C63.8806 45 62.8203 45 60.6999 45H34.9535C32.833 45 31.7727 45 30.9628 45.4033C30.2504 45.758 29.6712 46.324 29.3082 47.0202Z" fill="white"/>
<path fill-rule="evenodd" clip-rule="evenodd" d="M30.8887 81.2845L18.2193 94L16.9395 92.7155L29.6089 80L30.8887 81.2845Z" fill="white"/>
<path fill-rule="evenodd" clip-rule="evenodd" d="M77.7188 35.2845L65.0493 48L63.7695 46.7155L76.439 34L77.7188 35.2845Z" fill="white"/>
<path fill-rule="evenodd" clip-rule="evenodd" d="M63.7695 81.2845L76.4389 94L77.7188 92.7155L65.0493 80L63.7695 81.2845Z" fill="white"/>
<path fill-rule="evenodd" clip-rule="evenodd" d="M16.9394 35.2845L29.6089 48L30.8887 46.7155L18.2192 34L16.9394 35.2845Z" fill="white"/>
</g>
<path fill-rule="evenodd" clip-rule="evenodd" d="M175.362 32H100.634V30H175.362V32Z" fill="white" fill-opacity="0.12"/>
<path fill-rule="evenodd" clip-rule="evenodd" d="M104.37 59H100.634V57H104.37C104.883 57 105.299 57.4477 105.299 58C105.299 58.5523 104.883 59 104.37 59ZM110.915 58C110.915 57.4477 111.33 57 111.843 57H119.316C119.829 57 120.244 57.4477 120.244 58C120.244 58.5523 119.829 59 119.316 59H111.843C111.33 59 110.915 58.5523 110.915 58ZM125.86 58C125.86 57.4477 126.276 57 126.789 57H134.262C134.774 57 135.19 57.4477 135.19 58C135.19 58.5523 134.774 59 134.262 59H126.789C126.276 59 125.86 58.5523 125.86 58ZM140.806 58C140.806 57.4477 141.222 57 141.734 57H149.207C149.72 57 150.135 57.4477 150.135 58C150.135 58.5523 149.72 59 149.207 59H141.734C141.222 59 140.806 58.5523 140.806 58ZM155.752 58C155.752 57.4477 156.167 57 156.68 57H164.153C164.665 57 165.081 57.4477 165.081 58C165.081 58.5523 164.665 59 164.153 59H156.68C156.167 59 155.752 58.5523 155.752 58ZM170.697 58C170.697 57.4477 171.113 57 171.626 57H175.362V59H171.626C171.113 59 170.697 58.5523 170.697 58Z" fill="white" fill-opacity="0.12"/>
<path fill-rule="evenodd" clip-rule="evenodd" d="M99.6377 85C99.6377 84.4477 100.054 84 100.568 84H109.925C110.439 84 110.855 84.4477 110.855 85C110.855 85.5523 110.439 86 109.925 86H100.568C100.054 86 99.6377 85.5523 99.6377 85ZM127.711 85C127.711 84.4477 128.127 84 128.641 84H147.356C147.869 84 148.286 84.4477 148.286 85C148.286 85.5523 147.869 86 147.356 86H128.641C128.127 86 127.711 85.5523 127.711 85ZM165.141 85C165.141 84.4477 165.558 84 166.071 84H175.429C175.942 84 176.359 84.4477 176.359 85C176.359 85.5523 175.942 86 175.429 86H166.071C165.558 86 165.141 85.5523 165.141 85Z" fill="white" fill-opacity="0.12"/>
</g>
<defs>
<linearGradient id="paint0_linear_3517_26356" x1="137.5" y1="55" x2="137.5" y2="110" gradientUnits="userSpaceOnUse">
<stop stop-color="#D9D9D9"/>
<stop offset="1" stop-color="#D9D9D9" stop-opacity="0"/>
</linearGradient>
<linearGradient id="paint1_linear_3517_26356" x1="137.5" y1="55" x2="275" y2="55" gradientUnits="userSpaceOnUse">
<stop stop-color="#D9D9D9"/>
<stop offset="1" stop-color="#D9D9D9" stop-opacity="0"/>
</linearGradient>
</defs>
</svg>
