<svg width="120" height="120" viewBox="0 0 120 120" fill="none" xmlns="http://www.w3.org/2000/svg">
<mask id="mask0_1906_31429" style="mask-type:alpha" maskUnits="userSpaceOnUse" x="0" y="0" width="120" height="120">
<rect width="120" height="120" fill="url(#paint0_linear_1906_31429)"/>
</mask>
<g mask="url(#mask0_1906_31429)">
<path d="M95 56.0309C95 76.8107 83.0389 90.5303 65.8179 97.8362C64.1729 98.5341 63.3504 98.883 61.9176 99.115C60.9285 99.2751 59.0715 99.2751 58.0823 99.115C56.6496 98.883 55.8271 98.5341 54.1821 97.8362C36.9611 90.5303 25 76.8107 25 56.0309V44.6606C25 39.508 25 36.9317 25.8803 34.7619C26.6574 32.8466 27.916 31.1645 29.5342 29.8785C31.3674 28.4217 33.839 27.6947 38.7822 26.2408L54.5822 21.5935C56.5969 21.0009 57.6043 20.7047 58.6299 20.5868C59.5403 20.4822 60.4597 20.4822 61.3701 20.5868C62.3957 20.7047 63.4031 21.0009 65.4178 21.5935L81.2178 26.2408C86.161 27.6947 88.6326 28.4217 90.4658 29.8785C92.084 31.1645 93.3426 32.8466 94.1197 34.7619C95 36.9317 95 39.508 95 44.6606V56.0309Z" fill="#00FF60" fill-opacity="0.04"/>
<path d="M94 56.0309C94 76.3281 82.3599 89.7321 65.4273 96.9156C63.7799 97.6145 63.0579 97.9174 61.7578 98.1278C60.8745 98.2708 59.1254 98.2708 58.2421 98.1278C56.942 97.9174 56.22 97.6145 54.5726 96.9156C37.6401 89.7321 26 76.3281 26 56.0309V44.6606C26 39.4192 26.0178 37.0829 26.807 35.1379C27.5193 33.3822 28.673 31.8402 30.1564 30.6614C31.7997 29.3555 34.036 28.6791 39.0644 27.2002L54.8644 22.5529C56.9112 21.9509 57.8236 21.686 58.7441 21.5802C59.5786 21.4843 60.4214 21.4843 61.2559 21.5802C62.1764 21.686 63.0888 21.9509 65.1356 22.5529L80.9356 27.2002C85.964 28.6791 88.2003 29.3555 89.8436 30.6614C91.327 31.8402 92.4807 33.3822 93.193 35.1379C93.9822 37.0829 94 39.4192 94 44.6606V56.0309Z" stroke="#00FF60" stroke-opacity="0.48" stroke-width="2"/>
<mask id="path-4-inside-1_1906_31429" fill="white">
<path fill-rule="evenodd" clip-rule="evenodd" d="M60 20.5088C59.5425 20.5088 59.0851 20.5349 58.6299 20.5873C57.6043 20.7051 56.5969 21.0014 54.5822 21.594L38.7822 26.2413C33.839 27.6952 31.3674 28.4222 29.5342 29.879C27.916 31.1649 26.6574 32.8471 25.8803 34.7624C25 36.9322 25 39.5085 25 44.661V56.0314C25 76.8111 36.9611 90.5308 54.1821 97.8367L54.1821 97.8367C55.8271 98.5346 56.6496 98.8835 58.0823 99.1154C58.5769 99.1955 59.2885 99.2355 60 99.2355V20.5088Z"/>
</mask>
<path fill-rule="evenodd" clip-rule="evenodd" d="M60 20.5088C59.5425 20.5088 59.0851 20.5349 58.6299 20.5873C57.6043 20.7051 56.5969 21.0014 54.5822 21.594L38.7822 26.2413C33.839 27.6952 31.3674 28.4222 29.5342 29.879C27.916 31.1649 26.6574 32.8471 25.8803 34.7624C25 36.9322 25 39.5085 25 44.661V56.0314C25 76.8111 36.9611 90.5308 54.1821 97.8367L54.1821 97.8367C55.8271 98.5346 56.6496 98.8835 58.0823 99.1154C58.5769 99.1955 59.2885 99.2355 60 99.2355V20.5088Z" fill="#00FF60" fill-opacity="0.04"/>
<path d="M58.6299 20.5873L58.4015 18.6003L58.4015 18.6003L58.6299 20.5873ZM60 20.5088H62V18.5088H60V20.5088ZM54.5822 21.594L54.0178 19.6753V19.6753L54.5822 21.594ZM38.7822 26.2413L39.3466 28.16L38.7822 26.2413ZM29.5342 29.879L30.7785 31.4448H30.7785L29.5342 29.879ZM25.8803 34.7624L27.7336 35.5143L25.8803 34.7624ZM54.1821 97.8367L53.401 99.6779L53.4201 99.686L53.4393 99.6936L54.1821 97.8367ZM54.1821 97.8367L54.9632 95.9956L54.9442 95.9875L54.9249 95.9798L54.1821 97.8367ZM58.0823 99.1154L57.7627 101.09H57.7627L58.0823 99.1154ZM60 99.2355V101.236H62V99.2355H60ZM58.8582 22.5742C59.2376 22.5306 59.6188 22.5088 60 22.5088V18.5088C59.4663 18.5088 58.9326 18.5393 58.4015 18.6003L58.8582 22.5742ZM55.1465 23.5127C57.2254 22.9013 58.0428 22.6679 58.8582 22.5742L58.4015 18.6003C57.1657 18.7424 55.9685 19.1016 54.0178 19.6753L55.1465 23.5127ZM39.3466 28.16L55.1465 23.5127L54.0178 19.6753L38.2178 24.3225L39.3466 28.16ZM30.7785 31.4448C32.2319 30.2898 34.2331 29.664 39.3466 28.16L38.2178 24.3225C33.445 25.7264 30.503 26.5545 28.2899 28.3132L30.7785 31.4448ZM27.7336 35.5143C28.3812 33.9182 29.43 32.5164 30.7785 31.4448L28.2899 28.3132C26.402 29.8135 24.9336 31.776 24.027 34.0105L27.7336 35.5143ZM27 44.661C27 39.3309 27.0357 37.2345 27.7336 35.5143L24.027 34.0105C22.9643 36.6299 23 39.686 23 44.661H27ZM27 56.0314V44.661H23V56.0314H27ZM54.9632 95.9955C38.3192 88.9344 27 75.846 27 56.0314H23C23 77.7763 35.603 92.1272 53.401 99.6779L54.9632 95.9955ZM54.9249 95.9798L54.9249 95.9797L53.4393 99.6936L53.4394 99.6937L54.9249 95.9798ZM58.402 97.1412C57.2345 96.9522 56.613 96.6955 54.9632 95.9956L53.401 99.6779C55.0411 100.374 56.0646 100.815 57.7627 101.09L58.402 97.1412ZM60 97.2355C59.3373 97.2355 58.7458 97.1968 58.4019 97.1412L57.7627 101.09C58.4081 101.194 59.2396 101.236 60 101.236V97.2355ZM62 99.2355V20.5088H58V99.2355H62Z" fill="#00FF60" fill-opacity="0.48" mask="url(#path-4-inside-1_1906_31429)"/>
</g>
<defs>
<linearGradient id="paint0_linear_1906_31429" x1="60" y1="0" x2="60" y2="120" gradientUnits="userSpaceOnUse">
<stop offset="0.509429"/>
<stop offset="0.973152" stop-opacity="0"/>
</linearGradient>
</defs>
</svg>
