<svg width="80" height="80" viewBox="0 0 80 80" fill="none" xmlns="http://www.w3.org/2000/svg">
<mask id="mask0_2414_17968" style="mask-type:alpha" maskUnits="userSpaceOnUse" x="0" y="0" width="80" height="80">
<rect width="80" height="80" fill="#D9D9D9"/>
</mask>
<g mask="url(#mask0_2414_17968)">
<mask id="mask1_2414_17968" style="mask-type:alpha" maskUnits="userSpaceOnUse" x="-20" y="-20" width="120" height="120">
<rect x="-20" y="-20" width="120" height="120" fill="url(#paint0_linear_2414_17968)"/>
</mask>
<g mask="url(#mask1_2414_17968)">
<path d="M75 36.0309C75 56.8107 63.0389 70.5303 45.8179 77.8362C44.1729 78.5341 43.3504 78.883 41.9176 79.115C40.9285 79.2751 39.0715 79.2751 38.0823 79.115C36.6496 78.883 35.8271 78.5341 34.1821 77.8362C16.9611 70.5303 5 56.8107 5 36.0309V24.6606C5 19.508 5 16.9317 5.88031 14.7619C6.65738 12.8466 7.91601 11.1645 9.53423 9.8785C11.3674 8.4217 13.839 7.69473 18.7822 6.24079L34.5822 1.59354C36.5969 1.00095 37.6043 0.704653 38.6299 0.586783C39.5403 0.482152 40.4597 0.482152 41.3701 0.586783C42.3957 0.704653 43.4031 1.00095 45.4178 1.59354L61.2178 6.2408C66.161 7.69473 68.6325 8.4217 70.4658 9.8785C72.084 11.1645 73.3426 12.8466 74.1197 14.7619C75 16.9317 75 19.508 75 24.6606V36.0309Z" fill="#00FF60" fill-opacity="0.04"/>
<path d="M74 36.0309C74 56.3281 62.3599 69.7321 45.4273 76.9156C43.7799 77.6145 43.0579 77.9174 41.7578 78.1278C40.8745 78.2708 39.1254 78.2708 38.2421 78.1278C36.942 77.9174 36.22 77.6145 34.5726 76.9156C17.6401 69.7321 6 56.3281 6 36.0309V24.6606C6 19.4192 6.01784 17.0829 6.80695 15.1379C7.51927 13.3822 8.67301 11.8402 10.1564 10.6614C11.7997 9.35552 14.036 8.67914 19.0644 7.20016L34.8644 2.5529C36.9112 1.95088 37.8236 1.68603 38.7441 1.58024C39.5786 1.48433 40.4214 1.48433 41.2559 1.58024C42.1764 1.68603 43.0889 1.95088 45.1356 2.5529L60.9356 7.20016C65.964 8.67914 68.2003 9.35552 69.8436 10.6614C71.327 11.8402 72.4807 13.3822 73.193 15.1379C73.9822 17.0829 74 19.4192 74 24.6606V36.0309Z" stroke="#00FF60" stroke-opacity="0.48" stroke-width="2"/>
<mask id="path-5-inside-1_2414_17968" fill="white">
<path fill-rule="evenodd" clip-rule="evenodd" d="M40 0.508301C39.5425 0.508301 39.0851 0.534458 38.6299 0.586774C37.6043 0.704644 36.5969 1.00094 34.5822 1.59353L18.7822 6.24079C13.839 7.69472 11.3674 8.42169 9.53423 9.8785C7.91601 11.1644 6.65738 12.8466 5.88031 14.7619C5 16.9317 5 19.508 5 24.6605V36.0309C5 56.8106 16.9611 70.5303 34.1821 77.8362L34.1821 77.8362C35.8271 78.5341 36.6496 78.883 38.0823 79.115C38.5769 79.195 39.2885 79.2351 40 79.2351V0.508301Z"/>
</mask>
<path fill-rule="evenodd" clip-rule="evenodd" d="M40 0.508301C39.5425 0.508301 39.0851 0.534458 38.6299 0.586774C37.6043 0.704644 36.5969 1.00094 34.5822 1.59353L18.7822 6.24079C13.839 7.69472 11.3674 8.42169 9.53423 9.8785C7.91601 11.1644 6.65738 12.8466 5.88031 14.7619C5 16.9317 5 19.508 5 24.6605V36.0309C5 56.8106 16.9611 70.5303 34.1821 77.8362L34.1821 77.8362C35.8271 78.5341 36.6496 78.883 38.0823 79.115C38.5769 79.195 39.2885 79.2351 40 79.2351V0.508301Z" fill="#00FF60" fill-opacity="0.04"/>
<path d="M38.6299 0.586774L38.4015 -1.40015L38.4015 -1.40015L38.6299 0.586774ZM40 0.508301H42V-1.4917H40V0.508301ZM34.5822 1.59353L34.0178 -0.325193L34.5822 1.59353ZM18.7822 6.24079L18.2178 4.32206L18.7822 6.24079ZM9.53423 9.8785L10.7785 11.4443H10.7785L9.53423 9.8785ZM5.88031 14.7619L7.73359 15.5138H7.73359L5.88031 14.7619ZM34.1821 77.8362L33.401 79.6774L33.4201 79.6855L33.4393 79.6932L34.1821 77.8362ZM34.1821 77.8362L34.9632 75.9951L34.9442 75.987L34.9249 75.9793L34.1821 77.8362ZM38.0823 79.115L38.402 77.1407H38.4019L38.0823 79.115ZM40 79.2351V81.2351H42V79.2351H40ZM38.8582 2.5737C39.2376 2.5301 39.6188 2.5083 40 2.5083V-1.4917C39.4663 -1.4917 38.9326 -1.46118 38.4015 -1.40015L38.8582 2.5737ZM35.1465 3.51226C37.2254 2.90081 38.0428 2.66741 38.8582 2.57369L38.4015 -1.40015C37.1657 -1.25812 35.9685 -0.898927 34.0178 -0.325193L35.1465 3.51226ZM19.3466 8.15951L35.1465 3.51226L34.0178 -0.325193L18.2178 4.32206L19.3466 8.15951ZM10.7785 11.4443C12.2319 10.2893 14.2331 9.66354 19.3466 8.15951L18.2178 4.32206C13.445 5.7259 10.503 6.55405 8.28993 8.3127L10.7785 11.4443ZM7.73359 15.5138C8.38115 13.9177 9.43001 12.5159 10.7785 11.4443L8.28993 8.3127C6.40201 9.81297 4.93361 11.7755 4.02703 14.01L7.73359 15.5138ZM7 24.6605C7 19.3305 7.03568 17.234 7.73359 15.5138L4.02703 14.01C2.96432 16.6294 3 19.6855 3 24.6605H7ZM7 36.0309V24.6605H3V36.0309H7ZM34.9632 75.995C18.3192 68.9339 7 55.8455 7 36.0309H3C3 57.7758 15.603 72.1267 33.401 79.6774L34.9632 75.995ZM34.9249 75.9793L34.9249 75.9792L33.4393 79.6932L33.4394 79.6932L34.9249 75.9793ZM38.4019 77.1407C37.2345 76.9517 36.613 76.695 34.9632 75.9951L33.401 79.6774C35.0411 80.3732 36.0646 80.8144 37.7627 81.0892L38.4019 77.1407ZM40 77.2351C39.3373 77.2351 38.7458 77.1963 38.402 77.1407L37.7627 81.0892C38.4081 81.1937 39.2396 81.2351 40 81.2351V77.2351ZM42 79.2351V0.508301H38V79.2351H42Z" fill="#00FF60" fill-opacity="0.48" mask="url(#path-5-inside-1_2414_17968)"/>
</g>
</g>
<defs>
<linearGradient id="paint0_linear_2414_17968" x1="40" y1="-20" x2="40" y2="100" gradientUnits="userSpaceOnUse">
<stop offset="0.509429"/>
<stop offset="0.973152" stop-opacity="0"/>
</linearGradient>
</defs>
</svg>
