<svg width="300" height="120" viewBox="0 0 300 120" fill="none" xmlns="http://www.w3.org/2000/svg">
<mask id="mask0_1930_8786" style="mask-type:alpha" maskUnits="userSpaceOnUse" x="0" y="0" width="300" height="120">
<mask id="mask1_1930_8786" style="mask-type:alpha" maskUnits="userSpaceOnUse" x="0" y="0" width="300" height="120">
<rect width="300" height="120" fill="url(#paint0_linear_1930_8786)"/>
</mask>
<g mask="url(#mask1_1930_8786)">
<rect width="300" height="120" fill="url(#paint1_linear_1930_8786)"/>
</g>
</mask>
<g mask="url(#mask0_1930_8786)">
<rect y="24" width="93" height="72" rx="16" fill="#00FF60" fill-opacity="0.08"/>
<path opacity="0.6" d="M23.392 69H20.5966L26.8778 51.5455H29.9205L36.2017 69H33.4062L28.4716 54.7159H28.3352L23.392 69ZM23.8608 62.1648H32.929V64.3807H23.8608V62.1648ZM46.3304 63.571V55.9091H48.8872V69H46.3815V66.733H46.2451C45.944 67.4318 45.4611 68.0142 44.7963 68.4801C44.1372 68.9403 43.3162 69.1705 42.3332 69.1705C41.4923 69.1705 40.748 68.9858 40.1003 68.6165C39.4582 68.2415 38.9525 67.6875 38.5832 66.9545C38.2196 66.2216 38.0378 65.3153 38.0378 64.2358V55.9091H40.5861V63.929C40.5861 64.821 40.8332 65.5312 41.3275 66.0597C41.8218 66.5881 42.4639 66.8523 43.2537 66.8523C43.7309 66.8523 44.2054 66.733 44.677 66.4943C45.1542 66.2557 45.5491 65.8949 45.8616 65.4119C46.1798 64.929 46.3361 64.3153 46.3304 63.571ZM57.942 55.9091V57.9545H50.7914V55.9091H57.942ZM52.709 52.7727H55.2573V65.1562C55.2573 65.6506 55.3312 66.0227 55.4789 66.2727C55.6266 66.517 55.817 66.6847 56.0499 66.7756C56.2886 66.8608 56.5471 66.9034 56.8255 66.9034C57.0301 66.9034 57.209 66.8892 57.3624 66.8608C57.5159 66.8324 57.6352 66.8097 57.7204 66.7926L58.1806 68.8977C58.0329 68.9545 57.8227 69.0114 57.5499 69.0682C57.2772 69.1307 56.9363 69.1648 56.5272 69.1705C55.8568 69.1818 55.2318 69.0625 54.6522 68.8125C54.0727 68.5625 53.6039 68.1761 53.246 67.6534C52.888 67.1307 52.709 66.4744 52.709 65.6847V52.7727ZM65.6545 69.2642C64.4272 69.2642 63.3562 68.983 62.4414 68.4205C61.5266 67.858 60.8164 67.071 60.3107 66.0597C59.805 65.0483 59.5522 63.8665 59.5522 62.5142C59.5522 61.1562 59.805 59.9687 60.3107 58.9517C60.8164 57.9347 61.5266 57.1449 62.4414 56.5824C63.3562 56.0199 64.4272 55.7386 65.6545 55.7386C66.8817 55.7386 67.9528 56.0199 68.8675 56.5824C69.7823 57.1449 70.4925 57.9347 70.9982 58.9517C71.5039 59.9687 71.7567 61.1562 71.7567 62.5142C71.7567 63.8665 71.5039 65.0483 70.9982 66.0597C70.4925 67.071 69.7823 67.858 68.8675 68.4205C67.9528 68.983 66.8817 69.2642 65.6545 69.2642ZM65.663 67.125C66.4584 67.125 67.1175 66.9148 67.6403 66.4943C68.163 66.0739 68.5493 65.5142 68.7993 64.8153C69.055 64.1165 69.1829 63.3466 69.1829 62.5057C69.1829 61.6705 69.055 60.9034 68.7993 60.2045C68.5493 59.5 68.163 58.9347 67.6403 58.5085C67.1175 58.0824 66.4584 57.8693 65.663 57.8693C64.8618 57.8693 64.1971 58.0824 63.6687 58.5085C63.1459 58.9347 62.7567 59.5 62.5011 60.2045C62.2511 60.9034 62.1261 61.6705 62.1261 62.5057C62.1261 63.3466 62.2511 64.1165 62.5011 64.8153C62.7567 65.5142 63.1459 66.0739 63.6687 66.4943C64.1971 66.9148 64.8618 67.125 65.663 67.125Z" fill="#00FF60"/>
<rect x="1" y="25" width="91" height="70" rx="15" stroke="#00FF60" stroke-opacity="0.48" stroke-width="2"/>
<rect x="101" y="24" width="71" height="72" rx="16" fill="white" fill-opacity="0.02"/>
<path opacity="0.48" d="M129.301 51.5455V69H126.659V54.1875H126.557L122.381 56.9148V54.392L126.736 51.5455H129.301ZM142.654 65.7273V64.8068C142.654 64.1477 142.79 63.5455 143.063 63C143.341 62.4489 143.744 62.0085 144.273 61.679C144.807 61.3437 145.452 61.1761 146.208 61.1761C146.98 61.1761 147.628 61.3409 148.151 61.6705C148.673 62 149.068 62.4403 149.335 62.9915C149.608 63.5426 149.744 64.1477 149.744 64.8068V65.7273C149.744 66.3864 149.608 66.9915 149.335 67.5426C149.063 68.0881 148.662 68.5284 148.134 68.8636C147.611 69.1932 146.969 69.358 146.208 69.358C145.44 69.358 144.793 69.1932 144.264 68.8636C143.736 68.5284 143.335 68.0881 143.063 67.5426C142.79 66.9915 142.654 66.3864 142.654 65.7273ZM144.639 64.8068V65.7273C144.639 66.2159 144.756 66.6591 144.989 67.0568C145.222 67.4545 145.628 67.6534 146.208 67.6534C146.781 67.6534 147.182 67.4545 147.409 67.0568C147.636 66.6591 147.75 66.2159 147.75 65.7273V64.8068C147.75 64.3182 147.639 63.875 147.418 63.4773C147.202 63.0795 146.798 62.8807 146.208 62.8807C145.639 62.8807 145.236 63.0795 144.997 63.4773C144.759 63.875 144.639 64.3182 144.639 64.8068ZM133.875 55.7386V54.8182C133.875 54.1591 134.011 53.554 134.284 53.0028C134.563 52.4517 134.966 52.0114 135.494 51.6818C136.029 51.3523 136.673 51.1875 137.429 51.1875C138.202 51.1875 138.85 51.3523 139.372 51.6818C139.895 52.0114 140.29 52.4517 140.557 53.0028C140.824 53.554 140.958 54.1591 140.958 54.8182V55.7386C140.958 56.3977 140.821 57.0028 140.548 57.554C140.281 58.0994 139.884 58.5398 139.355 58.875C138.833 59.2045 138.19 59.3693 137.429 59.3693C136.656 59.3693 136.006 59.2045 135.477 58.875C134.955 58.5398 134.557 58.0994 134.284 57.554C134.011 57.0028 133.875 56.3977 133.875 55.7386ZM135.869 54.8182V55.7386C135.869 56.2273 135.983 56.6705 136.21 57.0682C136.443 57.4659 136.85 57.6648 137.429 57.6648C137.997 57.6648 138.395 57.4659 138.622 57.0682C138.855 56.6705 138.972 56.2273 138.972 55.7386V54.8182C138.972 54.3295 138.861 53.8864 138.639 53.4886C138.418 53.0909 138.014 52.892 137.429 52.892C136.861 52.892 136.458 53.0909 136.219 53.4886C135.986 53.8864 135.869 54.3295 135.869 54.8182ZM134.685 69L146.685 51.5455H148.722L136.722 69H134.685Z" fill="white"/>
<rect x="102" y="25" width="69" height="70" rx="15" stroke="white" stroke-opacity="0.08" stroke-width="2"/>
<rect x="180" y="24" width="75" height="72" rx="16" fill="white" fill-opacity="0.02"/>
<path opacity="0.48" d="M201.679 69V67.0909L207.585 60.9716C208.216 60.3068 208.736 59.7244 209.145 59.2244C209.56 58.7187 209.869 58.2386 210.074 57.7841C210.278 57.3295 210.381 56.8466 210.381 56.3352C210.381 55.7557 210.244 55.2557 209.972 54.8352C209.699 54.4091 209.327 54.0824 208.855 53.8551C208.384 53.6222 207.852 53.5057 207.261 53.5057C206.636 53.5057 206.091 53.6335 205.625 53.8892C205.159 54.1449 204.801 54.5057 204.551 54.9716C204.301 55.4375 204.176 55.983 204.176 56.608H201.662C201.662 55.5455 201.906 54.6165 202.395 53.821C202.884 53.0256 203.554 52.4091 204.406 51.9716C205.259 51.5284 206.227 51.3068 207.312 51.3068C208.409 51.3068 209.375 51.5256 210.21 51.9631C211.051 52.3949 211.707 52.9858 212.179 53.7358C212.651 54.4801 212.886 55.321 212.886 56.2585C212.886 56.9062 212.764 57.5398 212.52 58.1591C212.281 58.7784 211.864 59.4687 211.267 60.2301C210.67 60.9858 209.841 61.9034 208.778 62.983L205.31 66.6136V66.7415H213.168V69H201.679ZM225.029 65.7273V64.8068C225.029 64.1477 225.165 63.5455 225.438 63C225.716 62.4489 226.119 62.0085 226.648 61.679C227.182 61.3437 227.827 61.1761 228.583 61.1761C229.355 61.1761 230.003 61.3409 230.526 61.6705C231.048 62 231.443 62.4403 231.71 62.9915C231.983 63.5426 232.119 64.1477 232.119 64.8068V65.7273C232.119 66.3864 231.983 66.9915 231.71 67.5426C231.438 68.0881 231.037 68.5284 230.509 68.8636C229.986 69.1932 229.344 69.358 228.583 69.358C227.815 69.358 227.168 69.1932 226.639 68.8636C226.111 68.5284 225.71 68.0881 225.438 67.5426C225.165 66.9915 225.029 66.3864 225.029 65.7273ZM227.014 64.8068V65.7273C227.014 66.2159 227.131 66.6591 227.364 67.0568C227.597 67.4545 228.003 67.6534 228.583 67.6534C229.156 67.6534 229.557 67.4545 229.784 67.0568C230.011 66.6591 230.125 66.2159 230.125 65.7273V64.8068C230.125 64.3182 230.014 63.875 229.793 63.4773C229.577 63.0795 229.173 62.8807 228.583 62.8807C228.014 62.8807 227.611 63.0795 227.372 63.4773C227.134 63.875 227.014 64.3182 227.014 64.8068ZM216.25 55.7386V54.8182C216.25 54.1591 216.386 53.554 216.659 53.0028C216.938 52.4517 217.341 52.0114 217.869 51.6818C218.404 51.3523 219.048 51.1875 219.804 51.1875C220.577 51.1875 221.225 51.3523 221.747 51.6818C222.27 52.0114 222.665 52.4517 222.932 53.0028C223.199 53.554 223.333 54.1591 223.333 54.8182V55.7386C223.333 56.3977 223.196 57.0028 222.923 57.554C222.656 58.0994 222.259 58.5398 221.73 58.875C221.208 59.2045 220.565 59.3693 219.804 59.3693C219.031 59.3693 218.381 59.2045 217.852 58.875C217.33 58.5398 216.932 58.0994 216.659 57.554C216.386 57.0028 216.25 56.3977 216.25 55.7386ZM218.244 54.8182V55.7386C218.244 56.2273 218.358 56.6705 218.585 57.0682C218.818 57.4659 219.225 57.6648 219.804 57.6648C220.372 57.6648 220.77 57.4659 220.997 57.0682C221.23 56.6705 221.347 56.2273 221.347 55.7386V54.8182C221.347 54.3295 221.236 53.8864 221.014 53.4886C220.793 53.0909 220.389 52.892 219.804 52.892C219.236 52.892 218.833 53.0909 218.594 53.4886C218.361 53.8864 218.244 54.3295 218.244 54.8182ZM217.06 69L229.06 51.5455H231.097L219.097 69H217.06Z" fill="white"/>
<rect x="181" y="25" width="73" height="70" rx="15" stroke="white" stroke-opacity="0.08" stroke-width="2"/>
<rect x="263" y="24" width="75" height="72" rx="16" fill="white" fill-opacity="0.02"/>
<path opacity="0.48" d="M290.756 69.2386C289.585 69.2386 288.54 69.0369 287.619 68.6335C286.705 68.2301 285.98 67.6705 285.446 66.9545C284.918 66.233 284.634 65.3977 284.594 64.4489H287.27C287.304 64.9659 287.477 65.4148 287.79 65.7955C288.108 66.1705 288.523 66.4602 289.034 66.6648C289.545 66.8693 290.114 66.9716 290.739 66.9716C291.426 66.9716 292.034 66.8523 292.562 66.6136C293.097 66.375 293.514 66.0426 293.815 65.6165C294.116 65.1847 294.267 64.6875 294.267 64.125C294.267 63.5398 294.116 63.0256 293.815 62.5824C293.52 62.1335 293.085 61.7812 292.511 61.5256C291.943 61.2699 291.256 61.142 290.449 61.142H288.974V58.9943H290.449C291.097 58.9943 291.665 58.8778 292.153 58.6449C292.648 58.4119 293.034 58.0881 293.312 57.6733C293.591 57.2528 293.73 56.7614 293.73 56.1989C293.73 55.6591 293.608 55.1903 293.364 54.7926C293.125 54.3892 292.784 54.0739 292.341 53.8466C291.903 53.6193 291.386 53.5057 290.79 53.5057C290.222 53.5057 289.69 53.6108 289.196 53.821C288.707 54.0256 288.31 54.321 288.003 54.7074C287.696 55.0881 287.531 55.5455 287.509 56.0795H284.96C284.989 55.1364 285.267 54.3068 285.795 53.5909C286.33 52.875 287.034 52.3153 287.909 51.9119C288.784 51.5085 289.756 51.3068 290.824 51.3068C291.943 51.3068 292.909 51.5256 293.722 51.9631C294.54 52.3949 295.17 52.9716 295.614 53.6932C296.063 54.4148 296.284 55.2045 296.278 56.0625C296.284 57.0398 296.011 57.8693 295.46 58.5511C294.915 59.233 294.188 59.6903 293.278 59.9233V60.0597C294.438 60.2358 295.335 60.696 295.972 61.4403C296.614 62.1847 296.932 63.108 296.926 64.2102C296.932 65.1705 296.665 66.0312 296.125 66.7926C295.591 67.554 294.861 68.1534 293.935 68.5909C293.009 69.0227 291.949 69.2386 290.756 69.2386ZM308.779 65.7273V64.8068C308.779 64.1477 308.915 63.5455 309.188 63C309.466 62.4489 309.869 62.0085 310.398 61.679C310.932 61.3437 311.577 61.1761 312.333 61.1761C313.105 61.1761 313.753 61.3409 314.276 61.6705C314.798 62 315.193 62.4403 315.46 62.9915C315.733 63.5426 315.869 64.1477 315.869 64.8068V65.7273C315.869 66.3864 315.733 66.9915 315.46 67.5426C315.188 68.0881 314.787 68.5284 314.259 68.8636C313.736 69.1932 313.094 69.358 312.333 69.358C311.565 69.358 310.918 69.1932 310.389 68.8636C309.861 68.5284 309.46 68.0881 309.188 67.5426C308.915 66.9915 308.779 66.3864 308.779 65.7273ZM310.764 64.8068V65.7273C310.764 66.2159 310.881 66.6591 311.114 67.0568C311.347 67.4545 311.753 67.6534 312.333 67.6534C312.906 67.6534 313.307 67.4545 313.534 67.0568C313.761 66.6591 313.875 66.2159 313.875 65.7273V64.8068C313.875 64.3182 313.764 63.875 313.543 63.4773C313.327 63.0795 312.923 62.8807 312.333 62.8807C311.764 62.8807 311.361 63.0795 311.122 63.4773C310.884 63.875 310.764 64.3182 310.764 64.8068ZM300 55.7386V54.8182C300 54.1591 300.136 53.554 300.409 53.0028C300.688 52.4517 301.091 52.0114 301.619 51.6818C302.154 51.3523 302.798 51.1875 303.554 51.1875C304.327 51.1875 304.975 51.3523 305.497 51.6818C306.02 52.0114 306.415 52.4517 306.682 53.0028C306.949 53.554 307.083 54.1591 307.083 54.8182V55.7386C307.083 56.3977 306.946 57.0028 306.673 57.554C306.406 58.0994 306.009 58.5398 305.48 58.875C304.958 59.2045 304.315 59.3693 303.554 59.3693C302.781 59.3693 302.131 59.2045 301.602 58.875C301.08 58.5398 300.682 58.0994 300.409 57.554C300.136 57.0028 300 56.3977 300 55.7386ZM301.994 54.8182V55.7386C301.994 56.2273 302.108 56.6705 302.335 57.0682C302.568 57.4659 302.975 57.6648 303.554 57.6648C304.122 57.6648 304.52 57.4659 304.747 57.0682C304.98 56.6705 305.097 56.2273 305.097 55.7386V54.8182C305.097 54.3295 304.986 53.8864 304.764 53.4886C304.543 53.0909 304.139 52.892 303.554 52.892C302.986 52.892 302.583 53.0909 302.344 53.4886C302.111 53.8864 301.994 54.3295 301.994 54.8182ZM300.81 69L312.81 51.5455H314.847L302.847 69H300.81Z" fill="white"/>
<rect x="264" y="25" width="73" height="70" rx="15" stroke="white" stroke-opacity="0.08" stroke-width="2"/>
</g>
<defs>
<linearGradient id="paint0_linear_1930_8786" x1="150" y1="60" x2="150" y2="120" gradientUnits="userSpaceOnUse">
<stop stop-color="#090A0C"/>
<stop offset="1" stop-color="#090A0C" stop-opacity="0"/>
</linearGradient>
<linearGradient id="paint1_linear_1930_8786" x1="150" y1="60" x2="300" y2="60" gradientUnits="userSpaceOnUse">
<stop stop-color="#090A0C"/>
<stop offset="1" stop-color="#090A0C" stop-opacity="0"/>
</linearGradient>
</defs>
</svg>
