<svg width="300" height="120" viewBox="0 0 300 120" fill="none" xmlns="http://www.w3.org/2000/svg">
<mask id="mask0_1934_9444" style="mask-type:alpha" maskUnits="userSpaceOnUse" x="0" y="0" width="300" height="120">
<mask id="mask1_1934_9444" style="mask-type:alpha" maskUnits="userSpaceOnUse" x="0" y="0" width="300" height="120">
<rect width="300" height="120" fill="url(#paint0_linear_1934_9444)"/>
</mask>
<g mask="url(#mask1_1934_9444)">
<rect width="300" height="120" fill="url(#paint1_linear_1934_9444)"/>
</g>
</mask>
<g mask="url(#mask0_1934_9444)">
<rect width="300" height="72" rx="12" fill="#00FF60" fill-opacity="0.08"/>
<rect x="1" y="1" width="298" height="70" rx="11" stroke="#00FF60" stroke-opacity="0.48" stroke-width="2"/>
<path opacity="0.6" d="M67.4375 32.1307C67.3466 31.3239 66.9716 30.6989 66.3125 30.2557C65.6534 29.8068 64.8239 29.5824 63.8239 29.5824C63.108 29.5824 62.4886 29.696 61.9659 29.9233C61.4432 30.1449 61.0369 30.4517 60.7472 30.8438C60.4631 31.2301 60.321 31.6705 60.321 32.1648C60.321 32.5795 60.4176 32.9375 60.6108 33.2386C60.8097 33.5398 61.0682 33.7926 61.3864 33.9972C61.7102 34.196 62.0568 34.3636 62.4261 34.5C62.7955 34.6307 63.1506 34.7386 63.4915 34.8239L65.196 35.267C65.7528 35.4034 66.3239 35.5881 66.9091 35.821C67.4943 36.054 68.0369 36.3608 68.5369 36.7415C69.0369 37.1222 69.4403 37.5938 69.7472 38.1562C70.0597 38.7188 70.2159 39.392 70.2159 40.1761C70.2159 41.1648 69.9602 42.0426 69.4489 42.8097C68.9432 43.5767 68.2074 44.1818 67.2415 44.625C66.2813 45.0682 65.1193 45.2898 63.7557 45.2898C62.4489 45.2898 61.3182 45.0824 60.3636 44.6676C59.4091 44.2528 58.6619 43.6648 58.1222 42.9034C57.5824 42.1364 57.2841 41.2273 57.2273 40.1761H59.8693C59.9205 40.8068 60.125 41.3324 60.483 41.7528C60.8466 42.1676 61.3097 42.4773 61.8722 42.6818C62.4403 42.8807 63.0625 42.9801 63.7386 42.9801C64.483 42.9801 65.1449 42.8636 65.7244 42.6307C66.3097 42.392 66.7699 42.0625 67.1051 41.642C67.4403 41.2159 67.608 40.7187 67.608 40.1506C67.608 39.6335 67.4602 39.2102 67.1648 38.8807C66.875 38.5511 66.4801 38.2784 65.9801 38.0625C65.4858 37.8466 64.9261 37.6562 64.3011 37.4915L62.2386 36.929C60.8409 36.5483 59.733 35.9886 58.9148 35.25C58.1023 34.5114 57.696 33.5341 57.696 32.3182C57.696 31.3125 57.9688 30.4347 58.5142 29.6847C59.0597 28.9347 59.7983 28.3523 60.7301 27.9375C61.6619 27.517 62.7131 27.3068 63.8835 27.3068C65.0653 27.3068 66.108 27.5142 67.0114 27.929C67.9205 28.3438 68.6364 28.9148 69.1591 29.642C69.6818 30.3636 69.9545 31.1932 69.9773 32.1307H67.4375ZM72.6784 45V31.9091H75.1244V34.0398H75.2863C75.5591 33.3182 76.0051 32.7557 76.6244 32.3523C77.2437 31.9432 77.9852 31.7386 78.8488 31.7386C79.7238 31.7386 80.4568 31.9432 81.0477 32.3523C81.6443 32.7614 82.0846 33.3239 82.3687 34.0398H82.5051C82.8176 33.3409 83.3147 32.7841 83.9966 32.3693C84.6784 31.9489 85.4909 31.7386 86.4341 31.7386C87.6216 31.7386 88.5903 32.1108 89.3403 32.8551C90.096 33.5994 90.4738 34.7216 90.4738 36.2216V45H87.9255V36.4602C87.9255 35.5739 87.6841 34.9318 87.2011 34.5341C86.7182 34.1364 86.1414 33.9375 85.471 33.9375C84.6414 33.9375 83.9966 34.1932 83.5363 34.7045C83.0761 35.2102 82.846 35.8608 82.846 36.6562V45H80.3062V36.2983C80.3062 35.5881 80.0846 35.017 79.6414 34.5852C79.1983 34.1534 78.6216 33.9375 77.9113 33.9375C77.4284 33.9375 76.9824 34.0653 76.5733 34.321C76.1699 34.571 75.8432 34.9205 75.5932 35.3693C75.3488 35.8182 75.2267 36.3381 75.2267 36.929V45H72.6784ZM97.219 45.2898C96.3894 45.2898 95.6394 45.1364 94.969 44.8295C94.2985 44.517 93.7673 44.0653 93.3752 43.4744C92.9889 42.8835 92.7957 42.1591 92.7957 41.3011C92.7957 40.5625 92.9377 39.9545 93.2218 39.4773C93.5059 39 93.8894 38.6222 94.3724 38.3438C94.8553 38.0653 95.3951 37.8551 95.9917 37.7131C96.5883 37.571 97.1963 37.4631 97.8156 37.3892C98.5997 37.2983 99.236 37.2244 99.7247 37.1676C100.213 37.1051 100.568 37.0057 100.79 36.8693C101.012 36.733 101.122 36.5114 101.122 36.2045V36.1449C101.122 35.4006 100.912 34.8239 100.492 34.4148C100.077 34.0057 99.4576 33.8011 98.6338 33.8011C97.7758 33.8011 97.0997 33.9915 96.6053 34.3722C96.1167 34.7472 95.7786 35.1648 95.5911 35.625L93.1963 35.0795C93.4803 34.2841 93.8951 33.642 94.4406 33.1534C94.9917 32.6591 95.6252 32.3011 96.3411 32.0795C97.057 31.8523 97.8099 31.7386 98.5997 31.7386C99.1224 31.7386 99.6764 31.8011 100.262 31.9261C100.853 32.0455 101.404 32.267 101.915 32.5909C102.432 32.9148 102.855 33.3778 103.185 33.9801C103.514 34.5767 103.679 35.3523 103.679 36.3068V45H101.191V43.2102H101.088C100.924 43.5398 100.676 43.8636 100.347 44.1818C100.017 44.5 99.594 44.7642 99.0769 44.9744C98.5599 45.1847 97.9406 45.2898 97.219 45.2898ZM97.773 43.2443C98.4775 43.2443 99.0798 43.1051 99.5798 42.8267C100.085 42.5483 100.469 42.1847 100.73 41.7358C100.997 41.2812 101.131 40.7955 101.131 40.2784V38.5909C101.04 38.6818 100.864 38.767 100.603 38.8466C100.347 38.9205 100.054 38.9858 99.7247 39.0426C99.3951 39.0937 99.0741 39.142 98.7616 39.1875C98.4491 39.2273 98.1877 39.2614 97.9775 39.2898C97.4832 39.3523 97.0315 39.4574 96.6224 39.6051C96.219 39.7528 95.8951 39.9659 95.6508 40.2443C95.4122 40.517 95.2928 40.8807 95.2928 41.3352C95.2928 41.9659 95.5258 42.4432 95.9917 42.767C96.4576 43.0852 97.0514 43.2443 97.773 43.2443ZM106.593 45V31.9091H109.056V33.9886H109.193C109.431 33.2841 109.852 32.7301 110.454 32.3267C111.062 31.9176 111.75 31.7131 112.517 31.7131C112.676 31.7131 112.863 31.7187 113.079 31.7301C113.301 31.7415 113.474 31.7557 113.599 31.7727V34.2102C113.497 34.1818 113.315 34.1506 113.054 34.1165C112.792 34.0767 112.531 34.0568 112.27 34.0568C111.667 34.0568 111.13 34.1847 110.659 34.4403C110.193 34.6903 109.823 35.0398 109.551 35.4886C109.278 35.9318 109.142 36.4375 109.142 37.0057V45H106.593ZM122.209 31.9091V33.9545H115.058V31.9091H122.209ZM116.976 28.7727H119.524V41.1562C119.524 41.6506 119.598 42.0227 119.745 42.2727C119.893 42.517 120.084 42.6847 120.317 42.7756C120.555 42.8608 120.814 42.9034 121.092 42.9034C121.297 42.9034 121.476 42.8892 121.629 42.8608C121.782 42.8324 121.902 42.8097 121.987 42.7926L122.447 44.8977C122.299 44.9545 122.089 45.0114 121.817 45.0682C121.544 45.1307 121.203 45.1648 120.794 45.1705C120.123 45.1818 119.498 45.0625 118.919 44.8125C118.339 44.5625 117.87 44.1761 117.513 43.6534C117.155 43.1307 116.976 42.4744 116.976 41.6847V28.7727ZM140.229 35.1051L137.919 35.5142C137.822 35.2187 137.669 34.9375 137.459 34.6705C137.254 34.4034 136.976 34.1847 136.624 34.0142C136.271 33.8437 135.831 33.7585 135.303 33.7585C134.581 33.7585 133.979 33.9205 133.496 34.2443C133.013 34.5625 132.771 34.9744 132.771 35.4801C132.771 35.9176 132.933 36.2699 133.257 36.5369C133.581 36.804 134.104 37.0227 134.825 37.1932L136.905 37.6705C138.109 37.9489 139.007 38.3778 139.598 38.9574C140.189 39.5369 140.484 40.2898 140.484 41.2159C140.484 42 140.257 42.6989 139.803 43.3125C139.354 43.9205 138.726 44.3977 137.919 44.7443C137.118 45.0909 136.189 45.2642 135.132 45.2642C133.666 45.2642 132.47 44.9517 131.544 44.3267C130.618 43.696 130.05 42.8011 129.839 41.642L132.303 41.267C132.456 41.9091 132.771 42.3949 133.249 42.7244C133.726 43.0483 134.348 43.2102 135.115 43.2102C135.95 43.2102 136.618 43.0369 137.118 42.6903C137.618 42.3381 137.868 41.9091 137.868 41.4034C137.868 40.9943 137.714 40.6506 137.408 40.3722C137.107 40.0937 136.643 39.8835 136.018 39.7415L133.803 39.2557C132.581 38.9773 131.678 38.5341 131.092 37.9261C130.513 37.3182 130.223 36.5483 130.223 35.6165C130.223 34.8437 130.439 34.1676 130.871 33.5881C131.303 33.0085 131.899 32.5568 132.66 32.233C133.422 31.9034 134.294 31.7386 135.277 31.7386C136.692 31.7386 137.805 32.0455 138.618 32.6591C139.43 33.267 139.967 34.0824 140.229 35.1051ZM148.32 45.2642C147.093 45.2642 146.022 44.983 145.107 44.4205C144.193 43.858 143.482 43.071 142.977 42.0597C142.471 41.0483 142.218 39.8665 142.218 38.5142C142.218 37.1562 142.471 35.9687 142.977 34.9517C143.482 33.9347 144.193 33.1449 145.107 32.5824C146.022 32.0199 147.093 31.7386 148.32 31.7386C149.548 31.7386 150.619 32.0199 151.533 32.5824C152.448 33.1449 153.158 33.9347 153.664 34.9517C154.17 35.9687 154.423 37.1562 154.423 38.5142C154.423 39.8665 154.17 41.0483 153.664 42.0597C153.158 43.071 152.448 43.858 151.533 44.4205C150.619 44.983 149.548 45.2642 148.32 45.2642ZM148.329 43.125C149.124 43.125 149.783 42.9148 150.306 42.4943C150.829 42.0739 151.215 41.5142 151.465 40.8153C151.721 40.1165 151.849 39.3466 151.849 38.5057C151.849 37.6705 151.721 36.9034 151.465 36.2045C151.215 35.5 150.829 34.9347 150.306 34.5085C149.783 34.0824 149.124 33.8693 148.329 33.8693C147.528 33.8693 146.863 34.0824 146.335 34.5085C145.812 34.9347 145.423 35.5 145.167 36.2045C144.917 36.9034 144.792 37.6705 144.792 38.5057C144.792 39.3466 144.917 40.1165 145.167 40.8153C145.423 41.5142 145.812 42.0739 146.335 42.4943C146.863 42.9148 147.528 43.125 148.329 43.125ZM156.787 45V31.9091H159.25V33.9886H159.387C159.625 33.2841 160.046 32.7301 160.648 32.3267C161.256 31.9176 161.943 31.7131 162.71 31.7131C162.87 31.7131 163.057 31.7187 163.273 31.7301C163.495 31.7415 163.668 31.7557 163.793 31.7727V34.2102C163.691 34.1818 163.509 34.1506 163.247 34.1165C162.986 34.0767 162.725 34.0568 162.463 34.0568C161.861 34.0568 161.324 34.1847 160.852 34.4403C160.387 34.6903 160.017 35.0398 159.745 35.4886C159.472 35.9318 159.335 36.4375 159.335 37.0057V45H156.787ZM172.402 31.9091V33.9545H165.252V31.9091H172.402ZM167.169 28.7727H169.718V41.1562C169.718 41.6506 169.792 42.0227 169.939 42.2727C170.087 42.517 170.277 42.6847 170.51 42.7756C170.749 42.8608 171.007 42.9034 171.286 42.9034C171.49 42.9034 171.669 42.8892 171.823 42.8608C171.976 42.8324 172.095 42.8097 172.181 42.7926L172.641 44.8977C172.493 44.9545 172.283 45.0114 172.01 45.0682C171.738 45.1307 171.397 45.1648 170.988 45.1705C170.317 45.1818 169.692 45.0625 169.113 44.8125C168.533 44.5625 168.064 44.1761 167.706 43.6534C167.348 43.1307 167.169 42.4744 167.169 41.6847V28.7727ZM174.741 45V31.9091H177.289V45H174.741ZM176.028 29.8892C175.585 29.8892 175.204 29.7415 174.886 29.446C174.574 29.1449 174.417 28.7869 174.417 28.3722C174.417 27.9517 174.574 27.5937 174.886 27.2983C175.204 26.9972 175.585 26.8466 176.028 26.8466C176.471 26.8466 176.849 26.9972 177.162 27.2983C177.48 27.5937 177.639 27.9517 177.639 28.3722C177.639 28.7869 177.48 29.1449 177.162 29.446C176.849 29.7415 176.471 29.8892 176.028 29.8892ZM182.786 37.2273V45H180.238V31.9091H182.684V34.0398H182.846C183.147 33.3466 183.618 32.7898 184.26 32.3693C184.908 31.9489 185.724 31.7386 186.707 31.7386C187.599 31.7386 188.38 31.9261 189.05 32.3011C189.721 32.6705 190.241 33.2216 190.61 33.9545C190.979 34.6875 191.164 35.5937 191.164 36.6733V45H188.616V36.9801C188.616 36.0312 188.368 35.2898 187.874 34.7557C187.38 34.2159 186.701 33.946 185.837 33.946C185.246 33.946 184.721 34.0739 184.26 34.3295C183.806 34.5852 183.445 34.9602 183.178 35.4545C182.917 35.9432 182.786 36.5341 182.786 37.2273ZM199.59 50.1818C198.55 50.1818 197.655 50.0455 196.905 49.7727C196.161 49.5 195.553 49.1392 195.082 48.6903C194.61 48.2415 194.258 47.75 194.025 47.2159L196.215 46.3125C196.369 46.5625 196.573 46.8267 196.829 47.1051C197.09 47.3892 197.442 47.6307 197.886 47.8295C198.334 48.0284 198.911 48.1278 199.616 48.1278C200.582 48.1278 201.38 47.892 202.011 47.4205C202.641 46.9545 202.957 46.2102 202.957 45.1875V42.6136H202.795C202.641 42.892 202.42 43.2017 202.13 43.5426C201.846 43.8835 201.454 44.179 200.954 44.429C200.454 44.679 199.803 44.804 199.002 44.804C197.968 44.804 197.036 44.5625 196.207 44.0795C195.383 43.5909 194.729 42.8722 194.246 41.9233C193.769 40.9687 193.53 39.7955 193.53 38.4034C193.53 37.0114 193.766 35.8182 194.238 34.8239C194.715 33.8295 195.369 33.0682 196.198 32.5398C197.028 32.0057 197.968 31.7386 199.019 31.7386C199.832 31.7386 200.488 31.875 200.988 32.1477C201.488 32.4148 201.877 32.7273 202.155 33.0852C202.44 33.4432 202.658 33.7585 202.812 34.0312H202.999V31.9091H205.496V45.2898C205.496 46.4148 205.235 47.3381 204.712 48.0597C204.19 48.7813 203.482 49.3153 202.59 49.6619C201.704 50.0085 200.704 50.1818 199.59 50.1818ZM199.565 42.6903C200.298 42.6903 200.917 42.5199 201.423 42.179C201.934 41.8324 202.32 41.3381 202.582 40.696C202.849 40.0483 202.982 39.2727 202.982 38.3693C202.982 37.4886 202.852 36.7131 202.59 36.0426C202.329 35.3722 201.945 34.8494 201.44 34.4744C200.934 34.0937 200.309 33.9034 199.565 33.9034C198.798 33.9034 198.158 34.1023 197.647 34.5C197.136 34.892 196.749 35.4261 196.488 36.1023C196.232 36.7784 196.104 37.5341 196.104 38.3693C196.104 39.2273 196.235 39.9801 196.496 40.6278C196.758 41.2756 197.144 41.7812 197.655 42.1449C198.173 42.5085 198.809 42.6903 199.565 42.6903Z" fill="#00FF60"/>
<rect y="80" width="300" height="72" rx="12" fill="white" fill-opacity="0.02"/>
<rect x="1" y="81" width="298" height="70" rx="11" stroke="white" stroke-opacity="0.08" stroke-width="2"/>
<path opacity="0.6" d="M57.9176 125V107.545H68.7415V109.812H60.5511V115.131H67.9659V117.389H60.5511V125H57.9176ZM75.0584 125.29C74.2288 125.29 73.4788 125.136 72.8084 124.83C72.1379 124.517 71.6066 124.065 71.2146 123.474C70.8282 122.884 70.6351 122.159 70.6351 121.301C70.6351 120.562 70.7771 119.955 71.0612 119.477C71.3453 119 71.7288 118.622 72.2118 118.344C72.6947 118.065 73.2345 117.855 73.8311 117.713C74.4277 117.571 75.0356 117.463 75.6549 117.389C76.439 117.298 77.0754 117.224 77.564 117.168C78.0527 117.105 78.4078 117.006 78.6294 116.869C78.851 116.733 78.9618 116.511 78.9618 116.205V116.145C78.9618 115.401 78.7515 114.824 78.3311 114.415C77.9163 114.006 77.297 113.801 76.4731 113.801C75.6152 113.801 74.939 113.991 74.4447 114.372C73.9561 114.747 73.618 115.165 73.4305 115.625L71.0356 115.08C71.3197 114.284 71.7345 113.642 72.2799 113.153C72.8311 112.659 73.4646 112.301 74.1805 112.08C74.8964 111.852 75.6493 111.739 76.439 111.739C76.9618 111.739 77.5157 111.801 78.101 111.926C78.6919 112.045 79.243 112.267 79.7544 112.591C80.2714 112.915 80.6947 113.378 81.0243 113.98C81.3538 114.577 81.5186 115.352 81.5186 116.307V125H79.0299V123.21H78.9277C78.7629 123.54 78.5157 123.864 78.1862 124.182C77.8566 124.5 77.4334 124.764 76.9163 124.974C76.3993 125.185 75.7799 125.29 75.0584 125.29ZM75.6123 123.244C76.3169 123.244 76.9191 123.105 77.4191 122.827C77.9248 122.548 78.3084 122.185 78.5697 121.736C78.8368 121.281 78.9703 120.795 78.9703 120.278V118.591C78.8794 118.682 78.7032 118.767 78.4419 118.847C78.1862 118.92 77.8936 118.986 77.564 119.043C77.2345 119.094 76.9135 119.142 76.601 119.188C76.2885 119.227 76.0271 119.261 75.8169 119.29C75.3226 119.352 74.8709 119.457 74.4618 119.605C74.0584 119.753 73.7345 119.966 73.4902 120.244C73.2515 120.517 73.1322 120.881 73.1322 121.335C73.1322 121.966 73.3652 122.443 73.8311 122.767C74.297 123.085 74.8907 123.244 75.6123 123.244ZM94.2424 115.105L91.9328 115.514C91.8362 115.219 91.6828 114.937 91.4725 114.67C91.268 114.403 90.9896 114.185 90.6373 114.014C90.285 113.844 89.8447 113.759 89.3163 113.759C88.5947 113.759 87.9924 113.92 87.5095 114.244C87.0265 114.562 86.785 114.974 86.785 115.48C86.785 115.918 86.947 116.27 87.2708 116.537C87.5947 116.804 88.1174 117.023 88.839 117.193L90.9186 117.67C92.1231 117.949 93.0208 118.378 93.6117 118.957C94.2026 119.537 94.4981 120.29 94.4981 121.216C94.4981 122 94.2708 122.699 93.8163 123.312C93.3674 123.92 92.7396 124.398 91.9328 124.744C91.1316 125.091 90.2026 125.264 89.1458 125.264C87.6799 125.264 86.4839 124.952 85.5578 124.327C84.6316 123.696 84.0634 122.801 83.8532 121.642L86.3163 121.267C86.4697 121.909 86.785 122.395 87.2623 122.724C87.7396 123.048 88.3617 123.21 89.1288 123.21C89.964 123.21 90.6316 123.037 91.1316 122.69C91.6316 122.338 91.8816 121.909 91.8816 121.403C91.8816 120.994 91.7282 120.651 91.4214 120.372C91.1203 120.094 90.6572 119.884 90.0322 119.741L87.8163 119.256C86.5947 118.977 85.6913 118.534 85.1061 117.926C84.5265 117.318 84.2367 116.548 84.2367 115.616C84.2367 114.844 84.4526 114.168 84.8845 113.588C85.3163 113.009 85.9129 112.557 86.6742 112.233C87.4356 111.903 88.3078 111.739 89.2907 111.739C90.7055 111.739 91.8191 112.045 92.6316 112.659C93.4441 113.267 93.9811 114.082 94.2424 115.105ZM102.931 111.909V113.955H95.7802V111.909H102.931ZM97.6978 108.773H100.246V121.156C100.246 121.651 100.32 122.023 100.468 122.273C100.615 122.517 100.806 122.685 101.039 122.776C101.277 122.861 101.536 122.903 101.814 122.903C102.019 122.903 102.198 122.889 102.351 122.861C102.505 122.832 102.624 122.81 102.709 122.793L103.169 124.898C103.022 124.955 102.811 125.011 102.539 125.068C102.266 125.131 101.925 125.165 101.516 125.17C100.846 125.182 100.221 125.062 99.641 124.812C99.0614 124.562 98.5927 124.176 98.2347 123.653C97.8768 123.131 97.6978 122.474 97.6978 121.685V108.773ZM110.771 125.264C109.481 125.264 108.37 124.989 107.439 124.438C106.513 123.881 105.797 123.099 105.291 122.094C104.791 121.082 104.541 119.898 104.541 118.54C104.541 117.199 104.791 116.017 105.291 114.994C105.797 113.972 106.501 113.173 107.405 112.599C108.314 112.026 109.376 111.739 110.592 111.739C111.331 111.739 112.047 111.861 112.74 112.105C113.433 112.349 114.055 112.733 114.606 113.256C115.157 113.778 115.592 114.457 115.91 115.293C116.228 116.122 116.388 117.131 116.388 118.318V119.222H105.981V117.312H113.89C113.89 116.642 113.754 116.048 113.481 115.531C113.209 115.009 112.825 114.597 112.331 114.295C111.842 113.994 111.268 113.844 110.609 113.844C109.893 113.844 109.268 114.02 108.734 114.372C108.206 114.719 107.797 115.173 107.507 115.736C107.223 116.293 107.081 116.898 107.081 117.551V119.043C107.081 119.918 107.234 120.662 107.541 121.276C107.853 121.889 108.288 122.358 108.845 122.682C109.402 123 110.052 123.159 110.797 123.159C111.28 123.159 111.72 123.091 112.118 122.955C112.515 122.812 112.859 122.602 113.149 122.324C113.439 122.045 113.66 121.702 113.814 121.293L116.226 121.727C116.032 122.437 115.686 123.06 115.186 123.594C114.692 124.122 114.069 124.534 113.319 124.83C112.575 125.119 111.726 125.264 110.771 125.264ZM128.545 115.105L126.235 115.514C126.138 115.219 125.985 114.937 125.775 114.67C125.57 114.403 125.292 114.185 124.939 114.014C124.587 113.844 124.147 113.759 123.618 113.759C122.897 113.759 122.295 113.92 121.812 114.244C121.329 114.562 121.087 114.974 121.087 115.48C121.087 115.918 121.249 116.27 121.573 116.537C121.897 116.804 122.42 117.023 123.141 117.193L125.221 117.67C126.425 117.949 127.323 118.378 127.914 118.957C128.505 119.537 128.8 120.29 128.8 121.216C128.8 122 128.573 122.699 128.118 123.312C127.67 123.92 127.042 124.398 126.235 124.744C125.434 125.091 124.505 125.264 123.448 125.264C121.982 125.264 120.786 124.952 119.86 124.327C118.934 123.696 118.366 122.801 118.155 121.642L120.618 121.267C120.772 121.909 121.087 122.395 121.564 122.724C122.042 123.048 122.664 123.21 123.431 123.21C124.266 123.21 124.934 123.037 125.434 122.69C125.934 122.338 126.184 121.909 126.184 121.403C126.184 120.994 126.03 120.651 125.724 120.372C125.422 120.094 124.959 119.884 124.334 119.741L122.118 119.256C120.897 118.977 119.993 118.534 119.408 117.926C118.829 117.318 118.539 116.548 118.539 115.616C118.539 114.844 118.755 114.168 119.187 113.588C119.618 113.009 120.215 112.557 120.976 112.233C121.738 111.903 122.61 111.739 123.593 111.739C125.008 111.739 126.121 112.045 126.934 112.659C127.746 113.267 128.283 114.082 128.545 115.105ZM137.233 111.909V113.955H130.082V111.909H137.233ZM132 108.773H134.548V121.156C134.548 121.651 134.622 122.023 134.77 122.273C134.918 122.517 135.108 122.685 135.341 122.776C135.58 122.861 135.838 122.903 136.116 122.903C136.321 122.903 136.5 122.889 136.653 122.861C136.807 122.832 136.926 122.81 137.011 122.793L137.472 124.898C137.324 124.955 137.114 125.011 136.841 125.068C136.568 125.131 136.227 125.165 135.818 125.17C135.148 125.182 134.523 125.062 133.943 124.812C133.364 124.562 132.895 124.176 132.537 123.653C132.179 123.131 132 122.474 132 121.685V108.773Z" fill="white"/>
<path opacity="0.6" d="M24 38.5L25.9199 40.9599C27.5214 43.0118 30.625 43.0118 32.2264 40.9599L40 31" stroke="#00FF60" stroke-width="3" stroke-linecap="round"/>
</g>
<defs>
<linearGradient id="paint0_linear_1934_9444" x1="150" y1="60" x2="150" y2="120" gradientUnits="userSpaceOnUse">
<stop stop-color="#090A0C"/>
<stop offset="1" stop-color="#090A0C" stop-opacity="0"/>
</linearGradient>
<linearGradient id="paint1_linear_1934_9444" x1="150" y1="60" x2="300" y2="60" gradientUnits="userSpaceOnUse">
<stop stop-color="#090A0C"/>
<stop offset="1" stop-color="#090A0C" stop-opacity="0"/>
</linearGradient>
</defs>
</svg>
