<svg width="300" height="120" viewBox="0 0 300 120" fill="none" xmlns="http://www.w3.org/2000/svg">
<mask id="mask0_1930_8689" style="mask-type:alpha" maskUnits="userSpaceOnUse" x="0" y="0" width="300" height="120">
<mask id="mask1_1930_8689" style="mask-type:alpha" maskUnits="userSpaceOnUse" x="0" y="0" width="300" height="120">
<rect width="300" height="120" fill="url(#paint0_linear_1930_8689)"/>
</mask>
<g mask="url(#mask1_1930_8689)">
<rect width="300" height="120" fill="url(#paint1_linear_1930_8689)"/>
</g>
</mask>
<g mask="url(#mask0_1930_8689)">
<mask id="path-3-inside-1_1930_8689" fill="white">
<path fill-rule="evenodd" clip-rule="evenodd" d="M206.404 32.2319C204.039 34.6438 202.857 35.8498 202.012 37.2504C201.263 38.4924 200.711 39.8432 200.377 41.2545C200 42.8462 200 44.535 200 47.9125V97.6C200 105.441 200 109.361 201.526 112.356C202.868 114.99 205.01 117.132 207.644 118.474C210.639 120 214.559 120 222.4 120H277.6C285.441 120 289.361 120 292.356 118.474C294.99 117.132 297.132 114.99 298.474 112.356C300 109.361 300 105.441 300 97.6V22.4C300 14.5593 300 10.6389 298.474 7.64413C297.132 5.00986 294.99 2.86814 292.356 1.52591C289.361 0 285.441 0 277.6 0H247.409C243.938 0 242.203 0 240.572 0.396647C239.126 0.748289 237.746 1.32812 236.483 2.11432C235.058 3.00114 233.843 4.24052 231.413 6.71925L231.413 6.7193L231.413 6.71934L223.988 14.2941C222.112 16.2072 219.036 16.2225 217.142 14.3282C215.58 12.7661 213.047 12.7661 211.485 14.3282L205.828 19.9851C204.266 21.5471 204.266 24.0798 205.828 25.6419L206.374 26.1872C208.04 27.853 208.053 30.5496 206.404 32.2319ZM240 12C240 9.79086 241.791 8 244 8H288C290.209 8 292 9.79086 292 12C292 14.2091 290.209 16 288 16H244C241.791 16 240 14.2091 240 12Z"/>
</mask>
<path fill-rule="evenodd" clip-rule="evenodd" d="M206.404 32.2319C204.039 34.6438 202.857 35.8498 202.012 37.2504C201.263 38.4924 200.711 39.8432 200.377 41.2545C200 42.8462 200 44.535 200 47.9125V97.6C200 105.441 200 109.361 201.526 112.356C202.868 114.99 205.01 117.132 207.644 118.474C210.639 120 214.559 120 222.4 120H277.6C285.441 120 289.361 120 292.356 118.474C294.99 117.132 297.132 114.99 298.474 112.356C300 109.361 300 105.441 300 97.6V22.4C300 14.5593 300 10.6389 298.474 7.64413C297.132 5.00986 294.99 2.86814 292.356 1.52591C289.361 0 285.441 0 277.6 0H247.409C243.938 0 242.203 0 240.572 0.396647C239.126 0.748289 237.746 1.32812 236.483 2.11432C235.058 3.00114 233.843 4.24052 231.413 6.71925L231.413 6.7193L231.413 6.71934L223.988 14.2941C222.112 16.2072 219.036 16.2225 217.142 14.3282C215.58 12.7661 213.047 12.7661 211.485 14.3282L205.828 19.9851C204.266 21.5471 204.266 24.0798 205.828 25.6419L206.374 26.1872C208.04 27.853 208.053 30.5496 206.404 32.2319ZM240 12C240 9.79086 241.791 8 244 8H288C290.209 8 292 9.79086 292 12C292 14.2091 290.209 16 288 16H244C241.791 16 240 14.2091 240 12Z" fill="#00FF60" fill-opacity="0.08"/>
<path d="M202.012 37.2504L200.3 36.2174H200.3L202.012 37.2504ZM200.377 41.2545L198.431 40.7934H198.431L200.377 41.2545ZM201.526 112.356L199.744 113.264H199.744L201.526 112.356ZM207.644 118.474L208.552 116.692H208.552L207.644 118.474ZM292.356 118.474L291.448 116.692L292.356 118.474ZM298.474 112.356L296.692 111.448L298.474 112.356ZM298.474 7.64413L296.692 8.55211V8.55211L298.474 7.64413ZM292.356 1.52591L293.264 -0.256104V-0.256104L292.356 1.52591ZM240.572 0.396647L240.099 -1.54669V-1.54669L240.572 0.396647ZM236.483 2.11432L235.426 0.416369V0.41637L236.483 2.11432ZM231.413 6.71925L229.985 5.31919L229.968 5.3367L229.951 5.35462L231.413 6.71925ZM231.413 6.7193L232.852 8.10849L232.864 8.09631L232.875 8.08393L231.413 6.7193ZM231.413 6.71934L232.841 8.1194L232.847 8.11398L232.852 8.10853L231.413 6.71934ZM211.485 14.3282L210.071 12.914H210.071L211.485 14.3282ZM205.828 19.9851L207.243 21.3993L207.243 21.3993L205.828 19.9851ZM205.828 25.6419L207.243 24.2277L207.243 24.2277L205.828 25.6419ZM223.988 14.2941L222.56 12.894L223.988 14.2941ZM203.725 38.2835C204.421 37.1295 205.402 36.1108 207.832 33.6319L204.976 30.8318C202.677 33.1768 201.294 34.5701 200.3 36.2174L203.725 38.2835ZM202.323 41.7156C202.61 40.5059 203.083 39.348 203.725 38.2835L200.3 36.2174C199.444 37.6367 198.813 39.1805 198.431 40.7934L202.323 41.7156ZM202 47.9125C202 44.4412 202.013 43.0271 202.323 41.7156L198.431 40.7934C197.987 42.6654 198 44.6288 198 47.9125H202ZM202 97.6V47.9125H198V97.6H202ZM203.308 111.448C202.713 110.279 202.365 108.843 202.184 106.632C202.002 104.398 202 101.553 202 97.6H198C198 101.487 197.998 104.523 198.197 106.958C198.398 109.416 198.813 111.438 199.744 113.264L203.308 111.448ZM208.552 116.692C206.294 115.542 204.458 113.706 203.308 111.448L199.744 113.264C201.278 116.274 203.726 118.722 206.736 120.256L208.552 116.692ZM222.4 118C218.447 118 215.602 117.998 213.368 117.816C211.157 117.635 209.721 117.287 208.552 116.692L206.736 120.256C208.562 121.187 210.584 121.602 213.042 121.803C215.477 122.002 218.513 122 222.4 122V118ZM277.6 118H222.4V122H277.6V118ZM291.448 116.692C290.279 117.287 288.843 117.635 286.632 117.816C284.398 117.998 281.553 118 277.6 118V122C281.487 122 284.523 122.002 286.958 121.803C289.416 121.602 291.438 121.187 293.264 120.256L291.448 116.692ZM296.692 111.448C295.542 113.706 293.706 115.542 291.448 116.692L293.264 120.256C296.274 118.722 298.722 116.274 300.256 113.264L296.692 111.448ZM298 97.6C298 101.553 297.998 104.398 297.816 106.632C297.635 108.843 297.287 110.279 296.692 111.448L300.256 113.264C301.187 111.438 301.602 109.416 301.803 106.958C302.002 104.523 302 101.487 302 97.6H298ZM298 22.4V97.6H302V22.4H298ZM296.692 8.55211C297.287 9.72056 297.635 11.1568 297.816 13.3677C297.998 15.6019 298 18.4466 298 22.4H302C302 18.5126 302.002 15.4768 301.803 13.042C301.602 10.5838 301.187 8.56247 300.256 6.73615L296.692 8.55211ZM291.448 3.30792C293.706 4.4584 295.542 6.29417 296.692 8.55211L300.256 6.73615C298.722 3.72556 296.274 1.27787 293.264 -0.256104L291.448 3.30792ZM277.6 2C281.553 2 284.398 2.00156 286.632 2.1841C288.843 2.36473 290.279 2.71257 291.448 3.30792L293.264 -0.256104C291.438 -1.18666 289.416 -1.60178 286.958 -1.80262C284.523 -2.00156 281.487 -2 277.6 -2V2ZM247.409 2H277.6V-2H247.409V2ZM241.045 2.33998C242.388 2.01319 243.842 2 247.409 2V-2C244.035 -2 242.017 -2.01319 240.099 -1.54669L241.045 2.33998ZM237.54 3.81228C238.622 3.13839 239.806 2.64139 241.045 2.33998L240.099 -1.54669C238.447 -1.14481 236.87 -0.482146 235.426 0.416369L237.54 3.81228ZM232.841 8.11932C235.339 5.57159 236.366 4.54291 237.54 3.81228L235.426 0.41637C233.75 1.45936 232.347 2.90944 229.985 5.31919L232.841 8.11932ZM232.875 8.08393L232.875 8.08389L229.951 5.35462L229.951 5.35466L232.875 8.08393ZM232.852 8.10853L232.852 8.10849L229.974 5.33011L229.974 5.33015L232.852 8.10853ZM225.416 15.6942L232.841 8.1194L229.985 5.31928L222.56 12.894L225.416 15.6942ZM212.899 15.7424C213.681 14.9614 214.947 14.9614 215.728 15.7424L218.556 12.914C216.213 10.5708 212.414 10.5708 210.071 12.914L212.899 15.7424ZM207.243 21.3993L212.899 15.7424L210.071 12.914L204.414 18.5708L207.243 21.3993ZM207.243 24.2277C206.462 23.4466 206.462 22.1803 207.243 21.3993L204.414 18.5708C202.071 20.914 202.071 24.713 204.414 27.0561L207.243 24.2277ZM207.788 24.773L207.243 24.2277L204.414 27.0561L204.96 27.6014L207.788 24.773ZM244 6C240.686 6 238 8.68629 238 12H242C242 10.8954 242.895 10 244 10V6ZM288 6H244V10H288V6ZM294 12C294 8.68629 291.314 6 288 6V10C289.105 10 290 10.8954 290 12H294ZM288 18C291.314 18 294 15.3137 294 12H290C290 13.1046 289.105 14 288 14V18ZM244 18H288V14H244V18ZM238 12C238 15.3137 240.686 18 244 18V14C242.895 14 242 13.1046 242 12H238ZM204.96 27.6014C205.85 28.4917 205.857 29.9328 204.976 30.8318L207.832 33.6319C210.249 31.1664 210.229 27.2143 207.788 24.773L204.96 27.6014ZM222.56 12.894C221.463 14.0128 219.664 14.0218 218.556 12.914L215.728 15.7424C218.409 18.4233 222.762 18.4016 225.416 15.6942L222.56 12.894Z" fill="#00FF60" fill-opacity="0.48" mask="url(#path-3-inside-1_1930_8689)"/>
<g opacity="0.48">
<rect x="233" y="50.5" width="38" height="38" rx="3" stroke="#00FF60" stroke-width="2"/>
<path d="M220 101.5L234 87.5" stroke="#00FF60" stroke-width="2"/>
<path d="M270 51.5L284 37.5" stroke="#00FF60" stroke-width="2"/>
<path d="M284 101.5L270 87.5" stroke="#00FF60" stroke-width="2"/>
<path d="M234 51.5L220 37.5" stroke="#00FF60" stroke-width="2"/>
</g>
<mask id="path-10-inside-2_1930_8689" fill="white">
<path fill-rule="evenodd" clip-rule="evenodd" d="M5.48901 33.1651C3.46241 35.2325 2.44911 36.2662 1.72486 37.4667C1.08269 38.5312 0.609848 39.6891 0.323243 40.8988C0 42.2631 0 43.7106 0 46.6057V100.8C0 107.521 0 110.881 1.30792 113.448C2.4584 115.706 4.29417 117.542 6.55211 118.692C9.11905 120 12.4794 120 19.2 120H80.8C87.5206 120 90.8809 120 93.4479 118.692C95.7058 117.542 97.5416 115.706 98.6921 113.448C100 110.881 100 107.521 100 100.8V19.2C100 12.4794 100 9.11905 98.6921 6.55211C97.5416 4.29417 95.7058 2.4584 93.4479 1.30792C90.8809 0 87.5206 0 80.8 0H46.0651C43.0899 0 41.6022 0 40.2045 0.339983C38.9654 0.641391 37.7822 1.13839 36.6996 1.81228C35.4783 2.57241 34.4369 3.63475 32.3542 5.75943L23.9878 14.2941C22.1125 16.2072 19.0365 16.2225 17.1421 14.3282C15.58 12.7661 13.0474 12.7661 11.4853 14.3282L5.82843 19.9851C4.26633 21.5471 4.26633 24.0798 5.82843 25.6419C7.79625 27.6097 7.81211 30.7953 5.86399 32.7826L5.48901 33.1651ZM40 12C40 9.79086 41.7909 8 44 8H88C90.2091 8 92 9.79086 92 12C92 14.2091 90.2091 16 88 16H44C41.7909 16 40 14.2091 40 12Z"/>
</mask>
<path fill-rule="evenodd" clip-rule="evenodd" d="M5.48901 33.1651C3.46241 35.2325 2.44911 36.2662 1.72486 37.4667C1.08269 38.5312 0.609848 39.6891 0.323243 40.8988C0 42.2631 0 43.7106 0 46.6057V100.8C0 107.521 0 110.881 1.30792 113.448C2.4584 115.706 4.29417 117.542 6.55211 118.692C9.11905 120 12.4794 120 19.2 120H80.8C87.5206 120 90.8809 120 93.4479 118.692C95.7058 117.542 97.5416 115.706 98.6921 113.448C100 110.881 100 107.521 100 100.8V19.2C100 12.4794 100 9.11905 98.6921 6.55211C97.5416 4.29417 95.7058 2.4584 93.4479 1.30792C90.8809 0 87.5206 0 80.8 0H46.0651C43.0899 0 41.6022 0 40.2045 0.339983C38.9654 0.641391 37.7822 1.13839 36.6996 1.81228C35.4783 2.57241 34.4369 3.63475 32.3542 5.75943L23.9878 14.2941C22.1125 16.2072 19.0365 16.2225 17.1421 14.3282C15.58 12.7661 13.0474 12.7661 11.4853 14.3282L5.82843 19.9851C4.26633 21.5471 4.26633 24.0798 5.82843 25.6419C7.79625 27.6097 7.81211 30.7953 5.86399 32.7826L5.48901 33.1651ZM40 12C40 9.79086 41.7909 8 44 8H88C90.2091 8 92 9.79086 92 12C92 14.2091 90.2091 16 88 16H44C41.7909 16 40 14.2091 40 12Z" fill="white" fill-opacity="0.08"/>
<path d="M1.72486 37.4667L3.43738 38.4998H3.43738L1.72486 37.4667ZM5.48901 33.1651L6.91724 34.5652H6.91724L5.48901 33.1651ZM0.323243 40.8988L-1.62288 40.4377H-1.62288L0.323243 40.8988ZM1.30792 113.448L3.08994 112.54H3.08993L1.30792 113.448ZM6.55211 118.692L5.64413 120.474H5.64413L6.55211 118.692ZM93.4479 118.692L92.5399 116.91L93.4479 118.692ZM98.6921 113.448L96.9101 112.54L98.6921 113.448ZM98.6921 6.55211L100.474 5.64413V5.64413L98.6921 6.55211ZM93.4479 1.30792L92.5399 3.08993V3.08994L93.4479 1.30792ZM40.2045 0.339983L39.7318 -1.60335L40.2045 0.339983ZM36.6996 1.81228L35.6427 0.114324V0.114325L36.6996 1.81228ZM32.3542 5.75943L33.7824 7.15949L32.3542 5.75943ZM11.4853 14.3282L10.0711 12.914H10.0711L11.4853 14.3282ZM5.82843 19.9851L7.24264 21.3993L7.24264 21.3993L5.82843 19.9851ZM5.86399 32.7826L4.43576 31.3825L5.86399 32.7826ZM3.43738 38.4998C4.01287 37.5459 4.82497 36.6995 6.91724 34.5652L4.06078 31.765C2.09985 33.7654 0.885351 34.9865 0.0123317 36.4337L3.43738 38.4998ZM2.26937 41.3599C2.50821 40.3518 2.90224 39.3869 3.43738 38.4998L0.0123323 36.4337C-0.736858 37.6756 -1.28851 39.0264 -1.62288 40.4377L2.26937 41.3599ZM2 46.6057C2 43.6168 2.01252 42.444 2.26937 41.3599L-1.62288 40.4377C-2.01252 42.0823 -2 43.8044 -2 46.6057H2ZM2 100.8V46.6057H-2V100.8H2ZM3.08993 112.54C2.60358 111.585 2.31023 110.396 2.15685 108.519C2.00156 106.618 2 104.193 2 100.8H-2C-2 104.127 -2.00156 106.743 -1.82987 108.844C-1.65627 110.969 -1.29565 112.743 -0.474091 114.356L3.08993 112.54ZM7.4601 116.91C5.57847 115.951 4.04867 114.422 3.08994 112.54L-0.474092 114.356C0.868136 116.99 3.00987 119.132 5.64413 120.474L7.4601 116.91ZM19.2 118C15.8067 118 13.382 117.998 11.4813 117.843C9.60394 117.69 8.41463 117.396 7.4601 116.91L5.64413 120.474C7.25654 121.296 9.03085 121.656 11.1556 121.83C13.2569 122.002 15.8727 122 19.2 122V118ZM80.8 118H19.2V122H80.8V118ZM92.5399 116.91C91.5854 117.396 90.3961 117.69 88.5187 117.843C86.618 117.998 84.1933 118 80.8 118V122C84.1273 122 86.7431 122.002 88.8444 121.83C90.9691 121.656 92.7435 121.296 94.3559 120.474L92.5399 116.91ZM96.9101 112.54C95.9513 114.422 94.4215 115.951 92.5399 116.91L94.3559 120.474C96.9901 119.132 99.1319 116.99 100.474 114.356L96.9101 112.54ZM98 100.8C98 104.193 97.9984 106.618 97.8432 108.519C97.6898 110.396 97.3964 111.585 96.9101 112.54L100.474 114.356C101.296 112.743 101.656 110.969 101.83 108.844C102.002 106.743 102 104.127 102 100.8H98ZM98 19.2V100.8H102V19.2H98ZM96.9101 7.4601C97.3964 8.41463 97.6898 9.60394 97.8432 11.4813C97.9984 13.382 98 15.8067 98 19.2H102C102 15.8727 102.002 13.2569 101.83 11.1556C101.656 9.03085 101.296 7.25654 100.474 5.64413L96.9101 7.4601ZM92.5399 3.08994C94.4215 4.04867 95.9513 5.57847 96.9101 7.4601L100.474 5.64413C99.1319 3.00987 96.9901 0.868136 94.3559 -0.474092L92.5399 3.08994ZM80.8 2C84.1933 2 86.618 2.00156 88.5187 2.15685C90.3961 2.31023 91.5854 2.60357 92.5399 3.08993L94.3559 -0.474091C92.7435 -1.29565 90.9691 -1.65627 88.8444 -1.82987C86.7431 -2.00156 84.1273 -2 80.8 -2V2ZM46.0651 2H80.8V-2H46.0651V2ZM40.6772 2.28332C41.7878 2.01319 42.9933 2 46.0651 2V-2C43.1865 -2 41.4167 -2.01319 39.7318 -1.60335L40.6772 2.28332ZM37.7564 3.51023C38.6586 2.94866 39.6446 2.53449 40.6772 2.28332L39.7318 -1.60335C38.2862 -1.25171 36.9058 -0.671878 35.6427 0.114324L37.7564 3.51023ZM33.7824 7.15949C35.9328 4.96583 36.7861 4.11419 37.7564 3.51023L35.6427 0.114325C34.1706 1.03063 32.9411 2.30367 30.9259 4.35937L33.7824 7.15949ZM25.416 15.6942L33.7824 7.15949L30.9259 4.35937L22.5596 12.894L25.416 15.6942ZM12.8995 15.7424C13.6805 14.9614 14.9469 14.9614 15.7279 15.7424L18.5563 12.914C16.2132 10.5708 12.4142 10.5708 10.0711 12.914L12.8995 15.7424ZM7.24264 21.3993L12.8995 15.7424L10.0711 12.914L4.41421 18.5708L7.24264 21.3993ZM7.24264 24.2277C6.46159 23.4466 6.46159 22.1803 7.24264 21.3993L4.41421 18.5708C2.07107 20.914 2.07107 24.713 4.41421 27.0561L7.24264 24.2277ZM6.91724 34.5652L7.29221 34.1826L4.43576 31.3825L4.06078 31.765L6.91724 34.5652ZM44 6C40.6863 6 38 8.68629 38 12H42C42 10.8954 42.8954 10 44 10V6ZM88 6H44V10H88V6ZM94 12C94 8.68629 91.3137 6 88 6V10C89.1046 10 90 10.8954 90 12H94ZM88 18C91.3137 18 94 15.3137 94 12H90C90 13.1046 89.1046 14 88 14V18ZM44 18H88V14H44V18ZM38 12C38 15.3137 40.6863 18 44 18V14C42.8954 14 42 13.1046 42 12H38ZM4.41421 27.0561C5.60648 28.2484 5.61609 30.1784 4.43576 31.3825L7.29221 34.1826C10.0081 31.4121 9.98601 26.9711 7.24264 24.2277L4.41421 27.0561ZM22.5596 12.894C21.4629 14.0128 19.6641 14.0218 18.5563 12.914L15.7279 15.7424C18.4088 18.4233 22.762 18.4016 25.416 15.6942L22.5596 12.894Z" fill="white" fill-opacity="0.12" mask="url(#path-10-inside-2_1930_8689)"/>
<g opacity="0.12">
<rect x="33" y="50.5" width="38" height="38" rx="3" stroke="white" stroke-width="2"/>
<path d="M20 101.5L34 87.5" stroke="white" stroke-width="2"/>
<path d="M70 51.5L84 37.5" stroke="white" stroke-width="2"/>
<path d="M84 101.5L70 87.5" stroke="white" stroke-width="2"/>
<path d="M34 51.5L20 37.5" stroke="white" stroke-width="2"/>
</g>
<path d="M110 33.5H190.5" stroke="white" stroke-opacity="0.12" stroke-width="2"/>
<path d="M110 63.5H190.5" stroke="white" stroke-opacity="0.12" stroke-linejoin="round" stroke-dasharray="8 8"/>
<path d="M110 93.5H190.5" stroke="white" stroke-opacity="0.12" stroke-linecap="round" stroke-linejoin="round" stroke-dasharray="20 20"/>
</g>
<defs>
<linearGradient id="paint0_linear_1930_8689" x1="150" y1="60" x2="150" y2="120" gradientUnits="userSpaceOnUse">
<stop stop-color="#D9D9D9"/>
<stop offset="1" stop-color="#D9D9D9" stop-opacity="0"/>
</linearGradient>
<linearGradient id="paint1_linear_1930_8689" x1="150" y1="60" x2="300" y2="60" gradientUnits="userSpaceOnUse">
<stop stop-color="#D9D9D9"/>
<stop offset="1" stop-color="#D9D9D9" stop-opacity="0"/>
</linearGradient>
</defs>
</svg>
