<svg width="300" height="240" viewBox="0 0 300 240" fill="none" xmlns="http://www.w3.org/2000/svg">
<mask id="mask0_2221_16680" style="mask-type:alpha" maskUnits="userSpaceOnUse" x="0" y="0" width="300" height="240">
<mask id="mask1_2221_16680" style="mask-type:alpha" maskUnits="userSpaceOnUse" x="0" y="0" width="300" height="240">
<rect width="300" height="240" fill="url(#paint0_linear_2221_16680)"/>
</mask>
<g mask="url(#mask1_2221_16680)">
<rect width="300" height="240" fill="url(#paint1_linear_2221_16680)"/>
</g>
</mask>
<g mask="url(#mask0_2221_16680)">
<path d="M190 222C207.673 222 222 207.673 222 190C222 172.327 207.673 158 190 158C172.327 158 158 172.327 158 190C158 207.673 172.327 222 190 222Z" fill="#00FF60" fill-opacity="0.04"/>
<path d="M221 190C221 207.121 207.121 221 190 221C172.879 221 159 207.121 159 190C159 172.879 172.879 159 190 159C207.121 159 221 172.879 221 190Z" stroke="#00FF60" stroke-opacity="0.48" stroke-width="2"/>
<path d="M204.004 202.75L193.183 176.59C192.573 175.237 191.666 174.577 190.47 174.577H189.513C188.317 174.577 187.41 175.237 186.8 176.59L182.09 187.988H178.527C177.463 187.996 176.597 188.854 176.589 189.926V189.95C176.597 191.014 177.463 191.88 178.527 191.889H180.441L175.946 202.75C175.863 202.99 175.814 203.237 175.814 203.493C175.814 204.103 176.004 204.581 176.342 204.953C176.68 205.324 177.167 205.505 177.777 205.505C178.181 205.497 178.569 205.373 178.89 205.134C179.237 204.895 179.476 204.548 179.666 204.153L184.614 191.88H188.045C189.109 191.872 189.975 191.014 189.983 189.942V189.893C189.975 188.829 189.109 187.963 188.045 187.955H186.214L189.991 178.544L200.284 204.144C200.474 204.54 200.713 204.887 201.059 205.126C201.381 205.365 201.777 205.489 202.173 205.497C202.783 205.497 203.261 205.315 203.608 204.944C203.954 204.573 204.136 204.095 204.136 203.484C204.144 203.237 204.103 202.981 204.004 202.75Z" fill="#00FF60" fill-opacity="0.48"/>
<path d="M111 64C128.673 64 143 49.6731 143 32C143 14.3269 128.673 0 111 0C93.3269 0 79 14.3269 79 32C79 49.6731 93.3269 64 111 64Z" fill="white" fill-opacity="0.04"/>
<path d="M142 32C142 49.1208 128.121 63 111 63C93.8792 63 80 49.1208 80 32C80 14.8792 93.8792 1 111 1C128.121 1 142 14.8792 142 32Z" stroke="white" stroke-opacity="0.48" stroke-width="2"/>
<path fill-rule="evenodd" clip-rule="evenodd" d="M113.4 25.8L120.6 21.6V30L113.4 25.8ZM120.6 43.8L111 49.4L101.4 43.8V34L111 39.6L120.6 34V43.8ZM101.4 21.6L108.6 25.8L101.4 30V21.6ZM112.2 27.8L119.4 32L112.2 36.2V27.8ZM109.8 36.2L102.6 32L109.8 27.8V36.2ZM119.4 19.6L111 24.4L102.6 19.6L111 14.6L119.4 19.6ZM99 18.8V45L111 51.8L123 45V18.8L111 12L99 18.8Z" fill="white" fill-opacity="0.48"/>
<path d="M190 64C207.673 64 222 49.6731 222 32C222 14.3269 207.673 0 190 0C172.327 0 158 14.3269 158 32C158 49.6731 172.327 64 190 64Z" fill="#00FF60" fill-opacity="0.04"/>
<path d="M221 32C221 49.1208 207.121 63 190 63C172.879 63 159 49.1208 159 32C159 14.8792 172.879 1 190 1C207.121 1 221 14.8792 221 32Z" stroke="#00FF60" stroke-opacity="0.48" stroke-width="2"/>
<path d="M268 64C285.673 64 300 49.6731 300 32C300 14.3269 285.673 0 268 0C250.327 0 236 14.3269 236 32C236 49.6731 250.327 64 268 64Z" fill="#00FF60" fill-opacity="0.04"/>
<path d="M299 32C299 49.1208 285.121 63 268 63C250.879 63 237 49.1208 237 32C237 14.8792 250.879 1 268 1C285.121 1 299 14.8792 299 32Z" stroke="#00FF60" stroke-opacity="0.48" stroke-width="2"/>
<path d="M269 222C286.673 222 301 207.673 301 190C301 172.327 286.673 158 269 158C251.327 158 237 172.327 237 190C237 207.673 251.327 222 269 222Z" fill="#00FF60" fill-opacity="0.04"/>
<path d="M300 190C300 207.121 286.121 221 269 221C251.879 221 238 207.121 238 190C238 172.879 251.879 159 269 159C286.121 159 300 172.879 300 190Z" stroke="#00FF60" stroke-opacity="0.48" stroke-width="2"/>
<path d="M282.056 206.861L275.168 196.048H285.06V191.962H252.62V196.048H262.512L255.623 206.861H260.75L268.84 194.165L276.93 206.861H282.056ZM285.06 187.997V183.912H275.368L282.177 173.219H277.01L268.84 186.115L260.67 173.219H255.503L262.312 183.912H252.62V188.038L285.06 187.997Z" fill="#00FF60" fill-opacity="0.48"/>
<path d="M268 143C285.673 143 300 128.673 300 111C300 93.3269 285.673 79 268 79C250.327 79 236 93.3269 236 111C236 128.673 250.327 143 268 143Z" fill="#00FF60" fill-opacity="0.04"/>
<path d="M299 111C299 128.121 285.121 142 268 142C250.879 142 237 128.121 237 111C237 93.8792 250.879 80 268 80C285.121 80 299 93.8792 299 111Z" stroke="#00FF60" stroke-opacity="0.48" stroke-width="2"/>
<path d="M284 103.122V120.952L278.928 123.912V112.012L268 118.552L257.072 112.006V123.912L252 120.952V103.12L268 112.73L284 103.12V103.122ZM268.06 125.356L272.74 122.558L277.36 125.356L268.06 131L258.764 125.356L263.384 122.558L268.062 125.356H268.06ZM277.3 96.644L272.678 99.442L268 96.644L263.322 99.442L258.702 96.644L268 91L277.3 96.644Z" fill="#00FF60" fill-opacity="0.48"/>
<path d="M31.9998 222C39.4031 222 46.5775 219.433 52.3004 214.737C58.0233 210.04 61.9407 203.504 63.3851 196.243C64.8295 188.982 63.7115 181.445 60.2217 174.916C56.7318 168.386 51.0859 163.269 44.2461 160.436C37.4063 157.603 29.7958 157.229 22.7112 159.378C15.6266 161.527 9.50628 166.066 5.39315 172.222C1.28001 178.377 -0.57149 185.769 0.154118 193.136C0.879726 200.504 4.13755 207.392 9.37249 212.627C15.3736 218.628 23.5129 222 31.9998 222Z" fill="white" fill-opacity="0.04"/>
<path d="M51.666 213.964C46.122 218.513 39.1718 221 31.9998 221C23.7781 221 15.8932 217.734 10.0796 211.92C5.00825 206.849 1.85224 200.176 1.1493 193.038C0.44637 185.901 2.24001 178.74 6.22461 172.777C10.2092 166.814 16.1382 162.417 23.0014 160.335C29.8647 158.253 37.2374 158.615 43.8635 161.36C50.4895 164.104 55.9589 169.062 59.3397 175.387C62.7205 181.712 63.8036 189.014 62.4043 196.048C61.0051 203.082 57.2101 209.414 51.666 213.964Z" stroke="white" stroke-opacity="0.48" stroke-width="2"/>
<path d="M43.7082 176.372H48.52L38.5146 186.355C36.7758 188.092 34.4182 189.068 31.96 189.068C29.5019 189.068 27.1443 188.092 25.4055 186.355L15.4282 176.372H20.2346L27.8346 183.955C28.9361 185.055 30.4292 185.673 31.9859 185.673C33.5427 185.673 35.0358 185.055 36.1373 183.955L43.7082 176.372Z" fill="white" fill-opacity="0.48"/>
<path d="M20.2119 204.137H15.4282L25.4682 194.091C27.207 192.353 29.5646 191.377 32.0228 191.377C34.4809 191.377 36.8385 192.353 38.5773 194.091L48.6364 204.137H43.8346L36.1819 196.492C35.0804 195.392 33.5873 194.774 32.0305 194.774C30.4737 194.774 28.9806 195.392 27.8791 196.492L20.2119 204.137Z" fill="white" fill-opacity="0.48"/>
<mask id="path-23-inside-1_2221_16680" fill="white">
<path d="M63.0424 118.741C63.0425 118.741 63.0425 118.741 63.0425 118.741C58.7682 135.884 41.4031 146.317 24.2562 142.042C7.11636 137.768 -3.31773 120.404 0.958461 103.262C5.2309 86.1174 22.596 75.6837 39.7376 79.9575C56.8833 84.2313 67.3167 101.597 63.0422 118.741C63.0421 118.741 63.0423 118.741 63.0424 118.741L63.0424 118.741C63.0424 118.741 63.0424 118.741 63.0424 118.741Z"/>
</mask>
<path d="M63.0424 118.741C63.0425 118.741 63.0425 118.741 63.0425 118.741C58.7682 135.884 41.4031 146.317 24.2562 142.042C7.11636 137.768 -3.31773 120.404 0.958461 103.262C5.2309 86.1174 22.596 75.6837 39.7376 79.9575C56.8833 84.2313 67.3167 101.597 63.0422 118.741C63.0421 118.741 63.0423 118.741 63.0424 118.741L63.0424 118.741C63.0424 118.741 63.0424 118.741 63.0424 118.741Z" fill="#00FF60" fill-opacity="0.04"/>
<path d="M24.2562 142.042L23.7723 143.983L23.7724 143.983L24.2562 142.042ZM0.958461 103.262L2.89899 103.746L2.89911 103.746L0.958461 103.262ZM39.7376 79.9575L39.2538 81.8981L39.2539 81.8982L39.7376 79.9575ZM63.0422 118.741L64.9828 119.225L63.0422 118.741ZM63.0424 118.741L64.4565 120.155L63.0424 118.741ZM63.0424 118.741L64.4565 120.155L63.0424 118.741ZM63.0425 118.741L61.1019 118.257L63.0425 118.741ZM61.1019 118.257C57.0949 134.328 40.8155 144.109 24.74 140.101L23.7724 143.983C41.9908 148.525 60.4414 137.44 64.9831 119.225L61.1019 118.257ZM24.74 140.101C8.67194 136.095 -1.10979 119.816 2.89899 103.746L-0.982069 102.778C-5.52567 120.992 5.56077 139.441 23.7723 143.983L24.74 140.101ZM2.89911 103.746C6.90443 87.673 23.1839 77.8915 39.2538 81.8981L40.2215 78.017C22.008 73.4759 3.55737 84.5619 -0.98219 102.779L2.89911 103.746ZM39.2539 81.8982C55.3276 85.9048 65.1089 102.185 61.1016 118.257L64.9828 119.225C69.5245 101.009 58.4389 82.5579 40.2214 78.0169L39.2539 81.8982ZM64.4565 120.155L64.4565 120.155L61.6282 117.327L61.6282 117.327L64.4565 120.155ZM61.1016 118.257C60.6219 120.181 62.9907 121.621 64.4565 120.155L61.6282 117.327C63.0939 115.861 65.4624 117.301 64.9828 119.225L61.1016 118.257ZM64.4565 120.155C64.0814 120.53 63.5728 120.741 63.0424 120.741V116.741C62.512 116.741 62.0033 116.952 61.6282 117.327L64.4565 120.155ZM64.9831 119.225C65.2925 117.984 64.3647 116.741 63.0424 116.741V120.741C61.7203 120.741 60.7925 119.498 61.1019 118.257L64.9831 119.225Z" fill="#00FF60" fill-opacity="0.48" mask="url(#path-23-inside-1_2221_16680)"/>
<path d="M46.1122 106.441C46.7492 102.182 43.5067 99.8932 39.0729 98.3661L40.5112 92.5976L36.9994 91.7226L35.5992 97.3393C34.6759 97.109 33.7278 96.8921 32.7854 96.677L34.1958 91.0233L30.6861 90.1483L29.247 95.915C28.483 95.741 27.7326 95.5691 27.0045 95.388L27.0086 95.3699L22.1657 94.1606L21.2315 97.9111C21.2315 97.9111 23.837 98.5083 23.7821 98.545C25.2042 98.8999 25.4613 99.8412 25.4186 100.587L23.7802 107.159C23.8781 107.184 24.0051 107.22 24.1453 107.276C24.0281 107.247 23.9035 107.215 23.7741 107.184L21.4775 116.39C21.3037 116.822 20.8626 117.471 19.8683 117.225C19.9035 117.276 17.3158 116.588 17.3158 116.588L15.5723 120.607L20.1424 121.746C20.9926 121.959 21.8257 122.182 22.6462 122.392L21.193 128.227L24.7008 129.102L26.1399 123.329C27.0982 123.589 28.0282 123.829 28.9386 124.055L27.5043 129.801L31.0164 130.676L32.4694 124.852C38.4579 125.985 42.9608 125.528 44.8561 120.113C46.3833 115.752 44.7801 113.237 41.6296 111.597C43.9242 111.068 45.6526 109.559 46.1135 106.441L46.1124 106.44L46.1122 106.441ZM38.0884 117.691C37.0031 122.051 29.6606 119.694 27.28 119.103L29.2085 111.373C31.5889 111.967 39.2227 113.143 38.0886 117.691H38.0884ZM39.1745 106.378C38.1845 110.344 32.0732 108.329 30.0908 107.835L31.8392 100.824C33.8216 101.318 40.2059 102.24 39.1749 106.378H39.1745Z" fill="#00FF60" fill-opacity="0.48"/>
<path d="M111 143C128.733 143 143 128.733 143 111C143 93.2666 128.733 79 111 79C93.2666 79 79 93.2666 79 111C79 128.733 93.2666 143 111 143Z" fill="#00FF60" fill-opacity="0.04"/>
<path d="M142 111C142 128.181 128.181 142 111 142C93.8188 142 80 128.181 80 111C80 93.8188 93.8188 80 111 80C128.181 80 142 93.8188 142 111Z" stroke="#00FF60" stroke-opacity="0.48" stroke-width="2"/>
<path d="M120 115.714C120 111.066 117.179 109.473 111.537 108.809C107.507 108.278 106.701 107.216 106.701 105.357C106.701 103.498 108.045 102.303 110.731 102.303C113.149 102.303 114.493 103.1 115.164 105.091C115.299 105.49 115.702 105.755 116.105 105.755H118.254C118.791 105.755 119.194 105.357 119.194 104.826V104.693C118.657 101.772 116.239 99.5146 113.149 99.2492V96.0624C113.149 95.5312 112.746 95.1329 112.075 95H110.06C109.522 95 109.119 95.3983 108.985 96.0624V99.1163C104.955 99.6475 102.403 102.303 102.403 105.623C102.403 110.004 105.089 111.73 110.731 112.394C114.493 113.058 115.702 113.855 115.702 115.979C115.702 118.104 113.821 119.564 111.269 119.564C107.776 119.564 106.567 118.104 106.164 116.112C106.03 115.581 105.627 115.315 105.224 115.315H102.94C102.403 115.315 102 115.714 102 116.245V116.378C102.537 119.697 104.686 122.087 109.119 122.751V125.938C109.119 126.469 109.522 126.867 110.194 127H112.209C112.746 127 113.149 126.602 113.284 125.938V122.751C117.314 122.087 120 119.299 120 115.714Z" fill="#00FF60" fill-opacity="0.48"/>
<path d="M104.218 129.613C93.8465 125.89 88.5275 114.324 92.3839 104.087C94.3785 98.5027 98.7666 94.2485 104.218 92.2542C104.75 91.9885 105.016 91.5896 105.016 90.9247V89.0635C105.016 88.5316 104.75 88.1327 104.218 88C104.085 88 103.819 88 103.686 88.1327C91.0541 92.1212 84.1394 105.549 88.1286 118.179C90.5221 125.624 96.24 131.341 103.686 133.734C104.218 134 104.75 133.734 104.883 133.202C105.016 133.07 105.016 132.937 105.016 132.671V130.809C105.016 130.41 104.617 129.879 104.218 129.613ZM118.314 88.1327C117.782 87.8669 117.25 88.1327 117.117 88.6646C116.984 88.7977 116.984 88.9304 116.984 89.1965V91.0577C116.984 91.5896 117.383 92.1212 117.782 92.3873C128.153 96.1097 133.472 107.676 129.616 117.913C127.621 123.497 123.233 127.752 117.782 129.746C117.25 130.012 116.984 130.41 116.984 131.075V132.937C116.984 133.468 117.25 133.867 117.782 134C117.915 134 118.181 134 118.314 133.867C130.946 129.879 137.861 116.451 133.871 103.821C131.478 96.2427 125.627 90.5258 118.314 88.1327Z" fill="#00FF60" fill-opacity="0.48"/>
<path fill-rule="evenodd" clip-rule="evenodd" d="M190 79C207.674 79 222 93.3256 222 111C222 128.674 207.674 143 190 143C172.326 143 158 128.674 158 111C158 93.3256 172.326 79 190 79Z" fill="white" fill-opacity="0.04"/>
<path d="M190 80C207.122 80 221 93.8779 221 111C221 128.122 207.122 142 190 142C172.878 142 159 128.122 159 111C159 93.8779 172.878 80 190 80Z" stroke="white" stroke-opacity="0.48" stroke-width="2"/>
<path d="M175.587 111L175.61 119.462L182.8 123.692V128.646L171.402 121.962V108.526L175.587 111ZM175.587 102.538V107.469L171.4 104.992V100.062L175.587 97.5846L179.795 100.062L175.587 102.538ZM185.802 100.062L189.99 97.5846L194.197 100.062L189.99 102.538L185.802 100.062Z" fill="white" fill-opacity="0.48"/>
<path d="M178.612 117.708V112.754L182.799 115.231V120.162L178.612 117.708ZM185.802 125.467L189.989 127.944L194.197 125.467V130.397L189.989 132.874L185.802 130.397V125.467ZM200.202 100.062L204.389 97.5846L208.597 100.062V104.992L204.389 107.469V102.538L200.202 100.062ZM204.389 119.462L204.412 111L208.599 108.523V121.959L197.202 128.644V123.69L204.389 119.462Z" fill="white" fill-opacity="0.48"/>
<path d="M201.387 117.708L197.2 120.162V115.231L201.387 112.754V117.708Z" fill="white" fill-opacity="0.48"/>
<path d="M201.387 104.292L201.41 109.246L194.199 113.477V121.959L190.012 124.413L185.825 121.959V113.477L178.615 109.246V104.292L182.82 101.815L189.987 106.067L197.197 101.815L201.405 104.292H201.387ZM178.612 95.8333L189.989 89.1256L201.387 95.8333L197.199 98.3102L189.989 94.0589L182.799 98.3102L178.612 95.8333Z" fill="white" fill-opacity="0.48"/>
<path d="M111 222C128.673 222 143 207.673 143 190C143 172.327 128.673 158 111 158C93.3269 158 79 172.327 79 190C79 207.673 93.3269 222 111 222Z" fill="#00FF60" fill-opacity="0.04"/>
<path d="M142 190C142 207.121 128.121 221 111 221C93.8792 221 80 207.121 80 190C80 172.879 93.8792 159 111 159C128.121 159 142 172.879 142 190Z" stroke="#00FF60" stroke-opacity="0.48" stroke-width="2"/>
<path d="M111 193.292C112.818 193.292 114.292 191.818 114.292 190C114.292 188.182 112.818 186.708 111 186.708C109.182 186.708 107.708 188.182 107.708 190C107.708 191.818 109.182 193.292 111 193.292Z" fill="#00FF60" fill-opacity="0.48"/>
<path fill-rule="evenodd" clip-rule="evenodd" d="M91.2471 184.074C91.2471 183.905 91.2675 183.742 91.306 183.585C87.7735 180.244 86.0211 177.482 86.8543 176.041C88.1855 173.739 95.7387 175.484 105.233 179.935C106.141 169.488 108.41 162.083 111.066 162.083C113.726 162.083 115.998 169.512 116.903 179.985C118.901 179.058 120.813 178.249 122.599 177.571C122.592 177.501 122.588 177.43 122.588 177.358C122.588 176.267 123.443 175.383 124.497 175.383C125.195 175.383 125.805 175.77 126.138 176.347C131.036 174.84 134.485 174.653 135.339 176.14C136.66 178.444 131.37 184.101 122.755 190.09C131.339 196.114 136.611 201.792 135.278 204.091C133.947 206.394 126.397 204.647 116.899 200.192C115.992 210.642 113.722 218.05 111.066 218.05C109.383 218.05 107.855 215.076 106.731 210.24C105.861 210.056 105.206 209.259 105.206 208.305C105.206 207.63 105.533 207.035 106.032 206.678C105.703 204.686 105.431 202.492 105.229 200.145C95.6906 204.572 88.1157 206.298 86.7924 203.991C85.4706 201.686 90.7619 196.029 99.3778 190.04C97.3587 188.624 95.523 187.227 93.9135 185.888C93.6814 185.992 93.4255 186.049 93.1566 186.049C92.102 186.049 91.2471 185.165 91.2471 184.074ZM105.121 181.337C105 182.985 104.913 184.7 104.862 186.467C103.336 187.401 101.874 188.342 100.49 189.277C97.8637 187.395 95.8039 185.757 94.8522 184.983C94.9889 184.711 95.0661 184.402 95.0661 184.074C95.0661 182.983 94.2112 182.099 93.1566 182.099C92.73 182.099 92.3362 182.244 92.0183 182.488C88.3223 178.94 88.0045 177.203 88.0045 177.203L88.0027 177.196C87.7467 176.589 88.2871 176.443 88.2871 176.443C90.6797 175.991 94.0405 177.021 94.0405 177.021C97.2013 177.741 101.218 179.432 105.121 181.337ZM107.968 210.073C108.595 209.749 109.025 209.079 109.025 208.305C109.025 207.253 108.23 206.393 107.228 206.333C106.898 204.198 106.663 201.872 106.498 199.545C107.979 198.834 109.5 198.061 111.048 197.231C112.626 198.087 114.177 198.882 115.685 199.613C115.251 204.093 114.678 207.383 114.678 207.383C113.353 214.889 111.498 216.47 111.498 216.47C111.103 216.997 110.708 216.602 110.708 216.602C109.117 214.759 108.321 211.335 108.321 211.335C108.197 210.934 108.079 210.512 107.968 210.073ZM123.175 178.782C121.405 179.442 119.363 180.275 117.009 181.323C117.131 182.979 117.219 184.704 117.27 186.481C118.82 187.439 120.303 188.404 121.706 189.363C124.682 187.248 128.248 184.435 131.629 181.06C131.629 181.06 134.165 178.474 134.296 177.041C134.308 176.925 134.279 176.808 134.213 176.712C134.148 176.615 134.05 176.545 133.938 176.514C133.245 176.323 131.264 176.144 126.382 177.675C126.236 178.615 125.448 179.333 124.497 179.333C123.984 179.333 123.518 179.124 123.175 178.782ZM106.311 181.926C106.274 182.327 106.237 182.736 106.201 183.154C106.201 183.154 106.168 184.108 106.148 185.69C106.739 185.338 107.339 184.988 107.947 184.639C108.524 184.308 109.098 183.985 109.67 183.669C108.586 183.089 107.458 182.502 106.311 181.926ZM111.087 182.897C109.509 182.042 107.958 181.246 106.449 180.515C107.79 167.465 109.936 164.236 110.697 163.484C110.78 163.402 110.889 163.352 111.004 163.343C111.12 163.333 111.236 163.365 111.33 163.432C112.505 164.265 113.49 167.745 113.49 167.745C114.738 172.376 115.402 176.886 115.753 180.527C114.236 181.254 112.676 182.046 111.087 182.897ZM111.023 184.4C109.639 185.185 107.953 186.165 106.134 187.27C106.127 188.899 106.138 190.907 106.195 193.097C107.35 193.81 108.533 194.502 109.718 195.141C109.718 195.141 110.189 195.431 111.048 195.911C112.313 195.237 113.576 194.523 114.789 193.778C114.789 193.778 115.276 193.515 116.123 193.012C116.169 191.572 116.178 190.114 116.135 188.683C116.135 188.683 116.148 188.188 116.137 187.298C114.734 186.475 112.974 185.465 111.023 184.4ZM116.1 185.766C115.479 185.392 114.849 185.019 114.209 184.648C113.606 184.298 113.004 183.956 112.406 183.622C113.793 182.85 114.64 182.402 114.64 182.402C115.059 182.207 115.468 182.018 115.87 181.836C115.994 183.359 116.063 184.692 116.1 185.766ZM117.304 187.989C117.315 188.675 117.321 189.367 117.321 190.066C117.321 190.817 117.314 191.56 117.301 192.296C118.222 191.724 119.353 190.994 120.625 190.119C120.256 189.856 119.876 189.588 119.487 189.315C119.487 189.315 118.672 188.805 117.304 187.989ZM121.644 190.851C120.259 191.787 118.797 192.729 117.27 193.664C117.218 195.473 117.127 197.229 117.002 198.913C120.324 200.43 124.546 202.108 129.164 203.347C129.164 203.347 132.67 204.24 133.979 203.64C134.085 203.592 134.171 203.508 134.221 203.403C134.271 203.298 134.282 203.179 134.253 203.066C133.982 202.034 132.266 198.555 121.644 190.851ZM115.801 198.354C115.909 197.091 116.003 195.756 116.068 194.39C115.45 194.759 114.821 195.126 114.184 195.491C113.54 195.861 112.899 196.221 112.261 196.573C113.214 197.082 114.41 197.694 115.801 198.354ZM109.816 196.555C109.191 196.206 108.562 195.849 107.931 195.484C107.359 195.152 106.794 194.819 106.237 194.485C106.279 195.699 106.336 196.953 106.412 198.218C107.51 197.705 108.658 197.148 109.816 196.555ZM104.829 192.234C104.817 191.519 104.811 190.796 104.811 190.066C104.811 189.396 104.816 188.732 104.826 188.073C103.786 188.718 102.718 189.397 101.65 190.098C102.654 190.8 103.722 191.521 104.829 192.234ZM100.534 190.84C101.905 191.774 103.351 192.713 104.861 193.647C104.912 195.425 105 197.152 105.122 198.81C101.002 200.672 97.8436 201.819 97.8436 201.819C90.6733 204.403 88.3793 203.58 88.3793 203.58C87.7209 203.497 87.8694 202.955 87.8694 202.955C88.677 200.659 91.2473 198.265 91.2473 198.265C93.4542 195.89 96.9301 193.262 100.534 190.84Z" fill="#00FF60" fill-opacity="0.48"/>
<circle cx="32" cy="32" r="32" fill="#00FF60" fill-opacity="0.04"/>
<circle cx="32" cy="32" r="31" stroke="#00FF60" stroke-opacity="0.48" stroke-width="2"/>
<path d="M34.406 33.9093H44.2874C44.4981 33.9093 44.5975 33.9093 44.6128 33.6228C44.6935 32.5799 44.6935 31.531 44.6128 30.4869C44.6128 30.2841 44.5156 30.2004 44.3038 30.2004H24.6381C24.3947 30.2004 24.3292 30.2841 24.3292 30.5209V33.522C24.3292 33.9093 24.3292 33.9093 24.7188 33.9093H34.406ZM43.5092 26.693C43.5373 26.6165 43.5373 26.5327 43.5092 26.4575C43.3442 26.0847 43.1488 25.729 42.9218 25.3952C42.5801 24.8246 42.1775 24.2989 41.7188 23.8266C41.5023 23.5413 41.2519 23.2851 40.971 23.0678C39.5644 21.8259 37.8921 20.9469 36.0946 20.505C35.1877 20.2937 34.2609 20.193 33.3317 20.2015H24.6042C24.3607 20.2015 24.328 20.3022 24.328 20.522V26.5072C24.328 26.7598 24.328 26.8277 24.6369 26.8277H43.3922C43.3922 26.8277 43.5549 26.7938 43.5876 26.693H43.5081H43.5092ZM43.5092 37.4167C43.2331 37.3851 42.9545 37.3851 42.6784 37.4167H24.6545C24.4111 37.4167 24.3292 37.4167 24.3292 37.7542V43.6059C24.3292 43.8755 24.3292 43.9434 24.6545 43.9434H32.976C33.3739 43.975 33.7717 43.9459 34.1614 43.8597C35.3691 43.7698 36.5569 43.4979 37.6897 43.0499C38.1016 42.9018 38.4995 42.7087 38.8751 42.4769H38.9886C40.9394 41.4243 42.5239 39.7707 43.5233 37.7409C43.5233 37.7409 43.6368 37.4859 43.5092 37.4191V37.4167ZM21.063 46.9774V46.8766V42.9479V41.6161V37.6534C21.063 37.4337 21.063 37.4009 20.8032 37.4009H17.2762C17.0807 37.4009 17 37.4009 17 37.1314V33.9275H20.7705C20.9811 33.9275 21.063 33.9275 21.063 33.641V30.4711C21.063 30.2684 21.063 30.2186 20.8032 30.2186H17.2762C17.0807 30.2186 17 30.2186 17 29.9491V26.9819C17 26.7962 17 26.7464 17.2598 26.7464H20.7541C20.9975 26.7464 21.063 26.7464 21.063 26.4259V17.3375C21.063 17.068 21.063 17 21.3884 17H33.5775C34.4622 17.0364 35.341 17.1372 36.2105 17.3035C38.0021 17.6471 39.7235 18.3112 41.2975 19.2593C42.3413 19.8967 43.3021 20.6664 44.1575 21.5527C44.8012 22.2459 45.3816 22.9962 45.8965 23.795C46.4079 24.6048 46.8327 25.4704 47.1662 26.3749C47.2072 26.6104 47.4248 26.7695 47.6518 26.7294H50.561C50.9343 26.7294 50.9343 26.7294 50.9507 27.1009V29.8665C50.9507 30.136 50.8536 30.204 50.5926 30.204H48.3493C48.1223 30.204 48.0567 30.204 48.0731 30.5075C48.1621 31.5346 48.1621 32.5654 48.0731 33.5924C48.0731 33.879 48.0731 33.9129 48.3832 33.9129H50.9496C51.0631 34.0647 50.9496 34.2165 50.9496 34.3694C50.9659 34.5649 50.9659 34.7628 50.9496 34.9582V36.9991C50.9496 37.2856 50.8688 37.3706 50.6242 37.3706H47.5524C47.3382 37.3281 47.1299 37.4701 47.0808 37.6911C46.3494 39.6639 45.1791 41.4328 43.6672 42.8508C43.1149 43.3668 42.5344 43.8524 41.9282 44.3004C41.2776 44.6889 40.6445 45.0931 39.9775 45.4137C38.7499 45.9867 37.4626 46.4092 36.1415 46.6775C34.887 46.9106 33.6149 47.0162 32.3382 46.998H21.0584V46.981L21.063 46.9774Z" fill="#00FF60" fill-opacity="0.48"/>
<path d="M190.119 8L189.81 9.04828V39.4642L190.119 39.7721L204.237 31.4266L190.119 8Z" fill="#00FF60" fill-opacity="0.48"/>
<path d="M190.119 8L176 31.4266L190.119 39.7721V25.009V8Z" fill="#00FF60" fill-opacity="0.48"/>
<path d="M190.119 42.4452L189.945 42.6573V53.4919L190.119 53.9997L204.246 34.104L190.119 42.4452Z" fill="#00FF60" fill-opacity="0.48"/>
<path d="M190.119 53.9997V42.4452L176 34.104L190.119 53.9997Z" fill="#00FF60" fill-opacity="0.48"/>
<path d="M190.119 39.7721L204.237 31.4265L190.119 25.009V39.7721Z" fill="#00FF60" fill-opacity="0.48"/>
<path d="M176 31.4265L190.119 39.7721V25.009L176 31.4265Z" fill="#00FF60" fill-opacity="0.48"/>
<path fill-rule="evenodd" clip-rule="evenodd" d="M265.777 44.3196L269.109 33.0847L274.3 31.6125L275.385 27.8934L270.271 29.4431L275.695 11.0024V10.708C275.691 10.5899 275.664 10.4738 275.615 10.3663C275.566 10.2587 275.496 10.1619 275.41 10.0813C275.323 10.0007 275.222 9.93795 275.111 9.89657C275.001 9.85518 274.883 9.83601 274.765 9.84016H267.869C267.608 9.83211 267.352 9.91164 267.141 10.0661C266.931 10.2206 266.778 10.441 266.707 10.6925L260.276 32.5423L255.162 34.092L254 37.6561L259.114 36.1065L254.542 51.6803H281.816C282.078 51.6912 282.335 51.6127 282.546 51.4578C282.758 51.303 282.91 51.0809 282.978 50.828L284.528 45.4818V45.1874C284.524 45.0693 284.497 44.9532 284.448 44.8457C284.399 44.7382 284.329 44.6413 284.243 44.5607C284.156 44.4801 284.055 44.4174 283.944 44.376C283.834 44.3346 283.716 44.3154 283.598 44.3196H265.777Z" fill="#00FF60" fill-opacity="0.48"/>
</g>
<defs>
<linearGradient id="paint0_linear_2221_16680" x1="150" y1="0" x2="150" y2="240" gradientUnits="userSpaceOnUse">
<stop stop-color="#D9D9D9"/>
<stop offset="0.933333" stop-color="#D9D9D9" stop-opacity="0"/>
</linearGradient>
<linearGradient id="paint1_linear_2221_16680" x1="0" y1="120" x2="300" y2="120" gradientUnits="userSpaceOnUse">
<stop stop-color="#D9D9D9"/>
<stop offset="0.93" stop-color="#D9D9D9" stop-opacity="0"/>
</linearGradient>
</defs>
</svg>
