<svg width="40" height="40" viewBox="0 0 40 40" fill="none" xmlns="http://www.w3.org/2000/svg">
<mask id="mask0_1214_1086" style="mask-type:alpha" maskUnits="userSpaceOnUse" x="0" y="0" width="40" height="40">
<rect width="40" height="40" fill="#C4C4C4"/>
</mask>
<g mask="url(#mask0_1214_1086)">
<path d="M34.3102 29.7633H30.2073H27.9791C26.6177 29.7633 26.0479 28.6482 25.9331 28.0906C25.8336 27.6122 25.6919 27.1501 25.5122 26.7077C25.209 25.753 25.7249 25.2318 26.0208 25.0906L28.5562 23.6318C28.9057 24.2122 29.1873 24.8432 29.421 25.4953C29.5551 25.8562 30.0553 26.5245 30.9831 26.3113L33.7597 25.5759C34.11 26.9218 34.3102 28.3177 34.3102 29.7633Z" fill="url(#paint0_linear_1214_1086)"/>
<path fill-rule="evenodd" clip-rule="evenodd" d="M29.5063 18.2489C27.505 16.2549 25.0033 14.7595 22.1513 14.0117L21.1006 17.9498C23.2021 18.4981 25.1034 19.6447 26.6044 21.1401L29.5063 18.2489Z" fill="url(#paint1_linear_1214_1086)"/>
<path d="M7.29166 23.5817C6.24094 25.4261 5.64052 27.5197 5.64052 29.763H3.77533C3.37605 29.763 2.76762 29.6246 2.17821 28.9995C1.70668 28.4994 1.67582 27.7051 1.71933 27.3704C1.9601 25.7872 2.4305 24.2769 3.07184 22.8647C3.2493 22.4524 3.87039 21.7473 4.93513 22.2259L7.29166 23.5817Z" fill="url(#paint2_linear_1214_1086)"/>
<path d="M34.3102 29.7627C34.3102 28.3171 34.11 26.9214 33.7598 25.5755L36.3449 24.8907C36.8059 24.7701 37.7908 24.8128 38.044 25.9495C38.1395 26.4407 38.2173 26.9407 38.2766 27.446C38.3235 27.7364 38.2805 28.4727 37.7329 29.0939C37.1853 29.7153 36.402 29.7627 36.1929 29.7627H34.3102Z" fill="#ABDA02"/>
<path d="M26.6055 21.1399L29.5074 18.2486L31.4357 16.3275C31.773 16.0118 32.6395 15.5887 33.4079 16.4222C33.9641 17.0588 34.483 17.7326 34.9589 18.4491C35.159 18.8506 35.3437 19.7774 34.4823 20.2731L32.1093 21.6383L28.5567 23.6821C28.0064 22.735 27.356 21.8876 26.6055 21.1399Z" fill="#ABDA02"/>
<path d="M26.1543 15.656C23.7527 14.2602 20.9508 13.4626 17.9487 13.4626C16.9193 13.4626 15.9149 13.563 14.9358 13.7459C14.0688 13.9087 13.5766 13.2235 13.4389 12.8605L13.0446 11.3829C12.9525 10.9336 13.0193 9.98034 14.0232 9.76181C15.2915 9.51061 16.6201 9.375 17.9487 9.375C21.1465 9.375 24.1951 10.1187 26.9331 11.4455C27.3261 11.6296 27.9978 12.2507 27.5416 13.2626L26.1543 15.656Z" fill="#ABDA02"/>
<path d="M17.8991 17.5498C18.9998 17.5498 20.1006 17.6993 21.1012 17.9486L20.3716 20.6834C20.2773 21.0406 19.853 21.733 18.9099 21.6453C18.5992 21.6068 18.279 21.5876 17.949 21.5876C13.9702 21.5876 10.6792 24.4046 9.91225 28.109C9.85035 28.3678 9.62006 28.9652 9.19417 29.2835C8.66179 29.6813 8.22449 29.7628 7.88225 29.7628H5.64062C5.64062 22.9833 11.1444 17.5498 17.8991 17.5498Z" fill="#ABDA02"/>
</g>
<defs>
<linearGradient id="paint0_linear_1214_1086" x1="29.865" y1="23.6318" x2="29.865" y2="29.7633" gradientUnits="userSpaceOnUse">
<stop stop-color="#6410D6"/>
<stop offset="1" stop-color="#A310D6"/>
</linearGradient>
<linearGradient id="paint1_linear_1214_1086" x1="25.3035" y1="14.0117" x2="25.3035" y2="21.1401" gradientUnits="userSpaceOnUse">
<stop stop-color="#6410D6"/>
<stop offset="1" stop-color="#A310D6"/>
</linearGradient>
<linearGradient id="paint2_linear_1214_1086" x1="4.49837" y1="22.0654" x2="4.49837" y2="29.763" gradientUnits="userSpaceOnUse">
<stop stop-color="#6410D6"/>
<stop offset="1" stop-color="#A310D6"/>
</linearGradient>
</defs>
</svg>