<svg width="16" height="16" viewBox="0 0 16 16" fill="none" xmlns="http://www.w3.org/2000/svg">
<path d="M1 8C1 11.866 4.13401 15 8 15C11.866 15 15 11.866 15 8C15 4.13401 11.866 1 8 1C4.13401 1 1 4.13401 1 8ZM12.9 8C12.9 10.7062 10.7062 12.9 8 12.9C5.29381 12.9 3.1 10.7062 3.1 8C3.1 5.2938 5.29381 3.1 8 3.1C10.7062 3.1 12.9 5.2938 12.9 8Z" fill="#FF2E2E"/>
<path d="M6 6L10 10" stroke="#FF2E2E" stroke-width="1.4" stroke-linecap="round"/>
<path d="M10 6L6 10" stroke="#FF2E2E" stroke-width="1.4" stroke-linecap="round"/>
</svg>
