<svg width="16" height="16" viewBox="0 0 16 16" fill="none" xmlns="http://www.w3.org/2000/svg">
<path d="M7.73164 2.006C7.70694 1.45427 7.23706 1.01981 6.69446 1.12281C5.4566 1.3578 4.29851 1.924 3.34784 2.76957C2.14676 3.83786 1.34993 5.28698 1.09124 6.87347C0.832553 8.45995 1.12776 10.0871 1.92726 11.4816C2.72676 12.8761 3.98185 13.953 5.48166 14.5313C6.98147 15.1096 8.63461 15.1541 10.1634 14.6573C11.6921 14.1605 13.0033 13.1527 13.8767 11.8033C14.75 10.4538 15.1323 8.84484 14.9594 7.24673C14.8224 5.98182 14.3443 4.7847 13.5846 3.7795C13.2516 3.33889 12.6117 3.34544 12.223 3.73776L12.1526 3.8088C11.7639 4.20113 11.7773 4.83021 12.0826 5.29038C12.5139 5.94018 12.7866 6.6878 12.8715 7.47271C12.9926 8.59139 12.725 9.71765 12.1137 10.6623C11.5023 11.6069 10.5845 12.3124 9.51435 12.6601C8.44423 13.0079 7.28703 12.9767 6.23716 12.5719C5.18729 12.1671 4.30873 11.4133 3.74908 10.4371C3.18943 9.46099 2.98279 8.32197 3.16387 7.21143C3.34495 6.10089 3.90273 5.0865 4.74349 4.3387C5.33341 3.814 6.03742 3.44298 6.79328 3.25091C7.32856 3.11489 7.76082 2.65764 7.73611 2.1059L7.73164 2.006Z" fill="#FF2E2E" fill-opacity="0.32"/>
<g opacity="0.32">
<path d="M6 6L10 10" stroke="#FF2E2E" stroke-width="1.4" stroke-linecap="round"/>
<path d="M10 6L6 10" stroke="#FF2E2E" stroke-width="1.4" stroke-linecap="round"/>
</g>
<path d="M9.04189 2.09115C9.13779 1.54726 9.65992 1.17727 10.1846 1.34963C10.387 1.41611 10.5862 1.49179 10.7817 1.57644C11.2885 1.79591 11.4333 2.41924 11.1439 2.88964L11.0515 3.03986C10.7842 3.47433 10.2169 3.6005 9.74002 3.41935C9.26317 3.23821 8.92268 2.7672 9.01126 2.26485L9.04189 2.09115Z" fill="#FF2E2E"/>
</svg>
