<svg width="16" height="16" viewBox="0 0 16 16" fill="none" xmlns="http://www.w3.org/2000/svg">
<path d="M8 2C8 1.44772 7.55003 0.99267 7.00337 1.0713C5.88157 1.23267 4.81045 1.66487 3.8855 2.33688C2.68957 3.20578 1.79941 4.43098 1.3426 5.83688C0.885798 7.24279 0.885798 8.75722 1.3426 10.1631C1.79941 11.569 2.68957 12.7942 3.8855 13.6631C5.08144 14.532 6.52175 15 8 15C9.47826 15 10.9186 14.532 12.1145 13.6631C13.3104 12.7942 14.2006 11.569 14.6574 10.1631C15.0107 9.07578 15.0907 7.92352 14.8976 6.80676C14.8034 6.26256 14.2316 5.97523 13.7063 6.1459L13.6112 6.1768C13.086 6.34746 12.8097 6.91279 12.8703 7.46173C12.9463 8.14931 12.8763 8.8491 12.6602 9.51418C12.3404 10.4983 11.7173 11.356 10.8801 11.9642C10.043 12.5724 9.03478 12.9 8 12.9C6.96522 12.9 5.95701 12.5724 5.11985 11.9642C4.2827 11.356 3.65959 10.4983 3.33982 9.51418C3.02006 8.53005 3.02006 7.46995 3.33982 6.48582C3.65959 5.50168 4.2827 4.64404 5.11985 4.03582C5.68561 3.62477 6.32949 3.3419 7.00691 3.20169C7.54773 3.08975 8 2.65228 8 2.1V2Z" fill="#FF2E2E" fill-opacity="0.32"/>
<g opacity="0.32">
<path d="M6 6L10 10" stroke="#FF2E2E" stroke-width="1.4" stroke-linecap="round"/>
<path d="M10 6L6 10" stroke="#FF2E2E" stroke-width="1.4" stroke-linecap="round"/>
</g>
<path d="M9.04189 2.09115C9.13779 1.54726 9.65993 1.17727 10.1846 1.34963C10.9121 1.5886 11.5976 1.94603 12.2127 2.40955C12.8278 2.87307 13.3604 3.43351 13.7906 4.06691C14.1009 4.52377 13.8892 5.12767 13.3928 5.36977L13.3029 5.41361C12.8065 5.65571 12.215 5.441 11.8774 5.00398C11.6111 4.65935 11.2991 4.35058 10.9489 4.08669C10.5987 3.82279 10.2159 3.60802 9.81121 3.44703C9.29804 3.24289 8.92862 2.73353 9.02452 2.18963L9.04189 2.09115Z" fill="#FF2E2E"/>
</svg>
