<svg width="16" height="16" viewBox="0 0 16 16" fill="none" xmlns="http://www.w3.org/2000/svg">
<path d="M8 2C8 1.44772 7.55004 0.992674 7.00338 1.07131C6.06376 1.20646 5.15784 1.53188 4.34251 2.03152C3.24179 2.70604 2.34904 3.67182 1.76295 4.82207C1.17687 5.97232 0.920291 7.26224 1.02158 8.54921C1.12287 9.83619 1.57808 11.0701 2.33688 12.1145C3.09569 13.1589 4.12853 13.9731 5.32122 14.4672C6.5139 14.9612 7.81998 15.1158 9.09504 14.9138C10.3701 14.7119 11.5645 14.1613 12.5461 13.3228C13.2733 12.7018 13.8627 11.9408 14.2816 11.0889C14.5253 10.5933 14.2316 10.0248 13.7063 9.8541L13.6112 9.8232C13.086 9.65254 12.5302 9.94748 12.2566 10.4272C11.9774 10.9168 11.6146 11.3567 11.1823 11.726C10.4951 12.3129 9.65907 12.6983 8.76653 12.8397C7.87398 12.981 6.95973 12.8728 6.12485 12.527C5.28997 12.1812 4.56698 11.6112 4.03582 10.8801C3.50465 10.1491 3.18601 9.28533 3.1151 8.38445C3.0442 7.48357 3.22381 6.58062 3.63407 5.77545C4.04433 4.97027 4.66925 4.29423 5.43976 3.82206C5.92453 3.52499 6.45505 3.31591 7.00691 3.20169C7.54774 3.08975 8 2.65228 8 2.1V2Z" fill="#FF9534" fill-opacity="0.24"/>
<path d="M9.04189 2.09115C9.13779 1.54726 9.65992 1.17727 10.1846 1.34963C10.738 1.5314 11.2677 1.78192 11.7611 2.09626C12.5364 2.59017 13.2068 3.23196 13.7341 3.98497C14.2613 4.73797 14.6351 5.58746 14.8341 6.48492C14.9607 7.05608 15.0149 7.63956 14.9965 8.22169C14.979 8.77369 14.4527 9.13779 13.9088 9.04189L13.8104 9.02453C13.2665 8.92862 12.9142 8.40727 12.8979 7.85523C12.8888 7.5478 12.8507 7.24117 12.7839 6.93945C12.6446 6.31122 12.3829 5.71658 12.0138 5.18948C11.6448 4.66237 11.1755 4.21312 10.6328 3.86738C10.3721 3.70133 10.097 3.56072 9.81121 3.44703C9.29804 3.24289 8.92862 2.73353 9.02452 2.18963L9.04189 2.09115Z" fill="#FF9534"/>
</svg>
