<svg width="16" height="16" viewBox="0 0 16 16" fill="none" xmlns="http://www.w3.org/2000/svg">
<path d="M8 2C8 1.44772 7.55005 0.992676 7.00339 1.07131C6.26626 1.17734 5.54861 1.40063 4.87824 1.73465C3.90852 2.21782 3.0642 2.91948 2.41173 3.7844C1.75927 4.64932 1.31647 5.65389 1.11821 6.71901C0.919944 7.78413 0.971622 8.88074 1.26918 9.9225C1.56673 10.9643 2.10203 11.9227 2.83295 12.7225C3.56386 13.5222 4.47043 14.1413 5.48128 14.5312C6.49214 14.921 7.57968 15.0709 8.6583 14.969C9.40396 14.8985 10.1313 14.7091 10.8132 14.4098C11.3189 14.1879 11.4607 13.5638 11.169 13.0949L11.1162 13.0099C10.8245 12.541 10.2094 12.4084 9.69102 12.599C9.296 12.7442 8.8826 12.8384 8.46081 12.8783C7.70578 12.9496 6.9445 12.8447 6.2369 12.5718C5.5293 12.2989 4.8947 11.8655 4.38306 11.3057C3.87142 10.7459 3.49671 10.075 3.28842 9.34575C3.08014 8.61652 3.04396 7.84889 3.18274 7.10331C3.32153 6.35772 3.63149 5.65453 4.08821 5.04908C4.54494 4.44364 5.13597 3.95247 5.81476 3.61426C6.19396 3.42532 6.59477 3.28699 7.00692 3.20169C7.54774 3.08976 8 2.65228 8 2.1V2Z" fill="#FF9534" fill-opacity="0.24"/>
<path d="M9.04189 2.09115C9.13779 1.54726 9.65994 1.17727 10.1846 1.34963C11.0865 1.6459 11.9222 2.12368 12.6383 2.75731C13.6052 3.61272 14.3167 4.71885 14.6941 5.9534C15.0716 7.18795 15.1003 8.50282 14.777 9.75266C14.5376 10.6784 14.112 11.5418 13.53 12.2918C13.1914 12.7281 12.5516 12.7133 12.168 12.316L12.0985 12.2441C11.7148 11.8468 11.7363 11.218 12.0476 10.7618C12.3652 10.2962 12.6016 9.77731 12.7439 9.22686C12.9702 8.35198 12.9501 7.43156 12.6859 6.56738C12.4217 5.7032 11.9236 4.92891 11.2468 4.33012C10.821 3.95338 10.3349 3.65535 9.81122 3.44703C9.29805 3.24289 8.92862 2.73353 9.02452 2.18963L9.04189 2.09115Z" fill="#FF9534"/>
</svg>
