<svg width="16" height="16" viewBox="0 0 16 16" fill="none" xmlns="http://www.w3.org/2000/svg">
<path d="M8 2C8 1.44772 7.55002 0.99266 7.00336 1.07129C5.55038 1.28027 4.19051 1.94258 3.125 2.97662C1.81879 4.24425 1.0577 5.97082 1.00315 7.79018C0.948587 9.60955 1.60485 11.3786 2.83276 12.7222C3.83439 13.8183 5.15214 14.5609 6.58998 14.8565C7.13095 14.9678 7.60739 14.5405 7.64048 13.9892L7.64647 13.8894C7.67956 13.3381 7.2543 12.8743 6.72116 12.7302C5.82875 12.4889 5.01572 11.998 4.38293 11.3056C3.52339 10.365 3.06401 9.12669 3.1022 7.85313C3.14039 6.57957 3.67315 5.37097 4.5875 4.48363C5.26064 3.83037 6.10163 3.38906 7.00689 3.20168C7.54771 3.08973 8 2.65228 8 2.1V2Z" fill="#FF9534" fill-opacity="0.24"/>
<path d="M9.04189 2.09115C9.13779 1.54726 9.65996 1.17726 10.1847 1.34963C11.4368 1.76096 12.5544 2.52003 13.4014 3.54745C14.4615 4.83354 15.028 6.4557 14.9989 8.12217C14.9698 9.78864 14.3471 11.39 13.2427 12.6383C12.3604 13.6356 11.217 14.3552 9.95123 14.7226C9.42084 14.8765 8.9119 14.4885 8.83504 13.9416L8.82112 13.8426C8.74426 13.2957 9.13125 12.7995 9.65123 12.6134C10.4235 12.337 11.1193 11.8691 11.6699 11.2468C12.443 10.373 12.8789 9.25204 12.8993 8.08552C12.9196 6.91899 12.5231 5.78348 11.781 4.88322C11.2525 4.24208 10.5734 3.75023 9.81123 3.44703C9.29807 3.24288 8.92862 2.73353 9.02452 2.18963L9.04189 2.09115Z" fill="#FF9534"/>
</svg>
