<svg width="16" height="16" viewBox="0 0 16 16" fill="none" xmlns="http://www.w3.org/2000/svg">
<path d="M8 2C8 1.44772 7.55003 0.992672 7.00337 1.0713C5.92943 1.22578 4.9013 1.62857 4.00308 2.25329C2.82993 3.06923 1.93461 4.22468 1.4374 5.56439C0.940182 6.9041 0.864902 8.36389 1.22167 9.74763C1.49483 10.8071 2.01123 11.7831 2.72436 12.6008C3.08735 13.0171 3.72524 12.9658 4.08556 12.5472L4.1508 12.4714C4.51111 12.0529 4.45376 11.4263 4.11691 10.9886C3.71553 10.4671 3.42118 9.86722 3.25517 9.22334C3.00543 8.25472 3.05813 7.23287 3.40618 6.29507C3.75423 5.35727 4.38095 4.54846 5.20216 3.9773C5.74804 3.59764 6.36246 3.33507 7.00691 3.20169C7.54773 3.08975 8 2.65228 8 2.1V2Z" fill="#22D066" fill-opacity="0.4"/>
<path d="M9.04189 2.09115C9.13779 1.54726 9.65993 1.17727 10.1846 1.34963C10.825 1.55999 11.4333 1.86229 11.99 2.24847C12.8214 2.82523 13.5178 3.57538 14.0314 4.44723C14.545 5.31908 14.8634 6.29191 14.9648 7.29868C15.0662 8.30546 14.9481 9.32224 14.6186 10.279C14.2892 11.2357 13.7563 12.1097 13.0565 12.8406C12.3568 13.5715 11.507 14.1421 10.5655 14.5129C9.62405 14.8838 8.61338 15.0461 7.60315 14.9887C6.92672 14.9503 6.26125 14.814 5.62713 14.5856C5.10754 14.3983 4.92389 13.7853 5.18317 13.2977L5.23012 13.2094C5.4894 12.7218 6.0941 12.5478 6.62417 12.7029C6.98076 12.8072 7.3491 12.8709 7.7222 12.8921C8.42937 12.9323 9.13684 12.8186 9.79585 12.559C10.4549 12.2995 11.0498 11.9001 11.5396 11.3884C12.0294 10.8768 12.4024 10.265 12.633 9.59528C12.8636 8.92557 12.9463 8.21382 12.8753 7.50908C12.8044 6.80434 12.5815 6.12336 12.222 5.51306C11.8625 4.90277 11.375 4.37766 10.793 3.97393C10.4859 3.76092 10.1564 3.58437 9.81121 3.44703C9.29804 3.24289 8.92862 2.73353 9.02452 2.18963L9.04189 2.09115Z" fill="#22D066"/>
</svg>
