<svg width="16" height="16" viewBox="0 0 16 16" fill="none" xmlns="http://www.w3.org/2000/svg">
<path d="M8 2C8 1.44772 7.55005 0.992676 7.00339 1.07131C6.28653 1.17442 5.58797 1.38846 4.93331 1.70751C3.97804 2.17307 3.1413 2.85001 2.48654 3.68702C1.83178 4.52403 1.37619 5.49913 1.15429 6.53838C1.00223 7.2506 0.962663 7.98014 1.03516 8.70074C1.09045 9.25025 1.64043 9.57742 2.17647 9.44446L2.27353 9.42039C2.80957 9.28743 3.12529 8.74315 3.10373 8.19129C3.08786 7.78501 3.12257 7.37703 3.20801 6.97687C3.36333 6.24939 3.68225 5.56682 4.14058 4.98092C4.59891 4.39501 5.18463 3.92115 5.85332 3.59526C6.22114 3.41599 6.60877 3.28409 7.00692 3.20169C7.54774 3.08976 8 2.65228 8 2.1V2Z" fill="#22D066" fill-opacity="0.32"/>
<path d="M9.04189 2.09115C9.13779 1.54726 9.65993 1.17727 10.1846 1.34963C10.9992 1.61723 11.7606 2.03316 12.4289 2.57925C13.3564 3.33704 14.074 4.32013 14.5129 5.43449C14.9519 6.54885 15.0976 7.7572 14.9361 8.94396C14.7746 10.1307 14.3112 11.2562 13.5904 12.2127C12.8697 13.1692 11.9155 13.9248 10.8192 14.4072C9.72296 14.8896 8.52126 15.0826 7.32908 14.9678C6.13689 14.853 4.9941 14.4342 4.01002 13.7515C3.30085 13.2596 2.69119 12.6424 2.20942 11.9331C1.8991 11.4762 2.11084 10.8723 2.60723 10.6302L2.69711 10.5864C3.1935 10.3443 3.78496 10.559 4.12264 10.996C4.42807 11.3913 4.79336 11.7391 5.20701 12.0261C5.89587 12.5039 6.69583 12.7971 7.53035 12.8774C8.36488 12.9578 9.20607 12.8227 9.97346 12.485C10.7408 12.1474 11.4088 11.6185 11.9133 10.9489C12.4179 10.2793 12.7422 9.4915 12.8552 8.66077C12.9683 7.83004 12.8663 6.9842 12.559 6.20414C12.2518 5.42409 11.7495 4.73593 11.1003 4.20548C10.7104 3.88694 10.2754 3.63168 9.81122 3.44703C9.29805 3.24289 8.92862 2.73353 9.02452 2.18963L9.04189 2.09115Z" fill="#22D066"/>
</svg>
