<svg width="16" height="16" viewBox="0 0 16 16" fill="none" xmlns="http://www.w3.org/2000/svg">
<path d="M8 2C8 1.44772 7.55003 0.992671 7.00337 1.0713C5.88821 1.23171 4.82304 1.65977 3.90171 2.32514C2.98038 2.99051 2.23909 3.86705 1.73616 4.8752C1.48962 5.3694 1.78008 5.93964 2.30435 6.1133L2.39928 6.14475C2.92355 6.31841 3.48104 6.02664 3.75736 5.54846C4.10114 4.95354 4.56814 4.43423 5.1312 4.0276C5.69426 3.62097 6.33407 3.34095 7.00691 3.20169C7.54773 3.08975 8 2.65228 8 2.1V2Z" fill="#22D066" fill-opacity="0.32"/>
<path d="M9.04189 2.09115C9.13779 1.54726 9.65994 1.17727 10.1846 1.34963C11.1739 1.6746 12.0824 2.21762 12.8406 2.94345C13.8407 3.90083 14.5344 5.13327 14.8341 6.48492C15.1337 7.83657 15.0258 9.24673 14.5241 10.5371C14.0223 11.8274 13.1491 12.94 12.015 13.7341C10.8809 14.5282 9.53684 14.9681 8.1527 14.9983C6.76856 15.0285 5.40655 14.6476 4.2389 13.9037C3.07125 13.1599 2.15041 12.0864 1.59282 10.8192C1.17008 9.85848 0.970535 8.81906 1.00351 7.77833C1.02099 7.22632 1.54726 6.86221 2.09115 6.95811L2.18963 6.97548C2.73353 7.07138 3.08581 7.59274 3.10214 8.14478C3.12069 8.77215 3.2597 9.3933 3.51497 9.97346C3.90529 10.8605 4.54988 11.6119 5.36723 12.1326C6.18459 12.6533 7.138 12.92 8.10689 12.8988C9.07579 12.8777 10.0167 12.5697 10.8105 12.0138C11.6044 11.458 12.2156 10.6792 12.5668 9.77595C12.9181 8.87271 12.9936 7.8856 12.7839 6.93945C12.5741 5.99329 12.0885 5.13058 11.3884 4.46042C10.9306 4.02211 10.3944 3.67904 9.81122 3.44703C9.29805 3.24289 8.92862 2.73353 9.02452 2.18963L9.04189 2.09115Z" fill="#22D066"/>
</svg>
