<svg width="16" height="16" viewBox="0 0 16 16" fill="none" xmlns="http://www.w3.org/2000/svg">
<path d="M8 2C8 1.44772 7.55004 0.992668 7.00338 1.0713C6.1583 1.19286 5.34241 1.46806 4.59635 1.88319C4.11375 2.15173 4.03134 2.78635 4.36585 3.2258L4.42642 3.30537C4.76093 3.74483 5.38577 3.81898 5.8839 3.58048C6.24152 3.40925 6.61864 3.28205 7.00691 3.20169C7.54773 3.08975 8 2.65228 8 2.1V2Z" fill="#22D066" fill-opacity="0.32"/>
<path d="M9.04189 2.09115C9.13779 1.54726 9.65995 1.17726 10.1846 1.34963C11.349 1.73212 12.3985 2.41577 13.2224 3.33883C14.2694 4.51188 14.891 6.00326 14.9869 7.57266C15.0829 9.14206 14.6478 10.6981 13.7515 11.99C12.8553 13.2819 11.5502 14.2344 10.0466 14.6941C8.54298 15.1538 6.92836 15.0939 5.46294 14.5241C3.99751 13.9542 2.76662 12.9075 1.9686 11.5528C1.17058 10.198 0.851909 8.61402 1.06394 7.05605C1.23078 5.8301 1.71858 4.67644 2.47 3.70823C2.80861 3.27193 3.4484 3.28668 3.83205 3.68396L3.90151 3.7559C4.28516 4.15318 4.26371 4.78204 3.95244 5.23825C3.52636 5.86271 3.24792 6.58123 3.14476 7.33923C2.99634 8.42981 3.2194 9.5386 3.77802 10.4869C4.33663 11.4353 5.19826 12.1679 6.22406 12.5668C7.24985 12.9657 8.38008 13.0077 9.43262 12.6859C10.4852 12.3641 11.3987 11.6973 12.0261 10.793C12.6534 9.88865 12.9581 8.79944 12.8909 7.70086C12.8237 6.60228 12.3886 5.55831 11.6557 4.73718C11.1463 4.16645 10.5137 3.72648 9.81123 3.44703C9.29806 3.24288 8.92862 2.73353 9.02452 2.18963L9.04189 2.09115Z" fill="#22D066"/>
</svg>
