<svg width="107" height="20" viewBox="0 0 107 20" fill="none" xmlns="http://www.w3.org/2000/svg">
<g opacity="0.4" clip-path="url(#clip0_1899_22170)">
<path d="M39.4547 5.71152C41.8672 5.71152 43.4937 6.7691 43.4937 8.83879V9.33031H41.325V8.8394C41.325 8.00485 40.6202 7.58788 39.4547 7.58788H39.2104C38.018 7.58788 37.3407 7.97516 37.3407 8.54122V8.6897C37.3407 9.37455 37.8823 9.56849 40.078 9.97091C42.5583 10.4618 43.6564 11.2667 43.6564 12.9497V13.0982C43.6564 14.7812 42.2737 15.9879 39.4956 15.9879H39.238C36.4323 15.9879 35.0093 14.7667 35.0093 12.6964V12.2346H37.1774V12.6964C37.1774 13.7539 37.9231 14.0964 39.2512 14.0964H39.4956C40.7558 14.0964 41.4607 13.7691 41.4607 13.1279V12.9946C41.4607 12.3539 40.8099 12.0709 38.628 11.6836C36.3374 11.2812 35.1444 10.5218 35.1444 8.8091V8.61516C35.1444 6.7691 36.6898 5.71152 39.2104 5.71152H39.4547ZM50.2849 15.8388V14.8406H50.0003C49.58 15.5406 48.8079 15.9873 47.7235 15.9873H47.493C45.8124 15.9873 44.8638 14.9897 44.8638 12.8152V8.19819H47.0324V12.3836C47.0324 13.4406 47.5338 14.0218 48.5365 14.0218H48.7671C49.7698 14.0218 50.2849 13.4406 50.2849 12.3836V8.19819H52.4536V15.8388H50.2849ZM56.1942 8.19819V9.13637H56.4788C56.9801 8.45152 57.7258 8.0491 58.7693 8.0491H59.0131C60.7753 8.0491 62.0626 9.13637 62.0626 11.5788V12.4576C62.0626 14.9 60.7753 15.9873 59.0131 15.9873H58.7693C57.6988 15.9873 56.9669 15.5715 56.4788 14.8703H56.1942V19.4127H54.0255V8.19819H56.1942ZM56.1942 11.5491V12.4727C56.1942 13.5897 56.8853 14.1255 57.9156 14.1255H58.1593C59.2029 14.1255 59.8939 13.5746 59.8939 12.4727V11.5491C59.8939 10.4618 59.2029 9.91092 58.1593 9.91092H57.9156C56.8853 9.91092 56.1942 10.4473 56.1942 11.5491ZM67.3211 8.0497C69.53 8.0497 71.1157 9.22607 71.1157 11.6091V12.577H65.2881V12.6667C65.2881 13.7685 65.9251 14.3194 67.0635 14.3194H67.3211C68.2697 14.3194 68.866 14.0218 69.0557 13.2921H71.0484C70.8587 14.8703 69.6657 15.9879 67.3211 15.9879H67.0635C64.854 15.9879 63.2413 14.8558 63.2413 12.4727V11.6091C63.2413 9.22607 64.8408 8.0497 67.0635 8.0497H67.3211ZM65.3013 11.0727H69.0557C68.9746 10.1939 68.3105 9.71758 67.3073 9.71758H67.0497C65.9792 9.71758 65.3829 10.1939 65.3013 11.0727ZM74.6947 8.19819V9.07698H74.9655C75.3726 8.40667 75.9958 8.0491 76.9445 8.0491C78.4353 8.0491 79.2212 8.86849 79.2212 11.0127V11.5194H77.2158V11.2067C77.2158 10.4176 76.8088 10.0006 75.955 10.0006C75.1012 10.0006 74.6947 10.4176 74.6947 11.2067V15.8382H72.526V8.19819H74.6947ZM88.1651 4.81819V15.8388H85.997V14.8703H85.6986C85.2105 15.5721 84.4924 15.9873 83.4218 15.9873H83.1642C81.4021 15.9873 80.128 14.9152 80.128 12.4576V11.5788C80.128 9.13637 81.4021 8.0497 83.1642 8.0497H83.4218C84.4653 8.0497 85.1972 8.45152 85.6986 9.13698H85.997V4.81758H88.1651V4.81819ZM82.2967 11.5497V12.4727C82.2967 13.56 82.9877 14.1261 84.018 14.1261H84.2618C85.3053 14.1261 85.997 13.5746 85.997 12.4727V11.5497C85.997 10.4624 85.3053 9.91092 84.2618 9.91092H84.018C82.9877 9.91092 82.2967 10.477 82.2967 11.5491V11.5497ZM93.5057 8.0491C95.959 8.0491 97.0704 9.07698 97.0704 10.8188V15.8382H94.9017V14.8703H94.5763C94.0341 15.6461 93.2614 15.9873 92.0827 15.9873C90.6189 15.9873 89.5616 15.2739 89.5616 13.6788C89.5616 12.1297 90.4965 11.2212 92.6652 11.2212H94.9017V10.8194C94.9017 10.06 94.4274 9.70243 93.492 9.70243H93.2482C92.3536 9.70243 91.8384 10.0449 91.8384 10.7897H89.7105C89.7105 9.06243 90.9168 8.0491 93.2482 8.0491H93.5057ZM91.7027 13.4406C91.7027 13.9467 92.0822 14.2594 92.9906 14.2594C93.8984 14.2594 94.9017 13.9018 94.9017 12.8152V12.5915H92.9636C92.0552 12.5915 91.7027 12.8746 91.7027 13.44V13.4406ZM102.559 8.0491C104.823 8.0491 106.449 9.24061 106.449 11.5788V12.4576C106.449 14.8255 104.823 15.9873 102.559 15.9873H102.302C100.025 15.9873 98.4123 14.8109 98.4123 12.4576V11.5788C98.4123 9.24061 100.025 8.0491 102.302 8.0491H102.559ZM100.58 11.5491V12.4727C100.58 13.4849 101.109 14.1255 102.302 14.1255H102.559C103.752 14.1255 104.281 13.4855 104.281 12.4727V11.5491C104.281 10.5364 103.752 9.91092 102.559 9.91092H102.302C101.109 9.91092 100.58 10.5364 100.58 11.5491Z" fill="white"/>
<path d="M20.941 4.38061L22.5736 11.8685C22.6153 12.0603 22.617 12.2601 22.5784 12.4527C22.5398 12.6454 22.462 12.8259 22.3508 12.9808C22.2396 13.1356 22.0979 13.2608 21.9363 13.3468C21.7748 13.4329 21.5976 13.4776 21.4181 13.4776H6.69732C6.0127 13.4776 5.34459 13.2466 4.78338 12.8157C4.22218 12.3848 3.79498 11.7749 3.55958 11.0685L3.4261 10.6673C3.40971 10.618 3.40436 10.5651 3.41052 10.513C3.41669 10.461 3.43417 10.4113 3.4615 10.3683C3.48882 10.3252 3.52519 10.29 3.56751 10.2657C3.60983 10.2414 3.65687 10.2286 3.70463 10.2285H13.3186C13.3733 10.2285 13.4256 10.2047 13.4643 10.1623C13.503 10.1199 13.5248 10.0624 13.5249 10.0024C13.525 9.77929 13.4851 9.55832 13.4074 9.35214C13.3297 9.14597 13.2159 8.95862 13.0723 8.80081C12.9287 8.643 12.7583 8.51781 12.5707 8.4324C12.3831 8.34699 12.182 8.30303 11.9789 8.30303H4.97319C4.28866 8.30295 3.62067 8.07185 3.05958 7.64098C2.49848 7.21011 2.07136 6.60027 1.83599 5.89394L1.7152 5.53334C1.69877 5.48402 1.69342 5.43108 1.69961 5.37901C1.70579 5.32694 1.72333 5.27728 1.75073 5.23425C1.77813 5.19123 1.81459 5.15612 1.85699 5.1319C1.8994 5.10768 1.9465 5.09507 1.99429 5.09515H11.1284C11.1832 5.09515 11.2356 5.07127 11.2743 5.02876C11.313 4.98626 11.3347 4.9286 11.3347 4.86849C11.3347 4.41794 11.1718 3.98585 10.8819 3.66726C10.592 3.34868 10.1988 3.1697 9.78874 3.1697H3.26229C2.57763 3.16953 1.90954 2.93825 1.34844 2.50715C0.787328 2.07605 0.360285 1.46595 0.125096 0.759396L0.0180958 0.438184C0.0016461 0.388824 -0.00369969 0.335827 0.002514 0.283707C0.00872769 0.231588 0.0263166 0.181892 0.0537819 0.138854C0.0812471 0.0958166 0.117774 0.0607135 0.160251 0.0365364C0.202727 0.0123593 0.249893 -0.00017491 0.29773 1.84375e-06H15.8872C17.0551 -2.78197e-05 18.1889 0.432176 19.1059 1.22691C20.0229 2.02165 20.6695 3.1326 20.9416 4.38061H20.941Z" fill="white"/>
<path d="M26.7204 6.6097L29.0093 17.4121C29.0498 17.6035 29.0505 17.8025 29.0113 17.9943C28.972 18.186 28.8939 18.3655 28.7827 18.5195C28.6715 18.6734 28.5302 18.7978 28.3691 18.8833C28.2081 18.9688 28.0316 19.0132 27.8527 19.0133H12.4982C11.7895 19.0134 11.0991 18.7658 10.5268 18.3064C9.95458 17.847 9.53008 17.1995 9.3147 16.4576L9.15916 15.9212C9.13791 15.8478 9.13271 15.7699 9.14399 15.6939C9.15528 15.6179 9.18272 15.5459 9.2241 15.4837C9.26548 15.4215 9.31962 15.3709 9.38213 15.3361C9.44464 15.3012 9.51375 15.283 9.58385 15.283H23.6042C23.7839 15.283 23.9612 15.2381 24.1229 15.1518C24.2846 15.0655 24.4263 14.94 24.5374 14.7848C24.6486 14.6296 24.7262 14.4487 24.7645 14.2558C24.8028 14.0629 24.8008 13.8629 24.7586 13.6709L22.7112 4.37455C22.6955 4.30258 22.6947 4.22763 22.7091 4.15532C22.7236 4.08301 22.7527 4.01523 22.7944 3.95707C22.836 3.89891 22.8892 3.85189 22.9497 3.81954C23.0103 3.7872 23.0768 3.77036 23.1442 3.77031H23.4663C24.2207 3.77033 24.9529 4.05088 25.5437 4.56631C26.1346 5.08175 26.5493 5.80173 26.7204 6.6091V6.6097Z" fill="white"/>
</g>
<defs>
<clipPath id="clip0_1899_22170">
<rect width="107" height="20" fill="white"/>
</clipPath>
</defs>
</svg>
