<svg width="114" height="15" viewBox="0 0 114 15" fill="none" xmlns="http://www.w3.org/2000/svg">
<g opacity="0.4" clip-path="url(#clip0_1899_22165)">
<path d="M0 10.2717V9.98641H3.38593V10.1902C3.35714 10.4701 3.39393 10.7527 3.49356 11.0169C3.5932 11.2811 3.75311 11.52 3.96135 11.716C4.1696 11.9119 4.42081 12.0597 4.69625 12.1484C4.97169 12.2371 5.26424 12.2644 5.55208 12.2283C5.91335 12.2622 6.27753 12.205 6.60921 12.0621C6.94088 11.9193 7.22876 11.6957 7.44484 11.413C7.57382 11.1816 7.63902 10.9219 7.63412 10.659C7.64657 10.424 7.59585 10.1899 7.4869 9.97962C7.27677 9.71854 7.01327 9.50232 6.71291 9.34451C6.41254 9.18669 6.08179 9.09069 5.74136 9.0625L3.9117 8.71603C3.25061 8.6374 2.61561 8.41819 2.0521 8.0741C1.48858 7.73 1.01048 7.26951 0.651949 6.72554C0.277183 6.0718 0.0884743 5.33327 0.105153 4.5856C0.0844424 3.78622 0.290553 2.99666 0.701021 2.30299C1.55627 0.855978 3.30181 0 5.60817 0C9.0642 0 11.2163 1.69158 11.2163 4.70788V4.99321H7.78133V4.7894C7.78133 3.48505 7.01021 2.79212 5.60817 2.79212C5.2494 2.75275 4.88632 2.80766 4.55699 2.95109C4.22767 3.09453 3.94424 3.3212 3.73644 3.60734C3.58428 3.83109 3.5038 4.09345 3.5051 4.36141C3.49637 4.58086 3.54713 4.79869 3.65232 4.99321C3.86388 5.25762 4.13188 5.47464 4.43799 5.62941C4.74409 5.78417 5.08108 5.87305 5.4259 5.88995L7.23453 6.23641C7.90474 6.32294 8.54739 6.55013 9.11766 6.90212C9.68792 7.25412 10.1721 7.72246 10.5363 8.27446C10.9065 8.93653 11.088 9.6822 11.0621 10.4348C11.0856 11.2286 10.8973 12.0148 10.5153 12.7174C9.63203 14.1644 7.88648 15 5.55208 15C2.10306 15 0 13.288 0 10.2717ZM20.8413 7.07201H15.7519V11.0666C15.7519 11.8614 16.1095 12.2283 16.6352 12.2283C17.2872 12.2283 17.5606 11.8614 17.5606 10.9239V9.45652H20.8413V11.0054C20.8413 13.4307 19.1799 14.9389 16.5932 14.9389C13.8802 14.9389 12.4922 13.5802 12.4922 11.1277V3.0163L15.7519 1.61005V4.52446H20.8413V7.07201ZM31.8334 11.4946C31.4758 13.5326 29.541 14.9389 26.9262 14.9389C24.9073 14.9389 23.4211 14.2595 22.4887 12.9823C21.8147 11.9855 21.4767 10.8105 21.5213 9.61956C21.4928 8.41409 21.845 7.22895 22.5308 6.22283C23.0174 5.58107 23.6594 5.06511 24.4002 4.72037C25.141 4.37563 25.9579 4.2127 26.779 4.24592C30.0177 4.24592 31.8263 6.22283 31.8263 9.60598V10.4212H24.6409C24.6927 10.904 24.8582 11.3688 25.1246 11.7799C25.3218 12.0376 25.5838 12.2422 25.8857 12.3742C26.1875 12.5062 26.5191 12.5612 26.8491 12.534C27.2141 12.5664 27.5801 12.4825 27.8914 12.2949C28.2027 12.1072 28.4423 11.8262 28.5736 11.4946H31.8334ZM25.1036 7.37772C24.8764 7.70008 24.7322 8.07046 24.6829 8.45788H28.6998C28.7281 8.20403 28.6977 7.94726 28.6108 7.70623C28.5239 7.4652 28.3826 7.24596 28.1974 7.06444C28.0121 6.88293 27.7874 6.7437 27.5396 6.65687C27.2918 6.57005 27.0272 6.53781 26.765 6.5625C26.4391 6.54874 26.1151 6.61652 25.8241 6.7593C25.5331 6.90208 25.285 7.11505 25.1036 7.37772V7.37772ZM33.4808 13.2269C32.772 12.1375 32.4201 10.8657 32.4713 9.5788C32.4201 8.2919 32.772 7.02011 33.4808 5.93071C33.8608 5.39224 34.3731 4.95385 34.9715 4.655C35.57 4.35615 36.2357 4.20624 36.9087 4.21875C38.7174 4.21875 39.8951 5.29891 40.505 7.19429H40.9256L40.1264 4.52446H43.4072V14.6332H40.1264L40.9256 11.9633H40.505C39.8951 13.8587 38.7174 14.9457 36.9087 14.9457C36.2343 14.9618 35.5665 14.8127 34.9673 14.5123C34.3681 14.2118 33.8568 13.7697 33.4808 13.2269V13.2269ZM39.6638 11.3723C40.0192 10.8394 40.1955 10.2128 40.1685 9.5788C40.1892 8.9455 40.0134 8.32073 39.6638 7.78533C39.4683 7.5283 39.2132 7.31938 38.9192 7.1754C38.6251 7.03142 38.3003 6.9564 37.9708 6.9564C37.6413 6.9564 37.3165 7.03142 37.0224 7.1754C36.7283 7.31938 36.4733 7.5283 36.2778 7.78533C35.9208 8.31845 35.7376 8.94339 35.7521 9.5788C35.725 10.2128 35.9014 10.8394 36.2568 11.3723C36.4523 11.6293 36.7073 11.8382 37.0014 11.9822C37.2954 12.1262 37.6203 12.2012 37.9498 12.2012C38.2792 12.2012 38.6041 12.1262 38.8982 11.9822C39.1922 11.8382 39.4473 11.6293 39.6427 11.3723H39.6638ZM55.8153 4.52446L51.6933 9.08967L55.7101 14.6332H52.0929L49.5902 11.0258L48.4125 12.3098V14.6332H45.1528V0.366848H48.4125V7.72418L47.6133 9.1712H48.0339L52.2821 4.52446H55.8153Z" fill="white"/>
<path d="M57.2452 14.6332L55.1421 4.52446H58.3598L59.6847 11.7595V12.8601H60.1053V11.7595L61.283 4.52446H65.8957L67.0104 11.7595V12.8601H67.431V11.7595L68.791 4.52446H72.0086L69.9056 14.6332H64.9213L63.7927 7.47283V6.31794H63.3721L63.323 7.47283L62.2294 14.6332H57.2452ZM73.2915 13.2269C72.5827 12.1375 72.2308 10.8657 72.282 9.57881C72.2308 8.29191 72.5827 7.02011 73.2915 5.93071C73.6716 5.39225 74.1839 4.95385 74.7823 4.65501C75.3807 4.35616 76.0464 4.20624 76.7195 4.21875C78.5281 4.21875 79.7059 5.29892 80.3157 7.1943H80.7364L79.9162 4.52446H83.1969V14.6332H79.9162L80.7153 11.9633H80.2947C79.7059 13.8587 78.5141 14.9457 76.7195 14.9457C76.045 14.9618 75.3773 14.8127 74.7781 14.5123C74.1789 14.2118 73.6676 13.7697 73.2915 13.2269V13.2269ZM79.4745 11.3723C79.8299 10.8394 80.0063 10.2128 79.9793 9.57881C80 8.9455 79.8242 8.32074 79.4745 7.78533C79.2791 7.52831 79.024 7.31939 78.7299 7.1754C78.4359 7.03142 78.111 6.95641 77.7816 6.95641C77.4521 6.95641 77.1272 7.03142 76.8332 7.1754C76.5391 7.31939 76.2841 7.52831 76.0886 7.78533C75.7389 8.32074 75.5631 8.9455 75.5839 9.57881C75.5568 10.2128 75.7332 10.8394 76.0886 11.3723C76.2841 11.6293 76.5391 11.8382 76.8332 11.9822C77.1272 12.1262 77.4521 12.2012 77.7816 12.2012C78.111 12.2012 78.4359 12.1262 78.7299 11.9822C79.024 11.8382 79.2791 11.6293 79.4745 11.3723V11.3723ZM84.9635 14.6332V0.366852H88.2233V14.6332H84.9635ZM89.9408 14.6332V0.366852H93.2356V14.6332H89.9408ZM104.655 11.4946C104.298 13.5326 102.363 14.9389 99.748 14.9389C97.7291 14.9389 96.2429 14.2595 95.3106 12.9823C94.6365 11.9855 94.2985 10.8105 94.3432 9.61957C94.3147 8.4141 94.6669 7.22895 95.3526 6.22283C95.8393 5.58107 96.4812 5.06511 97.222 4.72037C97.9628 4.37564 98.7798 4.21271 99.6008 4.24593C102.84 4.24593 104.648 6.22283 104.648 9.60598V10.4212H97.4417C97.4935 10.904 97.659 11.3688 97.9254 11.7799C98.1226 12.0377 98.3846 12.2422 98.6865 12.3742C98.9883 12.5062 99.3199 12.5612 99.6499 12.534C100.015 12.5664 100.381 12.4825 100.692 12.2949C101.004 12.1072 101.243 11.8262 101.374 11.4946H104.655ZM97.9254 7.37772C97.6982 7.70009 97.554 8.07046 97.5048 8.45788H101.522C101.55 8.20404 101.52 7.94727 101.433 7.70624C101.346 7.4652 101.204 7.24596 101.019 7.06445C100.834 6.88293 100.609 6.7437 100.361 6.65688C100.114 6.57005 99.849 6.53781 99.5868 6.5625C99.261 6.54875 98.9369 6.61652 98.646 6.7593C98.355 6.90208 98.1068 7.11506 97.9254 7.37772V7.37772ZM114 7.07202H108.91V11.0666C108.91 11.8614 109.268 12.2283 109.794 12.2283C110.446 12.2283 110.719 11.8614 110.719 10.9239V9.45653H114V11.0054C114 13.4307 112.338 14.9389 109.752 14.9389C107.039 14.9389 105.651 13.5802 105.651 11.1277V3.01631L108.91 1.61006V4.52446H114V7.07202Z" fill="white"/>
</g>
<defs>
<clipPath id="clip0_1899_22165">
<rect width="114" height="15" fill="white"/>
</clipPath>
</defs>
</svg>
