<svg width="104" height="20" viewBox="0 0 104 20" fill="none" xmlns="http://www.w3.org/2000/svg">
<g opacity="0.4">
<path fill-rule="evenodd" clip-rule="evenodd" d="M33.7751 16.8471L35.7782 7.71143L37.6194 16.8471H40.1682L45.8332 7.59286L43.8104 16.8471H46.9457L50.0013 2.85714H45.3477L39.7229 12.2886L37.7615 2.85714H33.7963L30.7606 16.8471H33.7751ZM54.7355 17.1429C58.0935 17.1429 60.4203 14.4393 60.4203 11.3214C60.4203 8.73714 58.5996 6.74429 55.7469 6.74429C52.6921 6.74429 50.0621 9.05286 50.0621 12.5457C50.0621 15.15 51.9436 17.1429 54.7348 17.1429H54.7355ZM53.0964 12.4071C53.0964 13.67 53.8859 14.4 54.9376 14.4C55.9901 14.4 57.3655 13.4929 57.3655 11.46C57.3655 10.1579 56.617 9.50643 55.5243 9.48714C54.0478 9.48714 53.0964 10.9079 53.0964 12.4071ZM66.2678 16.8471L72.0537 7.04H68.6349L65.3574 13.1571L64.5884 7.04H61.4113L63.191 16.8471H66.267H66.2678ZM80.7736 14.6171C80.1261 15.9 78.7104 17.1429 76.2415 17.1429C73.7126 17.1429 71.5886 15.2879 71.5886 12.585C71.5886 8.97357 74.2589 6.74429 76.93 6.74429C79.7621 6.74429 81.462 8.52 81.462 10.9471C81.462 11.4007 81.3807 12.1114 81.1786 12.7036L74.401 12.7229C74.401 13.7686 75.0887 14.6764 76.5052 14.6764C77.3745 14.6764 78.063 14.2029 78.3867 13.5714L80.7736 14.6171ZM78.6291 10.7693H74.6837C75.0074 9.80286 75.6959 9.13143 76.9095 9.13143C78.2043 9.13143 78.6291 10 78.6291 10.6314V10.7693ZM86.4592 12.3679L85.4675 16.8464H82.3922L84.1726 8.67786C84.3345 7.88857 84.355 7.35643 84.355 7.04H87.349V7.09714C87.3468 7.26286 87.3366 7.74 87.2685 8.10571C87.9159 7.23786 88.8263 6.96143 89.7769 6.96143C90.242 6.96143 90.647 7.06 90.8294 7.13857L90.1819 10.0593C89.7769 9.94071 89.514 9.88143 88.9676 9.88143C87.9357 9.88143 86.8839 10.4536 86.4592 12.3671V12.3679ZM13.6958 6.405C13.498 6.49357 11.7879 7.255 9.89611 8.08857C8.00361 8.93143 6.43628 9.62714 6.41211 9.62714C6.38868 9.62714 6.54687 9.45714 6.76879 9.24643C7.1489 8.88214 7.8293 8.25071 13.0234 3.52214C13.7781 2.83688 14.53 2.14877 15.2792 1.45786C15.4294 1.27143 16.8941 0 16.9491 0C16.9894 0 17.0208 0.785714 17.0208 1.82143V3.64357L15.5326 4.93929C14.7167 5.66 13.8935 6.31571 13.6958 6.405ZM7.94062 7.085L5.5098 8.13714L4.64265 8.51286C3.65056 8.94073 2.65986 9.37168 1.67059 9.80571C0.90231 10.1457 0.213127 10.4293 0.134761 10.4371C0.00732395 10.445 0 10.3071 0 8.68V6.90643L0.197747 6.81786C0.427718 6.71214 3.42761 5.41714 6.84789 3.95143C7.7231 3.57286 8.87223 3.08 9.86975 2.65357L11.2811 2.04857L11.711 1.86429C14.8383 0.524286 15.3048 0.325 15.3275 0.347857C15.3429 0.364286 14.9709 0.712143 14.5036 1.13357C14.0451 1.555 13.0388 2.46929 12.2713 3.15786C11.5118 3.85429 10.2206 5.02 9.41346 5.74857L7.94135 7.08429L7.94062 7.085ZM19.21 10.9064C18.5186 11.5314 17.8104 12.1736 17.182 12.7836C17.182 12.7836 11.7132 18.0029 11.0863 18.5321C10.7435 18.8221 10.3172 19.2307 9.99279 19.5436C9.724 19.8014 9.52406 19.9936 9.49476 19.9993C9.39076 20.0121 9.3849 19.7979 9.3849 17.2643L9.34096 15.675L9.50282 15.5364C9.55042 15.4957 9.74744 15.3071 10.0609 15.0079C10.9984 14.115 12.9685 12.235 15.0448 10.3543C15.5619 9.88643 16.2606 9.27643 16.9403 8.68286C17.6617 8.05286 18.3633 7.44071 18.805 7.035C21.5368 4.525 21.873 4.25643 21.892 4.29429C21.9052 4.32 21.9718 4.68714 21.9718 5.45571C21.9718 6.225 21.9718 6.95357 21.8927 8.33C21.2717 9.03857 20.2617 9.95357 19.21 10.9057V10.9064ZM7.28366 13.7964C9.24062 12.9643 12.5481 11.5379 12.5481 11.5379L20.2346 4.58571C20.2881 4.53714 20.2309 4.45214 20.1643 4.48143L18.7097 5.11714C15.6286 6.46429 10.2455 8.81643 6.58642 10.4121L4.59211 11.2786V13.0921C4.59211 14.08 4.61628 14.8979 4.64778 14.89C4.68732 14.89 5.86721 14.3957 7.28439 13.7971L7.28366 13.7964Z" fill="white"/>
</g>
</svg>
