<svg width="35" height="40" viewBox="0 0 35 40" fill="none" xmlns="http://www.w3.org/2000/svg">
<path d="M35 18.0155C35 29.4223 27.7914 36.5742 17.8081 39.8989C17.6087 39.9653 17.3913 39.9653 17.1919 39.8989C7.20857 36.5742 0 29.4223 0 18.0155V5.89551C0 5.4519 0.292245 5.06132 0.717822 4.93614L17.2178 0.0829969C17.402 0.0288132 17.598 0.0288133 17.7822 0.0829969L34.2822 4.93614C34.7078 5.06132 35 5.4519 35 5.89551V18.0155Z" fill="url(#paint0_linear_1639_11198)"/>
<path d="M34 18.0155C34 23.4922 32.2754 27.9019 29.3822 31.3446C26.4798 34.7984 22.3581 37.3284 17.5 38.9475C12.6419 37.3284 8.52022 34.7984 5.61777 31.3446C2.72463 27.9019 1 23.4922 1 18.0155L1 5.89551L17.5 1.04236L34 5.89551V18.0155Z" stroke="white" stroke-opacity="0.08" stroke-width="2"/>
<defs>
<linearGradient id="paint0_linear_1639_11198" x1="-7.81634e-07" y1="5.14728" x2="35.982" y2="38.9549" gradientUnits="userSpaceOnUse">
<stop stop-color="#00FF60"/>
<stop offset="0.497175" stop-color="#03D954" stop-opacity="0.48"/>
</linearGradient>
</defs>
</svg>
