<svg width="40" height="40" viewBox="0 0 40 40" fill="none" xmlns="http://www.w3.org/2000/svg">
<mask id="path-1-inside-1_1639_11239" fill="white">
<path d="M38 20C39.1046 20 40.0104 20.8977 39.9001 21.9967C39.5371 25.6152 38.1923 29.0801 35.9937 32.0084C33.3933 35.4718 29.7389 37.9976 25.5798 39.2059C21.4208 40.4142 16.9819 40.2398 12.9305 38.7089C8.87909 37.178 5.43411 34.3733 3.11344 30.7165C0.792775 27.0597 -0.278153 22.7485 0.0616535 18.4308C0.40146 14.1132 2.13364 10.0225 4.99778 6.77376C7.86192 3.52503 11.7032 1.29381 15.9443 0.415543C19.53 -0.327034 23.2377 -0.0685032 26.6664 1.14369C27.7078 1.51187 28.1343 2.71367 27.664 3.71311C27.1937 4.71256 26.0046 5.12837 24.9543 4.78635C22.3183 3.92791 19.4925 3.76562 16.7554 4.33243C13.3626 5.03505 10.2895 6.82002 7.99822 9.41901C5.70691 12.018 4.32117 15.2905 4.04932 18.7447C3.77748 22.1988 4.63422 25.6478 6.49075 28.5732C8.34728 31.4987 11.1033 33.7424 14.3444 34.9671C17.5855 36.1918 21.1366 36.3313 24.4639 35.3647C27.7911 34.3981 30.7146 32.3775 32.795 29.6067C34.4732 27.3715 35.5295 24.7455 35.8752 21.9949C36.0129 20.8989 36.8954 20 38 20Z"/>
</mask>
<path d="M38 20C39.1046 20 40.0104 20.8977 39.9001 21.9967C39.5371 25.6152 38.1923 29.0801 35.9937 32.0084C33.3933 35.4718 29.7389 37.9976 25.5798 39.2059C21.4208 40.4142 16.9819 40.2398 12.9305 38.7089C8.87909 37.178 5.43411 34.3733 3.11344 30.7165C0.792775 27.0597 -0.278153 22.7485 0.0616535 18.4308C0.40146 14.1132 2.13364 10.0225 4.99778 6.77376C7.86192 3.52503 11.7032 1.29381 15.9443 0.415543C19.53 -0.327034 23.2377 -0.0685032 26.6664 1.14369C27.7078 1.51187 28.1343 2.71367 27.664 3.71311C27.1937 4.71256 26.0046 5.12837 24.9543 4.78635C22.3183 3.92791 19.4925 3.76562 16.7554 4.33243C13.3626 5.03505 10.2895 6.82002 7.99822 9.41901C5.70691 12.018 4.32117 15.2905 4.04932 18.7447C3.77748 22.1988 4.63422 25.6478 6.49075 28.5732C8.34728 31.4987 11.1033 33.7424 14.3444 34.9671C17.5855 36.1918 21.1366 36.3313 24.4639 35.3647C27.7911 34.3981 30.7146 32.3775 32.795 29.6067C34.4732 27.3715 35.5295 24.7455 35.8752 21.9949C36.0129 20.8989 36.8954 20 38 20Z" fill="url(#paint0_linear_1639_11239)" stroke="white" stroke-opacity="0.08" stroke-width="8" mask="url(#path-1-inside-1_1639_11239)"/>
<path fill-rule="evenodd" clip-rule="evenodd" d="M33.3888 11.2396C32.8472 10.4119 32.2289 9.63435 31.5409 8.91779C31.4469 8.81994 31.3623 8.71522 31.2875 8.60522C30.7533 7.81956 30.718 6.76407 31.3278 6.01108C32.0229 5.15267 33.2905 5.01365 34.0753 5.791C34.1938 5.90838 34.3107 6.02715 34.4261 6.1473C35.2217 6.97584 35.9427 7.8696 36.5821 8.81786C36.7113 9.00947 36.8372 9.20331 36.9597 9.39928C37.5659 10.3691 38.0891 11.3913 38.5224 12.4551C38.5853 12.6094 38.6462 12.7645 38.7052 12.9205C39.0962 13.9536 38.4536 15.0551 37.3867 15.341C36.4508 15.5918 35.5009 15.1302 35.0004 14.3226C34.9304 14.2095 34.8691 14.0897 34.8179 13.964C34.4432 13.044 33.9844 12.1629 33.4485 11.3315C33.4287 11.3008 33.4088 11.2701 33.3888 11.2396Z" fill="white"/>
<path d="M20.8141 26.192C20.0354 26.192 19.4007 26.0427 18.9101 25.744C18.4194 25.4453 18.0621 25.04 17.8381 24.528C17.6141 24.016 17.5021 23.44 17.5021 22.8H18.9421C18.9421 23.2907 19.0114 23.7013 19.1501 24.032C19.2994 24.3627 19.5181 24.608 19.8061 24.768C20.0941 24.928 20.4567 25.008 20.8941 25.008C21.5447 25.008 22.0407 24.8427 22.3821 24.512C22.7341 24.1707 22.9794 23.68 23.1181 23.04C23.2567 22.4 23.3314 21.6373 23.3421 20.752C23.2034 20.9867 22.9954 21.2107 22.7181 21.424C22.4407 21.6267 22.1154 21.792 21.7421 21.92C21.3794 22.0373 20.9901 22.096 20.5741 22.096C19.7847 22.096 19.1341 21.9413 18.6221 21.632C18.1101 21.312 17.7261 20.88 17.4701 20.336C17.2247 19.792 17.1021 19.184 17.1021 18.512C17.1021 17.7653 17.2621 17.12 17.5821 16.576C17.9021 16.0213 18.3394 15.5947 18.8941 15.296C19.4487 14.9867 20.0727 14.832 20.7661 14.832C21.3954 14.832 21.9607 14.9227 22.4621 15.104C22.9634 15.2853 23.3847 15.5787 23.7261 15.984C24.0781 16.3893 24.3447 16.9387 24.5261 17.632C24.7074 18.3147 24.7981 19.168 24.7981 20.192C24.7981 21.312 24.7074 22.256 24.5261 23.024C24.3554 23.792 24.0994 24.4107 23.7581 24.88C23.4167 25.3387 22.9954 25.6747 22.4941 25.888C22.0034 26.0907 21.4434 26.192 20.8141 26.192ZM20.8621 20.928C21.3847 20.928 21.8167 20.816 22.1581 20.592C22.5101 20.368 22.7714 20.0693 22.9421 19.696C23.1127 19.3227 23.1981 18.9067 23.1981 18.448C23.1981 18 23.1127 17.5947 22.9421 17.232C22.7821 16.8587 22.5261 16.5653 22.1741 16.352C21.8327 16.128 21.4007 16.016 20.8781 16.016C20.3554 16.016 19.9234 16.1333 19.5821 16.368C19.2407 16.592 18.9847 16.8907 18.8141 17.264C18.6541 17.6373 18.5741 18.0587 18.5741 18.528C18.5741 18.9653 18.6541 19.3653 18.8141 19.728C18.9741 20.0907 19.2194 20.384 19.5501 20.608C19.8914 20.8213 20.3287 20.928 20.8621 20.928Z" fill="white"/>
<defs>
<linearGradient id="paint0_linear_1639_11239" x1="-8.93295e-07" y1="5.14728" x2="35.9607" y2="43.7617" gradientUnits="userSpaceOnUse">
<stop stop-color="#00FF60"/>
<stop offset="0.497175" stop-color="#03D954" stop-opacity="0.48"/>
</linearGradient>
</defs>
</svg>
