<svg width="24" height="24" fill="none" xmlns="http://www.w3.org/2000/svg">
    <path d="M20.348 4.544a.062.062 0 0 0-.03-.028A19.8 19.8 0 0 0 15.431 3a.074.074 0 0 0-.079.037c-.223.406-.426.823-.608 1.25a18.28 18.28 0 0 0-5.487 0 12.634 12.634 0 0 0-.617-1.25.077.077 0 0 0-.079-.037c-1.687.291-3.33.8-4.885 1.515a.07.07 0 0 0-.032.027C.533 9.19-.32 13.723.099 18.198a.082.082 0 0 0 .031.056 19.905 19.905 0 0 0 5.993 3.028.078.078 0 0 0 .084-.027c.463-.63.873-1.297 1.226-1.994a.076.076 0 0 0-.041-.105 13.107 13.107 0 0 1-1.872-.892.077.077 0 0 1-.008-.128c.126-.094.252-.192.372-.291a.075.075 0 0 1 .078-.01c3.927 1.792 8.18 1.792 12.06 0a.075.075 0 0 1 .08.009c.12.099.245.198.372.292a.076.076 0 0 1 .03.066.078.078 0 0 1-.037.062c-.598.349-1.224.647-1.873.89a.078.078 0 0 0-.044.045.077.077 0 0 0 .004.062c.359.694.768 1.36 1.225 1.993a.076.076 0 0 0 .084.028 19.838 19.838 0 0 0 6.002-3.028.077.077 0 0 0 .032-.055c.5-5.175-.838-9.67-3.549-13.655ZM8.02 15.473c-1.182 0-2.157-1.086-2.157-2.418 0-1.333.956-2.418 2.157-2.418 1.21 0 2.176 1.095 2.157 2.418 0 1.332-.956 2.418-2.157 2.418Zm7.975 0c-1.183 0-2.157-1.086-2.157-2.418 0-1.333.955-2.418 2.157-2.418 1.21 0 2.176 1.095 2.157 2.418 0 1.332-.946 2.418-2.157 2.418Z" fill="currentColor"/>
</svg>
