<svg width="24" height="24" viewBox="0 0 24 24" fill="none" xmlns="http://www.w3.org/2000/svg">
<path d="M11.9994 2V3.42862H10.5708V2H11.9994Z" fill="currentColor"/>
<path d="M13.4291 2V3.42862H12.0005V2H13.4291Z" fill="currentColor"/>
<path d="M11.9994 6.28564V7.71427H10.5708V6.28564H11.9994Z" fill="currentColor"/>
<path d="M10.5732 3.43018V4.8588H9.14453V3.43018H10.5732Z" fill="currentColor"/>
<path d="M13.4296 7.71533V9.14396H12.001V7.71533H13.4296Z" fill="currentColor"/>
<path d="M13.4296 4.85547V6.28409H12.001V4.85547H13.4296Z" fill="currentColor"/>
<path d="M14.8588 3.43018V4.8588H13.4302V3.43018H14.8588Z" fill="currentColor"/>
<path d="M11.9994 10.5708V11.9994H10.5708V10.5708H11.9994Z" fill="currentColor"/>
<path d="M13.4296 9.14258V10.5712H12.001V9.14258H13.4296Z" fill="currentColor"/>
<path d="M10.5727 6.28564V7.71427H9.14404V6.28564H10.5727Z" fill="currentColor"/>
<path d="M11.9999 4.85547V6.28409H10.5713V4.85547H11.9999Z" fill="currentColor"/>
<path d="M14.8583 6.28516V7.71378H13.4297V6.28516H14.8583Z" fill="currentColor"/>
<path d="M10.5727 7.71533V9.14396H9.14404V7.71533H10.5727Z" fill="currentColor"/>
<path d="M16.2841 12.001V13.4296H14.8555V12.001H16.2841Z" fill="currentColor"/>
<path d="M13.4291 12.001V13.4296H12.0005V12.001H13.4291Z" fill="currentColor"/>
<path d="M13.4291 6.28564V7.71427H12.0005V6.28564H13.4291Z" fill="currentColor"/>
<path d="M10.5727 9.14258V10.5712H9.14404V9.14258H10.5727Z" fill="currentColor"/>
<path d="M11.9999 7.71533V9.14396H10.5713V7.71533H11.9999Z" fill="currentColor"/>
<path d="M14.8583 7.71533V9.14396H13.4297V7.71533H14.8583Z" fill="currentColor"/>
<path d="M14.8583 9.14258V10.5712H13.4297V9.14258H14.8583Z" fill="currentColor"/>
<path d="M9.14347 13.4292V14.8578H7.71484V13.4292H9.14347Z" fill="currentColor"/>
<path d="M11.9999 12.001V13.4296H10.5713V12.001H11.9999Z" fill="currentColor"/>
<path d="M10.5732 10.5708V11.9994H9.14453V10.5708H10.5732Z" fill="currentColor"/>
<path d="M9.14347 10.5708V11.9994H7.71484V10.5708H9.14347Z" fill="currentColor"/>
<path d="M11.9999 9.14258V10.5712H10.5713V9.14258H11.9999Z" fill="currentColor"/>
<path d="M10.5732 12.001V13.4296H9.14453V12.001H10.5732Z" fill="currentColor"/>
<path d="M3.42911 12.001V13.4296H2.00049V12.001H3.42911Z" fill="currentColor"/>
<path d="M17.7152 13.4292V14.8578H16.2866V13.4292H17.7152Z" fill="currentColor"/>
<path d="M13.4291 10.5708V11.9994H12.0005V10.5708H13.4291Z" fill="currentColor"/>
<path d="M14.8588 10.5708V11.9994H13.4302V10.5708H14.8588Z" fill="currentColor"/>
<path d="M7.71427 14.8564V16.2851H6.28564V14.8564H7.71427Z" fill="currentColor"/>
<path d="M7.71476 12.001V13.4296H6.28613V12.001H7.71476Z" fill="currentColor"/>
<path d="M9.14298 12.001V13.4296H7.71436V12.001H9.14298Z" fill="currentColor"/>
<path d="M19.1435 14.856V16.2846H17.7148V14.856H19.1435Z" fill="currentColor"/>
<path d="M21.9999 12.001V13.4296H20.5713V12.001H21.9999Z" fill="currentColor"/>
<path d="M14.8588 12.001V13.4296H13.4302V12.001H14.8588Z" fill="currentColor"/>
<path d="M16.2841 10.5708V11.9994H14.8555V10.5708H16.2841Z" fill="currentColor"/>
<path d="M16.2841 16.2861V17.7148H14.8555V16.2861H16.2841Z" fill="currentColor"/>
<path d="M21.9999 13.4292V14.8578H20.5713V13.4292H21.9999Z" fill="currentColor"/>
<path d="M14.8588 13.4292V14.8578H13.4302V13.4292H14.8588Z" fill="currentColor"/>
<path d="M16.2841 13.4302V14.8588H14.8555V13.4302H16.2841Z" fill="currentColor"/>
<path d="M10.5732 13.4292V14.8578H9.14453V13.4292H10.5732Z" fill="currentColor"/>
<path d="M7.71427 13.4292V14.8578H6.28564V13.4292H7.71427Z" fill="currentColor"/>
<path d="M4.85831 16.2871V17.7157H3.42969V16.2871H4.85831Z" fill="currentColor"/>
<path d="M6.28409 14.8564V16.2851H4.85547V14.8564H6.28409Z" fill="currentColor"/>
<path d="M3.42911 13.4292V14.8578H2.00049V13.4292H3.42911Z" fill="currentColor"/>
<path d="M17.7152 12.001V13.4296H16.2866V12.001H17.7152Z" fill="currentColor"/>
<path d="M19.1435 13.4302V14.8588H17.7148V13.4302H19.1435Z" fill="currentColor"/>
<path d="M20.5717 16.2861V17.7148H19.1431V16.2861H20.5717Z" fill="currentColor"/>
<path d="M16.2841 14.856V16.2846H14.8555V14.856H16.2841Z" fill="currentColor"/>
<path d="M17.7143 14.8564V16.2851H16.2856V14.8564H17.7143Z" fill="currentColor"/>
<path d="M21.9999 14.8564V16.2851H20.5713V14.8564H21.9999Z" fill="currentColor"/>
<path d="M4.85831 14.8564V16.2851H3.42969V14.8564H4.85831Z" fill="currentColor"/>
<path d="M9.14298 16.2871V17.7157H7.71436V16.2871H9.14298Z" fill="currentColor"/>
<path d="M6.28507 13.4292V14.8578H4.85645V13.4292H6.28507Z" fill="currentColor"/>
<path d="M3.42862 14.8564V16.2851H2V14.8564H3.42862Z" fill="currentColor"/>
<path d="M3.42911 17.7134V19.142H2.00049V17.7134H3.42911Z" fill="currentColor"/>
<path d="M6.28507 16.2871V17.7157H4.85645V16.2871H6.28507Z" fill="currentColor"/>
<path d="M7.71476 16.2871V17.7157H6.28613V16.2871H7.71476Z" fill="currentColor"/>
<path d="M16.2841 17.7134V19.142H14.8555V17.7134H16.2841Z" fill="currentColor"/>
<path d="M17.7152 16.2871V17.7157H16.2866V16.2871H17.7152Z" fill="currentColor"/>
<path d="M20.5717 14.856V16.2846H19.1431V14.856H20.5717Z" fill="currentColor"/>
<path d="M20.5717 17.7134V19.142H19.1431V17.7134H20.5717Z" fill="currentColor"/>
<path d="M9.14396 19.1436V20.5722H7.71533V19.1436H9.14396Z" fill="currentColor"/>
<path d="M17.7143 19.1436V20.5722H16.2856V19.1436H17.7143Z" fill="currentColor"/>
<path d="M21.9999 16.2871V17.7157H20.5713V16.2871H21.9999Z" fill="currentColor"/>
<path d="M21.9999 19.1436V20.5722H20.5713V19.1436H21.9999Z" fill="currentColor"/>
<path d="M7.71427 20.5718V22.0004H6.28564V20.5718H7.71427Z" fill="currentColor"/>
<path d="M9.14396 14.8564V16.2851H7.71533V14.8564H9.14396Z" fill="currentColor"/>
<path d="M3.42911 20.5718V22.0004H2.00049V20.5718H3.42911Z" fill="currentColor"/>
<path d="M6.28409 19.1436V20.5722H4.85547V19.1436H6.28409Z" fill="currentColor"/>
<path d="M4.8588 17.7134V19.142H3.43018V17.7134H4.8588Z" fill="currentColor"/>
<path d="M9.14298 17.7134V19.142H7.71436V17.7134H9.14298Z" fill="currentColor"/>
<path d="M19.1435 16.2861V17.7148H17.7148V16.2861H19.1435Z" fill="currentColor"/>
<path d="M17.7143 17.7134V19.142H16.2856V17.7134H17.7143Z" fill="currentColor"/>
<path d="M3.42911 16.2871V17.7157H2.00049V16.2871H3.42911Z" fill="currentColor"/>
<path d="M16.2841 20.5718V22.0004H14.8555V20.5718H16.2841Z" fill="currentColor"/>
<path d="M21.9999 17.7134V19.142H20.5713V17.7134H21.9999Z" fill="currentColor"/>
<path d="M20.5717 20.5718V22.0004H19.1431V20.5718H20.5717Z" fill="currentColor"/>
<path d="M7.71525 17.7134V19.142H6.28662V17.7134H7.71525Z" fill="currentColor"/>
<path d="M6.28507 20.5718V22.0004H4.85645V20.5718H6.28507Z" fill="currentColor"/>
<path d="M7.71427 19.1436V20.5722H6.28564V19.1436H7.71427Z" fill="currentColor"/>
<path d="M4.85831 19.1436V20.5722H3.42969V19.1436H4.85831Z" fill="currentColor"/>
<path d="M20.5717 19.1436V20.5722H19.1431V19.1436H20.5717Z" fill="currentColor"/>
<path d="M3.42862 19.1436V20.5722H2V19.1436H3.42862Z" fill="currentColor"/>
<path d="M19.1435 19.1436V20.5722H17.7148V19.1436H19.1435Z" fill="currentColor"/>
<path d="M16.2841 19.1436V20.5722H14.8555V19.1436H16.2841Z" fill="currentColor"/>
<path d="M4.85831 20.5718V22.0004H3.42969V20.5718H4.85831Z" fill="currentColor"/>
<path d="M9.14347 20.5718V22.0004H7.71484V20.5718H9.14347Z" fill="currentColor"/>
<path d="M17.7152 20.5718V22.0004H16.2866V20.5718H17.7152Z" fill="currentColor"/>
<path d="M21.9999 20.5718V22.0004H20.5713V20.5718H21.9999Z" fill="currentColor"/>
<path d="M19.1435 20.5718V22.0004H17.7148V20.5718H19.1435Z" fill="currentColor"/>
</svg>
