<svg width="24" height="24" viewBox="0 0 24 24" fill="none" xmlns="http://www.w3.org/2000/svg">
<g clip-path="url(#clip0_2226_17623)">
<path d="M7.99554 5.77746V21.4344C7.99554 21.6569 7.93973 21.846 7.82812 22.0017C7.71652 22.1575 7.55357 22.2353 7.33929 22.2353C7.18559 22.2348 7.03417 22.1983 6.89732 22.1285L0.669643 19.0185C0.482143 18.9295 0.323661 18.7805 0.194196 18.5713C0.0647321 18.3622 0 18.1553 0 17.9507V2.73415C0 2.55618 0.0446429 2.40491 0.133929 2.28033C0.223214 2.15575 0.352679 2.09346 0.522321 2.09346C0.647321 2.09346 0.84375 2.1602 1.11161 2.29368L7.95536 5.71072C7.98214 5.73741 7.99554 5.75966 7.99554 5.77746ZM8.85268 7.12559L16.0045 18.6848L8.85268 15.1343V7.12559ZM24 7.36585V21.4344C24 21.6569 23.9375 21.8371 23.8125 21.975C23.6875 22.113 23.5179 22.1819 23.3036 22.1819C23.0893 22.1819 22.8795 22.1241 22.6741 22.0084L16.7679 19.0719L24 7.36585ZM23.9598 5.76411C23.9598 5.79081 22.8147 7.65728 20.5246 11.3635C18.2344 15.0698 16.8929 17.2388 16.5 17.8706L11.2768 9.40806L15.6161 2.37376C15.7679 2.1246 16 2.00002 16.3125 2.00002C16.4333 1.99905 16.5526 2.02649 16.6607 2.08011L23.9062 5.68402C23.942 5.70182 23.9598 5.72852 23.9598 5.76411Z" fill="currentColor" />
</g>
<defs>
<clipPath id="clip0_2226_17623">
<rect width="24" height="20.2353" fill="currentColor" transform="translate(0 2)"/>
</clipPath>
</defs>
</svg>
