<svg width="24" height="21" fill="none" xmlns="http://www.w3.org/2000/svg">
    <path d="M7.996 3.777v15.657a.948.948 0 0 1-.168.568c-.111.155-.274.233-.489.233a.98.98 0 0 1-.442-.107L.67 17.018a1.137 1.137 0 0 1-.476-.447 1.174 1.174 0 0 1-.194-.62V.734C0 .556.045.404.134.28A.448.448 0 0 1 .522.093c.125 0 .322.067.59.2l6.843 3.418c.027.026.04.049.04.066Zm.857 1.349 7.152 11.559-7.152-3.55v-8.01ZM24 5.366v14.068a.774.774 0 0 1-.188.541.652.652 0 0 1-.508.207c-.215 0-.424-.058-.63-.174l-5.906-2.936L24 5.366Zm-.04-1.602c0 .027-1.145 1.893-3.435 5.6-2.29 3.706-3.632 5.875-4.025 6.507l-5.223-8.463 4.34-7.034C15.766.124 16 0 16.311 0a.77.77 0 0 1 .349.08l7.245 3.604c.036.018.054.045.054.08Z" fill="currentColor"/>
</svg>
