<svg width="24" height="24" viewBox="0 0 24 24" fill="none" xmlns="http://www.w3.org/2000/svg">
<g clip-path="url(#clip0_2226_17607)">
<path d="M24.0049 4.3042C23.1011 4.70574 22.1418 4.96855 21.1596 5.08374C22.1897 4.46783 22.9604 3.49798 23.3277 2.35536C22.3601 2.92836 21.3025 3.33359 20.1998 3.5539C19.5242 2.83442 18.648 2.33449 17.6849 2.11893C16.7217 1.90336 15.7161 1.9821 14.7982 2.34493C13.8804 2.70777 13.0927 3.33796 12.5373 4.15382C11.9819 4.96967 11.6844 5.93356 11.6833 6.92052C11.6807 7.29937 11.7233 7.67718 11.81 8.04598C9.85438 7.9442 7.94179 7.43379 6.1955 6.54764C4.44922 5.66149 2.90798 4.41926 1.67114 2.90103C1.04476 3.98577 0.8538 5.26795 1.13691 6.48814C1.42003 7.70833 2.15607 8.77542 3.19611 9.47351C2.41356 9.44844 1.6484 9.23627 0.964688 8.85475V8.91809C0.96563 10.0551 1.35948 11.1568 2.07955 12.0366C2.79962 12.9165 3.80165 13.5205 4.91597 13.7463C4.49363 13.8619 4.05784 13.9208 3.61999 13.9217C3.30943 13.92 2.99964 13.8907 2.69429 13.834C3.00992 14.8109 3.62287 15.6647 4.44748 16.2762C5.27209 16.8877 6.26714 17.2262 7.29356 17.2445C5.55525 18.6232 3.40261 19.3751 1.18393 19.3785C0.789947 19.3779 0.396308 19.3551 0.00488281 19.3103C2.25757 20.7573 4.87924 21.5252 7.55665 21.5222C16.6139 21.5222 21.564 14.0192 21.564 7.51005C21.564 7.30055 21.564 7.08617 21.564 6.87667C22.5228 6.1697 23.3492 5.29881 24.0049 4.3042Z" fill="currentColor" />
</g>
<defs>
<clipPath id="clip0_2226_17607">
<rect width="24" height="19.503" fill="currentColor" transform="translate(0 2)"/>
</clipPath>
</defs>
</svg>
