<svg width="104" height="24" viewBox="0 0 104 24" fill="none" xmlns="http://www.w3.org/2000/svg">
<path fill-rule="evenodd" clip-rule="evenodd" d="M0.144 3.468C0 4.032 0 4.7184 0 6.0924V17.9076C0 19.2804 0 19.968 0.144 20.532C0.349437 21.333 0.766331 22.0642 1.35108 22.6489C1.93583 23.2337 2.66696 23.6506 3.468 23.856C4.032 24 4.7184 24 6.0924 24H17.9076C19.2804 24 19.968 24 20.532 23.856C21.333 23.6506 22.0642 23.2337 22.6489 22.6489C23.2337 22.0642 23.6506 21.333 23.856 20.532C24 19.968 24 19.2804 24 17.9076V6.0924C24 4.7184 24 4.032 23.856 3.468C23.6506 2.66696 23.2337 1.93583 22.6489 1.35108C22.0642 0.76633 21.333 0.349437 20.532 0.144C19.968 0 19.2804 0 17.9076 0H6.0924C4.7184 0 4.032 0 3.468 0.144C2.66696 0.349437 1.93583 0.76633 1.35108 1.35108C0.766331 1.93583 0.349437 2.66696 0.144 3.468ZM11.9951 14.3316L10.3475 16.6944V16.6956C10.3115 16.7436 10.3475 16.7364 10.3475 16.7364L15.7031 16.7376C15.7396 16.737 15.775 16.7498 15.8027 16.7736L18.2471 18.9264C18.2617 18.9391 18.2734 18.9547 18.2815 18.9723C18.2896 18.9899 18.2938 19.009 18.2939 19.0284C18.2929 19.0661 18.2771 19.1018 18.2499 19.1279C18.2227 19.154 18.1863 19.1682 18.1487 19.1676H6.15347C5.93507 19.1676 5.73827 18.9804 5.73827 18.7716C5.73827 18.7716 5.66267 18.4284 5.84627 18.1392C6.74675 16.8747 7.64675 15.6099 8.54627 14.3448L11.9951 14.3316ZM11.9819 9.6168L13.6583 7.2936C13.7207 7.206 13.6583 7.212 13.6583 7.212L10.3595 7.1976H8.11547C8.07714 7.19757 8.04026 7.18299 8.01227 7.1568L5.76587 5.0328C5.67467 4.9464 5.73947 4.8 5.86907 4.8H17.8751C18.0935 4.8 18.2903 4.9848 18.2903 5.1888C18.2903 5.1888 18.3239 5.3988 18.1907 5.5956C18.1352 5.67942 17.0772 7.17748 15.7551 9.04958C15.6199 9.24111 15.4819 9.43655 15.3419 9.6348L11.9819 9.6168Z" fill="white" fill-opacity="0.24"/>
<path d="M41.25 18.8321L48.696 6.75528H42.0048V4.61328H52.5312V4.96008L45.2484 17.0165H52.3272V19.1993H41.25V18.8321Z" fill="white" fill-opacity="0.24"/>
<path d="M59.154 19.4045C58.4104 19.4122 57.6714 19.2879 56.9712 19.0373C56.3361 18.79 55.7543 18.4229 55.2576 17.9561C54.7724 17.466 54.3908 16.8832 54.1356 16.2425C53.8776 15.5765 53.748 14.8217 53.748 13.9781V13.8149C53.748 12.9857 53.8776 12.2369 54.1356 11.5709C54.3872 10.9222 54.769 10.3321 55.2576 9.83687C55.734 9.34727 56.2908 8.97287 56.9304 8.71487C57.6034 8.43891 58.3247 8.3002 59.052 8.30687C59.7192 8.30687 60.3504 8.40887 60.9492 8.61287C61.5612 8.81687 62.0988 9.13607 62.5608 9.57167C63.024 10.0073 63.39 10.5641 63.6624 11.2445C63.948 11.9249 64.0908 12.7409 64.0908 13.6925V14.4065H56.28C56.3196 15.4265 56.5848 16.2089 57.0744 16.7525C57.5784 17.2961 58.2912 17.5685 59.2164 17.5685C59.964 17.5685 60.5364 17.4257 60.93 17.1401C61.3248 16.8545 61.5696 16.4537 61.6644 15.9365H64.0524C63.8748 17.0645 63.3576 17.9285 62.5008 18.5273C61.644 19.1117 60.5292 19.4045 59.1552 19.4045H59.154ZM61.6428 12.7541C61.5756 11.8301 61.3164 11.1557 60.8676 10.7345C60.4332 10.3133 59.8272 10.1021 59.052 10.1021C58.3044 10.1021 57.6924 10.3397 57.216 10.8161C56.7396 11.2781 56.4408 11.9249 56.3184 12.7541H61.6428Z" fill="white" fill-opacity="0.24"/>
<path d="M66.375 8.53039H68.8434V10.5296C69.183 9.84919 69.6186 9.32599 70.149 8.95879C70.6926 8.57839 71.4138 8.38039 72.3114 8.36719V10.6724C71.7678 10.6724 71.2782 10.7264 70.8426 10.8356C70.4214 10.9316 70.0602 11.0936 69.7614 11.3252C69.4547 11.5661 69.2158 11.8824 69.0678 12.2432C68.9178 12.6104 68.8434 13.0796 68.8434 13.6508V19.1996H66.375V8.53039Z" fill="white" fill-opacity="0.24"/>
<path d="M74.6238 8.53174H77.0922V19.2009H74.6238V8.53174ZM75.8274 6.77734C75.4194 6.77734 75.0726 6.64174 74.787 6.36934C74.649 6.24242 74.5395 6.08772 74.4657 5.91543C74.3919 5.74314 74.3554 5.55716 74.3586 5.36974C74.3586 4.96174 74.5026 4.62214 74.787 4.34974C74.9249 4.21638 75.0878 4.11166 75.2664 4.04163C75.4449 3.9716 75.6356 3.93765 75.8274 3.94174C76.2354 3.94174 76.5834 4.07734 76.8678 4.34974C77.1534 4.62214 77.2962 4.96174 77.2962 5.36974C77.2962 5.76454 77.1534 6.09694 76.8678 6.36934C76.5822 6.64174 76.2354 6.77734 75.8274 6.77734Z" fill="white" fill-opacity="0.24"/>
<path d="M84.9549 17.487C85.8789 17.487 86.6001 17.175 87.1173 16.5486C87.6333 15.909 87.8925 15.039 87.8925 13.9374V13.7946C87.8925 12.693 87.6333 11.829 87.1173 11.2038C86.6013 10.5642 85.8789 10.245 84.9549 10.245C84.0309 10.245 83.3025 10.557 82.7709 11.1834C82.2549 11.8086 81.9969 12.6726 81.9969 13.7742V13.9374C81.9969 15.039 82.2549 15.909 82.7721 16.5486C83.2881 17.1738 84.0165 17.487 84.9549 17.487ZM84.9345 19.4046C84.1888 19.4125 83.448 19.281 82.7505 19.017C82.1042 18.771 81.5147 18.3962 81.0177 17.9154C80.5218 17.4299 80.1327 16.8463 79.8753 16.2018C79.5956 15.4943 79.457 14.7389 79.4673 13.9782V13.815C79.4673 12.9858 79.6029 12.237 79.8753 11.571C80.1413 10.9201 80.5369 10.3301 81.0381 9.83696C81.5277 9.34736 82.1061 8.97296 82.7721 8.71496C83.4661 8.43771 84.2077 8.2991 84.9549 8.30696C85.7301 8.30696 86.4501 8.43656 87.1173 8.69456C87.7677 8.9426 88.3586 9.32491 88.8513 9.81656C89.3409 10.293 89.7213 10.8642 89.9937 11.5302C90.2793 12.1962 90.4221 12.9378 90.4221 13.7538V13.917C90.4221 14.7462 90.2781 15.501 89.9937 16.1814C89.7333 16.8302 89.3447 17.42 88.8513 17.9154C88.3617 18.3918 87.7833 18.759 87.1173 19.017C86.4198 19.281 85.6791 19.4125 84.9333 19.4046H84.9345Z" fill="white" fill-opacity="0.24"/>
<path d="M92.7324 8.53104H95.2008V10.2242C95.4588 9.70824 95.8728 9.25824 96.4452 8.87784C97.0296 8.49744 97.7652 8.30664 98.6484 8.30664C99.1788 8.30664 99.6684 8.38824 100.117 8.55144C100.566 8.71464 100.954 8.96664 101.28 9.30624C101.606 9.63264 101.857 10.061 102.035 10.5914C102.211 11.1218 102.299 11.7542 102.299 12.4886V19.2002H99.8316V12.713C99.8316 11.897 99.6612 11.3054 99.3216 10.9382C98.9808 10.5578 98.4444 10.367 97.71 10.367C97.0164 10.367 96.4248 10.5842 95.934 11.0198C95.4456 11.441 95.2008 12.0734 95.2008 12.917V19.2002H92.7324V8.53104Z" fill="white" fill-opacity="0.24"/>
</svg>
