<svg width="260" height="50" viewBox="0 0 260 50" fill="none" xmlns="http://www.w3.org/2000/svg">
<g opacity="0.8">
<path d="M22.4023 32.2715L29.2995 43.0963L35.6706 39.404L26.6127 25.127L22.4023 32.2715Z" fill="white"/>
<path d="M41.4754 35.0536L41.4708 32.0951L31.5733 16.6797L27.9014 22.9105L37.4561 38.3631L40.9109 36.3611C41.2496 36.0861 41.4548 35.6821 41.4763 35.2465L41.4754 35.0536Z" fill="white"/>
<path d="M0 37.8391L4.8786 40.6502L21.113 14.6149L18.3579 14.5423C16.0104 14.5091 13.4814 15.1195 12.3206 17.014L3.10154 31.3028L0 36.0682V37.8391Z" fill="white"/>
<path d="M30.4826 14.6172L23.2208 14.6436L6.79199 41.7542L12.5345 45.0603L14.0959 42.412L30.4826 14.6172Z" fill="white"/>
<path d="M44.5353 14.5813C44.4747 13.0627 43.6523 11.6727 42.3644 10.8632L24.3118 0.481491C23.0377 -0.159984 21.4462 -0.160907 20.1697 0.481184C20.0189 0.557176 2.6139 10.6516 2.6139 10.6516C2.373 10.7669 2.14102 10.9045 1.92289 11.0608C0.773155 11.885 0.0723006 13.1655 0 14.5721V36.0724L3.10154 31.3071L3.07447 14.7173C3.07816 14.6567 3.08585 14.5967 3.09631 14.538C3.16646 14.1475 3.38459 13.7996 3.71256 13.5642C3.7947 13.5057 21.4967 3.25876 21.553 3.23045C21.9692 3.02155 22.4978 3.01909 22.9144 3.22399L40.7335 13.4734C41.155 13.742 41.4193 14.1974 41.4427 14.6952V35.2455C41.4211 35.6811 41.2489 36.0851 40.9101 36.3601L37.4554 38.3621L35.6728 39.3952L29.3017 43.0875L22.8405 46.8317C22.4926 46.9575 22.0855 46.9505 21.7406 46.8102L14.0961 42.4134L12.5345 45.0617L19.4045 49.017C19.6316 49.1462 19.834 49.2607 20.0002 49.3542C20.2574 49.4985 20.4328 49.5948 20.4946 49.625C20.9829 49.8622 21.6852 50 22.3184 50C22.8987 50 23.4648 49.8936 24.0004 49.6837L42.7675 38.8156C43.8446 37.9809 44.4784 36.7222 44.5353 35.359V14.5813Z" fill="white"/>
<path d="M63.9226 17.3672C64.4635 17.3672 64.9188 17.4776 65.289 17.6982C65.6591 17.9191 66.0221 18.3496 66.3784 18.9904L73.4475 31.8258C73.5183 31.9682 73.5365 32.0857 73.5011 32.1783C73.4657 32.2713 73.3623 32.3171 73.1916 32.3171H70.4792C70.2371 32.3171 70.0737 32.2245 69.9876 32.0396L68.4714 29.2845H58.4339L56.9599 32.0396C56.8602 32.2248 56.6969 32.3171 56.4689 32.3171H53.6929C53.507 32.3171 53.3972 32.2713 53.3618 32.1783C53.3258 32.0857 53.3437 31.9682 53.4147 31.8258L60.4202 18.9904C60.7759 18.3496 61.1251 17.9191 61.4669 17.6982C61.8081 17.4776 62.2065 17.3672 62.6628 17.3672H63.9226ZM59.7793 26.8069H67.126L63.7303 20.5493C63.6731 20.45 63.5947 20.3998 63.4953 20.3998H63.3673C63.2676 20.3998 63.1889 20.45 63.1322 20.5493L59.7793 26.8069Z" fill="white"/>
<path d="M95.8729 17.3675C97.5103 17.3675 98.6853 17.7379 99.3972 18.4782C100.109 19.2184 100.465 20.3149 100.465 21.7668V22.9842C100.465 24.2087 100.216 25.1769 99.7175 25.8885C99.2188 26.6004 98.4068 27.0561 97.2827 27.2551L100.935 31.783C101.006 31.8544 101.027 31.9611 100.999 32.1033C100.97 32.2457 100.856 32.3168 100.657 32.3168H97.9023C97.7171 32.3168 97.5885 32.2956 97.5177 32.2528C97.4463 32.21 97.3753 32.139 97.3045 32.0393L93.9297 27.5973H87.0314V31.847C87.0314 32.1605 86.8744 32.3168 86.5615 32.3168H84.2553C83.928 32.3168 83.7637 32.1602 83.7637 31.847V18.008C83.7637 17.5807 83.9775 17.3672 84.4048 17.3672H95.8729V17.3675ZM87.0314 24.992H95.2115C95.9372 24.992 96.4498 24.8354 96.7485 24.5222C97.0479 24.209 97.1974 23.7321 97.1974 23.0912V22.1944C97.1974 21.5539 97.0479 21.0767 96.7485 20.7635C96.4498 20.4506 95.9372 20.294 95.2115 20.294H87.3089C87.1237 20.294 87.0314 20.3792 87.0314 20.5503V24.992Z" fill="white"/>
<path d="M124.352 17.3675C125.819 17.3675 126.861 17.6595 127.481 18.2434C128.101 18.8274 128.41 19.71 128.41 20.8915V21.9166C128.41 23.1128 127.955 24.0167 127.044 24.6286C128.025 25.1984 128.517 26.1168 128.517 27.3837V28.6224C128.517 29.1922 128.453 29.7047 128.325 30.1601C128.197 30.6157 127.986 31.0034 127.695 31.324C127.403 31.6442 127.015 31.8898 126.531 32.0608C126.047 32.2319 125.449 32.3171 124.737 32.3171H112.051C111.624 32.3171 111.41 32.1036 111.41 31.6765V18.008C111.41 17.5807 111.624 17.3672 112.051 17.3672H124.352V17.3675ZM114.678 23.5823H123.434C124.146 23.5823 124.63 23.4755 124.886 23.262C125.142 23.0485 125.271 22.7353 125.271 22.3221V21.5963C125.271 21.1548 125.146 20.8312 124.897 20.6244C124.648 20.4183 124.246 20.3149 123.69 20.3149H114.955C114.77 20.3149 114.678 20.4078 114.678 20.5924V23.5823ZM114.678 25.91V29.0925C114.678 29.2777 114.77 29.37 114.955 29.37H123.711C124.281 29.37 124.687 29.2666 124.929 29.0602C125.171 28.8541 125.292 28.523 125.292 28.0671V27.2551C125.292 26.8139 125.16 26.4795 124.897 26.2515C124.633 26.0239 124.146 25.9097 123.434 25.9097H114.678V25.91Z" fill="white"/>
<path d="M142.068 17.3672C142.382 17.3672 142.538 17.5241 142.538 17.837V31.847C142.538 32.1605 142.381 32.3168 142.068 32.3168H139.762C139.434 32.3168 139.271 32.1602 139.271 31.847V17.837C139.271 17.5238 139.434 17.3672 139.762 17.3672H142.068Z" fill="white"/>
<path d="M170.037 17.3672C170.364 17.3672 170.528 17.5241 170.528 17.837V19.93C170.528 20.2577 170.364 20.4213 170.037 20.4213H163.331V31.8473C163.331 32.1608 163.174 32.3171 162.861 32.3171H160.533C160.22 32.3171 160.064 32.1605 160.064 31.8473V20.4213H153.358C153.03 20.4213 152.866 20.258 152.866 19.93V17.837C152.866 17.5238 153.03 17.3672 153.358 17.3672H170.037Z" fill="white"/>
<path d="M192.943 17.3675C194.581 17.3675 195.756 17.7379 196.468 18.4782C197.179 19.2184 197.535 20.3149 197.535 21.7668V22.9842C197.535 24.2087 197.286 25.1769 196.788 25.8885C196.289 26.6004 195.477 27.0561 194.353 27.2551L198.005 31.783C198.076 31.8544 198.097 31.9611 198.069 32.1033C198.04 32.2457 197.926 32.3168 197.728 32.3168H194.973C194.787 32.3168 194.659 32.2956 194.588 32.2528C194.517 32.21 194.446 32.139 194.375 32.0393L191 27.5973H184.102V31.847C184.102 32.1605 183.945 32.3168 183.632 32.3168H181.326C180.998 32.3168 180.834 32.1602 180.834 31.847V18.008C180.834 17.5807 181.048 17.3672 181.475 17.3672H192.943V17.3675ZM184.102 24.992H192.282C193.008 24.992 193.52 24.8354 193.819 24.5222C194.118 24.209 194.268 23.7321 194.268 23.0912V22.1944C194.268 21.5539 194.118 21.0767 193.819 20.7635C193.52 20.4506 193.008 20.294 192.282 20.294H184.379C184.194 20.294 184.102 20.3792 184.102 20.5503V24.992Z" fill="white"/>
<path d="M210.964 17.3672C211.277 17.3672 211.434 17.5241 211.434 17.837V26.3583C211.434 26.9281 211.48 27.4016 211.573 27.7785C211.665 28.156 211.819 28.4547 212.032 28.6753C212.246 28.8965 212.534 29.0531 212.897 29.1451C213.26 29.238 213.719 29.2839 214.275 29.2839H220.191C220.746 29.2839 221.205 29.238 221.568 29.1451C221.932 29.0528 222.219 28.8962 222.434 28.6753C222.647 28.4547 222.797 28.156 222.882 27.7785C222.967 27.4013 223.01 26.9278 223.01 26.3583V17.837C223.01 17.5238 223.167 17.3672 223.48 17.3672H225.807C226.121 17.3672 226.277 17.5241 226.277 17.837V26.6786C226.277 27.7037 226.171 28.5759 225.957 29.2949C225.744 30.0139 225.398 30.5976 224.921 31.0461C224.444 31.4944 223.825 31.8187 223.063 32.0177C222.302 32.2171 221.379 32.3168 220.298 32.3168H214.147C213.065 32.3168 212.147 32.2174 211.392 32.0177C210.637 31.8187 210.021 31.4944 209.545 31.0461C209.068 30.5976 208.718 30.0139 208.498 29.2949C208.278 28.5759 208.167 27.7037 208.167 26.6786V17.837C208.167 17.5238 208.33 17.3672 208.659 17.3672H210.964Z" fill="white"/>
<path d="M241.487 17.3672C241.801 17.3672 242.071 17.3884 242.299 17.4315C242.526 17.4743 242.726 17.5561 242.896 17.677C243.068 17.7982 243.22 17.9622 243.355 18.1683C243.49 18.3748 243.63 18.6489 243.772 18.9907L248.214 29.2417C248.271 29.37 248.371 29.434 248.514 29.434H248.77C248.912 29.434 249.012 29.37 249.069 29.2417L253.511 18.9907C253.653 18.6489 253.792 18.3748 253.928 18.1683C254.063 17.9622 254.216 17.7982 254.387 17.677C254.558 17.5561 254.753 17.4743 254.974 17.4315C255.195 17.3884 255.462 17.3672 255.775 17.3672H258.061C258.8 17.3672 259.299 17.5349 259.555 17.8693C259.812 18.204 259.94 18.7769 259.94 19.5885V31.8473C259.94 32.1608 259.776 32.3171 259.449 32.3171H257.27C256.957 32.3171 256.801 32.1605 256.801 31.8473V20.6992C256.801 20.557 256.743 20.4857 256.629 20.4857H256.437C256.294 20.4857 256.202 20.5429 256.159 20.6567L251.846 30.2247C251.675 30.609 251.5 30.9332 251.322 31.1963C251.144 31.46 250.952 31.6772 250.746 31.8476C250.539 32.0187 250.304 32.1396 250.041 32.211C249.778 32.282 249.468 32.3177 249.112 32.3177H248.087C247.731 32.3177 247.421 32.2823 247.158 32.211C246.894 32.1399 246.659 32.0187 246.453 31.8476C246.246 31.6769 246.054 31.46 245.876 31.1963C245.698 30.9332 245.524 30.609 245.353 30.2247L241.039 20.6567C240.996 20.5429 240.904 20.4857 240.762 20.4857H240.569C240.455 20.4857 240.398 20.557 240.398 20.6992V31.8473C240.398 32.1608 240.242 32.3171 239.929 32.3171H237.75C237.423 32.3171 237.259 32.1605 237.259 31.8473V19.5885C237.259 18.7769 237.387 18.204 237.643 17.8693C237.9 17.5349 238.405 17.3672 239.16 17.3672H241.487Z" fill="white"/>
</g>
</svg>