<svg width="340" height="50" viewBox="0 0 340 50" fill="none" xmlns="http://www.w3.org/2000/svg">
<g clip-path="url(#clip0_735_149)">
<path d="M181.541 30.3872C181.097 31.8428 180.504 33.2256 179.839 34.4629C179.618 34.8996 179.396 35.2635 179.173 35.7001C177.989 37.3741 175.918 38.5385 173.698 38.5385C171.702 38.5385 169.852 37.6651 168.669 36.2824C168.594 36.2096 168.52 36.1368 168.447 36.0641C167.189 34.6812 165.414 33.8078 163.416 33.8078C162.898 33.8078 162.454 33.8806 162.011 33.9534V47.5634C160.531 47.8544 158.903 48 157.35 48C143.294 48 131.976 36.7919 131.976 23.0363C131.976 9.28093 143.22 -2 157.276 -2C159.939 -2 162.528 -1.56332 164.969 -0.835516L157.423 6.58806L162.011 11.1004L178.138 26.9665L178.803 27.6216L181.541 30.3872Z" fill="url(#paint0_linear_735_149)"/>
<path d="M0 32.0226L2.36727 30.8581C3.62489 33.6965 6.51001 35.2249 10.2089 35.2249C14.2037 35.2249 17.2367 33.1871 17.2367 29.6936C17.2367 25.909 13.7598 25.1812 9.98694 24.3806C5.62228 23.4346 0.665796 22.1973 0.665796 16.5205C0.665796 12.0808 4.8825 8.66016 9.91296 8.66016C14.0557 8.66016 17.8286 10.6252 19.3821 14.337L17.0888 15.5015C15.7571 12.7358 13.242 11.2075 9.83899 11.2075C6.43604 11.2075 3.47694 13.3909 3.47694 16.3749C3.47694 20.1595 7.02784 20.8873 10.8747 21.6878C15.2393 22.634 20.1219 23.8712 20.1219 29.6209C19.9739 34.6427 15.6831 37.8451 10.2089 37.8451C5.62228 37.8451 1.62751 35.8071 0 32.0226Z" fill="white" fill-opacity="0.8"/>
<path d="M24.9307 37.5547V9.09766H27.6677V22.1253H44.8305V9.09766H47.5678V37.5547H44.8305V24.5998H27.6677V37.4819H24.9307V37.5547Z" fill="white" fill-opacity="0.8"/>
<path d="M57.4065 9.09766V37.5547H54.6694V9.09766H57.4065Z" fill="white" fill-opacity="0.8"/>
<path d="M62.3633 37.5544L66.506 11.7174C66.8758 9.6796 68.3554 8.58789 70.2048 8.58789C71.8324 8.58789 73.3119 9.38848 73.8297 11.208L80.0439 32.8237C80.1917 33.4787 80.3397 33.6971 80.7096 33.6971C81.0795 33.6971 81.2274 33.4059 81.3754 32.8237L87.5895 11.2808C88.1074 9.46126 89.5869 8.58789 91.2144 8.58789C92.9899 8.58789 94.4695 9.6796 94.8393 11.7902L98.6122 37.4088H95.875L92.324 12.518C92.1762 11.5719 91.9542 10.9896 91.1405 10.9896C90.5487 10.9896 90.1047 11.4991 89.8828 12.3725L83.4467 34.061C83.0769 35.371 81.9672 36.0988 80.7096 36.0988C79.5259 36.0988 78.3424 35.4438 77.9724 34.1338L71.5364 12.2997C71.2406 11.4263 70.9446 10.9896 70.3528 10.9896C69.7609 10.9896 69.2431 11.4991 69.0951 12.518L65.1743 37.4816H62.3633V37.5544Z" fill="white" fill-opacity="0.8"/>
<path d="M108.894 12.0808C109.634 9.75186 111.335 8.66016 113.555 8.66016C115.7 8.66016 117.476 9.75186 118.215 12.0808L126.353 37.5539H123.542L121.101 29.6209L106.157 29.6936L103.568 37.5539H100.757L108.894 12.0808ZM106.823 27.0736H120.213L115.774 12.8814C115.404 11.7169 114.664 11.1347 113.555 11.1347C112.371 11.1347 111.705 11.7169 111.335 12.8814L106.823 27.0736Z" fill="white" fill-opacity="0.8"/>
<path d="M187.163 23.289C187.163 15.1376 193.673 8.66016 201.588 8.66016C206.471 8.66016 210.761 11.0619 213.054 14.9921L210.836 16.3021C208.913 13.1725 205.435 11.2075 201.588 11.2075C195.301 11.2075 190.048 16.5205 190.048 23.289C190.048 30.1303 195.226 35.4433 201.588 35.4433C205.435 35.4433 208.913 33.5509 210.836 30.4214L213.054 31.7315C210.761 35.6617 206.471 38.0634 201.588 38.0634C193.673 37.9906 187.163 31.5131 187.163 23.289Z" fill="white" fill-opacity="0.8"/>
<path d="M221.34 12.0808C222.08 9.75186 223.781 8.66016 226.001 8.66016C228.221 8.66016 229.922 9.75186 230.66 12.0808L238.798 37.5539H235.988L233.547 29.6209L218.603 29.6936L216.014 37.5539H213.202L221.34 12.0808ZM219.268 27.0736H232.659L228.221 12.8814C227.851 11.7169 227.111 11.1347 226.001 11.1347C224.818 11.1347 224.151 11.7169 223.781 12.8814L219.268 27.0736Z" fill="white" fill-opacity="0.8"/>
<path d="M242.941 37.5547V9.09766H251.302C258.7 9.09766 263.729 12.3 263.729 18.9229C263.729 25.7643 258.477 28.821 251.376 28.821H245.679V37.6275H242.941V37.5547ZM245.679 11.645V26.201H251.302C256.628 26.201 260.845 24.0904 260.845 18.8501C260.845 13.8284 256.923 11.5722 251.302 11.5722H245.679V11.645Z" fill="white" fill-opacity="0.8"/>
<path d="M270.313 9.09766V37.5547H267.575V9.09766H270.313Z" fill="white" fill-opacity="0.8"/>
<path d="M294.281 11.645H285.035V37.5547H282.298V11.645H273.125V9.09766H294.281V11.645Z" fill="white" fill-opacity="0.8"/>
<path d="M300.57 12.0808C301.31 9.75186 303.012 8.66016 305.23 8.66016C307.45 8.66016 309.151 9.75186 309.891 12.0808L318.028 37.5539H315.144L312.702 29.6208L297.759 29.6936L295.244 37.6267H292.433L300.57 12.0808ZM298.499 27.0736H311.888L307.45 12.8814C307.08 11.7169 306.34 11.1347 305.23 11.1347C304.047 11.1347 303.382 11.7169 303.012 12.8814L298.499 27.0736Z" fill="white" fill-opacity="0.8"/>
<path d="M324.908 35.0073H340V37.5547H324.908C322.837 37.5547 322.172 36.5357 322.172 34.8619V9.09766H324.908V35.0073Z" fill="white" fill-opacity="0.8"/>
</g>
<defs>
<linearGradient id="paint0_linear_735_149" x1="134.58" y1="44.8385" x2="171.949" y2="6.85478" gradientUnits="userSpaceOnUse">
<stop stop-color="#E0E0E0"/>
<stop offset="1" stop-color="#343434"/>
</linearGradient>
<clipPath id="clip0_735_149">
<rect width="340" height="50" fill="white"/>
</clipPath>
</defs>
</svg>
