<svg width="82" height="24" viewBox="0 0 82 24" fill="none" xmlns="http://www.w3.org/2000/svg">
<path d="M11.044 2.11434C8.34927 3.25291 5.74948 4.3725 3.14969 5.47312C2.88398 5.58697 2.6373 5.70082 2.37159 5.81467C1.10021 6.36502 1.10021 6.36502 0.834496 5.05568C0.587818 3.78428 0.341065 2.51289 0.0564711 1.26047C-0.0574267 0.748071 -0.0574277 0.482422 0.625733 0.482422C7.98877 0.501397 15.3517 0.501397 22.6957 0.482422C23.2081 0.482422 23.4168 0.539347 23.284 1.14662C22.9424 2.58879 22.6388 4.03096 22.3921 5.4921C22.2592 6.28912 21.9746 6.2322 21.3673 5.96647C18.6157 4.79003 15.8261 3.65146 13.0365 2.47494C12.8658 2.39904 12.695 2.34211 12.3914 2.22819C12.3914 2.58879 12.3914 2.85444 12.3914 3.12009C12.3914 7.21889 12.3914 11.3178 12.3914 15.4356C12.3914 15.929 12.4103 16.2326 11.7272 16.2326C11.0819 16.2326 11.044 15.9859 11.044 15.4545C11.063 11.3557 11.063 7.25692 11.063 3.13906C11.044 2.83546 11.044 2.53186 11.044 2.11434ZM14.27 1.62099C14.27 1.67792 14.251 1.71587 14.251 1.77279C16.6232 2.75956 18.9953 3.74633 21.4053 4.752C21.633 3.65146 21.8228 2.64571 22.0315 1.62099C19.3748 1.62099 16.8129 1.62099 14.27 1.62099ZM8.99452 1.75382C8.99452 1.69689 8.97556 1.65894 8.97556 1.60202C6.60341 1.60202 4.2503 1.60202 1.87823 1.60202C1.4987 1.60202 1.27098 1.63997 1.3848 2.11434C1.55565 2.81649 1.68843 3.53761 1.82129 4.23968C1.89719 4.6002 2.01109 4.77105 2.4475 4.58123C4.61088 3.61351 6.79322 2.70264 8.99452 1.75382Z" fill="white" fill-opacity="0.24"/>
<path d="M17.6858 15.9096C17.6858 17.6744 17.6668 19.4392 17.7048 21.223C17.7237 21.7543 17.553 21.9061 17.0216 21.9061C13.473 21.8871 9.94325 21.8871 6.39459 21.9061C5.86324 21.9061 5.71143 21.7543 5.71143 21.223C5.73046 17.6934 5.73046 14.1449 5.71143 10.6153C5.71143 10.0839 5.84428 9.89418 6.39459 9.93213C6.92593 9.97008 7.47631 9.97008 8.00766 9.93213C8.50102 9.91315 8.78569 9.93213 8.78569 10.5963C8.78569 11.2604 8.48206 11.3363 7.98863 11.2415C7.02087 11.0707 6.79315 11.4503 6.83107 12.399C6.90698 14.8659 6.88802 17.3328 6.85003 19.7807C6.83107 20.407 7.02088 20.5588 7.62813 20.5588C10.2849 20.5208 12.9416 20.5208 15.5983 20.5588C16.2246 20.5588 16.3764 20.407 16.3764 19.7807C16.3385 17.2189 16.3385 14.6572 16.3764 12.1144C16.3953 11.4123 16.2246 11.1466 15.5035 11.2415C15.048 11.2984 14.6116 11.3933 14.6116 10.5963C14.6116 9.7993 15.048 9.93213 15.5035 9.93213C17.6858 9.93213 17.6858 9.91315 17.6858 12.1144C17.6858 13.3858 17.6858 14.6382 17.6858 15.9096Z" fill="white" fill-opacity="0.24"/>
<path d="M28.5219 4.8276C28.5219 3.91672 28.5219 3.00593 28.5219 2.09506C28.5219 1.46881 28.7306 0.690839 27.6299 0.804688C27.4971 0.823663 27.3833 0.709813 27.3833 0.576989C27.3833 0.368265 27.5351 0.33024 27.7059 0.33024C29.5276 0.38724 31.3683 0.102541 33.1712 0.539039C34.1579 0.766738 34.917 1.37394 35.3915 2.30378C37.0804 5.54872 35.0499 9.19213 31.4253 9.38188C30.2677 9.4388 29.0911 9.40085 27.9336 9.38188C27.7438 9.38188 27.4401 9.49572 27.3833 9.19213C27.3263 8.86948 27.6679 8.86948 27.8577 8.88845C28.4839 8.90743 28.5598 8.58485 28.5408 8.05356C28.5028 6.97191 28.5219 5.89027 28.5219 4.8276ZM29.7174 4.78965C29.7174 5.87129 29.7174 6.93396 29.7174 8.01561C29.7174 8.2433 29.6035 8.50895 29.9451 8.66075C30.9319 9.11623 32.7537 8.71768 33.5507 7.84483C34.6134 6.66831 34.8981 4.2963 34.12 2.7402C33.323 1.14624 31.9187 0.823663 30.2867 0.880588C29.8123 0.899563 29.6984 1.05136 29.6984 1.48779C29.7364 2.56943 29.7174 3.67005 29.7174 4.78965Z" fill="white" fill-opacity="0.24"/>
<path d="M73.6105 4.46727C73.6105 5.56789 73.6105 6.66851 73.6105 7.78811C73.6105 8.33838 73.4593 8.9836 74.3696 8.92668C74.5028 8.92668 74.5976 9.02155 74.5788 9.17335C74.5599 9.34413 74.4456 9.3631 74.3132 9.3631C73.5541 9.3631 72.7951 9.3631 72.036 9.3631C71.9028 9.3631 71.7892 9.32515 71.7509 9.17335C71.7321 9.02155 71.8269 8.92668 71.96 8.92668C72.6431 8.9077 72.5099 8.39531 72.5099 7.97786C72.5099 6.83929 72.4911 5.70072 72.5099 4.56215C72.5099 4.16367 72.3963 4.04982 71.9788 4.01187C69.7776 3.87905 69.7776 3.86008 69.7776 6.00432C69.7776 6.72544 69.7964 7.46554 69.7776 8.18658C69.7588 8.66103 69.8536 8.90771 70.3847 8.83181C70.5743 8.81283 70.8782 8.75591 70.8398 9.11643C70.821 9.38208 70.5938 9.3631 70.4035 9.3631C69.6444 9.3631 68.8854 9.3631 68.1263 9.3631C67.9751 9.3631 67.7848 9.38208 67.766 9.15438C67.7472 8.94565 67.9179 8.88873 68.0887 8.88873C68.677 8.88873 68.6958 8.52813 68.677 8.07273C68.6582 6.93416 68.6582 5.79559 68.677 4.65702C68.677 4.23957 68.677 3.89803 68.1075 3.97392C67.9367 3.9929 67.5952 4.12573 67.5764 3.78418C67.5576 3.53743 67.766 3.2528 68.0315 3.27178C68.601 3.3287 68.6386 3.0251 68.7342 2.56971C68.9425 1.56396 69.6444 0.823864 70.3659 0.197692C70.7834 -0.162906 71.4665 0.0838424 72.0164 0.0648674C73.5729 0.0458925 73.5729 0.0648677 73.5729 1.58294C73.6105 2.58868 73.6105 3.53743 73.6105 4.46727ZM72.4723 1.05156C72.0548 1.08951 71.6749 1.16541 71.2769 1.18439C70.1379 1.22234 69.5685 1.96243 69.8152 3.08203C69.8912 3.38563 70.0432 3.38563 70.2711 3.4046C72.4151 3.67025 72.6431 3.4805 72.5295 1.31729C72.5295 1.22234 72.4911 1.12746 72.4723 1.05156Z" fill="white" fill-opacity="0.24"/>
<path d="M48.4278 9.45791C47.4979 8.31934 47.2323 8.30037 48.7883 7.19982C47.5549 6.13715 47.3271 5.34013 47.9913 4.35336C48.6935 3.29069 50.2496 2.85427 51.4261 3.44257C51.7867 3.63231 52.0713 3.80309 52.3939 3.40454C52.6406 3.10094 52.9822 3.04402 53.3238 3.17684C53.5325 3.25274 53.4377 3.51846 53.4566 3.68924C53.5136 4.22054 53.0961 4.06874 52.8114 4.12566C52.5647 4.18259 52.3939 4.27746 52.375 4.61901C52.2421 6.28895 51.6349 6.95307 50.0219 7.2947C49.8321 7.33265 49.5854 7.31367 49.4905 7.40855C49.2438 7.6742 48.7883 7.9019 48.8833 8.28139C48.9781 8.67994 49.4525 8.58507 49.7942 8.58507C50.4963 8.58507 51.1794 8.56609 51.8815 8.58507C52.4129 8.60404 52.9063 8.75584 53.134 9.28714C53.3807 9.81851 53.2668 10.3308 52.9253 10.8053C52.1093 11.9817 50.1737 12.7408 48.7504 12.4182C48.0673 12.2664 47.5359 11.9248 47.3082 11.2038C47.0615 10.4257 47.6308 10.1411 48.0862 9.78056C48.2001 9.66671 48.295 9.55279 48.4278 9.45791ZM50.3824 9.53381C50.1546 9.53381 49.946 9.55279 49.7182 9.53381C48.8642 9.41996 48.4468 10.0083 48.3519 10.6534C48.257 11.3176 48.8642 11.5643 49.4525 11.7351C50.1547 11.9248 50.7619 11.7351 51.3502 11.3935C51.8436 11.0899 52.1662 10.6344 52.0334 10.0462C51.9005 9.40099 51.2933 9.60979 50.8568 9.55279C50.705 9.51484 50.5342 9.53381 50.3824 9.53381ZM51.2553 5.43501C51.2364 4.48619 50.6481 3.74616 49.9269 3.72719C49.2438 3.70821 48.7694 4.23951 48.7694 5.03653C48.7694 5.98535 49.4146 6.76333 50.2116 6.66845C50.9327 6.59255 51.3123 6.15613 51.2553 5.43501Z" fill="white" fill-opacity="0.24"/>
<path d="M43.95 16.0616C44.3864 15.739 44.6331 15.5683 44.8798 15.3785C45.9615 14.5625 47.3467 14.8661 47.8971 16.1185C48.4664 17.409 48.5423 18.7942 47.6504 19.9897C46.7775 21.1283 45.525 21.5078 44.0068 21.1283C44.0068 21.5457 44.0448 21.9632 44.0068 22.3427C43.95 23.1017 43.9689 23.747 45.0127 23.5952C45.1454 23.5762 45.3542 23.5952 45.3542 23.8039C45.3542 23.8798 45.2593 23.9936 45.2024 23.9936C44.1397 24.0126 43.058 23.9936 41.9194 23.8608C43.2288 23.728 42.9252 22.8171 42.9252 22.096C42.9441 20.2743 42.9252 18.4336 42.9252 16.6119C42.9252 16.1945 43.058 15.6442 42.299 15.8718C42.1282 15.9288 41.9764 15.8529 41.9573 15.6631C41.9194 15.4354 42.1092 15.4354 42.242 15.3975C42.4887 15.3216 42.7355 15.2647 42.9632 15.1888C43.6463 14.9421 44.1207 14.9421 43.95 16.0616ZM44.0259 18.0731C44.0259 18.4905 44.0259 18.7183 44.0259 18.946C44.0259 20.0846 44.2915 20.4641 45.2213 20.6159C46.0563 20.7487 46.7205 20.3502 46.9862 19.4204C47.2708 18.4336 47.2519 17.409 46.7775 16.4791C46.4169 15.777 45.8666 15.6441 45.1075 15.9667C44.0068 16.4412 43.855 17.2571 44.0259 18.0731Z" fill="white" fill-opacity="0.24"/>
<path d="M28.8442 16.1574C28.8442 18.5295 30.0967 20.2753 31.8994 20.5789C33.133 20.7876 33.9489 20.3702 34.5182 19.2696C34.6131 19.0798 34.67 18.8142 34.8408 18.7003C35.0496 18.5484 35.4861 18.3777 35.4861 18.7952C35.4861 19.3265 35.505 19.9907 35.0496 20.3702C33.3796 21.8313 30.3623 21.6226 28.7872 20.0097C27.2122 18.3966 27.0794 15.3605 28.5026 13.6526C30.0397 11.812 33.1139 11.3186 35.0306 12.609C35.3722 12.8367 35.6758 14.1271 35.3912 14.3927C35.1255 14.6583 34.7649 14.6204 34.6511 14.2219C34.4613 13.5388 34.1387 13.0264 33.4555 12.7608C32.7534 12.4761 32.0512 12.4381 31.3301 12.59C30.0208 12.8557 29.0909 13.9753 28.9201 15.5123C28.8442 15.7779 28.8442 16.0626 28.8442 16.1574Z" fill="white" fill-opacity="0.24"/>
<path d="M62.5094 4.27716C63.0218 3.93561 63.4393 3.66997 63.8568 3.38527C64.9002 2.72115 66.0392 3.19552 66.1528 4.40999C66.2664 5.60548 66.21 6.80098 66.21 7.99647C66.21 8.47085 66.1716 8.88837 66.8359 8.86939C67.0067 8.86939 67.2346 8.90734 67.1775 9.19197C67.1398 9.40069 66.9307 9.34377 66.7983 9.34377C66.1716 9.34377 65.5262 9.34377 64.9002 9.34377C64.7483 9.34377 64.5775 9.38172 64.5211 9.15402C64.5015 9.00222 64.5775 8.90734 64.7107 8.88837C65.223 8.81247 65.1282 8.43289 65.1282 8.09135C65.1282 7.10458 65.147 6.13686 65.1282 5.15008C65.0898 4.14434 64.5211 3.82177 63.6101 4.22024C62.8126 4.58076 62.2627 5.03623 62.4335 6.06088C62.547 6.76303 62.4523 7.50312 62.4523 8.24315C62.4523 8.4329 62.3387 8.69862 62.6606 8.79349C62.8698 8.86939 63.2873 8.81247 63.1353 9.19197C63.0406 9.45762 62.6802 9.30582 62.4523 9.32479C61.9211 9.34377 61.3705 9.32479 60.8393 9.32479C60.6874 9.32479 60.4978 9.34377 60.4594 9.13504C60.4218 8.94529 60.5926 8.85042 60.7445 8.85042C61.314 8.85042 61.3516 8.5088 61.3516 8.03442C61.3328 6.9338 61.3328 5.83318 61.3516 4.71359C61.3516 4.29614 61.3705 3.93561 60.7633 4.08741C60.6302 4.12536 60.4406 4.12536 60.403 3.91664C60.3458 3.63194 60.5738 3.63194 60.7633 3.59399C60.9529 3.53707 61.1237 3.48014 61.314 3.42322C62.2627 3.19552 62.2627 3.19552 62.5094 4.27716Z" fill="white" fill-opacity="0.24"/>
<path d="M78.0886 8.64251C78.5445 7.29522 78.962 6.06177 79.3796 4.80935C79.436 4.65755 79.512 4.48678 79.4555 4.37293C79.2088 3.76566 79.19 3.76566 79.9295 3.76566C80.1574 3.76566 80.3658 3.74668 80.5938 3.76566C80.8217 3.78463 81.1821 3.63283 81.2392 3.97438C81.3152 4.39191 80.8977 4.20216 80.6886 4.27806C80.347 4.3919 80.347 4.6955 80.2334 4.94218C79.2652 7.33317 78.3549 9.74313 77.3296 12.1151C76.988 12.9122 76.4757 12.8932 75.8498 12.8552C75.3751 12.8173 75.5459 12.4567 75.5459 12.21C75.5459 11.9633 75.3946 11.6787 75.8874 11.6028C77.064 11.432 77.6907 10.2176 77.2543 9.13593C76.7413 7.84556 76.2485 6.5552 75.755 5.26483C75.5654 4.79038 75.5271 4.18318 74.768 4.20216C74.616 4.20216 74.5596 4.05036 74.5972 3.93643C74.6356 3.80361 74.768 3.76566 74.9011 3.76566C75.603 3.76566 76.2861 3.76566 76.988 3.76566C77.1783 3.76566 77.3867 3.76566 77.4055 4.03138C77.4055 4.25908 77.1971 4.24011 77.0452 4.24011C76.4757 4.25908 76.666 4.60063 76.7608 4.88525C77.1783 6.1187 77.6147 7.33317 78.0886 8.64251Z" fill="white" fill-opacity="0.24"/>
<path d="M59.7572 6.25015C59.7572 8.12882 58.315 9.58996 56.4742 9.57099C54.9184 9.55201 53.7036 8.20472 53.7036 6.45895C53.7036 4.58028 55.1456 3.11914 56.9865 3.11914C58.5234 3.11914 59.7572 4.50438 59.7572 6.25015ZM58.619 6.3451C58.6754 6.00348 58.543 5.60501 58.4098 5.22551C58.1255 4.33361 57.328 3.74531 56.5125 3.78326C55.5067 3.84019 55.1456 4.56131 54.956 5.41526C54.8801 5.77578 54.8424 6.17425 54.8612 6.53485C54.9372 7.90112 55.8859 8.98277 56.9489 8.94482C57.9351 8.90687 58.619 7.86317 58.619 6.3451Z" fill="white" fill-opacity="0.24"/>
<path d="M36.4349 19.7051C36.4349 18.984 36.6626 18.5096 37.3647 18.3008C37.9151 18.149 38.4464 17.9403 38.9778 17.7506C39.3004 17.6367 39.7938 17.6747 39.7368 17.1054C39.6989 16.6499 39.8507 16.1186 39.3952 15.796C38.9588 15.4734 38.4843 15.6821 38.0289 15.8339C37.7253 15.9289 37.7633 16.2515 37.7063 16.4792C37.6115 16.8207 37.3837 16.8207 37.118 16.8017C36.9472 16.7828 36.6815 16.8776 36.6626 16.631C36.6247 16.3653 36.4918 15.9858 36.7954 15.853C37.6115 15.4734 38.3705 14.8662 39.3193 14.8852C40.3061 14.9042 40.7426 15.3026 40.7995 16.3463C40.8565 17.3141 40.7995 18.3009 40.8185 19.2686C40.8375 19.7621 40.6288 20.4072 41.5017 20.4262C41.6724 20.4262 41.7483 20.6349 41.6915 20.8057C41.6156 21.0334 40.1923 21.1852 40.1353 20.9575C39.8507 19.8569 39.3384 20.521 38.9967 20.8247C38.3136 21.4509 37.6494 21.4129 36.9662 20.9006C36.5297 20.5969 36.3969 20.1416 36.4349 19.7051ZM39.642 18.1111C39.0916 18.3389 38.5792 18.5476 38.0479 18.7563C37.4406 19.003 37.3647 19.4774 37.6115 19.9897C37.8581 20.5021 38.3136 20.4262 38.7501 20.2554C39.7558 19.9139 39.8887 19.1548 39.642 18.1111Z" fill="white" fill-opacity="0.24"/>
<path d="M44.3289 3.10156C45.5434 3.17746 45.9229 3.53806 45.9799 4.50578C46.0368 5.6064 46.0179 6.70702 46.0558 7.80764C46.0747 8.20611 45.9988 8.66159 46.6441 8.64261C46.8907 8.64261 46.9857 8.83236 46.8907 9.02211C46.7769 9.30673 45.4106 9.38263 45.3347 9.09801C45.0879 8.30106 44.7274 8.64261 44.3479 8.96519C43.7975 9.43956 43.2283 9.78118 42.4881 9.34468C41.8809 8.98416 41.5773 8.47184 41.6342 7.78867C41.6912 7.14352 41.9758 6.66907 42.678 6.51727C43.1713 6.40342 43.6267 6.17572 44.1202 6.06187C44.7843 5.92905 45.107 5.6064 44.9931 4.90433C44.9172 4.44886 44.8602 3.97448 44.291 3.93653C43.7027 3.89858 43.0385 3.86063 42.9246 4.71458C42.8866 5.0751 42.602 5.05613 42.3553 5.03715C42.1656 5.01818 41.8619 5.13203 41.8239 4.80945C41.805 4.58168 41.6912 4.22116 41.9378 4.10731C42.7918 3.72781 43.5698 3.15849 44.3289 3.10156ZM44.8982 6.36547C44.3479 6.59317 43.8355 6.82087 43.3042 7.01062C42.6969 7.23839 42.5641 7.73174 42.7728 8.22509C43.0195 8.81339 43.5319 8.69954 44.0443 8.50979C45.0311 8.09226 45.069 7.33327 44.8982 6.36547Z" fill="white" fill-opacity="0.24"/>
<path d="M61.4085 17.9791C61.4085 18.5483 61.4085 19.1176 61.4085 19.6869C61.4085 19.9336 61.4273 20.1993 61.6553 20.3511C61.8637 20.4839 62.4143 20.2372 62.2052 20.8065C62.1292 21.0342 60.8007 21.1861 60.7442 20.9962C60.3643 19.8007 59.8332 20.5978 59.4345 20.9203C58.6942 21.5466 58.0307 21.3189 57.404 20.7875C56.8541 20.3131 56.8345 19.3453 57.2521 18.7002C57.4424 18.4155 57.708 18.3965 57.9547 18.3016C58.4287 18.1309 58.9034 17.9791 59.3969 17.8463C59.9664 17.6755 60.4787 17.5047 60.3079 16.7267C60.2124 16.2523 60.1936 15.7209 59.5676 15.7019C58.9794 15.683 58.3339 15.664 58.2391 16.5179C58.2015 16.8974 57.8975 16.8215 57.6508 16.8215C57.4424 16.8215 57.1573 16.8974 57.1385 16.5749C57.1197 16.3472 57.0053 16.0055 57.2716 15.8917C58.1443 15.5122 58.941 14.848 59.9852 14.924C60.7819 14.9809 61.2754 15.3794 61.2942 16.2333C61.3137 16.8215 61.3513 17.4288 61.3702 18.017C61.4273 17.9791 61.4085 17.9791 61.4085 17.9791ZM60.2695 18.1119C59.6812 18.3586 59.0929 18.5673 58.543 18.833C57.9923 19.0797 57.9923 19.573 58.1819 20.0285C58.3911 20.4839 58.8274 20.4649 59.2449 20.3321C60.2124 19.9906 60.4027 19.611 60.2695 18.1119Z" fill="white" fill-opacity="0.24"/>
<path d="M64.8243 16.213C64.8243 17.3705 64.8431 18.547 64.8243 19.7046C64.8243 20.198 64.7671 20.6724 65.4886 20.6344C65.6217 20.6344 65.8489 20.6534 65.7925 20.8811C65.7541 21.0709 65.5834 21.0898 65.4314 21.0898C64.6723 21.0898 63.9132 21.0898 63.1542 21.0898C63.003 21.0898 62.8322 21.0708 62.8322 20.8621C62.8322 20.7103 62.9646 20.6344 63.0782 20.6344C63.8185 20.6724 63.7425 20.179 63.7237 19.7046C63.7237 17.6552 63.7237 15.6058 63.7237 13.5753C63.7237 13.1199 63.7997 12.6455 63.0782 12.7594C62.9074 12.7784 62.7562 12.7025 62.775 12.5126C62.7938 12.4178 62.9074 12.3229 63.003 12.266C63.1166 12.209 63.249 12.209 63.3633 12.1711C64.7867 11.7347 64.7867 11.7347 64.7867 13.2148C64.8243 14.1826 64.8243 15.1883 64.8243 16.213Z" fill="white" fill-opacity="0.24"/>
<path d="M53.5713 18.2448C53.5713 17.7703 53.5523 17.296 53.5713 16.8215C53.6092 16.1953 53.6472 15.5881 52.6983 15.7779C52.5465 15.8158 52.3188 15.7779 52.3567 15.5881C52.3947 15.3224 52.6034 15.0947 52.8691 15.1137C53.4953 15.1706 53.6851 14.9239 53.6851 14.3167C53.6851 14.108 53.9508 13.9182 54.1026 13.7095C54.1974 13.5956 54.311 13.4628 54.4818 13.5008C54.6909 13.5577 54.6337 13.7474 54.6337 13.8992C54.6337 14.0321 54.6533 14.1459 54.6337 14.2787C54.4818 15.0947 54.8617 15.3034 55.6207 15.2275C55.9247 15.2086 56.5318 14.9429 56.5506 15.4742C56.5694 16.0625 55.9435 15.7779 55.6584 15.7589C54.8617 15.6829 54.5389 15.9107 54.6149 16.7646C54.7097 17.6375 54.6337 18.5294 54.6337 19.4022C54.6337 20.2182 55.0136 20.4839 55.7727 20.2562C55.9999 20.1993 56.2662 19.9336 56.4174 20.2941C56.5694 20.6357 56.1714 20.6547 55.9811 20.7876C55.6967 20.9773 55.3928 21.186 55.0701 21.2809C54.2546 21.5276 53.5713 20.9963 53.5523 20.1234C53.5523 19.4972 53.5713 18.871 53.5713 18.2448Z" fill="white" fill-opacity="0.24"/>
<path d="M38.8637 4.7146C39.3191 4.20228 39.6987 3.84175 40.0213 3.40525C40.325 3.02576 40.7235 3.08268 41.065 3.17756C41.4066 3.27243 41.2168 3.6709 41.2548 3.93663C41.2927 4.46792 40.8942 4.29715 40.6096 4.35407C39.5659 4.54382 38.8637 5.3788 38.8637 6.46044C38.8637 6.87789 38.8827 7.27636 38.8637 7.69388C38.8447 8.33903 38.7688 9.00323 39.7746 8.85143C39.9644 8.81348 40.1541 8.92733 40.1352 9.174C40.1162 9.38273 39.9264 9.38273 39.7746 9.38273C38.9586 9.38273 38.1237 9.38273 37.3076 9.38273C37.1748 9.38273 36.966 9.42068 36.9281 9.21195C36.8712 8.92733 37.1178 8.90835 37.2887 8.90835C37.839 8.90835 37.839 8.56673 37.839 8.16826C37.82 7.02969 37.82 5.89112 37.839 4.75255C37.839 4.3351 37.839 3.97458 37.2507 4.16433C37.0989 4.20228 36.9281 4.20228 36.8901 3.99355C36.8522 3.78483 36.966 3.70885 37.1369 3.68988C37.1748 3.68988 37.1937 3.6709 37.2317 3.6709C38.5601 3.06371 38.6929 3.13961 38.8637 4.7146Z" fill="white" fill-opacity="0.24"/>
<path d="M51.1037 17.884C51.1037 18.4533 51.1037 19.0225 51.1037 19.5918C51.0847 20.1231 50.9898 20.6924 51.8438 20.6355C51.9766 20.6355 52.0905 20.7303 52.0905 20.8632C52.0715 20.9771 51.9766 21.0909 51.8247 21.0909C51.0278 21.0909 50.2497 21.0909 49.4527 21.0909C49.3198 21.0909 49.187 21.053 49.168 20.9012C49.149 20.7114 49.3009 20.6165 49.4716 20.6165C50.0979 20.6355 50.041 20.218 50.041 19.7816C50.022 18.681 50.022 17.5614 50.041 16.4608C50.041 16.0623 50.022 15.7396 49.4907 15.8535C49.3009 15.8914 49.0731 15.8725 49.0542 15.6258C49.0352 15.3601 49.3009 15.3981 49.4527 15.3412C51.0088 14.7149 51.1037 14.7909 51.1037 16.4418C51.1037 16.9351 51.1037 17.4096 51.1037 17.884Z" fill="white" fill-opacity="0.24"/>
<path d="M51.2554 13.6134C51.2933 14.2586 51.0656 14.4863 50.4963 14.5052C49.927 14.5242 49.927 14.2206 49.8891 13.8032C49.8511 13.2718 50.0978 13.101 50.5912 13.082C51.0656 13.0631 51.3313 13.1769 51.2554 13.6134Z" fill="white" fill-opacity="0.24"/>
</svg>
