<svg width="76" height="24" viewBox="0 0 76 24" fill="none" xmlns="http://www.w3.org/2000/svg">
<path d="M7.34951 14.1616C8.28933 12.5662 9.45864 11.2001 11.076 10.2603C11.2618 10.151 11.6006 10.1947 11.8191 10.2712C14.8572 11.4077 17.8187 11.2438 20.6928 9.7685C22.037 9.08003 23.108 8.09649 23.6653 6.63211C23.8293 6.19499 23.7746 5.93272 23.3703 5.63766C20.8786 3.84543 18.1684 3.60502 15.3052 4.44649C8.99966 6.29335 4.70489 10.3805 2.16954 16.3801C2.09305 16.5659 2.02748 16.7626 1.94005 16.9374C1.65592 17.5057 1.17508 17.768 0.716095 17.6149C0.268036 17.462 -0.0816667 16.8719 0.0166874 16.3254C0.115041 15.8118 0.235251 15.2873 0.399174 14.7955C1.42642 11.6481 3.26236 8.97073 5.32779 6.42449C8.0926 3.04767 11.6224 0.982246 15.8844 0.239128C20.8349 -0.6242 25.1079 0.883893 28.8016 4.21699C28.9655 4.36999 29.0639 4.70876 29.031 4.92733C28.6158 7.81239 27.3153 10.1838 24.8893 11.8886C22.9112 13.2765 20.8131 14.3693 18.3979 14.719C17.6439 14.8283 16.868 14.7627 16.1139 14.7846C15.8626 14.7846 15.6222 14.7846 15.2506 14.7846C15.4364 14.9813 15.5238 15.1015 15.644 15.1998C18.4962 17.5713 21.6763 19.3198 25.3264 20.1066C26.4411 20.347 27.5667 20.347 28.6814 20.052C29.0639 19.9536 29.4463 19.8006 29.7961 19.6148C31.7522 18.5657 32.1237 17.1122 30.8561 15.2982C30.408 14.6643 29.8616 14.0961 29.3043 13.4404C29.5775 13.0579 29.8944 12.6208 30.2004 12.1837C32.6155 13.1235 34.4405 15.626 34.4077 17.9647C34.3859 19.9755 33.3805 21.4508 31.7303 22.5108C30.1676 23.5053 28.3972 23.7675 26.5941 23.702C18.8897 23.4288 12.6716 20.0847 7.56804 14.4458C7.49157 14.3584 7.43695 14.2709 7.34951 14.1616Z" fill="white" fill-opacity="0.24"/>
<path d="M47.3143 6.76397C47.806 8.63271 48.9972 9.91132 50.6364 10.8074C50.3851 11.5506 50.3413 11.5724 49.6747 11.4085C47.6639 10.8949 46.5274 9.4851 45.8171 7.64918C45.7624 7.49616 45.7516 7.31039 45.6532 7.1902C45.522 7.03718 45.3472 6.84051 45.1723 6.82955C44.7133 6.77494 44.2435 6.80769 43.7189 6.80769C43.7189 8.30489 43.7189 9.73644 43.7189 11.2118C43.1506 11.2118 42.637 11.2118 42.0578 11.2118C42.0578 10.9604 42.0578 10.7418 42.0578 10.5342C42.0578 8.09726 42.0578 5.66025 42.0578 3.21234C42.0578 2.88449 42.0141 2.64407 41.6753 2.46922C41.2273 2.2288 41.1726 1.70424 41.5551 1.36547C41.872 1.09227 42.2763 0.851847 42.6698 0.720704C44.1232 0.239865 45.6313 0.130583 47.1394 0.414716C48.3087 0.644208 49.2704 1.21247 49.5764 2.46922C49.9042 3.79153 49.5654 4.97177 48.56 5.90067C48.2213 6.22852 47.7732 6.45801 47.3143 6.76397ZM43.6861 5.69304C44.5494 5.64933 45.3362 5.6384 46.1231 5.5619C46.3963 5.54004 46.6804 5.39798 46.9209 5.24498C47.6639 4.786 47.97 4.05381 47.9481 3.21234C47.9263 2.56757 47.6421 2.03209 47.0192 1.79167C46.0138 1.40918 44.9975 1.36547 44.014 1.86817C43.861 1.94467 43.697 2.18509 43.6861 2.34901C43.6642 3.41997 43.6861 4.49093 43.6861 5.69304Z" fill="white" fill-opacity="0.24"/>
<path d="M73.3889 6.56535C73.542 5.3851 73.1372 4.7622 72.0884 4.70756C71.214 4.65292 70.3286 4.82777 69.3563 4.90426C69.2577 4.69663 69.1156 4.36878 68.9411 3.97537C70.3947 3.36339 71.8477 2.93719 73.3999 3.38525C74.3067 3.64752 74.8639 4.37971 74.919 5.27583C75.039 7.08991 75.028 8.90397 75.0501 10.729C75.0501 10.8164 74.9404 10.9585 74.8529 11.0022C74.5253 11.1661 74.1977 11.2863 73.815 11.4503C73.695 11.0896 73.5854 10.7727 73.4654 10.4121C73.0062 10.6634 72.5911 10.9912 72.1214 11.1115C71.4657 11.2863 70.7658 11.4066 70.0996 11.3519C69.1922 11.2754 68.5584 10.5651 68.4164 9.73456C68.2419 8.69634 68.7115 7.69094 69.6079 7.17735C70.5472 6.64183 71.5856 6.59811 72.6241 6.57625C72.8641 6.56535 73.1158 6.56535 73.3889 6.56535ZM73.4544 7.50517C72.5255 7.64723 71.6946 7.74563 70.8644 7.90954C70.6347 7.95326 70.4051 8.14992 70.2527 8.3357C69.6624 9.03513 69.9465 10.0296 70.7988 10.1826C71.7822 10.3575 72.6241 9.99681 73.3234 9.30834C73.3999 9.23186 73.4434 9.07885 73.4434 8.96955C73.4654 8.54333 73.4544 8.12806 73.4544 7.50517Z" fill="white" fill-opacity="0.24"/>
<path d="M56.7339 3.47452C57.2803 3.47452 57.7612 3.47452 58.3295 3.47452C58.3295 3.68215 58.3295 3.86793 58.3295 4.06464C58.3295 6.08636 58.2967 8.10805 58.3513 10.1298C58.3622 10.7418 58.1983 11.0915 57.6082 11.2445C57.4552 11.2881 57.3131 11.3647 57.1055 11.4521C56.9853 11.0805 56.8651 10.7308 56.7449 10.3702C56.3733 10.6106 56.0455 10.8292 55.7067 11.0259C54.9636 11.4521 54.144 11.5067 53.3243 11.3537C52.2862 11.1571 51.7507 10.4249 51.7288 9.18998C51.7069 7.9551 51.7179 6.70925 51.7288 5.47437C51.7288 5.19024 51.7069 4.98261 51.39 4.81869C50.8546 4.53455 50.8873 3.88979 51.4666 3.69308C52.0348 3.5073 52.6577 3.47452 53.3243 3.36523C53.3243 4.13021 53.3243 4.76405 53.3243 5.39788C53.3243 6.5672 53.3243 7.72561 53.3243 8.89491C53.3243 9.75826 53.8379 10.261 54.7013 10.2063C55.0182 10.1844 55.357 10.1079 55.6521 9.97679C56.3514 9.67082 56.8323 9.27742 56.7668 8.33754C56.6684 6.92784 56.7449 5.49623 56.7449 4.07557C56.7339 3.88979 56.7339 3.69308 56.7339 3.47452Z" fill="white" fill-opacity="0.24"/>
<path d="M66.9516 11.2097C66.482 11.2097 66.0014 11.2097 65.4546 11.2097C65.4546 10.8928 65.4546 10.5977 65.4546 10.3136C65.4546 8.83825 65.4656 7.36298 65.4435 5.88766C65.4331 4.72927 64.8863 4.28122 63.7281 4.42328C63.6953 4.42328 63.6516 4.43421 63.6188 4.43421C62.0779 4.65277 62.0343 4.70741 62.0343 6.24829C62.0343 7.6908 62.0343 9.12242 62.0343 10.5649C62.0343 10.7616 62.0343 10.9583 62.0343 11.1988C61.4878 11.1988 60.9851 11.1988 60.4387 11.1988C60.4387 10.0513 60.4387 8.92569 60.4387 7.8001C60.4387 7.36298 60.4387 6.92586 60.4387 6.48874C60.4387 6.08437 60.4715 5.73466 59.9797 5.50517C59.6081 5.34125 59.6081 4.83855 59.9579 4.53257C60.2638 4.25936 60.6245 4.02987 61.007 3.85501C62.3621 3.24304 63.8046 3.09004 65.2801 3.22118C66.3179 3.3086 66.9516 3.92059 66.9847 4.94783C67.0392 6.96958 67.0178 8.98037 67.0178 11.0021C67.0178 11.0785 66.9847 11.1223 66.9516 11.2097Z" fill="white" fill-opacity="0.24"/>
<path d="M55.2806 21.4398C55.2806 22.3249 55.2806 23.1118 55.2806 23.8877C55.2151 23.9314 55.1823 23.9642 55.1495 23.9642C54.166 24.0516 54.166 24.0516 54.166 23.0681C54.166 21.5053 54.1769 19.9426 54.155 18.3799C54.155 18.1504 54.013 17.8881 53.86 17.7133C53.6196 17.4291 53.6196 17.2106 53.86 16.9482C54.6359 16.0849 57.051 15.7134 57.9909 16.3909C58.3405 16.6532 58.7012 17.1013 58.7777 17.5056C58.9198 18.3143 58.9853 19.1776 58.8432 19.9754C58.581 21.5271 57.2259 22.1938 55.7506 21.6364C55.6085 21.5818 55.4992 21.5271 55.2806 21.4398ZM55.2806 18.9372C55.2806 19.3962 55.2697 19.8442 55.2916 20.3032C55.3025 20.4671 55.3681 20.6748 55.4774 20.7622C56.3407 21.4398 57.4991 21.0245 57.7067 19.9535C57.8051 19.429 57.8488 18.8716 57.8051 18.3361C57.7068 17.0685 56.7887 16.533 55.6631 17.0138C55.379 17.134 55.2479 17.3089 55.2697 17.6367C55.3025 18.0629 55.2806 18.5001 55.2806 18.9372Z" fill="white" fill-opacity="0.24"/>
<path d="M70.9188 18.2819C71.0609 17.4295 70.5582 16.9268 69.5638 17.0142C69.0942 17.0579 68.6349 17.1563 68.0991 17.2437C68.0122 17.0688 67.9136 16.8393 67.7826 16.5661C68.777 16.1181 69.7713 15.8339 70.8312 16.1071C71.618 16.3148 72.0883 17.0251 72.1104 17.9977C72.1318 19.0469 72.1207 20.1069 72.1104 21.1669C72.1104 21.5604 72.0118 21.6259 71.236 21.7898C71.1919 21.6805 71.1484 21.5713 71.105 21.4511C71.0609 21.3527 71.0284 21.2543 71.0064 21.1997C70.4492 21.4073 69.9355 21.6805 69.3783 21.7789C68.3398 21.9756 67.6295 21.5494 67.4109 20.697C67.1923 19.8774 67.6626 18.9703 68.5804 18.6862C69.3017 18.4676 70.0996 18.4239 70.9188 18.2819ZM70.9078 19.0578C70.274 19.1561 69.6624 19.1998 69.0831 19.3638C68.6018 19.5058 68.3729 20.0413 68.5253 20.4675C68.7004 20.9484 69.1045 21.0686 69.5417 20.9811C70.7333 20.7516 71.1705 20.4566 70.9078 19.0578Z" fill="white" fill-opacity="0.24"/>
<path d="M46.9204 20.598C47.0844 21.5705 47.0953 21.6252 46.1992 21.7454C45.4888 21.8438 44.7348 21.9202 44.0354 21.8C42.6038 21.5596 41.7295 20.4668 41.5765 18.7292C41.5 17.844 41.5656 16.9042 41.7623 16.03C42.123 14.4563 43.3469 13.5821 44.9533 13.6039C45.4233 13.6148 45.8931 13.6804 46.3522 13.7897C47.1171 13.9645 47.139 14.0519 46.8658 14.8607C46.4942 14.7514 46.1226 14.5983 45.7402 14.5219C44.3523 14.2487 43.3469 14.8716 42.9425 16.2266C42.6584 17.1883 42.6584 18.1719 42.866 19.1445C43.2157 20.74 44.4943 21.4066 46.1773 20.8712C46.4177 20.7946 46.6472 20.7072 46.9204 20.598Z" fill="white" fill-opacity="0.24"/>
<path d="M48.581 17.2429C48.4827 17.0134 48.3953 16.8057 48.286 16.5544C49.2368 16.1063 50.1766 15.8878 51.171 16.0407C51.936 16.161 52.4824 16.7402 52.5371 17.6035C52.6136 18.8165 52.6135 20.0405 52.5589 21.2535C52.548 21.4721 52.089 21.6797 51.783 21.9311C51.6518 21.5704 51.5645 21.3628 51.4989 21.1879C50.9415 21.3955 50.4279 21.6687 49.8706 21.778C48.8652 21.9638 48.1221 21.5377 47.9035 20.7618C47.674 19.9093 48.1221 18.9913 49.0619 18.6854C49.6739 18.4886 50.3405 18.4668 50.9852 18.4012C51.4552 18.3576 51.5863 18.2045 51.4442 17.7456C51.2803 17.221 50.7449 16.9259 50.0236 17.0024C49.5537 17.068 49.0947 17.1663 48.581 17.2429ZM51.4224 19.0679C50.7886 19.1662 50.1766 19.199 49.5974 19.3739C49.1384 19.505 48.9089 19.9093 49.0073 20.4011C49.0947 20.8492 49.4553 21.0021 49.8596 21.0131C50.9962 21.035 51.5972 20.3574 51.4224 19.0679Z" fill="white" fill-opacity="0.24"/>
<path d="M75.039 13.123C75.039 14.3908 75.039 15.4399 75.039 16.4889C75.039 17.997 75.039 19.5051 75.039 21.0132C75.039 21.7564 75.039 21.7564 74.2957 21.7345C74.1861 21.7345 74.0771 21.7235 73.902 21.7017C73.902 21.494 73.902 21.3083 73.902 21.1116C73.902 19.1336 73.913 17.1446 73.8916 15.1667C73.8916 14.9481 73.7599 14.6967 73.6179 14.5328C73.3448 14.2268 73.3668 13.9427 73.673 13.7459C74.055 13.5274 74.4922 13.3744 75.039 13.123Z" fill="white" fill-opacity="0.24"/>
<path d="M65.0395 14.7637C65.0395 15.321 65.0395 15.7472 65.0395 16.2389C65.3016 16.2499 65.5312 16.2936 65.7608 16.2718C66.2746 16.228 66.4166 16.4466 66.2635 16.9384C66.2091 16.9493 66.1429 16.9821 66.0774 16.9821C65.0285 17.0367 65.0285 17.0367 65.0285 18.0749C65.0285 18.7087 65.0285 19.3426 65.0285 19.9873C65.0285 20.9927 65.3561 21.2878 66.3946 21.1895C66.6021 21.5391 66.5801 21.7359 66.0994 21.8342C64.6788 22.1293 63.9248 21.5391 63.9248 20.0857C63.9248 19.2333 63.9248 18.3809 63.9248 17.5175C63.9248 17.2443 63.9139 17.0258 63.5532 16.9711C63.127 16.9056 63.1052 16.6105 63.28 16.2718C63.6516 15.5723 64.2745 15.1898 65.0395 14.7637Z" fill="white" fill-opacity="0.24"/>
<path d="M61.6081 16.084C61.6081 18.0401 61.6081 19.8651 61.6081 21.712C61.2584 21.712 60.9415 21.712 60.5481 21.712C60.5481 20.9688 60.5481 20.2476 60.5481 19.5373C60.5481 19.0236 60.57 18.5209 60.5372 18.0182C60.5262 17.8434 60.4279 17.6467 60.3077 17.5265C59.958 17.1659 59.9252 16.9255 60.3514 16.6632C60.712 16.4228 61.1491 16.2916 61.6081 16.084Z" fill="white" fill-opacity="0.24"/>
<path d="M60.9304 13.8225C61.3675 13.8335 61.6735 14.1613 61.6625 14.5984C61.6517 15.0028 61.3238 15.3197 60.9195 15.3306C60.5151 15.3416 60.1436 14.97 60.1436 14.5657C60.1436 14.1504 60.5041 13.8116 60.9304 13.8225Z" fill="white" fill-opacity="0.24"/>
</svg>
